solid OpenSCAD_Model
  facet normal -1 0 0
    outer loop
      vertex 0 65 0
      vertex 0 41.4881 2
      vertex 0 65 5
    endloop
  endfacet
  facet normal -1 0 0
    outer loop
      vertex 0 65 0
      vertex 0 23.5119 2
      vertex 0 41.4881 2
    endloop
  endfacet
  facet normal -1 0 0
    outer loop
      vertex 0 0 0
      vertex 0 23.5119 2
      vertex 0 65 0
    endloop
  endfacet
  facet normal -1 0 0
    outer loop
      vertex 0 0 5
      vertex 0 23.5119 2
      vertex 0 0 0
    endloop
  endfacet
  facet normal -1 0 0
    outer loop
      vertex 0 23.5119 2
      vertex 0 0 5
      vertex 0 23.5119 5
    endloop
  endfacet
  facet normal -1 -0 0
    outer loop
      vertex 0 65 5
      vertex 0 41.4881 2
      vertex 0 41.4881 5
    endloop
  endfacet
  facet normal 0 0 1
    outer loop
      vertex 3 57.25 5
      vertex 0.00351906 41.4921 5
      vertex 2.05 42.9789 5
    endloop
  endfacet
  facet normal -0 0 1
    outer loop
      vertex 0 65 5
      vertex 3 57.25 5
      vertex 7.47446 65 5
    endloop
  endfacet
  facet normal 0 0 1
    outer loop
      vertex 0 41.4881 5
      vertex 3 57.25 5
      vertex 0 65 5
    endloop
  endfacet
  facet normal 0 0 1
    outer loop
      vertex 3 57.25 5
      vertex 0 41.4881 5
      vertex 0.00351906 41.4921 5
    endloop
  endfacet
  facet normal 0 0 1
    outer loop
      vertex 29.7295 9.68307 5
      vertex 23.7705 9.68307 5
      vertex 24 7.5 5
    endloop
  endfacet
  facet normal 0 0 1
    outer loop
      vertex 31.5053 13.6717 5
      vertex 23.0922 11.7707 5
      vertex 23.7705 9.68307 5
    endloop
  endfacet
  facet normal 0 0 1
    outer loop
      vertex 31.5053 13.6717 5
      vertex 21.9947 13.6717 5
      vertex 23.0922 11.7707 5
    endloop
  endfacet
  facet normal 0 0 1
    outer loop
      vertex 31.5053 13.6717 5
      vertex 20.5259 15.303 5
      vertex 21.9947 13.6717 5
    endloop
  endfacet
  facet normal 0 0 1
    outer loop
      vertex 32.9741 15.303 5
      vertex 20.5259 15.303 5
      vertex 31.5053 13.6717 5
    endloop
  endfacet
  facet normal -0 0 1
    outer loop
      vertex 17.8891 25.3878 5
      vertex 20.5259 15.303 5
      vertex 18.7 26.45 5
    endloop
  endfacet
  facet normal 0 0 1
    outer loop
      vertex 17.8891 25.3878 5
      vertex 18.7 26.45 5
      vertex 18.5747 26.5753 5
    endloop
  endfacet
  facet normal 0 0 1
    outer loop
      vertex 20.5259 15.303 5
      vertex 17.8891 25.3878 5
      vertex 18.75 16.5933 5
    endloop
  endfacet
  facet normal -0 0 1
    outer loop
      vertex 16.1965 23.5079 5
      vertex 18.75 16.5933 5
      vertex 17.8891 25.3878 5
    endloop
  endfacet
  facet normal 0 0 1
    outer loop
      vertex 18.75 16.5933 5
      vertex 16.1965 23.5079 5
      vertex 16.7447 17.4861 5
    endloop
  endfacet
  facet normal -0 0 1
    outer loop
      vertex 14.15 22.0211 5
      vertex 16.7447 17.4861 5
      vertex 16.1965 23.5079 5
    endloop
  endfacet
  facet normal 0 0 1
    outer loop
      vertex 16.7447 17.4861 5
      vertex 14.15 22.0211 5
      vertex 14.5975 17.9425 5
    endloop
  endfacet
  facet normal -0 0 1
    outer loop
      vertex 11.8391 20.9922 5
      vertex 14.5975 17.9425 5
      vertex 14.15 22.0211 5
    endloop
  endfacet
  facet normal 0 0 1
    outer loop
      vertex 14.5975 17.9425 5
      vertex 11.8391 20.9922 5
      vertex 12.4025 17.9425 5
    endloop
  endfacet
  facet normal 0 0 1
    outer loop
      vertex 11.8391 20.9922 5
      vertex 10.2553 17.4861 5
      vertex 12.4025 17.9425 5
    endloop
  endfacet
  facet normal -0 0 1
    outer loop
      vertex 9.36479 20.4663 5
      vertex 10.2553 17.4861 5
      vertex 11.8391 20.9922 5
    endloop
  endfacet
  facet normal 0 0 1
    outer loop
      vertex 9.36479 20.4663 5
      vertex 8.25 16.5933 5
      vertex 10.2553 17.4861 5
    endloop
  endfacet
  facet normal -0 0 1
    outer loop
      vertex 6.83521 20.4663 5
      vertex 8.25 16.5933 5
      vertex 9.36479 20.4663 5
    endloop
  endfacet
  facet normal 0 0 1
    outer loop
      vertex 6.83521 20.4663 5
      vertex 6.47413 15.303 5
      vertex 8.25 16.5933 5
    endloop
  endfacet
  facet normal 0 0 1
    outer loop
      vertex 4.36089 20.9922 5
      vertex 6.47413 15.303 5
      vertex 6.83521 20.4663 5
    endloop
  endfacet
  facet normal 0 0 1
    outer loop
      vertex 6.47413 15.303 5
      vertex 4.36089 20.9922 5
      vertex 5.00532 13.6717 5
    endloop
  endfacet
  facet normal 0 0 1
    outer loop
      vertex 2.05 22.0211 5
      vertex 5.00532 13.6717 5
      vertex 4.36089 20.9922 5
    endloop
  endfacet
  facet normal 0 0 1
    outer loop
      vertex 5.00532 13.6717 5
      vertex 2.05 22.0211 5
      vertex 3.90777 11.7707 5
    endloop
  endfacet
  facet normal 0 0 1
    outer loop
      vertex 0.00351906 23.5079 5
      vertex 3.90777 11.7707 5
      vertex 2.05 22.0211 5
    endloop
  endfacet
  facet normal 0 0 1
    outer loop
      vertex 3.90777 11.7707 5
      vertex 0.00351906 23.5079 5
      vertex 3.22945 9.68307 5
    endloop
  endfacet
  facet normal 0 0 1
    outer loop
      vertex 34.125 47.0742 5
      vertex 20.625 47.0742 5
      vertex 24.7104 32.4604 5
    endloop
  endfacet
  facet normal 0 0 1
    outer loop
      vertex 20.625 47.0742 5
      vertex 18.7 38.4708 5
      vertex 24.7104 32.4604 5
    endloop
  endfacet
  facet normal -0 0 1
    outer loop
      vertex 17.8891 39.6122 5
      vertex 18.7 38.4708 5
      vertex 20.625 47.0742 5
    endloop
  endfacet
  facet normal 0 0 1
    outer loop
      vertex 18.7 38.4708 5
      vertex 17.8891 39.6122 5
      vertex 18.6037 38.3745 5
    endloop
  endfacet
  facet normal 0 0 1
    outer loop
      vertex 20.625 47.0742 5
      vertex 16.1965 41.4921 5
      vertex 17.8891 39.6122 5
    endloop
  endfacet
  facet normal 0 0 1
    outer loop
      vertex 20.625 47.0742 5
      vertex 14.15 42.9789 5
      vertex 16.1965 41.4921 5
    endloop
  endfacet
  facet normal 0 0 1
    outer loop
      vertex 20.625 47.0742 5
      vertex 11.8391 44.0078 5
      vertex 14.15 42.9789 5
    endloop
  endfacet
  facet normal -0 0 1
    outer loop
      vertex 8.875 47.0742 5
      vertex 11.8391 44.0078 5
      vertex 20.625 47.0742 5
    endloop
  endfacet
  facet normal 0 0 1
    outer loop
      vertex 11.8391 44.0078 5
      vertex 8.875 47.0742 5
      vertex 9.36479 44.5337 5
    endloop
  endfacet
  facet normal 0 0 1
    outer loop
      vertex 8.875 47.0742 5
      vertex 6.83521 44.5337 5
      vertex 9.36479 44.5337 5
    endloop
  endfacet
  facet normal 0 0 1
    outer loop
      vertex 8.875 47.0742 5
      vertex 4.36089 44.0078 5
      vertex 6.83521 44.5337 5
    endloop
  endfacet
  facet normal 0 0 1
    outer loop
      vertex 3 57.25 5
      vertex 4.36089 44.0078 5
      vertex 8.875 47.0742 5
    endloop
  endfacet
  facet normal 0 0 1
    outer loop
      vertex 4.36089 44.0078 5
      vertex 3 57.25 5
      vertex 2.05 42.9789 5
    endloop
  endfacet
  facet normal 0 0 1
    outer loop
      vertex 32.7245 65 5
      vertex 26.5 57.25 5
      vertex 28.25 57.25 5
    endloop
  endfacet
  facet normal 0 -0 1
    outer loop
      vertex 26.5 57.25 5
      vertex 32.7245 65 5
      vertex 22.0255 65 5
    endloop
  endfacet
  facet normal 0 0 1
    outer loop
      vertex 56.2295 9.68307 5
      vertex 50.2705 9.68307 5
      vertex 50.5 7.5 5
    endloop
  endfacet
  facet normal 0 0 1
    outer loop
      vertex 59.5 41.75 5
      vertex 49.5922 11.7707 5
      vertex 50.2705 9.68307 5
    endloop
  endfacet
  facet normal 0 0 1
    outer loop
      vertex 59.5 41.75 5
      vertex 48.4947 13.6717 5
      vertex 49.5922 11.7707 5
    endloop
  endfacet
  facet normal 0 0 1
    outer loop
      vertex 43.2447 17.4861 5
      vertex 59.5 41.75 5
      vertex 45.875 47.0742 5
    endloop
  endfacet
  facet normal 0 0 1
    outer loop
      vertex 59.5 41.75 5
      vertex 47.0259 15.303 5
      vertex 48.4947 13.6717 5
    endloop
  endfacet
  facet normal 0 0 1
    outer loop
      vertex 59.5 41.75 5
      vertex 45.25 16.5933 5
      vertex 47.0259 15.303 5
    endloop
  endfacet
  facet normal 0 0 1
    outer loop
      vertex 59.5 41.75 5
      vertex 43.2447 17.4861 5
      vertex 45.25 16.5933 5
    endloop
  endfacet
  facet normal 0 0 1
    outer loop
      vertex 45.875 47.0742 5
      vertex 41.0975 17.9425 5
      vertex 43.2447 17.4861 5
    endloop
  endfacet
  facet normal 0 0 1
    outer loop
      vertex 45.875 47.0742 5
      vertex 38.9025 17.9425 5
      vertex 41.0975 17.9425 5
    endloop
  endfacet
  facet normal -0 0 1
    outer loop
      vertex 34.125 47.0742 5
      vertex 38.9025 17.9425 5
      vertex 45.875 47.0742 5
    endloop
  endfacet
  facet normal 0 0 1
    outer loop
      vertex 38.9025 17.9425 5
      vertex 24.7104 32.4604 5
      vertex 36.7553 17.4861 5
    endloop
  endfacet
  facet normal 0 0 1
    outer loop
      vertex 38.9025 17.9425 5
      vertex 34.125 47.0742 5
      vertex 24.7104 32.4604 5
    endloop
  endfacet
  facet normal 0 0 1
    outer loop
      vertex 36.7553 17.4861 5
      vertex 24.7104 32.4604 5
      vertex 34.75 16.5933 5
    endloop
  endfacet
  facet normal 0 0 1
    outer loop
      vertex 34.75 16.5933 5
      vertex 24.7104 32.4604 5
      vertex 32.9741 15.303 5
    endloop
  endfacet
  facet normal -0 0 1
    outer loop
      vertex 18.7 26.45 5
      vertex 32.9741 15.303 5
      vertex 24.7104 32.4604 5
    endloop
  endfacet
  facet normal 0 -0 1
    outer loop
      vertex 20.5259 15.303 5
      vertex 32.9741 15.303 5
      vertex 18.7 26.45 5
    endloop
  endfacet
  facet normal 0 0 1
    outer loop
      vertex 23.7705 9.68307 5
      vertex 30.4078 11.7707 5
      vertex 31.5053 13.6717 5
    endloop
  endfacet
  facet normal 0 0 1
    outer loop
      vertex 20.625 47.0742 5
      vertex 34.125 47.0742 5
      vertex 28.25 57.25 5
    endloop
  endfacet
  facet normal 0 0 1
    outer loop
      vertex 57.9745 65 5
      vertex 51.75 57.25 5
      vertex 53.5 57.25 5
    endloop
  endfacet
  facet normal 0 -0 1
    outer loop
      vertex 51.75 57.25 5
      vertex 57.9745 65 5
      vertex 47.2755 65 5
    endloop
  endfacet
  facet normal -0 0 1
    outer loop
      vertex 77 57.25 5
      vertex 80 39.75 5
      vertex 80 65 5
    endloop
  endfacet
  facet normal 0 0 1
    outer loop
      vertex 80 39.75 5
      vertex 77 57.25 5
      vertex 78 41.75 5
    endloop
  endfacet
  facet normal 0 -0 1
    outer loop
      vertex 77 57.25 5
      vertex 80 65 5
      vertex 72.5255 65 5
    endloop
  endfacet
  facet normal 0 0 1
    outer loop
      vertex 80 39.75 5
      vertex 78 41.75 5
      vertex 78 39.75 5
    endloop
  endfacet
  facet normal -0 0 1
    outer loop
      vertex 71.125 47.0742 5
      vertex 78 41.75 5
      vertex 77 57.25 5
    endloop
  endfacet
  facet normal 0 0 1
    outer loop
      vertex 71.125 47.0742 5
      vertex 59.5 41.75 5
      vertex 78 41.75 5
    endloop
  endfacet
  facet normal 0 0 1
    outer loop
      vertex 50.2705 9.68307 5
      vertex 59.5 23.25 5
      vertex 59.5 41.75 5
    endloop
  endfacet
  facet normal -0 0 1
    outer loop
      vertex 59.375 47.0742 5
      vertex 59.5 41.75 5
      vertex 71.125 47.0742 5
    endloop
  endfacet
  facet normal 0 0 1
    outer loop
      vertex 45.875 47.0742 5
      vertex 59.375 47.0742 5
      vertex 51.75 57.25 5
    endloop
  endfacet
  facet normal 0 0 1
    outer loop
      vertex 59.5 23.25 5
      vertex 58.0053 13.6717 5
      vertex 59.4741 15.303 5
    endloop
  endfacet
  facet normal 0 0 1
    outer loop
      vertex 50.2705 9.68307 5
      vertex 58.0053 13.6717 5
      vertex 59.5 23.25 5
    endloop
  endfacet
  facet normal 0 0 1
    outer loop
      vertex 50.2705 9.68307 5
      vertex 56.9078 11.7707 5
      vertex 58.0053 13.6717 5
    endloop
  endfacet
  facet normal 0 0 1
    outer loop
      vertex 50.2705 9.68307 5
      vertex 56.2295 9.68307 5
      vertex 56.9078 11.7707 5
    endloop
  endfacet
  facet normal -0 0 1
    outer loop
      vertex 51.75 57.25 5
      vertex 59.375 47.0742 5
      vertex 53.5 57.25 5
    endloop
  endfacet
  facet normal 0 0 1
    outer loop
      vertex 80 0 5
      vertex 76.7706 9.68307 5
      vertex 77 7.5 5
    endloop
  endfacet
  facet normal 0 0 1
    outer loop
      vertex 80 25.25 5
      vertex 76.0922 11.7707 5
      vertex 76.7706 9.68307 5
    endloop
  endfacet
  facet normal 0 0 1
    outer loop
      vertex 78 23.25 5
      vertex 74.9947 13.6717 5
      vertex 76.0922 11.7707 5
    endloop
  endfacet
  facet normal 0 0 1
    outer loop
      vertex 78 23.25 5
      vertex 73.5259 15.303 5
      vertex 74.9947 13.6717 5
    endloop
  endfacet
  facet normal 0 0 1
    outer loop
      vertex 78 23.25 5
      vertex 71.75 16.5933 5
      vertex 73.5259 15.303 5
    endloop
  endfacet
  facet normal 0 0 1
    outer loop
      vertex 78 23.25 5
      vertex 69.7447 17.4861 5
      vertex 71.75 16.5933 5
    endloop
  endfacet
  facet normal 0 0 1
    outer loop
      vertex 78 23.25 5
      vertex 67.5975 17.9425 5
      vertex 69.7447 17.4861 5
    endloop
  endfacet
  facet normal -0 0 1
    outer loop
      vertex 59.5 23.25 5
      vertex 67.5975 17.9425 5
      vertex 78 23.25 5
    endloop
  endfacet
  facet normal 0 0 1
    outer loop
      vertex 67.5975 17.9425 5
      vertex 59.5 23.25 5
      vertex 65.4025 17.9425 5
    endloop
  endfacet
  facet normal 0 0 1
    outer loop
      vertex 65.4025 17.9425 5
      vertex 59.5 23.25 5
      vertex 63.2553 17.4861 5
    endloop
  endfacet
  facet normal 0 0 1
    outer loop
      vertex 59.5 23.25 5
      vertex 61.25 16.5933 5
      vertex 63.2553 17.4861 5
    endloop
  endfacet
  facet normal 0 0 1
    outer loop
      vertex 61.25 16.5933 5
      vertex 59.5 23.25 5
      vertex 59.4741 15.303 5
    endloop
  endfacet
  facet normal 0 0 1
    outer loop
      vertex 78 23.25 5
      vertex 80 25.25 5
      vertex 78 25.25 5
    endloop
  endfacet
  facet normal 0 0 1
    outer loop
      vertex 76.0922 11.7707 5
      vertex 80 25.25 5
      vertex 78 23.25 5
    endloop
  endfacet
  facet normal -0 0 1
    outer loop
      vertex 76.7706 9.68307 5
      vertex 80 0 5
      vertex 80 25.25 5
    endloop
  endfacet
  facet normal -0 0 1
    outer loop
      vertex 76.7706 5.31693 5
      vertex 80 0 5
      vertex 77 7.5 5
    endloop
  endfacet
  facet normal -0 0 1
    outer loop
      vertex 76.0922 3.22927 5
      vertex 80 0 5
      vertex 76.7706 5.31693 5
    endloop
  endfacet
  facet normal -0 0 1
    outer loop
      vertex 74.9947 1.32825 5
      vertex 80 0 5
      vertex 76.0922 3.22927 5
    endloop
  endfacet
  facet normal 0 0 1
    outer loop
      vertex 80 0 5
      vertex 74.9947 1.32825 5
      vertex 73.7987 0 5
    endloop
  endfacet
  facet normal 0 0 1
    outer loop
      vertex 59.375 47.0742 5
      vertex 45.875 47.0742 5
      vertex 59.5 41.75 5
    endloop
  endfacet
  facet normal 0 0 1
    outer loop
      vertex 56.2295 9.68307 5
      vertex 50.5 7.5 5
      vertex 56 7.5 5
    endloop
  endfacet
  facet normal -0 0 1
    outer loop
      vertex 50.5 7.5 5
      vertex 56.2295 5.31693 5
      vertex 56 7.5 5
    endloop
  endfacet
  facet normal 0 0 1
    outer loop
      vertex 50.2705 5.31693 5
      vertex 56.2295 5.31693 5
      vertex 50.5 7.5 5
    endloop
  endfacet
  facet normal 0 0 1
    outer loop
      vertex 56.2295 5.31693 5
      vertex 50.2705 5.31693 5
      vertex 56.9078 3.22927 5
    endloop
  endfacet
  facet normal 0 0 1
    outer loop
      vertex 49.5922 3.22927 5
      vertex 56.9078 3.22927 5
      vertex 50.2705 5.31693 5
    endloop
  endfacet
  facet normal 0 0 1
    outer loop
      vertex 56.9078 3.22927 5
      vertex 49.5922 3.22927 5
      vertex 58.0053 1.32825 5
    endloop
  endfacet
  facet normal 0 0 1
    outer loop
      vertex 48.4947 1.32825 5
      vertex 58.0053 1.32825 5
      vertex 49.5922 3.22927 5
    endloop
  endfacet
  facet normal 0 0 1
    outer loop
      vertex 58.0053 1.32825 5
      vertex 48.4947 1.32825 5
      vertex 59.2013 0 5
    endloop
  endfacet
  facet normal 0 0 1
    outer loop
      vertex 59.2013 0 5
      vertex 48.4947 1.32825 5
      vertex 47.2987 0 5
    endloop
  endfacet
  facet normal 0 0 1
    outer loop
      vertex 20.625 47.0742 5
      vertex 28.25 57.25 5
      vertex 26.5 57.25 5
    endloop
  endfacet
  facet normal 0 0 1
    outer loop
      vertex 23.7705 9.68307 5
      vertex 29.7295 9.68307 5
      vertex 30.4078 11.7707 5
    endloop
  endfacet
  facet normal 0 0 1
    outer loop
      vertex 29.7295 9.68307 5
      vertex 24 7.5 5
      vertex 29.5 7.5 5
    endloop
  endfacet
  facet normal 0 0 1
    outer loop
      vertex 29.5 7.5 5
      vertex 24 7.5 5
      vertex 29.7295 5.31693 5
    endloop
  endfacet
  facet normal 0 0 1
    outer loop
      vertex 23.7705 5.31693 5
      vertex 29.7295 5.31693 5
      vertex 24 7.5 5
    endloop
  endfacet
  facet normal 0 0 1
    outer loop
      vertex 29.7295 5.31693 5
      vertex 23.7705 5.31693 5
      vertex 30.4078 3.22927 5
    endloop
  endfacet
  facet normal 0 0 1
    outer loop
      vertex 23.0922 3.22927 5
      vertex 30.4078 3.22927 5
      vertex 23.7705 5.31693 5
    endloop
  endfacet
  facet normal 0 0 1
    outer loop
      vertex 30.4078 3.22927 5
      vertex 23.0922 3.22927 5
      vertex 31.5053 1.32825 5
    endloop
  endfacet
  facet normal 0 0 1
    outer loop
      vertex 21.9947 1.32825 5
      vertex 31.5053 1.32825 5
      vertex 23.0922 3.22927 5
    endloop
  endfacet
  facet normal 0 0 1
    outer loop
      vertex 31.5053 1.32825 5
      vertex 21.9947 1.32825 5
      vertex 32.7013 0 5
    endloop
  endfacet
  facet normal 0 0 1
    outer loop
      vertex 32.7013 0 5
      vertex 21.9947 1.32825 5
      vertex 20.7987 0 5
    endloop
  endfacet
  facet normal 0 0 1
    outer loop
      vertex 0 23.5119 5
      vertex 3.22945 9.68307 5
      vertex 0.00351906 23.5079 5
    endloop
  endfacet
  facet normal 0 0 1
    outer loop
      vertex 0 0 5
      vertex 3.22945 9.68307 5
      vertex 0 23.5119 5
    endloop
  endfacet
  facet normal 0 0 1
    outer loop
      vertex 3.22945 9.68307 5
      vertex 0 0 5
      vertex 3 7.5 5
    endloop
  endfacet
  facet normal 0 0 1
    outer loop
      vertex 5.00532 1.32825 5
      vertex 0 0 5
      vertex 6.20129 0 5
    endloop
  endfacet
  facet normal 0 0 1
    outer loop
      vertex 3.90777 3.22927 5
      vertex 0 0 5
      vertex 5.00532 1.32825 5
    endloop
  endfacet
  facet normal 0 0 1
    outer loop
      vertex 3.22945 5.31693 5
      vertex 0 0 5
      vertex 3.90777 3.22927 5
    endloop
  endfacet
  facet normal 0 0 1
    outer loop
      vertex 3 7.5 5
      vertex 0 0 5
      vertex 3.22945 5.31693 5
    endloop
  endfacet
  facet normal 1 -0 0
    outer loop
      vertex 80 0 5
      vertex 80 25.25 0
      vertex 80 25.25 5
    endloop
  endfacet
  facet normal 1 0 0
    outer loop
      vertex 80 25.25 0
      vertex 80 0 5
      vertex 80 0 0
    endloop
  endfacet
  facet normal 1 -0 0
    outer loop
      vertex 80 39.75 5
      vertex 80 65 0
      vertex 80 65 5
    endloop
  endfacet
  facet normal 1 0 0
    outer loop
      vertex 80 65 0
      vertex 80 39.75 5
      vertex 80 39.75 0
    endloop
  endfacet
  facet normal 0 0 -1
    outer loop
      vertex 80 0 0
      vertex 71.5 25.25 0
      vertex 80 25.25 0
    endloop
  endfacet
  facet normal -0 0 -1
    outer loop
      vertex 71.5 25.25 0
      vertex 0 0 0
      vertex 71.5 39.75 0
    endloop
  endfacet
  facet normal 0 0 -1
    outer loop
      vertex 0 0 0
      vertex 71.5 25.25 0
      vertex 80 0 0
    endloop
  endfacet
  facet normal 0 0 -1
    outer loop
      vertex 71.5 39.75 0
      vertex 80 65 0
      vertex 80 39.75 0
    endloop
  endfacet
  facet normal 0 0 -1
    outer loop
      vertex 0 65 0
      vertex 71.5 39.75 0
      vertex 0 0 0
    endloop
  endfacet
  facet normal 0 0 -1
    outer loop
      vertex 71.5 39.75 0
      vertex 0 65 0
      vertex 80 65 0
    endloop
  endfacet
  facet normal 0 -1 0
    outer loop
      vertex 0 0 5
      vertex 6.20129 0 2
      vertex 6.20129 0 5
    endloop
  endfacet
  facet normal 0 -1 0
    outer loop
      vertex 0 0 0
      vertex 20.7987 0 2
      vertex 6.20129 0 2
    endloop
  endfacet
  facet normal 0 -1 -0
    outer loop
      vertex 20.7987 0 2
      vertex 0 0 0
      vertex 32.7013 0 2
    endloop
  endfacet
  facet normal 0 -1 -0
    outer loop
      vertex 32.7013 0 2
      vertex 0 0 0
      vertex 47.2987 0 2
    endloop
  endfacet
  facet normal 0 -1 0
    outer loop
      vertex 80 0 0
      vertex 47.2987 0 2
      vertex 0 0 0
    endloop
  endfacet
  facet normal 0 -1 0
    outer loop
      vertex 47.2987 0 2
      vertex 80 0 0
      vertex 59.2013 0 2
    endloop
  endfacet
  facet normal 0 -1 0
    outer loop
      vertex 0 0 0
      vertex 6.20129 0 2
      vertex 0 0 5
    endloop
  endfacet
  facet normal 0 -1 0
    outer loop
      vertex 20.7987 0 2
      vertex 32.7013 0 5
      vertex 20.7987 0 5
    endloop
  endfacet
  facet normal 0 -1 -0
    outer loop
      vertex 32.7013 0 5
      vertex 20.7987 0 2
      vertex 32.7013 0 2
    endloop
  endfacet
  facet normal 0 -1 0
    outer loop
      vertex 47.2987 0 2
      vertex 59.2013 0 5
      vertex 47.2987 0 5
    endloop
  endfacet
  facet normal 0 -1 -0
    outer loop
      vertex 59.2013 0 5
      vertex 47.2987 0 2
      vertex 59.2013 0 2
    endloop
  endfacet
  facet normal 0 -1 0
    outer loop
      vertex 73.7987 0 2
      vertex 80 0 5
      vertex 73.7987 0 5
    endloop
  endfacet
  facet normal 0 -1 0
    outer loop
      vertex 73.7987 0 2
      vertex 80 0 0
      vertex 80 0 5
    endloop
  endfacet
  facet normal 0 -1 0
    outer loop
      vertex 59.2013 0 2
      vertex 80 0 0
      vertex 73.7987 0 2
    endloop
  endfacet
  facet normal 0 1 0
    outer loop
      vertex 80 65 5
      vertex 72.5255 65 2
      vertex 72.5255 65 5
    endloop
  endfacet
  facet normal 0 1 0
    outer loop
      vertex 80 65 0
      vertex 57.9745 65 2
      vertex 72.5255 65 2
    endloop
  endfacet
  facet normal 0 1 0
    outer loop
      vertex 57.9745 65 2
      vertex 80 65 0
      vertex 47.2755 65 2
    endloop
  endfacet
  facet normal 0 1 0
    outer loop
      vertex 47.2755 65 2
      vertex 80 65 0
      vertex 32.7245 65 2
    endloop
  endfacet
  facet normal 0 1 0
    outer loop
      vertex 0 65 0
      vertex 32.7245 65 2
      vertex 80 65 0
    endloop
  endfacet
  facet normal 0 1 0
    outer loop
      vertex 32.7245 65 2
      vertex 0 65 0
      vertex 22.0255 65 2
    endloop
  endfacet
  facet normal 0 1 -0
    outer loop
      vertex 80 65 0
      vertex 72.5255 65 2
      vertex 80 65 5
    endloop
  endfacet
  facet normal 0 1 -0
    outer loop
      vertex 57.9745 65 2
      vertex 47.2755 65 5
      vertex 57.9745 65 5
    endloop
  endfacet
  facet normal 0 1 0
    outer loop
      vertex 47.2755 65 5
      vertex 57.9745 65 2
      vertex 47.2755 65 2
    endloop
  endfacet
  facet normal 0 1 -0
    outer loop
      vertex 32.7245 65 2
      vertex 22.0255 65 5
      vertex 32.7245 65 5
    endloop
  endfacet
  facet normal 0 1 0
    outer loop
      vertex 22.0255 65 5
      vertex 32.7245 65 2
      vertex 22.0255 65 2
    endloop
  endfacet
  facet normal 0 1 -0
    outer loop
      vertex 7.47446 65 2
      vertex 0 65 5
      vertex 7.47446 65 5
    endloop
  endfacet
  facet normal 0 1 0
    outer loop
      vertex 7.47446 65 2
      vertex 0 65 0
      vertex 0 65 5
    endloop
  endfacet
  facet normal 0 1 0
    outer loop
      vertex 22.0255 65 2
      vertex 0 65 0
      vertex 7.47446 65 2
    endloop
  endfacet
  facet normal 0 0 1
    outer loop
      vertex 23.7705 9.68307 2
      vertex 23.7705 5.31693 2
      vertex 24 7.5 2
    endloop
  endfacet
  facet normal 0 0 1
    outer loop
      vertex 23.0922 11.7707 2
      vertex 23.7705 5.31693 2
      vertex 23.7705 9.68307 2
    endloop
  endfacet
  facet normal 0 0 1
    outer loop
      vertex 23.0922 11.7707 2
      vertex 23.0922 3.22927 2
      vertex 23.7705 5.31693 2
    endloop
  endfacet
  facet normal 0 0 1
    outer loop
      vertex 21.9947 13.6717 2
      vertex 23.0922 3.22927 2
      vertex 23.0922 11.7707 2
    endloop
  endfacet
  facet normal 0 0 1
    outer loop
      vertex 20.7987 0 2
      vertex 23.0922 3.22927 2
      vertex 21.9947 13.6717 2
    endloop
  endfacet
  facet normal 0 0 1
    outer loop
      vertex 23.0922 3.22927 2
      vertex 20.7987 0 2
      vertex 21.9947 1.32825 2
    endloop
  endfacet
  facet normal 0 0 1
    outer loop
      vertex 20.5259 15.303 2
      vertex 20.7987 0 2
      vertex 21.9947 13.6717 2
    endloop
  endfacet
  facet normal 0 0 1
    outer loop
      vertex 18.75 16.5933 2
      vertex 20.7987 0 2
      vertex 20.5259 15.303 2
    endloop
  endfacet
  facet normal 0 0 1
    outer loop
      vertex 16.7447 17.4861 2
      vertex 20.7987 0 2
      vertex 18.75 16.5933 2
    endloop
  endfacet
  facet normal 0 0 1
    outer loop
      vertex 14.5975 17.9425 2
      vertex 20.7987 0 2
      vertex 16.7447 17.4861 2
    endloop
  endfacet
  facet normal -0 0 1
    outer loop
      vertex 12.4025 17.9425 2
      vertex 20.7987 0 2
      vertex 14.5975 17.9425 2
    endloop
  endfacet
  facet normal -0 0 1
    outer loop
      vertex 10.2553 17.4861 2
      vertex 20.7987 0 2
      vertex 12.4025 17.9425 2
    endloop
  endfacet
  facet normal -0 0 1
    outer loop
      vertex 8.25 16.5933 2
      vertex 20.7987 0 2
      vertex 10.2553 17.4861 2
    endloop
  endfacet
  facet normal -0 0 1
    outer loop
      vertex 6.47413 15.303 2
      vertex 20.7987 0 2
      vertex 8.25 16.5933 2
    endloop
  endfacet
  facet normal 0 0 1
    outer loop
      vertex 6.47413 15.303 2
      vertex 6.20129 0 2
      vertex 20.7987 0 2
    endloop
  endfacet
  facet normal -0 0 1
    outer loop
      vertex 5.00532 13.6717 2
      vertex 6.20129 0 2
      vertex 6.47413 15.303 2
    endloop
  endfacet
  facet normal -0 0 1
    outer loop
      vertex 3.90777 11.7707 2
      vertex 6.20129 0 2
      vertex 5.00532 13.6717 2
    endloop
  endfacet
  facet normal -0 0 1
    outer loop
      vertex 3.90777 3.22927 2
      vertex 6.20129 0 2
      vertex 3.90777 11.7707 2
    endloop
  endfacet
  facet normal 0 0 1
    outer loop
      vertex 6.20129 0 2
      vertex 3.90777 3.22927 2
      vertex 5.00532 1.32825 2
    endloop
  endfacet
  facet normal -0 0 1
    outer loop
      vertex 3.22945 9.68307 2
      vertex 3.90777 3.22927 2
      vertex 3.90777 11.7707 2
    endloop
  endfacet
  facet normal 0 0 1
    outer loop
      vertex 3.22945 9.68307 2
      vertex 3.22945 5.31693 2
      vertex 3.90777 3.22927 2
    endloop
  endfacet
  facet normal 0 -0 1
    outer loop
      vertex 3.22945 5.31693 2
      vertex 3.22945 9.68307 2
      vertex 3 7.5 2
    endloop
  endfacet
  facet normal -0.406736 -0.913546 0
    outer loop
      vertex 16.7447 17.4861 2
      vertex 18.75 16.5933 5
      vertex 16.7447 17.4861 5
    endloop
  endfacet
  facet normal -0.406736 -0.913546 -0
    outer loop
      vertex 18.75 16.5933 5
      vertex 16.7447 17.4861 2
      vertex 18.75 16.5933 2
    endloop
  endfacet
  facet normal -0.994522 0.104528 0
    outer loop
      vertex 23.7705 5.31693 2
      vertex 24 7.5 5
      vertex 24 7.5 2
    endloop
  endfacet
  facet normal -0.994522 0.104528 0
    outer loop
      vertex 24 7.5 5
      vertex 23.7705 5.31693 2
      vertex 23.7705 5.31693 5
    endloop
  endfacet
  facet normal 0 -1 0
    outer loop
      vertex 12.4025 17.9425 2
      vertex 14.5975 17.9425 5
      vertex 12.4025 17.9425 5
    endloop
  endfacet
  facet normal 0 -1 -0
    outer loop
      vertex 14.5975 17.9425 5
      vertex 12.4025 17.9425 2
      vertex 14.5975 17.9425 2
    endloop
  endfacet
  facet normal 0.406736 -0.913546 0
    outer loop
      vertex 8.25 16.5933 2
      vertex 10.2553 17.4861 5
      vertex 8.25 16.5933 5
    endloop
  endfacet
  facet normal 0.406736 -0.913546 0
    outer loop
      vertex 10.2553 17.4861 5
      vertex 8.25 16.5933 2
      vertex 10.2553 17.4861 2
    endloop
  endfacet
  facet normal 0.951056 -0.309017 0
    outer loop
      vertex 3.22945 9.68307 5
      vertex 3.90777 11.7707 2
      vertex 3.90777 11.7707 5
    endloop
  endfacet
  facet normal 0.951056 -0.309017 0
    outer loop
      vertex 3.90777 11.7707 2
      vertex 3.22945 9.68307 5
      vertex 3.22945 9.68307 2
    endloop
  endfacet
  facet normal -0.951057 -0.309017 0
    outer loop
      vertex 23.7705 9.68307 2
      vertex 23.0922 11.7707 5
      vertex 23.0922 11.7707 2
    endloop
  endfacet
  facet normal -0.951057 -0.309017 0
    outer loop
      vertex 23.0922 11.7707 5
      vertex 23.7705 9.68307 2
      vertex 23.7705 9.68307 5
    endloop
  endfacet
  facet normal -0.866025 -0.5 0
    outer loop
      vertex 23.0922 11.7707 2
      vertex 21.9947 13.6717 5
      vertex 21.9947 13.6717 2
    endloop
  endfacet
  facet normal -0.866025 -0.5 0
    outer loop
      vertex 21.9947 13.6717 5
      vertex 23.0922 11.7707 2
      vertex 23.0922 11.7707 5
    endloop
  endfacet
  facet normal -0.743145 -0.669131 0
    outer loop
      vertex 21.9947 13.6717 2
      vertex 20.5259 15.303 5
      vertex 20.5259 15.303 2
    endloop
  endfacet
  facet normal -0.743145 -0.669131 0
    outer loop
      vertex 20.5259 15.303 5
      vertex 21.9947 13.6717 2
      vertex 21.9947 13.6717 5
    endloop
  endfacet
  facet normal -0.587785 -0.809017 0
    outer loop
      vertex 18.75 16.5933 2
      vertex 20.5259 15.303 5
      vertex 18.75 16.5933 5
    endloop
  endfacet
  facet normal -0.587785 -0.809017 -0
    outer loop
      vertex 20.5259 15.303 5
      vertex 18.75 16.5933 2
      vertex 20.5259 15.303 2
    endloop
  endfacet
  facet normal -0.207912 -0.978148 0
    outer loop
      vertex 14.5975 17.9425 2
      vertex 16.7447 17.4861 5
      vertex 14.5975 17.9425 5
    endloop
  endfacet
  facet normal -0.207912 -0.978148 -0
    outer loop
      vertex 16.7447 17.4861 5
      vertex 14.5975 17.9425 2
      vertex 16.7447 17.4861 2
    endloop
  endfacet
  facet normal 0.994522 0.104528 0
    outer loop
      vertex 3.22945 5.31693 5
      vertex 3 7.5 2
      vertex 3 7.5 5
    endloop
  endfacet
  facet normal 0.994522 0.104528 0
    outer loop
      vertex 3 7.5 2
      vertex 3.22945 5.31693 5
      vertex 3.22945 5.31693 2
    endloop
  endfacet
  facet normal 0.866025 -0.5 0
    outer loop
      vertex 3.90777 11.7707 5
      vertex 5.00532 13.6717 2
      vertex 5.00532 13.6717 5
    endloop
  endfacet
  facet normal 0.866025 -0.5 0
    outer loop
      vertex 5.00532 13.6717 2
      vertex 3.90777 11.7707 5
      vertex 3.90777 11.7707 2
    endloop
  endfacet
  facet normal 0.587785 -0.809017 0
    outer loop
      vertex 6.47413 15.303 2
      vertex 8.25 16.5933 5
      vertex 6.47413 15.303 5
    endloop
  endfacet
  facet normal 0.587785 -0.809017 0
    outer loop
      vertex 8.25 16.5933 5
      vertex 6.47413 15.303 2
      vertex 8.25 16.5933 2
    endloop
  endfacet
  facet normal 0.207912 -0.978148 0
    outer loop
      vertex 10.2553 17.4861 2
      vertex 12.4025 17.9425 5
      vertex 10.2553 17.4861 5
    endloop
  endfacet
  facet normal 0.207912 -0.978148 0
    outer loop
      vertex 12.4025 17.9425 5
      vertex 10.2553 17.4861 2
      vertex 12.4025 17.9425 2
    endloop
  endfacet
  facet normal 0.743145 -0.66913 0
    outer loop
      vertex 5.00532 13.6717 5
      vertex 6.47413 15.303 2
      vertex 6.47413 15.303 5
    endloop
  endfacet
  facet normal 0.743145 -0.66913 0
    outer loop
      vertex 6.47413 15.303 2
      vertex 5.00532 13.6717 5
      vertex 5.00532 13.6717 2
    endloop
  endfacet
  facet normal -0.994522 -0.104529 0
    outer loop
      vertex 24 7.5 2
      vertex 23.7705 9.68307 5
      vertex 23.7705 9.68307 2
    endloop
  endfacet
  facet normal -0.994522 -0.104529 0
    outer loop
      vertex 23.7705 9.68307 5
      vertex 24 7.5 2
      vertex 24 7.5 5
    endloop
  endfacet
  facet normal -0.866025 0.5 0
    outer loop
      vertex 21.9947 1.32825 2
      vertex 23.0922 3.22927 5
      vertex 23.0922 3.22927 2
    endloop
  endfacet
  facet normal -0.866025 0.5 0
    outer loop
      vertex 23.0922 3.22927 5
      vertex 21.9947 1.32825 2
      vertex 21.9947 1.32825 5
    endloop
  endfacet
  facet normal 0.743145 0.66913 0
    outer loop
      vertex 6.20129 0 5
      vertex 5.00532 1.32825 2
      vertex 5.00532 1.32825 5
    endloop
  endfacet
  facet normal 0.743145 0.66913 0
    outer loop
      vertex 5.00532 1.32825 2
      vertex 6.20129 0 5
      vertex 6.20129 0 2
    endloop
  endfacet
  facet normal 0.951056 0.309017 0
    outer loop
      vertex 3.90777 3.22927 5
      vertex 3.22945 5.31693 2
      vertex 3.22945 5.31693 5
    endloop
  endfacet
  facet normal 0.951056 0.309017 0
    outer loop
      vertex 3.22945 5.31693 2
      vertex 3.90777 3.22927 5
      vertex 3.90777 3.22927 2
    endloop
  endfacet
  facet normal 0.994522 -0.104528 0
    outer loop
      vertex 3 7.5 5
      vertex 3.22945 9.68307 2
      vertex 3.22945 9.68307 5
    endloop
  endfacet
  facet normal 0.994522 -0.104528 0
    outer loop
      vertex 3.22945 9.68307 2
      vertex 3 7.5 5
      vertex 3 7.5 2
    endloop
  endfacet
  facet normal -0.743145 0.669131 0
    outer loop
      vertex 20.7987 0 2
      vertex 21.9947 1.32825 5
      vertex 21.9947 1.32825 2
    endloop
  endfacet
  facet normal -0.743145 0.669131 0
    outer loop
      vertex 21.9947 1.32825 5
      vertex 20.7987 0 2
      vertex 20.7987 0 5
    endloop
  endfacet
  facet normal -0.951057 0.309017 0
    outer loop
      vertex 23.0922 3.22927 2
      vertex 23.7705 5.31693 5
      vertex 23.7705 5.31693 2
    endloop
  endfacet
  facet normal -0.951057 0.309017 0
    outer loop
      vertex 23.7705 5.31693 5
      vertex 23.0922 3.22927 2
      vertex 23.0922 3.22927 5
    endloop
  endfacet
  facet normal 0.866025 0.5 0
    outer loop
      vertex 5.00532 1.32825 5
      vertex 3.90777 3.22927 2
      vertex 3.90777 3.22927 5
    endloop
  endfacet
  facet normal 0.866025 0.5 0
    outer loop
      vertex 3.90777 3.22927 2
      vertex 5.00532 1.32825 5
      vertex 5.00532 1.32825 2
    endloop
  endfacet
  facet normal 0 0 1
    outer loop
      vertex 50.2705 9.68307 2
      vertex 50.2705 5.31693 2
      vertex 50.5 7.5 2
    endloop
  endfacet
  facet normal 0 0 1
    outer loop
      vertex 49.5922 11.7707 2
      vertex 50.2705 5.31693 2
      vertex 50.2705 9.68307 2
    endloop
  endfacet
  facet normal 0 0 1
    outer loop
      vertex 49.5922 11.7707 2
      vertex 49.5922 3.22927 2
      vertex 50.2705 5.31693 2
    endloop
  endfacet
  facet normal 0 0 1
    outer loop
      vertex 48.4947 13.6717 2
      vertex 49.5922 3.22927 2
      vertex 49.5922 11.7707 2
    endloop
  endfacet
  facet normal 0 0 1
    outer loop
      vertex 47.2987 0 2
      vertex 49.5922 3.22927 2
      vertex 48.4947 13.6717 2
    endloop
  endfacet
  facet normal 0 0 1
    outer loop
      vertex 49.5922 3.22927 2
      vertex 47.2987 0 2
      vertex 48.4947 1.32825 2
    endloop
  endfacet
  facet normal 0 0 1
    outer loop
      vertex 47.0259 15.303 2
      vertex 47.2987 0 2
      vertex 48.4947 13.6717 2
    endloop
  endfacet
  facet normal 0 0 1
    outer loop
      vertex 45.25 16.5933 2
      vertex 47.2987 0 2
      vertex 47.0259 15.303 2
    endloop
  endfacet
  facet normal 0 0 1
    outer loop
      vertex 43.2447 17.4861 2
      vertex 47.2987 0 2
      vertex 45.25 16.5933 2
    endloop
  endfacet
  facet normal 0 0 1
    outer loop
      vertex 41.0975 17.9425 2
      vertex 47.2987 0 2
      vertex 43.2447 17.4861 2
    endloop
  endfacet
  facet normal -0 0 1
    outer loop
      vertex 38.9025 17.9425 2
      vertex 47.2987 0 2
      vertex 41.0975 17.9425 2
    endloop
  endfacet
  facet normal -0 0 1
    outer loop
      vertex 36.7553 17.4861 2
      vertex 47.2987 0 2
      vertex 38.9025 17.9425 2
    endloop
  endfacet
  facet normal -0 0 1
    outer loop
      vertex 34.75 16.5933 2
      vertex 47.2987 0 2
      vertex 36.7553 17.4861 2
    endloop
  endfacet
  facet normal -0 0 1
    outer loop
      vertex 32.9741 15.303 2
      vertex 47.2987 0 2
      vertex 34.75 16.5933 2
    endloop
  endfacet
  facet normal 0 0 1
    outer loop
      vertex 32.9741 15.303 2
      vertex 32.7013 0 2
      vertex 47.2987 0 2
    endloop
  endfacet
  facet normal -0 0 1
    outer loop
      vertex 31.5053 13.6717 2
      vertex 32.7013 0 2
      vertex 32.9741 15.303 2
    endloop
  endfacet
  facet normal -0 0 1
    outer loop
      vertex 30.4078 11.7707 2
      vertex 32.7013 0 2
      vertex 31.5053 13.6717 2
    endloop
  endfacet
  facet normal -0 0 1
    outer loop
      vertex 30.4078 3.22927 2
      vertex 32.7013 0 2
      vertex 30.4078 11.7707 2
    endloop
  endfacet
  facet normal 0 0 1
    outer loop
      vertex 32.7013 0 2
      vertex 30.4078 3.22927 2
      vertex 31.5053 1.32825 2
    endloop
  endfacet
  facet normal -0 0 1
    outer loop
      vertex 29.7295 9.68307 2
      vertex 30.4078 3.22927 2
      vertex 30.4078 11.7707 2
    endloop
  endfacet
  facet normal 0 0 1
    outer loop
      vertex 29.7295 9.68307 2
      vertex 29.7295 5.31693 2
      vertex 30.4078 3.22927 2
    endloop
  endfacet
  facet normal 0 -0 1
    outer loop
      vertex 29.7295 5.31693 2
      vertex 29.7295 9.68307 2
      vertex 29.5 7.5 2
    endloop
  endfacet
  facet normal -0.406736 -0.913546 0
    outer loop
      vertex 43.2447 17.4861 2
      vertex 45.25 16.5933 5
      vertex 43.2447 17.4861 5
    endloop
  endfacet
  facet normal -0.406736 -0.913546 -0
    outer loop
      vertex 45.25 16.5933 5
      vertex 43.2447 17.4861 2
      vertex 45.25 16.5933 2
    endloop
  endfacet
  facet normal -0.994522 0.104528 0
    outer loop
      vertex 50.2705 5.31693 2
      vertex 50.5 7.5 5
      vertex 50.5 7.5 2
    endloop
  endfacet
  facet normal -0.994522 0.104528 0
    outer loop
      vertex 50.5 7.5 5
      vertex 50.2705 5.31693 2
      vertex 50.2705 5.31693 5
    endloop
  endfacet
  facet normal 0 -1 0
    outer loop
      vertex 38.9025 17.9425 2
      vertex 41.0975 17.9425 5
      vertex 38.9025 17.9425 5
    endloop
  endfacet
  facet normal 0 -1 -0
    outer loop
      vertex 41.0975 17.9425 5
      vertex 38.9025 17.9425 2
      vertex 41.0975 17.9425 2
    endloop
  endfacet
  facet normal 0.406736 -0.913546 0
    outer loop
      vertex 34.75 16.5933 2
      vertex 36.7553 17.4861 5
      vertex 34.75 16.5933 5
    endloop
  endfacet
  facet normal 0.406736 -0.913546 0
    outer loop
      vertex 36.7553 17.4861 5
      vertex 34.75 16.5933 2
      vertex 36.7553 17.4861 2
    endloop
  endfacet
  facet normal 0.951057 -0.309017 0
    outer loop
      vertex 29.7295 9.68307 5
      vertex 30.4078 11.7707 2
      vertex 30.4078 11.7707 5
    endloop
  endfacet
  facet normal 0.951057 -0.309017 0
    outer loop
      vertex 30.4078 11.7707 2
      vertex 29.7295 9.68307 5
      vertex 29.7295 9.68307 2
    endloop
  endfacet
  facet normal -0.951057 -0.309017 0
    outer loop
      vertex 50.2705 9.68307 2
      vertex 49.5922 11.7707 5
      vertex 49.5922 11.7707 2
    endloop
  endfacet
  facet normal -0.951057 -0.309017 0
    outer loop
      vertex 49.5922 11.7707 5
      vertex 50.2705 9.68307 2
      vertex 50.2705 9.68307 5
    endloop
  endfacet
  facet normal -0.866025 -0.5 0
    outer loop
      vertex 49.5922 11.7707 2
      vertex 48.4947 13.6717 5
      vertex 48.4947 13.6717 2
    endloop
  endfacet
  facet normal -0.866025 -0.5 0
    outer loop
      vertex 48.4947 13.6717 5
      vertex 49.5922 11.7707 2
      vertex 49.5922 11.7707 5
    endloop
  endfacet
  facet normal -0.743145 -0.669131 0
    outer loop
      vertex 48.4947 13.6717 2
      vertex 47.0259 15.303 5
      vertex 47.0259 15.303 2
    endloop
  endfacet
  facet normal -0.743145 -0.669131 0
    outer loop
      vertex 47.0259 15.303 5
      vertex 48.4947 13.6717 2
      vertex 48.4947 13.6717 5
    endloop
  endfacet
  facet normal -0.587785 -0.809017 0
    outer loop
      vertex 45.25 16.5933 2
      vertex 47.0259 15.303 5
      vertex 45.25 16.5933 5
    endloop
  endfacet
  facet normal -0.587785 -0.809017 -0
    outer loop
      vertex 47.0259 15.303 5
      vertex 45.25 16.5933 2
      vertex 47.0259 15.303 2
    endloop
  endfacet
  facet normal -0.207912 -0.978148 0
    outer loop
      vertex 41.0975 17.9425 2
      vertex 43.2447 17.4861 5
      vertex 41.0975 17.9425 5
    endloop
  endfacet
  facet normal -0.207912 -0.978148 -0
    outer loop
      vertex 43.2447 17.4861 5
      vertex 41.0975 17.9425 2
      vertex 43.2447 17.4861 2
    endloop
  endfacet
  facet normal 0.994522 0.104528 0
    outer loop
      vertex 29.7295 5.31693 5
      vertex 29.5 7.5 2
      vertex 29.5 7.5 5
    endloop
  endfacet
  facet normal 0.994522 0.104528 0
    outer loop
      vertex 29.5 7.5 2
      vertex 29.7295 5.31693 5
      vertex 29.7295 5.31693 2
    endloop
  endfacet
  facet normal 0.866025 -0.5 0
    outer loop
      vertex 30.4078 11.7707 5
      vertex 31.5053 13.6717 2
      vertex 31.5053 13.6717 5
    endloop
  endfacet
  facet normal 0.866025 -0.5 0
    outer loop
      vertex 31.5053 13.6717 2
      vertex 30.4078 11.7707 5
      vertex 30.4078 11.7707 2
    endloop
  endfacet
  facet normal 0.587785 -0.809017 0
    outer loop
      vertex 32.9741 15.303 2
      vertex 34.75 16.5933 5
      vertex 32.9741 15.303 5
    endloop
  endfacet
  facet normal 0.587785 -0.809017 0
    outer loop
      vertex 34.75 16.5933 5
      vertex 32.9741 15.303 2
      vertex 34.75 16.5933 2
    endloop
  endfacet
  facet normal 0.207912 -0.978148 0
    outer loop
      vertex 36.7553 17.4861 2
      vertex 38.9025 17.9425 5
      vertex 36.7553 17.4861 5
    endloop
  endfacet
  facet normal 0.207912 -0.978148 0
    outer loop
      vertex 38.9025 17.9425 5
      vertex 36.7553 17.4861 2
      vertex 38.9025 17.9425 2
    endloop
  endfacet
  facet normal 0.743145 -0.669131 0
    outer loop
      vertex 31.5053 13.6717 5
      vertex 32.9741 15.303 2
      vertex 32.9741 15.303 5
    endloop
  endfacet
  facet normal 0.743145 -0.669131 0
    outer loop
      vertex 32.9741 15.303 2
      vertex 31.5053 13.6717 5
      vertex 31.5053 13.6717 2
    endloop
  endfacet
  facet normal -0.994522 -0.104529 0
    outer loop
      vertex 50.5 7.5 2
      vertex 50.2705 9.68307 5
      vertex 50.2705 9.68307 2
    endloop
  endfacet
  facet normal -0.994522 -0.104529 0
    outer loop
      vertex 50.2705 9.68307 5
      vertex 50.5 7.5 2
      vertex 50.5 7.5 5
    endloop
  endfacet
  facet normal -0.866025 0.5 0
    outer loop
      vertex 48.4947 1.32825 2
      vertex 49.5922 3.22927 5
      vertex 49.5922 3.22927 2
    endloop
  endfacet
  facet normal -0.866025 0.5 0
    outer loop
      vertex 49.5922 3.22927 5
      vertex 48.4947 1.32825 2
      vertex 48.4947 1.32825 5
    endloop
  endfacet
  facet normal 0.743145 0.66913 0
    outer loop
      vertex 32.7013 0 5
      vertex 31.5053 1.32825 2
      vertex 31.5053 1.32825 5
    endloop
  endfacet
  facet normal 0.743145 0.66913 0
    outer loop
      vertex 31.5053 1.32825 2
      vertex 32.7013 0 5
      vertex 32.7013 0 2
    endloop
  endfacet
  facet normal 0.951057 0.309017 0
    outer loop
      vertex 30.4078 3.22927 5
      vertex 29.7295 5.31693 2
      vertex 29.7295 5.31693 5
    endloop
  endfacet
  facet normal 0.951057 0.309017 0
    outer loop
      vertex 29.7295 5.31693 2
      vertex 30.4078 3.22927 5
      vertex 30.4078 3.22927 2
    endloop
  endfacet
  facet normal 0.994522 -0.104529 0
    outer loop
      vertex 29.5 7.5 5
      vertex 29.7295 9.68307 2
      vertex 29.7295 9.68307 5
    endloop
  endfacet
  facet normal 0.994522 -0.104529 0
    outer loop
      vertex 29.7295 9.68307 2
      vertex 29.5 7.5 5
      vertex 29.5 7.5 2
    endloop
  endfacet
  facet normal -0.743145 0.66913 0
    outer loop
      vertex 47.2987 0 2
      vertex 48.4947 1.32825 5
      vertex 48.4947 1.32825 2
    endloop
  endfacet
  facet normal -0.743145 0.66913 0
    outer loop
      vertex 48.4947 1.32825 5
      vertex 47.2987 0 2
      vertex 47.2987 0 5
    endloop
  endfacet
  facet normal -0.951057 0.309017 0
    outer loop
      vertex 49.5922 3.22927 2
      vertex 50.2705 5.31693 5
      vertex 50.2705 5.31693 2
    endloop
  endfacet
  facet normal -0.951057 0.309017 0
    outer loop
      vertex 50.2705 5.31693 5
      vertex 49.5922 3.22927 2
      vertex 49.5922 3.22927 5
    endloop
  endfacet
  facet normal 0.866025 0.5 0
    outer loop
      vertex 31.5053 1.32825 5
      vertex 30.4078 3.22927 2
      vertex 30.4078 3.22927 5
    endloop
  endfacet
  facet normal 0.866025 0.5 0
    outer loop
      vertex 30.4078 3.22927 2
      vertex 31.5053 1.32825 5
      vertex 31.5053 1.32825 2
    endloop
  endfacet
  facet normal 0 0 1
    outer loop
      vertex 76.7706 9.68307 2
      vertex 76.7706 5.31693 2
      vertex 77 7.5 2
    endloop
  endfacet
  facet normal 0 0 1
    outer loop
      vertex 76.0922 11.7707 2
      vertex 76.7706 5.31693 2
      vertex 76.7706 9.68307 2
    endloop
  endfacet
  facet normal 0 0 1
    outer loop
      vertex 76.0922 11.7707 2
      vertex 76.0922 3.22927 2
      vertex 76.7706 5.31693 2
    endloop
  endfacet
  facet normal 0 0 1
    outer loop
      vertex 74.9947 13.6717 2
      vertex 76.0922 3.22927 2
      vertex 76.0922 11.7707 2
    endloop
  endfacet
  facet normal 0 0 1
    outer loop
      vertex 73.7987 0 2
      vertex 76.0922 3.22927 2
      vertex 74.9947 13.6717 2
    endloop
  endfacet
  facet normal 0 0 1
    outer loop
      vertex 76.0922 3.22927 2
      vertex 73.7987 0 2
      vertex 74.9947 1.32825 2
    endloop
  endfacet
  facet normal 0 0 1
    outer loop
      vertex 73.5259 15.303 2
      vertex 73.7987 0 2
      vertex 74.9947 13.6717 2
    endloop
  endfacet
  facet normal 0 0 1
    outer loop
      vertex 71.75 16.5933 2
      vertex 73.7987 0 2
      vertex 73.5259 15.303 2
    endloop
  endfacet
  facet normal 0 0 1
    outer loop
      vertex 69.7447 17.4861 2
      vertex 73.7987 0 2
      vertex 71.75 16.5933 2
    endloop
  endfacet
  facet normal 0 0 1
    outer loop
      vertex 67.5975 17.9425 2
      vertex 73.7987 0 2
      vertex 69.7447 17.4861 2
    endloop
  endfacet
  facet normal -0 0 1
    outer loop
      vertex 65.4025 17.9425 2
      vertex 73.7987 0 2
      vertex 67.5975 17.9425 2
    endloop
  endfacet
  facet normal -0 0 1
    outer loop
      vertex 63.2553 17.4861 2
      vertex 73.7987 0 2
      vertex 65.4025 17.9425 2
    endloop
  endfacet
  facet normal -0 0 1
    outer loop
      vertex 61.25 16.5933 2
      vertex 73.7987 0 2
      vertex 63.2553 17.4861 2
    endloop
  endfacet
  facet normal -0 0 1
    outer loop
      vertex 59.4741 15.303 2
      vertex 73.7987 0 2
      vertex 61.25 16.5933 2
    endloop
  endfacet
  facet normal 0 0 1
    outer loop
      vertex 59.4741 15.303 2
      vertex 59.2013 0 2
      vertex 73.7987 0 2
    endloop
  endfacet
  facet normal -0 0 1
    outer loop
      vertex 58.0053 13.6717 2
      vertex 59.2013 0 2
      vertex 59.4741 15.303 2
    endloop
  endfacet
  facet normal -0 0 1
    outer loop
      vertex 56.9078 11.7707 2
      vertex 59.2013 0 2
      vertex 58.0053 13.6717 2
    endloop
  endfacet
  facet normal -0 0 1
    outer loop
      vertex 56.9078 3.22927 2
      vertex 59.2013 0 2
      vertex 56.9078 11.7707 2
    endloop
  endfacet
  facet normal 0 0 1
    outer loop
      vertex 59.2013 0 2
      vertex 56.9078 3.22927 2
      vertex 58.0053 1.32825 2
    endloop
  endfacet
  facet normal -0 0 1
    outer loop
      vertex 56.2295 9.68307 2
      vertex 56.9078 3.22927 2
      vertex 56.9078 11.7707 2
    endloop
  endfacet
  facet normal 0 0 1
    outer loop
      vertex 56.2295 9.68307 2
      vertex 56.2295 5.31693 2
      vertex 56.9078 3.22927 2
    endloop
  endfacet
  facet normal 0 -0 1
    outer loop
      vertex 56.2295 5.31693 2
      vertex 56.2295 9.68307 2
      vertex 56 7.5 2
    endloop
  endfacet
  facet normal -0.406736 -0.913546 0
    outer loop
      vertex 69.7447 17.4861 2
      vertex 71.75 16.5933 5
      vertex 69.7447 17.4861 5
    endloop
  endfacet
  facet normal -0.406736 -0.913546 -0
    outer loop
      vertex 71.75 16.5933 5
      vertex 69.7447 17.4861 2
      vertex 71.75 16.5933 2
    endloop
  endfacet
  facet normal -0.994522 0.104527 0
    outer loop
      vertex 76.7706 5.31693 2
      vertex 77 7.5 5
      vertex 77 7.5 2
    endloop
  endfacet
  facet normal -0.994522 0.104527 0
    outer loop
      vertex 77 7.5 5
      vertex 76.7706 5.31693 2
      vertex 76.7706 5.31693 5
    endloop
  endfacet
  facet normal 0 -1 0
    outer loop
      vertex 65.4025 17.9425 2
      vertex 67.5975 17.9425 5
      vertex 65.4025 17.9425 5
    endloop
  endfacet
  facet normal 0 -1 -0
    outer loop
      vertex 67.5975 17.9425 5
      vertex 65.4025 17.9425 2
      vertex 67.5975 17.9425 2
    endloop
  endfacet
  facet normal 0.406736 -0.913546 0
    outer loop
      vertex 61.25 16.5933 2
      vertex 63.2553 17.4861 5
      vertex 61.25 16.5933 5
    endloop
  endfacet
  facet normal 0.406736 -0.913546 0
    outer loop
      vertex 63.2553 17.4861 5
      vertex 61.25 16.5933 2
      vertex 63.2553 17.4861 2
    endloop
  endfacet
  facet normal 0.951057 -0.309017 0
    outer loop
      vertex 56.2295 9.68307 5
      vertex 56.9078 11.7707 2
      vertex 56.9078 11.7707 5
    endloop
  endfacet
  facet normal 0.951057 -0.309017 0
    outer loop
      vertex 56.9078 11.7707 2
      vertex 56.2295 9.68307 5
      vertex 56.2295 9.68307 2
    endloop
  endfacet
  facet normal -0.951056 -0.30902 0
    outer loop
      vertex 76.7706 9.68307 2
      vertex 76.0922 11.7707 5
      vertex 76.0922 11.7707 2
    endloop
  endfacet
  facet normal -0.951056 -0.30902 0
    outer loop
      vertex 76.0922 11.7707 5
      vertex 76.7706 9.68307 2
      vertex 76.7706 9.68307 5
    endloop
  endfacet
  facet normal -0.866025 -0.5 0
    outer loop
      vertex 76.0922 11.7707 2
      vertex 74.9947 13.6717 5
      vertex 74.9947 13.6717 2
    endloop
  endfacet
  facet normal -0.866025 -0.5 0
    outer loop
      vertex 74.9947 13.6717 5
      vertex 76.0922 11.7707 2
      vertex 76.0922 11.7707 5
    endloop
  endfacet
  facet normal -0.743146 -0.66913 0
    outer loop
      vertex 74.9947 13.6717 2
      vertex 73.5259 15.303 5
      vertex 73.5259 15.303 2
    endloop
  endfacet
  facet normal -0.743146 -0.66913 0
    outer loop
      vertex 73.5259 15.303 5
      vertex 74.9947 13.6717 2
      vertex 74.9947 13.6717 5
    endloop
  endfacet
  facet normal -0.587785 -0.809017 0
    outer loop
      vertex 71.75 16.5933 2
      vertex 73.5259 15.303 5
      vertex 71.75 16.5933 5
    endloop
  endfacet
  facet normal -0.587785 -0.809017 -0
    outer loop
      vertex 73.5259 15.303 5
      vertex 71.75 16.5933 2
      vertex 73.5259 15.303 2
    endloop
  endfacet
  facet normal -0.207912 -0.978148 0
    outer loop
      vertex 67.5975 17.9425 2
      vertex 69.7447 17.4861 5
      vertex 67.5975 17.9425 5
    endloop
  endfacet
  facet normal -0.207912 -0.978148 -0
    outer loop
      vertex 69.7447 17.4861 5
      vertex 67.5975 17.9425 2
      vertex 69.7447 17.4861 2
    endloop
  endfacet
  facet normal 0.994522 0.104528 0
    outer loop
      vertex 56.2295 5.31693 5
      vertex 56 7.5 2
      vertex 56 7.5 5
    endloop
  endfacet
  facet normal 0.994522 0.104528 0
    outer loop
      vertex 56 7.5 2
      vertex 56.2295 5.31693 5
      vertex 56.2295 5.31693 2
    endloop
  endfacet
  facet normal 0.866025 -0.5 0
    outer loop
      vertex 56.9078 11.7707 5
      vertex 58.0053 13.6717 2
      vertex 58.0053 13.6717 5
    endloop
  endfacet
  facet normal 0.866025 -0.5 0
    outer loop
      vertex 58.0053 13.6717 2
      vertex 56.9078 11.7707 5
      vertex 56.9078 11.7707 2
    endloop
  endfacet
  facet normal 0.587785 -0.809017 0
    outer loop
      vertex 59.4741 15.303 2
      vertex 61.25 16.5933 5
      vertex 59.4741 15.303 5
    endloop
  endfacet
  facet normal 0.587785 -0.809017 0
    outer loop
      vertex 61.25 16.5933 5
      vertex 59.4741 15.303 2
      vertex 61.25 16.5933 2
    endloop
  endfacet
  facet normal 0.207912 -0.978148 0
    outer loop
      vertex 63.2553 17.4861 2
      vertex 65.4025 17.9425 5
      vertex 63.2553 17.4861 5
    endloop
  endfacet
  facet normal 0.207912 -0.978148 0
    outer loop
      vertex 65.4025 17.9425 5
      vertex 63.2553 17.4861 2
      vertex 65.4025 17.9425 2
    endloop
  endfacet
  facet normal 0.743145 -0.669131 0
    outer loop
      vertex 58.0053 13.6717 5
      vertex 59.4741 15.303 2
      vertex 59.4741 15.303 5
    endloop
  endfacet
  facet normal 0.743145 -0.669131 0
    outer loop
      vertex 59.4741 15.303 2
      vertex 58.0053 13.6717 5
      vertex 58.0053 13.6717 2
    endloop
  endfacet
  facet normal -0.994522 -0.104527 0
    outer loop
      vertex 77 7.5 2
      vertex 76.7706 9.68307 5
      vertex 76.7706 9.68307 2
    endloop
  endfacet
  facet normal -0.994522 -0.104527 0
    outer loop
      vertex 76.7706 9.68307 5
      vertex 77 7.5 2
      vertex 77 7.5 5
    endloop
  endfacet
  facet normal -0.866025 0.5 0
    outer loop
      vertex 74.9947 1.32825 2
      vertex 76.0922 3.22927 5
      vertex 76.0922 3.22927 2
    endloop
  endfacet
  facet normal -0.866025 0.5 0
    outer loop
      vertex 76.0922 3.22927 5
      vertex 74.9947 1.32825 2
      vertex 74.9947 1.32825 5
    endloop
  endfacet
  facet normal 0.743145 0.66913 0
    outer loop
      vertex 59.2013 0 5
      vertex 58.0053 1.32825 2
      vertex 58.0053 1.32825 5
    endloop
  endfacet
  facet normal 0.743145 0.66913 0
    outer loop
      vertex 58.0053 1.32825 2
      vertex 59.2013 0 5
      vertex 59.2013 0 2
    endloop
  endfacet
  facet normal 0.951057 0.309017 0
    outer loop
      vertex 56.9078 3.22927 5
      vertex 56.2295 5.31693 2
      vertex 56.2295 5.31693 5
    endloop
  endfacet
  facet normal 0.951057 0.309017 0
    outer loop
      vertex 56.2295 5.31693 2
      vertex 56.9078 3.22927 5
      vertex 56.9078 3.22927 2
    endloop
  endfacet
  facet normal 0.994522 -0.104529 0
    outer loop
      vertex 56 7.5 5
      vertex 56.2295 9.68307 2
      vertex 56.2295 9.68307 5
    endloop
  endfacet
  facet normal 0.994522 -0.104529 0
    outer loop
      vertex 56.2295 9.68307 2
      vertex 56 7.5 5
      vertex 56 7.5 2
    endloop
  endfacet
  facet normal -0.743146 0.669129 0
    outer loop
      vertex 73.7987 0 2
      vertex 74.9947 1.32825 5
      vertex 74.9947 1.32825 2
    endloop
  endfacet
  facet normal -0.743146 0.669129 0
    outer loop
      vertex 74.9947 1.32825 5
      vertex 73.7987 0 2
      vertex 73.7987 0 5
    endloop
  endfacet
  facet normal -0.951056 0.30902 0
    outer loop
      vertex 76.0922 3.22927 2
      vertex 76.7706 5.31693 5
      vertex 76.7706 5.31693 2
    endloop
  endfacet
  facet normal -0.951056 0.30902 0
    outer loop
      vertex 76.7706 5.31693 5
      vertex 76.0922 3.22927 2
      vertex 76.0922 3.22927 5
    endloop
  endfacet
  facet normal 0.866025 0.5 0
    outer loop
      vertex 58.0053 1.32825 5
      vertex 56.9078 3.22927 2
      vertex 56.9078 3.22927 5
    endloop
  endfacet
  facet normal 0.866025 0.5 0
    outer loop
      vertex 56.9078 3.22927 2
      vertex 58.0053 1.32825 5
      vertex 58.0053 1.32825 2
    endloop
  endfacet
  facet normal -0.866025 -0.5 0
    outer loop
      vertex 26.5 57.25 2
      vertex 22.0255 65 5
      vertex 22.0255 65 2
    endloop
  endfacet
  facet normal -0.866025 -0.5 0
    outer loop
      vertex 22.0255 65 5
      vertex 26.5 57.25 2
      vertex 26.5 57.25 5
    endloop
  endfacet
  facet normal 0.866025 0.5 0
    outer loop
      vertex 8.875 47.0742 5
      vertex 3 57.25 2
      vertex 3 57.25 5
    endloop
  endfacet
  facet normal 0.866025 0.5 0
    outer loop
      vertex 3 57.25 2
      vertex 8.875 47.0742 5
      vertex 8.875 47.0742 2
    endloop
  endfacet
  facet normal 0 1 -0
    outer loop
      vertex 20.625 47.0742 2
      vertex 8.875 47.0742 5
      vertex 20.625 47.0742 5
    endloop
  endfacet
  facet normal 0 1 0
    outer loop
      vertex 8.875 47.0742 5
      vertex 20.625 47.0742 2
      vertex 8.875 47.0742 2
    endloop
  endfacet
  facet normal 0.866025 -0.5 0
    outer loop
      vertex 3 57.25 5
      vertex 7.47446 65 2
      vertex 7.47446 65 5
    endloop
  endfacet
  facet normal 0.866025 -0.5 0
    outer loop
      vertex 7.47446 65 2
      vertex 3 57.25 5
      vertex 3 57.25 2
    endloop
  endfacet
  facet normal 0 0 1
    outer loop
      vertex 22.0255 65 2
      vertex 20.625 47.0742 2
      vertex 26.5 57.25 2
    endloop
  endfacet
  facet normal 0 0 1
    outer loop
      vertex 22.0255 65 2
      vertex 8.875 47.0742 2
      vertex 20.625 47.0742 2
    endloop
  endfacet
  facet normal -0 0 1
    outer loop
      vertex 7.47446 65 2
      vertex 8.875 47.0742 2
      vertex 22.0255 65 2
    endloop
  endfacet
  facet normal 0 0 1
    outer loop
      vertex 8.875 47.0742 2
      vertex 7.47446 65 2
      vertex 3 57.25 2
    endloop
  endfacet
  facet normal -0.866025 0.5 0
    outer loop
      vertex 20.625 47.0742 2
      vertex 26.5 57.25 5
      vertex 26.5 57.25 2
    endloop
  endfacet
  facet normal -0.866025 0.5 0
    outer loop
      vertex 26.5 57.25 5
      vertex 20.625 47.0742 2
      vertex 20.625 47.0742 5
    endloop
  endfacet
  facet normal -0.866025 -0.5 0
    outer loop
      vertex 51.75 57.25 2
      vertex 47.2755 65 5
      vertex 47.2755 65 2
    endloop
  endfacet
  facet normal -0.866025 -0.5 0
    outer loop
      vertex 47.2755 65 5
      vertex 51.75 57.25 2
      vertex 51.75 57.25 5
    endloop
  endfacet
  facet normal 0.866025 0.5 0
    outer loop
      vertex 34.125 47.0742 5
      vertex 28.25 57.25 2
      vertex 28.25 57.25 5
    endloop
  endfacet
  facet normal 0.866025 0.5 0
    outer loop
      vertex 28.25 57.25 2
      vertex 34.125 47.0742 5
      vertex 34.125 47.0742 2
    endloop
  endfacet
  facet normal 0 1 -0
    outer loop
      vertex 45.875 47.0742 2
      vertex 34.125 47.0742 5
      vertex 45.875 47.0742 5
    endloop
  endfacet
  facet normal 0 1 0
    outer loop
      vertex 34.125 47.0742 5
      vertex 45.875 47.0742 2
      vertex 34.125 47.0742 2
    endloop
  endfacet
  facet normal 0.866025 -0.5 0
    outer loop
      vertex 28.25 57.25 5
      vertex 32.7245 65 2
      vertex 32.7245 65 5
    endloop
  endfacet
  facet normal 0.866025 -0.5 0
    outer loop
      vertex 32.7245 65 2
      vertex 28.25 57.25 5
      vertex 28.25 57.25 2
    endloop
  endfacet
  facet normal 0 0 1
    outer loop
      vertex 47.2755 65 2
      vertex 45.875 47.0742 2
      vertex 51.75 57.25 2
    endloop
  endfacet
  facet normal 0 0 1
    outer loop
      vertex 47.2755 65 2
      vertex 34.125 47.0742 2
      vertex 45.875 47.0742 2
    endloop
  endfacet
  facet normal -0 0 1
    outer loop
      vertex 32.7245 65 2
      vertex 34.125 47.0742 2
      vertex 47.2755 65 2
    endloop
  endfacet
  facet normal 0 0 1
    outer loop
      vertex 34.125 47.0742 2
      vertex 32.7245 65 2
      vertex 28.25 57.25 2
    endloop
  endfacet
  facet normal -0.866025 0.5 0
    outer loop
      vertex 45.875 47.0742 2
      vertex 51.75 57.25 5
      vertex 51.75 57.25 2
    endloop
  endfacet
  facet normal -0.866025 0.5 0
    outer loop
      vertex 51.75 57.25 5
      vertex 45.875 47.0742 2
      vertex 45.875 47.0742 5
    endloop
  endfacet
  facet normal -0.866025 -0.5 0
    outer loop
      vertex 77 57.25 2
      vertex 72.5255 65 5
      vertex 72.5255 65 2
    endloop
  endfacet
  facet normal -0.866025 -0.5 0
    outer loop
      vertex 72.5255 65 5
      vertex 77 57.25 2
      vertex 77 57.25 5
    endloop
  endfacet
  facet normal 0 1 -0
    outer loop
      vertex 71.125 47.0742 2
      vertex 59.375 47.0742 5
      vertex 71.125 47.0742 5
    endloop
  endfacet
  facet normal 0 1 0
    outer loop
      vertex 59.375 47.0742 5
      vertex 71.125 47.0742 2
      vertex 59.375 47.0742 2
    endloop
  endfacet
  facet normal 0.866025 -0.5 0
    outer loop
      vertex 53.5 57.25 5
      vertex 57.9745 65 2
      vertex 57.9745 65 5
    endloop
  endfacet
  facet normal 0.866025 -0.5 0
    outer loop
      vertex 57.9745 65 2
      vertex 53.5 57.25 5
      vertex 53.5 57.25 2
    endloop
  endfacet
  facet normal 0 0 1
    outer loop
      vertex 72.5255 65 2
      vertex 71.125 47.0742 2
      vertex 77 57.25 2
    endloop
  endfacet
  facet normal 0 0 1
    outer loop
      vertex 72.5255 65 2
      vertex 59.375 47.0742 2
      vertex 71.125 47.0742 2
    endloop
  endfacet
  facet normal -0 0 1
    outer loop
      vertex 57.9745 65 2
      vertex 59.375 47.0742 2
      vertex 72.5255 65 2
    endloop
  endfacet
  facet normal 0 0 1
    outer loop
      vertex 59.375 47.0742 2
      vertex 57.9745 65 2
      vertex 53.5 57.25 2
    endloop
  endfacet
  facet normal -0.866025 0.5 0
    outer loop
      vertex 71.125 47.0742 2
      vertex 77 57.25 5
      vertex 77 57.25 2
    endloop
  endfacet
  facet normal -0.866025 0.5 0
    outer loop
      vertex 77 57.25 5
      vertex 71.125 47.0742 2
      vertex 71.125 47.0742 5
    endloop
  endfacet
  facet normal 0.866025 0.5 0
    outer loop
      vertex 59.375 47.0742 5
      vertex 53.5 57.25 2
      vertex 53.5 57.25 5
    endloop
  endfacet
  facet normal 0.866025 0.5 0
    outer loop
      vertex 53.5 57.25 2
      vertex 59.375 47.0742 5
      vertex 59.375 47.0742 2
    endloop
  endfacet
  facet normal -0 0 1
    outer loop
      vertex 18.6037 38.3745 2
      vertex 24.7104 32.4604 2
      vertex 18.7 38.4708 2
    endloop
  endfacet
  facet normal 0 0 1
    outer loop
      vertex 18.5747 26.5753 2
      vertex 24.7104 32.4604 2
      vertex 18.6037 38.3745 2
    endloop
  endfacet
  facet normal 0 0 1
    outer loop
      vertex 24.7104 32.4604 2
      vertex 18.5747 26.5753 2
      vertex 18.7 26.45 2
    endloop
  endfacet
  facet normal 0 0 1
    outer loop
      vertex 16.1965 41.4921 2
      vertex 18.6037 38.3745 2
      vertex 17.8891 39.6122 2
    endloop
  endfacet
  facet normal 0 0 1
    outer loop
      vertex 14.15 42.9789 2
      vertex 18.6037 38.3745 2
      vertex 16.1965 41.4921 2
    endloop
  endfacet
  facet normal 0 0 1
    outer loop
      vertex 11.8391 44.0078 2
      vertex 18.6037 38.3745 2
      vertex 14.15 42.9789 2
    endloop
  endfacet
  facet normal 0 0 1
    outer loop
      vertex 18.5747 26.5753 2
      vertex 16.1965 23.5079 2
      vertex 17.8891 25.3878 2
    endloop
  endfacet
  facet normal 0 0 1
    outer loop
      vertex 18.6037 38.3745 2
      vertex 11.8391 44.0078 2
      vertex 18.5747 26.5753 2
    endloop
  endfacet
  facet normal 0 0 1
    outer loop
      vertex 18.5747 26.5753 2
      vertex 14.15 22.0211 2
      vertex 16.1965 23.5079 2
    endloop
  endfacet
  facet normal 0 0 1
    outer loop
      vertex 11.8391 20.9922 2
      vertex 18.5747 26.5753 2
      vertex 11.8391 44.0078 2
    endloop
  endfacet
  facet normal 0 0 1
    outer loop
      vertex 18.5747 26.5753 2
      vertex 11.8391 20.9922 2
      vertex 14.15 22.0211 2
    endloop
  endfacet
  facet normal 0 0 1
    outer loop
      vertex 9.36479 44.5337 2
      vertex 11.8391 20.9922 2
      vertex 11.8391 44.0078 2
    endloop
  endfacet
  facet normal 0 0 1
    outer loop
      vertex 9.36479 44.5337 2
      vertex 9.36479 20.4663 2
      vertex 11.8391 20.9922 2
    endloop
  endfacet
  facet normal -0 0 1
    outer loop
      vertex 6.83521 44.5337 2
      vertex 9.36479 20.4663 2
      vertex 9.36479 44.5337 2
    endloop
  endfacet
  facet normal 0 0 1
    outer loop
      vertex 6.83521 44.5337 2
      vertex 6.83521 20.4663 2
      vertex 9.36479 20.4663 2
    endloop
  endfacet
  facet normal -0 0 1
    outer loop
      vertex 4.36089 44.0078 2
      vertex 6.83521 20.4663 2
      vertex 6.83521 44.5337 2
    endloop
  endfacet
  facet normal 0 0 1
    outer loop
      vertex 4.36089 44.0078 2
      vertex 4.36089 20.9922 2
      vertex 6.83521 20.4663 2
    endloop
  endfacet
  facet normal -0 0 1
    outer loop
      vertex 2.05 42.9789 2
      vertex 4.36089 20.9922 2
      vertex 4.36089 44.0078 2
    endloop
  endfacet
  facet normal 0 0 1
    outer loop
      vertex 2.05 42.9789 2
      vertex 2.05 22.0211 2
      vertex 4.36089 20.9922 2
    endloop
  endfacet
  facet normal 0 0 1
    outer loop
      vertex 0 41.4881 2
      vertex 2.05 42.9789 2
      vertex 0.00351906 41.4921 2
    endloop
  endfacet
  facet normal 0 0 1
    outer loop
      vertex 2.05 42.9789 2
      vertex 0 41.4881 2
      vertex 2.05 22.0211 2
    endloop
  endfacet
  facet normal -0 0 1
    outer loop
      vertex 0 23.5119 2
      vertex 2.05 22.0211 2
      vertex 0 41.4881 2
    endloop
  endfacet
  facet normal 0 0 1
    outer loop
      vertex 2.05 22.0211 2
      vertex 0 23.5119 2
      vertex 0.00351906 23.5079 2
    endloop
  endfacet
  facet normal -0.587785 -0.809017 0
    outer loop
      vertex 14.15 42.9789 2
      vertex 16.1965 41.4921 5
      vertex 14.15 42.9789 5
    endloop
  endfacet
  facet normal -0.587785 -0.809017 -0
    outer loop
      vertex 16.1965 41.4921 5
      vertex 14.15 42.9789 2
      vertex 16.1965 41.4921 2
    endloop
  endfacet
  facet normal 0.207911 0.978148 -0
    outer loop
      vertex 6.83521 20.4663 2
      vertex 4.36089 20.9922 5
      vertex 6.83521 20.4663 5
    endloop
  endfacet
  facet normal 0.207911 0.978148 0
    outer loop
      vertex 4.36089 20.9922 5
      vertex 6.83521 20.4663 2
      vertex 4.36089 20.9922 2
    endloop
  endfacet
  facet normal 0.406737 -0.913545 0
    outer loop
      vertex 2.05 42.9789 2
      vertex 4.36089 44.0078 5
      vertex 2.05 42.9789 5
    endloop
  endfacet
  facet normal 0.406737 -0.913545 0
    outer loop
      vertex 4.36089 44.0078 5
      vertex 2.05 42.9789 2
      vertex 4.36089 44.0078 2
    endloop
  endfacet
  facet normal -0.866026 -0.5 0
    outer loop
      vertex 18.6037 38.3745 2
      vertex 17.8891 39.6122 5
      vertex 17.8891 39.6122 2
    endloop
  endfacet
  facet normal -0.866026 -0.5 0
    outer loop
      vertex 17.8891 39.6122 5
      vertex 18.6037 38.3745 2
      vertex 18.6037 38.3745 5
    endloop
  endfacet
  facet normal -0.743144 -0.669131 0
    outer loop
      vertex 17.8891 39.6122 2
      vertex 16.1965 41.4921 5
      vertex 16.1965 41.4921 2
    endloop
  endfacet
  facet normal -0.743144 -0.669131 0
    outer loop
      vertex 16.1965 41.4921 5
      vertex 17.8891 39.6122 2
      vertex 17.8891 39.6122 5
    endloop
  endfacet
  facet normal -0.406737 -0.913545 0
    outer loop
      vertex 11.8391 44.0078 2
      vertex 14.15 42.9789 5
      vertex 11.8391 44.0078 5
    endloop
  endfacet
  facet normal -0.406737 -0.913545 -0
    outer loop
      vertex 14.15 42.9789 5
      vertex 11.8391 44.0078 2
      vertex 14.15 42.9789 2
    endloop
  endfacet
  facet normal 0 -1 0
    outer loop
      vertex 6.83521 44.5337 2
      vertex 9.36479 44.5337 5
      vertex 6.83521 44.5337 5
    endloop
  endfacet
  facet normal 0 -1 -0
    outer loop
      vertex 9.36479 44.5337 5
      vertex 6.83521 44.5337 2
      vertex 9.36479 44.5337 2
    endloop
  endfacet
  facet normal 0.587785 -0.809017 0
    outer loop
      vertex 0.00351906 41.4921 2
      vertex 2.05 42.9789 5
      vertex 0.00351906 41.4921 5
    endloop
  endfacet
  facet normal 0.587785 -0.809017 0
    outer loop
      vertex 2.05 42.9789 5
      vertex 0.00351906 41.4921 2
      vertex 2.05 42.9789 2
    endloop
  endfacet
  facet normal 0.207912 -0.978147 0
    outer loop
      vertex 4.36089 44.0078 2
      vertex 6.83521 44.5337 5
      vertex 4.36089 44.0078 5
    endloop
  endfacet
  facet normal 0.207912 -0.978147 0
    outer loop
      vertex 6.83521 44.5337 5
      vertex 4.36089 44.0078 2
      vertex 6.83521 44.5337 2
    endloop
  endfacet
  facet normal 0.742969 -0.669325 0
    outer loop
      vertex 0 41.4881 5
      vertex 0.00351906 41.4921 2
      vertex 0.00351906 41.4921 5
    endloop
  endfacet
  facet normal 0.742969 -0.669325 0
    outer loop
      vertex 0.00351906 41.4921 2
      vertex 0 41.4881 5
      vertex 0 41.4881 2
    endloop
  endfacet
  facet normal -0.207911 0.978148 0
    outer loop
      vertex 11.8391 20.9922 2
      vertex 9.36479 20.4663 5
      vertex 11.8391 20.9922 5
    endloop
  endfacet
  facet normal -0.207911 0.978148 0
    outer loop
      vertex 9.36479 20.4663 5
      vertex 11.8391 20.9922 2
      vertex 9.36479 20.4663 2
    endloop
  endfacet
  facet normal -0.866026 0.499999 0
    outer loop
      vertex 17.8891 25.3878 2
      vertex 18.5747 26.5753 5
      vertex 18.5747 26.5753 2
    endloop
  endfacet
  facet normal -0.866026 0.499999 0
    outer loop
      vertex 18.5747 26.5753 5
      vertex 17.8891 25.3878 2
      vertex 17.8891 25.3878 5
    endloop
  endfacet
  facet normal -0.406736 0.913546 0
    outer loop
      vertex 14.15 22.0211 2
      vertex 11.8391 20.9922 5
      vertex 14.15 22.0211 5
    endloop
  endfacet
  facet normal -0.406736 0.913546 0
    outer loop
      vertex 11.8391 20.9922 5
      vertex 14.15 22.0211 2
      vertex 11.8391 20.9922 2
    endloop
  endfacet
  facet normal -0.587785 0.809017 0
    outer loop
      vertex 16.1965 23.5079 2
      vertex 14.15 22.0211 5
      vertex 16.1965 23.5079 5
    endloop
  endfacet
  facet normal -0.587785 0.809017 0
    outer loop
      vertex 14.15 22.0211 5
      vertex 16.1965 23.5079 2
      vertex 14.15 22.0211 2
    endloop
  endfacet
  facet normal 0 1 -0
    outer loop
      vertex 9.36479 20.4663 2
      vertex 6.83521 20.4663 5
      vertex 9.36479 20.4663 5
    endloop
  endfacet
  facet normal 0 1 0
    outer loop
      vertex 6.83521 20.4663 5
      vertex 9.36479 20.4663 2
      vertex 6.83521 20.4663 2
    endloop
  endfacet
  facet normal 0.587785 0.809017 -0
    outer loop
      vertex 2.05 22.0211 2
      vertex 0.00351906 23.5079 5
      vertex 2.05 22.0211 5
    endloop
  endfacet
  facet normal 0.587785 0.809017 0
    outer loop
      vertex 0.00351906 23.5079 5
      vertex 2.05 22.0211 2
      vertex 0.00351906 23.5079 2
    endloop
  endfacet
  facet normal 0.743294 0.668965 0
    outer loop
      vertex 0.00351906 23.5079 5
      vertex 0 23.5119 2
      vertex 0 23.5119 5
    endloop
  endfacet
  facet normal 0.743294 0.668965 0
    outer loop
      vertex 0 23.5119 2
      vertex 0.00351906 23.5079 5
      vertex 0.00351906 23.5079 2
    endloop
  endfacet
  facet normal -0.207912 -0.978148 0
    outer loop
      vertex 9.36479 44.5337 2
      vertex 11.8391 44.0078 5
      vertex 9.36479 44.5337 5
    endloop
  endfacet
  facet normal -0.207912 -0.978148 -0
    outer loop
      vertex 11.8391 44.0078 5
      vertex 9.36479 44.5337 2
      vertex 11.8391 44.0078 2
    endloop
  endfacet
  facet normal -0.743145 0.66913 0
    outer loop
      vertex 16.1965 23.5079 2
      vertex 17.8891 25.3878 5
      vertex 17.8891 25.3878 2
    endloop
  endfacet
  facet normal -0.743145 0.66913 0
    outer loop
      vertex 17.8891 25.3878 5
      vertex 16.1965 23.5079 2
      vertex 16.1965 23.5079 5
    endloop
  endfacet
  facet normal 0.406736 0.913546 -0
    outer loop
      vertex 4.36089 20.9922 2
      vertex 2.05 22.0211 5
      vertex 4.36089 20.9922 5
    endloop
  endfacet
  facet normal 0.406736 0.913546 0
    outer loop
      vertex 2.05 22.0211 5
      vertex 4.36089 20.9922 2
      vertex 2.05 22.0211 2
    endloop
  endfacet
  facet normal -0.707107 -0.707107 0
    outer loop
      vertex 24.7104 32.4604 2
      vertex 18.7 38.4708 5
      vertex 18.7 38.4708 2
    endloop
  endfacet
  facet normal -0.707107 -0.707107 0
    outer loop
      vertex 18.7 38.4708 5
      vertex 24.7104 32.4604 2
      vertex 24.7104 32.4604 5
    endloop
  endfacet
  facet normal 0.707101 0.707112 -0
    outer loop
      vertex 18.7 26.45 2
      vertex 18.5747 26.5753 5
      vertex 18.7 26.45 5
    endloop
  endfacet
  facet normal 0.707101 0.707112 0
    outer loop
      vertex 18.5747 26.5753 5
      vertex 18.7 26.45 2
      vertex 18.5747 26.5753 2
    endloop
  endfacet
  facet normal -0.707107 0.707107 0
    outer loop
      vertex 18.7 26.45 2
      vertex 24.7104 32.4604 5
      vertex 24.7104 32.4604 2
    endloop
  endfacet
  facet normal -0.707107 0.707107 0
    outer loop
      vertex 24.7104 32.4604 5
      vertex 18.7 26.45 2
      vertex 18.7 26.45 5
    endloop
  endfacet
  facet normal 0.7071 -0.707114 0
    outer loop
      vertex 18.6037 38.3745 2
      vertex 18.7 38.4708 5
      vertex 18.6037 38.3745 5
    endloop
  endfacet
  facet normal 0.7071 -0.707114 0
    outer loop
      vertex 18.7 38.4708 5
      vertex 18.6037 38.3745 2
      vertex 18.7 38.4708 2
    endloop
  endfacet
  facet normal 1 -0 0
    outer loop
      vertex 59.5 23.25 5
      vertex 59.5 41.75 2
      vertex 59.5 41.75 5
    endloop
  endfacet
  facet normal 1 0 0
    outer loop
      vertex 59.5 41.75 2
      vertex 59.5 23.25 5
      vertex 59.5 23.25 2
    endloop
  endfacet
  facet normal -1 0 0
    outer loop
      vertex 78 23.25 2
      vertex 78 25.25 5
      vertex 78 25.25 2
    endloop
  endfacet
  facet normal -1 -0 0
    outer loop
      vertex 78 25.25 5
      vertex 78 23.25 2
      vertex 78 23.25 5
    endloop
  endfacet
  facet normal -1 0 0
    outer loop
      vertex 78 39.75 2
      vertex 78 41.75 5
      vertex 78 41.75 2
    endloop
  endfacet
  facet normal -1 -0 0
    outer loop
      vertex 78 41.75 5
      vertex 78 39.75 2
      vertex 78 39.75 5
    endloop
  endfacet
  facet normal 0 -1 0
    outer loop
      vertex 59.5 41.75 2
      vertex 78 41.75 5
      vertex 59.5 41.75 5
    endloop
  endfacet
  facet normal 0 -1 -0
    outer loop
      vertex 78 41.75 5
      vertex 59.5 41.75 2
      vertex 78 41.75 2
    endloop
  endfacet
  facet normal 0 0 1
    outer loop
      vertex 78 41.75 2
      vertex 71.5 39.75 2
      vertex 78 39.75 2
    endloop
  endfacet
  facet normal 0 0 1
    outer loop
      vertex 71.5 39.75 2
      vertex 59.5 41.75 2
      vertex 71.5 25.25 2
    endloop
  endfacet
  facet normal -0 0 1
    outer loop
      vertex 59.5 41.75 2
      vertex 71.5 39.75 2
      vertex 78 41.75 2
    endloop
  endfacet
  facet normal -0 0 1
    outer loop
      vertex 71.5 25.25 2
      vertex 78 23.25 2
      vertex 78 25.25 2
    endloop
  endfacet
  facet normal 0 0 1
    outer loop
      vertex 71.5 25.25 2
      vertex 59.5 23.25 2
      vertex 78 23.25 2
    endloop
  endfacet
  facet normal 0 0 1
    outer loop
      vertex 59.5 23.25 2
      vertex 71.5 25.25 2
      vertex 59.5 41.75 2
    endloop
  endfacet
  facet normal 0 1 -0
    outer loop
      vertex 78 23.25 2
      vertex 59.5 23.25 5
      vertex 78 23.25 5
    endloop
  endfacet
  facet normal 0 1 0
    outer loop
      vertex 59.5 23.25 5
      vertex 78 23.25 2
      vertex 59.5 23.25 2
    endloop
  endfacet
  facet normal 1 -0 0
    outer loop
      vertex 71.5 25.25 2
      vertex 71.5 39.75 0
      vertex 71.5 39.75 2
    endloop
  endfacet
  facet normal 1 0 0
    outer loop
      vertex 71.5 39.75 0
      vertex 71.5 25.25 2
      vertex 71.5 25.25 0
    endloop
  endfacet
  facet normal 0 -1 0
    outer loop
      vertex 71.5 39.75 2
      vertex 71.5 39.75 0
      vertex 78 39.75 2
    endloop
  endfacet
  facet normal 0 -1 0
    outer loop
      vertex 78 39.75 2
      vertex 80 39.75 5
      vertex 78 39.75 5
    endloop
  endfacet
  facet normal 0 -1 0
    outer loop
      vertex 78 39.75 2
      vertex 80 39.75 0
      vertex 80 39.75 5
    endloop
  endfacet
  facet normal 0 -1 0
    outer loop
      vertex 80 39.75 0
      vertex 78 39.75 2
      vertex 71.5 39.75 0
    endloop
  endfacet
  facet normal 0 1 0
    outer loop
      vertex 80 25.25 5
      vertex 78 25.25 2
      vertex 78 25.25 5
    endloop
  endfacet
  facet normal 0 1 -0
    outer loop
      vertex 80 25.25 0
      vertex 78 25.25 2
      vertex 80 25.25 5
    endloop
  endfacet
  facet normal 0 1 0
    outer loop
      vertex 71.5 25.25 0
      vertex 78 25.25 2
      vertex 80 25.25 0
    endloop
  endfacet
  facet normal 0 1 0
    outer loop
      vertex 78 25.25 2
      vertex 71.5 25.25 0
      vertex 71.5 25.25 2
    endloop
  endfacet
endsolid OpenSCAD_Model
