solid OpenSCAD_Model
  facet normal -1 0 0
    outer loop
      vertex 0 65 0
      vertex 0 41.4881 12
      vertex 0 65 30
    endloop
  endfacet
  facet normal -1 0 0
    outer loop
      vertex 0 65 0
      vertex 0 23.5119 12
      vertex 0 41.4881 12
    endloop
  endfacet
  facet normal -1 0 0
    outer loop
      vertex 0 0 0
      vertex 0 23.5119 12
      vertex 0 65 0
    endloop
  endfacet
  facet normal -1 0 0
    outer loop
      vertex 0 0 30
      vertex 0 23.5119 12
      vertex 0 0 0
    endloop
  endfacet
  facet normal -1 0 0
    outer loop
      vertex 0 23.5119 12
      vertex 0 0 30
      vertex 0 23.5119 30
    endloop
  endfacet
  facet normal -1 -0 0
    outer loop
      vertex 0 65 30
      vertex 0 41.4881 12
      vertex 0 41.4881 30
    endloop
  endfacet
  facet normal 0 0 1
    outer loop
      vertex 3 57.25 30
      vertex 0.00351906 41.4921 30
      vertex 2.05 42.9789 30
    endloop
  endfacet
  facet normal -0 0 1
    outer loop
      vertex 0 65 30
      vertex 3 57.25 30
      vertex 7.47446 65 30
    endloop
  endfacet
  facet normal 0 0 1
    outer loop
      vertex 0 41.4881 30
      vertex 3 57.25 30
      vertex 0 65 30
    endloop
  endfacet
  facet normal 0 0 1
    outer loop
      vertex 3 57.25 30
      vertex 0 41.4881 30
      vertex 0.00351906 41.4921 30
    endloop
  endfacet
  facet normal 0 0 1
    outer loop
      vertex 29.7295 9.68307 30
      vertex 23.7705 9.68307 30
      vertex 24 7.5 30
    endloop
  endfacet
  facet normal 0 0 1
    outer loop
      vertex 31.5053 13.6717 30
      vertex 23.0922 11.7707 30
      vertex 23.7705 9.68307 30
    endloop
  endfacet
  facet normal 0 0 1
    outer loop
      vertex 31.5053 13.6717 30
      vertex 21.9947 13.6717 30
      vertex 23.0922 11.7707 30
    endloop
  endfacet
  facet normal 0 0 1
    outer loop
      vertex 31.5053 13.6717 30
      vertex 20.5259 15.303 30
      vertex 21.9947 13.6717 30
    endloop
  endfacet
  facet normal 0 0 1
    outer loop
      vertex 32.9741 15.303 30
      vertex 20.5259 15.303 30
      vertex 31.5053 13.6717 30
    endloop
  endfacet
  facet normal -0 0 1
    outer loop
      vertex 17.8891 25.3878 30
      vertex 20.5259 15.303 30
      vertex 18.7 26.45 30
    endloop
  endfacet
  facet normal 0 0 1
    outer loop
      vertex 17.8891 25.3878 30
      vertex 18.7 26.45 30
      vertex 18.5747 26.5753 30
    endloop
  endfacet
  facet normal 0 0 1
    outer loop
      vertex 20.5259 15.303 30
      vertex 17.8891 25.3878 30
      vertex 18.75 16.5933 30
    endloop
  endfacet
  facet normal -0 0 1
    outer loop
      vertex 16.1965 23.5079 30
      vertex 18.75 16.5933 30
      vertex 17.8891 25.3878 30
    endloop
  endfacet
  facet normal 0 0 1
    outer loop
      vertex 18.75 16.5933 30
      vertex 16.1965 23.5079 30
      vertex 16.7447 17.4861 30
    endloop
  endfacet
  facet normal -0 0 1
    outer loop
      vertex 14.15 22.0211 30
      vertex 16.7447 17.4861 30
      vertex 16.1965 23.5079 30
    endloop
  endfacet
  facet normal 0 0 1
    outer loop
      vertex 16.7447 17.4861 30
      vertex 14.15 22.0211 30
      vertex 14.5975 17.9425 30
    endloop
  endfacet
  facet normal -0 0 1
    outer loop
      vertex 11.8391 20.9922 30
      vertex 14.5975 17.9425 30
      vertex 14.15 22.0211 30
    endloop
  endfacet
  facet normal 0 0 1
    outer loop
      vertex 14.5975 17.9425 30
      vertex 11.8391 20.9922 30
      vertex 12.4025 17.9425 30
    endloop
  endfacet
  facet normal 0 0 1
    outer loop
      vertex 11.8391 20.9922 30
      vertex 10.2553 17.4861 30
      vertex 12.4025 17.9425 30
    endloop
  endfacet
  facet normal -0 0 1
    outer loop
      vertex 9.36479 20.4663 30
      vertex 10.2553 17.4861 30
      vertex 11.8391 20.9922 30
    endloop
  endfacet
  facet normal 0 0 1
    outer loop
      vertex 9.36479 20.4663 30
      vertex 8.25 16.5933 30
      vertex 10.2553 17.4861 30
    endloop
  endfacet
  facet normal -0 0 1
    outer loop
      vertex 6.83521 20.4663 30
      vertex 8.25 16.5933 30
      vertex 9.36479 20.4663 30
    endloop
  endfacet
  facet normal 0 0 1
    outer loop
      vertex 6.83521 20.4663 30
      vertex 6.47413 15.303 30
      vertex 8.25 16.5933 30
    endloop
  endfacet
  facet normal 0 0 1
    outer loop
      vertex 4.36089 20.9922 30
      vertex 6.47413 15.303 30
      vertex 6.83521 20.4663 30
    endloop
  endfacet
  facet normal 0 0 1
    outer loop
      vertex 6.47413 15.303 30
      vertex 4.36089 20.9922 30
      vertex 5.00532 13.6717 30
    endloop
  endfacet
  facet normal 0 0 1
    outer loop
      vertex 2.05 22.0211 30
      vertex 5.00532 13.6717 30
      vertex 4.36089 20.9922 30
    endloop
  endfacet
  facet normal 0 0 1
    outer loop
      vertex 5.00532 13.6717 30
      vertex 2.05 22.0211 30
      vertex 3.90777 11.7707 30
    endloop
  endfacet
  facet normal 0 0 1
    outer loop
      vertex 0.00351906 23.5079 30
      vertex 3.90777 11.7707 30
      vertex 2.05 22.0211 30
    endloop
  endfacet
  facet normal 0 0 1
    outer loop
      vertex 3.90777 11.7707 30
      vertex 0.00351906 23.5079 30
      vertex 3.22945 9.68307 30
    endloop
  endfacet
  facet normal -0 0 1
    outer loop
      vertex 18.7 38.4708 30
      vertex 33.7706 37.0259 30
      vertex 20.625 47.0742 30
    endloop
  endfacet
  facet normal 0 0 1
    outer loop
      vertex 33.7706 37.0259 30
      vertex 18.7 38.4708 30
      vertex 24.7104 32.4604 30
    endloop
  endfacet
  facet normal -0 0 1
    outer loop
      vertex 17.8891 39.6122 30
      vertex 18.7 38.4708 30
      vertex 20.625 47.0742 30
    endloop
  endfacet
  facet normal 0 0 1
    outer loop
      vertex 18.7 38.4708 30
      vertex 17.8891 39.6122 30
      vertex 18.6037 38.3745 30
    endloop
  endfacet
  facet normal 0 0 1
    outer loop
      vertex 20.625 47.0742 30
      vertex 16.1965 41.4921 30
      vertex 17.8891 39.6122 30
    endloop
  endfacet
  facet normal 0 0 1
    outer loop
      vertex 20.625 47.0742 30
      vertex 14.15 42.9789 30
      vertex 16.1965 41.4921 30
    endloop
  endfacet
  facet normal 0 0 1
    outer loop
      vertex 20.625 47.0742 30
      vertex 11.8391 44.0078 30
      vertex 14.15 42.9789 30
    endloop
  endfacet
  facet normal -0 0 1
    outer loop
      vertex 8.875 47.0742 30
      vertex 11.8391 44.0078 30
      vertex 20.625 47.0742 30
    endloop
  endfacet
  facet normal 0 0 1
    outer loop
      vertex 11.8391 44.0078 30
      vertex 8.875 47.0742 30
      vertex 9.36479 44.5337 30
    endloop
  endfacet
  facet normal 0 0 1
    outer loop
      vertex 8.875 47.0742 30
      vertex 6.83521 44.5337 30
      vertex 9.36479 44.5337 30
    endloop
  endfacet
  facet normal 0 0 1
    outer loop
      vertex 8.875 47.0742 30
      vertex 4.36089 44.0078 30
      vertex 6.83521 44.5337 30
    endloop
  endfacet
  facet normal 0 0 1
    outer loop
      vertex 3 57.25 30
      vertex 4.36089 44.0078 30
      vertex 8.875 47.0742 30
    endloop
  endfacet
  facet normal 0 0 1
    outer loop
      vertex 4.36089 44.0078 30
      vertex 3 57.25 30
      vertex 2.05 42.9789 30
    endloop
  endfacet
  facet normal 0 0 1
    outer loop
      vertex 32.7245 65 30
      vertex 26.5 57.25 30
      vertex 28.25 57.25 30
    endloop
  endfacet
  facet normal 0 -0 1
    outer loop
      vertex 26.5 57.25 30
      vertex 32.7245 65 30
      vertex 22.0255 65 30
    endloop
  endfacet
  facet normal 0 0 1
    outer loop
      vertex 56.2295 9.68307 30
      vertex 50.2705 9.68307 30
      vertex 50.5 7.5 30
    endloop
  endfacet
  facet normal 0 0 1
    outer loop
      vertex 47.4581 30.5851 30
      vertex 59.5 41.75 30
      vertex 47.7 32.5 30
    endloop
  endfacet
  facet normal 0 0 1
    outer loop
      vertex 59.5 41.75 30
      vertex 49.5922 11.7707 30
      vertex 50.2705 9.68307 30
    endloop
  endfacet
  facet normal 0 -0 1
    outer loop
      vertex 48.4947 13.6717 30
      vertex 59.5 41.75 30
      vertex 47.4581 30.5851 30
    endloop
  endfacet
  facet normal 0 0 1
    outer loop
      vertex 59.5 41.75 30
      vertex 47.4581 34.4149 30
      vertex 47.7 32.5 30
    endloop
  endfacet
  facet normal 0 0 1
    outer loop
      vertex 59.5 41.75 30
      vertex 46.7476 36.2095 30
      vertex 47.4581 34.4149 30
    endloop
  endfacet
  facet normal 0 0 1
    outer loop
      vertex 45.6131 37.771 30
      vertex 59.5 41.75 30
      vertex 45.875 47.0742 30
    endloop
  endfacet
  facet normal 0 0 1
    outer loop
      vertex 59.5 41.75 30
      vertex 45.6131 37.771 30
      vertex 46.7476 36.2095 30
    endloop
  endfacet
  facet normal 0 0 1
    outer loop
      vertex 45.875 47.0742 30
      vertex 44.1259 39.0013 30
      vertex 45.6131 37.771 30
    endloop
  endfacet
  facet normal 0 0 1
    outer loop
      vertex 45.875 47.0742 30
      vertex 42.3794 39.8231 30
      vertex 44.1259 39.0013 30
    endloop
  endfacet
  facet normal 0 0 1
    outer loop
      vertex 45.875 47.0742 30
      vertex 40.4835 40.1848 30
      vertex 42.3794 39.8231 30
    endloop
  endfacet
  facet normal -0 0 1
    outer loop
      vertex 34.125 47.0742 30
      vertex 40.4835 40.1848 30
      vertex 45.875 47.0742 30
    endloop
  endfacet
  facet normal 0 0 1
    outer loop
      vertex 40.4835 40.1848 30
      vertex 34.125 47.0742 30
      vertex 38.5572 40.0636 30
    endloop
  endfacet
  facet normal 0 0 1
    outer loop
      vertex 38.5572 40.0636 30
      vertex 34.125 47.0742 30
      vertex 36.7215 39.4672 30
    endloop
  endfacet
  facet normal 0 0 1
    outer loop
      vertex 36.7215 39.4672 30
      vertex 34.125 47.0742 30
      vertex 35.0918 38.433 30
    endloop
  endfacet
  facet normal 0 0 1
    outer loop
      vertex 34.125 47.0742 30
      vertex 33.7706 37.0259 30
      vertex 35.0918 38.433 30
    endloop
  endfacet
  facet normal -0 0 1
    outer loop
      vertex 20.625 47.0742 30
      vertex 33.7706 37.0259 30
      vertex 34.125 47.0742 30
    endloop
  endfacet
  facet normal 0 0 1
    outer loop
      vertex 33.7706 37.0259 30
      vertex 24.7104 32.4604 30
      vertex 32.8407 35.3346 30
    endloop
  endfacet
  facet normal -0 0 1
    outer loop
      vertex 24.7104 32.4604 30
      vertex 32.3607 31.5349 30
      vertex 32.3607 33.4651 30
    endloop
  endfacet
  facet normal 0 0 1
    outer loop
      vertex 18.7 26.45 30
      vertex 32.3607 31.5349 30
      vertex 24.7104 32.4604 30
    endloop
  endfacet
  facet normal 0 -0 1
    outer loop
      vertex 20.5259 15.303 30
      vertex 32.9741 15.303 30
      vertex 18.7 26.45 30
    endloop
  endfacet
  facet normal 0 0 1
    outer loop
      vertex 23.7705 9.68307 30
      vertex 30.4078 11.7707 30
      vertex 31.5053 13.6717 30
    endloop
  endfacet
  facet normal 0 0 1
    outer loop
      vertex 32.8407 35.3346 30
      vertex 24.7104 32.4604 30
      vertex 32.3607 33.4651 30
    endloop
  endfacet
  facet normal 0 0 1
    outer loop
      vertex 20.625 47.0742 30
      vertex 34.125 47.0742 30
      vertex 28.25 57.25 30
    endloop
  endfacet
  facet normal 0 0 1
    outer loop
      vertex 57.9745 65 30
      vertex 51.75 57.25 30
      vertex 53.5 57.25 30
    endloop
  endfacet
  facet normal 0 -0 1
    outer loop
      vertex 51.75 57.25 30
      vertex 57.9745 65 30
      vertex 47.2755 65 30
    endloop
  endfacet
  facet normal -0 0 1
    outer loop
      vertex 77 57.25 30
      vertex 80 39.75 30
      vertex 80 65 30
    endloop
  endfacet
  facet normal 0 0 1
    outer loop
      vertex 80 39.75 30
      vertex 77 57.25 30
      vertex 78 41.75 30
    endloop
  endfacet
  facet normal 0 -0 1
    outer loop
      vertex 77 57.25 30
      vertex 80 65 30
      vertex 72.5255 65 30
    endloop
  endfacet
  facet normal 0 0 1
    outer loop
      vertex 80 39.75 30
      vertex 78 41.75 30
      vertex 78 39.75 30
    endloop
  endfacet
  facet normal -0 0 1
    outer loop
      vertex 71.125 47.0742 30
      vertex 78 41.75 30
      vertex 77 57.25 30
    endloop
  endfacet
  facet normal 0 0 1
    outer loop
      vertex 71.125 47.0742 30
      vertex 59.5 41.75 30
      vertex 78 41.75 30
    endloop
  endfacet
  facet normal 0 0 1
    outer loop
      vertex 50.2705 9.68307 30
      vertex 59.5 23.25 30
      vertex 59.5 41.75 30
    endloop
  endfacet
  facet normal -0 0 1
    outer loop
      vertex 59.375 47.0742 30
      vertex 59.5 41.75 30
      vertex 71.125 47.0742 30
    endloop
  endfacet
  facet normal 0 0 1
    outer loop
      vertex 45.875 47.0742 30
      vertex 59.375 47.0742 30
      vertex 51.75 57.25 30
    endloop
  endfacet
  facet normal 0 0 1
    outer loop
      vertex 59.5 23.25 30
      vertex 58.0053 13.6717 30
      vertex 59.4741 15.303 30
    endloop
  endfacet
  facet normal 0 0 1
    outer loop
      vertex 50.2705 9.68307 30
      vertex 58.0053 13.6717 30
      vertex 59.5 23.25 30
    endloop
  endfacet
  facet normal 0 0 1
    outer loop
      vertex 50.2705 9.68307 30
      vertex 56.9078 11.7707 30
      vertex 58.0053 13.6717 30
    endloop
  endfacet
  facet normal 0 0 1
    outer loop
      vertex 50.2705 9.68307 30
      vertex 56.2295 9.68307 30
      vertex 56.9078 11.7707 30
    endloop
  endfacet
  facet normal -0 0 1
    outer loop
      vertex 51.75 57.25 30
      vertex 59.375 47.0742 30
      vertex 53.5 57.25 30
    endloop
  endfacet
  facet normal 0 0 1
    outer loop
      vertex 80 0 30
      vertex 76.7706 9.68307 30
      vertex 77 7.5 30
    endloop
  endfacet
  facet normal 0 0 1
    outer loop
      vertex 80 25.25 30
      vertex 76.0922 11.7707 30
      vertex 76.7706 9.68307 30
    endloop
  endfacet
  facet normal 0 0 1
    outer loop
      vertex 78 23.25 30
      vertex 74.9947 13.6717 30
      vertex 76.0922 11.7707 30
    endloop
  endfacet
  facet normal 0 0 1
    outer loop
      vertex 78 23.25 30
      vertex 73.5259 15.303 30
      vertex 74.9947 13.6717 30
    endloop
  endfacet
  facet normal 0 0 1
    outer loop
      vertex 78 23.25 30
      vertex 71.75 16.5933 30
      vertex 73.5259 15.303 30
    endloop
  endfacet
  facet normal 0 0 1
    outer loop
      vertex 78 23.25 30
      vertex 69.7447 17.4861 30
      vertex 71.75 16.5933 30
    endloop
  endfacet
  facet normal 0 0 1
    outer loop
      vertex 78 23.25 30
      vertex 67.5975 17.9425 30
      vertex 69.7447 17.4861 30
    endloop
  endfacet
  facet normal -0 0 1
    outer loop
      vertex 59.5 23.25 30
      vertex 67.5975 17.9425 30
      vertex 78 23.25 30
    endloop
  endfacet
  facet normal 0 0 1
    outer loop
      vertex 67.5975 17.9425 30
      vertex 59.5 23.25 30
      vertex 65.4025 17.9425 30
    endloop
  endfacet
  facet normal 0 0 1
    outer loop
      vertex 65.4025 17.9425 30
      vertex 59.5 23.25 30
      vertex 63.2553 17.4861 30
    endloop
  endfacet
  facet normal 0 0 1
    outer loop
      vertex 59.5 23.25 30
      vertex 61.25 16.5933 30
      vertex 63.2553 17.4861 30
    endloop
  endfacet
  facet normal 0 0 1
    outer loop
      vertex 61.25 16.5933 30
      vertex 59.5 23.25 30
      vertex 59.4741 15.303 30
    endloop
  endfacet
  facet normal 0 0 1
    outer loop
      vertex 78 23.25 30
      vertex 80 25.25 30
      vertex 78 25.25 30
    endloop
  endfacet
  facet normal 0 0 1
    outer loop
      vertex 76.0922 11.7707 30
      vertex 80 25.25 30
      vertex 78 23.25 30
    endloop
  endfacet
  facet normal -0 0 1
    outer loop
      vertex 76.7706 9.68307 30
      vertex 80 0 30
      vertex 80 25.25 30
    endloop
  endfacet
  facet normal -0 0 1
    outer loop
      vertex 76.7706 5.31693 30
      vertex 80 0 30
      vertex 77 7.5 30
    endloop
  endfacet
  facet normal -0 0 1
    outer loop
      vertex 76.0922 3.22927 30
      vertex 80 0 30
      vertex 76.7706 5.31693 30
    endloop
  endfacet
  facet normal -0 0 1
    outer loop
      vertex 74.9947 1.32825 30
      vertex 80 0 30
      vertex 76.0922 3.22927 30
    endloop
  endfacet
  facet normal 0 0 1
    outer loop
      vertex 80 0 30
      vertex 74.9947 1.32825 30
      vertex 73.7987 0 30
    endloop
  endfacet
  facet normal 0 0 1
    outer loop
      vertex 59.375 47.0742 30
      vertex 45.875 47.0742 30
      vertex 59.5 41.75 30
    endloop
  endfacet
  facet normal 0 0 1
    outer loop
      vertex 56.2295 9.68307 30
      vertex 50.5 7.5 30
      vertex 56 7.5 30
    endloop
  endfacet
  facet normal -0 0 1
    outer loop
      vertex 50.5 7.5 30
      vertex 56.2295 5.31693 30
      vertex 56 7.5 30
    endloop
  endfacet
  facet normal 0 0 1
    outer loop
      vertex 50.2705 5.31693 30
      vertex 56.2295 5.31693 30
      vertex 50.5 7.5 30
    endloop
  endfacet
  facet normal 0 0 1
    outer loop
      vertex 56.2295 5.31693 30
      vertex 50.2705 5.31693 30
      vertex 56.9078 3.22927 30
    endloop
  endfacet
  facet normal 0 0 1
    outer loop
      vertex 49.5922 3.22927 30
      vertex 56.9078 3.22927 30
      vertex 50.2705 5.31693 30
    endloop
  endfacet
  facet normal 0 0 1
    outer loop
      vertex 56.9078 3.22927 30
      vertex 49.5922 3.22927 30
      vertex 58.0053 1.32825 30
    endloop
  endfacet
  facet normal 0 0 1
    outer loop
      vertex 48.4947 1.32825 30
      vertex 58.0053 1.32825 30
      vertex 49.5922 3.22927 30
    endloop
  endfacet
  facet normal 0 0 1
    outer loop
      vertex 58.0053 1.32825 30
      vertex 48.4947 1.32825 30
      vertex 59.2013 0 30
    endloop
  endfacet
  facet normal 0 0 1
    outer loop
      vertex 59.2013 0 30
      vertex 48.4947 1.32825 30
      vertex 47.2987 0 30
    endloop
  endfacet
  facet normal 0 0 1
    outer loop
      vertex 59.5 41.75 30
      vertex 48.4947 13.6717 30
      vertex 49.5922 11.7707 30
    endloop
  endfacet
  facet normal -0 0 1
    outer loop
      vertex 46.7476 28.7905 30
      vertex 48.4947 13.6717 30
      vertex 47.4581 30.5851 30
    endloop
  endfacet
  facet normal 0 0 1
    outer loop
      vertex 48.4947 13.6717 30
      vertex 46.7476 28.7905 30
      vertex 47.0259 15.303 30
    endloop
  endfacet
  facet normal -0 0 1
    outer loop
      vertex 45.6131 27.229 30
      vertex 47.0259 15.303 30
      vertex 46.7476 28.7905 30
    endloop
  endfacet
  facet normal 0 0 1
    outer loop
      vertex 45.6131 27.229 30
      vertex 45.25 16.5933 30
      vertex 47.0259 15.303 30
    endloop
  endfacet
  facet normal -0 0 1
    outer loop
      vertex 44.1259 25.9987 30
      vertex 45.25 16.5933 30
      vertex 45.6131 27.229 30
    endloop
  endfacet
  facet normal 0 0 1
    outer loop
      vertex 44.1259 25.9987 30
      vertex 43.2447 17.4861 30
      vertex 45.25 16.5933 30
    endloop
  endfacet
  facet normal -0 0 1
    outer loop
      vertex 42.3794 25.1769 30
      vertex 43.2447 17.4861 30
      vertex 44.1259 25.9987 30
    endloop
  endfacet
  facet normal 0 0 1
    outer loop
      vertex 42.3794 25.1769 30
      vertex 41.0975 17.9425 30
      vertex 43.2447 17.4861 30
    endloop
  endfacet
  facet normal -0 0 1
    outer loop
      vertex 40.4835 24.8152 30
      vertex 41.0975 17.9425 30
      vertex 42.3794 25.1769 30
    endloop
  endfacet
  facet normal 0 0 1
    outer loop
      vertex 40.4835 24.8152 30
      vertex 38.9025 17.9425 30
      vertex 41.0975 17.9425 30
    endloop
  endfacet
  facet normal 0 0 1
    outer loop
      vertex 38.5572 24.9364 30
      vertex 38.9025 17.9425 30
      vertex 40.4835 24.8152 30
    endloop
  endfacet
  facet normal 0 0 1
    outer loop
      vertex 38.5572 24.9364 30
      vertex 36.7553 17.4861 30
      vertex 38.9025 17.9425 30
    endloop
  endfacet
  facet normal 0 0 1
    outer loop
      vertex 36.7215 25.5328 30
      vertex 36.7553 17.4861 30
      vertex 38.5572 24.9364 30
    endloop
  endfacet
  facet normal 0 0 1
    outer loop
      vertex 34.75 16.5933 30
      vertex 36.7215 25.5328 30
      vertex 35.0918 26.567 30
    endloop
  endfacet
  facet normal 0 0 1
    outer loop
      vertex 36.7215 25.5328 30
      vertex 34.75 16.5933 30
      vertex 36.7553 17.4861 30
    endloop
  endfacet
  facet normal 0 0 1
    outer loop
      vertex 32.9741 15.303 30
      vertex 35.0918 26.567 30
      vertex 33.7706 27.9741 30
    endloop
  endfacet
  facet normal 0 0 1
    outer loop
      vertex 35.0918 26.567 30
      vertex 32.9741 15.303 30
      vertex 34.75 16.5933 30
    endloop
  endfacet
  facet normal 0 0 1
    outer loop
      vertex 18.7 26.45 30
      vertex 33.7706 27.9741 30
      vertex 32.8407 29.6654 30
    endloop
  endfacet
  facet normal 0 0 1
    outer loop
      vertex 18.7 26.45 30
      vertex 32.8407 29.6654 30
      vertex 32.3607 31.5349 30
    endloop
  endfacet
  facet normal -0 0 1
    outer loop
      vertex 18.7 26.45 30
      vertex 32.9741 15.303 30
      vertex 33.7706 27.9741 30
    endloop
  endfacet
  facet normal 0 0 1
    outer loop
      vertex 20.625 47.0742 30
      vertex 28.25 57.25 30
      vertex 26.5 57.25 30
    endloop
  endfacet
  facet normal 0 0 1
    outer loop
      vertex 23.7705 9.68307 30
      vertex 29.7295 9.68307 30
      vertex 30.4078 11.7707 30
    endloop
  endfacet
  facet normal 0 0 1
    outer loop
      vertex 29.7295 9.68307 30
      vertex 24 7.5 30
      vertex 29.5 7.5 30
    endloop
  endfacet
  facet normal 0 0 1
    outer loop
      vertex 29.5 7.5 30
      vertex 24 7.5 30
      vertex 29.7295 5.31693 30
    endloop
  endfacet
  facet normal 0 0 1
    outer loop
      vertex 23.7705 5.31693 30
      vertex 29.7295 5.31693 30
      vertex 24 7.5 30
    endloop
  endfacet
  facet normal 0 0 1
    outer loop
      vertex 29.7295 5.31693 30
      vertex 23.7705 5.31693 30
      vertex 30.4078 3.22927 30
    endloop
  endfacet
  facet normal 0 0 1
    outer loop
      vertex 23.0922 3.22927 30
      vertex 30.4078 3.22927 30
      vertex 23.7705 5.31693 30
    endloop
  endfacet
  facet normal 0 0 1
    outer loop
      vertex 30.4078 3.22927 30
      vertex 23.0922 3.22927 30
      vertex 31.5053 1.32825 30
    endloop
  endfacet
  facet normal 0 0 1
    outer loop
      vertex 21.9947 1.32825 30
      vertex 31.5053 1.32825 30
      vertex 23.0922 3.22927 30
    endloop
  endfacet
  facet normal 0 0 1
    outer loop
      vertex 31.5053 1.32825 30
      vertex 21.9947 1.32825 30
      vertex 32.7013 0 30
    endloop
  endfacet
  facet normal 0 0 1
    outer loop
      vertex 32.7013 0 30
      vertex 21.9947 1.32825 30
      vertex 20.7987 0 30
    endloop
  endfacet
  facet normal 0 0 1
    outer loop
      vertex 0 23.5119 30
      vertex 3.22945 9.68307 30
      vertex 0.00351906 23.5079 30
    endloop
  endfacet
  facet normal 0 0 1
    outer loop
      vertex 0 0 30
      vertex 3.22945 9.68307 30
      vertex 0 23.5119 30
    endloop
  endfacet
  facet normal 0 0 1
    outer loop
      vertex 3.22945 9.68307 30
      vertex 0 0 30
      vertex 3 7.5 30
    endloop
  endfacet
  facet normal 0 0 1
    outer loop
      vertex 5.00532 1.32825 30
      vertex 0 0 30
      vertex 6.20129 0 30
    endloop
  endfacet
  facet normal 0 0 1
    outer loop
      vertex 3.90777 3.22927 30
      vertex 0 0 30
      vertex 5.00532 1.32825 30
    endloop
  endfacet
  facet normal 0 0 1
    outer loop
      vertex 3.22945 5.31693 30
      vertex 0 0 30
      vertex 3.90777 3.22927 30
    endloop
  endfacet
  facet normal 0 0 1
    outer loop
      vertex 3 7.5 30
      vertex 0 0 30
      vertex 3.22945 5.31693 30
    endloop
  endfacet
  facet normal 1 -0 0
    outer loop
      vertex 80 0 30
      vertex 80 25.25 0
      vertex 80 25.25 30
    endloop
  endfacet
  facet normal 1 0 0
    outer loop
      vertex 80 25.25 0
      vertex 80 0 30
      vertex 80 0 0
    endloop
  endfacet
  facet normal 1 -0 0
    outer loop
      vertex 80 39.75 30
      vertex 80 65 0
      vertex 80 65 30
    endloop
  endfacet
  facet normal 1 0 0
    outer loop
      vertex 80 65 0
      vertex 80 39.75 30
      vertex 80 39.75 0
    endloop
  endfacet
  facet normal 0 1 0
    outer loop
      vertex 80 65 30
      vertex 72.5255 65 25
      vertex 72.5255 65 30
    endloop
  endfacet
  facet normal 0 1 0
    outer loop
      vertex 80 65 0
      vertex 57.9745 65 25
      vertex 72.5255 65 25
    endloop
  endfacet
  facet normal 0 1 0
    outer loop
      vertex 57.9745 65 25
      vertex 80 65 0
      vertex 47.2755 65 25
    endloop
  endfacet
  facet normal 0 1 0
    outer loop
      vertex 47.2755 65 25
      vertex 80 65 0
      vertex 32.7245 65 25
    endloop
  endfacet
  facet normal 0 1 0
    outer loop
      vertex 0 65 0
      vertex 32.7245 65 25
      vertex 80 65 0
    endloop
  endfacet
  facet normal 0 1 0
    outer loop
      vertex 32.7245 65 25
      vertex 0 65 0
      vertex 22.0255 65 25
    endloop
  endfacet
  facet normal 0 1 -0
    outer loop
      vertex 80 65 0
      vertex 72.5255 65 25
      vertex 80 65 30
    endloop
  endfacet
  facet normal 0 1 -0
    outer loop
      vertex 57.9745 65 25
      vertex 47.2755 65 30
      vertex 57.9745 65 30
    endloop
  endfacet
  facet normal 0 1 0
    outer loop
      vertex 47.2755 65 30
      vertex 57.9745 65 25
      vertex 47.2755 65 25
    endloop
  endfacet
  facet normal 0 1 -0
    outer loop
      vertex 32.7245 65 25
      vertex 22.0255 65 30
      vertex 32.7245 65 30
    endloop
  endfacet
  facet normal 0 1 0
    outer loop
      vertex 22.0255 65 30
      vertex 32.7245 65 25
      vertex 22.0255 65 25
    endloop
  endfacet
  facet normal 0 1 -0
    outer loop
      vertex 7.47446 65 25
      vertex 0 65 30
      vertex 7.47446 65 30
    endloop
  endfacet
  facet normal 0 1 0
    outer loop
      vertex 7.47446 65 25
      vertex 0 65 0
      vertex 0 65 30
    endloop
  endfacet
  facet normal 0 1 0
    outer loop
      vertex 22.0255 65 25
      vertex 0 65 0
      vertex 7.47446 65 25
    endloop
  endfacet
  facet normal 0 0 -1
    outer loop
      vertex 80 0 0
      vertex 71.5 25.25 0
      vertex 80 25.25 0
    endloop
  endfacet
  facet normal -0 0 -1
    outer loop
      vertex 71.5 25.25 0
      vertex 0 0 0
      vertex 71.5 39.75 0
    endloop
  endfacet
  facet normal 0 0 -1
    outer loop
      vertex 0 0 0
      vertex 71.5 25.25 0
      vertex 80 0 0
    endloop
  endfacet
  facet normal 0 0 -1
    outer loop
      vertex 71.5 39.75 0
      vertex 80 65 0
      vertex 80 39.75 0
    endloop
  endfacet
  facet normal 0 0 -1
    outer loop
      vertex 0 65 0
      vertex 71.5 39.75 0
      vertex 0 0 0
    endloop
  endfacet
  facet normal 0 0 -1
    outer loop
      vertex 71.5 39.75 0
      vertex 0 65 0
      vertex 80 65 0
    endloop
  endfacet
  facet normal 0 -1 0
    outer loop
      vertex 0 0 30
      vertex 6.20129 0 3.8
      vertex 6.20129 0 30
    endloop
  endfacet
  facet normal 0 -1 0
    outer loop
      vertex 0 0 0
      vertex 20.7987 0 3.8
      vertex 6.20129 0 3.8
    endloop
  endfacet
  facet normal 0 -1 -0
    outer loop
      vertex 20.7987 0 3.8
      vertex 0 0 0
      vertex 32.7013 0 3.8
    endloop
  endfacet
  facet normal 0 -1 -0
    outer loop
      vertex 32.7013 0 3.8
      vertex 0 0 0
      vertex 47.2987 0 3.8
    endloop
  endfacet
  facet normal 0 -1 0
    outer loop
      vertex 80 0 0
      vertex 47.2987 0 3.8
      vertex 0 0 0
    endloop
  endfacet
  facet normal 0 -1 0
    outer loop
      vertex 47.2987 0 3.8
      vertex 80 0 0
      vertex 59.2013 0 3.8
    endloop
  endfacet
  facet normal 0 -1 0
    outer loop
      vertex 0 0 0
      vertex 6.20129 0 3.8
      vertex 0 0 30
    endloop
  endfacet
  facet normal 0 -1 0
    outer loop
      vertex 20.7987 0 3.8
      vertex 32.7013 0 30
      vertex 20.7987 0 30
    endloop
  endfacet
  facet normal 0 -1 -0
    outer loop
      vertex 32.7013 0 30
      vertex 20.7987 0 3.8
      vertex 32.7013 0 3.8
    endloop
  endfacet
  facet normal 0 -1 0
    outer loop
      vertex 47.2987 0 3.8
      vertex 59.2013 0 30
      vertex 47.2987 0 30
    endloop
  endfacet
  facet normal 0 -1 -0
    outer loop
      vertex 59.2013 0 30
      vertex 47.2987 0 3.8
      vertex 59.2013 0 3.8
    endloop
  endfacet
  facet normal 0 -1 0
    outer loop
      vertex 73.7987 0 3.8
      vertex 80 0 30
      vertex 73.7987 0 30
    endloop
  endfacet
  facet normal 0 -1 0
    outer loop
      vertex 73.7987 0 3.8
      vertex 80 0 0
      vertex 80 0 30
    endloop
  endfacet
  facet normal 0 -1 0
    outer loop
      vertex 59.2013 0 3.8
      vertex 80 0 0
      vertex 73.7987 0 3.8
    endloop
  endfacet
  facet normal 0 0 1
    outer loop
      vertex 23.7705 9.68307 3.8
      vertex 23.7705 5.31693 3.8
      vertex 24 7.5 3.8
    endloop
  endfacet
  facet normal 0 0 1
    outer loop
      vertex 23.0922 11.7707 3.8
      vertex 23.7705 5.31693 3.8
      vertex 23.7705 9.68307 3.8
    endloop
  endfacet
  facet normal 0 0 1
    outer loop
      vertex 23.0922 11.7707 3.8
      vertex 23.0922 3.22927 3.8
      vertex 23.7705 5.31693 3.8
    endloop
  endfacet
  facet normal 0 0 1
    outer loop
      vertex 21.9947 13.6717 3.8
      vertex 23.0922 3.22927 3.8
      vertex 23.0922 11.7707 3.8
    endloop
  endfacet
  facet normal 0 0 1
    outer loop
      vertex 20.7987 0 3.8
      vertex 23.0922 3.22927 3.8
      vertex 21.9947 13.6717 3.8
    endloop
  endfacet
  facet normal 0 0 1
    outer loop
      vertex 23.0922 3.22927 3.8
      vertex 20.7987 0 3.8
      vertex 21.9947 1.32825 3.8
    endloop
  endfacet
  facet normal 0 0 1
    outer loop
      vertex 20.5259 15.303 3.8
      vertex 20.7987 0 3.8
      vertex 21.9947 13.6717 3.8
    endloop
  endfacet
  facet normal 0 0 1
    outer loop
      vertex 18.75 16.5933 3.8
      vertex 20.7987 0 3.8
      vertex 20.5259 15.303 3.8
    endloop
  endfacet
  facet normal 0 0 1
    outer loop
      vertex 16.7447 17.4861 3.8
      vertex 20.7987 0 3.8
      vertex 18.75 16.5933 3.8
    endloop
  endfacet
  facet normal 0 0 1
    outer loop
      vertex 14.5975 17.9425 3.8
      vertex 20.7987 0 3.8
      vertex 16.7447 17.4861 3.8
    endloop
  endfacet
  facet normal -0 0 1
    outer loop
      vertex 12.4025 17.9425 3.8
      vertex 20.7987 0 3.8
      vertex 14.5975 17.9425 3.8
    endloop
  endfacet
  facet normal -0 0 1
    outer loop
      vertex 10.2553 17.4861 3.8
      vertex 20.7987 0 3.8
      vertex 12.4025 17.9425 3.8
    endloop
  endfacet
  facet normal -0 0 1
    outer loop
      vertex 8.25 16.5933 3.8
      vertex 20.7987 0 3.8
      vertex 10.2553 17.4861 3.8
    endloop
  endfacet
  facet normal -0 0 1
    outer loop
      vertex 6.47413 15.303 3.8
      vertex 20.7987 0 3.8
      vertex 8.25 16.5933 3.8
    endloop
  endfacet
  facet normal 0 0 1
    outer loop
      vertex 6.47413 15.303 3.8
      vertex 6.20129 0 3.8
      vertex 20.7987 0 3.8
    endloop
  endfacet
  facet normal -0 0 1
    outer loop
      vertex 5.00532 13.6717 3.8
      vertex 6.20129 0 3.8
      vertex 6.47413 15.303 3.8
    endloop
  endfacet
  facet normal -0 0 1
    outer loop
      vertex 3.90777 11.7707 3.8
      vertex 6.20129 0 3.8
      vertex 5.00532 13.6717 3.8
    endloop
  endfacet
  facet normal -0 0 1
    outer loop
      vertex 3.90777 3.22927 3.8
      vertex 6.20129 0 3.8
      vertex 3.90777 11.7707 3.8
    endloop
  endfacet
  facet normal 0 0 1
    outer loop
      vertex 6.20129 0 3.8
      vertex 3.90777 3.22927 3.8
      vertex 5.00532 1.32825 3.8
    endloop
  endfacet
  facet normal -0 0 1
    outer loop
      vertex 3.22945 9.68307 3.8
      vertex 3.90777 3.22927 3.8
      vertex 3.90777 11.7707 3.8
    endloop
  endfacet
  facet normal 0 0 1
    outer loop
      vertex 3.22945 9.68307 3.8
      vertex 3.22945 5.31693 3.8
      vertex 3.90777 3.22927 3.8
    endloop
  endfacet
  facet normal 0 -0 1
    outer loop
      vertex 3.22945 5.31693 3.8
      vertex 3.22945 9.68307 3.8
      vertex 3 7.5 3.8
    endloop
  endfacet
  facet normal -0.406736 -0.913546 0
    outer loop
      vertex 16.7447 17.4861 3.8
      vertex 18.75 16.5933 30
      vertex 16.7447 17.4861 30
    endloop
  endfacet
  facet normal -0.406736 -0.913546 -0
    outer loop
      vertex 18.75 16.5933 30
      vertex 16.7447 17.4861 3.8
      vertex 18.75 16.5933 3.8
    endloop
  endfacet
  facet normal -0.994522 0.104528 0
    outer loop
      vertex 23.7705 5.31693 3.8
      vertex 24 7.5 30
      vertex 24 7.5 3.8
    endloop
  endfacet
  facet normal -0.994522 0.104528 0
    outer loop
      vertex 24 7.5 30
      vertex 23.7705 5.31693 3.8
      vertex 23.7705 5.31693 30
    endloop
  endfacet
  facet normal 0 -1 0
    outer loop
      vertex 12.4025 17.9425 3.8
      vertex 14.5975 17.9425 30
      vertex 12.4025 17.9425 30
    endloop
  endfacet
  facet normal 0 -1 -0
    outer loop
      vertex 14.5975 17.9425 30
      vertex 12.4025 17.9425 3.8
      vertex 14.5975 17.9425 3.8
    endloop
  endfacet
  facet normal 0.406736 -0.913546 0
    outer loop
      vertex 8.25 16.5933 3.8
      vertex 10.2553 17.4861 30
      vertex 8.25 16.5933 30
    endloop
  endfacet
  facet normal 0.406736 -0.913546 0
    outer loop
      vertex 10.2553 17.4861 30
      vertex 8.25 16.5933 3.8
      vertex 10.2553 17.4861 3.8
    endloop
  endfacet
  facet normal 0.951056 -0.309017 0
    outer loop
      vertex 3.22945 9.68307 30
      vertex 3.90777 11.7707 3.8
      vertex 3.90777 11.7707 30
    endloop
  endfacet
  facet normal 0.951056 -0.309017 0
    outer loop
      vertex 3.90777 11.7707 3.8
      vertex 3.22945 9.68307 30
      vertex 3.22945 9.68307 3.8
    endloop
  endfacet
  facet normal 0.743145 0.66913 0
    outer loop
      vertex 6.20129 0 30
      vertex 5.00532 1.32825 3.8
      vertex 5.00532 1.32825 30
    endloop
  endfacet
  facet normal 0.743145 0.66913 0
    outer loop
      vertex 5.00532 1.32825 3.8
      vertex 6.20129 0 30
      vertex 6.20129 0 3.8
    endloop
  endfacet
  facet normal -0.866025 -0.5 0
    outer loop
      vertex 23.0922 11.7707 3.8
      vertex 21.9947 13.6717 30
      vertex 21.9947 13.6717 3.8
    endloop
  endfacet
  facet normal -0.866025 -0.5 0
    outer loop
      vertex 21.9947 13.6717 30
      vertex 23.0922 11.7707 3.8
      vertex 23.0922 11.7707 30
    endloop
  endfacet
  facet normal -0.743145 -0.669131 0
    outer loop
      vertex 21.9947 13.6717 3.8
      vertex 20.5259 15.303 30
      vertex 20.5259 15.303 3.8
    endloop
  endfacet
  facet normal -0.743145 -0.669131 0
    outer loop
      vertex 20.5259 15.303 30
      vertex 21.9947 13.6717 3.8
      vertex 21.9947 13.6717 30
    endloop
  endfacet
  facet normal -0.587785 -0.809017 0
    outer loop
      vertex 18.75 16.5933 3.8
      vertex 20.5259 15.303 30
      vertex 18.75 16.5933 30
    endloop
  endfacet
  facet normal -0.587785 -0.809017 -0
    outer loop
      vertex 20.5259 15.303 30
      vertex 18.75 16.5933 3.8
      vertex 20.5259 15.303 3.8
    endloop
  endfacet
  facet normal -0.207912 -0.978148 0
    outer loop
      vertex 14.5975 17.9425 3.8
      vertex 16.7447 17.4861 30
      vertex 14.5975 17.9425 30
    endloop
  endfacet
  facet normal -0.207912 -0.978148 -0
    outer loop
      vertex 16.7447 17.4861 30
      vertex 14.5975 17.9425 3.8
      vertex 16.7447 17.4861 3.8
    endloop
  endfacet
  facet normal 0.994522 0.104528 0
    outer loop
      vertex 3.22945 5.31693 30
      vertex 3 7.5 3.8
      vertex 3 7.5 30
    endloop
  endfacet
  facet normal 0.994522 0.104528 0
    outer loop
      vertex 3 7.5 3.8
      vertex 3.22945 5.31693 30
      vertex 3.22945 5.31693 3.8
    endloop
  endfacet
  facet normal 0.866025 -0.5 0
    outer loop
      vertex 3.90777 11.7707 30
      vertex 5.00532 13.6717 3.8
      vertex 5.00532 13.6717 30
    endloop
  endfacet
  facet normal 0.866025 -0.5 0
    outer loop
      vertex 5.00532 13.6717 3.8
      vertex 3.90777 11.7707 30
      vertex 3.90777 11.7707 3.8
    endloop
  endfacet
  facet normal 0.587785 -0.809017 0
    outer loop
      vertex 6.47413 15.303 3.8
      vertex 8.25 16.5933 30
      vertex 6.47413 15.303 30
    endloop
  endfacet
  facet normal 0.587785 -0.809017 0
    outer loop
      vertex 8.25 16.5933 30
      vertex 6.47413 15.303 3.8
      vertex 8.25 16.5933 3.8
    endloop
  endfacet
  facet normal 0.207912 -0.978148 0
    outer loop
      vertex 10.2553 17.4861 3.8
      vertex 12.4025 17.9425 30
      vertex 10.2553 17.4861 30
    endloop
  endfacet
  facet normal 0.207912 -0.978148 0
    outer loop
      vertex 12.4025 17.9425 30
      vertex 10.2553 17.4861 3.8
      vertex 12.4025 17.9425 3.8
    endloop
  endfacet
  facet normal 0.743145 -0.66913 0
    outer loop
      vertex 5.00532 13.6717 30
      vertex 6.47413 15.303 3.8
      vertex 6.47413 15.303 30
    endloop
  endfacet
  facet normal 0.743145 -0.66913 0
    outer loop
      vertex 6.47413 15.303 3.8
      vertex 5.00532 13.6717 30
      vertex 5.00532 13.6717 3.8
    endloop
  endfacet
  facet normal -0.994522 -0.104529 0
    outer loop
      vertex 24 7.5 3.8
      vertex 23.7705 9.68307 30
      vertex 23.7705 9.68307 3.8
    endloop
  endfacet
  facet normal -0.994522 -0.104529 0
    outer loop
      vertex 23.7705 9.68307 30
      vertex 24 7.5 3.8
      vertex 24 7.5 30
    endloop
  endfacet
  facet normal -0.866025 0.5 0
    outer loop
      vertex 21.9947 1.32825 3.8
      vertex 23.0922 3.22927 30
      vertex 23.0922 3.22927 3.8
    endloop
  endfacet
  facet normal -0.866025 0.5 0
    outer loop
      vertex 23.0922 3.22927 30
      vertex 21.9947 1.32825 3.8
      vertex 21.9947 1.32825 30
    endloop
  endfacet
  facet normal 0.951056 0.309017 0
    outer loop
      vertex 3.90777 3.22927 30
      vertex 3.22945 5.31693 3.8
      vertex 3.22945 5.31693 30
    endloop
  endfacet
  facet normal 0.951056 0.309017 0
    outer loop
      vertex 3.22945 5.31693 3.8
      vertex 3.90777 3.22927 30
      vertex 3.90777 3.22927 3.8
    endloop
  endfacet
  facet normal -0.951057 -0.309017 0
    outer loop
      vertex 23.7705 9.68307 3.8
      vertex 23.0922 11.7707 30
      vertex 23.0922 11.7707 3.8
    endloop
  endfacet
  facet normal -0.951057 -0.309017 0
    outer loop
      vertex 23.0922 11.7707 30
      vertex 23.7705 9.68307 3.8
      vertex 23.7705 9.68307 30
    endloop
  endfacet
  facet normal 0.994522 -0.104528 0
    outer loop
      vertex 3 7.5 30
      vertex 3.22945 9.68307 3.8
      vertex 3.22945 9.68307 30
    endloop
  endfacet
  facet normal 0.994522 -0.104528 0
    outer loop
      vertex 3.22945 9.68307 3.8
      vertex 3 7.5 30
      vertex 3 7.5 3.8
    endloop
  endfacet
  facet normal -0.743145 0.669131 0
    outer loop
      vertex 20.7987 0 3.8
      vertex 21.9947 1.32825 30
      vertex 21.9947 1.32825 3.8
    endloop
  endfacet
  facet normal -0.743145 0.669131 0
    outer loop
      vertex 21.9947 1.32825 30
      vertex 20.7987 0 3.8
      vertex 20.7987 0 30
    endloop
  endfacet
  facet normal -0.951057 0.309017 0
    outer loop
      vertex 23.0922 3.22927 3.8
      vertex 23.7705 5.31693 30
      vertex 23.7705 5.31693 3.8
    endloop
  endfacet
  facet normal -0.951057 0.309017 0
    outer loop
      vertex 23.7705 5.31693 30
      vertex 23.0922 3.22927 3.8
      vertex 23.0922 3.22927 30
    endloop
  endfacet
  facet normal 0.866025 0.5 0
    outer loop
      vertex 5.00532 1.32825 30
      vertex 3.90777 3.22927 3.8
      vertex 3.90777 3.22927 30
    endloop
  endfacet
  facet normal 0.866025 0.5 0
    outer loop
      vertex 3.90777 3.22927 3.8
      vertex 5.00532 1.32825 30
      vertex 5.00532 1.32825 3.8
    endloop
  endfacet
  facet normal 0 0 1
    outer loop
      vertex 50.2705 9.68307 3.8
      vertex 50.2705 5.31693 3.8
      vertex 50.5 7.5 3.8
    endloop
  endfacet
  facet normal 0 0 1
    outer loop
      vertex 49.5922 11.7707 3.8
      vertex 50.2705 5.31693 3.8
      vertex 50.2705 9.68307 3.8
    endloop
  endfacet
  facet normal 0 0 1
    outer loop
      vertex 49.5922 11.7707 3.8
      vertex 49.5922 3.22927 3.8
      vertex 50.2705 5.31693 3.8
    endloop
  endfacet
  facet normal 0 0 1
    outer loop
      vertex 48.4947 13.6717 3.8
      vertex 49.5922 3.22927 3.8
      vertex 49.5922 11.7707 3.8
    endloop
  endfacet
  facet normal 0 0 1
    outer loop
      vertex 47.2987 0 3.8
      vertex 49.5922 3.22927 3.8
      vertex 48.4947 13.6717 3.8
    endloop
  endfacet
  facet normal 0 0 1
    outer loop
      vertex 49.5922 3.22927 3.8
      vertex 47.2987 0 3.8
      vertex 48.4947 1.32825 3.8
    endloop
  endfacet
  facet normal 0 0 1
    outer loop
      vertex 47.0259 15.303 3.8
      vertex 47.2987 0 3.8
      vertex 48.4947 13.6717 3.8
    endloop
  endfacet
  facet normal 0 0 1
    outer loop
      vertex 45.25 16.5933 3.8
      vertex 47.2987 0 3.8
      vertex 47.0259 15.303 3.8
    endloop
  endfacet
  facet normal 0 0 1
    outer loop
      vertex 43.2447 17.4861 3.8
      vertex 47.2987 0 3.8
      vertex 45.25 16.5933 3.8
    endloop
  endfacet
  facet normal 0 0 1
    outer loop
      vertex 41.0975 17.9425 3.8
      vertex 47.2987 0 3.8
      vertex 43.2447 17.4861 3.8
    endloop
  endfacet
  facet normal -0 0 1
    outer loop
      vertex 38.9025 17.9425 3.8
      vertex 47.2987 0 3.8
      vertex 41.0975 17.9425 3.8
    endloop
  endfacet
  facet normal -0 0 1
    outer loop
      vertex 36.7553 17.4861 3.8
      vertex 47.2987 0 3.8
      vertex 38.9025 17.9425 3.8
    endloop
  endfacet
  facet normal -0 0 1
    outer loop
      vertex 34.75 16.5933 3.8
      vertex 47.2987 0 3.8
      vertex 36.7553 17.4861 3.8
    endloop
  endfacet
  facet normal -0 0 1
    outer loop
      vertex 32.9741 15.303 3.8
      vertex 47.2987 0 3.8
      vertex 34.75 16.5933 3.8
    endloop
  endfacet
  facet normal 0 0 1
    outer loop
      vertex 32.9741 15.303 3.8
      vertex 32.7013 0 3.8
      vertex 47.2987 0 3.8
    endloop
  endfacet
  facet normal -0 0 1
    outer loop
      vertex 31.5053 13.6717 3.8
      vertex 32.7013 0 3.8
      vertex 32.9741 15.303 3.8
    endloop
  endfacet
  facet normal -0 0 1
    outer loop
      vertex 30.4078 11.7707 3.8
      vertex 32.7013 0 3.8
      vertex 31.5053 13.6717 3.8
    endloop
  endfacet
  facet normal -0 0 1
    outer loop
      vertex 30.4078 3.22927 3.8
      vertex 32.7013 0 3.8
      vertex 30.4078 11.7707 3.8
    endloop
  endfacet
  facet normal 0 0 1
    outer loop
      vertex 32.7013 0 3.8
      vertex 30.4078 3.22927 3.8
      vertex 31.5053 1.32825 3.8
    endloop
  endfacet
  facet normal -0 0 1
    outer loop
      vertex 29.7295 9.68307 3.8
      vertex 30.4078 3.22927 3.8
      vertex 30.4078 11.7707 3.8
    endloop
  endfacet
  facet normal 0 0 1
    outer loop
      vertex 29.7295 9.68307 3.8
      vertex 29.7295 5.31693 3.8
      vertex 30.4078 3.22927 3.8
    endloop
  endfacet
  facet normal 0 -0 1
    outer loop
      vertex 29.7295 5.31693 3.8
      vertex 29.7295 9.68307 3.8
      vertex 29.5 7.5 3.8
    endloop
  endfacet
  facet normal -0.406736 -0.913546 0
    outer loop
      vertex 43.2447 17.4861 3.8
      vertex 45.25 16.5933 30
      vertex 43.2447 17.4861 30
    endloop
  endfacet
  facet normal -0.406736 -0.913546 -0
    outer loop
      vertex 45.25 16.5933 30
      vertex 43.2447 17.4861 3.8
      vertex 45.25 16.5933 3.8
    endloop
  endfacet
  facet normal 0.994522 -0.104529 0
    outer loop
      vertex 29.5 7.5 30
      vertex 29.7295 9.68307 3.8
      vertex 29.7295 9.68307 30
    endloop
  endfacet
  facet normal 0.994522 -0.104529 0
    outer loop
      vertex 29.7295 9.68307 3.8
      vertex 29.5 7.5 30
      vertex 29.5 7.5 3.8
    endloop
  endfacet
  facet normal -0.994522 0.104528 0
    outer loop
      vertex 50.2705 5.31693 3.8
      vertex 50.5 7.5 30
      vertex 50.5 7.5 3.8
    endloop
  endfacet
  facet normal -0.994522 0.104528 0
    outer loop
      vertex 50.5 7.5 30
      vertex 50.2705 5.31693 3.8
      vertex 50.2705 5.31693 30
    endloop
  endfacet
  facet normal 0 -1 0
    outer loop
      vertex 38.9025 17.9425 3.8
      vertex 41.0975 17.9425 30
      vertex 38.9025 17.9425 30
    endloop
  endfacet
  facet normal 0 -1 -0
    outer loop
      vertex 41.0975 17.9425 30
      vertex 38.9025 17.9425 3.8
      vertex 41.0975 17.9425 3.8
    endloop
  endfacet
  facet normal 0.406736 -0.913546 0
    outer loop
      vertex 34.75 16.5933 3.8
      vertex 36.7553 17.4861 30
      vertex 34.75 16.5933 30
    endloop
  endfacet
  facet normal 0.406736 -0.913546 0
    outer loop
      vertex 36.7553 17.4861 30
      vertex 34.75 16.5933 3.8
      vertex 36.7553 17.4861 3.8
    endloop
  endfacet
  facet normal 0.951057 -0.309017 0
    outer loop
      vertex 29.7295 9.68307 30
      vertex 30.4078 11.7707 3.8
      vertex 30.4078 11.7707 30
    endloop
  endfacet
  facet normal 0.951057 -0.309017 0
    outer loop
      vertex 30.4078 11.7707 3.8
      vertex 29.7295 9.68307 30
      vertex 29.7295 9.68307 3.8
    endloop
  endfacet
  facet normal 0.743145 0.66913 0
    outer loop
      vertex 32.7013 0 30
      vertex 31.5053 1.32825 3.8
      vertex 31.5053 1.32825 30
    endloop
  endfacet
  facet normal 0.743145 0.66913 0
    outer loop
      vertex 31.5053 1.32825 3.8
      vertex 32.7013 0 30
      vertex 32.7013 0 3.8
    endloop
  endfacet
  facet normal -0.866025 -0.5 0
    outer loop
      vertex 49.5922 11.7707 3.8
      vertex 48.4947 13.6717 30
      vertex 48.4947 13.6717 3.8
    endloop
  endfacet
  facet normal -0.866025 -0.5 0
    outer loop
      vertex 48.4947 13.6717 30
      vertex 49.5922 11.7707 3.8
      vertex 49.5922 11.7707 30
    endloop
  endfacet
  facet normal -0.743145 -0.669131 0
    outer loop
      vertex 48.4947 13.6717 3.8
      vertex 47.0259 15.303 30
      vertex 47.0259 15.303 3.8
    endloop
  endfacet
  facet normal -0.743145 -0.669131 0
    outer loop
      vertex 47.0259 15.303 30
      vertex 48.4947 13.6717 3.8
      vertex 48.4947 13.6717 30
    endloop
  endfacet
  facet normal -0.587785 -0.809017 0
    outer loop
      vertex 45.25 16.5933 3.8
      vertex 47.0259 15.303 30
      vertex 45.25 16.5933 30
    endloop
  endfacet
  facet normal -0.587785 -0.809017 -0
    outer loop
      vertex 47.0259 15.303 30
      vertex 45.25 16.5933 3.8
      vertex 47.0259 15.303 3.8
    endloop
  endfacet
  facet normal -0.207912 -0.978148 0
    outer loop
      vertex 41.0975 17.9425 3.8
      vertex 43.2447 17.4861 30
      vertex 41.0975 17.9425 30
    endloop
  endfacet
  facet normal -0.207912 -0.978148 -0
    outer loop
      vertex 43.2447 17.4861 30
      vertex 41.0975 17.9425 3.8
      vertex 43.2447 17.4861 3.8
    endloop
  endfacet
  facet normal 0.994522 0.104528 0
    outer loop
      vertex 29.7295 5.31693 30
      vertex 29.5 7.5 3.8
      vertex 29.5 7.5 30
    endloop
  endfacet
  facet normal 0.994522 0.104528 0
    outer loop
      vertex 29.5 7.5 3.8
      vertex 29.7295 5.31693 30
      vertex 29.7295 5.31693 3.8
    endloop
  endfacet
  facet normal 0.866025 -0.5 0
    outer loop
      vertex 30.4078 11.7707 30
      vertex 31.5053 13.6717 3.8
      vertex 31.5053 13.6717 30
    endloop
  endfacet
  facet normal 0.866025 -0.5 0
    outer loop
      vertex 31.5053 13.6717 3.8
      vertex 30.4078 11.7707 30
      vertex 30.4078 11.7707 3.8
    endloop
  endfacet
  facet normal 0.587785 -0.809017 0
    outer loop
      vertex 32.9741 15.303 3.8
      vertex 34.75 16.5933 30
      vertex 32.9741 15.303 30
    endloop
  endfacet
  facet normal 0.587785 -0.809017 0
    outer loop
      vertex 34.75 16.5933 30
      vertex 32.9741 15.303 3.8
      vertex 34.75 16.5933 3.8
    endloop
  endfacet
  facet normal 0.207912 -0.978148 0
    outer loop
      vertex 36.7553 17.4861 3.8
      vertex 38.9025 17.9425 30
      vertex 36.7553 17.4861 30
    endloop
  endfacet
  facet normal 0.207912 -0.978148 0
    outer loop
      vertex 38.9025 17.9425 30
      vertex 36.7553 17.4861 3.8
      vertex 38.9025 17.9425 3.8
    endloop
  endfacet
  facet normal 0.743145 -0.669131 0
    outer loop
      vertex 31.5053 13.6717 30
      vertex 32.9741 15.303 3.8
      vertex 32.9741 15.303 30
    endloop
  endfacet
  facet normal 0.743145 -0.669131 0
    outer loop
      vertex 32.9741 15.303 3.8
      vertex 31.5053 13.6717 30
      vertex 31.5053 13.6717 3.8
    endloop
  endfacet
  facet normal -0.994522 -0.104529 0
    outer loop
      vertex 50.5 7.5 3.8
      vertex 50.2705 9.68307 30
      vertex 50.2705 9.68307 3.8
    endloop
  endfacet
  facet normal -0.994522 -0.104529 0
    outer loop
      vertex 50.2705 9.68307 30
      vertex 50.5 7.5 3.8
      vertex 50.5 7.5 30
    endloop
  endfacet
  facet normal -0.866025 0.5 0
    outer loop
      vertex 48.4947 1.32825 3.8
      vertex 49.5922 3.22927 30
      vertex 49.5922 3.22927 3.8
    endloop
  endfacet
  facet normal -0.866025 0.5 0
    outer loop
      vertex 49.5922 3.22927 30
      vertex 48.4947 1.32825 3.8
      vertex 48.4947 1.32825 30
    endloop
  endfacet
  facet normal 0.951057 0.309017 0
    outer loop
      vertex 30.4078 3.22927 30
      vertex 29.7295 5.31693 3.8
      vertex 29.7295 5.31693 30
    endloop
  endfacet
  facet normal 0.951057 0.309017 0
    outer loop
      vertex 29.7295 5.31693 3.8
      vertex 30.4078 3.22927 30
      vertex 30.4078 3.22927 3.8
    endloop
  endfacet
  facet normal -0.951057 -0.309017 0
    outer loop
      vertex 50.2705 9.68307 3.8
      vertex 49.5922 11.7707 30
      vertex 49.5922 11.7707 3.8
    endloop
  endfacet
  facet normal -0.951057 -0.309017 0
    outer loop
      vertex 49.5922 11.7707 30
      vertex 50.2705 9.68307 3.8
      vertex 50.2705 9.68307 30
    endloop
  endfacet
  facet normal -0.743145 0.66913 0
    outer loop
      vertex 47.2987 0 3.8
      vertex 48.4947 1.32825 30
      vertex 48.4947 1.32825 3.8
    endloop
  endfacet
  facet normal -0.743145 0.66913 0
    outer loop
      vertex 48.4947 1.32825 30
      vertex 47.2987 0 3.8
      vertex 47.2987 0 30
    endloop
  endfacet
  facet normal -0.951057 0.309017 0
    outer loop
      vertex 49.5922 3.22927 3.8
      vertex 50.2705 5.31693 30
      vertex 50.2705 5.31693 3.8
    endloop
  endfacet
  facet normal -0.951057 0.309017 0
    outer loop
      vertex 50.2705 5.31693 30
      vertex 49.5922 3.22927 3.8
      vertex 49.5922 3.22927 30
    endloop
  endfacet
  facet normal 0.866025 0.5 0
    outer loop
      vertex 31.5053 1.32825 30
      vertex 30.4078 3.22927 3.8
      vertex 30.4078 3.22927 30
    endloop
  endfacet
  facet normal 0.866025 0.5 0
    outer loop
      vertex 30.4078 3.22927 3.8
      vertex 31.5053 1.32825 30
      vertex 31.5053 1.32825 3.8
    endloop
  endfacet
  facet normal 0 0 1
    outer loop
      vertex 76.7706 9.68307 3.8
      vertex 76.7706 5.31693 3.8
      vertex 77 7.5 3.8
    endloop
  endfacet
  facet normal 0 0 1
    outer loop
      vertex 76.0922 11.7707 3.8
      vertex 76.7706 5.31693 3.8
      vertex 76.7706 9.68307 3.8
    endloop
  endfacet
  facet normal 0 0 1
    outer loop
      vertex 76.0922 11.7707 3.8
      vertex 76.0922 3.22927 3.8
      vertex 76.7706 5.31693 3.8
    endloop
  endfacet
  facet normal 0 0 1
    outer loop
      vertex 74.9947 13.6717 3.8
      vertex 76.0922 3.22927 3.8
      vertex 76.0922 11.7707 3.8
    endloop
  endfacet
  facet normal 0 0 1
    outer loop
      vertex 73.7987 0 3.8
      vertex 76.0922 3.22927 3.8
      vertex 74.9947 13.6717 3.8
    endloop
  endfacet
  facet normal 0 0 1
    outer loop
      vertex 76.0922 3.22927 3.8
      vertex 73.7987 0 3.8
      vertex 74.9947 1.32825 3.8
    endloop
  endfacet
  facet normal 0 0 1
    outer loop
      vertex 73.5259 15.303 3.8
      vertex 73.7987 0 3.8
      vertex 74.9947 13.6717 3.8
    endloop
  endfacet
  facet normal 0 0 1
    outer loop
      vertex 71.75 16.5933 3.8
      vertex 73.7987 0 3.8
      vertex 73.5259 15.303 3.8
    endloop
  endfacet
  facet normal 0 0 1
    outer loop
      vertex 69.7447 17.4861 3.8
      vertex 73.7987 0 3.8
      vertex 71.75 16.5933 3.8
    endloop
  endfacet
  facet normal 0 0 1
    outer loop
      vertex 67.5975 17.9425 3.8
      vertex 73.7987 0 3.8
      vertex 69.7447 17.4861 3.8
    endloop
  endfacet
  facet normal -0 0 1
    outer loop
      vertex 65.4025 17.9425 3.8
      vertex 73.7987 0 3.8
      vertex 67.5975 17.9425 3.8
    endloop
  endfacet
  facet normal -0 0 1
    outer loop
      vertex 63.2553 17.4861 3.8
      vertex 73.7987 0 3.8
      vertex 65.4025 17.9425 3.8
    endloop
  endfacet
  facet normal -0 0 1
    outer loop
      vertex 61.25 16.5933 3.8
      vertex 73.7987 0 3.8
      vertex 63.2553 17.4861 3.8
    endloop
  endfacet
  facet normal -0 0 1
    outer loop
      vertex 59.4741 15.303 3.8
      vertex 73.7987 0 3.8
      vertex 61.25 16.5933 3.8
    endloop
  endfacet
  facet normal 0 0 1
    outer loop
      vertex 59.4741 15.303 3.8
      vertex 59.2013 0 3.8
      vertex 73.7987 0 3.8
    endloop
  endfacet
  facet normal -0 0 1
    outer loop
      vertex 58.0053 13.6717 3.8
      vertex 59.2013 0 3.8
      vertex 59.4741 15.303 3.8
    endloop
  endfacet
  facet normal -0 0 1
    outer loop
      vertex 56.9078 11.7707 3.8
      vertex 59.2013 0 3.8
      vertex 58.0053 13.6717 3.8
    endloop
  endfacet
  facet normal -0 0 1
    outer loop
      vertex 56.9078 3.22927 3.8
      vertex 59.2013 0 3.8
      vertex 56.9078 11.7707 3.8
    endloop
  endfacet
  facet normal 0 0 1
    outer loop
      vertex 59.2013 0 3.8
      vertex 56.9078 3.22927 3.8
      vertex 58.0053 1.32825 3.8
    endloop
  endfacet
  facet normal -0 0 1
    outer loop
      vertex 56.2295 9.68307 3.8
      vertex 56.9078 3.22927 3.8
      vertex 56.9078 11.7707 3.8
    endloop
  endfacet
  facet normal 0 0 1
    outer loop
      vertex 56.2295 9.68307 3.8
      vertex 56.2295 5.31693 3.8
      vertex 56.9078 3.22927 3.8
    endloop
  endfacet
  facet normal 0 -0 1
    outer loop
      vertex 56.2295 5.31693 3.8
      vertex 56.2295 9.68307 3.8
      vertex 56 7.5 3.8
    endloop
  endfacet
  facet normal -0.406736 -0.913546 0
    outer loop
      vertex 69.7447 17.4861 3.8
      vertex 71.75 16.5933 30
      vertex 69.7447 17.4861 30
    endloop
  endfacet
  facet normal -0.406736 -0.913546 -0
    outer loop
      vertex 71.75 16.5933 30
      vertex 69.7447 17.4861 3.8
      vertex 71.75 16.5933 3.8
    endloop
  endfacet
  facet normal -0.994522 0.104527 0
    outer loop
      vertex 76.7706 5.31693 3.8
      vertex 77 7.5 30
      vertex 77 7.5 3.8
    endloop
  endfacet
  facet normal -0.994522 0.104527 0
    outer loop
      vertex 77 7.5 30
      vertex 76.7706 5.31693 3.8
      vertex 76.7706 5.31693 30
    endloop
  endfacet
  facet normal 0 -1 0
    outer loop
      vertex 65.4025 17.9425 3.8
      vertex 67.5975 17.9425 30
      vertex 65.4025 17.9425 30
    endloop
  endfacet
  facet normal 0 -1 -0
    outer loop
      vertex 67.5975 17.9425 30
      vertex 65.4025 17.9425 3.8
      vertex 67.5975 17.9425 3.8
    endloop
  endfacet
  facet normal 0.406736 -0.913546 0
    outer loop
      vertex 61.25 16.5933 3.8
      vertex 63.2553 17.4861 30
      vertex 61.25 16.5933 30
    endloop
  endfacet
  facet normal 0.406736 -0.913546 0
    outer loop
      vertex 63.2553 17.4861 30
      vertex 61.25 16.5933 3.8
      vertex 63.2553 17.4861 3.8
    endloop
  endfacet
  facet normal 0.951057 -0.309017 0
    outer loop
      vertex 56.2295 9.68307 30
      vertex 56.9078 11.7707 3.8
      vertex 56.9078 11.7707 30
    endloop
  endfacet
  facet normal 0.951057 -0.309017 0
    outer loop
      vertex 56.9078 11.7707 3.8
      vertex 56.2295 9.68307 30
      vertex 56.2295 9.68307 3.8
    endloop
  endfacet
  facet normal 0.743145 0.66913 0
    outer loop
      vertex 59.2013 0 30
      vertex 58.0053 1.32825 3.8
      vertex 58.0053 1.32825 30
    endloop
  endfacet
  facet normal 0.743145 0.66913 0
    outer loop
      vertex 58.0053 1.32825 3.8
      vertex 59.2013 0 30
      vertex 59.2013 0 3.8
    endloop
  endfacet
  facet normal -0.951056 -0.30902 0
    outer loop
      vertex 76.7706 9.68307 3.8
      vertex 76.0922 11.7707 30
      vertex 76.0922 11.7707 3.8
    endloop
  endfacet
  facet normal -0.951056 -0.30902 0
    outer loop
      vertex 76.0922 11.7707 30
      vertex 76.7706 9.68307 3.8
      vertex 76.7706 9.68307 30
    endloop
  endfacet
  facet normal -0.866025 -0.5 0
    outer loop
      vertex 76.0922 11.7707 3.8
      vertex 74.9947 13.6717 30
      vertex 74.9947 13.6717 3.8
    endloop
  endfacet
  facet normal -0.866025 -0.5 0
    outer loop
      vertex 74.9947 13.6717 30
      vertex 76.0922 11.7707 3.8
      vertex 76.0922 11.7707 30
    endloop
  endfacet
  facet normal -0.743146 -0.66913 0
    outer loop
      vertex 74.9947 13.6717 3.8
      vertex 73.5259 15.303 30
      vertex 73.5259 15.303 3.8
    endloop
  endfacet
  facet normal -0.743146 -0.66913 0
    outer loop
      vertex 73.5259 15.303 30
      vertex 74.9947 13.6717 3.8
      vertex 74.9947 13.6717 30
    endloop
  endfacet
  facet normal -0.587785 -0.809017 0
    outer loop
      vertex 71.75 16.5933 3.8
      vertex 73.5259 15.303 30
      vertex 71.75 16.5933 30
    endloop
  endfacet
  facet normal -0.587785 -0.809017 -0
    outer loop
      vertex 73.5259 15.303 30
      vertex 71.75 16.5933 3.8
      vertex 73.5259 15.303 3.8
    endloop
  endfacet
  facet normal -0.207912 -0.978148 0
    outer loop
      vertex 67.5975 17.9425 3.8
      vertex 69.7447 17.4861 30
      vertex 67.5975 17.9425 30
    endloop
  endfacet
  facet normal -0.207912 -0.978148 -0
    outer loop
      vertex 69.7447 17.4861 30
      vertex 67.5975 17.9425 3.8
      vertex 69.7447 17.4861 3.8
    endloop
  endfacet
  facet normal 0.994522 0.104528 0
    outer loop
      vertex 56.2295 5.31693 30
      vertex 56 7.5 3.8
      vertex 56 7.5 30
    endloop
  endfacet
  facet normal 0.994522 0.104528 0
    outer loop
      vertex 56 7.5 3.8
      vertex 56.2295 5.31693 30
      vertex 56.2295 5.31693 3.8
    endloop
  endfacet
  facet normal 0.866025 -0.5 0
    outer loop
      vertex 56.9078 11.7707 30
      vertex 58.0053 13.6717 3.8
      vertex 58.0053 13.6717 30
    endloop
  endfacet
  facet normal 0.866025 -0.5 0
    outer loop
      vertex 58.0053 13.6717 3.8
      vertex 56.9078 11.7707 30
      vertex 56.9078 11.7707 3.8
    endloop
  endfacet
  facet normal 0.587785 -0.809017 0
    outer loop
      vertex 59.4741 15.303 3.8
      vertex 61.25 16.5933 30
      vertex 59.4741 15.303 30
    endloop
  endfacet
  facet normal 0.587785 -0.809017 0
    outer loop
      vertex 61.25 16.5933 30
      vertex 59.4741 15.303 3.8
      vertex 61.25 16.5933 3.8
    endloop
  endfacet
  facet normal 0.207912 -0.978148 0
    outer loop
      vertex 63.2553 17.4861 3.8
      vertex 65.4025 17.9425 30
      vertex 63.2553 17.4861 30
    endloop
  endfacet
  facet normal 0.207912 -0.978148 0
    outer loop
      vertex 65.4025 17.9425 30
      vertex 63.2553 17.4861 3.8
      vertex 65.4025 17.9425 3.8
    endloop
  endfacet
  facet normal 0.743145 -0.669131 0
    outer loop
      vertex 58.0053 13.6717 30
      vertex 59.4741 15.303 3.8
      vertex 59.4741 15.303 30
    endloop
  endfacet
  facet normal 0.743145 -0.669131 0
    outer loop
      vertex 59.4741 15.303 3.8
      vertex 58.0053 13.6717 30
      vertex 58.0053 13.6717 3.8
    endloop
  endfacet
  facet normal -0.994522 -0.104527 0
    outer loop
      vertex 77 7.5 3.8
      vertex 76.7706 9.68307 30
      vertex 76.7706 9.68307 3.8
    endloop
  endfacet
  facet normal -0.994522 -0.104527 0
    outer loop
      vertex 76.7706 9.68307 30
      vertex 77 7.5 3.8
      vertex 77 7.5 30
    endloop
  endfacet
  facet normal -0.866025 0.5 0
    outer loop
      vertex 74.9947 1.32825 3.8
      vertex 76.0922 3.22927 30
      vertex 76.0922 3.22927 3.8
    endloop
  endfacet
  facet normal -0.866025 0.5 0
    outer loop
      vertex 76.0922 3.22927 30
      vertex 74.9947 1.32825 3.8
      vertex 74.9947 1.32825 30
    endloop
  endfacet
  facet normal 0.951057 0.309017 0
    outer loop
      vertex 56.9078 3.22927 30
      vertex 56.2295 5.31693 3.8
      vertex 56.2295 5.31693 30
    endloop
  endfacet
  facet normal 0.951057 0.309017 0
    outer loop
      vertex 56.2295 5.31693 3.8
      vertex 56.9078 3.22927 30
      vertex 56.9078 3.22927 3.8
    endloop
  endfacet
  facet normal 0.994522 -0.104529 0
    outer loop
      vertex 56 7.5 30
      vertex 56.2295 9.68307 3.8
      vertex 56.2295 9.68307 30
    endloop
  endfacet
  facet normal 0.994522 -0.104529 0
    outer loop
      vertex 56.2295 9.68307 3.8
      vertex 56 7.5 30
      vertex 56 7.5 3.8
    endloop
  endfacet
  facet normal -0.743146 0.669129 0
    outer loop
      vertex 73.7987 0 3.8
      vertex 74.9947 1.32825 30
      vertex 74.9947 1.32825 3.8
    endloop
  endfacet
  facet normal -0.743146 0.669129 0
    outer loop
      vertex 74.9947 1.32825 30
      vertex 73.7987 0 3.8
      vertex 73.7987 0 30
    endloop
  endfacet
  facet normal -0.951056 0.30902 0
    outer loop
      vertex 76.0922 3.22927 3.8
      vertex 76.7706 5.31693 30
      vertex 76.7706 5.31693 3.8
    endloop
  endfacet
  facet normal -0.951056 0.30902 0
    outer loop
      vertex 76.7706 5.31693 30
      vertex 76.0922 3.22927 3.8
      vertex 76.0922 3.22927 30
    endloop
  endfacet
  facet normal 0.866025 0.5 0
    outer loop
      vertex 58.0053 1.32825 30
      vertex 56.9078 3.22927 3.8
      vertex 56.9078 3.22927 30
    endloop
  endfacet
  facet normal 0.866025 0.5 0
    outer loop
      vertex 56.9078 3.22927 3.8
      vertex 58.0053 1.32825 30
      vertex 58.0053 1.32825 3.8
    endloop
  endfacet
  facet normal -0.866025 -0.5 0
    outer loop
      vertex 26.5 57.25 25
      vertex 22.0255 65 30
      vertex 22.0255 65 25
    endloop
  endfacet
  facet normal -0.866025 -0.5 0
    outer loop
      vertex 22.0255 65 30
      vertex 26.5 57.25 25
      vertex 26.5 57.25 30
    endloop
  endfacet
  facet normal 0.866025 0.5 0
    outer loop
      vertex 8.875 47.0742 30
      vertex 3 57.25 25
      vertex 3 57.25 30
    endloop
  endfacet
  facet normal 0.866025 0.5 0
    outer loop
      vertex 3 57.25 25
      vertex 8.875 47.0742 30
      vertex 8.875 47.0742 25
    endloop
  endfacet
  facet normal 0 1 -0
    outer loop
      vertex 20.625 47.0742 25
      vertex 8.875 47.0742 30
      vertex 20.625 47.0742 30
    endloop
  endfacet
  facet normal 0 1 0
    outer loop
      vertex 8.875 47.0742 30
      vertex 20.625 47.0742 25
      vertex 8.875 47.0742 25
    endloop
  endfacet
  facet normal 0.866025 -0.5 0
    outer loop
      vertex 3 57.25 30
      vertex 7.47446 65 25
      vertex 7.47446 65 30
    endloop
  endfacet
  facet normal 0.866025 -0.5 0
    outer loop
      vertex 7.47446 65 25
      vertex 3 57.25 30
      vertex 3 57.25 25
    endloop
  endfacet
  facet normal 0 0 1
    outer loop
      vertex 22.0255 65 25
      vertex 20.625 47.0742 25
      vertex 26.5 57.25 25
    endloop
  endfacet
  facet normal 0 0 1
    outer loop
      vertex 22.0255 65 25
      vertex 8.875 47.0742 25
      vertex 20.625 47.0742 25
    endloop
  endfacet
  facet normal -0 0 1
    outer loop
      vertex 7.47446 65 25
      vertex 8.875 47.0742 25
      vertex 22.0255 65 25
    endloop
  endfacet
  facet normal 0 0 1
    outer loop
      vertex 8.875 47.0742 25
      vertex 7.47446 65 25
      vertex 3 57.25 25
    endloop
  endfacet
  facet normal -0.866025 0.5 0
    outer loop
      vertex 20.625 47.0742 25
      vertex 26.5 57.25 30
      vertex 26.5 57.25 25
    endloop
  endfacet
  facet normal -0.866025 0.5 0
    outer loop
      vertex 26.5 57.25 30
      vertex 20.625 47.0742 25
      vertex 20.625 47.0742 30
    endloop
  endfacet
  facet normal -0.866025 -0.5 0
    outer loop
      vertex 51.75 57.25 25
      vertex 47.2755 65 30
      vertex 47.2755 65 25
    endloop
  endfacet
  facet normal -0.866025 -0.5 0
    outer loop
      vertex 47.2755 65 30
      vertex 51.75 57.25 25
      vertex 51.75 57.25 30
    endloop
  endfacet
  facet normal 0.866025 0.5 0
    outer loop
      vertex 34.125 47.0742 30
      vertex 28.25 57.25 25
      vertex 28.25 57.25 30
    endloop
  endfacet
  facet normal 0.866025 0.5 0
    outer loop
      vertex 28.25 57.25 25
      vertex 34.125 47.0742 30
      vertex 34.125 47.0742 25
    endloop
  endfacet
  facet normal 0 1 -0
    outer loop
      vertex 45.875 47.0742 25
      vertex 34.125 47.0742 30
      vertex 45.875 47.0742 30
    endloop
  endfacet
  facet normal 0 1 0
    outer loop
      vertex 34.125 47.0742 30
      vertex 45.875 47.0742 25
      vertex 34.125 47.0742 25
    endloop
  endfacet
  facet normal 0.866025 -0.5 0
    outer loop
      vertex 28.25 57.25 30
      vertex 32.7245 65 25
      vertex 32.7245 65 30
    endloop
  endfacet
  facet normal 0.866025 -0.5 0
    outer loop
      vertex 32.7245 65 25
      vertex 28.25 57.25 30
      vertex 28.25 57.25 25
    endloop
  endfacet
  facet normal 0 0 1
    outer loop
      vertex 47.2755 65 25
      vertex 45.875 47.0742 25
      vertex 51.75 57.25 25
    endloop
  endfacet
  facet normal 0 0 1
    outer loop
      vertex 47.2755 65 25
      vertex 34.125 47.0742 25
      vertex 45.875 47.0742 25
    endloop
  endfacet
  facet normal -0 0 1
    outer loop
      vertex 32.7245 65 25
      vertex 34.125 47.0742 25
      vertex 47.2755 65 25
    endloop
  endfacet
  facet normal 0 0 1
    outer loop
      vertex 34.125 47.0742 25
      vertex 32.7245 65 25
      vertex 28.25 57.25 25
    endloop
  endfacet
  facet normal -0.866025 0.5 0
    outer loop
      vertex 45.875 47.0742 25
      vertex 51.75 57.25 30
      vertex 51.75 57.25 25
    endloop
  endfacet
  facet normal -0.866025 0.5 0
    outer loop
      vertex 51.75 57.25 30
      vertex 45.875 47.0742 25
      vertex 45.875 47.0742 30
    endloop
  endfacet
  facet normal -0.866025 -0.5 0
    outer loop
      vertex 77 57.25 25
      vertex 72.5255 65 30
      vertex 72.5255 65 25
    endloop
  endfacet
  facet normal -0.866025 -0.5 0
    outer loop
      vertex 72.5255 65 30
      vertex 77 57.25 25
      vertex 77 57.25 30
    endloop
  endfacet
  facet normal 0.866025 0.5 0
    outer loop
      vertex 59.375 47.0742 30
      vertex 53.5 57.25 25
      vertex 53.5 57.25 30
    endloop
  endfacet
  facet normal 0.866025 0.5 0
    outer loop
      vertex 53.5 57.25 25
      vertex 59.375 47.0742 30
      vertex 59.375 47.0742 25
    endloop
  endfacet
  facet normal 0 1 -0
    outer loop
      vertex 71.125 47.0742 25
      vertex 59.375 47.0742 30
      vertex 71.125 47.0742 30
    endloop
  endfacet
  facet normal 0 1 0
    outer loop
      vertex 59.375 47.0742 30
      vertex 71.125 47.0742 25
      vertex 59.375 47.0742 25
    endloop
  endfacet
  facet normal 0.866025 -0.5 0
    outer loop
      vertex 53.5 57.25 30
      vertex 57.9745 65 25
      vertex 57.9745 65 30
    endloop
  endfacet
  facet normal 0.866025 -0.5 0
    outer loop
      vertex 57.9745 65 25
      vertex 53.5 57.25 30
      vertex 53.5 57.25 25
    endloop
  endfacet
  facet normal 0 0 1
    outer loop
      vertex 72.5255 65 25
      vertex 71.125 47.0742 25
      vertex 77 57.25 25
    endloop
  endfacet
  facet normal 0 0 1
    outer loop
      vertex 72.5255 65 25
      vertex 59.375 47.0742 25
      vertex 71.125 47.0742 25
    endloop
  endfacet
  facet normal -0 0 1
    outer loop
      vertex 57.9745 65 25
      vertex 59.375 47.0742 25
      vertex 72.5255 65 25
    endloop
  endfacet
  facet normal 0 0 1
    outer loop
      vertex 59.375 47.0742 25
      vertex 57.9745 65 25
      vertex 53.5 57.25 25
    endloop
  endfacet
  facet normal -0.866025 0.5 0
    outer loop
      vertex 71.125 47.0742 25
      vertex 77 57.25 30
      vertex 77 57.25 25
    endloop
  endfacet
  facet normal -0.866025 0.5 0
    outer loop
      vertex 77 57.25 30
      vertex 71.125 47.0742 25
      vertex 71.125 47.0742 30
    endloop
  endfacet
  facet normal -0 0 1
    outer loop
      vertex 18.6037 38.3745 12
      vertex 24.7104 32.4604 12
      vertex 18.7 38.4708 12
    endloop
  endfacet
  facet normal 0 0 1
    outer loop
      vertex 18.5747 26.5753 12
      vertex 24.7104 32.4604 12
      vertex 18.6037 38.3745 12
    endloop
  endfacet
  facet normal 0 0 1
    outer loop
      vertex 24.7104 32.4604 12
      vertex 18.5747 26.5753 12
      vertex 18.7 26.45 12
    endloop
  endfacet
  facet normal 0 0 1
    outer loop
      vertex 16.1965 41.4921 12
      vertex 18.6037 38.3745 12
      vertex 17.8891 39.6122 12
    endloop
  endfacet
  facet normal 0 0 1
    outer loop
      vertex 14.15 42.9789 12
      vertex 18.6037 38.3745 12
      vertex 16.1965 41.4921 12
    endloop
  endfacet
  facet normal 0 0 1
    outer loop
      vertex 11.8391 44.0078 12
      vertex 18.6037 38.3745 12
      vertex 14.15 42.9789 12
    endloop
  endfacet
  facet normal 0 0 1
    outer loop
      vertex 18.5747 26.5753 12
      vertex 16.1965 23.5079 12
      vertex 17.8891 25.3878 12
    endloop
  endfacet
  facet normal 0 0 1
    outer loop
      vertex 18.6037 38.3745 12
      vertex 11.8391 44.0078 12
      vertex 18.5747 26.5753 12
    endloop
  endfacet
  facet normal 0 0 1
    outer loop
      vertex 18.5747 26.5753 12
      vertex 14.15 22.0211 12
      vertex 16.1965 23.5079 12
    endloop
  endfacet
  facet normal 0 0 1
    outer loop
      vertex 11.8391 20.9922 12
      vertex 18.5747 26.5753 12
      vertex 11.8391 44.0078 12
    endloop
  endfacet
  facet normal 0 0 1
    outer loop
      vertex 18.5747 26.5753 12
      vertex 11.8391 20.9922 12
      vertex 14.15 22.0211 12
    endloop
  endfacet
  facet normal 0 0 1
    outer loop
      vertex 9.36479 44.5337 12
      vertex 11.8391 20.9922 12
      vertex 11.8391 44.0078 12
    endloop
  endfacet
  facet normal 0 0 1
    outer loop
      vertex 9.36479 44.5337 12
      vertex 9.36479 20.4663 12
      vertex 11.8391 20.9922 12
    endloop
  endfacet
  facet normal -0 0 1
    outer loop
      vertex 6.83521 44.5337 12
      vertex 9.36479 20.4663 12
      vertex 9.36479 44.5337 12
    endloop
  endfacet
  facet normal 0 0 1
    outer loop
      vertex 6.83521 44.5337 12
      vertex 6.83521 20.4663 12
      vertex 9.36479 20.4663 12
    endloop
  endfacet
  facet normal -0 0 1
    outer loop
      vertex 4.36089 44.0078 12
      vertex 6.83521 20.4663 12
      vertex 6.83521 44.5337 12
    endloop
  endfacet
  facet normal 0 0 1
    outer loop
      vertex 4.36089 44.0078 12
      vertex 4.36089 20.9922 12
      vertex 6.83521 20.4663 12
    endloop
  endfacet
  facet normal -0 0 1
    outer loop
      vertex 2.05 42.9789 12
      vertex 4.36089 20.9922 12
      vertex 4.36089 44.0078 12
    endloop
  endfacet
  facet normal 0 0 1
    outer loop
      vertex 2.05 42.9789 12
      vertex 2.05 22.0211 12
      vertex 4.36089 20.9922 12
    endloop
  endfacet
  facet normal 0 0 1
    outer loop
      vertex 0 41.4881 12
      vertex 2.05 42.9789 12
      vertex 0.00351906 41.4921 12
    endloop
  endfacet
  facet normal 0 0 1
    outer loop
      vertex 2.05 42.9789 12
      vertex 0 41.4881 12
      vertex 2.05 22.0211 12
    endloop
  endfacet
  facet normal -0 0 1
    outer loop
      vertex 0 23.5119 12
      vertex 2.05 22.0211 12
      vertex 0 41.4881 12
    endloop
  endfacet
  facet normal 0 0 1
    outer loop
      vertex 2.05 22.0211 12
      vertex 0 23.5119 12
      vertex 0.00351906 23.5079 12
    endloop
  endfacet
  facet normal -0.587785 -0.809017 0
    outer loop
      vertex 14.15 42.9789 12
      vertex 16.1965 41.4921 30
      vertex 14.15 42.9789 30
    endloop
  endfacet
  facet normal -0.587785 -0.809017 -0
    outer loop
      vertex 16.1965 41.4921 30
      vertex 14.15 42.9789 12
      vertex 16.1965 41.4921 12
    endloop
  endfacet
  facet normal 0.207911 0.978148 -0
    outer loop
      vertex 6.83521 20.4663 12
      vertex 4.36089 20.9922 30
      vertex 6.83521 20.4663 30
    endloop
  endfacet
  facet normal 0.207911 0.978148 0
    outer loop
      vertex 4.36089 20.9922 30
      vertex 6.83521 20.4663 12
      vertex 4.36089 20.9922 12
    endloop
  endfacet
  facet normal 0.406737 -0.913545 0
    outer loop
      vertex 2.05 42.9789 12
      vertex 4.36089 44.0078 30
      vertex 2.05 42.9789 30
    endloop
  endfacet
  facet normal 0.406737 -0.913545 0
    outer loop
      vertex 4.36089 44.0078 30
      vertex 2.05 42.9789 12
      vertex 4.36089 44.0078 12
    endloop
  endfacet
  facet normal -0.743145 0.66913 0
    outer loop
      vertex 16.1965 23.5079 12
      vertex 17.8891 25.3878 30
      vertex 17.8891 25.3878 12
    endloop
  endfacet
  facet normal -0.743145 0.66913 0
    outer loop
      vertex 17.8891 25.3878 30
      vertex 16.1965 23.5079 12
      vertex 16.1965 23.5079 30
    endloop
  endfacet
  facet normal -0.866026 -0.5 0
    outer loop
      vertex 18.6037 38.3745 12
      vertex 17.8891 39.6122 30
      vertex 17.8891 39.6122 12
    endloop
  endfacet
  facet normal -0.866026 -0.5 0
    outer loop
      vertex 17.8891 39.6122 30
      vertex 18.6037 38.3745 12
      vertex 18.6037 38.3745 30
    endloop
  endfacet
  facet normal -0.743144 -0.669131 0
    outer loop
      vertex 17.8891 39.6122 12
      vertex 16.1965 41.4921 30
      vertex 16.1965 41.4921 12
    endloop
  endfacet
  facet normal -0.743144 -0.669131 0
    outer loop
      vertex 16.1965 41.4921 30
      vertex 17.8891 39.6122 12
      vertex 17.8891 39.6122 30
    endloop
  endfacet
  facet normal -0.406737 -0.913545 0
    outer loop
      vertex 11.8391 44.0078 12
      vertex 14.15 42.9789 30
      vertex 11.8391 44.0078 30
    endloop
  endfacet
  facet normal -0.406737 -0.913545 -0
    outer loop
      vertex 14.15 42.9789 30
      vertex 11.8391 44.0078 12
      vertex 14.15 42.9789 12
    endloop
  endfacet
  facet normal 0 -1 0
    outer loop
      vertex 6.83521 44.5337 12
      vertex 9.36479 44.5337 30
      vertex 6.83521 44.5337 30
    endloop
  endfacet
  facet normal 0 -1 -0
    outer loop
      vertex 9.36479 44.5337 30
      vertex 6.83521 44.5337 12
      vertex 9.36479 44.5337 12
    endloop
  endfacet
  facet normal -0.207912 -0.978148 0
    outer loop
      vertex 9.36479 44.5337 12
      vertex 11.8391 44.0078 30
      vertex 9.36479 44.5337 30
    endloop
  endfacet
  facet normal -0.207912 -0.978148 -0
    outer loop
      vertex 11.8391 44.0078 30
      vertex 9.36479 44.5337 12
      vertex 11.8391 44.0078 12
    endloop
  endfacet
  facet normal 0.587785 -0.809017 0
    outer loop
      vertex 0.00351906 41.4921 12
      vertex 2.05 42.9789 30
      vertex 0.00351906 41.4921 30
    endloop
  endfacet
  facet normal 0.587785 -0.809017 0
    outer loop
      vertex 2.05 42.9789 30
      vertex 0.00351906 41.4921 12
      vertex 2.05 42.9789 12
    endloop
  endfacet
  facet normal 0.207912 -0.978147 0
    outer loop
      vertex 4.36089 44.0078 12
      vertex 6.83521 44.5337 30
      vertex 4.36089 44.0078 30
    endloop
  endfacet
  facet normal 0.207912 -0.978147 0
    outer loop
      vertex 6.83521 44.5337 30
      vertex 4.36089 44.0078 12
      vertex 6.83521 44.5337 12
    endloop
  endfacet
  facet normal 0.742969 -0.669325 0
    outer loop
      vertex 0 41.4881 30
      vertex 0.00351906 41.4921 12
      vertex 0.00351906 41.4921 30
    endloop
  endfacet
  facet normal 0.742969 -0.669325 0
    outer loop
      vertex 0.00351906 41.4921 12
      vertex 0 41.4881 30
      vertex 0 41.4881 12
    endloop
  endfacet
  facet normal -0.207911 0.978148 0
    outer loop
      vertex 11.8391 20.9922 12
      vertex 9.36479 20.4663 30
      vertex 11.8391 20.9922 30
    endloop
  endfacet
  facet normal -0.207911 0.978148 0
    outer loop
      vertex 9.36479 20.4663 30
      vertex 11.8391 20.9922 12
      vertex 9.36479 20.4663 12
    endloop
  endfacet
  facet normal -0.866026 0.499999 0
    outer loop
      vertex 17.8891 25.3878 12
      vertex 18.5747 26.5753 30
      vertex 18.5747 26.5753 12
    endloop
  endfacet
  facet normal -0.866026 0.499999 0
    outer loop
      vertex 18.5747 26.5753 30
      vertex 17.8891 25.3878 12
      vertex 17.8891 25.3878 30
    endloop
  endfacet
  facet normal -0.406736 0.913546 0
    outer loop
      vertex 14.15 22.0211 12
      vertex 11.8391 20.9922 30
      vertex 14.15 22.0211 30
    endloop
  endfacet
  facet normal -0.406736 0.913546 0
    outer loop
      vertex 11.8391 20.9922 30
      vertex 14.15 22.0211 12
      vertex 11.8391 20.9922 12
    endloop
  endfacet
  facet normal -0.587785 0.809017 0
    outer loop
      vertex 16.1965 23.5079 12
      vertex 14.15 22.0211 30
      vertex 16.1965 23.5079 30
    endloop
  endfacet
  facet normal -0.587785 0.809017 0
    outer loop
      vertex 14.15 22.0211 30
      vertex 16.1965 23.5079 12
      vertex 14.15 22.0211 12
    endloop
  endfacet
  facet normal 0 1 -0
    outer loop
      vertex 9.36479 20.4663 12
      vertex 6.83521 20.4663 30
      vertex 9.36479 20.4663 30
    endloop
  endfacet
  facet normal 0 1 0
    outer loop
      vertex 6.83521 20.4663 30
      vertex 9.36479 20.4663 12
      vertex 6.83521 20.4663 12
    endloop
  endfacet
  facet normal 0.587785 0.809017 -0
    outer loop
      vertex 2.05 22.0211 12
      vertex 0.00351906 23.5079 30
      vertex 2.05 22.0211 30
    endloop
  endfacet
  facet normal 0.587785 0.809017 0
    outer loop
      vertex 0.00351906 23.5079 30
      vertex 2.05 22.0211 12
      vertex 0.00351906 23.5079 12
    endloop
  endfacet
  facet normal 0.406736 0.913546 -0
    outer loop
      vertex 4.36089 20.9922 12
      vertex 2.05 22.0211 30
      vertex 4.36089 20.9922 30
    endloop
  endfacet
  facet normal 0.406736 0.913546 0
    outer loop
      vertex 2.05 22.0211 30
      vertex 4.36089 20.9922 12
      vertex 2.05 22.0211 12
    endloop
  endfacet
  facet normal 0.743294 0.668965 0
    outer loop
      vertex 0.00351906 23.5079 30
      vertex 0 23.5119 12
      vertex 0 23.5119 30
    endloop
  endfacet
  facet normal 0.743294 0.668965 0
    outer loop
      vertex 0 23.5119 12
      vertex 0.00351906 23.5079 30
      vertex 0.00351906 23.5079 12
    endloop
  endfacet
  facet normal -0.707107 -0.707107 0
    outer loop
      vertex 24.7104 32.4604 12
      vertex 18.7 38.4708 30
      vertex 18.7 38.4708 12
    endloop
  endfacet
  facet normal -0.707107 -0.707107 0
    outer loop
      vertex 18.7 38.4708 30
      vertex 24.7104 32.4604 12
      vertex 24.7104 32.4604 30
    endloop
  endfacet
  facet normal 0.707101 0.707112 -0
    outer loop
      vertex 18.7 26.45 12
      vertex 18.5747 26.5753 30
      vertex 18.7 26.45 30
    endloop
  endfacet
  facet normal 0.707101 0.707112 0
    outer loop
      vertex 18.5747 26.5753 30
      vertex 18.7 26.45 12
      vertex 18.5747 26.5753 12
    endloop
  endfacet
  facet normal -0.707107 0.707107 0
    outer loop
      vertex 18.7 26.45 12
      vertex 24.7104 32.4604 30
      vertex 24.7104 32.4604 12
    endloop
  endfacet
  facet normal -0.707107 0.707107 0
    outer loop
      vertex 24.7104 32.4604 30
      vertex 18.7 26.45 12
      vertex 18.7 26.45 30
    endloop
  endfacet
  facet normal 0.7071 -0.707114 0
    outer loop
      vertex 18.6037 38.3745 12
      vertex 18.7 38.4708 30
      vertex 18.6037 38.3745 30
    endloop
  endfacet
  facet normal 0.7071 -0.707114 0
    outer loop
      vertex 18.7 38.4708 30
      vertex 18.6037 38.3745 12
      vertex 18.7 38.4708 12
    endloop
  endfacet
  facet normal 1 -0 0
    outer loop
      vertex 59.5 23.25 30
      vertex 59.5 41.75 7
      vertex 59.5 41.75 30
    endloop
  endfacet
  facet normal 1 0 0
    outer loop
      vertex 59.5 41.75 7
      vertex 59.5 23.25 30
      vertex 59.5 23.25 7
    endloop
  endfacet
  facet normal -1 0 0
    outer loop
      vertex 78 23.25 7
      vertex 78 25.25 30
      vertex 78 25.25 7
    endloop
  endfacet
  facet normal -1 -0 0
    outer loop
      vertex 78 25.25 30
      vertex 78 23.25 7
      vertex 78 23.25 30
    endloop
  endfacet
  facet normal -1 0 0
    outer loop
      vertex 78 39.75 7
      vertex 78 41.75 30
      vertex 78 41.75 7
    endloop
  endfacet
  facet normal -1 -0 0
    outer loop
      vertex 78 41.75 30
      vertex 78 39.75 7
      vertex 78 39.75 30
    endloop
  endfacet
  facet normal 0 0 1
    outer loop
      vertex 78 41.75 7
      vertex 71.5 39.75 7
      vertex 78 39.75 7
    endloop
  endfacet
  facet normal 0 0 1
    outer loop
      vertex 71.5 39.75 7
      vertex 59.5 41.75 7
      vertex 71.5 25.25 7
    endloop
  endfacet
  facet normal -0 0 1
    outer loop
      vertex 59.5 41.75 7
      vertex 71.5 39.75 7
      vertex 78 41.75 7
    endloop
  endfacet
  facet normal -0 0 1
    outer loop
      vertex 71.5 25.25 7
      vertex 78 23.25 7
      vertex 78 25.25 7
    endloop
  endfacet
  facet normal 0 0 1
    outer loop
      vertex 71.5 25.25 7
      vertex 59.5 23.25 7
      vertex 78 23.25 7
    endloop
  endfacet
  facet normal 0 0 1
    outer loop
      vertex 59.5 23.25 7
      vertex 71.5 25.25 7
      vertex 59.5 41.75 7
    endloop
  endfacet
  facet normal 0 1 -0
    outer loop
      vertex 78 23.25 7
      vertex 59.5 23.25 30
      vertex 78 23.25 30
    endloop
  endfacet
  facet normal 0 1 0
    outer loop
      vertex 59.5 23.25 30
      vertex 78 23.25 7
      vertex 59.5 23.25 7
    endloop
  endfacet
  facet normal 0 -1 0
    outer loop
      vertex 59.5 41.75 7
      vertex 78 41.75 30
      vertex 59.5 41.75 30
    endloop
  endfacet
  facet normal 0 -1 -0
    outer loop
      vertex 78 41.75 30
      vertex 59.5 41.75 7
      vertex 78 41.75 7
    endloop
  endfacet
  facet normal 1 -0 0
    outer loop
      vertex 71.5 25.25 7
      vertex 71.5 39.75 0
      vertex 71.5 39.75 7
    endloop
  endfacet
  facet normal 1 0 0
    outer loop
      vertex 71.5 39.75 0
      vertex 71.5 25.25 7
      vertex 71.5 25.25 0
    endloop
  endfacet
  facet normal 0 -1 0
    outer loop
      vertex 71.5 39.75 7
      vertex 71.5 39.75 0
      vertex 78 39.75 7
    endloop
  endfacet
  facet normal 0 -1 0
    outer loop
      vertex 78 39.75 7
      vertex 80 39.75 30
      vertex 78 39.75 30
    endloop
  endfacet
  facet normal 0 -1 0
    outer loop
      vertex 78 39.75 7
      vertex 80 39.75 0
      vertex 80 39.75 30
    endloop
  endfacet
  facet normal 0 -1 0
    outer loop
      vertex 80 39.75 0
      vertex 78 39.75 7
      vertex 71.5 39.75 0
    endloop
  endfacet
  facet normal 0 1 0
    outer loop
      vertex 80 25.25 30
      vertex 78 25.25 7
      vertex 78 25.25 30
    endloop
  endfacet
  facet normal 0 1 -0
    outer loop
      vertex 80 25.25 0
      vertex 78 25.25 7
      vertex 80 25.25 30
    endloop
  endfacet
  facet normal 0 1 0
    outer loop
      vertex 71.5 25.25 0
      vertex 78 25.25 7
      vertex 80 25.25 0
    endloop
  endfacet
  facet normal 0 1 0
    outer loop
      vertex 78 25.25 7
      vertex 71.5 25.25 0
      vertex 71.5 25.25 7
    endloop
  endfacet
  facet normal -0.809018 -0.587784 0
    outer loop
      vertex 46.7476 36.2095 25.8
      vertex 45.6131 37.771 30
      vertex 45.6131 37.771 25.8
    endloop
  endfacet
  facet normal -0.809018 -0.587784 0
    outer loop
      vertex 45.6131 37.771 30
      vertex 46.7476 36.2095 25.8
      vertex 46.7476 36.2095 30
    endloop
  endfacet
  facet normal -0.992115 -0.125333 0
    outer loop
      vertex 47.7 32.5 25.8
      vertex 47.4581 34.4149 30
      vertex 47.4581 34.4149 25.8
    endloop
  endfacet
  facet normal -0.992115 -0.125333 0
    outer loop
      vertex 47.4581 34.4149 30
      vertex 47.7 32.5 25.8
      vertex 47.7 32.5 30
    endloop
  endfacet
  facet normal 0.968583 0.248689 0
    outer loop
      vertex 32.8407 29.6654 30
      vertex 32.3607 31.5349 25.8
      vertex 32.3607 31.5349 30
    endloop
  endfacet
  facet normal 0.968583 0.248689 0
    outer loop
      vertex 32.3607 31.5349 25.8
      vertex 32.8407 29.6654 30
      vertex 32.8407 29.6654 25.8
    endloop
  endfacet
  facet normal -0.637424 -0.770514 0
    outer loop
      vertex 44.1259 39.0013 25.8
      vertex 45.6131 37.771 30
      vertex 44.1259 39.0013 30
    endloop
  endfacet
  facet normal -0.637424 -0.770514 -0
    outer loop
      vertex 45.6131 37.771 30
      vertex 44.1259 39.0013 25.8
      vertex 45.6131 37.771 25.8
    endloop
  endfacet
  facet normal -0.187381 -0.982287 0
    outer loop
      vertex 40.4835 40.1848 25.8
      vertex 42.3794 39.8231 30
      vertex 40.4835 40.1848 30
    endloop
  endfacet
  facet normal -0.187381 -0.982287 -0
    outer loop
      vertex 42.3794 39.8231 30
      vertex 40.4835 40.1848 25.8
      vertex 42.3794 39.8231 25.8
    endloop
  endfacet
  facet normal -0.42578 -0.904827 0
    outer loop
      vertex 42.3794 39.8231 25.8
      vertex 44.1259 39.0013 30
      vertex 42.3794 39.8231 30
    endloop
  endfacet
  facet normal -0.42578 -0.904827 -0
    outer loop
      vertex 44.1259 39.0013 30
      vertex 42.3794 39.8231 25.8
      vertex 44.1259 39.0013 25.8
    endloop
  endfacet
  facet normal 0.535826 -0.844329 0
    outer loop
      vertex 35.0918 38.433 25.8
      vertex 36.7215 39.4672 30
      vertex 35.0918 38.433 30
    endloop
  endfacet
  facet normal 0.535826 -0.844329 0
    outer loop
      vertex 36.7215 39.4672 30
      vertex 35.0918 38.433 25.8
      vertex 36.7215 39.4672 25.8
    endloop
  endfacet
  facet normal 0.728969 -0.684547 0
    outer loop
      vertex 33.7706 37.0259 30
      vertex 35.0918 38.433 25.8
      vertex 35.0918 38.433 30
    endloop
  endfacet
  facet normal 0.728969 -0.684547 0
    outer loop
      vertex 35.0918 38.433 25.8
      vertex 33.7706 37.0259 30
      vertex 33.7706 37.0259 25.8
    endloop
  endfacet
  facet normal -0.42578 0.904827 0
    outer loop
      vertex 44.1259 25.9987 25.8
      vertex 42.3794 25.1769 30
      vertex 44.1259 25.9987 30
    endloop
  endfacet
  facet normal -0.42578 0.904827 0
    outer loop
      vertex 42.3794 25.1769 30
      vertex 44.1259 25.9987 25.8
      vertex 42.3794 25.1769 25.8
    endloop
  endfacet
  facet normal -0.929776 -0.368126 0
    outer loop
      vertex 47.4581 34.4149 25.8
      vertex 46.7476 36.2095 30
      vertex 46.7476 36.2095 25.8
    endloop
  endfacet
  facet normal -0.929776 -0.368126 0
    outer loop
      vertex 46.7476 36.2095 30
      vertex 47.4581 34.4149 25.8
      vertex 47.4581 34.4149 30
    endloop
  endfacet
  facet normal 0.062792 -0.998027 0
    outer loop
      vertex 38.5572 40.0636 25.8
      vertex 40.4835 40.1848 30
      vertex 38.5572 40.0636 30
    endloop
  endfacet
  facet normal 0.062792 -0.998027 0
    outer loop
      vertex 40.4835 40.1848 30
      vertex 38.5572 40.0636 25.8
      vertex 40.4835 40.1848 25.8
    endloop
  endfacet
  facet normal 1 -0 0
    outer loop
      vertex 32.3607 31.5349 30
      vertex 32.3607 33.4651 25.8
      vertex 32.3607 33.4651 30
    endloop
  endfacet
  facet normal 1 0 0
    outer loop
      vertex 32.3607 33.4651 25.8
      vertex 32.3607 31.5349 30
      vertex 32.3607 31.5349 25.8
    endloop
  endfacet
  facet normal 0.876307 -0.481753 0
    outer loop
      vertex 32.8407 35.3346 30
      vertex 33.7706 37.0259 25.8
      vertex 33.7706 37.0259 30
    endloop
  endfacet
  facet normal 0.876307 -0.481753 0
    outer loop
      vertex 33.7706 37.0259 25.8
      vertex 32.8407 35.3346 30
      vertex 32.8407 35.3346 25.8
    endloop
  endfacet
  facet normal 0.309017 -0.951056 0
    outer loop
      vertex 36.7215 39.4672 25.8
      vertex 38.5572 40.0636 30
      vertex 36.7215 39.4672 30
    endloop
  endfacet
  facet normal 0.309017 -0.951056 0
    outer loop
      vertex 38.5572 40.0636 30
      vertex 36.7215 39.4672 25.8
      vertex 38.5572 40.0636 25.8
    endloop
  endfacet
  facet normal 0.535826 0.844328 -0
    outer loop
      vertex 36.7215 25.5328 25.8
      vertex 35.0918 26.567 30
      vertex 36.7215 25.5328 30
    endloop
  endfacet
  facet normal 0.535826 0.844328 0
    outer loop
      vertex 35.0918 26.567 30
      vertex 36.7215 25.5328 25.8
      vertex 35.0918 26.567 25.8
    endloop
  endfacet
  facet normal 0.876307 0.481754 0
    outer loop
      vertex 33.7706 27.9741 30
      vertex 32.8407 29.6654 25.8
      vertex 32.8407 29.6654 30
    endloop
  endfacet
  facet normal 0.876307 0.481754 0
    outer loop
      vertex 32.8407 29.6654 25.8
      vertex 33.7706 27.9741 30
      vertex 33.7706 27.9741 25.8
    endloop
  endfacet
  facet normal -0.809018 0.587784 0
    outer loop
      vertex 45.6131 27.229 25.8
      vertex 46.7476 28.7905 30
      vertex 46.7476 28.7905 25.8
    endloop
  endfacet
  facet normal -0.809018 0.587784 0
    outer loop
      vertex 46.7476 28.7905 30
      vertex 45.6131 27.229 25.8
      vertex 45.6131 27.229 30
    endloop
  endfacet
  facet normal 0.968583 -0.24869 0
    outer loop
      vertex 32.3607 33.4651 30
      vertex 32.8407 35.3346 25.8
      vertex 32.8407 35.3346 30
    endloop
  endfacet
  facet normal 0.968583 -0.24869 0
    outer loop
      vertex 32.8407 35.3346 25.8
      vertex 32.3607 33.4651 30
      vertex 32.3607 33.4651 25.8
    endloop
  endfacet
  facet normal -0.992115 0.125333 0
    outer loop
      vertex 47.4581 30.5851 25.8
      vertex 47.7 32.5 30
      vertex 47.7 32.5 25.8
    endloop
  endfacet
  facet normal -0.992115 0.125333 0
    outer loop
      vertex 47.7 32.5 30
      vertex 47.4581 30.5851 25.8
      vertex 47.4581 30.5851 30
    endloop
  endfacet
  facet normal 0 0 1
    outer loop
      vertex 47.4581 34.4149 25.8
      vertex 47.4581 30.5851 25.8
      vertex 47.7 32.5 25.8
    endloop
  endfacet
  facet normal 0 0 1
    outer loop
      vertex 46.7476 36.2095 25.8
      vertex 47.4581 30.5851 25.8
      vertex 47.4581 34.4149 25.8
    endloop
  endfacet
  facet normal 0 0 1
    outer loop
      vertex 46.7476 36.2095 25.8
      vertex 46.7476 28.7905 25.8
      vertex 47.4581 30.5851 25.8
    endloop
  endfacet
  facet normal 0 0 1
    outer loop
      vertex 45.6131 37.771 25.8
      vertex 46.7476 28.7905 25.8
      vertex 46.7476 36.2095 25.8
    endloop
  endfacet
  facet normal 0 0 1
    outer loop
      vertex 45.6131 37.771 25.8
      vertex 45.6131 27.229 25.8
      vertex 46.7476 28.7905 25.8
    endloop
  endfacet
  facet normal 0 0 1
    outer loop
      vertex 44.1259 39.0013 25.8
      vertex 45.6131 27.229 25.8
      vertex 45.6131 37.771 25.8
    endloop
  endfacet
  facet normal 0 0 1
    outer loop
      vertex 44.1259 39.0013 25.8
      vertex 44.1259 25.9987 25.8
      vertex 45.6131 27.229 25.8
    endloop
  endfacet
  facet normal 0 0 1
    outer loop
      vertex 42.3794 39.8231 25.8
      vertex 44.1259 25.9987 25.8
      vertex 44.1259 39.0013 25.8
    endloop
  endfacet
  facet normal 0 0 1
    outer loop
      vertex 42.3794 39.8231 25.8
      vertex 42.3794 25.1769 25.8
      vertex 44.1259 25.9987 25.8
    endloop
  endfacet
  facet normal 0 0 1
    outer loop
      vertex 40.4835 40.1848 25.8
      vertex 42.3794 25.1769 25.8
      vertex 42.3794 39.8231 25.8
    endloop
  endfacet
  facet normal 0 0 1
    outer loop
      vertex 40.4835 40.1848 25.8
      vertex 40.4835 24.8152 25.8
      vertex 42.3794 25.1769 25.8
    endloop
  endfacet
  facet normal -0 0 1
    outer loop
      vertex 38.5572 40.0636 25.8
      vertex 40.4835 24.8152 25.8
      vertex 40.4835 40.1848 25.8
    endloop
  endfacet
  facet normal 0 0 1
    outer loop
      vertex 38.5572 40.0636 25.8
      vertex 38.5572 24.9364 25.8
      vertex 40.4835 24.8152 25.8
    endloop
  endfacet
  facet normal -0 0 1
    outer loop
      vertex 36.7215 39.4672 25.8
      vertex 38.5572 24.9364 25.8
      vertex 38.5572 40.0636 25.8
    endloop
  endfacet
  facet normal 0 0 1
    outer loop
      vertex 36.7215 39.4672 25.8
      vertex 36.7215 25.5328 25.8
      vertex 38.5572 24.9364 25.8
    endloop
  endfacet
  facet normal -0 0 1
    outer loop
      vertex 35.0918 38.433 25.8
      vertex 36.7215 25.5328 25.8
      vertex 36.7215 39.4672 25.8
    endloop
  endfacet
  facet normal 0 0 1
    outer loop
      vertex 35.0918 38.433 25.8
      vertex 35.0918 26.567 25.8
      vertex 36.7215 25.5328 25.8
    endloop
  endfacet
  facet normal -0 0 1
    outer loop
      vertex 33.7706 37.0259 25.8
      vertex 35.0918 26.567 25.8
      vertex 35.0918 38.433 25.8
    endloop
  endfacet
  facet normal 0 0 1
    outer loop
      vertex 33.7706 37.0259 25.8
      vertex 33.7706 27.9741 25.8
      vertex 35.0918 26.567 25.8
    endloop
  endfacet
  facet normal -0 0 1
    outer loop
      vertex 32.8407 35.3346 25.8
      vertex 33.7706 27.9741 25.8
      vertex 33.7706 37.0259 25.8
    endloop
  endfacet
  facet normal 0 0 1
    outer loop
      vertex 32.8407 35.3346 25.8
      vertex 32.8407 29.6654 25.8
      vertex 33.7706 27.9741 25.8
    endloop
  endfacet
  facet normal -0 0 1
    outer loop
      vertex 32.3607 33.4651 25.8
      vertex 32.8407 29.6654 25.8
      vertex 32.8407 35.3346 25.8
    endloop
  endfacet
  facet normal 0 0 1
    outer loop
      vertex 32.8407 29.6654 25.8
      vertex 32.3607 33.4651 25.8
      vertex 32.3607 31.5349 25.8
    endloop
  endfacet
  facet normal 0.728969 0.684547 0
    outer loop
      vertex 35.0918 26.567 30
      vertex 33.7706 27.9741 25.8
      vertex 33.7706 27.9741 30
    endloop
  endfacet
  facet normal 0.728969 0.684547 0
    outer loop
      vertex 33.7706 27.9741 25.8
      vertex 35.0918 26.567 30
      vertex 35.0918 26.567 25.8
    endloop
  endfacet
  facet normal -0.637424 0.770514 0
    outer loop
      vertex 45.6131 27.229 25.8
      vertex 44.1259 25.9987 30
      vertex 45.6131 27.229 30
    endloop
  endfacet
  facet normal -0.637424 0.770514 0
    outer loop
      vertex 44.1259 25.9987 30
      vertex 45.6131 27.229 25.8
      vertex 44.1259 25.9987 25.8
    endloop
  endfacet
  facet normal -0.929776 0.368127 0
    outer loop
      vertex 46.7476 28.7905 25.8
      vertex 47.4581 30.5851 30
      vertex 47.4581 30.5851 25.8
    endloop
  endfacet
  facet normal -0.929776 0.368127 0
    outer loop
      vertex 47.4581 30.5851 30
      vertex 46.7476 28.7905 25.8
      vertex 46.7476 28.7905 30
    endloop
  endfacet
  facet normal -0.187381 0.982287 0
    outer loop
      vertex 42.3794 25.1769 25.8
      vertex 40.4835 24.8152 30
      vertex 42.3794 25.1769 30
    endloop
  endfacet
  facet normal -0.187381 0.982287 0
    outer loop
      vertex 40.4835 24.8152 30
      vertex 42.3794 25.1769 25.8
      vertex 40.4835 24.8152 25.8
    endloop
  endfacet
  facet normal 0.062791 0.998027 -0
    outer loop
      vertex 40.4835 24.8152 25.8
      vertex 38.5572 24.9364 30
      vertex 40.4835 24.8152 30
    endloop
  endfacet
  facet normal 0.062791 0.998027 0
    outer loop
      vertex 38.5572 24.9364 30
      vertex 40.4835 24.8152 25.8
      vertex 38.5572 24.9364 25.8
    endloop
  endfacet
  facet normal 0.309017 0.951056 -0
    outer loop
      vertex 38.5572 24.9364 25.8
      vertex 36.7215 25.5328 30
      vertex 38.5572 24.9364 30
    endloop
  endfacet
  facet normal 0.309017 0.951056 0
    outer loop
      vertex 36.7215 25.5328 30
      vertex 38.5572 24.9364 25.8
      vertex 36.7215 25.5328 25.8
    endloop
  endfacet
endsolid OpenSCAD_Model
