solid OpenSCAD_Model
  facet normal 0 0 1
    outer loop
      vertex 36.5 89.9961 20
      vertex 3 87 20
      vertex 36.5 87 20
    endloop
  endfacet
  facet normal 0 0 1
    outer loop
      vertex 0 88 20
      vertex 3 48 20
      vertex 3 87 20
    endloop
  endfacet
  facet normal 0 0 1
    outer loop
      vertex 3 48 20
      vertex 0 88 20
      vertex 3 45 20
    endloop
  endfacet
  facet normal -0 0 1
    outer loop
      vertex 1.62524 89.9646 20
      vertex 3 87 20
      vertex 1.87442 89.9961 20
    endloop
  endfacet
  facet normal -0 0 1
    outer loop
      vertex 1.87442 89.9961 20
      vertex 3 87 20
      vertex 36.5 89.9961 20
    endloop
  endfacet
  facet normal 0 0 1
    outer loop
      vertex 36.5 89.9961 20
      vertex 39.5 89.9961 20
      vertex 39.5 90 20
    endloop
  endfacet
  facet normal 0 0 1
    outer loop
      vertex 39.5 89.9961 20
      vertex 36.5 87 20
      vertex 39.5 87 20
    endloop
  endfacet
  facet normal 0 0 1
    outer loop
      vertex 36.5 89.9961 20
      vertex 39.5 90 20
      vertex 36.5 90 20
    endloop
  endfacet
  facet normal -0 0 1
    outer loop
      vertex 39.5 48 20
      vertex 42.5 45 20
      vertex 42.5 48 20
    endloop
  endfacet
  facet normal 0 0 1
    outer loop
      vertex 39.5 89.9961 20
      vertex 36.5 89.9961 20
      vertex 36.5 87 20
    endloop
  endfacet
  facet normal 0 0 1
    outer loop
      vertex 39.5 87 20
      vertex 36.5 87 20
      vertex 39.5 48 20
    endloop
  endfacet
  facet normal 0 0 1
    outer loop
      vertex 36.5 48 20
      vertex 39.5 48 20
      vertex 36.5 87 20
    endloop
  endfacet
  facet normal -0 0 1
    outer loop
      vertex 36.5 48 20
      vertex 42.5 45 20
      vertex 39.5 48 20
    endloop
  endfacet
  facet normal 0 0 1
    outer loop
      vertex 3 45 20
      vertex 36.5 48 20
      vertex 3 48 20
    endloop
  endfacet
  facet normal 0 0 1
    outer loop
      vertex 36.5 48 20
      vertex 3 45 20
      vertex 42.5 45 20
    endloop
  endfacet
  facet normal -0 0 1
    outer loop
      vertex 3 3 20
      vertex 55 0.00394726 20
      vertex 55 3 20
    endloop
  endfacet
  facet normal 0 0 1
    outer loop
      vertex 3 3 20
      vertex 1.87442 0.00394726 20
      vertex 55 0.00394726 20
    endloop
  endfacet
  facet normal 0 0 1
    outer loop
      vertex 0 2 20
      vertex 3 45 20
      vertex 0 88 20
    endloop
  endfacet
  facet normal -0 0 1
    outer loop
      vertex 1.38197 89.9021 20
      vertex 3 87 20
      vertex 1.62524 89.9646 20
    endloop
  endfacet
  facet normal 0 0 1
    outer loop
      vertex 3 45 20
      vertex 0 2 20
      vertex 3 3 20
    endloop
  endfacet
  facet normal -0 0 1
    outer loop
      vertex 1.14844 89.8097 20
      vertex 3 87 20
      vertex 1.38197 89.9021 20
    endloop
  endfacet
  facet normal 0 -0 1
    outer loop
      vertex 0.0157709 1.74933 20
      vertex 3 3 20
      vertex 0 2 20
    endloop
  endfacet
  facet normal -0 0 1
    outer loop
      vertex 0.928347 89.6887 20
      vertex 3 87 20
      vertex 1.14844 89.8097 20
    endloop
  endfacet
  facet normal 0 0 1
    outer loop
      vertex 3 3 20
      vertex 1.62524 0.0354261 20
      vertex 1.87442 0.00394726 20
    endloop
  endfacet
  facet normal -0 0 1
    outer loop
      vertex 0.725153 89.541 20
      vertex 3 87 20
      vertex 0.928347 89.6887 20
    endloop
  endfacet
  facet normal 0 0 1
    outer loop
      vertex 3 3 20
      vertex 1.38197 0.097887 20
      vertex 1.62524 0.0354261 20
    endloop
  endfacet
  facet normal -0 0 1
    outer loop
      vertex 0.542063 89.3691 20
      vertex 3 87 20
      vertex 0.725153 89.541 20
    endloop
  endfacet
  facet normal 0 0 1
    outer loop
      vertex 3 3 20
      vertex 1.14844 0.190347 20
      vertex 1.38197 0.097887 20
    endloop
  endfacet
  facet normal -0 0 1
    outer loop
      vertex 0.381967 89.1756 20
      vertex 3 87 20
      vertex 0.542063 89.3691 20
    endloop
  endfacet
  facet normal 0 0 1
    outer loop
      vertex 3 3 20
      vertex 0.928347 0.311345 20
      vertex 1.14844 0.190347 20
    endloop
  endfacet
  facet normal -0 0 1
    outer loop
      vertex 0.247387 88.9635 20
      vertex 3 87 20
      vertex 0.381967 89.1756 20
    endloop
  endfacet
  facet normal 0 0 1
    outer loop
      vertex 3 3 20
      vertex 0.725153 0.458974 20
      vertex 0.928347 0.311345 20
    endloop
  endfacet
  facet normal -0 0 1
    outer loop
      vertex 0.140448 88.7363 20
      vertex 3 87 20
      vertex 0.247387 88.9635 20
    endloop
  endfacet
  facet normal 0 0 1
    outer loop
      vertex 3 3 20
      vertex 0.542063 0.630906 20
      vertex 0.725153 0.458974 20
    endloop
  endfacet
  facet normal -0 0 1
    outer loop
      vertex 0.0628338 88.4974 20
      vertex 3 87 20
      vertex 0.140448 88.7363 20
    endloop
  endfacet
  facet normal 0 0 1
    outer loop
      vertex 3 3 20
      vertex 0.381967 0.82443 20
      vertex 0.542063 0.630906 20
    endloop
  endfacet
  facet normal -0 0 1
    outer loop
      vertex 0.0157709 88.2507 20
      vertex 3 87 20
      vertex 0.0628338 88.4974 20
    endloop
  endfacet
  facet normal 0 0 1
    outer loop
      vertex 3 3 20
      vertex 0.247387 1.03649 20
      vertex 0.381967 0.82443 20
    endloop
  endfacet
  facet normal 0 0 1
    outer loop
      vertex 3 87 20
      vertex 0.0157709 88.2507 20
      vertex 0 88 20
    endloop
  endfacet
  facet normal 0 0 1
    outer loop
      vertex 3 3 20
      vertex 0.140448 1.26375 20
      vertex 0.247387 1.03649 20
    endloop
  endfacet
  facet normal 0 0 1
    outer loop
      vertex 3 3 20
      vertex 0.0628338 1.50262 20
      vertex 0.140448 1.26375 20
    endloop
  endfacet
  facet normal 0 0 1
    outer loop
      vertex 3 3 20
      vertex 0.0157709 1.74933 20
      vertex 0.0628338 1.50262 20
    endloop
  endfacet
  facet normal -0 0 1
    outer loop
      vertex 64.5 54.5 20
      vertex 67.5 48 20
      vertex 67.5 57.5 20
    endloop
  endfacet
  facet normal 0 0 1
    outer loop
      vertex 67.5 48 20
      vertex 64.5 54.5 20
      vertex 67.5 45 20
    endloop
  endfacet
  facet normal 0 0 1
    outer loop
      vertex 64.5 35.5 20
      vertex 67.5 45 20
      vertex 64.5 54.5 20
    endloop
  endfacet
  facet normal 0 0 1
    outer loop
      vertex 67.5 57.5 20
      vertex 45.5 54.5 20
      vertex 64.5 54.5 20
    endloop
  endfacet
  facet normal 0 0 1
    outer loop
      vertex 42.5 48 20
      vertex 45.5 54.5 20
      vertex 42.5 57.5 20
    endloop
  endfacet
  facet normal -0 0 1
    outer loop
      vertex 42.5 57.5 20
      vertex 45.5 54.5 20
      vertex 67.5 57.5 20
    endloop
  endfacet
  facet normal -0 0 1
    outer loop
      vertex 39.5 89.9961 20
      vertex 70.5 87 20
      vertex 70.5 89.9961 20
    endloop
  endfacet
  facet normal 0 0 1
    outer loop
      vertex 70.5 87 20
      vertex 39.5 89.9961 20
      vertex 39.5 87 20
    endloop
  endfacet
  facet normal 0 0 1
    outer loop
      vertex 67.5 45 20
      vertex 64.5 35.5 20
      vertex 67.5 32.5 20
    endloop
  endfacet
  facet normal 0 0 1
    outer loop
      vertex 64.5 35.5 20
      vertex 58 32.5 20
      vertex 67.5 32.5 20
    endloop
  endfacet
  facet normal 0 0 1
    outer loop
      vertex 55 3 20
      vertex 58 3 20
      vertex 58 32.5 20
    endloop
  endfacet
  facet normal 0 0 1
    outer loop
      vertex 58 3 20
      vertex 55 3 20
      vertex 58 0.00394726 20
    endloop
  endfacet
  facet normal 0 0 1
    outer loop
      vertex 55 3 20
      vertex 58 32.5 20
      vertex 55 32.5 20
    endloop
  endfacet
  facet normal 0 0 1
    outer loop
      vertex 64.5 35.5 20
      vertex 55 32.5 20
      vertex 58 32.5 20
    endloop
  endfacet
  facet normal -0 0 1
    outer loop
      vertex 45.5 35.5 20
      vertex 55 32.5 20
      vertex 64.5 35.5 20
    endloop
  endfacet
  facet normal 0 0 1
    outer loop
      vertex 42.5 45 20
      vertex 45.5 54.5 20
      vertex 42.5 48 20
    endloop
  endfacet
  facet normal 0 0 1
    outer loop
      vertex 45.5 54.5 20
      vertex 42.5 45 20
      vertex 45.5 35.5 20
    endloop
  endfacet
  facet normal 0 0 1
    outer loop
      vertex 45.5 35.5 20
      vertex 42.5 32.5 20
      vertex 55 32.5 20
    endloop
  endfacet
  facet normal 0 0 1
    outer loop
      vertex 42.5 32.5 20
      vertex 45.5 35.5 20
      vertex 42.5 45 20
    endloop
  endfacet
  facet normal 0 0 1
    outer loop
      vertex 55 0.00394726 20
      vertex 58 0.00394726 20
      vertex 55 3 20
    endloop
  endfacet
  facet normal 0 0 1
    outer loop
      vertex 58 0.00394726 20
      vertex 55 0.00394726 20
      vertex 58 0 20
    endloop
  endfacet
  facet normal 0 0 1
    outer loop
      vertex 58 0 20
      vertex 55 0.00394726 20
      vertex 55 0 20
    endloop
  endfacet
  facet normal 0 0 1
    outer loop
      vertex 70.5 89.9961 20
      vertex 73.5 89.9961 20
      vertex 73.5 90 20
    endloop
  endfacet
  facet normal 0 0 1
    outer loop
      vertex 73.5 89.9961 20
      vertex 70.5 87 20
      vertex 73.5 87 20
    endloop
  endfacet
  facet normal 0 0 1
    outer loop
      vertex 70.5 89.9961 20
      vertex 73.5 90 20
      vertex 70.5 90 20
    endloop
  endfacet
  facet normal -0 0 1
    outer loop
      vertex 73.5 48 20
      vertex 107 45 20
      vertex 107 48 20
    endloop
  endfacet
  facet normal 0 0 1
    outer loop
      vertex 73.5 89.9961 20
      vertex 70.5 89.9961 20
      vertex 70.5 87 20
    endloop
  endfacet
  facet normal 0 0 1
    outer loop
      vertex 73.5 87 20
      vertex 70.5 87 20
      vertex 73.5 48 20
    endloop
  endfacet
  facet normal 0 0 1
    outer loop
      vertex 70.5 48 20
      vertex 73.5 48 20
      vertex 70.5 87 20
    endloop
  endfacet
  facet normal 0 0 1
    outer loop
      vertex 67.5 45 20
      vertex 73.5 48 20
      vertex 70.5 48 20
    endloop
  endfacet
  facet normal 0 0 1
    outer loop
      vertex 67.5 45 20
      vertex 70.5 48 20
      vertex 67.5 48 20
    endloop
  endfacet
  facet normal 0 0 1
    outer loop
      vertex 73.5 48 20
      vertex 67.5 45 20
      vertex 107 45 20
    endloop
  endfacet
  facet normal 0 0 1
    outer loop
      vertex 107 87 20
      vertex 110 88 20
      vertex 109.984 88.2507 20
    endloop
  endfacet
  facet normal 0 0 1
    outer loop
      vertex 110 88 20
      vertex 107 48 20
      vertex 110 2 20
    endloop
  endfacet
  facet normal 0 0 1
    outer loop
      vertex 107 87 20
      vertex 109.984 88.2507 20
      vertex 109.937 88.4974 20
    endloop
  endfacet
  facet normal -0 0 1
    outer loop
      vertex 107 45 20
      vertex 110 2 20
      vertex 107 48 20
    endloop
  endfacet
  facet normal 0 0 1
    outer loop
      vertex 107 87 20
      vertex 109.937 88.4974 20
      vertex 109.86 88.7363 20
    endloop
  endfacet
  facet normal -0 0 1
    outer loop
      vertex 107 3 20
      vertex 110 2 20
      vertex 107 45 20
    endloop
  endfacet
  facet normal 0 0 1
    outer loop
      vertex 107 87 20
      vertex 109.86 88.7363 20
      vertex 109.753 88.9635 20
    endloop
  endfacet
  facet normal 0 0 1
    outer loop
      vertex 110 2 20
      vertex 107 3 20
      vertex 109.984 1.74933 20
    endloop
  endfacet
  facet normal 0 0 1
    outer loop
      vertex 107 87 20
      vertex 109.753 88.9635 20
      vertex 109.618 89.1756 20
    endloop
  endfacet
  facet normal 0 0 1
    outer loop
      vertex 109.984 1.74933 20
      vertex 107 3 20
      vertex 109.937 1.50262 20
    endloop
  endfacet
  facet normal 0 0 1
    outer loop
      vertex 107 87 20
      vertex 109.618 89.1756 20
      vertex 109.458 89.3691 20
    endloop
  endfacet
  facet normal 0 0 1
    outer loop
      vertex 109.937 1.50262 20
      vertex 107 3 20
      vertex 109.86 1.26375 20
    endloop
  endfacet
  facet normal 0 0 1
    outer loop
      vertex 107 87 20
      vertex 109.458 89.3691 20
      vertex 109.275 89.541 20
    endloop
  endfacet
  facet normal 0 0 1
    outer loop
      vertex 109.86 1.26375 20
      vertex 107 3 20
      vertex 109.753 1.03649 20
    endloop
  endfacet
  facet normal 0 0 1
    outer loop
      vertex 107 87 20
      vertex 109.275 89.541 20
      vertex 109.072 89.6887 20
    endloop
  endfacet
  facet normal 0 0 1
    outer loop
      vertex 109.753 1.03649 20
      vertex 107 3 20
      vertex 109.618 0.82443 20
    endloop
  endfacet
  facet normal 0 0 1
    outer loop
      vertex 107 87 20
      vertex 109.072 89.6887 20
      vertex 108.852 89.8097 20
    endloop
  endfacet
  facet normal 0 0 1
    outer loop
      vertex 109.618 0.82443 20
      vertex 107 3 20
      vertex 109.458 0.630906 20
    endloop
  endfacet
  facet normal 0 0 1
    outer loop
      vertex 107 87 20
      vertex 108.852 89.8097 20
      vertex 108.618 89.9021 20
    endloop
  endfacet
  facet normal 0 0 1
    outer loop
      vertex 109.458 0.630906 20
      vertex 107 3 20
      vertex 109.275 0.458974 20
    endloop
  endfacet
  facet normal 0 0 1
    outer loop
      vertex 107 87 20
      vertex 108.618 89.9021 20
      vertex 108.375 89.9646 20
    endloop
  endfacet
  facet normal 0 0 1
    outer loop
      vertex 109.275 0.458974 20
      vertex 107 3 20
      vertex 109.072 0.311345 20
    endloop
  endfacet
  facet normal 0 0 1
    outer loop
      vertex 107 87 20
      vertex 108.375 89.9646 20
      vertex 108.126 89.9961 20
    endloop
  endfacet
  facet normal 0 0 1
    outer loop
      vertex 109.072 0.311345 20
      vertex 107 3 20
      vertex 108.852 0.190347 20
    endloop
  endfacet
  facet normal 0 0 1
    outer loop
      vertex 110 88 20
      vertex 107 87 20
      vertex 107 48 20
    endloop
  endfacet
  facet normal -0 0 1
    outer loop
      vertex 73.5 89.9961 20
      vertex 107 87 20
      vertex 108.126 89.9961 20
    endloop
  endfacet
  facet normal 0 0 1
    outer loop
      vertex 107 87 20
      vertex 73.5 89.9961 20
      vertex 73.5 87 20
    endloop
  endfacet
  facet normal 0 0 1
    outer loop
      vertex 108.852 0.190347 20
      vertex 107 3 20
      vertex 108.618 0.097887 20
    endloop
  endfacet
  facet normal 0 0 1
    outer loop
      vertex 108.618 0.097887 20
      vertex 107 3 20
      vertex 108.375 0.0354261 20
    endloop
  endfacet
  facet normal 0 0 1
    outer loop
      vertex 108.375 0.0354261 20
      vertex 107 3 20
      vertex 108.126 0.00394726 20
    endloop
  endfacet
  facet normal 0 0 1
    outer loop
      vertex 58 0.00394726 20
      vertex 107 3 20
      vertex 58 3 20
    endloop
  endfacet
  facet normal 0 0 1
    outer loop
      vertex 107 3 20
      vertex 58 0.00394726 20
      vertex 108.126 0.00394726 20
    endloop
  endfacet
  facet normal -0.684545 -0.728971 0
    outer loop
      vertex 0.542063 0.630906 0
      vertex 0.725153 0.458974 20
      vertex 0.542063 0.630906 20
    endloop
  endfacet
  facet normal -0.684545 -0.728971 -0
    outer loop
      vertex 0.725153 0.458974 20
      vertex 0.542063 0.630906 0
      vertex 0.725153 0.458974 0
    endloop
  endfacet
  facet normal -0.770515 -0.637422 0
    outer loop
      vertex 0.542063 0.630906 0
      vertex 0.381967 0.82443 20
      vertex 0.381967 0.82443 0
    endloop
  endfacet
  facet normal -0.770515 -0.637422 0
    outer loop
      vertex 0.381967 0.82443 20
      vertex 0.542063 0.630906 0
      vertex 0.542063 0.630906 20
    endloop
  endfacet
  facet normal 0.588153 -0.80875 0
    outer loop
      vertex 109.072 0.311345 0
      vertex 109.275 0.458974 20
      vertex 109.072 0.311345 20
    endloop
  endfacet
  facet normal 0.588153 -0.80875 0
    outer loop
      vertex 109.275 0.458974 20
      vertex 109.072 0.311345 0
      vertex 109.275 0.458974 0
    endloop
  endfacet
  facet normal -0.481756 -0.876305 0
    outer loop
      vertex 0.928347 0.311345 0
      vertex 1.14844 0.190347 20
      vertex 0.928347 0.311345 20
    endloop
  endfacet
  facet normal -0.481756 -0.876305 -0
    outer loop
      vertex 1.14844 0.190347 20
      vertex 0.928347 0.311345 0
      vertex 1.14844 0.190347 0
    endloop
  endfacet
  facet normal -0.998027 -0.0627908 0
    outer loop
      vertex 0.0157709 1.74933 0
      vertex 0 2 20
      vertex 0 2 0
    endloop
  endfacet
  facet normal -0.998027 -0.0627908 0
    outer loop
      vertex 0 2 20
      vertex 0.0157709 1.74933 0
      vertex 0.0157709 1.74933 20
    endloop
  endfacet
  facet normal -1 0 0
    outer loop
      vertex 0 2 0
      vertex 0 88 20
      vertex 0 88 0
    endloop
  endfacet
  facet normal -1 -0 0
    outer loop
      vertex 0 88 20
      vertex 0 2 0
      vertex 0 2 20
    endloop
  endfacet
  facet normal 0.125506 0.992093 -0
    outer loop
      vertex 108.375 89.9646 0
      vertex 108.126 89.9961 20
      vertex 108.375 89.9646 20
    endloop
  endfacet
  facet normal 0.125506 0.992093 0
    outer loop
      vertex 108.126 89.9961 20
      vertex 108.375 89.9646 0
      vertex 108.126 89.9961 0
    endloop
  endfacet
  facet normal 0 1 -0
    outer loop
      vertex 108.126 89.9961 0
      vertex 73.5 89.9961 20
      vertex 108.126 89.9961 20
    endloop
  endfacet
  facet normal 0 1 0
    outer loop
      vertex 73.5 89.9961 20
      vertex 108.126 89.9961 0
      vertex 73.5 89.9961 0
    endloop
  endfacet
  facet normal 0 1 -0
    outer loop
      vertex 36.5 89.9961 0
      vertex 1.87442 89.9961 20
      vertex 36.5 89.9961 20
    endloop
  endfacet
  facet normal 0 1 0
    outer loop
      vertex 1.87442 89.9961 20
      vertex 36.5 89.9961 0
      vertex 1.87442 89.9961 0
    endloop
  endfacet
  facet normal 0 1 -0
    outer loop
      vertex 70.5 89.9961 0
      vertex 39.5 89.9961 20
      vertex 70.5 89.9961 20
    endloop
  endfacet
  facet normal 0 1 0
    outer loop
      vertex 39.5 89.9961 20
      vertex 70.5 89.9961 0
      vertex 39.5 89.9961 0
    endloop
  endfacet
  facet normal 0.770664 0.637242 0
    outer loop
      vertex 109.618 89.1756 20
      vertex 109.458 89.3691 0
      vertex 109.458 89.3691 20
    endloop
  endfacet
  facet normal 0.770664 0.637242 0
    outer loop
      vertex 109.458 89.3691 0
      vertex 109.618 89.1756 20
      vertex 109.618 89.1756 0
    endloop
  endfacet
  facet normal 0 -1 0
    outer loop
      vertex 58 0.00394726 0
      vertex 108.126 0.00394726 20
      vertex 58 0.00394726 20
    endloop
  endfacet
  facet normal 0 -1 -0
    outer loop
      vertex 108.126 0.00394726 20
      vertex 58 0.00394726 0
      vertex 108.126 0.00394726 0
    endloop
  endfacet
  facet normal 0 -1 0
    outer loop
      vertex 1.87442 0.00394726 0
      vertex 55 0.00394726 20
      vertex 1.87442 0.00394726 20
    endloop
  endfacet
  facet normal 0 -1 -0
    outer loop
      vertex 55 0.00394726 20
      vertex 1.87442 0.00394726 0
      vertex 55 0.00394726 0
    endloop
  endfacet
  facet normal -0.684477 0.729034 0
    outer loop
      vertex 0.725153 89.541 0
      vertex 0.542063 89.3691 20
      vertex 0.725153 89.541 20
    endloop
  endfacet
  facet normal -0.684477 0.729034 0
    outer loop
      vertex 0.542063 89.3691 20
      vertex 0.725153 89.541 0
      vertex 0.542063 89.3691 0
    endloop
  endfacet
  facet normal 0.997969 -0.0636993 0
    outer loop
      vertex 109.984 1.74933 20
      vertex 110 2 0
      vertex 110 2 20
    endloop
  endfacet
  facet normal 0.997969 -0.0636993 0
    outer loop
      vertex 110 2 0
      vertex 109.984 1.74933 20
      vertex 109.984 1.74933 0
    endloop
  endfacet
  facet normal 1 -0 0
    outer loop
      vertex 110 2 20
      vertex 110 88 0
      vertex 110 88 20
    endloop
  endfacet
  facet normal 1 0 0
    outer loop
      vertex 110 88 0
      vertex 110 2 20
      vertex 110 2 0
    endloop
  endfacet
  facet normal -0.998027 0.0627834 0
    outer loop
      vertex 0 88 0
      vertex 0.0157709 88.2507 20
      vertex 0.0157709 88.2507 0
    endloop
  endfacet
  facet normal -0.998027 0.0627834 0
    outer loop
      vertex 0.0157709 88.2507 20
      vertex 0 88 0
      vertex 0 88 20
    endloop
  endfacet
  facet normal 0.125423 -0.992103 0
    outer loop
      vertex 108.126 0.00394726 0
      vertex 108.375 0.0354261 20
      vertex 108.126 0.00394726 20
    endloop
  endfacet
  facet normal 0.125423 -0.992103 0
    outer loop
      vertex 108.375 0.0354261 20
      vertex 108.126 0.00394726 0
      vertex 108.375 0.0354261 0
    endloop
  endfacet
  facet normal 0.367481 -0.930031 0
    outer loop
      vertex 108.618 0.097887 0
      vertex 108.852 0.190347 20
      vertex 108.618 0.097887 20
    endloop
  endfacet
  facet normal 0.367481 -0.930031 0
    outer loop
      vertex 108.852 0.190347 20
      vertex 108.618 0.097887 0
      vertex 108.852 0.190347 0
    endloop
  endfacet
  facet normal -0.587785 -0.809017 0
    outer loop
      vertex 0.725153 0.458974 0
      vertex 0.928347 0.311345 20
      vertex 0.725153 0.458974 20
    endloop
  endfacet
  facet normal -0.587785 -0.809017 -0
    outer loop
      vertex 0.928347 0.311345 20
      vertex 0.725153 0.458974 0
      vertex 0.928347 0.311345 0
    endloop
  endfacet
  facet normal -0.844323 -0.535834 0
    outer loop
      vertex 0.381967 0.82443 0
      vertex 0.247387 1.03649 20
      vertex 0.247387 1.03649 0
    endloop
  endfacet
  facet normal -0.844323 -0.535834 0
    outer loop
      vertex 0.247387 1.03649 20
      vertex 0.381967 0.82443 0
      vertex 0.381967 0.82443 20
    endloop
  endfacet
  facet normal -0.904829 -0.425775 0
    outer loop
      vertex 0.247387 1.03649 0
      vertex 0.140448 1.26375 20
      vertex 0.140448 1.26375 0
    endloop
  endfacet
  facet normal -0.904829 -0.425775 0
    outer loop
      vertex 0.140448 1.26375 20
      vertex 0.247387 1.03649 0
      vertex 0.247387 1.03649 20
    endloop
  endfacet
  facet normal -0.770476 0.637469 0
    outer loop
      vertex 0.381967 89.1756 0
      vertex 0.542063 89.3691 20
      vertex 0.542063 89.3691 0
    endloop
  endfacet
  facet normal -0.770476 0.637469 0
    outer loop
      vertex 0.542063 89.3691 20
      vertex 0.381967 89.1756 0
      vertex 0.381967 89.1756 20
    endloop
  endfacet
  facet normal -0.58797 0.808883 0
    outer loop
      vertex 0.928347 89.6887 0
      vertex 0.725153 89.541 20
      vertex 0.928347 89.6887 20
    endloop
  endfacet
  facet normal -0.58797 0.808883 0
    outer loop
      vertex 0.725153 89.541 20
      vertex 0.928347 89.6887 0
      vertex 0.725153 89.541 0
    endloop
  endfacet
  facet normal 0.684656 0.728866 -0
    outer loop
      vertex 109.458 89.3691 0
      vertex 109.275 89.541 20
      vertex 109.458 89.3691 20
    endloop
  endfacet
  facet normal 0.684656 0.728866 0
    outer loop
      vertex 109.275 89.541 20
      vertex 109.458 89.3691 0
      vertex 109.275 89.541 0
    endloop
  endfacet
  facet normal 0.951784 0.30677 0
    outer loop
      vertex 109.937 88.4974 20
      vertex 109.86 88.7363 0
      vertex 109.86 88.7363 20
    endloop
  endfacet
  facet normal 0.951784 0.30677 0
    outer loop
      vertex 109.86 88.7363 0
      vertex 109.937 88.4974 20
      vertex 109.937 88.4974 0
    endloop
  endfacet
  facet normal 0.770703 -0.637195 0
    outer loop
      vertex 109.458 0.630906 20
      vertex 109.618 0.82443 0
      vertex 109.618 0.82443 20
    endloop
  endfacet
  facet normal 0.770703 -0.637195 0
    outer loop
      vertex 109.618 0.82443 0
      vertex 109.458 0.630906 20
      vertex 109.458 0.630906 0
    endloop
  endfacet
  facet normal -0.844369 0.535762 0
    outer loop
      vertex 0.247387 88.9635 0
      vertex 0.381967 89.1756 20
      vertex 0.381967 89.1756 0
    endloop
  endfacet
  facet normal -0.844369 0.535762 0
    outer loop
      vertex 0.381967 89.1756 20
      vertex 0.247387 88.9635 0
      vertex 0.247387 88.9635 20
    endloop
  endfacet
  facet normal -0.951067 0.308984 0
    outer loop
      vertex 0.0628338 88.4974 0
      vertex 0.140448 88.7363 20
      vertex 0.140448 88.7363 0
    endloop
  endfacet
  facet normal -0.951067 0.308984 0
    outer loop
      vertex 0.140448 88.7363 20
      vertex 0.0628338 88.4974 0
      vertex 0.0628338 88.4974 20
    endloop
  endfacet
  facet normal -0.904786 0.425867 0
    outer loop
      vertex 0.140448 88.7363 0
      vertex 0.247387 88.9635 20
      vertex 0.247387 88.9635 0
    endloop
  endfacet
  facet normal -0.904786 0.425867 0
    outer loop
      vertex 0.247387 88.9635 20
      vertex 0.140448 88.7363 0
      vertex 0.140448 88.7363 20
    endloop
  endfacet
  facet normal -0.982286 0.18739 0
    outer loop
      vertex 0.0157709 88.2507 0
      vertex 0.0628338 88.4974 20
      vertex 0.0628338 88.4974 0
    endloop
  endfacet
  facet normal -0.982286 0.18739 0
    outer loop
      vertex 0.0628338 88.4974 20
      vertex 0.0157709 88.2507 0
      vertex 0.0157709 88.2507 20
    endloop
  endfacet
  facet normal -0.368121 -0.929778 0
    outer loop
      vertex 1.14844 0.190347 0
      vertex 1.38197 0.097887 20
      vertex 1.14844 0.190347 20
    endloop
  endfacet
  facet normal -0.368121 -0.929778 -0
    outer loop
      vertex 1.38197 0.097887 20
      vertex 1.14844 0.190347 0
      vertex 1.38197 0.097887 0
    endloop
  endfacet
  facet normal -0.248689 -0.968583 0
    outer loop
      vertex 1.38197 0.097887 0
      vertex 1.62524 0.0354261 20
      vertex 1.38197 0.097887 20
    endloop
  endfacet
  facet normal -0.248689 -0.968583 -0
    outer loop
      vertex 1.62524 0.0354261 20
      vertex 1.38197 0.097887 0
      vertex 1.62524 0.0354261 0
    endloop
  endfacet
  facet normal -0.125334 -0.992115 0
    outer loop
      vertex 1.62524 0.0354261 0
      vertex 1.87442 0.00394726 20
      vertex 1.62524 0.0354261 20
    endloop
  endfacet
  facet normal -0.125334 -0.992115 -0
    outer loop
      vertex 1.87442 0.00394726 20
      vertex 1.62524 0.0354261 0
      vertex 1.87442 0.00394726 0
    endloop
  endfacet
  facet normal 0.684724 -0.728803 0
    outer loop
      vertex 109.275 0.458974 0
      vertex 109.458 0.630906 20
      vertex 109.275 0.458974 20
    endloop
  endfacet
  facet normal 0.684724 -0.728803 0
    outer loop
      vertex 109.458 0.630906 20
      vertex 109.275 0.458974 0
      vertex 109.458 0.630906 0
    endloop
  endfacet
  facet normal -0.951056 -0.309019 0
    outer loop
      vertex 0.140448 1.26375 0
      vertex 0.0628338 1.50262 20
      vertex 0.0628338 1.50262 0
    endloop
  endfacet
  facet normal -0.951056 -0.309019 0
    outer loop
      vertex 0.0628338 1.50262 20
      vertex 0.140448 1.26375 0
      vertex 0.140448 1.26375 20
    endloop
  endfacet
  facet normal 0 0 -1
    outer loop
      vertex 58 0 0
      vertex 55 0 0
      vertex 58 0.00394726 0
    endloop
  endfacet
  facet normal 0 0 -1
    outer loop
      vertex 108.126 0.00394726 0
      vertex 110 2 0
      vertex 109.984 1.74933 0
    endloop
  endfacet
  facet normal 0 0 -1
    outer loop
      vertex 110 2 0
      vertex 64.5 54.5 0
      vertex 110 88 0
    endloop
  endfacet
  facet normal 0 0 -1
    outer loop
      vertex 108.126 0.00394726 0
      vertex 109.984 1.74933 0
      vertex 109.937 1.50262 0
    endloop
  endfacet
  facet normal 0 -0 -1
    outer loop
      vertex 73.5 89.9961 0
      vertex 110 88 0
      vertex 64.5 54.5 0
    endloop
  endfacet
  facet normal 0 0 -1
    outer loop
      vertex 108.126 0.00394726 0
      vertex 109.937 1.50262 0
      vertex 109.86 1.26375 0
    endloop
  endfacet
  facet normal -0 -0 -1
    outer loop
      vertex 108.126 89.9961 0
      vertex 110 88 0
      vertex 73.5 89.9961 0
    endloop
  endfacet
  facet normal 0 0 -1
    outer loop
      vertex 108.126 0.00394726 0
      vertex 109.86 1.26375 0
      vertex 109.753 1.03649 0
    endloop
  endfacet
  facet normal 0 0 -1
    outer loop
      vertex 110 88 0
      vertex 108.126 89.9961 0
      vertex 109.984 88.2507 0
    endloop
  endfacet
  facet normal 0 0 -1
    outer loop
      vertex 108.126 0.00394726 0
      vertex 109.753 1.03649 0
      vertex 109.618 0.82443 0
    endloop
  endfacet
  facet normal 0 0 -1
    outer loop
      vertex 109.937 88.4974 0
      vertex 108.126 89.9961 0
      vertex 109.86 88.7363 0
    endloop
  endfacet
  facet normal 0 0 -1
    outer loop
      vertex 108.126 0.00394726 0
      vertex 109.618 0.82443 0
      vertex 109.458 0.630906 0
    endloop
  endfacet
  facet normal 0 0 -1
    outer loop
      vertex 109.86 88.7363 0
      vertex 108.126 89.9961 0
      vertex 109.753 88.9635 0
    endloop
  endfacet
  facet normal 0 0 -1
    outer loop
      vertex 108.126 0.00394726 0
      vertex 109.458 0.630906 0
      vertex 109.275 0.458974 0
    endloop
  endfacet
  facet normal 0 0 -1
    outer loop
      vertex 109.753 88.9635 0
      vertex 108.126 89.9961 0
      vertex 109.618 89.1756 0
    endloop
  endfacet
  facet normal 0 0 -1
    outer loop
      vertex 108.126 0.00394726 0
      vertex 109.275 0.458974 0
      vertex 109.072 0.311345 0
    endloop
  endfacet
  facet normal 0 0 -1
    outer loop
      vertex 109.618 89.1756 0
      vertex 108.126 89.9961 0
      vertex 109.458 89.3691 0
    endloop
  endfacet
  facet normal 0 0 -1
    outer loop
      vertex 108.126 0.00394726 0
      vertex 109.072 0.311345 0
      vertex 108.852 0.190347 0
    endloop
  endfacet
  facet normal 0 0 -1
    outer loop
      vertex 109.458 89.3691 0
      vertex 108.126 89.9961 0
      vertex 109.275 89.541 0
    endloop
  endfacet
  facet normal 0 0 -1
    outer loop
      vertex 108.126 0.00394726 0
      vertex 108.852 0.190347 0
      vertex 108.618 0.097887 0
    endloop
  endfacet
  facet normal 0 0 -1
    outer loop
      vertex 109.275 89.541 0
      vertex 108.126 89.9961 0
      vertex 109.072 89.6887 0
    endloop
  endfacet
  facet normal 0 0 -1
    outer loop
      vertex 108.126 0.00394726 0
      vertex 108.618 0.097887 0
      vertex 108.375 0.0354261 0
    endloop
  endfacet
  facet normal 0 0 -1
    outer loop
      vertex 109.072 89.6887 0
      vertex 108.126 89.9961 0
      vertex 108.852 89.8097 0
    endloop
  endfacet
  facet normal -0 0 -1
    outer loop
      vertex 110 2 0
      vertex 108.126 0.00394726 0
      vertex 64.5 35.5 0
    endloop
  endfacet
  facet normal 0 0 -1
    outer loop
      vertex 108.852 89.8097 0
      vertex 108.126 89.9961 0
      vertex 108.618 89.9021 0
    endloop
  endfacet
  facet normal 0 0 -1
    outer loop
      vertex 108.618 89.9021 0
      vertex 108.126 89.9961 0
      vertex 108.375 89.9646 0
    endloop
  endfacet
  facet normal 0 0 -1
    outer loop
      vertex 73.5 89.9961 0
      vertex 70.5 89.9961 0
      vertex 73.5 90 0
    endloop
  endfacet
  facet normal 0 0 -1
    outer loop
      vertex 109.984 88.2507 0
      vertex 108.126 89.9961 0
      vertex 109.937 88.4974 0
    endloop
  endfacet
  facet normal 0 0 -1
    outer loop
      vertex 110 2 0
      vertex 64.5 35.5 0
      vertex 64.5 54.5 0
    endloop
  endfacet
  facet normal 0 0 -1
    outer loop
      vertex 58 0.00394726 0
      vertex 64.5 35.5 0
      vertex 108.126 0.00394726 0
    endloop
  endfacet
  facet normal 0 0 -1
    outer loop
      vertex 55 0.00394726 0
      vertex 58 0.00394726 0
      vertex 55 0 0
    endloop
  endfacet
  facet normal 0 0 -1
    outer loop
      vertex 58 0.00394726 0
      vertex 55 0.00394726 0
      vertex 64.5 35.5 0
    endloop
  endfacet
  facet normal 0 0 -1
    outer loop
      vertex 55 0.00394726 0
      vertex 45.5 35.5 0
      vertex 64.5 35.5 0
    endloop
  endfacet
  facet normal 0 0 -1
    outer loop
      vertex 0 88 0
      vertex 45.5 54.5 0
      vertex 45.5 35.5 0
    endloop
  endfacet
  facet normal 0 0 -1
    outer loop
      vertex 39.5 89.9961 0
      vertex 36.5 89.9961 0
      vertex 39.5 90 0
    endloop
  endfacet
  facet normal 0 0 -1
    outer loop
      vertex 45.5 54.5 0
      vertex 36.5 89.9961 0
      vertex 39.5 89.9961 0
    endloop
  endfacet
  facet normal 0 0 -1
    outer loop
      vertex 1.87442 0.00394726 0
      vertex 45.5 35.5 0
      vertex 55 0.00394726 0
    endloop
  endfacet
  facet normal 0 0 -1
    outer loop
      vertex 0 2 0
      vertex 45.5 35.5 0
      vertex 1.87442 0.00394726 0
    endloop
  endfacet
  facet normal 0 0 -1
    outer loop
      vertex 0 88 0
      vertex 45.5 35.5 0
      vertex 0 2 0
    endloop
  endfacet
  facet normal 0 0 -1
    outer loop
      vertex 0 2 0
      vertex 1.87442 0.00394726 0
      vertex 1.62524 0.0354261 0
    endloop
  endfacet
  facet normal 0 0 -1
    outer loop
      vertex 45.5 54.5 0
      vertex 0 88 0
      vertex 36.5 89.9961 0
    endloop
  endfacet
  facet normal 0 0 -1
    outer loop
      vertex 0 2 0
      vertex 1.62524 0.0354261 0
      vertex 1.38197 0.097887 0
    endloop
  endfacet
  facet normal -0 0 -1
    outer loop
      vertex 36.5 89.9961 0
      vertex 0 88 0
      vertex 1.87442 89.9961 0
    endloop
  endfacet
  facet normal 0 0 -1
    outer loop
      vertex 0 2 0
      vertex 1.38197 0.097887 0
      vertex 1.14844 0.190347 0
    endloop
  endfacet
  facet normal 0 0 -1
    outer loop
      vertex 1.87442 89.9961 0
      vertex 0 88 0
      vertex 1.62524 89.9646 0
    endloop
  endfacet
  facet normal 0 0 -1
    outer loop
      vertex 0 2 0
      vertex 1.14844 0.190347 0
      vertex 0.928347 0.311345 0
    endloop
  endfacet
  facet normal 0 0 -1
    outer loop
      vertex 1.62524 89.9646 0
      vertex 0 88 0
      vertex 1.38197 89.9021 0
    endloop
  endfacet
  facet normal 0 0 -1
    outer loop
      vertex 0 2 0
      vertex 0.928347 0.311345 0
      vertex 0.725153 0.458974 0
    endloop
  endfacet
  facet normal 0 0 -1
    outer loop
      vertex 1.38197 89.9021 0
      vertex 0 88 0
      vertex 1.14844 89.8097 0
    endloop
  endfacet
  facet normal 0 0 -1
    outer loop
      vertex 0 2 0
      vertex 0.725153 0.458974 0
      vertex 0.542063 0.630906 0
    endloop
  endfacet
  facet normal 0 0 -1
    outer loop
      vertex 1.14844 89.8097 0
      vertex 0 88 0
      vertex 0.928347 89.6887 0
    endloop
  endfacet
  facet normal 0 0 -1
    outer loop
      vertex 0 2 0
      vertex 0.542063 0.630906 0
      vertex 0.381967 0.82443 0
    endloop
  endfacet
  facet normal 0 0 -1
    outer loop
      vertex 0.928347 89.6887 0
      vertex 0 88 0
      vertex 0.725153 89.541 0
    endloop
  endfacet
  facet normal 0 0 -1
    outer loop
      vertex 0 2 0
      vertex 0.381967 0.82443 0
      vertex 0.247387 1.03649 0
    endloop
  endfacet
  facet normal 0 0 -1
    outer loop
      vertex 0.725153 89.541 0
      vertex 0 88 0
      vertex 0.542063 89.3691 0
    endloop
  endfacet
  facet normal 0 0 -1
    outer loop
      vertex 0 2 0
      vertex 0.247387 1.03649 0
      vertex 0.140448 1.26375 0
    endloop
  endfacet
  facet normal 0 0 -1
    outer loop
      vertex 0.542063 89.3691 0
      vertex 0 88 0
      vertex 0.381967 89.1756 0
    endloop
  endfacet
  facet normal 0 0 -1
    outer loop
      vertex 0 2 0
      vertex 0.140448 1.26375 0
      vertex 0.0628338 1.50262 0
    endloop
  endfacet
  facet normal 0 0 -1
    outer loop
      vertex 0.381967 89.1756 0
      vertex 0 88 0
      vertex 0.247387 88.9635 0
    endloop
  endfacet
  facet normal 0 0 -1
    outer loop
      vertex 0 2 0
      vertex 0.0628338 1.50262 0
      vertex 0.0157709 1.74933 0
    endloop
  endfacet
  facet normal 0 0 -1
    outer loop
      vertex 0.247387 88.9635 0
      vertex 0 88 0
      vertex 0.140448 88.7363 0
    endloop
  endfacet
  facet normal 0 0 -1
    outer loop
      vertex 0.140448 88.7363 0
      vertex 0 88 0
      vertex 0.0628338 88.4974 0
    endloop
  endfacet
  facet normal 0 0 -1
    outer loop
      vertex 0.0628338 88.4974 0
      vertex 0 88 0
      vertex 0.0157709 88.2507 0
    endloop
  endfacet
  facet normal -0 0 -1
    outer loop
      vertex 73.5 90 0
      vertex 70.5 89.9961 0
      vertex 70.5 90 0
    endloop
  endfacet
  facet normal -0 0 -1
    outer loop
      vertex 73.5 89.9961 0
      vertex 64.5 54.5 0
      vertex 70.5 89.9961 0
    endloop
  endfacet
  facet normal 0 0 -1
    outer loop
      vertex 45.5 54.5 0
      vertex 70.5 89.9961 0
      vertex 64.5 54.5 0
    endloop
  endfacet
  facet normal -0 0 -1
    outer loop
      vertex 70.5 89.9961 0
      vertex 45.5 54.5 0
      vertex 39.5 89.9961 0
    endloop
  endfacet
  facet normal -0 0 -1
    outer loop
      vertex 39.5 90 0
      vertex 36.5 89.9961 0
      vertex 36.5 90 0
    endloop
  endfacet
  facet normal -0.367914 0.92986 0
    outer loop
      vertex 1.38197 89.9021 0
      vertex 1.14844 89.8097 20
      vertex 1.38197 89.9021 20
    endloop
  endfacet
  facet normal -0.367914 0.92986 0
    outer loop
      vertex 1.14844 89.8097 20
      vertex 1.38197 89.9021 0
      vertex 1.14844 89.8097 0
    endloop
  endfacet
  facet normal 0.588337 0.808615 -0
    outer loop
      vertex 109.275 89.541 0
      vertex 109.072 89.6887 20
      vertex 109.275 89.541 20
    endloop
  endfacet
  facet normal 0.588337 0.808615 0
    outer loop
      vertex 109.072 89.6887 20
      vertex 109.275 89.541 0
      vertex 109.072 89.6887 0
    endloop
  endfacet
  facet normal 0.248948 -0.968517 0
    outer loop
      vertex 108.375 0.0354261 0
      vertex 108.618 0.097887 20
      vertex 108.375 0.0354261 20
    endloop
  endfacet
  facet normal 0.248948 -0.968517 0
    outer loop
      vertex 108.618 0.097887 20
      vertex 108.375 0.0354261 0
      vertex 108.618 0.097887 0
    endloop
  endfacet
  facet normal -0.982287 -0.187383 0
    outer loop
      vertex 0.0628338 1.50262 0
      vertex 0.0157709 1.74933 20
      vertex 0.0157709 1.74933 0
    endloop
  endfacet
  facet normal -0.982287 -0.187383 0
    outer loop
      vertex 0.0157709 1.74933 20
      vertex 0.0628338 1.50262 0
      vertex 0.0628338 1.50262 20
    endloop
  endfacet
  facet normal 0.249094 0.968479 -0
    outer loop
      vertex 108.618 89.9021 0
      vertex 108.375 89.9646 20
      vertex 108.618 89.9021 20
    endloop
  endfacet
  facet normal 0.249094 0.968479 0
    outer loop
      vertex 108.375 89.9646 20
      vertex 108.618 89.9021 0
      vertex 108.375 89.9646 0
    endloop
  endfacet
  facet normal 0.982332 0.187149 0
    outer loop
      vertex 109.984 88.2507 20
      vertex 109.937 88.4974 0
      vertex 109.937 88.4974 20
    endloop
  endfacet
  facet normal 0.982332 0.187149 0
    outer loop
      vertex 109.937 88.4974 0
      vertex 109.984 88.2507 20
      vertex 109.984 88.2507 0
    endloop
  endfacet
  facet normal 0.99797 0.0636917 0
    outer loop
      vertex 110 88 20
      vertex 109.984 88.2507 0
      vertex 109.984 88.2507 20
    endloop
  endfacet
  facet normal 0.99797 0.0636917 0
    outer loop
      vertex 109.984 88.2507 0
      vertex 110 88 20
      vertex 110 88 0
    endloop
  endfacet
  facet normal 0.904692 0.426065 0
    outer loop
      vertex 109.86 88.7363 20
      vertex 109.753 88.9635 0
      vertex 109.753 88.9635 20
    endloop
  endfacet
  facet normal 0.904692 0.426065 0
    outer loop
      vertex 109.753 88.9635 0
      vertex 109.86 88.7363 20
      vertex 109.86 88.7363 0
    endloop
  endfacet
  facet normal 0.843566 -0.537025 0
    outer loop
      vertex 109.618 0.82443 20
      vertex 109.753 1.03649 0
      vertex 109.753 1.03649 20
    endloop
  endfacet
  facet normal 0.843566 -0.537025 0
    outer loop
      vertex 109.753 1.03649 0
      vertex 109.618 0.82443 20
      vertex 109.618 0.82443 0
    endloop
  endfacet
  facet normal 0.982333 -0.187141 0
    outer loop
      vertex 109.937 1.50262 20
      vertex 109.984 1.74933 0
      vertex 109.984 1.74933 20
    endloop
  endfacet
  facet normal 0.982333 -0.187141 0
    outer loop
      vertex 109.984 1.74933 0
      vertex 109.937 1.50262 20
      vertex 109.937 1.50262 0
    endloop
  endfacet
  facet normal 0.951772 -0.306805 0
    outer loop
      vertex 109.86 1.26375 20
      vertex 109.937 1.50262 0
      vertex 109.937 1.50262 20
    endloop
  endfacet
  facet normal 0.951772 -0.306805 0
    outer loop
      vertex 109.937 1.50262 0
      vertex 109.86 1.26375 20
      vertex 109.86 1.26375 0
    endloop
  endfacet
  facet normal 0.904736 -0.425973 0
    outer loop
      vertex 109.753 1.03649 20
      vertex 109.86 1.26375 0
      vertex 109.86 1.26375 20
    endloop
  endfacet
  facet normal 0.904736 -0.425973 0
    outer loop
      vertex 109.86 1.26375 0
      vertex 109.753 1.03649 20
      vertex 109.753 1.03649 0
    endloop
  endfacet
  facet normal 0.481913 -0.876219 0
    outer loop
      vertex 108.852 0.190347 0
      vertex 109.072 0.311345 20
      vertex 108.852 0.190347 20
    endloop
  endfacet
  facet normal 0.481913 -0.876219 0
    outer loop
      vertex 109.072 0.311345 20
      vertex 108.852 0.190347 0
      vertex 109.072 0.311345 0
    endloop
  endfacet
  facet normal -0.481762 0.876302 0
    outer loop
      vertex 1.14844 89.8097 0
      vertex 0.928347 89.6887 20
      vertex 1.14844 89.8097 20
    endloop
  endfacet
  facet normal -0.481762 0.876302 0
    outer loop
      vertex 0.928347 89.6887 20
      vertex 1.14844 89.8097 0
      vertex 0.928347 89.6887 0
    endloop
  endfacet
  facet normal -0.248835 0.968546 0
    outer loop
      vertex 1.62524 89.9646 0
      vertex 1.38197 89.9021 20
      vertex 1.62524 89.9646 20
    endloop
  endfacet
  facet normal -0.248835 0.968546 0
    outer loop
      vertex 1.38197 89.9021 20
      vertex 1.62524 89.9646 0
      vertex 1.38197 89.9021 0
    endloop
  endfacet
  facet normal -0.125416 0.992104 0
    outer loop
      vertex 1.87442 89.9961 0
      vertex 1.62524 89.9646 20
      vertex 1.87442 89.9961 20
    endloop
  endfacet
  facet normal -0.125416 0.992104 0
    outer loop
      vertex 1.62524 89.9646 20
      vertex 1.87442 89.9961 0
      vertex 1.62524 89.9646 0
    endloop
  endfacet
  facet normal 0.367275 0.930112 -0
    outer loop
      vertex 108.852 89.8097 0
      vertex 108.618 89.9021 20
      vertex 108.852 89.8097 20
    endloop
  endfacet
  facet normal 0.367275 0.930112 0
    outer loop
      vertex 108.618 89.9021 20
      vertex 108.852 89.8097 0
      vertex 108.618 89.9021 0
    endloop
  endfacet
  facet normal 0.481919 0.876216 -0
    outer loop
      vertex 109.072 89.6887 0
      vertex 108.852 89.8097 20
      vertex 109.072 89.6887 20
    endloop
  endfacet
  facet normal 0.481919 0.876216 0
    outer loop
      vertex 108.852 89.8097 20
      vertex 109.072 89.6887 0
      vertex 108.852 89.8097 0
    endloop
  endfacet
  facet normal 0.843612 0.536953 0
    outer loop
      vertex 109.753 88.9635 20
      vertex 109.618 89.1756 0
      vertex 109.618 89.1756 20
    endloop
  endfacet
  facet normal 0.843612 0.536953 0
    outer loop
      vertex 109.618 89.1756 0
      vertex 109.753 88.9635 20
      vertex 109.753 88.9635 0
    endloop
  endfacet
  facet normal 1 -0 0
    outer loop
      vertex 3 3 20
      vertex 3 45 3
      vertex 3 45 20
    endloop
  endfacet
  facet normal 1 0 0
    outer loop
      vertex 3 45 3
      vertex 3 3 20
      vertex 3 3 3
    endloop
  endfacet
  facet normal 1 -0 0
    outer loop
      vertex 3 48 20
      vertex 3 87 3
      vertex 3 87 20
    endloop
  endfacet
  facet normal 1 0 0
    outer loop
      vertex 3 87 3
      vertex 3 48 20
      vertex 3 48 3
    endloop
  endfacet
  facet normal -1 0 0
    outer loop
      vertex 107 48 3
      vertex 107 87 20
      vertex 107 87 3
    endloop
  endfacet
  facet normal -1 -0 0
    outer loop
      vertex 107 87 20
      vertex 107 48 3
      vertex 107 48 20
    endloop
  endfacet
  facet normal -1 0 0
    outer loop
      vertex 107 3 3
      vertex 107 45 20
      vertex 107 45 3
    endloop
  endfacet
  facet normal -1 -0 0
    outer loop
      vertex 107 45 20
      vertex 107 3 3
      vertex 107 3 20
    endloop
  endfacet
  facet normal 0 -1 0
    outer loop
      vertex 73.5 87 3
      vertex 107 87 20
      vertex 73.5 87 20
    endloop
  endfacet
  facet normal 0 -1 -0
    outer loop
      vertex 107 87 20
      vertex 73.5 87 3
      vertex 107 87 3
    endloop
  endfacet
  facet normal 0 -1 0
    outer loop
      vertex 3 87 3
      vertex 36.5 87 20
      vertex 3 87 20
    endloop
  endfacet
  facet normal 0 -1 -0
    outer loop
      vertex 36.5 87 20
      vertex 3 87 3
      vertex 36.5 87 3
    endloop
  endfacet
  facet normal 0 -1 0
    outer loop
      vertex 39.5 87 3
      vertex 70.5 87 20
      vertex 39.5 87 20
    endloop
  endfacet
  facet normal 0 -1 -0
    outer loop
      vertex 70.5 87 20
      vertex 39.5 87 3
      vertex 70.5 87 3
    endloop
  endfacet
  facet normal 0 0 1
    outer loop
      vertex 42.5 45 3
      vertex 3 45 3
      vertex 42.5 32.5 3
    endloop
  endfacet
  facet normal -0 0 1
    outer loop
      vertex 42.5 32.5 3
      vertex 55 3 3
      vertex 55 32.5 3
    endloop
  endfacet
  facet normal 0 0 1
    outer loop
      vertex 3 3 3
      vertex 42.5 32.5 3
      vertex 3 45 3
    endloop
  endfacet
  facet normal 0 0 1
    outer loop
      vertex 42.5 32.5 3
      vertex 3 3 3
      vertex 55 3 3
    endloop
  endfacet
  facet normal -0 0 1
    outer loop
      vertex 73.5 87 3
      vertex 107 48 3
      vertex 107 87 3
    endloop
  endfacet
  facet normal 0 0 1
    outer loop
      vertex 107 48 3
      vertex 73.5 87 3
      vertex 73.5 48 3
    endloop
  endfacet
  facet normal -0 0 1
    outer loop
      vertex 3 87 3
      vertex 36.5 48 3
      vertex 36.5 87 3
    endloop
  endfacet
  facet normal 0 0 1
    outer loop
      vertex 36.5 48 3
      vertex 3 87 3
      vertex 3 48 3
    endloop
  endfacet
  facet normal 0 0 1
    outer loop
      vertex 67.5 32.5 3
      vertex 107 45 3
      vertex 67.5 45 3
    endloop
  endfacet
  facet normal 0 0 1
    outer loop
      vertex 107 45 3
      vertex 67.5 32.5 3
      vertex 107 3 3
    endloop
  endfacet
  facet normal 0 0 1
    outer loop
      vertex 58 3 3
      vertex 67.5 32.5 3
      vertex 58 32.5 3
    endloop
  endfacet
  facet normal 0 0 1
    outer loop
      vertex 67.5 32.5 3
      vertex 58 3 3
      vertex 107 3 3
    endloop
  endfacet
  facet normal 0 0 1
    outer loop
      vertex 70.5 87 3
      vertex 67.5 57.5 3
      vertex 70.5 48 3
    endloop
  endfacet
  facet normal 0 0 1
    outer loop
      vertex 70.5 87 3
      vertex 42.5 57.5 3
      vertex 67.5 57.5 3
    endloop
  endfacet
  facet normal -0 0 1
    outer loop
      vertex 39.5 87 3
      vertex 42.5 57.5 3
      vertex 70.5 87 3
    endloop
  endfacet
  facet normal 0 0 1
    outer loop
      vertex 39.5 48 3
      vertex 42.5 57.5 3
      vertex 39.5 87 3
    endloop
  endfacet
  facet normal 0 0 1
    outer loop
      vertex 42.5 57.5 3
      vertex 39.5 48 3
      vertex 42.5 48 3
    endloop
  endfacet
  facet normal 0 0 1
    outer loop
      vertex 70.5 48 3
      vertex 67.5 57.5 3
      vertex 67.5 48 3
    endloop
  endfacet
  facet normal 0 1 -0
    outer loop
      vertex 55 3 3
      vertex 3 3 20
      vertex 55 3 20
    endloop
  endfacet
  facet normal 0 1 0
    outer loop
      vertex 3 3 20
      vertex 55 3 3
      vertex 3 3 3
    endloop
  endfacet
  facet normal 0 1 -0
    outer loop
      vertex 107 3 3
      vertex 58 3 20
      vertex 107 3 20
    endloop
  endfacet
  facet normal 0 1 0
    outer loop
      vertex 58 3 20
      vertex 107 3 3
      vertex 58 3 3
    endloop
  endfacet
  facet normal -1 0 0
    outer loop
      vertex 42.5 32.5 3
      vertex 42.5 45 20
      vertex 42.5 45 3
    endloop
  endfacet
  facet normal -1 -0 0
    outer loop
      vertex 42.5 45 20
      vertex 42.5 32.5 3
      vertex 42.5 32.5 20
    endloop
  endfacet
  facet normal -1 0 0
    outer loop
      vertex 42.5 48 3
      vertex 42.5 57.5 20
      vertex 42.5 57.5 3
    endloop
  endfacet
  facet normal -1 -0 0
    outer loop
      vertex 42.5 57.5 20
      vertex 42.5 48 3
      vertex 42.5 48 20
    endloop
  endfacet
  facet normal 1 -0 0
    outer loop
      vertex 67.5 32.5 20
      vertex 67.5 45 3
      vertex 67.5 45 20
    endloop
  endfacet
  facet normal 1 0 0
    outer loop
      vertex 67.5 45 3
      vertex 67.5 32.5 20
      vertex 67.5 32.5 3
    endloop
  endfacet
  facet normal 1 -0 0
    outer loop
      vertex 67.5 48 20
      vertex 67.5 57.5 3
      vertex 67.5 57.5 20
    endloop
  endfacet
  facet normal 1 0 0
    outer loop
      vertex 67.5 57.5 3
      vertex 67.5 48 20
      vertex 67.5 48 3
    endloop
  endfacet
  facet normal 0 1 -0
    outer loop
      vertex 67.5 57.5 3
      vertex 42.5 57.5 20
      vertex 67.5 57.5 20
    endloop
  endfacet
  facet normal 0 1 0
    outer loop
      vertex 42.5 57.5 20
      vertex 67.5 57.5 3
      vertex 42.5 57.5 3
    endloop
  endfacet
  facet normal 0 -1 0
    outer loop
      vertex 58 32.5 3
      vertex 67.5 32.5 20
      vertex 58 32.5 20
    endloop
  endfacet
  facet normal 0 -1 -0
    outer loop
      vertex 67.5 32.5 20
      vertex 58 32.5 3
      vertex 67.5 32.5 3
    endloop
  endfacet
  facet normal 0 -1 0
    outer loop
      vertex 42.5 32.5 3
      vertex 55 32.5 20
      vertex 42.5 32.5 20
    endloop
  endfacet
  facet normal 0 -1 -0
    outer loop
      vertex 55 32.5 20
      vertex 42.5 32.5 3
      vertex 55 32.5 3
    endloop
  endfacet
  facet normal 1 -0 0
    outer loop
      vertex 45.5 35.5 20
      vertex 45.5 54.5 0
      vertex 45.5 54.5 20
    endloop
  endfacet
  facet normal 1 0 0
    outer loop
      vertex 45.5 54.5 0
      vertex 45.5 35.5 20
      vertex 45.5 35.5 0
    endloop
  endfacet
  facet normal -1 0 0
    outer loop
      vertex 64.5 35.5 0
      vertex 64.5 54.5 20
      vertex 64.5 54.5 0
    endloop
  endfacet
  facet normal -1 -0 0
    outer loop
      vertex 64.5 54.5 20
      vertex 64.5 35.5 0
      vertex 64.5 35.5 20
    endloop
  endfacet
  facet normal 0 -1 0
    outer loop
      vertex 45.5 54.5 0
      vertex 64.5 54.5 20
      vertex 45.5 54.5 20
    endloop
  endfacet
  facet normal 0 -1 -0
    outer loop
      vertex 64.5 54.5 20
      vertex 45.5 54.5 0
      vertex 64.5 54.5 0
    endloop
  endfacet
  facet normal 0 1 -0
    outer loop
      vertex 64.5 35.5 0
      vertex 45.5 35.5 20
      vertex 64.5 35.5 20
    endloop
  endfacet
  facet normal 0 1 0
    outer loop
      vertex 45.5 35.5 20
      vertex 64.5 35.5 0
      vertex 45.5 35.5 0
    endloop
  endfacet
  facet normal 0 1 -0
    outer loop
      vertex 36.5 48 3
      vertex 3 48 20
      vertex 36.5 48 20
    endloop
  endfacet
  facet normal 0 1 0
    outer loop
      vertex 3 48 20
      vertex 36.5 48 3
      vertex 3 48 3
    endloop
  endfacet
  facet normal 0 1 -0
    outer loop
      vertex 42.5 48 3
      vertex 39.5 48 20
      vertex 42.5 48 20
    endloop
  endfacet
  facet normal 0 1 0
    outer loop
      vertex 39.5 48 20
      vertex 42.5 48 3
      vertex 39.5 48 3
    endloop
  endfacet
  facet normal 0 1 -0
    outer loop
      vertex 70.5 48 3
      vertex 67.5 48 20
      vertex 70.5 48 20
    endloop
  endfacet
  facet normal 0 1 0
    outer loop
      vertex 67.5 48 20
      vertex 70.5 48 3
      vertex 67.5 48 3
    endloop
  endfacet
  facet normal 0 1 -0
    outer loop
      vertex 107 48 3
      vertex 73.5 48 20
      vertex 107 48 20
    endloop
  endfacet
  facet normal 0 1 0
    outer loop
      vertex 73.5 48 20
      vertex 107 48 3
      vertex 73.5 48 3
    endloop
  endfacet
  facet normal 0 -1 0
    outer loop
      vertex 3 45 3
      vertex 42.5 45 20
      vertex 3 45 20
    endloop
  endfacet
  facet normal 0 -1 -0
    outer loop
      vertex 42.5 45 20
      vertex 3 45 3
      vertex 42.5 45 3
    endloop
  endfacet
  facet normal 0 -1 0
    outer loop
      vertex 67.5 45 3
      vertex 107 45 20
      vertex 67.5 45 20
    endloop
  endfacet
  facet normal 0 -1 -0
    outer loop
      vertex 107 45 20
      vertex 67.5 45 3
      vertex 107 45 3
    endloop
  endfacet
  facet normal -1 0 0
    outer loop
      vertex 55 0 0
      vertex 55 0.00394726 20
      vertex 55 0.00394726 0
    endloop
  endfacet
  facet normal -1 -0 0
    outer loop
      vertex 55 0.00394726 20
      vertex 55 0 0
      vertex 55 0 20
    endloop
  endfacet
  facet normal -1 0 0
    outer loop
      vertex 55 3 3
      vertex 55 32.5 20
      vertex 55 32.5 3
    endloop
  endfacet
  facet normal -1 -0 0
    outer loop
      vertex 55 32.5 20
      vertex 55 3 3
      vertex 55 3 20
    endloop
  endfacet
  facet normal 1 -0 0
    outer loop
      vertex 58 0 20
      vertex 58 0.00394726 0
      vertex 58 0.00394726 20
    endloop
  endfacet
  facet normal 1 0 0
    outer loop
      vertex 58 0.00394726 0
      vertex 58 0 20
      vertex 58 0 0
    endloop
  endfacet
  facet normal 1 -0 0
    outer loop
      vertex 58 3 20
      vertex 58 32.5 3
      vertex 58 32.5 20
    endloop
  endfacet
  facet normal 1 0 0
    outer loop
      vertex 58 32.5 3
      vertex 58 3 20
      vertex 58 3 3
    endloop
  endfacet
  facet normal 0 -1 0
    outer loop
      vertex 55 0 0
      vertex 58 0 20
      vertex 55 0 20
    endloop
  endfacet
  facet normal 0 -1 -0
    outer loop
      vertex 58 0 20
      vertex 55 0 0
      vertex 58 0 0
    endloop
  endfacet
  facet normal -1 0 0
    outer loop
      vertex 36.5 89.9961 0
      vertex 36.5 90 20
      vertex 36.5 90 0
    endloop
  endfacet
  facet normal -1 -0 0
    outer loop
      vertex 36.5 90 20
      vertex 36.5 89.9961 0
      vertex 36.5 89.9961 20
    endloop
  endfacet
  facet normal -1 0 0
    outer loop
      vertex 36.5 48 3
      vertex 36.5 87 20
      vertex 36.5 87 3
    endloop
  endfacet
  facet normal -1 -0 0
    outer loop
      vertex 36.5 87 20
      vertex 36.5 48 3
      vertex 36.5 48 20
    endloop
  endfacet
  facet normal 1 -0 0
    outer loop
      vertex 39.5 89.9961 20
      vertex 39.5 90 0
      vertex 39.5 90 20
    endloop
  endfacet
  facet normal 1 0 0
    outer loop
      vertex 39.5 90 0
      vertex 39.5 89.9961 20
      vertex 39.5 89.9961 0
    endloop
  endfacet
  facet normal 1 -0 0
    outer loop
      vertex 39.5 48 20
      vertex 39.5 87 3
      vertex 39.5 87 20
    endloop
  endfacet
  facet normal 1 0 0
    outer loop
      vertex 39.5 87 3
      vertex 39.5 48 20
      vertex 39.5 48 3
    endloop
  endfacet
  facet normal 0 1 -0
    outer loop
      vertex 39.5 90 0
      vertex 36.5 90 20
      vertex 39.5 90 20
    endloop
  endfacet
  facet normal 0 1 0
    outer loop
      vertex 36.5 90 20
      vertex 39.5 90 0
      vertex 36.5 90 0
    endloop
  endfacet
  facet normal -1 0 0
    outer loop
      vertex 70.5 89.9961 0
      vertex 70.5 90 20
      vertex 70.5 90 0
    endloop
  endfacet
  facet normal -1 -0 0
    outer loop
      vertex 70.5 90 20
      vertex 70.5 89.9961 0
      vertex 70.5 89.9961 20
    endloop
  endfacet
  facet normal -1 0 0
    outer loop
      vertex 70.5 48 3
      vertex 70.5 87 20
      vertex 70.5 87 3
    endloop
  endfacet
  facet normal -1 -0 0
    outer loop
      vertex 70.5 87 20
      vertex 70.5 48 3
      vertex 70.5 48 20
    endloop
  endfacet
  facet normal 1 -0 0
    outer loop
      vertex 73.5 89.9961 20
      vertex 73.5 90 0
      vertex 73.5 90 20
    endloop
  endfacet
  facet normal 1 0 0
    outer loop
      vertex 73.5 90 0
      vertex 73.5 89.9961 20
      vertex 73.5 89.9961 0
    endloop
  endfacet
  facet normal 1 -0 0
    outer loop
      vertex 73.5 48 20
      vertex 73.5 87 3
      vertex 73.5 87 20
    endloop
  endfacet
  facet normal 1 0 0
    outer loop
      vertex 73.5 87 3
      vertex 73.5 48 20
      vertex 73.5 48 3
    endloop
  endfacet
  facet normal 0 1 -0
    outer loop
      vertex 73.5 90 0
      vertex 70.5 90 20
      vertex 73.5 90 20
    endloop
  endfacet
  facet normal 0 1 0
    outer loop
      vertex 70.5 90 20
      vertex 73.5 90 0
      vertex 70.5 90 0
    endloop
  endfacet
endsolid OpenSCAD_Model
