solid OpenSCAD_Model
  facet normal -1 0 0
    outer loop
      vertex 0 54 0
      vertex 0 44 2
      vertex 0 54 2
    endloop
  endfacet
  facet normal -1 0 0
    outer loop
      vertex 0 44 2
      vertex 0 10 2
      vertex 0 44 4
    endloop
  endfacet
  facet normal -1 0 0
    outer loop
      vertex 0 54 0
      vertex 0 10 2
      vertex 0 44 2
    endloop
  endfacet
  facet normal -1 0 0
    outer loop
      vertex 0 0 0
      vertex 0 10 2
      vertex 0 54 0
    endloop
  endfacet
  facet normal -1 -0 0
    outer loop
      vertex 0 10 2
      vertex 0 0 0
      vertex 0 0 2
    endloop
  endfacet
  facet normal -1 -0 0
    outer loop
      vertex 0 44 4
      vertex 0 10 2
      vertex 0 10 4
    endloop
  endfacet
  facet normal -0 0 1
    outer loop
      vertex 0 44 4
      vertex 45 10 4
      vertex 45 44 4
    endloop
  endfacet
  facet normal 0 0 1
    outer loop
      vertex 45 10 4
      vertex 0 44 4
      vertex 0 10 4
    endloop
  endfacet
  facet normal 1 0 0
    outer loop
      vertex 45 44 4
      vertex 45 10 4
      vertex 45 44 2
    endloop
  endfacet
  facet normal 1 -0 0
    outer loop
      vertex 45 44 2
      vertex 45 54 0
      vertex 45 54 2
    endloop
  endfacet
  facet normal 1 0 0
    outer loop
      vertex 45 10 2
      vertex 45 44 2
      vertex 45 10 4
    endloop
  endfacet
  facet normal 1 0 0
    outer loop
      vertex 45 44 2
      vertex 45 10 2
      vertex 45 54 0
    endloop
  endfacet
  facet normal 1 0 0
    outer loop
      vertex 45 0 0
      vertex 45 10 2
      vertex 45 0 2
    endloop
  endfacet
  facet normal 1 0 0
    outer loop
      vertex 45 10 2
      vertex 45 0 0
      vertex 45 54 0
    endloop
  endfacet
  facet normal 0 1 -0
    outer loop
      vertex 45 54 0
      vertex 0 54 2
      vertex 45 54 2
    endloop
  endfacet
  facet normal 0 1 0
    outer loop
      vertex 0 54 2
      vertex 45 54 0
      vertex 0 54 0
    endloop
  endfacet
  facet normal 0 0 -1
    outer loop
      vertex 0 0 0
      vertex 45 54 0
      vertex 45 0 0
    endloop
  endfacet
  facet normal -0 0 -1
    outer loop
      vertex 45 54 0
      vertex 0 0 0
      vertex 0 54 0
    endloop
  endfacet
  facet normal 0 -1 0
    outer loop
      vertex 0 0 0
      vertex 45 0 2
      vertex 0 0 2
    endloop
  endfacet
  facet normal 0 -1 -0
    outer loop
      vertex 45 0 2
      vertex 0 0 0
      vertex 45 0 0
    endloop
  endfacet
  facet normal 0 -1 0
    outer loop
      vertex 0 10 2
      vertex 45 10 4
      vertex 0 10 4
    endloop
  endfacet
  facet normal 0 -1 -0
    outer loop
      vertex 45 10 4
      vertex 0 10 2
      vertex 45 10 2
    endloop
  endfacet
  facet normal -0 0 1
    outer loop
      vertex 0 10 2
      vertex 45 0 2
      vertex 45 10 2
    endloop
  endfacet
  facet normal 0 0 1
    outer loop
      vertex 45 0 2
      vertex 0 10 2
      vertex 0 0 2
    endloop
  endfacet
  facet normal -0 0 1
    outer loop
      vertex 0 54 2
      vertex 45 44 2
      vertex 45 54 2
    endloop
  endfacet
  facet normal 0 0 1
    outer loop
      vertex 45 44 2
      vertex 0 54 2
      vertex 0 44 2
    endloop
  endfacet
  facet normal 0 1 -0
    outer loop
      vertex 45 44 2
      vertex 0 44 4
      vertex 45 44 4
    endloop
  endfacet
  facet normal 0 1 0
    outer loop
      vertex 0 44 4
      vertex 45 44 2
      vertex 0 44 2
    endloop
  endfacet
endsolid OpenSCAD_Model
