solid OpenSCAD_Model
  facet normal -1 0 0
    outer loop
      vertex 0 0 0
      vertex 0 60 13
      vertex 0 60 0
    endloop
  endfacet
  facet normal -1 -0 0
    outer loop
      vertex 0 60 13
      vertex 0 0 0
      vertex 0 0 13
    endloop
  endfacet
  facet normal 0 0 1
    outer loop
      vertex 90 60 13
      vertex 88 58 13
      vertex 90 0 13
    endloop
  endfacet
  facet normal 0 0 1
    outer loop
      vertex 90 60 13
      vertex 54 58 13
      vertex 88 58 13
    endloop
  endfacet
  facet normal 0 0 1
    outer loop
      vertex 54 58 13
      vertex 52.7 30 13
      vertex 54 2 13
    endloop
  endfacet
  facet normal 0 0 1
    outer loop
      vertex 54 58 13
      vertex 52.4581 31.9149 13
      vertex 52.7 30 13
    endloop
  endfacet
  facet normal 0 0 1
    outer loop
      vertex 54 58 13
      vertex 51.7476 33.7095 13
      vertex 52.4581 31.9149 13
    endloop
  endfacet
  facet normal 0 0 1
    outer loop
      vertex 54 58 13
      vertex 50.6131 35.271 13
      vertex 51.7476 33.7095 13
    endloop
  endfacet
  facet normal 0 0 1
    outer loop
      vertex 54 58 13
      vertex 49.1259 36.5013 13
      vertex 50.6131 35.271 13
    endloop
  endfacet
  facet normal 0 0 1
    outer loop
      vertex 54 58 13
      vertex 47.3794 37.3231 13
      vertex 49.1259 36.5013 13
    endloop
  endfacet
  facet normal 0 0 1
    outer loop
      vertex 54 58 13
      vertex 45.4835 37.6848 13
      vertex 47.3794 37.3231 13
    endloop
  endfacet
  facet normal -0 0 1
    outer loop
      vertex 36 58 13
      vertex 45.4835 37.6848 13
      vertex 54 58 13
    endloop
  endfacet
  facet normal 0 0 1
    outer loop
      vertex 45.4835 37.6848 13
      vertex 36 58 13
      vertex 43.5572 37.5636 13
    endloop
  endfacet
  facet normal 0 0 1
    outer loop
      vertex 43.5572 37.5636 13
      vertex 36 58 13
      vertex 41.7215 36.9672 13
    endloop
  endfacet
  facet normal 0 0 1
    outer loop
      vertex 41.7215 36.9672 13
      vertex 36 58 13
      vertex 40.0918 35.933 13
    endloop
  endfacet
  facet normal 0 0 1
    outer loop
      vertex 37.3607 30.9651 13
      vertex 36 58 13
      vertex 37.3607 29.0349 13
    endloop
  endfacet
  facet normal 0 0 1
    outer loop
      vertex 37.8407 32.8346 13
      vertex 36 58 13
      vertex 37.3607 30.9651 13
    endloop
  endfacet
  facet normal 0 0 1
    outer loop
      vertex 38.7706 34.5259 13
      vertex 36 58 13
      vertex 37.8407 32.8346 13
    endloop
  endfacet
  facet normal 0 0 1
    outer loop
      vertex 40.0918 35.933 13
      vertex 36 58 13
      vertex 38.7706 34.5259 13
    endloop
  endfacet
  facet normal 0 0 1
    outer loop
      vertex 90 60 13
      vertex 36 58 13
      vertex 54 58 13
    endloop
  endfacet
  facet normal -0 0 1
    outer loop
      vertex 0 60 13
      vertex 36 58 13
      vertex 90 60 13
    endloop
  endfacet
  facet normal 0 0 1
    outer loop
      vertex 2 58 13
      vertex 0 60 13
      vertex 2 2 13
    endloop
  endfacet
  facet normal 0 0 1
    outer loop
      vertex 36 58 13
      vertex 0 60 13
      vertex 2 58 13
    endloop
  endfacet
  facet normal -0 0 1
    outer loop
      vertex 88 2 13
      vertex 90 0 13
      vertex 88 58 13
    endloop
  endfacet
  facet normal -0 0 1
    outer loop
      vertex 54 2 13
      vertex 90 0 13
      vertex 88 2 13
    endloop
  endfacet
  facet normal -0 0 1
    outer loop
      vertex 52.4581 28.0851 13
      vertex 54 2 13
      vertex 52.7 30 13
    endloop
  endfacet
  facet normal -0 0 1
    outer loop
      vertex 51.7476 26.2905 13
      vertex 54 2 13
      vertex 52.4581 28.0851 13
    endloop
  endfacet
  facet normal -0 0 1
    outer loop
      vertex 50.6131 24.729 13
      vertex 54 2 13
      vertex 51.7476 26.2905 13
    endloop
  endfacet
  facet normal -0 0 1
    outer loop
      vertex 49.1259 23.4987 13
      vertex 54 2 13
      vertex 50.6131 24.729 13
    endloop
  endfacet
  facet normal -0 0 1
    outer loop
      vertex 47.3794 22.6769 13
      vertex 54 2 13
      vertex 49.1259 23.4987 13
    endloop
  endfacet
  facet normal -0 0 1
    outer loop
      vertex 45.4835 22.3152 13
      vertex 54 2 13
      vertex 47.3794 22.6769 13
    endloop
  endfacet
  facet normal 0 0 1
    outer loop
      vertex 36 2 13
      vertex 45.4835 22.3152 13
      vertex 43.5572 22.4364 13
    endloop
  endfacet
  facet normal 0 0 1
    outer loop
      vertex 36 2 13
      vertex 43.5572 22.4364 13
      vertex 41.7215 23.0328 13
    endloop
  endfacet
  facet normal 0 0 1
    outer loop
      vertex 36 2 13
      vertex 41.7215 23.0328 13
      vertex 40.0918 24.067 13
    endloop
  endfacet
  facet normal 0 0 1
    outer loop
      vertex 36 2 13
      vertex 40.0918 24.067 13
      vertex 38.7706 25.4741 13
    endloop
  endfacet
  facet normal 0 0 1
    outer loop
      vertex 36 2 13
      vertex 37.3607 29.0349 13
      vertex 36 58 13
    endloop
  endfacet
  facet normal 0 0 1
    outer loop
      vertex 36 2 13
      vertex 37.8407 27.1654 13
      vertex 37.3607 29.0349 13
    endloop
  endfacet
  facet normal 0 0 1
    outer loop
      vertex 36 2 13
      vertex 38.7706 25.4741 13
      vertex 37.8407 27.1654 13
    endloop
  endfacet
  facet normal 0 0 1
    outer loop
      vertex 45.4835 22.3152 13
      vertex 36 2 13
      vertex 54 2 13
    endloop
  endfacet
  facet normal -0 0 1
    outer loop
      vertex 36 2 13
      vertex 90 0 13
      vertex 54 2 13
    endloop
  endfacet
  facet normal 0 0 1
    outer loop
      vertex 0 0 13
      vertex 36 2 13
      vertex 2 2 13
    endloop
  endfacet
  facet normal 0 0 1
    outer loop
      vertex 36 2 13
      vertex 0 0 13
      vertex 90 0 13
    endloop
  endfacet
  facet normal 0 0 1
    outer loop
      vertex 0 0 13
      vertex 2 2 13
      vertex 0 60 13
    endloop
  endfacet
  facet normal 1 -0 0
    outer loop
      vertex 90 0 13
      vertex 90 60 0
      vertex 90 60 13
    endloop
  endfacet
  facet normal 1 0 0
    outer loop
      vertex 90 60 0
      vertex 90 0 13
      vertex 90 0 0
    endloop
  endfacet
  facet normal 0 1 -0
    outer loop
      vertex 90 60 0
      vertex 0 60 13
      vertex 90 60 13
    endloop
  endfacet
  facet normal 0 1 0
    outer loop
      vertex 0 60 13
      vertex 90 60 0
      vertex 0 60 0
    endloop
  endfacet
  facet normal 0 0 -1
    outer loop
      vertex 0 0 0
      vertex 90 60 0
      vertex 90 0 0
    endloop
  endfacet
  facet normal -0 0 -1
    outer loop
      vertex 90 60 0
      vertex 0 0 0
      vertex 0 60 0
    endloop
  endfacet
  facet normal 0 -1 0
    outer loop
      vertex 0 0 0
      vertex 90 0 13
      vertex 0 0 13
    endloop
  endfacet
  facet normal 0 -1 -0
    outer loop
      vertex 90 0 13
      vertex 0 0 0
      vertex 90 0 0
    endloop
  endfacet
  facet normal 1 -0 0
    outer loop
      vertex 2 2 13
      vertex 2 58 3
      vertex 2 58 13
    endloop
  endfacet
  facet normal 1 0 0
    outer loop
      vertex 2 58 3
      vertex 2 2 13
      vertex 2 2 3
    endloop
  endfacet
  facet normal -1 0 0
    outer loop
      vertex 88 2 3
      vertex 88 58 13
      vertex 88 58 3
    endloop
  endfacet
  facet normal -1 -0 0
    outer loop
      vertex 88 58 13
      vertex 88 2 3
      vertex 88 2 13
    endloop
  endfacet
  facet normal 0 -1 0
    outer loop
      vertex 54 58 3
      vertex 88 58 13
      vertex 54 58 13
    endloop
  endfacet
  facet normal 0 -1 -0
    outer loop
      vertex 88 58 13
      vertex 54 58 3
      vertex 88 58 3
    endloop
  endfacet
  facet normal 0 -1 0
    outer loop
      vertex 2 58 3
      vertex 36 58 13
      vertex 2 58 13
    endloop
  endfacet
  facet normal 0 -1 -0
    outer loop
      vertex 36 58 13
      vertex 2 58 3
      vertex 36 58 3
    endloop
  endfacet
  facet normal -0 0 1
    outer loop
      vertex 2 58 3
      vertex 36 2 3
      vertex 36 58 3
    endloop
  endfacet
  facet normal 0 0 1
    outer loop
      vertex 36 2 3
      vertex 2 58 3
      vertex 2 2 3
    endloop
  endfacet
  facet normal -0 0 1
    outer loop
      vertex 54 58 3
      vertex 88 2 3
      vertex 88 58 3
    endloop
  endfacet
  facet normal 0 0 1
    outer loop
      vertex 88 2 3
      vertex 54 58 3
      vertex 54 2 3
    endloop
  endfacet
  facet normal 0 1 -0
    outer loop
      vertex 36 2 3
      vertex 2 2 13
      vertex 36 2 13
    endloop
  endfacet
  facet normal 0 1 0
    outer loop
      vertex 2 2 13
      vertex 36 2 3
      vertex 2 2 3
    endloop
  endfacet
  facet normal 0 1 -0
    outer loop
      vertex 88 2 3
      vertex 54 2 13
      vertex 88 2 13
    endloop
  endfacet
  facet normal 0 1 0
    outer loop
      vertex 54 2 13
      vertex 88 2 3
      vertex 54 2 3
    endloop
  endfacet
  facet normal -1 0 0
    outer loop
      vertex 36 2 3
      vertex 36 58 13
      vertex 36 58 3
    endloop
  endfacet
  facet normal -1 -0 0
    outer loop
      vertex 36 58 13
      vertex 36 2 3
      vertex 36 2 13
    endloop
  endfacet
  facet normal 1 -0 0
    outer loop
      vertex 54 2 13
      vertex 54 58 3
      vertex 54 58 13
    endloop
  endfacet
  facet normal 1 0 0
    outer loop
      vertex 54 58 3
      vertex 54 2 13
      vertex 54 2 3
    endloop
  endfacet
  facet normal -0.809018 -0.587784 0
    outer loop
      vertex 51.7476 33.7095 9
      vertex 50.6131 35.271 13
      vertex 50.6131 35.271 9
    endloop
  endfacet
  facet normal -0.809018 -0.587784 0
    outer loop
      vertex 50.6131 35.271 13
      vertex 51.7476 33.7095 9
      vertex 51.7476 33.7095 13
    endloop
  endfacet
  facet normal -0.992115 -0.125333 0
    outer loop
      vertex 52.7 30 9
      vertex 52.4581 31.9149 13
      vertex 52.4581 31.9149 9
    endloop
  endfacet
  facet normal -0.992115 -0.125333 0
    outer loop
      vertex 52.4581 31.9149 13
      vertex 52.7 30 9
      vertex 52.7 30 13
    endloop
  endfacet
  facet normal 0.968583 0.248689 0
    outer loop
      vertex 37.8407 27.1654 13
      vertex 37.3607 29.0349 9
      vertex 37.3607 29.0349 13
    endloop
  endfacet
  facet normal 0.968583 0.248689 0
    outer loop
      vertex 37.3607 29.0349 9
      vertex 37.8407 27.1654 13
      vertex 37.8407 27.1654 9
    endloop
  endfacet
  facet normal -0.637424 -0.770514 0
    outer loop
      vertex 49.1259 36.5013 9
      vertex 50.6131 35.271 13
      vertex 49.1259 36.5013 13
    endloop
  endfacet
  facet normal -0.637424 -0.770514 -0
    outer loop
      vertex 50.6131 35.271 13
      vertex 49.1259 36.5013 9
      vertex 50.6131 35.271 9
    endloop
  endfacet
  facet normal 0.535826 -0.844329 0
    outer loop
      vertex 40.0918 35.933 9
      vertex 41.7215 36.9672 13
      vertex 40.0918 35.933 13
    endloop
  endfacet
  facet normal 0.535826 -0.844329 0
    outer loop
      vertex 41.7215 36.9672 13
      vertex 40.0918 35.933 9
      vertex 41.7215 36.9672 9
    endloop
  endfacet
  facet normal 0.728969 -0.684547 0
    outer loop
      vertex 38.7706 34.5259 13
      vertex 40.0918 35.933 9
      vertex 40.0918 35.933 13
    endloop
  endfacet
  facet normal 0.728969 -0.684547 0
    outer loop
      vertex 40.0918 35.933 9
      vertex 38.7706 34.5259 13
      vertex 38.7706 34.5259 9
    endloop
  endfacet
  facet normal -0.42578 0.904827 0
    outer loop
      vertex 49.1259 23.4987 9
      vertex 47.3794 22.6769 13
      vertex 49.1259 23.4987 13
    endloop
  endfacet
  facet normal -0.42578 0.904827 0
    outer loop
      vertex 47.3794 22.6769 13
      vertex 49.1259 23.4987 9
      vertex 47.3794 22.6769 9
    endloop
  endfacet
  facet normal -0.929776 -0.368126 0
    outer loop
      vertex 52.4581 31.9149 9
      vertex 51.7476 33.7095 13
      vertex 51.7476 33.7095 9
    endloop
  endfacet
  facet normal -0.929776 -0.368126 0
    outer loop
      vertex 51.7476 33.7095 13
      vertex 52.4581 31.9149 9
      vertex 52.4581 31.9149 13
    endloop
  endfacet
  facet normal 0.062792 -0.998027 0
    outer loop
      vertex 43.5572 37.5636 9
      vertex 45.4835 37.6848 13
      vertex 43.5572 37.5636 13
    endloop
  endfacet
  facet normal 0.062792 -0.998027 0
    outer loop
      vertex 45.4835 37.6848 13
      vertex 43.5572 37.5636 9
      vertex 45.4835 37.6848 9
    endloop
  endfacet
  facet normal -0.42578 -0.904827 0
    outer loop
      vertex 47.3794 37.3231 9
      vertex 49.1259 36.5013 13
      vertex 47.3794 37.3231 13
    endloop
  endfacet
  facet normal -0.42578 -0.904827 -0
    outer loop
      vertex 49.1259 36.5013 13
      vertex 47.3794 37.3231 9
      vertex 49.1259 36.5013 9
    endloop
  endfacet
  facet normal 1 -0 0
    outer loop
      vertex 37.3607 29.0349 13
      vertex 37.3607 30.9651 9
      vertex 37.3607 30.9651 13
    endloop
  endfacet
  facet normal 1 0 0
    outer loop
      vertex 37.3607 30.9651 9
      vertex 37.3607 29.0349 13
      vertex 37.3607 29.0349 9
    endloop
  endfacet
  facet normal 0.876307 -0.481753 0
    outer loop
      vertex 37.8407 32.8346 13
      vertex 38.7706 34.5259 9
      vertex 38.7706 34.5259 13
    endloop
  endfacet
  facet normal 0.876307 -0.481753 0
    outer loop
      vertex 38.7706 34.5259 9
      vertex 37.8407 32.8346 13
      vertex 37.8407 32.8346 9
    endloop
  endfacet
  facet normal 0.309017 -0.951056 0
    outer loop
      vertex 41.7215 36.9672 9
      vertex 43.5572 37.5636 13
      vertex 41.7215 36.9672 13
    endloop
  endfacet
  facet normal 0.309017 -0.951056 0
    outer loop
      vertex 43.5572 37.5636 13
      vertex 41.7215 36.9672 9
      vertex 43.5572 37.5636 9
    endloop
  endfacet
  facet normal 0.535826 0.844328 -0
    outer loop
      vertex 41.7215 23.0328 9
      vertex 40.0918 24.067 13
      vertex 41.7215 23.0328 13
    endloop
  endfacet
  facet normal 0.535826 0.844328 0
    outer loop
      vertex 40.0918 24.067 13
      vertex 41.7215 23.0328 9
      vertex 40.0918 24.067 9
    endloop
  endfacet
  facet normal 0.876307 0.481754 0
    outer loop
      vertex 38.7706 25.4741 13
      vertex 37.8407 27.1654 9
      vertex 37.8407 27.1654 13
    endloop
  endfacet
  facet normal 0.876307 0.481754 0
    outer loop
      vertex 37.8407 27.1654 9
      vertex 38.7706 25.4741 13
      vertex 38.7706 25.4741 9
    endloop
  endfacet
  facet normal -0.809018 0.587784 0
    outer loop
      vertex 50.6131 24.729 9
      vertex 51.7476 26.2905 13
      vertex 51.7476 26.2905 9
    endloop
  endfacet
  facet normal -0.809018 0.587784 0
    outer loop
      vertex 51.7476 26.2905 13
      vertex 50.6131 24.729 9
      vertex 50.6131 24.729 13
    endloop
  endfacet
  facet normal -0.187381 -0.982287 0
    outer loop
      vertex 45.4835 37.6848 9
      vertex 47.3794 37.3231 13
      vertex 45.4835 37.6848 13
    endloop
  endfacet
  facet normal -0.187381 -0.982287 -0
    outer loop
      vertex 47.3794 37.3231 13
      vertex 45.4835 37.6848 9
      vertex 47.3794 37.3231 9
    endloop
  endfacet
  facet normal 0.968583 -0.24869 0
    outer loop
      vertex 37.3607 30.9651 13
      vertex 37.8407 32.8346 9
      vertex 37.8407 32.8346 13
    endloop
  endfacet
  facet normal 0.968583 -0.24869 0
    outer loop
      vertex 37.8407 32.8346 9
      vertex 37.3607 30.9651 13
      vertex 37.3607 30.9651 9
    endloop
  endfacet
  facet normal -0.992115 0.125333 0
    outer loop
      vertex 52.4581 28.0851 9
      vertex 52.7 30 13
      vertex 52.7 30 9
    endloop
  endfacet
  facet normal -0.992115 0.125333 0
    outer loop
      vertex 52.7 30 13
      vertex 52.4581 28.0851 9
      vertex 52.4581 28.0851 13
    endloop
  endfacet
  facet normal 0 0 1
    outer loop
      vertex 52.4581 31.9149 9
      vertex 52.4581 28.0851 9
      vertex 52.7 30 9
    endloop
  endfacet
  facet normal 0 0 1
    outer loop
      vertex 51.7476 33.7095 9
      vertex 52.4581 28.0851 9
      vertex 52.4581 31.9149 9
    endloop
  endfacet
  facet normal 0 0 1
    outer loop
      vertex 51.7476 33.7095 9
      vertex 51.7476 26.2905 9
      vertex 52.4581 28.0851 9
    endloop
  endfacet
  facet normal 0 0 1
    outer loop
      vertex 50.6131 35.271 9
      vertex 51.7476 26.2905 9
      vertex 51.7476 33.7095 9
    endloop
  endfacet
  facet normal 0 0 1
    outer loop
      vertex 50.6131 35.271 9
      vertex 50.6131 24.729 9
      vertex 51.7476 26.2905 9
    endloop
  endfacet
  facet normal 0 0 1
    outer loop
      vertex 49.1259 36.5013 9
      vertex 50.6131 24.729 9
      vertex 50.6131 35.271 9
    endloop
  endfacet
  facet normal 0 0 1
    outer loop
      vertex 49.1259 36.5013 9
      vertex 49.1259 23.4987 9
      vertex 50.6131 24.729 9
    endloop
  endfacet
  facet normal 0 0 1
    outer loop
      vertex 47.3794 37.3231 9
      vertex 49.1259 23.4987 9
      vertex 49.1259 36.5013 9
    endloop
  endfacet
  facet normal 0 0 1
    outer loop
      vertex 47.3794 37.3231 9
      vertex 47.3794 22.6769 9
      vertex 49.1259 23.4987 9
    endloop
  endfacet
  facet normal 0 0 1
    outer loop
      vertex 45.4835 37.6848 9
      vertex 47.3794 22.6769 9
      vertex 47.3794 37.3231 9
    endloop
  endfacet
  facet normal 0 0 1
    outer loop
      vertex 45.4835 37.6848 9
      vertex 45.4835 22.3152 9
      vertex 47.3794 22.6769 9
    endloop
  endfacet
  facet normal -0 0 1
    outer loop
      vertex 43.5572 37.5636 9
      vertex 45.4835 22.3152 9
      vertex 45.4835 37.6848 9
    endloop
  endfacet
  facet normal 0 0 1
    outer loop
      vertex 43.5572 37.5636 9
      vertex 43.5572 22.4364 9
      vertex 45.4835 22.3152 9
    endloop
  endfacet
  facet normal -0 0 1
    outer loop
      vertex 41.7215 36.9672 9
      vertex 43.5572 22.4364 9
      vertex 43.5572 37.5636 9
    endloop
  endfacet
  facet normal 0 0 1
    outer loop
      vertex 41.7215 36.9672 9
      vertex 41.7215 23.0328 9
      vertex 43.5572 22.4364 9
    endloop
  endfacet
  facet normal -0 0 1
    outer loop
      vertex 40.0918 35.933 9
      vertex 41.7215 23.0328 9
      vertex 41.7215 36.9672 9
    endloop
  endfacet
  facet normal 0 0 1
    outer loop
      vertex 40.0918 35.933 9
      vertex 40.0918 24.067 9
      vertex 41.7215 23.0328 9
    endloop
  endfacet
  facet normal -0 0 1
    outer loop
      vertex 38.7706 34.5259 9
      vertex 40.0918 24.067 9
      vertex 40.0918 35.933 9
    endloop
  endfacet
  facet normal 0 0 1
    outer loop
      vertex 38.7706 34.5259 9
      vertex 38.7706 25.4741 9
      vertex 40.0918 24.067 9
    endloop
  endfacet
  facet normal -0 0 1
    outer loop
      vertex 37.8407 32.8346 9
      vertex 38.7706 25.4741 9
      vertex 38.7706 34.5259 9
    endloop
  endfacet
  facet normal 0 0 1
    outer loop
      vertex 37.8407 32.8346 9
      vertex 37.8407 27.1654 9
      vertex 38.7706 25.4741 9
    endloop
  endfacet
  facet normal -0 0 1
    outer loop
      vertex 37.3607 30.9651 9
      vertex 37.8407 27.1654 9
      vertex 37.8407 32.8346 9
    endloop
  endfacet
  facet normal 0 0 1
    outer loop
      vertex 37.8407 27.1654 9
      vertex 37.3607 30.9651 9
      vertex 37.3607 29.0349 9
    endloop
  endfacet
  facet normal 0.728969 0.684547 0
    outer loop
      vertex 40.0918 24.067 13
      vertex 38.7706 25.4741 9
      vertex 38.7706 25.4741 13
    endloop
  endfacet
  facet normal 0.728969 0.684547 0
    outer loop
      vertex 38.7706 25.4741 9
      vertex 40.0918 24.067 13
      vertex 40.0918 24.067 9
    endloop
  endfacet
  facet normal -0.637424 0.770514 0
    outer loop
      vertex 50.6131 24.729 9
      vertex 49.1259 23.4987 13
      vertex 50.6131 24.729 13
    endloop
  endfacet
  facet normal -0.637424 0.770514 0
    outer loop
      vertex 49.1259 23.4987 13
      vertex 50.6131 24.729 9
      vertex 49.1259 23.4987 9
    endloop
  endfacet
  facet normal -0.929776 0.368127 0
    outer loop
      vertex 51.7476 26.2905 9
      vertex 52.4581 28.0851 13
      vertex 52.4581 28.0851 9
    endloop
  endfacet
  facet normal -0.929776 0.368127 0
    outer loop
      vertex 52.4581 28.0851 13
      vertex 51.7476 26.2905 9
      vertex 51.7476 26.2905 13
    endloop
  endfacet
  facet normal -0.187381 0.982287 0
    outer loop
      vertex 47.3794 22.6769 9
      vertex 45.4835 22.3152 13
      vertex 47.3794 22.6769 13
    endloop
  endfacet
  facet normal -0.187381 0.982287 0
    outer loop
      vertex 45.4835 22.3152 13
      vertex 47.3794 22.6769 9
      vertex 45.4835 22.3152 9
    endloop
  endfacet
  facet normal 0.062791 0.998027 -0
    outer loop
      vertex 45.4835 22.3152 9
      vertex 43.5572 22.4364 13
      vertex 45.4835 22.3152 13
    endloop
  endfacet
  facet normal 0.062791 0.998027 0
    outer loop
      vertex 43.5572 22.4364 13
      vertex 45.4835 22.3152 9
      vertex 43.5572 22.4364 9
    endloop
  endfacet
  facet normal 0.309017 0.951056 -0
    outer loop
      vertex 43.5572 22.4364 9
      vertex 41.7215 23.0328 13
      vertex 43.5572 22.4364 13
    endloop
  endfacet
  facet normal 0.309017 0.951056 0
    outer loop
      vertex 41.7215 23.0328 13
      vertex 43.5572 22.4364 9
      vertex 41.7215 23.0328 9
    endloop
  endfacet
endsolid OpenSCAD_Model
