solid OpenSCAD_Model
  facet normal 1 0 0
    outer loop
      vertex 2 71.8 14
      vertex 2 60.8 9.7
      vertex 2 71.8 9.7
    endloop
  endfacet
  facet normal 1 0 0
    outer loop
      vertex 2 60.8 9.7
      vertex 2 52.2 9.7
      vertex 2 60.8 5.4
    endloop
  endfacet
  facet normal 1 0 0
    outer loop
      vertex 2 71.8 14
      vertex 2 52.2 9.7
      vertex 2 60.8 9.7
    endloop
  endfacet
  facet normal 1 0 0
    outer loop
      vertex 2 71.8 14
      vertex 2 41.2 9.7
      vertex 2 52.2 9.7
    endloop
  endfacet
  facet normal 1 0 0
    outer loop
      vertex 2 41.2 9.7
      vertex 2 32.6 9.7
      vertex 2 41.2 5.4
    endloop
  endfacet
  facet normal 1 0 0
    outer loop
      vertex 2 71.8 14
      vertex 2 32.6 9.7
      vertex 2 41.2 9.7
    endloop
  endfacet
  facet normal 1 -0 0
    outer loop
      vertex 2 2 14
      vertex 2 32.6 9.7
      vertex 2 71.8 14
    endloop
  endfacet
  facet normal 1 0 0
    outer loop
      vertex 2 21.6 9.7
      vertex 2 13 9.7
      vertex 2 21.6 5.4
    endloop
  endfacet
  facet normal 1 0 0
    outer loop
      vertex 2 32.6 9.7
      vertex 2 2 14
      vertex 2 21.6 9.7
    endloop
  endfacet
  facet normal 1 0 0
    outer loop
      vertex 2 21.6 9.7
      vertex 2 2 14
      vertex 2 13 9.7
    endloop
  endfacet
  facet normal 1 0 0
    outer loop
      vertex 2 13 9.7
      vertex 2 2 14
      vertex 2 2 9.7
    endloop
  endfacet
  facet normal 1 0 0
    outer loop
      vertex 2 60.8 5.4
      vertex 2 52.2 9.7
      vertex 2 52.2 5.4
    endloop
  endfacet
  facet normal 1 0 0
    outer loop
      vertex 2 41.2 5.4
      vertex 2 32.6 9.7
      vertex 2 32.6 5.4
    endloop
  endfacet
  facet normal 1 0 0
    outer loop
      vertex 2 21.6 5.4
      vertex 2 13 9.7
      vertex 2 13 5.4
    endloop
  endfacet
  facet normal 0 0 1
    outer loop
      vertex 45.5 52.2 14
      vertex 36.9 71.8 14
      vertex 36.9 52.2 14
    endloop
  endfacet
  facet normal 0 0 1
    outer loop
      vertex 46.02 74.71 14
      vertex 25 82 14
      vertex 36.9 71.8 14
    endloop
  endfacet
  facet normal 0 0 1
    outer loop
      vertex 2 71.8 14
      vertex 25 82 14
      vertex 2 82 14
    endloop
  endfacet
  facet normal 0 0 1
    outer loop
      vertex 25 82 14
      vertex 2 71.8 14
      vertex 36.9 71.8 14
    endloop
  endfacet
  facet normal 0 0 1
    outer loop
      vertex 4 102 14
      vertex 2 100 14
      vertex 4 100 14
    endloop
  endfacet
  facet normal 0 0 1
    outer loop
      vertex 0 102 14
      vertex 2 82 14
      vertex 2 100 14
    endloop
  endfacet
  facet normal 0 0 1
    outer loop
      vertex 2 82 14
      vertex 0 102 14
      vertex 2 71.8 14
    endloop
  endfacet
  facet normal 0 0 1
    outer loop
      vertex 0 0 14
      vertex 2 71.8 14
      vertex 0 102 14
    endloop
  endfacet
  facet normal -0 0 1
    outer loop
      vertex 0 102 14
      vertex 2 100 14
      vertex 4 102 14
    endloop
  endfacet
  facet normal 0 0 1
    outer loop
      vertex 108 74.71 14
      vertex 99.4 71.8 14
      vertex 108 52.2 14
    endloop
  endfacet
  facet normal 0 0 1
    outer loop
      vertex 108 74.71 14
      vertex 64.5 71.8 14
      vertex 99.4 71.8 14
    endloop
  endfacet
  facet normal 0 0 1
    outer loop
      vertex 64.5 71.8 14
      vertex 62.7 51 14
      vertex 64.5 2 14
    endloop
  endfacet
  facet normal 0 0 1
    outer loop
      vertex 64.5 71.8 14
      vertex 62.4581 52.9149 14
      vertex 62.7 51 14
    endloop
  endfacet
  facet normal 0 0 1
    outer loop
      vertex 64.5 71.8 14
      vertex 61.7476 54.7095 14
      vertex 62.4581 52.9149 14
    endloop
  endfacet
  facet normal 0 0 1
    outer loop
      vertex 64.5 71.8 14
      vertex 60.6131 56.271 14
      vertex 61.7476 54.7095 14
    endloop
  endfacet
  facet normal 0 0 1
    outer loop
      vertex 64.5 71.8 14
      vertex 59.1259 57.5013 14
      vertex 60.6131 56.271 14
    endloop
  endfacet
  facet normal 0 0 1
    outer loop
      vertex 64.5 71.8 14
      vertex 57.3794 58.3231 14
      vertex 59.1259 57.5013 14
    endloop
  endfacet
  facet normal 0 0 1
    outer loop
      vertex 64.5 71.8 14
      vertex 55.4835 58.6848 14
      vertex 57.3794 58.3231 14
    endloop
  endfacet
  facet normal 0 0 1
    outer loop
      vertex 46.02 74.71 14
      vertex 55.4835 58.6848 14
      vertex 64.5 71.8 14
    endloop
  endfacet
  facet normal 0 0 1
    outer loop
      vertex 55.4835 58.6848 14
      vertex 46.02 74.71 14
      vertex 53.5572 58.5636 14
    endloop
  endfacet
  facet normal 0 0 1
    outer loop
      vertex 53.5572 58.5636 14
      vertex 46.02 74.71 14
      vertex 51.7215 57.9672 14
    endloop
  endfacet
  facet normal 0 0 1
    outer loop
      vertex 47.8407 53.8346 14
      vertex 45.5 52.2 14
      vertex 47.3607 51.9651 14
    endloop
  endfacet
  facet normal 0 0 1
    outer loop
      vertex 48.7706 55.5259 14
      vertex 45.5 52.2 14
      vertex 47.8407 53.8346 14
    endloop
  endfacet
  facet normal 0 0 1
    outer loop
      vertex 45.5 52.2 14
      vertex 48.7706 55.5259 14
      vertex 46.02 74.71 14
    endloop
  endfacet
  facet normal 0 0 1
    outer loop
      vertex 50.0918 56.933 14
      vertex 46.02 74.71 14
      vertex 48.7706 55.5259 14
    endloop
  endfacet
  facet normal 0 0 1
    outer loop
      vertex 51.7215 57.9672 14
      vertex 46.02 74.71 14
      vertex 50.0918 56.933 14
    endloop
  endfacet
  facet normal -0 0 1
    outer loop
      vertex 46.02 74.71 14
      vertex 64.5 71.8 14
      vertex 108 74.71 14
    endloop
  endfacet
  facet normal 0 0 1
    outer loop
      vertex 108 74.71 14
      vertex 110 102 14
      vertex 108 100 14
    endloop
  endfacet
  facet normal 0 0 1
    outer loop
      vertex 110 102 14
      vertex 46.02 100 14
      vertex 108 100 14
    endloop
  endfacet
  facet normal -0 0 1
    outer loop
      vertex 25 82 14
      vertex 46.02 74.71 14
      vertex 46.02 100 14
    endloop
  endfacet
  facet normal 0 0 1
    outer loop
      vertex 46.02 74.71 14
      vertex 36.9 71.8 14
      vertex 45.5 52.2 14
    endloop
  endfacet
  facet normal 0 0 1
    outer loop
      vertex 25 82 14
      vertex 46.02 100 14
      vertex 25 100 14
    endloop
  endfacet
  facet normal -0 0 1
    outer loop
      vertex 23 102 14
      vertex 46.02 100 14
      vertex 110 102 14
    endloop
  endfacet
  facet normal 0 0 1
    outer loop
      vertex 46.02 100 14
      vertex 23 102 14
      vertex 25 100 14
    endloop
  endfacet
  facet normal 0 0 1
    outer loop
      vertex 25 100 14
      vertex 23 102 14
      vertex 23 100 14
    endloop
  endfacet
  facet normal 0 0 1
    outer loop
      vertex 108 52.2 14
      vertex 110 102 14
      vertex 108 74.71 14
    endloop
  endfacet
  facet normal 0 0 1
    outer loop
      vertex 110 102 14
      vertex 108 52.2 14
      vertex 110 0 14
    endloop
  endfacet
  facet normal -0 0 1
    outer loop
      vertex 108 2 14
      vertex 110 0 14
      vertex 108 52.2 14
    endloop
  endfacet
  facet normal -0 0 1
    outer loop
      vertex 64.5 2 14
      vertex 110 0 14
      vertex 108 2 14
    endloop
  endfacet
  facet normal -0 0 1
    outer loop
      vertex 62.4581 49.0851 14
      vertex 64.5 2 14
      vertex 62.7 51 14
    endloop
  endfacet
  facet normal -0 0 1
    outer loop
      vertex 61.7476 47.2905 14
      vertex 64.5 2 14
      vertex 62.4581 49.0851 14
    endloop
  endfacet
  facet normal -0 0 1
    outer loop
      vertex 60.6131 45.729 14
      vertex 64.5 2 14
      vertex 61.7476 47.2905 14
    endloop
  endfacet
  facet normal -0 0 1
    outer loop
      vertex 59.1259 44.4987 14
      vertex 64.5 2 14
      vertex 60.6131 45.729 14
    endloop
  endfacet
  facet normal -0 0 1
    outer loop
      vertex 57.3794 43.6769 14
      vertex 64.5 2 14
      vertex 59.1259 44.4987 14
    endloop
  endfacet
  facet normal -0 0 1
    outer loop
      vertex 55.4835 43.3152 14
      vertex 64.5 2 14
      vertex 57.3794 43.6769 14
    endloop
  endfacet
  facet normal 0 0 1
    outer loop
      vertex 45.5 2 14
      vertex 55.4835 43.3152 14
      vertex 53.5572 43.4364 14
    endloop
  endfacet
  facet normal 0 0 1
    outer loop
      vertex 45.5 2 14
      vertex 53.5572 43.4364 14
      vertex 51.7215 44.0328 14
    endloop
  endfacet
  facet normal 0 0 1
    outer loop
      vertex 45.5 2 14
      vertex 51.7215 44.0328 14
      vertex 50.0918 45.067 14
    endloop
  endfacet
  facet normal 0 0 1
    outer loop
      vertex 45.5 2 14
      vertex 50.0918 45.067 14
      vertex 48.7706 46.4741 14
    endloop
  endfacet
  facet normal 0 0 1
    outer loop
      vertex 45.5 2 14
      vertex 48.7706 46.4741 14
      vertex 47.8407 48.1654 14
    endloop
  endfacet
  facet normal 0 0 1
    outer loop
      vertex 47.3607 51.9651 14
      vertex 45.5 52.2 14
      vertex 47.3607 50.0349 14
    endloop
  endfacet
  facet normal 0 0 1
    outer loop
      vertex 45.5 52.2 14
      vertex 47.8407 48.1654 14
      vertex 47.3607 50.0349 14
    endloop
  endfacet
  facet normal 0 0 1
    outer loop
      vertex 45.5 2 14
      vertex 47.8407 48.1654 14
      vertex 45.5 52.2 14
    endloop
  endfacet
  facet normal 0 0 1
    outer loop
      vertex 55.4835 43.3152 14
      vertex 45.5 2 14
      vertex 64.5 2 14
    endloop
  endfacet
  facet normal -0 0 1
    outer loop
      vertex 45.5 2 14
      vertex 110 0 14
      vertex 64.5 2 14
    endloop
  endfacet
  facet normal 0 0 1
    outer loop
      vertex 0 0 14
      vertex 45.5 2 14
      vertex 2 2 14
    endloop
  endfacet
  facet normal 0 0 1
    outer loop
      vertex 45.5 2 14
      vertex 0 0 14
      vertex 110 0 14
    endloop
  endfacet
  facet normal 0 0 1
    outer loop
      vertex 2 71.8 14
      vertex 0 0 14
      vertex 2 2 14
    endloop
  endfacet
  facet normal 0 0 1
    outer loop
      vertex 108 52.2 14
      vertex 99.4 71.8 14
      vertex 99.4 52.2 14
    endloop
  endfacet
  facet normal -1 0 0
    outer loop
      vertex 45.5 21.6 5.4
      vertex 45.5 13 5.4
      vertex 45.5 21.6 9.7
    endloop
  endfacet
  facet normal -1 0 0
    outer loop
      vertex 45.5 41.2 5.4
      vertex 45.5 32.6 5.4
      vertex 45.5 41.2 9.7
    endloop
  endfacet
  facet normal -1 0 0
    outer loop
      vertex 45.5 41.2 9.7
      vertex 45.5 52.2 14
      vertex 45.5 52.2 9.7
    endloop
  endfacet
  facet normal -1 0 0
    outer loop
      vertex 45.5 32.6 9.7
      vertex 45.5 41.2 9.7
      vertex 45.5 32.6 5.4
    endloop
  endfacet
  facet normal -1 0 0
    outer loop
      vertex 45.5 32.6 9.7
      vertex 45.5 52.2 14
      vertex 45.5 41.2 9.7
    endloop
  endfacet
  facet normal -1 0 0
    outer loop
      vertex 45.5 21.6 9.7
      vertex 45.5 52.2 14
      vertex 45.5 32.6 9.7
    endloop
  endfacet
  facet normal -1 0 0
    outer loop
      vertex 45.5 13 9.7
      vertex 45.5 21.6 9.7
      vertex 45.5 13 5.4
    endloop
  endfacet
  facet normal -1 0 0
    outer loop
      vertex 45.5 2 14
      vertex 45.5 21.6 9.7
      vertex 45.5 13 9.7
    endloop
  endfacet
  facet normal -1 0 0
    outer loop
      vertex 45.5 2 14
      vertex 45.5 13 9.7
      vertex 45.5 2 9.7
    endloop
  endfacet
  facet normal -1 0 0
    outer loop
      vertex 45.5 21.6 9.7
      vertex 45.5 2 14
      vertex 45.5 52.2 14
    endloop
  endfacet
  facet normal 0 1 -0
    outer loop
      vertex 45.5 13 5.4
      vertex 2 13 9.7
      vertex 45.5 13 9.7
    endloop
  endfacet
  facet normal 0 1 0
    outer loop
      vertex 2 13 9.7
      vertex 45.5 13 5.4
      vertex 2 13 5.4
    endloop
  endfacet
  facet normal -0 0 1
    outer loop
      vertex 2 13 9.7
      vertex 45.5 2 9.7
      vertex 45.5 13 9.7
    endloop
  endfacet
  facet normal 0 0 1
    outer loop
      vertex 45.5 2 9.7
      vertex 2 13 9.7
      vertex 2 2 9.7
    endloop
  endfacet
  facet normal 0 1 -0
    outer loop
      vertex 45.5 2 9.7
      vertex 2 2 14
      vertex 45.5 2 14
    endloop
  endfacet
  facet normal 0 1 0
    outer loop
      vertex 2 2 14
      vertex 45.5 2 9.7
      vertex 2 2 9.7
    endloop
  endfacet
  facet normal 0 -1 0
    outer loop
      vertex 2 21.6 5.4
      vertex 45.5 21.6 9.7
      vertex 2 21.6 9.7
    endloop
  endfacet
  facet normal 0 -1 -0
    outer loop
      vertex 45.5 21.6 9.7
      vertex 2 21.6 5.4
      vertex 45.5 21.6 5.4
    endloop
  endfacet
  facet normal -0 0 1
    outer loop
      vertex 2 21.6 5.4
      vertex 45.5 13 5.4
      vertex 45.5 21.6 5.4
    endloop
  endfacet
  facet normal 0 0 1
    outer loop
      vertex 45.5 13 5.4
      vertex 2 21.6 5.4
      vertex 2 13 5.4
    endloop
  endfacet
  facet normal -0 0 1
    outer loop
      vertex 2 32.6 9.7
      vertex 45.5 21.6 9.7
      vertex 45.5 32.6 9.7
    endloop
  endfacet
  facet normal 0 0 1
    outer loop
      vertex 45.5 21.6 9.7
      vertex 2 32.6 9.7
      vertex 2 21.6 9.7
    endloop
  endfacet
  facet normal 0 1 -0
    outer loop
      vertex 45.5 32.6 5.4
      vertex 2 32.6 9.7
      vertex 45.5 32.6 9.7
    endloop
  endfacet
  facet normal 0 1 0
    outer loop
      vertex 2 32.6 9.7
      vertex 45.5 32.6 5.4
      vertex 2 32.6 5.4
    endloop
  endfacet
  facet normal 0 -1 0
    outer loop
      vertex 2 41.2 5.4
      vertex 45.5 41.2 9.7
      vertex 2 41.2 9.7
    endloop
  endfacet
  facet normal 0 -1 -0
    outer loop
      vertex 45.5 41.2 9.7
      vertex 2 41.2 5.4
      vertex 45.5 41.2 5.4
    endloop
  endfacet
  facet normal -0 0 1
    outer loop
      vertex 2 41.2 5.4
      vertex 45.5 32.6 5.4
      vertex 45.5 41.2 5.4
    endloop
  endfacet
  facet normal 0 0 1
    outer loop
      vertex 45.5 32.6 5.4
      vertex 2 41.2 5.4
      vertex 2 32.6 5.4
    endloop
  endfacet
  facet normal 0 -1 0
    outer loop
      vertex 36.9 52.2 9.7
      vertex 45.5 52.2 14
      vertex 36.9 52.2 14
    endloop
  endfacet
  facet normal 0 -1 -0
    outer loop
      vertex 45.5 52.2 14
      vertex 36.9 52.2 9.7
      vertex 45.5 52.2 9.7
    endloop
  endfacet
  facet normal -0 0 1
    outer loop
      vertex 36.9 52.2 9.7
      vertex 45.5 41.2 9.7
      vertex 45.5 52.2 9.7
    endloop
  endfacet
  facet normal 0 0 1
    outer loop
      vertex 2 41.2 9.7
      vertex 36.9 52.2 9.7
      vertex 2 52.2 9.7
    endloop
  endfacet
  facet normal 0 0 1
    outer loop
      vertex 36.9 52.2 9.7
      vertex 2 41.2 9.7
      vertex 45.5 41.2 9.7
    endloop
  endfacet
  facet normal -1 0 0
    outer loop
      vertex 36.9 60.8 5.4
      vertex 36.9 52.2 5.4
      vertex 36.9 60.8 9.7
    endloop
  endfacet
  facet normal -1 0 0
    outer loop
      vertex 36.9 60.8 9.7
      vertex 36.9 71.8 14
      vertex 36.9 71.8 9.7
    endloop
  endfacet
  facet normal -1 0 0
    outer loop
      vertex 36.9 52.2 9.7
      vertex 36.9 60.8 9.7
      vertex 36.9 52.2 5.4
    endloop
  endfacet
  facet normal -1 0 0
    outer loop
      vertex 36.9 52.2 14
      vertex 36.9 60.8 9.7
      vertex 36.9 52.2 9.7
    endloop
  endfacet
  facet normal -1 0 0
    outer loop
      vertex 36.9 60.8 9.7
      vertex 36.9 52.2 14
      vertex 36.9 71.8 14
    endloop
  endfacet
  facet normal 0 1 -0
    outer loop
      vertex 36.9 52.2 5.4
      vertex 2 52.2 9.7
      vertex 36.9 52.2 9.7
    endloop
  endfacet
  facet normal 0 1 0
    outer loop
      vertex 2 52.2 9.7
      vertex 36.9 52.2 5.4
      vertex 2 52.2 5.4
    endloop
  endfacet
  facet normal 0 -1 0
    outer loop
      vertex 2 60.8 5.4
      vertex 36.9 60.8 9.7
      vertex 2 60.8 9.7
    endloop
  endfacet
  facet normal 0 -1 -0
    outer loop
      vertex 36.9 60.8 9.7
      vertex 2 60.8 5.4
      vertex 36.9 60.8 5.4
    endloop
  endfacet
  facet normal -0 0 1
    outer loop
      vertex 2 60.8 5.4
      vertex 36.9 52.2 5.4
      vertex 36.9 60.8 5.4
    endloop
  endfacet
  facet normal 0 0 1
    outer loop
      vertex 36.9 52.2 5.4
      vertex 2 60.8 5.4
      vertex 2 52.2 5.4
    endloop
  endfacet
  facet normal 0 -1 0
    outer loop
      vertex 2 71.8 9.7
      vertex 36.9 71.8 14
      vertex 2 71.8 14
    endloop
  endfacet
  facet normal 0 -1 -0
    outer loop
      vertex 36.9 71.8 14
      vertex 2 71.8 9.7
      vertex 36.9 71.8 9.7
    endloop
  endfacet
  facet normal -0 0 1
    outer loop
      vertex 2 71.8 9.7
      vertex 36.9 60.8 9.7
      vertex 36.9 71.8 9.7
    endloop
  endfacet
  facet normal 0 0 1
    outer loop
      vertex 36.9 60.8 9.7
      vertex 2 71.8 9.7
      vertex 2 60.8 9.7
    endloop
  endfacet
  facet normal 1 0 0
    outer loop
      vertex 64.5 71.8 14
      vertex 64.5 60.8 9.7
      vertex 64.5 71.8 9.7
    endloop
  endfacet
  facet normal 1 0 0
    outer loop
      vertex 64.5 60.8 9.7
      vertex 64.5 52.2 9.7
      vertex 64.5 60.8 5.4
    endloop
  endfacet
  facet normal 1 0 0
    outer loop
      vertex 64.5 71.8 14
      vertex 64.5 52.2 9.7
      vertex 64.5 60.8 9.7
    endloop
  endfacet
  facet normal 1 0 0
    outer loop
      vertex 64.5 71.8 14
      vertex 64.5 41.2 9.7
      vertex 64.5 52.2 9.7
    endloop
  endfacet
  facet normal 1 0 0
    outer loop
      vertex 64.5 41.2 9.7
      vertex 64.5 32.6 9.7
      vertex 64.5 41.2 5.4
    endloop
  endfacet
  facet normal 1 0 0
    outer loop
      vertex 64.5 71.8 14
      vertex 64.5 32.6 9.7
      vertex 64.5 41.2 9.7
    endloop
  endfacet
  facet normal 1 -0 0
    outer loop
      vertex 64.5 2 14
      vertex 64.5 32.6 9.7
      vertex 64.5 71.8 14
    endloop
  endfacet
  facet normal 1 0 0
    outer loop
      vertex 64.5 21.6 9.7
      vertex 64.5 13 9.7
      vertex 64.5 21.6 5.4
    endloop
  endfacet
  facet normal 1 0 0
    outer loop
      vertex 64.5 32.6 9.7
      vertex 64.5 2 14
      vertex 64.5 21.6 9.7
    endloop
  endfacet
  facet normal 1 0 0
    outer loop
      vertex 64.5 21.6 9.7
      vertex 64.5 2 14
      vertex 64.5 13 9.7
    endloop
  endfacet
  facet normal 1 0 0
    outer loop
      vertex 64.5 13 9.7
      vertex 64.5 2 14
      vertex 64.5 2 9.7
    endloop
  endfacet
  facet normal 1 0 0
    outer loop
      vertex 64.5 60.8 5.4
      vertex 64.5 52.2 9.7
      vertex 64.5 52.2 5.4
    endloop
  endfacet
  facet normal 1 0 0
    outer loop
      vertex 64.5 41.2 5.4
      vertex 64.5 32.6 9.7
      vertex 64.5 32.6 5.4
    endloop
  endfacet
  facet normal 1 0 0
    outer loop
      vertex 64.5 21.6 5.4
      vertex 64.5 13 9.7
      vertex 64.5 13 5.4
    endloop
  endfacet
  facet normal -1 0 0
    outer loop
      vertex 108 21.6 5.4
      vertex 108 13 5.4
      vertex 108 21.6 9.7
    endloop
  endfacet
  facet normal -1 0 0
    outer loop
      vertex 108 41.2 5.4
      vertex 108 32.6 5.4
      vertex 108 41.2 9.7
    endloop
  endfacet
  facet normal -1 0 0
    outer loop
      vertex 108 41.2 9.7
      vertex 108 52.2 14
      vertex 108 52.2 9.7
    endloop
  endfacet
  facet normal -1 0 0
    outer loop
      vertex 108 32.6 9.7
      vertex 108 41.2 9.7
      vertex 108 32.6 5.4
    endloop
  endfacet
  facet normal -1 0 0
    outer loop
      vertex 108 32.6 9.7
      vertex 108 52.2 14
      vertex 108 41.2 9.7
    endloop
  endfacet
  facet normal -1 0 0
    outer loop
      vertex 108 21.6 9.7
      vertex 108 52.2 14
      vertex 108 32.6 9.7
    endloop
  endfacet
  facet normal -1 0 0
    outer loop
      vertex 108 13 9.7
      vertex 108 21.6 9.7
      vertex 108 13 5.4
    endloop
  endfacet
  facet normal -1 0 0
    outer loop
      vertex 108 2 14
      vertex 108 21.6 9.7
      vertex 108 13 9.7
    endloop
  endfacet
  facet normal -1 0 0
    outer loop
      vertex 108 2 14
      vertex 108 13 9.7
      vertex 108 2 9.7
    endloop
  endfacet
  facet normal -1 0 0
    outer loop
      vertex 108 21.6 9.7
      vertex 108 2 14
      vertex 108 52.2 14
    endloop
  endfacet
  facet normal 0 1 -0
    outer loop
      vertex 108 13 5.4
      vertex 64.5 13 9.7
      vertex 108 13 9.7
    endloop
  endfacet
  facet normal 0 1 0
    outer loop
      vertex 64.5 13 9.7
      vertex 108 13 5.4
      vertex 64.5 13 5.4
    endloop
  endfacet
  facet normal -0 0 1
    outer loop
      vertex 64.5 13 9.7
      vertex 108 2 9.7
      vertex 108 13 9.7
    endloop
  endfacet
  facet normal 0 0 1
    outer loop
      vertex 108 2 9.7
      vertex 64.5 13 9.7
      vertex 64.5 2 9.7
    endloop
  endfacet
  facet normal 0 1 -0
    outer loop
      vertex 108 2 9.7
      vertex 64.5 2 14
      vertex 108 2 14
    endloop
  endfacet
  facet normal 0 1 0
    outer loop
      vertex 64.5 2 14
      vertex 108 2 9.7
      vertex 64.5 2 9.7
    endloop
  endfacet
  facet normal 0 -1 0
    outer loop
      vertex 64.5 21.6 5.4
      vertex 108 21.6 9.7
      vertex 64.5 21.6 9.7
    endloop
  endfacet
  facet normal 0 -1 -0
    outer loop
      vertex 108 21.6 9.7
      vertex 64.5 21.6 5.4
      vertex 108 21.6 5.4
    endloop
  endfacet
  facet normal -0 0 1
    outer loop
      vertex 64.5 21.6 5.4
      vertex 108 13 5.4
      vertex 108 21.6 5.4
    endloop
  endfacet
  facet normal 0 0 1
    outer loop
      vertex 108 13 5.4
      vertex 64.5 21.6 5.4
      vertex 64.5 13 5.4
    endloop
  endfacet
  facet normal -0 0 1
    outer loop
      vertex 64.5 32.6 9.7
      vertex 108 21.6 9.7
      vertex 108 32.6 9.7
    endloop
  endfacet
  facet normal 0 0 1
    outer loop
      vertex 108 21.6 9.7
      vertex 64.5 32.6 9.7
      vertex 64.5 21.6 9.7
    endloop
  endfacet
  facet normal 0 1 -0
    outer loop
      vertex 108 32.6 5.4
      vertex 64.5 32.6 9.7
      vertex 108 32.6 9.7
    endloop
  endfacet
  facet normal 0 1 0
    outer loop
      vertex 64.5 32.6 9.7
      vertex 108 32.6 5.4
      vertex 64.5 32.6 5.4
    endloop
  endfacet
  facet normal 0 -1 0
    outer loop
      vertex 64.5 41.2 5.4
      vertex 108 41.2 9.7
      vertex 64.5 41.2 9.7
    endloop
  endfacet
  facet normal 0 -1 -0
    outer loop
      vertex 108 41.2 9.7
      vertex 64.5 41.2 5.4
      vertex 108 41.2 5.4
    endloop
  endfacet
  facet normal -0 0 1
    outer loop
      vertex 64.5 41.2 5.4
      vertex 108 32.6 5.4
      vertex 108 41.2 5.4
    endloop
  endfacet
  facet normal 0 0 1
    outer loop
      vertex 108 32.6 5.4
      vertex 64.5 41.2 5.4
      vertex 64.5 32.6 5.4
    endloop
  endfacet
  facet normal 0 -1 0
    outer loop
      vertex 99.4 52.2 9.7
      vertex 108 52.2 14
      vertex 99.4 52.2 14
    endloop
  endfacet
  facet normal 0 -1 -0
    outer loop
      vertex 108 52.2 14
      vertex 99.4 52.2 9.7
      vertex 108 52.2 9.7
    endloop
  endfacet
  facet normal -0 0 1
    outer loop
      vertex 99.4 52.2 9.7
      vertex 108 41.2 9.7
      vertex 108 52.2 9.7
    endloop
  endfacet
  facet normal 0 0 1
    outer loop
      vertex 64.5 41.2 9.7
      vertex 99.4 52.2 9.7
      vertex 64.5 52.2 9.7
    endloop
  endfacet
  facet normal 0 0 1
    outer loop
      vertex 99.4 52.2 9.7
      vertex 64.5 41.2 9.7
      vertex 108 41.2 9.7
    endloop
  endfacet
  facet normal -1 0 0
    outer loop
      vertex 99.4 60.8 5.4
      vertex 99.4 52.2 5.4
      vertex 99.4 60.8 9.7
    endloop
  endfacet
  facet normal -1 0 0
    outer loop
      vertex 99.4 60.8 9.7
      vertex 99.4 71.8 14
      vertex 99.4 71.8 9.7
    endloop
  endfacet
  facet normal -1 0 0
    outer loop
      vertex 99.4 52.2 9.7
      vertex 99.4 60.8 9.7
      vertex 99.4 52.2 5.4
    endloop
  endfacet
  facet normal -1 0 0
    outer loop
      vertex 99.4 52.2 14
      vertex 99.4 60.8 9.7
      vertex 99.4 52.2 9.7
    endloop
  endfacet
  facet normal -1 0 0
    outer loop
      vertex 99.4 60.8 9.7
      vertex 99.4 52.2 14
      vertex 99.4 71.8 14
    endloop
  endfacet
  facet normal 0 1 -0
    outer loop
      vertex 99.4 52.2 5.4
      vertex 64.5 52.2 9.7
      vertex 99.4 52.2 9.7
    endloop
  endfacet
  facet normal 0 1 0
    outer loop
      vertex 64.5 52.2 9.7
      vertex 99.4 52.2 5.4
      vertex 64.5 52.2 5.4
    endloop
  endfacet
  facet normal 0 -1 0
    outer loop
      vertex 64.5 60.8 5.4
      vertex 99.4 60.8 9.7
      vertex 64.5 60.8 9.7
    endloop
  endfacet
  facet normal 0 -1 -0
    outer loop
      vertex 99.4 60.8 9.7
      vertex 64.5 60.8 5.4
      vertex 99.4 60.8 5.4
    endloop
  endfacet
  facet normal -0 0 1
    outer loop
      vertex 64.5 60.8 5.4
      vertex 99.4 52.2 5.4
      vertex 99.4 60.8 5.4
    endloop
  endfacet
  facet normal 0 0 1
    outer loop
      vertex 99.4 52.2 5.4
      vertex 64.5 60.8 5.4
      vertex 64.5 52.2 5.4
    endloop
  endfacet
  facet normal 0 -1 0
    outer loop
      vertex 64.5 71.8 9.7
      vertex 99.4 71.8 14
      vertex 64.5 71.8 14
    endloop
  endfacet
  facet normal 0 -1 -0
    outer loop
      vertex 99.4 71.8 14
      vertex 64.5 71.8 9.7
      vertex 99.4 71.8 9.7
    endloop
  endfacet
  facet normal -0 0 1
    outer loop
      vertex 64.5 71.8 9.7
      vertex 99.4 60.8 9.7
      vertex 99.4 71.8 9.7
    endloop
  endfacet
  facet normal 0 0 1
    outer loop
      vertex 99.4 60.8 9.7
      vertex 64.5 71.8 9.7
      vertex 64.5 60.8 9.7
    endloop
  endfacet
  facet normal 0 1 -0
    outer loop
      vertex 97 74.71 3.49
      vertex 57.02 74.71 8.745
      vertex 97 74.71 8.745
    endloop
  endfacet
  facet normal 0 1 0
    outer loop
      vertex 57.02 74.71 8.745
      vertex 97 74.71 3.49
      vertex 57.02 74.71 3.49
    endloop
  endfacet
  facet normal 0 1 0
    outer loop
      vertex 97 74.71 8.745
      vertex 108 74.71 14
      vertex 108 74.71 8.745
    endloop
  endfacet
  facet normal 0 1 0
    outer loop
      vertex 108 74.71 14
      vertex 97 74.71 8.745
      vertex 46.02 74.71 14
    endloop
  endfacet
  facet normal 0 1 -0
    outer loop
      vertex 57.02 74.71 8.745
      vertex 46.02 74.71 14
      vertex 97 74.71 8.745
    endloop
  endfacet
  facet normal 0 1 0
    outer loop
      vertex 46.02 74.71 14
      vertex 57.02 74.71 8.745
      vertex 46.02 74.71 8.745
    endloop
  endfacet
  facet normal 0 -1 0
    outer loop
      vertex 57.02 100 3.49
      vertex 97 100 8.745
      vertex 57.02 100 8.745
    endloop
  endfacet
  facet normal 0 -1 -0
    outer loop
      vertex 97 100 8.745
      vertex 57.02 100 3.49
      vertex 97 100 3.49
    endloop
  endfacet
  facet normal 0 -1 0
    outer loop
      vertex 57.02 100 8.745
      vertex 46.02 100 14
      vertex 46.02 100 8.745
    endloop
  endfacet
  facet normal 0 -1 0
    outer loop
      vertex 46.02 100 14
      vertex 57.02 100 8.745
      vertex 108 100 14
    endloop
  endfacet
  facet normal 0 -1 0
    outer loop
      vertex 97 100 8.745
      vertex 108 100 14
      vertex 57.02 100 8.745
    endloop
  endfacet
  facet normal 0 -1 -0
    outer loop
      vertex 108 100 14
      vertex 97 100 8.745
      vertex 108 100 8.745
    endloop
  endfacet
  facet normal -1 0 0
    outer loop
      vertex 97 74.71 3.49
      vertex 97 100 8.745
      vertex 97 100 3.49
    endloop
  endfacet
  facet normal -1 -0 0
    outer loop
      vertex 97 100 8.745
      vertex 97 74.71 3.49
      vertex 97 74.71 8.745
    endloop
  endfacet
  facet normal -0 0 1
    outer loop
      vertex 97 100 8.745
      vertex 108 74.71 8.745
      vertex 108 100 8.745
    endloop
  endfacet
  facet normal 0 0 1
    outer loop
      vertex 108 74.71 8.745
      vertex 97 100 8.745
      vertex 97 74.71 8.745
    endloop
  endfacet
  facet normal -1 0 0
    outer loop
      vertex 108 74.71 8.745
      vertex 108 100 14
      vertex 108 100 8.745
    endloop
  endfacet
  facet normal -1 -0 0
    outer loop
      vertex 108 100 14
      vertex 108 74.71 8.745
      vertex 108 74.71 14
    endloop
  endfacet
  facet normal 1 -0 0
    outer loop
      vertex 57.02 74.71 8.745
      vertex 57.02 100 3.49
      vertex 57.02 100 8.745
    endloop
  endfacet
  facet normal 1 0 0
    outer loop
      vertex 57.02 100 3.49
      vertex 57.02 74.71 8.745
      vertex 57.02 74.71 3.49
    endloop
  endfacet
  facet normal -0 0 1
    outer loop
      vertex 57.02 100 3.49
      vertex 97 74.71 3.49
      vertex 97 100 3.49
    endloop
  endfacet
  facet normal 0 0 1
    outer loop
      vertex 97 74.71 3.49
      vertex 57.02 100 3.49
      vertex 57.02 74.71 3.49
    endloop
  endfacet
  facet normal 1 -0 0
    outer loop
      vertex 46.02 74.71 14
      vertex 46.02 100 8.745
      vertex 46.02 100 14
    endloop
  endfacet
  facet normal 1 0 0
    outer loop
      vertex 46.02 100 8.745
      vertex 46.02 74.71 14
      vertex 46.02 74.71 8.745
    endloop
  endfacet
  facet normal -0 0 1
    outer loop
      vertex 46.02 100 8.745
      vertex 57.02 74.71 8.745
      vertex 57.02 100 8.745
    endloop
  endfacet
  facet normal 0 0 1
    outer loop
      vertex 57.02 74.71 8.745
      vertex 46.02 100 8.745
      vertex 46.02 74.71 8.745
    endloop
  endfacet
  facet normal -1 0 0
    outer loop
      vertex 0 0 0
      vertex 0 102 14
      vertex 0 102 0
    endloop
  endfacet
  facet normal -1 -0 0
    outer loop
      vertex 0 102 14
      vertex 0 0 0
      vertex 0 0 14
    endloop
  endfacet
  facet normal 1 -0 0
    outer loop
      vertex 110 0 14
      vertex 110 102 0
      vertex 110 102 14
    endloop
  endfacet
  facet normal 1 0 0
    outer loop
      vertex 110 102 0
      vertex 110 0 14
      vertex 110 0 0
    endloop
  endfacet
  facet normal 0 1 -0
    outer loop
      vertex 110 102 0
      vertex 23 102 14
      vertex 110 102 14
    endloop
  endfacet
  facet normal 0 1 0
    outer loop
      vertex 23 102 14
      vertex 110 102 0
      vertex 23 102 0
    endloop
  endfacet
  facet normal 0 1 -0
    outer loop
      vertex 4 102 0
      vertex 0 102 14
      vertex 4 102 14
    endloop
  endfacet
  facet normal 0 1 0
    outer loop
      vertex 0 102 14
      vertex 4 102 0
      vertex 0 102 0
    endloop
  endfacet
  facet normal 0 0 -1
    outer loop
      vertex 110 0 0
      vertex 23 94.8 0
      vertex 110 102 0
    endloop
  endfacet
  facet normal 0 0 -1
    outer loop
      vertex 0 0 0
      vertex 23 94.8 0
      vertex 110 0 0
    endloop
  endfacet
  facet normal -0 0 -1
    outer loop
      vertex 23 94.8 0
      vertex 0 0 0
      vertex 4 94.8 0
    endloop
  endfacet
  facet normal 0 0 -1
    outer loop
      vertex 0 102 0
      vertex 4 94.8 0
      vertex 0 0 0
    endloop
  endfacet
  facet normal 0 0 -1
    outer loop
      vertex 4 94.8 0
      vertex 0 102 0
      vertex 4 102 0
    endloop
  endfacet
  facet normal -0 0 -1
    outer loop
      vertex 110 102 0
      vertex 23 94.8 0
      vertex 23 102 0
    endloop
  endfacet
  facet normal 0 -1 0
    outer loop
      vertex 0 0 0
      vertex 110 0 14
      vertex 0 0 14
    endloop
  endfacet
  facet normal 0 -1 -0
    outer loop
      vertex 110 0 14
      vertex 0 0 0
      vertex 110 0 0
    endloop
  endfacet
  facet normal -0.992115 -0.125333 0
    outer loop
      vertex 62.7 51 10
      vertex 62.4581 52.9149 14
      vertex 62.4581 52.9149 10
    endloop
  endfacet
  facet normal -0.992115 -0.125333 0
    outer loop
      vertex 62.4581 52.9149 14
      vertex 62.7 51 10
      vertex 62.7 51 14
    endloop
  endfacet
  facet normal 1 -0 0
    outer loop
      vertex 47.3607 50.0349 14
      vertex 47.3607 51.9651 10
      vertex 47.3607 51.9651 14
    endloop
  endfacet
  facet normal 1 0 0
    outer loop
      vertex 47.3607 51.9651 10
      vertex 47.3607 50.0349 14
      vertex 47.3607 50.0349 10
    endloop
  endfacet
  facet normal 0.062792 -0.998027 0
    outer loop
      vertex 53.5572 58.5636 10
      vertex 55.4835 58.6848 14
      vertex 53.5572 58.5636 14
    endloop
  endfacet
  facet normal 0.062792 -0.998027 0
    outer loop
      vertex 55.4835 58.6848 14
      vertex 53.5572 58.5636 10
      vertex 55.4835 58.6848 10
    endloop
  endfacet
  facet normal -0.187381 0.982287 0
    outer loop
      vertex 57.3794 43.6769 10
      vertex 55.4835 43.3152 14
      vertex 57.3794 43.6769 14
    endloop
  endfacet
  facet normal -0.187381 0.982287 0
    outer loop
      vertex 55.4835 43.3152 14
      vertex 57.3794 43.6769 10
      vertex 55.4835 43.3152 10
    endloop
  endfacet
  facet normal -0.637424 -0.770514 0
    outer loop
      vertex 59.1259 57.5013 10
      vertex 60.6131 56.271 14
      vertex 59.1259 57.5013 14
    endloop
  endfacet
  facet normal -0.637424 -0.770514 -0
    outer loop
      vertex 60.6131 56.271 14
      vertex 59.1259 57.5013 10
      vertex 60.6131 56.271 10
    endloop
  endfacet
  facet normal -0.42578 -0.904827 0
    outer loop
      vertex 57.3794 58.3231 10
      vertex 59.1259 57.5013 14
      vertex 57.3794 58.3231 14
    endloop
  endfacet
  facet normal -0.42578 -0.904827 -0
    outer loop
      vertex 59.1259 57.5013 14
      vertex 57.3794 58.3231 10
      vertex 59.1259 57.5013 10
    endloop
  endfacet
  facet normal 0.728969 -0.684547 0
    outer loop
      vertex 48.7706 55.5259 14
      vertex 50.0918 56.933 10
      vertex 50.0918 56.933 14
    endloop
  endfacet
  facet normal 0.728969 -0.684547 0
    outer loop
      vertex 50.0918 56.933 10
      vertex 48.7706 55.5259 14
      vertex 48.7706 55.5259 10
    endloop
  endfacet
  facet normal 0.876307 -0.481753 0
    outer loop
      vertex 47.8407 53.8346 14
      vertex 48.7706 55.5259 10
      vertex 48.7706 55.5259 14
    endloop
  endfacet
  facet normal 0.876307 -0.481753 0
    outer loop
      vertex 48.7706 55.5259 10
      vertex 47.8407 53.8346 14
      vertex 47.8407 53.8346 10
    endloop
  endfacet
  facet normal 0.535826 -0.844329 0
    outer loop
      vertex 50.0918 56.933 10
      vertex 51.7215 57.9672 14
      vertex 50.0918 56.933 14
    endloop
  endfacet
  facet normal 0.535826 -0.844329 0
    outer loop
      vertex 51.7215 57.9672 14
      vertex 50.0918 56.933 10
      vertex 51.7215 57.9672 10
    endloop
  endfacet
  facet normal 0 0 1
    outer loop
      vertex 62.4581 52.9149 10
      vertex 62.4581 49.0851 10
      vertex 62.7 51 10
    endloop
  endfacet
  facet normal 0 0 1
    outer loop
      vertex 61.7476 54.7095 10
      vertex 62.4581 49.0851 10
      vertex 62.4581 52.9149 10
    endloop
  endfacet
  facet normal 0 0 1
    outer loop
      vertex 61.7476 54.7095 10
      vertex 61.7476 47.2905 10
      vertex 62.4581 49.0851 10
    endloop
  endfacet
  facet normal 0 0 1
    outer loop
      vertex 60.6131 56.271 10
      vertex 61.7476 47.2905 10
      vertex 61.7476 54.7095 10
    endloop
  endfacet
  facet normal 0 0 1
    outer loop
      vertex 60.6131 56.271 10
      vertex 60.6131 45.729 10
      vertex 61.7476 47.2905 10
    endloop
  endfacet
  facet normal 0 0 1
    outer loop
      vertex 59.1259 57.5013 10
      vertex 60.6131 45.729 10
      vertex 60.6131 56.271 10
    endloop
  endfacet
  facet normal 0 0 1
    outer loop
      vertex 59.1259 57.5013 10
      vertex 59.1259 44.4987 10
      vertex 60.6131 45.729 10
    endloop
  endfacet
  facet normal 0 0 1
    outer loop
      vertex 57.3794 58.3231 10
      vertex 59.1259 44.4987 10
      vertex 59.1259 57.5013 10
    endloop
  endfacet
  facet normal 0 0 1
    outer loop
      vertex 57.3794 58.3231 10
      vertex 57.3794 43.6769 10
      vertex 59.1259 44.4987 10
    endloop
  endfacet
  facet normal 0 0 1
    outer loop
      vertex 55.4835 58.6848 10
      vertex 57.3794 43.6769 10
      vertex 57.3794 58.3231 10
    endloop
  endfacet
  facet normal 0 0 1
    outer loop
      vertex 55.4835 58.6848 10
      vertex 55.4835 43.3152 10
      vertex 57.3794 43.6769 10
    endloop
  endfacet
  facet normal -0 0 1
    outer loop
      vertex 53.5572 58.5636 10
      vertex 55.4835 43.3152 10
      vertex 55.4835 58.6848 10
    endloop
  endfacet
  facet normal 0 0 1
    outer loop
      vertex 53.5572 58.5636 10
      vertex 53.5572 43.4364 10
      vertex 55.4835 43.3152 10
    endloop
  endfacet
  facet normal -0 0 1
    outer loop
      vertex 51.7215 57.9672 10
      vertex 53.5572 43.4364 10
      vertex 53.5572 58.5636 10
    endloop
  endfacet
  facet normal 0 0 1
    outer loop
      vertex 51.7215 57.9672 10
      vertex 51.7215 44.0328 10
      vertex 53.5572 43.4364 10
    endloop
  endfacet
  facet normal -0 0 1
    outer loop
      vertex 50.0918 56.933 10
      vertex 51.7215 44.0328 10
      vertex 51.7215 57.9672 10
    endloop
  endfacet
  facet normal 0 0 1
    outer loop
      vertex 50.0918 56.933 10
      vertex 50.0918 45.067 10
      vertex 51.7215 44.0328 10
    endloop
  endfacet
  facet normal -0 0 1
    outer loop
      vertex 48.7706 55.5259 10
      vertex 50.0918 45.067 10
      vertex 50.0918 56.933 10
    endloop
  endfacet
  facet normal 0 0 1
    outer loop
      vertex 48.7706 55.5259 10
      vertex 48.7706 46.4741 10
      vertex 50.0918 45.067 10
    endloop
  endfacet
  facet normal -0 0 1
    outer loop
      vertex 47.8407 53.8346 10
      vertex 48.7706 46.4741 10
      vertex 48.7706 55.5259 10
    endloop
  endfacet
  facet normal 0 0 1
    outer loop
      vertex 47.8407 53.8346 10
      vertex 47.8407 48.1654 10
      vertex 48.7706 46.4741 10
    endloop
  endfacet
  facet normal -0 0 1
    outer loop
      vertex 47.3607 51.9651 10
      vertex 47.8407 48.1654 10
      vertex 47.8407 53.8346 10
    endloop
  endfacet
  facet normal 0 0 1
    outer loop
      vertex 47.8407 48.1654 10
      vertex 47.3607 51.9651 10
      vertex 47.3607 50.0349 10
    endloop
  endfacet
  facet normal -0.929776 0.368127 0
    outer loop
      vertex 61.7476 47.2905 10
      vertex 62.4581 49.0851 14
      vertex 62.4581 49.0851 10
    endloop
  endfacet
  facet normal -0.929776 0.368127 0
    outer loop
      vertex 62.4581 49.0851 14
      vertex 61.7476 47.2905 10
      vertex 61.7476 47.2905 14
    endloop
  endfacet
  facet normal -0.809018 -0.587784 0
    outer loop
      vertex 61.7476 54.7095 10
      vertex 60.6131 56.271 14
      vertex 60.6131 56.271 10
    endloop
  endfacet
  facet normal -0.809018 -0.587784 0
    outer loop
      vertex 60.6131 56.271 14
      vertex 61.7476 54.7095 10
      vertex 61.7476 54.7095 14
    endloop
  endfacet
  facet normal -0.929776 -0.368126 0
    outer loop
      vertex 62.4581 52.9149 10
      vertex 61.7476 54.7095 14
      vertex 61.7476 54.7095 10
    endloop
  endfacet
  facet normal -0.929776 -0.368126 0
    outer loop
      vertex 61.7476 54.7095 14
      vertex 62.4581 52.9149 10
      vertex 62.4581 52.9149 14
    endloop
  endfacet
  facet normal -0.187381 -0.982287 0
    outer loop
      vertex 55.4835 58.6848 10
      vertex 57.3794 58.3231 14
      vertex 55.4835 58.6848 14
    endloop
  endfacet
  facet normal -0.187381 -0.982287 -0
    outer loop
      vertex 57.3794 58.3231 14
      vertex 55.4835 58.6848 10
      vertex 57.3794 58.3231 10
    endloop
  endfacet
  facet normal 0.968583 -0.24869 0
    outer loop
      vertex 47.3607 51.9651 14
      vertex 47.8407 53.8346 10
      vertex 47.8407 53.8346 14
    endloop
  endfacet
  facet normal 0.968583 -0.24869 0
    outer loop
      vertex 47.8407 53.8346 10
      vertex 47.3607 51.9651 14
      vertex 47.3607 51.9651 10
    endloop
  endfacet
  facet normal 0.309017 -0.951056 0
    outer loop
      vertex 51.7215 57.9672 10
      vertex 53.5572 58.5636 14
      vertex 51.7215 57.9672 14
    endloop
  endfacet
  facet normal 0.309017 -0.951056 0
    outer loop
      vertex 53.5572 58.5636 14
      vertex 51.7215 57.9672 10
      vertex 53.5572 58.5636 10
    endloop
  endfacet
  facet normal -0.992115 0.125333 0
    outer loop
      vertex 62.4581 49.0851 10
      vertex 62.7 51 14
      vertex 62.7 51 10
    endloop
  endfacet
  facet normal -0.992115 0.125333 0
    outer loop
      vertex 62.7 51 14
      vertex 62.4581 49.0851 10
      vertex 62.4581 49.0851 14
    endloop
  endfacet
  facet normal -0.809018 0.587784 0
    outer loop
      vertex 60.6131 45.729 10
      vertex 61.7476 47.2905 14
      vertex 61.7476 47.2905 10
    endloop
  endfacet
  facet normal -0.809018 0.587784 0
    outer loop
      vertex 61.7476 47.2905 14
      vertex 60.6131 45.729 10
      vertex 60.6131 45.729 14
    endloop
  endfacet
  facet normal 0.535827 0.844328 -0
    outer loop
      vertex 51.7215 44.0328 10
      vertex 50.0918 45.067 14
      vertex 51.7215 44.0328 14
    endloop
  endfacet
  facet normal 0.535827 0.844328 0
    outer loop
      vertex 50.0918 45.067 14
      vertex 51.7215 44.0328 10
      vertex 50.0918 45.067 10
    endloop
  endfacet
  facet normal 0.876307 0.481754 0
    outer loop
      vertex 48.7706 46.4741 14
      vertex 47.8407 48.1654 10
      vertex 47.8407 48.1654 14
    endloop
  endfacet
  facet normal 0.876307 0.481754 0
    outer loop
      vertex 47.8407 48.1654 10
      vertex 48.7706 46.4741 14
      vertex 48.7706 46.4741 10
    endloop
  endfacet
  facet normal 0.968583 0.248689 0
    outer loop
      vertex 47.8407 48.1654 14
      vertex 47.3607 50.0349 10
      vertex 47.3607 50.0349 14
    endloop
  endfacet
  facet normal 0.968583 0.248689 0
    outer loop
      vertex 47.3607 50.0349 10
      vertex 47.8407 48.1654 14
      vertex 47.8407 48.1654 10
    endloop
  endfacet
  facet normal 0.728969 0.684547 0
    outer loop
      vertex 50.0918 45.067 14
      vertex 48.7706 46.4741 10
      vertex 48.7706 46.4741 14
    endloop
  endfacet
  facet normal 0.728969 0.684547 0
    outer loop
      vertex 48.7706 46.4741 10
      vertex 50.0918 45.067 14
      vertex 50.0918 45.067 10
    endloop
  endfacet
  facet normal 0.06279 0.998027 -0
    outer loop
      vertex 55.4835 43.3152 10
      vertex 53.5572 43.4364 14
      vertex 55.4835 43.3152 14
    endloop
  endfacet
  facet normal 0.06279 0.998027 0
    outer loop
      vertex 53.5572 43.4364 14
      vertex 55.4835 43.3152 10
      vertex 53.5572 43.4364 10
    endloop
  endfacet
  facet normal -0.637425 0.770513 0
    outer loop
      vertex 60.6131 45.729 10
      vertex 59.1259 44.4987 14
      vertex 60.6131 45.729 14
    endloop
  endfacet
  facet normal -0.637425 0.770513 0
    outer loop
      vertex 59.1259 44.4987 14
      vertex 60.6131 45.729 10
      vertex 59.1259 44.4987 10
    endloop
  endfacet
  facet normal -0.425779 0.904827 0
    outer loop
      vertex 59.1259 44.4987 10
      vertex 57.3794 43.6769 14
      vertex 59.1259 44.4987 14
    endloop
  endfacet
  facet normal -0.425779 0.904827 0
    outer loop
      vertex 57.3794 43.6769 14
      vertex 59.1259 44.4987 10
      vertex 57.3794 43.6769 10
    endloop
  endfacet
  facet normal 0.309017 0.951056 -0
    outer loop
      vertex 53.5572 43.4364 10
      vertex 51.7215 44.0328 14
      vertex 53.5572 43.4364 14
    endloop
  endfacet
  facet normal 0.309017 0.951056 0
    outer loop
      vertex 51.7215 44.0328 14
      vertex 53.5572 43.4364 10
      vertex 51.7215 44.0328 10
    endloop
  endfacet
  facet normal 1 -0 0
    outer loop
      vertex 2 82 14
      vertex 2 100 11.4
      vertex 2 100 14
    endloop
  endfacet
  facet normal 1 0 0
    outer loop
      vertex 2 100 11.4
      vertex 2 82 14
      vertex 2 82 11.4
    endloop
  endfacet
  facet normal -1 0 0
    outer loop
      vertex 25 82 11.4
      vertex 25 100 14
      vertex 25 100 11.4
    endloop
  endfacet
  facet normal -1 -0 0
    outer loop
      vertex 25 100 14
      vertex 25 82 11.4
      vertex 25 82 14
    endloop
  endfacet
  facet normal 0 0 1
    outer loop
      vertex 4 100 11.4
      vertex 2 100 11.4
      vertex 4 94.8 11.4
    endloop
  endfacet
  facet normal 0 0 1
    outer loop
      vertex 23 94.8 11.4
      vertex 25 100 11.4
      vertex 23 100 11.4
    endloop
  endfacet
  facet normal 0 0 1
    outer loop
      vertex 25 100 11.4
      vertex 23 94.8 11.4
      vertex 25 82 11.4
    endloop
  endfacet
  facet normal -0 0 1
    outer loop
      vertex 4 94.8 11.4
      vertex 25 82 11.4
      vertex 23 94.8 11.4
    endloop
  endfacet
  facet normal 0 0 1
    outer loop
      vertex 4 94.8 11.4
      vertex 2 82 11.4
      vertex 25 82 11.4
    endloop
  endfacet
  facet normal 0 0 1
    outer loop
      vertex 2 82 11.4
      vertex 4 94.8 11.4
      vertex 2 100 11.4
    endloop
  endfacet
  facet normal 0 1 -0
    outer loop
      vertex 25 82 11.4
      vertex 2 82 14
      vertex 25 82 14
    endloop
  endfacet
  facet normal 0 1 0
    outer loop
      vertex 2 82 14
      vertex 25 82 11.4
      vertex 2 82 11.4
    endloop
  endfacet
  facet normal 0 -1 0
    outer loop
      vertex 23 100 11.4
      vertex 25 100 14
      vertex 23 100 14
    endloop
  endfacet
  facet normal 0 -1 -0
    outer loop
      vertex 25 100 14
      vertex 23 100 11.4
      vertex 25 100 11.4
    endloop
  endfacet
  facet normal 0 -1 0
    outer loop
      vertex 2 100 11.4
      vertex 4 100 14
      vertex 2 100 14
    endloop
  endfacet
  facet normal 0 -1 -0
    outer loop
      vertex 4 100 14
      vertex 2 100 11.4
      vertex 4 100 11.4
    endloop
  endfacet
  facet normal 1 0 0
    outer loop
      vertex 4 100 11.4
      vertex 4 102 14
      vertex 4 100 14
    endloop
  endfacet
  facet normal 1 0 0
    outer loop
      vertex 4 102 14
      vertex 4 100 11.4
      vertex 4 102 0
    endloop
  endfacet
  facet normal 1 0 0
    outer loop
      vertex 4 94.8 0
      vertex 4 100 11.4
      vertex 4 94.8 11.4
    endloop
  endfacet
  facet normal 1 0 0
    outer loop
      vertex 4 100 11.4
      vertex 4 94.8 0
      vertex 4 102 0
    endloop
  endfacet
  facet normal -1 0 0
    outer loop
      vertex 23 102 0
      vertex 23 100 11.4
      vertex 23 102 14
    endloop
  endfacet
  facet normal -1 0 0
    outer loop
      vertex 23 94.8 0
      vertex 23 100 11.4
      vertex 23 102 0
    endloop
  endfacet
  facet normal -1 -0 0
    outer loop
      vertex 23 100 11.4
      vertex 23 94.8 0
      vertex 23 94.8 11.4
    endloop
  endfacet
  facet normal -1 -0 0
    outer loop
      vertex 23 102 14
      vertex 23 100 11.4
      vertex 23 100 14
    endloop
  endfacet
  facet normal 0 1 -0
    outer loop
      vertex 23 94.8 0
      vertex 4 94.8 11.4
      vertex 23 94.8 11.4
    endloop
  endfacet
  facet normal 0 1 0
    outer loop
      vertex 4 94.8 11.4
      vertex 23 94.8 0
      vertex 4 94.8 0
    endloop
  endfacet
endsolid OpenSCAD_Model
