solid OpenSCAD_Model
  facet normal -1 0 0
    outer loop
      vertex 0 0 0
      vertex 0 5 24
      vertex 0 5 0
    endloop
  endfacet
  facet normal -1 -0 0
    outer loop
      vertex 0 5 24
      vertex 0 0 0
      vertex 0 0 24
    endloop
  endfacet
  facet normal -1 0 0
    outer loop
      vertex 0 55 0
      vertex 0 60 24
      vertex 0 60 0
    endloop
  endfacet
  facet normal -1 -0 0
    outer loop
      vertex 0 60 24
      vertex 0 55 0
      vertex 0 55 24
    endloop
  endfacet
  facet normal -1 0 0
    outer loop
      vertex 0 17.4 0
      vertex 0 23.8 24
      vertex 0 23.8 0
    endloop
  endfacet
  facet normal -1 -0 0
    outer loop
      vertex 0 23.8 24
      vertex 0 17.4 0
      vertex 0 17.4 24
    endloop
  endfacet
  facet normal -1 0 0
    outer loop
      vertex 0 36.2 0
      vertex 0 42.6 24
      vertex 0 42.6 0
    endloop
  endfacet
  facet normal -1 -0 0
    outer loop
      vertex 0 42.6 24
      vertex 0 36.2 0
      vertex 0 36.2 24
    endloop
  endfacet
  facet normal 0 0 1
    outer loop
      vertex 3 5 24
      vertex 0 5 24
      vertex 3 3 24
    endloop
  endfacet
  facet normal -0 0 1
    outer loop
      vertex 0 23.8 24
      vertex 3 21.8 24
      vertex 3 23.8 24
    endloop
  endfacet
  facet normal 0 0 1
    outer loop
      vertex 3 21.8 24
      vertex 0 23.8 24
      vertex 3 19.4 24
    endloop
  endfacet
  facet normal 0 0 1
    outer loop
      vertex 0 17.4 24
      vertex 3 19.4 24
      vertex 0 23.8 24
    endloop
  endfacet
  facet normal 0 0 1
    outer loop
      vertex 3 19.4 24
      vertex 0 17.4 24
      vertex 3 17.4 24
    endloop
  endfacet
  facet normal -0 0 1
    outer loop
      vertex 0 42.6 24
      vertex 3 40.6 24
      vertex 3 42.6 24
    endloop
  endfacet
  facet normal 0 0 1
    outer loop
      vertex 3 40.6 24
      vertex 0 42.6 24
      vertex 3 38.2 24
    endloop
  endfacet
  facet normal 0 0 1
    outer loop
      vertex 0 36.2 24
      vertex 3 38.2 24
      vertex 0 42.6 24
    endloop
  endfacet
  facet normal 0 0 1
    outer loop
      vertex 3 38.2 24
      vertex 0 36.2 24
      vertex 3 36.2 24
    endloop
  endfacet
  facet normal -0 0 1
    outer loop
      vertex 3 21.8 24
      vertex 22 19.4 24
      vertex 22 21.8 24
    endloop
  endfacet
  facet normal 0 0 1
    outer loop
      vertex 22 19.4 24
      vertex 3 21.8 24
      vertex 3 19.4 24
    endloop
  endfacet
  facet normal -0 0 1
    outer loop
      vertex 3 40.6 24
      vertex 22 38.2 24
      vertex 22 40.6 24
    endloop
  endfacet
  facet normal 0 0 1
    outer loop
      vertex 22 38.2 24
      vertex 3 40.6 24
      vertex 3 38.2 24
    endloop
  endfacet
  facet normal 0 0 1
    outer loop
      vertex 66 60 24
      vertex 63 57 24
      vertex 66 55 24
    endloop
  endfacet
  facet normal 0 0 1
    outer loop
      vertex 66 60 24
      vertex 39.5 57 24
      vertex 63 57 24
    endloop
  endfacet
  facet normal 0 0 1
    outer loop
      vertex 31.5572 37.5636 24
      vertex 39.5 40.9 24
      vertex 39.5 57 24
    endloop
  endfacet
  facet normal 0 0 1
    outer loop
      vertex 39.5 40.9 24
      vertex 37.1259 36.5013 24
      vertex 38.6131 35.271 24
    endloop
  endfacet
  facet normal 0 0 1
    outer loop
      vertex 39.5 40.9 24
      vertex 35.3794 37.3231 24
      vertex 37.1259 36.5013 24
    endloop
  endfacet
  facet normal 0 0 1
    outer loop
      vertex 39.5 40.9 24
      vertex 33.4835 37.6848 24
      vertex 35.3794 37.3231 24
    endloop
  endfacet
  facet normal 0 0 1
    outer loop
      vertex 39.5 40.9 24
      vertex 31.5572 37.5636 24
      vertex 33.4835 37.6848 24
    endloop
  endfacet
  facet normal -0 0 1
    outer loop
      vertex 22 57 24
      vertex 31.5572 37.5636 24
      vertex 39.5 57 24
    endloop
  endfacet
  facet normal -0 0 1
    outer loop
      vertex 22 40.6 24
      vertex 31.5572 37.5636 24
      vertex 22 57 24
    endloop
  endfacet
  facet normal 0 0 1
    outer loop
      vertex 29.7215 36.9672 24
      vertex 22 40.6 24
      vertex 28.0918 35.933 24
    endloop
  endfacet
  facet normal 0 0 1
    outer loop
      vertex 26.7706 34.5259 24
      vertex 22 38.2 24
      vertex 25.8407 32.8346 24
    endloop
  endfacet
  facet normal 0 0 1
    outer loop
      vertex 28.0918 35.933 24
      vertex 22 38.2 24
      vertex 26.7706 34.5259 24
    endloop
  endfacet
  facet normal -0 0 1
    outer loop
      vertex 22 38.2 24
      vertex 28.0918 35.933 24
      vertex 22 40.6 24
    endloop
  endfacet
  facet normal 0 0 1
    outer loop
      vertex 31.5572 37.5636 24
      vertex 22 40.6 24
      vertex 29.7215 36.9672 24
    endloop
  endfacet
  facet normal -0 0 1
    outer loop
      vertex 0 60 24
      vertex 39.5 57 24
      vertex 66 60 24
    endloop
  endfacet
  facet normal 0 0 1
    outer loop
      vertex 39.5 57 24
      vertex 0 60 24
      vertex 22 57 24
    endloop
  endfacet
  facet normal 0 0 1
    outer loop
      vertex 22 57 24
      vertex 0 60 24
      vertex 3 57 24
    endloop
  endfacet
  facet normal 0 0 1
    outer loop
      vertex 0 55 24
      vertex 3 57 24
      vertex 0 60 24
    endloop
  endfacet
  facet normal 0 0 1
    outer loop
      vertex 3 57 24
      vertex 0 55 24
      vertex 3 55 24
    endloop
  endfacet
  facet normal 0 0 1
    outer loop
      vertex 66 55 24
      vertex 63 57 24
      vertex 63 55 24
    endloop
  endfacet
  facet normal 0 0 1
    outer loop
      vertex 63 40.9 24
      vertex 41.6 37.95 24
      vertex 63 37.95 24
    endloop
  endfacet
  facet normal -0 0 1
    outer loop
      vertex 40.7 30 24
      vertex 41.6 22.05 24
      vertex 41.6 37.95 24
    endloop
  endfacet
  facet normal -0 0 1
    outer loop
      vertex 40.4581 28.0851 24
      vertex 41.6 22.05 24
      vertex 40.7 30 24
    endloop
  endfacet
  facet normal -0 0 1
    outer loop
      vertex 39.7476 26.2905 24
      vertex 41.6 22.05 24
      vertex 40.4581 28.0851 24
    endloop
  endfacet
  facet normal 0 0 1
    outer loop
      vertex 41.6 37.95 24
      vertex 40.4581 31.9149 24
      vertex 40.7 30 24
    endloop
  endfacet
  facet normal 0 0 1
    outer loop
      vertex 41.6 37.95 24
      vertex 39.7476 33.7095 24
      vertex 40.4581 31.9149 24
    endloop
  endfacet
  facet normal -0 0 1
    outer loop
      vertex 39.5 40.9 24
      vertex 41.6 37.95 24
      vertex 63 40.9 24
    endloop
  endfacet
  facet normal 0 0 1
    outer loop
      vertex 38.6131 35.271 24
      vertex 41.6 37.95 24
      vertex 39.5 40.9 24
    endloop
  endfacet
  facet normal 0 0 1
    outer loop
      vertex 41.6 37.95 24
      vertex 38.6131 35.271 24
      vertex 39.7476 33.7095 24
    endloop
  endfacet
  facet normal 0 0 1
    outer loop
      vertex 63 40.9 24
      vertex 66 42.9 24
      vertex 63 42.9 24
    endloop
  endfacet
  facet normal 0 0 1
    outer loop
      vertex 66 42.9 24
      vertex 63 40.9 24
      vertex 66 35.95 24
    endloop
  endfacet
  facet normal -0 0 1
    outer loop
      vertex 63 37.95 24
      vertex 66 35.95 24
      vertex 63 40.9 24
    endloop
  endfacet
  facet normal 0 0 1
    outer loop
      vertex 66 35.95 24
      vertex 63 37.95 24
      vertex 63 35.95 24
    endloop
  endfacet
  facet normal -0 0 1
    outer loop
      vertex 41.6 22.05 24
      vertex 63 18.9 24
      vertex 63 22.05 24
    endloop
  endfacet
  facet normal 0 0 1
    outer loop
      vertex 63 18.9 24
      vertex 41.6 22.05 24
      vertex 41.6 18.9 24
    endloop
  endfacet
  facet normal 0 0 1
    outer loop
      vertex 63 22.05 24
      vertex 66 24.05 24
      vertex 63 24.05 24
    endloop
  endfacet
  facet normal 0 0 1
    outer loop
      vertex 66 24.05 24
      vertex 63 22.05 24
      vertex 66 16.9 24
    endloop
  endfacet
  facet normal -0 0 1
    outer loop
      vertex 63 18.9 24
      vertex 66 16.9 24
      vertex 63 22.05 24
    endloop
  endfacet
  facet normal 0 0 1
    outer loop
      vertex 66 16.9 24
      vertex 63 18.9 24
      vertex 63 16.9 24
    endloop
  endfacet
  facet normal 0 0 1
    outer loop
      vertex 63 3 24
      vertex 66 5 24
      vertex 63 5 24
    endloop
  endfacet
  facet normal 0 0 1
    outer loop
      vertex 66 5 24
      vertex 63 3 24
      vertex 66 0 24
    endloop
  endfacet
  facet normal -0 0 1
    outer loop
      vertex 41.6 3 24
      vertex 66 0 24
      vertex 63 3 24
    endloop
  endfacet
  facet normal -0 0 1
    outer loop
      vertex 38.6131 24.729 24
      vertex 41.6 22.05 24
      vertex 39.7476 26.2905 24
    endloop
  endfacet
  facet normal -0 0 1
    outer loop
      vertex 37.1259 23.4987 24
      vertex 41.6 22.05 24
      vertex 38.6131 24.729 24
    endloop
  endfacet
  facet normal 0 0 1
    outer loop
      vertex 41.6 22.05 24
      vertex 37.1259 23.4987 24
      vertex 41.6 18.9 24
    endloop
  endfacet
  facet normal -0 0 1
    outer loop
      vertex 35.3794 22.6769 24
      vertex 41.6 18.9 24
      vertex 37.1259 23.4987 24
    endloop
  endfacet
  facet normal -0 0 1
    outer loop
      vertex 33.4835 22.3152 24
      vertex 41.6 18.9 24
      vertex 35.3794 22.6769 24
    endloop
  endfacet
  facet normal 0 0 1
    outer loop
      vertex 41.6 18.9 24
      vertex 33.4835 22.3152 24
      vertex 41.6 3 24
    endloop
  endfacet
  facet normal 0 0 1
    outer loop
      vertex 31.5572 22.4364 24
      vertex 41.6 3 24
      vertex 33.4835 22.3152 24
    endloop
  endfacet
  facet normal 0 0 1
    outer loop
      vertex 22 19.4 24
      vertex 31.5572 22.4364 24
      vertex 29.7215 23.0328 24
    endloop
  endfacet
  facet normal 0 0 1
    outer loop
      vertex 22 19.4 24
      vertex 29.7215 23.0328 24
      vertex 28.0918 24.067 24
    endloop
  endfacet
  facet normal 0 0 1
    outer loop
      vertex 22 21.8 24
      vertex 28.0918 24.067 24
      vertex 26.7706 25.4741 24
    endloop
  endfacet
  facet normal 0 0 1
    outer loop
      vertex 25.8407 32.8346 24
      vertex 22 38.2 24
      vertex 25.3607 30.9651 24
    endloop
  endfacet
  facet normal 0 0 1
    outer loop
      vertex 25.3607 30.9651 24
      vertex 22 38.2 24
      vertex 25.3607 29.0349 24
    endloop
  endfacet
  facet normal 0 0 1
    outer loop
      vertex 22 21.8 24
      vertex 25.3607 29.0349 24
      vertex 22 38.2 24
    endloop
  endfacet
  facet normal 0 0 1
    outer loop
      vertex 25.3607 29.0349 24
      vertex 22 21.8 24
      vertex 25.8407 27.1654 24
    endloop
  endfacet
  facet normal 0 0 1
    outer loop
      vertex 22 21.8 24
      vertex 26.7706 25.4741 24
      vertex 25.8407 27.1654 24
    endloop
  endfacet
  facet normal 0 0 1
    outer loop
      vertex 28.0918 24.067 24
      vertex 22 21.8 24
      vertex 22 19.4 24
    endloop
  endfacet
  facet normal 0 0 1
    outer loop
      vertex 31.5572 22.4364 24
      vertex 22 19.4 24
      vertex 22 3 24
    endloop
  endfacet
  facet normal 0 0 1
    outer loop
      vertex 31.5572 22.4364 24
      vertex 22 3 24
      vertex 41.6 3 24
    endloop
  endfacet
  facet normal 0 0 1
    outer loop
      vertex 0 0 24
      vertex 41.6 3 24
      vertex 22 3 24
    endloop
  endfacet
  facet normal 0 0 1
    outer loop
      vertex 0 0 24
      vertex 22 3 24
      vertex 3 3 24
    endloop
  endfacet
  facet normal 0 0 1
    outer loop
      vertex 41.6 3 24
      vertex 0 0 24
      vertex 66 0 24
    endloop
  endfacet
  facet normal 0 0 1
    outer loop
      vertex 0 0 24
      vertex 3 3 24
      vertex 0 5 24
    endloop
  endfacet
  facet normal 1 -0 0
    outer loop
      vertex 66 0 24
      vertex 66 5 0
      vertex 66 5 24
    endloop
  endfacet
  facet normal 1 0 0
    outer loop
      vertex 66 5 0
      vertex 66 0 24
      vertex 66 0 0
    endloop
  endfacet
  facet normal 1 -0 0
    outer loop
      vertex 66 55 24
      vertex 66 60 0
      vertex 66 60 24
    endloop
  endfacet
  facet normal 1 0 0
    outer loop
      vertex 66 60 0
      vertex 66 55 24
      vertex 66 55 0
    endloop
  endfacet
  facet normal 1 -0 0
    outer loop
      vertex 66 16.9 24
      vertex 66 24.05 0
      vertex 66 24.05 24
    endloop
  endfacet
  facet normal 1 0 0
    outer loop
      vertex 66 24.05 0
      vertex 66 16.9 24
      vertex 66 16.9 0
    endloop
  endfacet
  facet normal 1 -0 0
    outer loop
      vertex 66 35.95 24
      vertex 66 42.9 0
      vertex 66 42.9 24
    endloop
  endfacet
  facet normal 1 0 0
    outer loop
      vertex 66 42.9 0
      vertex 66 35.95 24
      vertex 66 35.95 0
    endloop
  endfacet
  facet normal 0 0 -1
    outer loop
      vertex 0 36.2 0
      vertex 7 42.6 0
      vertex 7 36.2 0
    endloop
  endfacet
  facet normal -0 0 -1
    outer loop
      vertex 7 42.6 0
      vertex 0 36.2 0
      vertex 0 42.6 0
    endloop
  endfacet
  facet normal 0 0 -1
    outer loop
      vertex 0 17.4 0
      vertex 7 23.8 0
      vertex 7 17.4 0
    endloop
  endfacet
  facet normal -0 0 -1
    outer loop
      vertex 7 23.8 0
      vertex 0 17.4 0
      vertex 0 23.8 0
    endloop
  endfacet
  facet normal 0 0 -1
    outer loop
      vertex 66 0 0
      vertex 56.6 5 0
      vertex 66 5 0
    endloop
  endfacet
  facet normal 0 0 -1
    outer loop
      vertex 7 5 0
      vertex 56.6 16.9 0
      vertex 56.6 5 0
    endloop
  endfacet
  facet normal 0 0 -1
    outer loop
      vertex 56.6 16.9 0
      vertex 7 17.4 0
      vertex 56.6 24.05 0
    endloop
  endfacet
  facet normal -0 0 -1
    outer loop
      vertex 56.6 24.05 0
      vertex 7 23.8 0
      vertex 56.6 35.95 0
    endloop
  endfacet
  facet normal 0 0 -1
    outer loop
      vertex 56.6 24.05 0
      vertex 7 17.4 0
      vertex 7 23.8 0
    endloop
  endfacet
  facet normal -0 0 -1
    outer loop
      vertex 56.6 16.9 0
      vertex 7 5 0
      vertex 7 17.4 0
    endloop
  endfacet
  facet normal 0 0 -1
    outer loop
      vertex 0 0 0
      vertex 56.6 5 0
      vertex 66 0 0
    endloop
  endfacet
  facet normal -0 0 -1
    outer loop
      vertex 56.6 5 0
      vertex 0 0 0
      vertex 7 5 0
    endloop
  endfacet
  facet normal -0 0 -1
    outer loop
      vertex 7 5 0
      vertex 0 0 0
      vertex 0 5 0
    endloop
  endfacet
  facet normal 0 0 -1
    outer loop
      vertex 56.6 16.9 0
      vertex 66 24.05 0
      vertex 66 16.9 0
    endloop
  endfacet
  facet normal -0 0 -1
    outer loop
      vertex 66 24.05 0
      vertex 56.6 16.9 0
      vertex 56.6 24.05 0
    endloop
  endfacet
  facet normal 0 0 -1
    outer loop
      vertex 56.6 35.95 0
      vertex 66 42.9 0
      vertex 66 35.95 0
    endloop
  endfacet
  facet normal -0 0 -1
    outer loop
      vertex 66 42.9 0
      vertex 56.6 35.95 0
      vertex 54.5 42.9 0
    endloop
  endfacet
  facet normal 0 0 -1
    outer loop
      vertex 54.5 55 0
      vertex 66 60 0
      vertex 66 55 0
    endloop
  endfacet
  facet normal 0 0 -1
    outer loop
      vertex 7 36.2 0
      vertex 56.6 35.95 0
      vertex 7 23.8 0
    endloop
  endfacet
  facet normal 0 0 -1
    outer loop
      vertex 56.6 35.95 0
      vertex 7 36.2 0
      vertex 54.5 42.9 0
    endloop
  endfacet
  facet normal 0 0 -1
    outer loop
      vertex 7 42.6 0
      vertex 54.5 42.9 0
      vertex 7 36.2 0
    endloop
  endfacet
  facet normal -0 0 -1
    outer loop
      vertex 54.5 42.9 0
      vertex 7 42.6 0
      vertex 54.5 55 0
    endloop
  endfacet
  facet normal 0 0 -1
    outer loop
      vertex 7 55 0
      vertex 54.5 55 0
      vertex 7 42.6 0
    endloop
  endfacet
  facet normal 0 0 -1
    outer loop
      vertex 0 60 0
      vertex 54.5 55 0
      vertex 7 55 0
    endloop
  endfacet
  facet normal 0 0 -1
    outer loop
      vertex 0 60 0
      vertex 7 55 0
      vertex 0 55 0
    endloop
  endfacet
  facet normal 0 0 -1
    outer loop
      vertex 54.5 55 0
      vertex 0 60 0
      vertex 66 60 0
    endloop
  endfacet
  facet normal 0 -1 0
    outer loop
      vertex 0 0 0
      vertex 66 0 24
      vertex 0 0 24
    endloop
  endfacet
  facet normal 0 -1 -0
    outer loop
      vertex 66 0 24
      vertex 0 0 0
      vertex 66 0 0
    endloop
  endfacet
  facet normal 0 1 -0
    outer loop
      vertex 66 60 0
      vertex 0 60 24
      vertex 66 60 24
    endloop
  endfacet
  facet normal 0 1 0
    outer loop
      vertex 0 60 24
      vertex 66 60 0
      vertex 0 60 0
    endloop
  endfacet
  facet normal 1 -0 0
    outer loop
      vertex 3 3 24
      vertex 3 5 3
      vertex 3 5 24
    endloop
  endfacet
  facet normal 1 0 0
    outer loop
      vertex 3 5 3
      vertex 3 3 24
      vertex 3 3 3
    endloop
  endfacet
  facet normal 1 -0 0
    outer loop
      vertex 3 17.4 24
      vertex 3 19.4 3
      vertex 3 19.4 24
    endloop
  endfacet
  facet normal 1 0 0
    outer loop
      vertex 3 19.4 3
      vertex 3 17.4 24
      vertex 3 17.4 3
    endloop
  endfacet
  facet normal -1 0 0
    outer loop
      vertex 22 3 3
      vertex 22 19.4 24
      vertex 22 19.4 3
    endloop
  endfacet
  facet normal -1 -0 0
    outer loop
      vertex 22 19.4 24
      vertex 22 3 3
      vertex 22 3 24
    endloop
  endfacet
  facet normal 0 -1 0
    outer loop
      vertex 3 19.4 3
      vertex 22 19.4 24
      vertex 3 19.4 24
    endloop
  endfacet
  facet normal 0 -1 -0
    outer loop
      vertex 22 19.4 24
      vertex 3 19.4 3
      vertex 22 19.4 3
    endloop
  endfacet
  facet normal 0 0 1
    outer loop
      vertex 22 19.4 3
      vertex 7 17.4 3
      vertex 22 3 3
    endloop
  endfacet
  facet normal -0 0 1
    outer loop
      vertex 3 19.4 3
      vertex 7 17.4 3
      vertex 22 19.4 3
    endloop
  endfacet
  facet normal 0 0 1
    outer loop
      vertex 7 17.4 3
      vertex 3 19.4 3
      vertex 3 17.4 3
    endloop
  endfacet
  facet normal -0 0 1
    outer loop
      vertex 7 5 3
      vertex 22 3 3
      vertex 7 17.4 3
    endloop
  endfacet
  facet normal 0 0 1
    outer loop
      vertex 3 3 3
      vertex 7 5 3
      vertex 3 5 3
    endloop
  endfacet
  facet normal 0 0 1
    outer loop
      vertex 7 5 3
      vertex 3 3 3
      vertex 22 3 3
    endloop
  endfacet
  facet normal 0 1 -0
    outer loop
      vertex 22 3 3
      vertex 3 3 24
      vertex 22 3 24
    endloop
  endfacet
  facet normal 0 1 0
    outer loop
      vertex 3 3 24
      vertex 22 3 3
      vertex 3 3 3
    endloop
  endfacet
  facet normal -1 0 0
    outer loop
      vertex 7 5 0
      vertex 7 17.4 3
      vertex 7 17.4 0
    endloop
  endfacet
  facet normal -1 -0 0
    outer loop
      vertex 7 17.4 3
      vertex 7 5 0
      vertex 7 5 3
    endloop
  endfacet
  facet normal 0 -1 0
    outer loop
      vertex 0 17.4 24
      vertex 3 17.4 3
      vertex 3 17.4 24
    endloop
  endfacet
  facet normal 0 -1 0
    outer loop
      vertex 0 17.4 0
      vertex 3 17.4 3
      vertex 0 17.4 24
    endloop
  endfacet
  facet normal 0 -1 0
    outer loop
      vertex 7 17.4 0
      vertex 3 17.4 3
      vertex 0 17.4 0
    endloop
  endfacet
  facet normal 0 -1 0
    outer loop
      vertex 3 17.4 3
      vertex 7 17.4 0
      vertex 7 17.4 3
    endloop
  endfacet
  facet normal 0 1 0
    outer loop
      vertex 7 5 3
      vertex 7 5 0
      vertex 3 5 3
    endloop
  endfacet
  facet normal 0 1 -0
    outer loop
      vertex 3 5 3
      vertex 0 5 24
      vertex 3 5 24
    endloop
  endfacet
  facet normal 0 1 0
    outer loop
      vertex 3 5 3
      vertex 0 5 0
      vertex 0 5 24
    endloop
  endfacet
  facet normal 0 1 0
    outer loop
      vertex 0 5 0
      vertex 3 5 3
      vertex 7 5 0
    endloop
  endfacet
  facet normal 1 -0 0
    outer loop
      vertex 3 21.8 24
      vertex 3 23.8 3
      vertex 3 23.8 24
    endloop
  endfacet
  facet normal 1 0 0
    outer loop
      vertex 3 23.8 3
      vertex 3 21.8 24
      vertex 3 21.8 3
    endloop
  endfacet
  facet normal 1 -0 0
    outer loop
      vertex 3 36.2 24
      vertex 3 38.2 3
      vertex 3 38.2 24
    endloop
  endfacet
  facet normal 1 0 0
    outer loop
      vertex 3 38.2 3
      vertex 3 36.2 24
      vertex 3 36.2 3
    endloop
  endfacet
  facet normal -1 0 0
    outer loop
      vertex 22 21.8 3
      vertex 22 38.2 24
      vertex 22 38.2 3
    endloop
  endfacet
  facet normal -1 -0 0
    outer loop
      vertex 22 38.2 24
      vertex 22 21.8 3
      vertex 22 21.8 24
    endloop
  endfacet
  facet normal 0 -1 0
    outer loop
      vertex 3 38.2 3
      vertex 22 38.2 24
      vertex 3 38.2 24
    endloop
  endfacet
  facet normal 0 -1 -0
    outer loop
      vertex 22 38.2 24
      vertex 3 38.2 3
      vertex 22 38.2 3
    endloop
  endfacet
  facet normal 0 0 1
    outer loop
      vertex 22 38.2 3
      vertex 7 36.2 3
      vertex 22 21.8 3
    endloop
  endfacet
  facet normal -0 0 1
    outer loop
      vertex 3 38.2 3
      vertex 7 36.2 3
      vertex 22 38.2 3
    endloop
  endfacet
  facet normal 0 0 1
    outer loop
      vertex 7 36.2 3
      vertex 3 38.2 3
      vertex 3 36.2 3
    endloop
  endfacet
  facet normal -0 0 1
    outer loop
      vertex 7 23.8 3
      vertex 22 21.8 3
      vertex 7 36.2 3
    endloop
  endfacet
  facet normal 0 0 1
    outer loop
      vertex 3 21.8 3
      vertex 7 23.8 3
      vertex 3 23.8 3
    endloop
  endfacet
  facet normal 0 0 1
    outer loop
      vertex 7 23.8 3
      vertex 3 21.8 3
      vertex 22 21.8 3
    endloop
  endfacet
  facet normal 0 1 -0
    outer loop
      vertex 22 21.8 3
      vertex 3 21.8 24
      vertex 22 21.8 24
    endloop
  endfacet
  facet normal 0 1 0
    outer loop
      vertex 3 21.8 24
      vertex 22 21.8 3
      vertex 3 21.8 3
    endloop
  endfacet
  facet normal -1 0 0
    outer loop
      vertex 7 23.8 0
      vertex 7 36.2 3
      vertex 7 36.2 0
    endloop
  endfacet
  facet normal -1 -0 0
    outer loop
      vertex 7 36.2 3
      vertex 7 23.8 0
      vertex 7 23.8 3
    endloop
  endfacet
  facet normal 0 -1 0
    outer loop
      vertex 0 36.2 24
      vertex 3 36.2 3
      vertex 3 36.2 24
    endloop
  endfacet
  facet normal 0 -1 0
    outer loop
      vertex 0 36.2 0
      vertex 3 36.2 3
      vertex 0 36.2 24
    endloop
  endfacet
  facet normal 0 -1 0
    outer loop
      vertex 7 36.2 0
      vertex 3 36.2 3
      vertex 0 36.2 0
    endloop
  endfacet
  facet normal 0 -1 0
    outer loop
      vertex 3 36.2 3
      vertex 7 36.2 0
      vertex 7 36.2 3
    endloop
  endfacet
  facet normal 0 1 0
    outer loop
      vertex 7 23.8 3
      vertex 7 23.8 0
      vertex 3 23.8 3
    endloop
  endfacet
  facet normal 0 1 -0
    outer loop
      vertex 3 23.8 3
      vertex 0 23.8 24
      vertex 3 23.8 24
    endloop
  endfacet
  facet normal 0 1 0
    outer loop
      vertex 3 23.8 3
      vertex 0 23.8 0
      vertex 0 23.8 24
    endloop
  endfacet
  facet normal 0 1 0
    outer loop
      vertex 0 23.8 0
      vertex 3 23.8 3
      vertex 7 23.8 0
    endloop
  endfacet
  facet normal 1 -0 0
    outer loop
      vertex 3 40.6 24
      vertex 3 42.6 3
      vertex 3 42.6 24
    endloop
  endfacet
  facet normal 1 0 0
    outer loop
      vertex 3 42.6 3
      vertex 3 40.6 24
      vertex 3 40.6 3
    endloop
  endfacet
  facet normal 1 -0 0
    outer loop
      vertex 3 55 24
      vertex 3 57 3
      vertex 3 57 24
    endloop
  endfacet
  facet normal 1 0 0
    outer loop
      vertex 3 57 3
      vertex 3 55 24
      vertex 3 55 3
    endloop
  endfacet
  facet normal -1 0 0
    outer loop
      vertex 22 40.6 3
      vertex 22 57 24
      vertex 22 57 3
    endloop
  endfacet
  facet normal -1 -0 0
    outer loop
      vertex 22 57 24
      vertex 22 40.6 3
      vertex 22 40.6 24
    endloop
  endfacet
  facet normal 0 -1 0
    outer loop
      vertex 3 57 3
      vertex 22 57 24
      vertex 3 57 24
    endloop
  endfacet
  facet normal 0 -1 -0
    outer loop
      vertex 22 57 24
      vertex 3 57 3
      vertex 22 57 3
    endloop
  endfacet
  facet normal 0 0 1
    outer loop
      vertex 22 57 3
      vertex 7 55 3
      vertex 22 40.6 3
    endloop
  endfacet
  facet normal -0 0 1
    outer loop
      vertex 3 57 3
      vertex 7 55 3
      vertex 22 57 3
    endloop
  endfacet
  facet normal 0 0 1
    outer loop
      vertex 7 55 3
      vertex 3 57 3
      vertex 3 55 3
    endloop
  endfacet
  facet normal -0 0 1
    outer loop
      vertex 7 42.6 3
      vertex 22 40.6 3
      vertex 7 55 3
    endloop
  endfacet
  facet normal 0 0 1
    outer loop
      vertex 3 40.6 3
      vertex 7 42.6 3
      vertex 3 42.6 3
    endloop
  endfacet
  facet normal 0 0 1
    outer loop
      vertex 7 42.6 3
      vertex 3 40.6 3
      vertex 22 40.6 3
    endloop
  endfacet
  facet normal 0 1 -0
    outer loop
      vertex 22 40.6 3
      vertex 3 40.6 24
      vertex 22 40.6 24
    endloop
  endfacet
  facet normal 0 1 0
    outer loop
      vertex 3 40.6 24
      vertex 22 40.6 3
      vertex 3 40.6 3
    endloop
  endfacet
  facet normal -1 0 0
    outer loop
      vertex 7 42.6 0
      vertex 7 55 3
      vertex 7 55 0
    endloop
  endfacet
  facet normal -1 -0 0
    outer loop
      vertex 7 55 3
      vertex 7 42.6 0
      vertex 7 42.6 3
    endloop
  endfacet
  facet normal 0 -1 0
    outer loop
      vertex 0 55 24
      vertex 3 55 3
      vertex 3 55 24
    endloop
  endfacet
  facet normal 0 -1 0
    outer loop
      vertex 0 55 0
      vertex 3 55 3
      vertex 0 55 24
    endloop
  endfacet
  facet normal 0 -1 0
    outer loop
      vertex 7 55 0
      vertex 3 55 3
      vertex 0 55 0
    endloop
  endfacet
  facet normal 0 -1 0
    outer loop
      vertex 3 55 3
      vertex 7 55 0
      vertex 7 55 3
    endloop
  endfacet
  facet normal 0 1 0
    outer loop
      vertex 7 42.6 3
      vertex 7 42.6 0
      vertex 3 42.6 3
    endloop
  endfacet
  facet normal 0 1 -0
    outer loop
      vertex 3 42.6 3
      vertex 0 42.6 24
      vertex 3 42.6 24
    endloop
  endfacet
  facet normal 0 1 0
    outer loop
      vertex 3 42.6 3
      vertex 0 42.6 0
      vertex 0 42.6 24
    endloop
  endfacet
  facet normal 0 1 0
    outer loop
      vertex 0 42.6 0
      vertex 3 42.6 3
      vertex 7 42.6 0
    endloop
  endfacet
  facet normal 1 -0 0
    outer loop
      vertex 41.6 3 24
      vertex 41.6 18.9 13.3
      vertex 41.6 18.9 24
    endloop
  endfacet
  facet normal 1 0 0
    outer loop
      vertex 41.6 18.9 13.3
      vertex 41.6 3 24
      vertex 41.6 3 13.3
    endloop
  endfacet
  facet normal -1 0 0
    outer loop
      vertex 63 3 13.3
      vertex 63 5 24
      vertex 63 5 13.3
    endloop
  endfacet
  facet normal -1 -0 0
    outer loop
      vertex 63 5 24
      vertex 63 3 13.3
      vertex 63 3 24
    endloop
  endfacet
  facet normal -1 0 0
    outer loop
      vertex 63 16.9 13.3
      vertex 63 18.9 24
      vertex 63 18.9 13.3
    endloop
  endfacet
  facet normal -1 -0 0
    outer loop
      vertex 63 18.9 24
      vertex 63 16.9 13.3
      vertex 63 16.9 24
    endloop
  endfacet
  facet normal 0 -1 0
    outer loop
      vertex 41.6 18.9 13.3
      vertex 63 18.9 24
      vertex 41.6 18.9 24
    endloop
  endfacet
  facet normal 0 -1 -0
    outer loop
      vertex 63 18.9 24
      vertex 41.6 18.9 13.3
      vertex 63 18.9 13.3
    endloop
  endfacet
  facet normal 0 0 1
    outer loop
      vertex 63 18.9 13.3
      vertex 56.6 16.9 13.3
      vertex 63 16.9 13.3
    endloop
  endfacet
  facet normal 0 0 1
    outer loop
      vertex 56.6 16.9 13.3
      vertex 41.6 18.9 13.3
      vertex 56.6 5 13.3
    endloop
  endfacet
  facet normal -0 0 1
    outer loop
      vertex 41.6 18.9 13.3
      vertex 56.6 16.9 13.3
      vertex 63 18.9 13.3
    endloop
  endfacet
  facet normal -0 0 1
    outer loop
      vertex 56.6 5 13.3
      vertex 63 3 13.3
      vertex 63 5 13.3
    endloop
  endfacet
  facet normal 0 0 1
    outer loop
      vertex 56.6 5 13.3
      vertex 41.6 3 13.3
      vertex 63 3 13.3
    endloop
  endfacet
  facet normal 0 0 1
    outer loop
      vertex 41.6 3 13.3
      vertex 56.6 5 13.3
      vertex 41.6 18.9 13.3
    endloop
  endfacet
  facet normal 0 1 -0
    outer loop
      vertex 63 3 13.3
      vertex 41.6 3 24
      vertex 63 3 24
    endloop
  endfacet
  facet normal 0 1 0
    outer loop
      vertex 41.6 3 24
      vertex 63 3 13.3
      vertex 41.6 3 13.3
    endloop
  endfacet
  facet normal 1 -0 0
    outer loop
      vertex 56.6 5 13.3
      vertex 56.6 16.9 0
      vertex 56.6 16.9 13.3
    endloop
  endfacet
  facet normal 1 0 0
    outer loop
      vertex 56.6 16.9 0
      vertex 56.6 5 13.3
      vertex 56.6 5 0
    endloop
  endfacet
  facet normal 0 1 0
    outer loop
      vertex 66 5 24
      vertex 63 5 13.3
      vertex 63 5 24
    endloop
  endfacet
  facet normal 0 1 -0
    outer loop
      vertex 66 5 0
      vertex 63 5 13.3
      vertex 66 5 24
    endloop
  endfacet
  facet normal 0 1 0
    outer loop
      vertex 56.6 5 0
      vertex 63 5 13.3
      vertex 66 5 0
    endloop
  endfacet
  facet normal 0 1 0
    outer loop
      vertex 63 5 13.3
      vertex 56.6 5 0
      vertex 56.6 5 13.3
    endloop
  endfacet
  facet normal 0 -1 0
    outer loop
      vertex 56.6 16.9 13.3
      vertex 56.6 16.9 0
      vertex 63 16.9 13.3
    endloop
  endfacet
  facet normal 0 -1 0
    outer loop
      vertex 63 16.9 13.3
      vertex 66 16.9 24
      vertex 63 16.9 24
    endloop
  endfacet
  facet normal 0 -1 0
    outer loop
      vertex 63 16.9 13.3
      vertex 66 16.9 0
      vertex 66 16.9 24
    endloop
  endfacet
  facet normal 0 -1 0
    outer loop
      vertex 66 16.9 0
      vertex 63 16.9 13.3
      vertex 56.6 16.9 0
    endloop
  endfacet
  facet normal 1 -0 0
    outer loop
      vertex 41.6 22.05 24
      vertex 41.6 37.95 13.3
      vertex 41.6 37.95 24
    endloop
  endfacet
  facet normal 1 0 0
    outer loop
      vertex 41.6 37.95 13.3
      vertex 41.6 22.05 24
      vertex 41.6 22.05 13.3
    endloop
  endfacet
  facet normal -1 0 0
    outer loop
      vertex 63 22.05 13.3
      vertex 63 24.05 24
      vertex 63 24.05 13.3
    endloop
  endfacet
  facet normal -1 -0 0
    outer loop
      vertex 63 24.05 24
      vertex 63 22.05 13.3
      vertex 63 22.05 24
    endloop
  endfacet
  facet normal -1 0 0
    outer loop
      vertex 63 35.95 13.3
      vertex 63 37.95 24
      vertex 63 37.95 13.3
    endloop
  endfacet
  facet normal -1 -0 0
    outer loop
      vertex 63 37.95 24
      vertex 63 35.95 13.3
      vertex 63 35.95 24
    endloop
  endfacet
  facet normal 0 -1 0
    outer loop
      vertex 41.6 37.95 13.3
      vertex 63 37.95 24
      vertex 41.6 37.95 24
    endloop
  endfacet
  facet normal 0 -1 -0
    outer loop
      vertex 63 37.95 24
      vertex 41.6 37.95 13.3
      vertex 63 37.95 13.3
    endloop
  endfacet
  facet normal 0 0 1
    outer loop
      vertex 63 37.95 13.3
      vertex 56.6 35.95 13.3
      vertex 63 35.95 13.3
    endloop
  endfacet
  facet normal 0 0 1
    outer loop
      vertex 56.6 35.95 13.3
      vertex 41.6 37.95 13.3
      vertex 56.6 24.05 13.3
    endloop
  endfacet
  facet normal -0 0 1
    outer loop
      vertex 41.6 37.95 13.3
      vertex 56.6 35.95 13.3
      vertex 63 37.95 13.3
    endloop
  endfacet
  facet normal -0 0 1
    outer loop
      vertex 56.6 24.05 13.3
      vertex 63 22.05 13.3
      vertex 63 24.05 13.3
    endloop
  endfacet
  facet normal 0 0 1
    outer loop
      vertex 56.6 24.05 13.3
      vertex 41.6 22.05 13.3
      vertex 63 22.05 13.3
    endloop
  endfacet
  facet normal 0 0 1
    outer loop
      vertex 41.6 22.05 13.3
      vertex 56.6 24.05 13.3
      vertex 41.6 37.95 13.3
    endloop
  endfacet
  facet normal 0 1 -0
    outer loop
      vertex 63 22.05 13.3
      vertex 41.6 22.05 24
      vertex 63 22.05 24
    endloop
  endfacet
  facet normal 0 1 0
    outer loop
      vertex 41.6 22.05 24
      vertex 63 22.05 13.3
      vertex 41.6 22.05 13.3
    endloop
  endfacet
  facet normal 1 -0 0
    outer loop
      vertex 56.6 24.05 13.3
      vertex 56.6 35.95 0
      vertex 56.6 35.95 13.3
    endloop
  endfacet
  facet normal 1 0 0
    outer loop
      vertex 56.6 35.95 0
      vertex 56.6 24.05 13.3
      vertex 56.6 24.05 0
    endloop
  endfacet
  facet normal 0 1 0
    outer loop
      vertex 66 24.05 24
      vertex 63 24.05 13.3
      vertex 63 24.05 24
    endloop
  endfacet
  facet normal 0 1 -0
    outer loop
      vertex 66 24.05 0
      vertex 63 24.05 13.3
      vertex 66 24.05 24
    endloop
  endfacet
  facet normal 0 1 0
    outer loop
      vertex 56.6 24.05 0
      vertex 63 24.05 13.3
      vertex 66 24.05 0
    endloop
  endfacet
  facet normal 0 1 0
    outer loop
      vertex 63 24.05 13.3
      vertex 56.6 24.05 0
      vertex 56.6 24.05 13.3
    endloop
  endfacet
  facet normal 0 -1 0
    outer loop
      vertex 56.6 35.95 13.3
      vertex 56.6 35.95 0
      vertex 63 35.95 13.3
    endloop
  endfacet
  facet normal 0 -1 0
    outer loop
      vertex 63 35.95 13.3
      vertex 66 35.95 24
      vertex 63 35.95 24
    endloop
  endfacet
  facet normal 0 -1 0
    outer loop
      vertex 63 35.95 13.3
      vertex 66 35.95 0
      vertex 66 35.95 24
    endloop
  endfacet
  facet normal 0 -1 0
    outer loop
      vertex 66 35.95 0
      vertex 63 35.95 13.3
      vertex 56.6 35.95 0
    endloop
  endfacet
  facet normal 1 -0 0
    outer loop
      vertex 39.5 40.9 24
      vertex 39.5 57 15.4
      vertex 39.5 57 24
    endloop
  endfacet
  facet normal 1 0 0
    outer loop
      vertex 39.5 57 15.4
      vertex 39.5 40.9 24
      vertex 39.5 40.9 15.4
    endloop
  endfacet
  facet normal -1 0 0
    outer loop
      vertex 63 40.9 15.4
      vertex 63 42.9 24
      vertex 63 42.9 15.4
    endloop
  endfacet
  facet normal -1 -0 0
    outer loop
      vertex 63 42.9 24
      vertex 63 40.9 15.4
      vertex 63 40.9 24
    endloop
  endfacet
  facet normal -1 0 0
    outer loop
      vertex 63 55 15.4
      vertex 63 57 24
      vertex 63 57 15.4
    endloop
  endfacet
  facet normal -1 -0 0
    outer loop
      vertex 63 57 24
      vertex 63 55 15.4
      vertex 63 55 24
    endloop
  endfacet
  facet normal 0 0 1
    outer loop
      vertex 63 57 15.4
      vertex 54.5 55 15.4
      vertex 63 55 15.4
    endloop
  endfacet
  facet normal 0 0 1
    outer loop
      vertex 54.5 55 15.4
      vertex 39.5 57 15.4
      vertex 54.5 42.9 15.4
    endloop
  endfacet
  facet normal -0 0 1
    outer loop
      vertex 39.5 57 15.4
      vertex 54.5 55 15.4
      vertex 63 57 15.4
    endloop
  endfacet
  facet normal -0 0 1
    outer loop
      vertex 54.5 42.9 15.4
      vertex 63 40.9 15.4
      vertex 63 42.9 15.4
    endloop
  endfacet
  facet normal 0 0 1
    outer loop
      vertex 54.5 42.9 15.4
      vertex 39.5 40.9 15.4
      vertex 63 40.9 15.4
    endloop
  endfacet
  facet normal 0 0 1
    outer loop
      vertex 39.5 40.9 15.4
      vertex 54.5 42.9 15.4
      vertex 39.5 57 15.4
    endloop
  endfacet
  facet normal 0 1 -0
    outer loop
      vertex 63 40.9 15.4
      vertex 39.5 40.9 24
      vertex 63 40.9 24
    endloop
  endfacet
  facet normal 0 1 0
    outer loop
      vertex 39.5 40.9 24
      vertex 63 40.9 15.4
      vertex 39.5 40.9 15.4
    endloop
  endfacet
  facet normal 0 -1 0
    outer loop
      vertex 39.5 57 15.4
      vertex 63 57 24
      vertex 39.5 57 24
    endloop
  endfacet
  facet normal 0 -1 -0
    outer loop
      vertex 63 57 24
      vertex 39.5 57 15.4
      vertex 63 57 15.4
    endloop
  endfacet
  facet normal 1 -0 0
    outer loop
      vertex 54.5 42.9 15.4
      vertex 54.5 55 0
      vertex 54.5 55 15.4
    endloop
  endfacet
  facet normal 1 0 0
    outer loop
      vertex 54.5 55 0
      vertex 54.5 42.9 15.4
      vertex 54.5 42.9 0
    endloop
  endfacet
  facet normal 0 1 0
    outer loop
      vertex 66 42.9 24
      vertex 63 42.9 15.4
      vertex 63 42.9 24
    endloop
  endfacet
  facet normal 0 1 -0
    outer loop
      vertex 66 42.9 0
      vertex 63 42.9 15.4
      vertex 66 42.9 24
    endloop
  endfacet
  facet normal 0 1 0
    outer loop
      vertex 54.5 42.9 0
      vertex 63 42.9 15.4
      vertex 66 42.9 0
    endloop
  endfacet
  facet normal 0 1 0
    outer loop
      vertex 63 42.9 15.4
      vertex 54.5 42.9 0
      vertex 54.5 42.9 15.4
    endloop
  endfacet
  facet normal 0 -1 0
    outer loop
      vertex 54.5 55 15.4
      vertex 54.5 55 0
      vertex 63 55 15.4
    endloop
  endfacet
  facet normal 0 -1 0
    outer loop
      vertex 63 55 15.4
      vertex 66 55 24
      vertex 63 55 24
    endloop
  endfacet
  facet normal 0 -1 0
    outer loop
      vertex 63 55 15.4
      vertex 66 55 0
      vertex 66 55 24
    endloop
  endfacet
  facet normal 0 -1 0
    outer loop
      vertex 66 55 0
      vertex 63 55 15.4
      vertex 54.5 55 0
    endloop
  endfacet
  facet normal -0.992115 -0.125333 0
    outer loop
      vertex 40.7 30 20
      vertex 40.4581 31.9149 24
      vertex 40.4581 31.9149 20
    endloop
  endfacet
  facet normal -0.992115 -0.125333 0
    outer loop
      vertex 40.4581 31.9149 24
      vertex 40.7 30 20
      vertex 40.7 30 24
    endloop
  endfacet
  facet normal 1 -0 0
    outer loop
      vertex 25.3607 29.0349 24
      vertex 25.3607 30.9651 20
      vertex 25.3607 30.9651 24
    endloop
  endfacet
  facet normal 1 0 0
    outer loop
      vertex 25.3607 30.9651 20
      vertex 25.3607 29.0349 24
      vertex 25.3607 29.0349 20
    endloop
  endfacet
  facet normal 0.062792 -0.998027 0
    outer loop
      vertex 31.5572 37.5636 20
      vertex 33.4835 37.6848 24
      vertex 31.5572 37.5636 24
    endloop
  endfacet
  facet normal 0.062792 -0.998027 0
    outer loop
      vertex 33.4835 37.6848 24
      vertex 31.5572 37.5636 20
      vertex 33.4835 37.6848 20
    endloop
  endfacet
  facet normal -0.187381 0.982287 0
    outer loop
      vertex 35.3794 22.6769 20
      vertex 33.4835 22.3152 24
      vertex 35.3794 22.6769 24
    endloop
  endfacet
  facet normal -0.187381 0.982287 0
    outer loop
      vertex 33.4835 22.3152 24
      vertex 35.3794 22.6769 20
      vertex 33.4835 22.3152 20
    endloop
  endfacet
  facet normal -0.637424 -0.770514 0
    outer loop
      vertex 37.1259 36.5013 20
      vertex 38.6131 35.271 24
      vertex 37.1259 36.5013 24
    endloop
  endfacet
  facet normal -0.637424 -0.770514 -0
    outer loop
      vertex 38.6131 35.271 24
      vertex 37.1259 36.5013 20
      vertex 38.6131 35.271 20
    endloop
  endfacet
  facet normal -0.42578 -0.904827 0
    outer loop
      vertex 35.3794 37.3231 20
      vertex 37.1259 36.5013 24
      vertex 35.3794 37.3231 24
    endloop
  endfacet
  facet normal -0.42578 -0.904827 -0
    outer loop
      vertex 37.1259 36.5013 24
      vertex 35.3794 37.3231 20
      vertex 37.1259 36.5013 20
    endloop
  endfacet
  facet normal 0.728969 -0.684547 0
    outer loop
      vertex 26.7706 34.5259 24
      vertex 28.0918 35.933 20
      vertex 28.0918 35.933 24
    endloop
  endfacet
  facet normal 0.728969 -0.684547 0
    outer loop
      vertex 28.0918 35.933 20
      vertex 26.7706 34.5259 24
      vertex 26.7706 34.5259 20
    endloop
  endfacet
  facet normal 0.876307 -0.481753 0
    outer loop
      vertex 25.8407 32.8346 24
      vertex 26.7706 34.5259 20
      vertex 26.7706 34.5259 24
    endloop
  endfacet
  facet normal 0.876307 -0.481753 0
    outer loop
      vertex 26.7706 34.5259 20
      vertex 25.8407 32.8346 24
      vertex 25.8407 32.8346 20
    endloop
  endfacet
  facet normal 0.535826 -0.844329 0
    outer loop
      vertex 28.0918 35.933 20
      vertex 29.7215 36.9672 24
      vertex 28.0918 35.933 24
    endloop
  endfacet
  facet normal 0.535826 -0.844329 0
    outer loop
      vertex 29.7215 36.9672 24
      vertex 28.0918 35.933 20
      vertex 29.7215 36.9672 20
    endloop
  endfacet
  facet normal 0 0 1
    outer loop
      vertex 40.4581 31.9149 20
      vertex 40.4581 28.0851 20
      vertex 40.7 30 20
    endloop
  endfacet
  facet normal 0 0 1
    outer loop
      vertex 39.7476 33.7095 20
      vertex 40.4581 28.0851 20
      vertex 40.4581 31.9149 20
    endloop
  endfacet
  facet normal 0 0 1
    outer loop
      vertex 39.7476 33.7095 20
      vertex 39.7476 26.2905 20
      vertex 40.4581 28.0851 20
    endloop
  endfacet
  facet normal 0 0 1
    outer loop
      vertex 38.6131 35.271 20
      vertex 39.7476 26.2905 20
      vertex 39.7476 33.7095 20
    endloop
  endfacet
  facet normal 0 0 1
    outer loop
      vertex 38.6131 35.271 20
      vertex 38.6131 24.729 20
      vertex 39.7476 26.2905 20
    endloop
  endfacet
  facet normal 0 0 1
    outer loop
      vertex 37.1259 36.5013 20
      vertex 38.6131 24.729 20
      vertex 38.6131 35.271 20
    endloop
  endfacet
  facet normal 0 0 1
    outer loop
      vertex 37.1259 36.5013 20
      vertex 37.1259 23.4987 20
      vertex 38.6131 24.729 20
    endloop
  endfacet
  facet normal 0 0 1
    outer loop
      vertex 35.3794 37.3231 20
      vertex 37.1259 23.4987 20
      vertex 37.1259 36.5013 20
    endloop
  endfacet
  facet normal 0 0 1
    outer loop
      vertex 35.3794 37.3231 20
      vertex 35.3794 22.6769 20
      vertex 37.1259 23.4987 20
    endloop
  endfacet
  facet normal 0 0 1
    outer loop
      vertex 33.4835 37.6848 20
      vertex 35.3794 22.6769 20
      vertex 35.3794 37.3231 20
    endloop
  endfacet
  facet normal 0 0 1
    outer loop
      vertex 33.4835 37.6848 20
      vertex 33.4835 22.3152 20
      vertex 35.3794 22.6769 20
    endloop
  endfacet
  facet normal -0 0 1
    outer loop
      vertex 31.5572 37.5636 20
      vertex 33.4835 22.3152 20
      vertex 33.4835 37.6848 20
    endloop
  endfacet
  facet normal 0 0 1
    outer loop
      vertex 31.5572 37.5636 20
      vertex 31.5572 22.4364 20
      vertex 33.4835 22.3152 20
    endloop
  endfacet
  facet normal -0 0 1
    outer loop
      vertex 29.7215 36.9672 20
      vertex 31.5572 22.4364 20
      vertex 31.5572 37.5636 20
    endloop
  endfacet
  facet normal 0 0 1
    outer loop
      vertex 29.7215 36.9672 20
      vertex 29.7215 23.0328 20
      vertex 31.5572 22.4364 20
    endloop
  endfacet
  facet normal -0 0 1
    outer loop
      vertex 28.0918 35.933 20
      vertex 29.7215 23.0328 20
      vertex 29.7215 36.9672 20
    endloop
  endfacet
  facet normal 0 0 1
    outer loop
      vertex 28.0918 35.933 20
      vertex 28.0918 24.067 20
      vertex 29.7215 23.0328 20
    endloop
  endfacet
  facet normal -0 0 1
    outer loop
      vertex 26.7706 34.5259 20
      vertex 28.0918 24.067 20
      vertex 28.0918 35.933 20
    endloop
  endfacet
  facet normal 0 0 1
    outer loop
      vertex 26.7706 34.5259 20
      vertex 26.7706 25.4741 20
      vertex 28.0918 24.067 20
    endloop
  endfacet
  facet normal -0 0 1
    outer loop
      vertex 25.8407 32.8346 20
      vertex 26.7706 25.4741 20
      vertex 26.7706 34.5259 20
    endloop
  endfacet
  facet normal 0 0 1
    outer loop
      vertex 25.8407 32.8346 20
      vertex 25.8407 27.1654 20
      vertex 26.7706 25.4741 20
    endloop
  endfacet
  facet normal -0 0 1
    outer loop
      vertex 25.3607 30.9651 20
      vertex 25.8407 27.1654 20
      vertex 25.8407 32.8346 20
    endloop
  endfacet
  facet normal 0 0 1
    outer loop
      vertex 25.8407 27.1654 20
      vertex 25.3607 30.9651 20
      vertex 25.3607 29.0349 20
    endloop
  endfacet
  facet normal -0.929776 0.368127 0
    outer loop
      vertex 39.7476 26.2905 20
      vertex 40.4581 28.0851 24
      vertex 40.4581 28.0851 20
    endloop
  endfacet
  facet normal -0.929776 0.368127 0
    outer loop
      vertex 40.4581 28.0851 24
      vertex 39.7476 26.2905 20
      vertex 39.7476 26.2905 24
    endloop
  endfacet
  facet normal -0.809018 -0.587784 0
    outer loop
      vertex 39.7476 33.7095 20
      vertex 38.6131 35.271 24
      vertex 38.6131 35.271 20
    endloop
  endfacet
  facet normal -0.809018 -0.587784 0
    outer loop
      vertex 38.6131 35.271 24
      vertex 39.7476 33.7095 20
      vertex 39.7476 33.7095 24
    endloop
  endfacet
  facet normal -0.929776 -0.368126 0
    outer loop
      vertex 40.4581 31.9149 20
      vertex 39.7476 33.7095 24
      vertex 39.7476 33.7095 20
    endloop
  endfacet
  facet normal -0.929776 -0.368126 0
    outer loop
      vertex 39.7476 33.7095 24
      vertex 40.4581 31.9149 20
      vertex 40.4581 31.9149 24
    endloop
  endfacet
  facet normal -0.187381 -0.982287 0
    outer loop
      vertex 33.4835 37.6848 20
      vertex 35.3794 37.3231 24
      vertex 33.4835 37.6848 24
    endloop
  endfacet
  facet normal -0.187381 -0.982287 -0
    outer loop
      vertex 35.3794 37.3231 24
      vertex 33.4835 37.6848 20
      vertex 35.3794 37.3231 20
    endloop
  endfacet
  facet normal 0.968583 -0.248691 0
    outer loop
      vertex 25.3607 30.9651 24
      vertex 25.8407 32.8346 20
      vertex 25.8407 32.8346 24
    endloop
  endfacet
  facet normal 0.968583 -0.248691 0
    outer loop
      vertex 25.8407 32.8346 20
      vertex 25.3607 30.9651 24
      vertex 25.3607 30.9651 20
    endloop
  endfacet
  facet normal 0.309017 -0.951056 0
    outer loop
      vertex 29.7215 36.9672 20
      vertex 31.5572 37.5636 24
      vertex 29.7215 36.9672 24
    endloop
  endfacet
  facet normal 0.309017 -0.951056 0
    outer loop
      vertex 31.5572 37.5636 24
      vertex 29.7215 36.9672 20
      vertex 31.5572 37.5636 20
    endloop
  endfacet
  facet normal 0.968583 0.24869 0
    outer loop
      vertex 25.8407 27.1654 24
      vertex 25.3607 29.0349 20
      vertex 25.3607 29.0349 24
    endloop
  endfacet
  facet normal 0.968583 0.24869 0
    outer loop
      vertex 25.3607 29.0349 20
      vertex 25.8407 27.1654 24
      vertex 25.8407 27.1654 20
    endloop
  endfacet
  facet normal -0.809018 0.587784 0
    outer loop
      vertex 38.6131 24.729 20
      vertex 39.7476 26.2905 24
      vertex 39.7476 26.2905 20
    endloop
  endfacet
  facet normal -0.809018 0.587784 0
    outer loop
      vertex 39.7476 26.2905 24
      vertex 38.6131 24.729 20
      vertex 38.6131 24.729 24
    endloop
  endfacet
  facet normal -0.992115 0.125333 0
    outer loop
      vertex 40.4581 28.0851 20
      vertex 40.7 30 24
      vertex 40.7 30 20
    endloop
  endfacet
  facet normal -0.992115 0.125333 0
    outer loop
      vertex 40.7 30 24
      vertex 40.4581 28.0851 20
      vertex 40.4581 28.0851 24
    endloop
  endfacet
  facet normal 0.535826 0.844328 -0
    outer loop
      vertex 29.7215 23.0328 20
      vertex 28.0918 24.067 24
      vertex 29.7215 23.0328 24
    endloop
  endfacet
  facet normal 0.535826 0.844328 0
    outer loop
      vertex 28.0918 24.067 24
      vertex 29.7215 23.0328 20
      vertex 28.0918 24.067 20
    endloop
  endfacet
  facet normal 0.876307 0.481754 0
    outer loop
      vertex 26.7706 25.4741 24
      vertex 25.8407 27.1654 20
      vertex 25.8407 27.1654 24
    endloop
  endfacet
  facet normal 0.876307 0.481754 0
    outer loop
      vertex 25.8407 27.1654 20
      vertex 26.7706 25.4741 24
      vertex 26.7706 25.4741 20
    endloop
  endfacet
  facet normal 0.728969 0.684547 0
    outer loop
      vertex 28.0918 24.067 24
      vertex 26.7706 25.4741 20
      vertex 26.7706 25.4741 24
    endloop
  endfacet
  facet normal 0.728969 0.684547 0
    outer loop
      vertex 26.7706 25.4741 20
      vertex 28.0918 24.067 24
      vertex 28.0918 24.067 20
    endloop
  endfacet
  facet normal -0.42578 0.904827 0
    outer loop
      vertex 37.1259 23.4987 20
      vertex 35.3794 22.6769 24
      vertex 37.1259 23.4987 24
    endloop
  endfacet
  facet normal -0.42578 0.904827 0
    outer loop
      vertex 35.3794 22.6769 24
      vertex 37.1259 23.4987 20
      vertex 35.3794 22.6769 20
    endloop
  endfacet
  facet normal 0.062791 0.998027 -0
    outer loop
      vertex 33.4835 22.3152 20
      vertex 31.5572 22.4364 24
      vertex 33.4835 22.3152 24
    endloop
  endfacet
  facet normal 0.062791 0.998027 0
    outer loop
      vertex 31.5572 22.4364 24
      vertex 33.4835 22.3152 20
      vertex 31.5572 22.4364 20
    endloop
  endfacet
  facet normal -0.637424 0.770514 0
    outer loop
      vertex 38.6131 24.729 20
      vertex 37.1259 23.4987 24
      vertex 38.6131 24.729 24
    endloop
  endfacet
  facet normal -0.637424 0.770514 0
    outer loop
      vertex 37.1259 23.4987 24
      vertex 38.6131 24.729 20
      vertex 37.1259 23.4987 20
    endloop
  endfacet
  facet normal 0.309017 0.951056 -0
    outer loop
      vertex 31.5572 22.4364 20
      vertex 29.7215 23.0328 24
      vertex 31.5572 22.4364 24
    endloop
  endfacet
  facet normal 0.309017 0.951056 0
    outer loop
      vertex 29.7215 23.0328 24
      vertex 31.5572 22.4364 20
      vertex 29.7215 23.0328 20
    endloop
  endfacet
endsolid OpenSCAD_Model
