solid OpenSCAD_Model
  facet normal -1 0 0
    outer loop
      vertex 0 0 0
      vertex 0 100 3
      vertex 0 100 0
    endloop
  endfacet
  facet normal -1 -0 0
    outer loop
      vertex 0 100 3
      vertex 0 0 0
      vertex 0 0 3
    endloop
  endfacet
  facet normal 0 0 1
    outer loop
      vertex 100 100 3
      vertex 59 59 3
      vertex 100 0 3
    endloop
  endfacet
  facet normal 0 0 1
    outer loop
      vertex 100 100 3
      vertex 41 59 3
      vertex 59 59 3
    endloop
  endfacet
  facet normal 0 0 1
    outer loop
      vertex 41 59 3
      vertex 0 100 3
      vertex 41 41 3
    endloop
  endfacet
  facet normal -0 0 1
    outer loop
      vertex 0 100 3
      vertex 41 59 3
      vertex 100 100 3
    endloop
  endfacet
  facet normal -0 0 1
    outer loop
      vertex 59 41 3
      vertex 100 0 3
      vertex 59 59 3
    endloop
  endfacet
  facet normal -0 0 1
    outer loop
      vertex 41 41 3
      vertex 100 0 3
      vertex 59 41 3
    endloop
  endfacet
  facet normal 0 0 1
    outer loop
      vertex 41 41 3
      vertex 0 0 3
      vertex 100 0 3
    endloop
  endfacet
  facet normal 0 0 1
    outer loop
      vertex 0 0 3
      vertex 41 41 3
      vertex 0 100 3
    endloop
  endfacet
  facet normal 1 -0 0
    outer loop
      vertex 100 0 3
      vertex 100 100 0
      vertex 100 100 3
    endloop
  endfacet
  facet normal 1 0 0
    outer loop
      vertex 100 100 0
      vertex 100 0 3
      vertex 100 0 0
    endloop
  endfacet
  facet normal 0 1 -0
    outer loop
      vertex 100 100 0
      vertex 0 100 3
      vertex 100 100 3
    endloop
  endfacet
  facet normal 0 1 0
    outer loop
      vertex 0 100 3
      vertex 100 100 0
      vertex 0 100 0
    endloop
  endfacet
  facet normal 0 0 -1
    outer loop
      vertex 0 0 0
      vertex 100 100 0
      vertex 100 0 0
    endloop
  endfacet
  facet normal -0 0 -1
    outer loop
      vertex 100 100 0
      vertex 0 0 0
      vertex 0 100 0
    endloop
  endfacet
  facet normal 0 -1 0
    outer loop
      vertex 0 0 0
      vertex 100 0 3
      vertex 0 0 3
    endloop
  endfacet
  facet normal 0 -1 -0
    outer loop
      vertex 100 0 3
      vertex 0 0 0
      vertex 100 0 0
    endloop
  endfacet
  facet normal -1 0 0
    outer loop
      vertex 41 41 3
      vertex 41 59 44.9
      vertex 41 59 3
    endloop
  endfacet
  facet normal -1 -0 0
    outer loop
      vertex 41 59 44.9
      vertex 41 41 3
      vertex 41 41 44.9
    endloop
  endfacet
  facet normal 0 0 1
    outer loop
      vertex 59 59 44.9
      vertex 57.7 50 44.9
      vertex 59 41 44.9
    endloop
  endfacet
  facet normal 0 0 1
    outer loop
      vertex 59 59 44.9
      vertex 57.4581 51.9149 44.9
      vertex 57.7 50 44.9
    endloop
  endfacet
  facet normal 0 0 1
    outer loop
      vertex 59 59 44.9
      vertex 56.7476 53.7095 44.9
      vertex 57.4581 51.9149 44.9
    endloop
  endfacet
  facet normal 0 0 1
    outer loop
      vertex 59 59 44.9
      vertex 55.6131 55.271 44.9
      vertex 56.7476 53.7095 44.9
    endloop
  endfacet
  facet normal 0 0 1
    outer loop
      vertex 59 59 44.9
      vertex 54.1259 56.5013 44.9
      vertex 55.6131 55.271 44.9
    endloop
  endfacet
  facet normal 0 0 1
    outer loop
      vertex 59 59 44.9
      vertex 52.3794 57.3231 44.9
      vertex 54.1259 56.5013 44.9
    endloop
  endfacet
  facet normal 0 0 1
    outer loop
      vertex 59 59 44.9
      vertex 50.4835 57.6848 44.9
      vertex 52.3794 57.3231 44.9
    endloop
  endfacet
  facet normal -0 0 1
    outer loop
      vertex 41 59 44.9
      vertex 50.4835 57.6848 44.9
      vertex 59 59 44.9
    endloop
  endfacet
  facet normal 0 0 1
    outer loop
      vertex 42.3607 50.9651 44.9
      vertex 41 59 44.9
      vertex 42.3607 49.0349 44.9
    endloop
  endfacet
  facet normal 0 0 1
    outer loop
      vertex 42.8407 52.8346 44.9
      vertex 41 59 44.9
      vertex 42.3607 50.9651 44.9
    endloop
  endfacet
  facet normal 0 0 1
    outer loop
      vertex 43.7706 54.5259 44.9
      vertex 41 59 44.9
      vertex 42.8407 52.8346 44.9
    endloop
  endfacet
  facet normal 0 0 1
    outer loop
      vertex 45.0918 55.933 44.9
      vertex 41 59 44.9
      vertex 43.7706 54.5259 44.9
    endloop
  endfacet
  facet normal 0 0 1
    outer loop
      vertex 46.7215 56.9672 44.9
      vertex 41 59 44.9
      vertex 45.0918 55.933 44.9
    endloop
  endfacet
  facet normal 0 0 1
    outer loop
      vertex 48.5572 57.5636 44.9
      vertex 41 59 44.9
      vertex 46.7215 56.9672 44.9
    endloop
  endfacet
  facet normal 0 0 1
    outer loop
      vertex 50.4835 57.6848 44.9
      vertex 41 59 44.9
      vertex 48.5572 57.5636 44.9
    endloop
  endfacet
  facet normal -0 0 1
    outer loop
      vertex 57.4581 48.0851 44.9
      vertex 59 41 44.9
      vertex 57.7 50 44.9
    endloop
  endfacet
  facet normal -0 0 1
    outer loop
      vertex 56.7476 46.2905 44.9
      vertex 59 41 44.9
      vertex 57.4581 48.0851 44.9
    endloop
  endfacet
  facet normal -0 0 1
    outer loop
      vertex 55.6131 44.729 44.9
      vertex 59 41 44.9
      vertex 56.7476 46.2905 44.9
    endloop
  endfacet
  facet normal -0 0 1
    outer loop
      vertex 54.1259 43.4987 44.9
      vertex 59 41 44.9
      vertex 55.6131 44.729 44.9
    endloop
  endfacet
  facet normal -0 0 1
    outer loop
      vertex 52.3794 42.6769 44.9
      vertex 59 41 44.9
      vertex 54.1259 43.4987 44.9
    endloop
  endfacet
  facet normal -0 0 1
    outer loop
      vertex 50.4835 42.3152 44.9
      vertex 59 41 44.9
      vertex 52.3794 42.6769 44.9
    endloop
  endfacet
  facet normal 0 0 1
    outer loop
      vertex 41 41 44.9
      vertex 50.4835 42.3152 44.9
      vertex 48.5572 42.4364 44.9
    endloop
  endfacet
  facet normal 0 0 1
    outer loop
      vertex 50.4835 42.3152 44.9
      vertex 41 41 44.9
      vertex 59 41 44.9
    endloop
  endfacet
  facet normal 0 0 1
    outer loop
      vertex 46.7215 43.0328 44.9
      vertex 41 41 44.9
      vertex 48.5572 42.4364 44.9
    endloop
  endfacet
  facet normal 0 0 1
    outer loop
      vertex 45.0918 44.067 44.9
      vertex 41 41 44.9
      vertex 46.7215 43.0328 44.9
    endloop
  endfacet
  facet normal 0 0 1
    outer loop
      vertex 43.7706 45.4741 44.9
      vertex 41 41 44.9
      vertex 45.0918 44.067 44.9
    endloop
  endfacet
  facet normal 0 0 1
    outer loop
      vertex 42.8407 47.1654 44.9
      vertex 41 41 44.9
      vertex 43.7706 45.4741 44.9
    endloop
  endfacet
  facet normal 0 0 1
    outer loop
      vertex 42.3607 49.0349 44.9
      vertex 41 41 44.9
      vertex 42.8407 47.1654 44.9
    endloop
  endfacet
  facet normal 0 0 1
    outer loop
      vertex 41 41 44.9
      vertex 42.3607 49.0349 44.9
      vertex 41 59 44.9
    endloop
  endfacet
  facet normal 1 -0 0
    outer loop
      vertex 59 41 44.9
      vertex 59 59 3
      vertex 59 59 44.9
    endloop
  endfacet
  facet normal 1 0 0
    outer loop
      vertex 59 59 3
      vertex 59 41 44.9
      vertex 59 41 3
    endloop
  endfacet
  facet normal 0 -1 0
    outer loop
      vertex 41 41 3
      vertex 59 41 44.9
      vertex 41 41 44.9
    endloop
  endfacet
  facet normal 0 -1 -0
    outer loop
      vertex 59 41 44.9
      vertex 41 41 3
      vertex 59 41 3
    endloop
  endfacet
  facet normal 0 1 -0
    outer loop
      vertex 59 59 3
      vertex 41 59 44.9
      vertex 59 59 44.9
    endloop
  endfacet
  facet normal 0 1 0
    outer loop
      vertex 41 59 44.9
      vertex 59 59 3
      vertex 41 59 3
    endloop
  endfacet
  facet normal -0.992115 -0.125333 0
    outer loop
      vertex 57.7 50 40.9
      vertex 57.4581 51.9149 44.9
      vertex 57.4581 51.9149 40.9
    endloop
  endfacet
  facet normal -0.992115 -0.125333 0
    outer loop
      vertex 57.4581 51.9149 44.9
      vertex 57.7 50 40.9
      vertex 57.7 50 44.9
    endloop
  endfacet
  facet normal 1 -0 0
    outer loop
      vertex 42.3607 49.0349 44.9
      vertex 42.3607 50.9651 40.9
      vertex 42.3607 50.9651 44.9
    endloop
  endfacet
  facet normal 1 0 0
    outer loop
      vertex 42.3607 50.9651 40.9
      vertex 42.3607 49.0349 44.9
      vertex 42.3607 49.0349 40.9
    endloop
  endfacet
  facet normal 0.062792 -0.998027 0
    outer loop
      vertex 48.5572 57.5636 40.9
      vertex 50.4835 57.6848 44.9
      vertex 48.5572 57.5636 44.9
    endloop
  endfacet
  facet normal 0.062792 -0.998027 0
    outer loop
      vertex 50.4835 57.6848 44.9
      vertex 48.5572 57.5636 40.9
      vertex 50.4835 57.6848 40.9
    endloop
  endfacet
  facet normal -0.187381 0.982287 0
    outer loop
      vertex 52.3794 42.6769 40.9
      vertex 50.4835 42.3152 44.9
      vertex 52.3794 42.6769 44.9
    endloop
  endfacet
  facet normal -0.187381 0.982287 0
    outer loop
      vertex 50.4835 42.3152 44.9
      vertex 52.3794 42.6769 40.9
      vertex 50.4835 42.3152 40.9
    endloop
  endfacet
  facet normal -0.637424 -0.770514 0
    outer loop
      vertex 54.1259 56.5013 40.9
      vertex 55.6131 55.271 44.9
      vertex 54.1259 56.5013 44.9
    endloop
  endfacet
  facet normal -0.637424 -0.770514 -0
    outer loop
      vertex 55.6131 55.271 44.9
      vertex 54.1259 56.5013 40.9
      vertex 55.6131 55.271 40.9
    endloop
  endfacet
  facet normal -0.42578 -0.904827 0
    outer loop
      vertex 52.3794 57.3231 40.9
      vertex 54.1259 56.5013 44.9
      vertex 52.3794 57.3231 44.9
    endloop
  endfacet
  facet normal -0.42578 -0.904827 -0
    outer loop
      vertex 54.1259 56.5013 44.9
      vertex 52.3794 57.3231 40.9
      vertex 54.1259 56.5013 40.9
    endloop
  endfacet
  facet normal 0.728969 -0.684547 0
    outer loop
      vertex 43.7706 54.5259 44.9
      vertex 45.0918 55.933 40.9
      vertex 45.0918 55.933 44.9
    endloop
  endfacet
  facet normal 0.728969 -0.684547 0
    outer loop
      vertex 45.0918 55.933 40.9
      vertex 43.7706 54.5259 44.9
      vertex 43.7706 54.5259 40.9
    endloop
  endfacet
  facet normal 0.876307 -0.481753 0
    outer loop
      vertex 42.8407 52.8346 44.9
      vertex 43.7706 54.5259 40.9
      vertex 43.7706 54.5259 44.9
    endloop
  endfacet
  facet normal 0.876307 -0.481753 0
    outer loop
      vertex 43.7706 54.5259 40.9
      vertex 42.8407 52.8346 44.9
      vertex 42.8407 52.8346 40.9
    endloop
  endfacet
  facet normal 0.535826 -0.844329 0
    outer loop
      vertex 45.0918 55.933 40.9
      vertex 46.7215 56.9672 44.9
      vertex 45.0918 55.933 44.9
    endloop
  endfacet
  facet normal 0.535826 -0.844329 0
    outer loop
      vertex 46.7215 56.9672 44.9
      vertex 45.0918 55.933 40.9
      vertex 46.7215 56.9672 40.9
    endloop
  endfacet
  facet normal 0 0 1
    outer loop
      vertex 57.4581 51.9149 40.9
      vertex 57.4581 48.0851 40.9
      vertex 57.7 50 40.9
    endloop
  endfacet
  facet normal 0 0 1
    outer loop
      vertex 56.7476 53.7095 40.9
      vertex 57.4581 48.0851 40.9
      vertex 57.4581 51.9149 40.9
    endloop
  endfacet
  facet normal 0 0 1
    outer loop
      vertex 56.7476 53.7095 40.9
      vertex 56.7476 46.2905 40.9
      vertex 57.4581 48.0851 40.9
    endloop
  endfacet
  facet normal 0 0 1
    outer loop
      vertex 55.6131 55.271 40.9
      vertex 56.7476 46.2905 40.9
      vertex 56.7476 53.7095 40.9
    endloop
  endfacet
  facet normal 0 0 1
    outer loop
      vertex 55.6131 55.271 40.9
      vertex 55.6131 44.729 40.9
      vertex 56.7476 46.2905 40.9
    endloop
  endfacet
  facet normal 0 0 1
    outer loop
      vertex 54.1259 56.5013 40.9
      vertex 55.6131 44.729 40.9
      vertex 55.6131 55.271 40.9
    endloop
  endfacet
  facet normal 0 0 1
    outer loop
      vertex 54.1259 56.5013 40.9
      vertex 54.1259 43.4987 40.9
      vertex 55.6131 44.729 40.9
    endloop
  endfacet
  facet normal 0 0 1
    outer loop
      vertex 52.3794 57.3231 40.9
      vertex 54.1259 43.4987 40.9
      vertex 54.1259 56.5013 40.9
    endloop
  endfacet
  facet normal 0 0 1
    outer loop
      vertex 52.3794 57.3231 40.9
      vertex 52.3794 42.6769 40.9
      vertex 54.1259 43.4987 40.9
    endloop
  endfacet
  facet normal 0 0 1
    outer loop
      vertex 50.4835 57.6848 40.9
      vertex 52.3794 42.6769 40.9
      vertex 52.3794 57.3231 40.9
    endloop
  endfacet
  facet normal 0 0 1
    outer loop
      vertex 50.4835 57.6848 40.9
      vertex 50.4835 42.3152 40.9
      vertex 52.3794 42.6769 40.9
    endloop
  endfacet
  facet normal -0 0 1
    outer loop
      vertex 48.5572 57.5636 40.9
      vertex 50.4835 42.3152 40.9
      vertex 50.4835 57.6848 40.9
    endloop
  endfacet
  facet normal 0 0 1
    outer loop
      vertex 48.5572 57.5636 40.9
      vertex 48.5572 42.4364 40.9
      vertex 50.4835 42.3152 40.9
    endloop
  endfacet
  facet normal -0 0 1
    outer loop
      vertex 46.7215 56.9672 40.9
      vertex 48.5572 42.4364 40.9
      vertex 48.5572 57.5636 40.9
    endloop
  endfacet
  facet normal 0 0 1
    outer loop
      vertex 46.7215 56.9672 40.9
      vertex 46.7215 43.0328 40.9
      vertex 48.5572 42.4364 40.9
    endloop
  endfacet
  facet normal -0 0 1
    outer loop
      vertex 45.0918 55.933 40.9
      vertex 46.7215 43.0328 40.9
      vertex 46.7215 56.9672 40.9
    endloop
  endfacet
  facet normal 0 0 1
    outer loop
      vertex 45.0918 55.933 40.9
      vertex 45.0918 44.067 40.9
      vertex 46.7215 43.0328 40.9
    endloop
  endfacet
  facet normal -0 0 1
    outer loop
      vertex 43.7706 54.5259 40.9
      vertex 45.0918 44.067 40.9
      vertex 45.0918 55.933 40.9
    endloop
  endfacet
  facet normal 0 0 1
    outer loop
      vertex 43.7706 54.5259 40.9
      vertex 43.7706 45.4741 40.9
      vertex 45.0918 44.067 40.9
    endloop
  endfacet
  facet normal -0 0 1
    outer loop
      vertex 42.8407 52.8346 40.9
      vertex 43.7706 45.4741 40.9
      vertex 43.7706 54.5259 40.9
    endloop
  endfacet
  facet normal 0 0 1
    outer loop
      vertex 42.8407 52.8346 40.9
      vertex 42.8407 47.1654 40.9
      vertex 43.7706 45.4741 40.9
    endloop
  endfacet
  facet normal -0 0 1
    outer loop
      vertex 42.3607 50.9651 40.9
      vertex 42.8407 47.1654 40.9
      vertex 42.8407 52.8346 40.9
    endloop
  endfacet
  facet normal 0 0 1
    outer loop
      vertex 42.8407 47.1654 40.9
      vertex 42.3607 50.9651 40.9
      vertex 42.3607 49.0349 40.9
    endloop
  endfacet
  facet normal -0.929776 0.368127 0
    outer loop
      vertex 56.7476 46.2905 40.9
      vertex 57.4581 48.0851 44.9
      vertex 57.4581 48.0851 40.9
    endloop
  endfacet
  facet normal -0.929776 0.368127 0
    outer loop
      vertex 57.4581 48.0851 44.9
      vertex 56.7476 46.2905 40.9
      vertex 56.7476 46.2905 44.9
    endloop
  endfacet
  facet normal -0.809018 -0.587784 0
    outer loop
      vertex 56.7476 53.7095 40.9
      vertex 55.6131 55.271 44.9
      vertex 55.6131 55.271 40.9
    endloop
  endfacet
  facet normal -0.809018 -0.587784 0
    outer loop
      vertex 55.6131 55.271 44.9
      vertex 56.7476 53.7095 40.9
      vertex 56.7476 53.7095 44.9
    endloop
  endfacet
  facet normal -0.929776 -0.368126 0
    outer loop
      vertex 57.4581 51.9149 40.9
      vertex 56.7476 53.7095 44.9
      vertex 56.7476 53.7095 40.9
    endloop
  endfacet
  facet normal -0.929776 -0.368126 0
    outer loop
      vertex 56.7476 53.7095 44.9
      vertex 57.4581 51.9149 40.9
      vertex 57.4581 51.9149 44.9
    endloop
  endfacet
  facet normal -0.187381 -0.982287 0
    outer loop
      vertex 50.4835 57.6848 40.9
      vertex 52.3794 57.3231 44.9
      vertex 50.4835 57.6848 44.9
    endloop
  endfacet
  facet normal -0.187381 -0.982287 -0
    outer loop
      vertex 52.3794 57.3231 44.9
      vertex 50.4835 57.6848 40.9
      vertex 52.3794 57.3231 40.9
    endloop
  endfacet
  facet normal 0.968583 -0.24869 0
    outer loop
      vertex 42.3607 50.9651 44.9
      vertex 42.8407 52.8346 40.9
      vertex 42.8407 52.8346 44.9
    endloop
  endfacet
  facet normal 0.968583 -0.24869 0
    outer loop
      vertex 42.8407 52.8346 40.9
      vertex 42.3607 50.9651 44.9
      vertex 42.3607 50.9651 40.9
    endloop
  endfacet
  facet normal 0.309017 -0.951056 0
    outer loop
      vertex 46.7215 56.9672 40.9
      vertex 48.5572 57.5636 44.9
      vertex 46.7215 56.9672 44.9
    endloop
  endfacet
  facet normal 0.309017 -0.951056 0
    outer loop
      vertex 48.5572 57.5636 44.9
      vertex 46.7215 56.9672 40.9
      vertex 48.5572 57.5636 40.9
    endloop
  endfacet
  facet normal 0.968583 0.248689 0
    outer loop
      vertex 42.8407 47.1654 44.9
      vertex 42.3607 49.0349 40.9
      vertex 42.3607 49.0349 44.9
    endloop
  endfacet
  facet normal 0.968583 0.248689 0
    outer loop
      vertex 42.3607 49.0349 40.9
      vertex 42.8407 47.1654 44.9
      vertex 42.8407 47.1654 40.9
    endloop
  endfacet
  facet normal -0.809018 0.587784 0
    outer loop
      vertex 55.6131 44.729 40.9
      vertex 56.7476 46.2905 44.9
      vertex 56.7476 46.2905 40.9
    endloop
  endfacet
  facet normal -0.809018 0.587784 0
    outer loop
      vertex 56.7476 46.2905 44.9
      vertex 55.6131 44.729 40.9
      vertex 55.6131 44.729 44.9
    endloop
  endfacet
  facet normal -0.992115 0.125333 0
    outer loop
      vertex 57.4581 48.0851 40.9
      vertex 57.7 50 44.9
      vertex 57.7 50 40.9
    endloop
  endfacet
  facet normal -0.992115 0.125333 0
    outer loop
      vertex 57.7 50 44.9
      vertex 57.4581 48.0851 40.9
      vertex 57.4581 48.0851 44.9
    endloop
  endfacet
  facet normal 0.535827 0.844328 -0
    outer loop
      vertex 46.7215 43.0328 40.9
      vertex 45.0918 44.067 44.9
      vertex 46.7215 43.0328 44.9
    endloop
  endfacet
  facet normal 0.535827 0.844328 0
    outer loop
      vertex 45.0918 44.067 44.9
      vertex 46.7215 43.0328 40.9
      vertex 45.0918 44.067 40.9
    endloop
  endfacet
  facet normal 0.876307 0.481754 0
    outer loop
      vertex 43.7706 45.4741 44.9
      vertex 42.8407 47.1654 40.9
      vertex 42.8407 47.1654 44.9
    endloop
  endfacet
  facet normal 0.876307 0.481754 0
    outer loop
      vertex 42.8407 47.1654 40.9
      vertex 43.7706 45.4741 44.9
      vertex 43.7706 45.4741 40.9
    endloop
  endfacet
  facet normal 0.728969 0.684547 0
    outer loop
      vertex 45.0918 44.067 44.9
      vertex 43.7706 45.4741 40.9
      vertex 43.7706 45.4741 44.9
    endloop
  endfacet
  facet normal 0.728969 0.684547 0
    outer loop
      vertex 43.7706 45.4741 40.9
      vertex 45.0918 44.067 44.9
      vertex 45.0918 44.067 40.9
    endloop
  endfacet
  facet normal 0.06279 0.998027 -0
    outer loop
      vertex 50.4835 42.3152 40.9
      vertex 48.5572 42.4364 44.9
      vertex 50.4835 42.3152 44.9
    endloop
  endfacet
  facet normal 0.06279 0.998027 0
    outer loop
      vertex 48.5572 42.4364 44.9
      vertex 50.4835 42.3152 40.9
      vertex 48.5572 42.4364 40.9
    endloop
  endfacet
  facet normal -0.637425 0.770513 0
    outer loop
      vertex 55.6131 44.729 40.9
      vertex 54.1259 43.4987 44.9
      vertex 55.6131 44.729 44.9
    endloop
  endfacet
  facet normal -0.637425 0.770513 0
    outer loop
      vertex 54.1259 43.4987 44.9
      vertex 55.6131 44.729 40.9
      vertex 54.1259 43.4987 40.9
    endloop
  endfacet
  facet normal -0.425779 0.904827 0
    outer loop
      vertex 54.1259 43.4987 40.9
      vertex 52.3794 42.6769 44.9
      vertex 54.1259 43.4987 44.9
    endloop
  endfacet
  facet normal -0.425779 0.904827 0
    outer loop
      vertex 52.3794 42.6769 44.9
      vertex 54.1259 43.4987 40.9
      vertex 52.3794 42.6769 40.9
    endloop
  endfacet
  facet normal 0.309017 0.951056 -0
    outer loop
      vertex 48.5572 42.4364 40.9
      vertex 46.7215 43.0328 44.9
      vertex 48.5572 42.4364 44.9
    endloop
  endfacet
  facet normal 0.309017 0.951056 0
    outer loop
      vertex 46.7215 43.0328 44.9
      vertex 48.5572 42.4364 40.9
      vertex 46.7215 43.0328 40.9
    endloop
  endfacet
endsolid OpenSCAD_Model
