solid OpenSCAD_Model
  facet normal 1 -0 0
    outer loop
      vertex 2 2 12.1
      vertex 2 14.072 3
      vertex 2 14.072 12.1
    endloop
  endfacet
  facet normal 1 0 0
    outer loop
      vertex 2 14.072 3
      vertex 2 2 12.1
      vertex 2 2 3
    endloop
  endfacet
  facet normal 1 -0 0
    outer loop
      vertex 2 50.288 12.1
      vertex 2 62.36 3
      vertex 2 62.36 12.1
    endloop
  endfacet
  facet normal 1 0 0
    outer loop
      vertex 2 62.36 3
      vertex 2 50.288 12.1
      vertex 2 50.288 3
    endloop
  endfacet
  facet normal 0 0 1
    outer loop
      vertex 2 14.072 12.1
      vertex 0 14.072 12.1
      vertex 2 2 12.1
    endloop
  endfacet
  facet normal 0 0 1
    outer loop
      vertex 9.545 87.07 12.1
      vertex 2 85.07 12.1
      vertex 9.545 85.07 12.1
    endloop
  endfacet
  facet normal 0 0 1
    outer loop
      vertex 0 87.07 12.1
      vertex 2 64.36 12.1
      vertex 2 85.07 12.1
    endloop
  endfacet
  facet normal 0 0 1
    outer loop
      vertex 0 50.288 12.1
      vertex 2 64.36 12.1
      vertex 0 87.07 12.1
    endloop
  endfacet
  facet normal -0 0 1
    outer loop
      vertex 0 87.07 12.1
      vertex 2 85.07 12.1
      vertex 9.545 87.07 12.1
    endloop
  endfacet
  facet normal 0 0 1
    outer loop
      vertex 2 64.36 12.1
      vertex 0 50.288 12.1
      vertex 2 62.36 12.1
    endloop
  endfacet
  facet normal 0 0 1
    outer loop
      vertex 2 62.36 12.1
      vertex 0 50.288 12.1
      vertex 2 50.288 12.1
    endloop
  endfacet
  facet normal 0 0 1
    outer loop
      vertex 62.36 64.36 12.1
      vertex 41.65 62.36 12.1
      vertex 62.36 62.36 12.1
    endloop
  endfacet
  facet normal 0 0 1
    outer loop
      vertex 41.65 62.36 12.1
      vertex 39.88 43.535 12.1
      vertex 41.65 2 12.1
    endloop
  endfacet
  facet normal 0 0 1
    outer loop
      vertex 41.65 62.36 12.1
      vertex 39.6381 45.4499 12.1
      vertex 39.88 43.535 12.1
    endloop
  endfacet
  facet normal 0 0 1
    outer loop
      vertex 41.65 62.36 12.1
      vertex 38.9276 47.2445 12.1
      vertex 39.6381 45.4499 12.1
    endloop
  endfacet
  facet normal 0 0 1
    outer loop
      vertex 41.65 62.36 12.1
      vertex 37.7931 48.806 12.1
      vertex 38.9276 47.2445 12.1
    endloop
  endfacet
  facet normal 0 0 1
    outer loop
      vertex 41.65 62.36 12.1
      vertex 36.3059 50.0363 12.1
      vertex 37.7931 48.806 12.1
    endloop
  endfacet
  facet normal 0 0 1
    outer loop
      vertex 41.65 62.36 12.1
      vertex 34.5594 50.8581 12.1
      vertex 36.3059 50.0363 12.1
    endloop
  endfacet
  facet normal 0 0 1
    outer loop
      vertex 41.65 62.36 12.1
      vertex 32.6635 51.2198 12.1
      vertex 34.5594 50.8581 12.1
    endloop
  endfacet
  facet normal -0 0 1
    outer loop
      vertex 22.71 62.36 12.1
      vertex 32.6635 51.2198 12.1
      vertex 41.65 62.36 12.1
    endloop
  endfacet
  facet normal 0 0 1
    outer loop
      vertex 32.6635 51.2198 12.1
      vertex 22.71 62.36 12.1
      vertex 30.7372 51.0986 12.1
    endloop
  endfacet
  facet normal 0 0 1
    outer loop
      vertex 30.7372 51.0986 12.1
      vertex 22.71 62.36 12.1
      vertex 28.9015 50.5022 12.1
    endloop
  endfacet
  facet normal 0 0 1
    outer loop
      vertex 24.5407 44.5001 12.1
      vertex 22.71 62.36 12.1
      vertex 24.5407 42.5699 12.1
    endloop
  endfacet
  facet normal 0 0 1
    outer loop
      vertex 25.0207 46.3696 12.1
      vertex 22.71 62.36 12.1
      vertex 24.5407 44.5001 12.1
    endloop
  endfacet
  facet normal 0 0 1
    outer loop
      vertex 25.9506 48.0609 12.1
      vertex 22.71 62.36 12.1
      vertex 25.0207 46.3696 12.1
    endloop
  endfacet
  facet normal 0 0 1
    outer loop
      vertex 27.2718 49.468 12.1
      vertex 22.71 62.36 12.1
      vertex 25.9506 48.0609 12.1
    endloop
  endfacet
  facet normal 0 0 1
    outer loop
      vertex 28.9015 50.5022 12.1
      vertex 22.71 62.36 12.1
      vertex 27.2718 49.468 12.1
    endloop
  endfacet
  facet normal 0 0 1
    outer loop
      vertex 62.36 64.36 12.1
      vertex 22.71 62.36 12.1
      vertex 41.65 62.36 12.1
    endloop
  endfacet
  facet normal -0 0 1
    outer loop
      vertex 2 64.36 12.1
      vertex 22.71 62.36 12.1
      vertex 62.36 64.36 12.1
    endloop
  endfacet
  facet normal 0 0 1
    outer loop
      vertex 22.71 62.36 12.1
      vertex 2 64.36 12.1
      vertex 2 62.36 12.1
    endloop
  endfacet
  facet normal 0 0 1
    outer loop
      vertex 62.36 64.36 12.1
      vertex 64.36 87.07 12.1
      vertex 62.36 85.07 12.1
    endloop
  endfacet
  facet normal -0 0 1
    outer loop
      vertex 54.815 87.07 12.1
      vertex 62.36 85.07 12.1
      vertex 64.36 87.07 12.1
    endloop
  endfacet
  facet normal 0 0 1
    outer loop
      vertex 62.36 85.07 12.1
      vertex 54.815 87.07 12.1
      vertex 54.815 85.07 12.1
    endloop
  endfacet
  facet normal 0 0 1
    outer loop
      vertex 64.36 87.07 12.1
      vertex 62.36 64.36 12.1
      vertex 64.36 54.815 12.1
    endloop
  endfacet
  facet normal -0 0 1
    outer loop
      vertex 62.36 62.36 12.1
      vertex 64.36 54.815 12.1
      vertex 62.36 64.36 12.1
    endloop
  endfacet
  facet normal 0 0 1
    outer loop
      vertex 64.36 54.815 12.1
      vertex 62.36 62.36 12.1
      vertex 62.36 54.815 12.1
    endloop
  endfacet
  facet normal 0 0 1
    outer loop
      vertex 62.36 2 12.1
      vertex 64.36 9.545 12.1
      vertex 62.36 9.545 12.1
    endloop
  endfacet
  facet normal 0 0 1
    outer loop
      vertex 64.36 9.545 12.1
      vertex 62.36 2 12.1
      vertex 64.36 0 12.1
    endloop
  endfacet
  facet normal -0 0 1
    outer loop
      vertex 41.65 2 12.1
      vertex 64.36 0 12.1
      vertex 62.36 2 12.1
    endloop
  endfacet
  facet normal -0 0 1
    outer loop
      vertex 39.6381 41.6201 12.1
      vertex 41.65 2 12.1
      vertex 39.88 43.535 12.1
    endloop
  endfacet
  facet normal -0 0 1
    outer loop
      vertex 38.9276 39.8255 12.1
      vertex 41.65 2 12.1
      vertex 39.6381 41.6201 12.1
    endloop
  endfacet
  facet normal -0 0 1
    outer loop
      vertex 37.7931 38.264 12.1
      vertex 41.65 2 12.1
      vertex 38.9276 39.8255 12.1
    endloop
  endfacet
  facet normal -0 0 1
    outer loop
      vertex 36.3059 37.0337 12.1
      vertex 41.65 2 12.1
      vertex 37.7931 38.264 12.1
    endloop
  endfacet
  facet normal -0 0 1
    outer loop
      vertex 34.5594 36.2119 12.1
      vertex 41.65 2 12.1
      vertex 36.3059 37.0337 12.1
    endloop
  endfacet
  facet normal -0 0 1
    outer loop
      vertex 32.6635 35.8502 12.1
      vertex 41.65 2 12.1
      vertex 34.5594 36.2119 12.1
    endloop
  endfacet
  facet normal 0 0 1
    outer loop
      vertex 22.71 2 12.1
      vertex 32.6635 35.8502 12.1
      vertex 30.7372 35.9714 12.1
    endloop
  endfacet
  facet normal 0 0 1
    outer loop
      vertex 22.71 2 12.1
      vertex 30.7372 35.9714 12.1
      vertex 28.9015 36.5678 12.1
    endloop
  endfacet
  facet normal 0 0 1
    outer loop
      vertex 22.71 2 12.1
      vertex 28.9015 36.5678 12.1
      vertex 27.2718 37.602 12.1
    endloop
  endfacet
  facet normal 0 0 1
    outer loop
      vertex 22.71 2 12.1
      vertex 27.2718 37.602 12.1
      vertex 25.9506 39.0091 12.1
    endloop
  endfacet
  facet normal 0 0 1
    outer loop
      vertex 22.71 2 12.1
      vertex 25.9506 39.0091 12.1
      vertex 25.0207 40.7004 12.1
    endloop
  endfacet
  facet normal 0 0 1
    outer loop
      vertex 22.71 2 12.1
      vertex 24.5407 42.5699 12.1
      vertex 22.71 62.36 12.1
    endloop
  endfacet
  facet normal 0 0 1
    outer loop
      vertex 22.71 2 12.1
      vertex 25.0207 40.7004 12.1
      vertex 24.5407 42.5699 12.1
    endloop
  endfacet
  facet normal 0 0 1
    outer loop
      vertex 32.6635 35.8502 12.1
      vertex 22.71 2 12.1
      vertex 41.65 2 12.1
    endloop
  endfacet
  facet normal -0 0 1
    outer loop
      vertex 22.71 2 12.1
      vertex 64.36 0 12.1
      vertex 41.65 2 12.1
    endloop
  endfacet
  facet normal 0 0 1
    outer loop
      vertex 0 0 12.1
      vertex 22.71 2 12.1
      vertex 2 2 12.1
    endloop
  endfacet
  facet normal 0 0 1
    outer loop
      vertex 22.71 2 12.1
      vertex 0 0 12.1
      vertex 64.36 0 12.1
    endloop
  endfacet
  facet normal 0 0 1
    outer loop
      vertex 0 0 12.1
      vertex 2 2 12.1
      vertex 0 14.072 12.1
    endloop
  endfacet
  facet normal -1 0 0
    outer loop
      vertex 22.71 2 3
      vertex 22.71 62.36 12.1
      vertex 22.71 62.36 3
    endloop
  endfacet
  facet normal -1 -0 0
    outer loop
      vertex 22.71 62.36 12.1
      vertex 22.71 2 3
      vertex 22.71 2 12.1
    endloop
  endfacet
  facet normal 0 0 1
    outer loop
      vertex 22.71 62.36 3
      vertex 14.426 50.288 3
      vertex 22.71 2 3
    endloop
  endfacet
  facet normal -0 0 1
    outer loop
      vertex 2 62.36 3
      vertex 14.426 50.288 3
      vertex 22.71 62.36 3
    endloop
  endfacet
  facet normal 0 0 1
    outer loop
      vertex 14.426 50.288 3
      vertex 2 62.36 3
      vertex 2 50.288 3
    endloop
  endfacet
  facet normal -0 0 1
    outer loop
      vertex 14.426 14.072 3
      vertex 22.71 2 3
      vertex 14.426 50.288 3
    endloop
  endfacet
  facet normal 0 0 1
    outer loop
      vertex 2 2 3
      vertex 14.426 14.072 3
      vertex 2 14.072 3
    endloop
  endfacet
  facet normal 0 0 1
    outer loop
      vertex 14.426 14.072 3
      vertex 2 2 3
      vertex 22.71 2 3
    endloop
  endfacet
  facet normal 0 1 -0
    outer loop
      vertex 22.71 2 3
      vertex 2 2 12.1
      vertex 22.71 2 12.1
    endloop
  endfacet
  facet normal 0 1 0
    outer loop
      vertex 2 2 12.1
      vertex 22.71 2 3
      vertex 2 2 3
    endloop
  endfacet
  facet normal 0 -1 0
    outer loop
      vertex 2 62.36 3
      vertex 22.71 62.36 12.1
      vertex 2 62.36 12.1
    endloop
  endfacet
  facet normal 0 -1 -0
    outer loop
      vertex 22.71 62.36 12.1
      vertex 2 62.36 3
      vertex 22.71 62.36 3
    endloop
  endfacet
  facet normal -1 0 0
    outer loop
      vertex 14.426 14.072 0
      vertex 14.426 50.288 3
      vertex 14.426 50.288 0
    endloop
  endfacet
  facet normal -1 -0 0
    outer loop
      vertex 14.426 50.288 3
      vertex 14.426 14.072 0
      vertex 14.426 14.072 3
    endloop
  endfacet
  facet normal 0 0 -1
    outer loop
      vertex 64.36 0 0
      vertex 46.8275 9.545 0
      vertex 64.36 9.545 0
    endloop
  endfacet
  facet normal 0 0 -1
    outer loop
      vertex 46.8275 9.545 0
      vertex 14.426 14.072 0
      vertex 46.8275 54.815 0
    endloop
  endfacet
  facet normal 0 0 -1
    outer loop
      vertex 0 0 0
      vertex 46.8275 9.545 0
      vertex 64.36 0 0
    endloop
  endfacet
  facet normal -0 0 -1
    outer loop
      vertex 46.8275 9.545 0
      vertex 0 0 0
      vertex 14.426 14.072 0
    endloop
  endfacet
  facet normal -0 0 -1
    outer loop
      vertex 14.426 14.072 0
      vertex 0 0 0
      vertex 0 14.072 0
    endloop
  endfacet
  facet normal 0 0 -1
    outer loop
      vertex 64.36 54.815 0
      vertex 54.815 69.5375 0
      vertex 64.36 87.07 0
    endloop
  endfacet
  facet normal 0 0 -1
    outer loop
      vertex 46.8275 54.815 0
      vertex 54.815 69.5375 0
      vertex 64.36 54.815 0
    endloop
  endfacet
  facet normal 0 0 -1
    outer loop
      vertex 14.426 50.288 0
      vertex 46.8275 54.815 0
      vertex 14.426 14.072 0
    endloop
  endfacet
  facet normal 0 0 -1
    outer loop
      vertex 9.545 69.5375 0
      vertex 46.8275 54.815 0
      vertex 14.426 50.288 0
    endloop
  endfacet
  facet normal 0 0 -1
    outer loop
      vertex 46.8275 54.815 0
      vertex 9.545 69.5375 0
      vertex 54.815 69.5375 0
    endloop
  endfacet
  facet normal 0 0 -1
    outer loop
      vertex 0 50.288 0
      vertex 9.545 69.5375 0
      vertex 14.426 50.288 0
    endloop
  endfacet
  facet normal 0 0 -1
    outer loop
      vertex 0 87.07 0
      vertex 9.545 69.5375 0
      vertex 0 50.288 0
    endloop
  endfacet
  facet normal 0 0 -1
    outer loop
      vertex 9.545 69.5375 0
      vertex 0 87.07 0
      vertex 9.545 87.07 0
    endloop
  endfacet
  facet normal -0 0 -1
    outer loop
      vertex 64.36 87.07 0
      vertex 54.815 69.5375 0
      vertex 54.815 87.07 0
    endloop
  endfacet
  facet normal 0 1 0
    outer loop
      vertex 14.426 14.072 3
      vertex 14.426 14.072 0
      vertex 2 14.072 3
    endloop
  endfacet
  facet normal 0 1 -0
    outer loop
      vertex 2 14.072 3
      vertex 0 14.072 12.1
      vertex 2 14.072 12.1
    endloop
  endfacet
  facet normal 0 1 0
    outer loop
      vertex 2 14.072 3
      vertex 0 14.072 0
      vertex 0 14.072 12.1
    endloop
  endfacet
  facet normal 0 1 0
    outer loop
      vertex 0 14.072 0
      vertex 2 14.072 3
      vertex 14.426 14.072 0
    endloop
  endfacet
  facet normal 0 -1 0
    outer loop
      vertex 0 50.288 12.1
      vertex 2 50.288 3
      vertex 2 50.288 12.1
    endloop
  endfacet
  facet normal 0 -1 0
    outer loop
      vertex 0 50.288 0
      vertex 2 50.288 3
      vertex 0 50.288 12.1
    endloop
  endfacet
  facet normal 0 -1 0
    outer loop
      vertex 14.426 50.288 0
      vertex 2 50.288 3
      vertex 0 50.288 0
    endloop
  endfacet
  facet normal 0 -1 0
    outer loop
      vertex 2 50.288 3
      vertex 14.426 50.288 0
      vertex 14.426 50.288 3
    endloop
  endfacet
  facet normal -1 0 0
    outer loop
      vertex 62.36 54.815 3
      vertex 62.36 62.36 12.1
      vertex 62.36 62.36 3
    endloop
  endfacet
  facet normal -1 -0 0
    outer loop
      vertex 62.36 62.36 12.1
      vertex 62.36 54.815 3
      vertex 62.36 54.815 12.1
    endloop
  endfacet
  facet normal -1 0 0
    outer loop
      vertex 62.36 2 3
      vertex 62.36 9.545 12.1
      vertex 62.36 9.545 3
    endloop
  endfacet
  facet normal -1 -0 0
    outer loop
      vertex 62.36 9.545 12.1
      vertex 62.36 2 3
      vertex 62.36 2 12.1
    endloop
  endfacet
  facet normal 1 -0 0
    outer loop
      vertex 41.65 2 12.1
      vertex 41.65 62.36 3
      vertex 41.65 62.36 12.1
    endloop
  endfacet
  facet normal 1 0 0
    outer loop
      vertex 41.65 62.36 3
      vertex 41.65 2 12.1
      vertex 41.65 2 3
    endloop
  endfacet
  facet normal 0 1 -0
    outer loop
      vertex 62.36 2 3
      vertex 41.65 2 12.1
      vertex 62.36 2 12.1
    endloop
  endfacet
  facet normal 0 1 0
    outer loop
      vertex 41.65 2 12.1
      vertex 62.36 2 3
      vertex 41.65 2 3
    endloop
  endfacet
  facet normal 0 0 1
    outer loop
      vertex 62.36 62.36 3
      vertex 46.8275 54.815 3
      vertex 62.36 54.815 3
    endloop
  endfacet
  facet normal 0 0 1
    outer loop
      vertex 46.8275 54.815 3
      vertex 41.65 62.36 3
      vertex 46.8275 9.545 3
    endloop
  endfacet
  facet normal -0 0 1
    outer loop
      vertex 41.65 62.36 3
      vertex 46.8275 54.815 3
      vertex 62.36 62.36 3
    endloop
  endfacet
  facet normal -0 0 1
    outer loop
      vertex 46.8275 9.545 3
      vertex 62.36 2 3
      vertex 62.36 9.545 3
    endloop
  endfacet
  facet normal 0 0 1
    outer loop
      vertex 46.8275 9.545 3
      vertex 41.65 2 3
      vertex 62.36 2 3
    endloop
  endfacet
  facet normal 0 0 1
    outer loop
      vertex 41.65 2 3
      vertex 46.8275 9.545 3
      vertex 41.65 62.36 3
    endloop
  endfacet
  facet normal 0 -1 0
    outer loop
      vertex 41.65 62.36 3
      vertex 62.36 62.36 12.1
      vertex 41.65 62.36 12.1
    endloop
  endfacet
  facet normal 0 -1 -0
    outer loop
      vertex 62.36 62.36 12.1
      vertex 41.65 62.36 3
      vertex 62.36 62.36 3
    endloop
  endfacet
  facet normal 1 -0 0
    outer loop
      vertex 46.8275 9.545 3
      vertex 46.8275 54.815 0
      vertex 46.8275 54.815 3
    endloop
  endfacet
  facet normal 1 0 0
    outer loop
      vertex 46.8275 54.815 0
      vertex 46.8275 9.545 3
      vertex 46.8275 9.545 0
    endloop
  endfacet
  facet normal 0 -1 0
    outer loop
      vertex 46.8275 54.815 3
      vertex 46.8275 54.815 0
      vertex 62.36 54.815 3
    endloop
  endfacet
  facet normal 0 -1 0
    outer loop
      vertex 62.36 54.815 3
      vertex 64.36 54.815 12.1
      vertex 62.36 54.815 12.1
    endloop
  endfacet
  facet normal 0 -1 0
    outer loop
      vertex 62.36 54.815 3
      vertex 64.36 54.815 0
      vertex 64.36 54.815 12.1
    endloop
  endfacet
  facet normal 0 -1 0
    outer loop
      vertex 64.36 54.815 0
      vertex 62.36 54.815 3
      vertex 46.8275 54.815 0
    endloop
  endfacet
  facet normal 0 1 0
    outer loop
      vertex 64.36 9.545 12.1
      vertex 62.36 9.545 3
      vertex 62.36 9.545 12.1
    endloop
  endfacet
  facet normal 0 1 -0
    outer loop
      vertex 64.36 9.545 0
      vertex 62.36 9.545 3
      vertex 64.36 9.545 12.1
    endloop
  endfacet
  facet normal 0 1 0
    outer loop
      vertex 46.8275 9.545 0
      vertex 62.36 9.545 3
      vertex 64.36 9.545 0
    endloop
  endfacet
  facet normal 0 1 0
    outer loop
      vertex 62.36 9.545 3
      vertex 46.8275 9.545 0
      vertex 46.8275 9.545 3
    endloop
  endfacet
  facet normal 0 -1 0
    outer loop
      vertex 2 85.07 3
      vertex 9.545 85.07 12.1
      vertex 2 85.07 12.1
    endloop
  endfacet
  facet normal 0 -1 -0
    outer loop
      vertex 9.545 85.07 12.1
      vertex 2 85.07 3
      vertex 9.545 85.07 3
    endloop
  endfacet
  facet normal 0 -1 0
    outer loop
      vertex 54.815 85.07 3
      vertex 62.36 85.07 12.1
      vertex 54.815 85.07 12.1
    endloop
  endfacet
  facet normal 0 -1 -0
    outer loop
      vertex 62.36 85.07 12.1
      vertex 54.815 85.07 3
      vertex 62.36 85.07 3
    endloop
  endfacet
  facet normal 0 1 -0
    outer loop
      vertex 62.36 64.36 3
      vertex 2 64.36 12.1
      vertex 62.36 64.36 12.1
    endloop
  endfacet
  facet normal 0 1 0
    outer loop
      vertex 2 64.36 12.1
      vertex 62.36 64.36 3
      vertex 2 64.36 3
    endloop
  endfacet
  facet normal -1 0 0
    outer loop
      vertex 62.36 64.36 3
      vertex 62.36 85.07 12.1
      vertex 62.36 85.07 3
    endloop
  endfacet
  facet normal -1 -0 0
    outer loop
      vertex 62.36 85.07 12.1
      vertex 62.36 64.36 3
      vertex 62.36 64.36 12.1
    endloop
  endfacet
  facet normal 0 0 1
    outer loop
      vertex 9.545 85.07 3
      vertex 2 85.07 3
      vertex 9.545 69.5375 3
    endloop
  endfacet
  facet normal 0 0 1
    outer loop
      vertex 54.815 69.5375 3
      vertex 62.36 85.07 3
      vertex 54.815 85.07 3
    endloop
  endfacet
  facet normal 0 0 1
    outer loop
      vertex 62.36 85.07 3
      vertex 54.815 69.5375 3
      vertex 62.36 64.36 3
    endloop
  endfacet
  facet normal -0 0 1
    outer loop
      vertex 9.545 69.5375 3
      vertex 62.36 64.36 3
      vertex 54.815 69.5375 3
    endloop
  endfacet
  facet normal 0 0 1
    outer loop
      vertex 9.545 69.5375 3
      vertex 2 64.36 3
      vertex 62.36 64.36 3
    endloop
  endfacet
  facet normal 0 0 1
    outer loop
      vertex 2 64.36 3
      vertex 9.545 69.5375 3
      vertex 2 85.07 3
    endloop
  endfacet
  facet normal 1 -0 0
    outer loop
      vertex 2 64.36 12.1
      vertex 2 85.07 3
      vertex 2 85.07 12.1
    endloop
  endfacet
  facet normal 1 0 0
    outer loop
      vertex 2 85.07 3
      vertex 2 64.36 12.1
      vertex 2 64.36 3
    endloop
  endfacet
  facet normal 0 1 -0
    outer loop
      vertex 54.815 69.5375 0
      vertex 9.545 69.5375 3
      vertex 54.815 69.5375 3
    endloop
  endfacet
  facet normal 0 1 0
    outer loop
      vertex 9.545 69.5375 3
      vertex 54.815 69.5375 0
      vertex 9.545 69.5375 0
    endloop
  endfacet
  facet normal 1 0 0
    outer loop
      vertex 9.545 85.07 3
      vertex 9.545 87.07 12.1
      vertex 9.545 85.07 12.1
    endloop
  endfacet
  facet normal 1 0 0
    outer loop
      vertex 9.545 87.07 12.1
      vertex 9.545 85.07 3
      vertex 9.545 87.07 0
    endloop
  endfacet
  facet normal 1 0 0
    outer loop
      vertex 9.545 69.5375 0
      vertex 9.545 85.07 3
      vertex 9.545 69.5375 3
    endloop
  endfacet
  facet normal 1 0 0
    outer loop
      vertex 9.545 85.07 3
      vertex 9.545 69.5375 0
      vertex 9.545 87.07 0
    endloop
  endfacet
  facet normal -1 0 0
    outer loop
      vertex 54.815 87.07 0
      vertex 54.815 85.07 3
      vertex 54.815 87.07 12.1
    endloop
  endfacet
  facet normal -1 0 0
    outer loop
      vertex 54.815 69.5375 0
      vertex 54.815 85.07 3
      vertex 54.815 87.07 0
    endloop
  endfacet
  facet normal -1 -0 0
    outer loop
      vertex 54.815 85.07 3
      vertex 54.815 69.5375 0
      vertex 54.815 69.5375 3
    endloop
  endfacet
  facet normal -1 -0 0
    outer loop
      vertex 54.815 87.07 12.1
      vertex 54.815 85.07 3
      vertex 54.815 85.07 12.1
    endloop
  endfacet
  facet normal -1 0 0
    outer loop
      vertex 0 0 0
      vertex 0 14.072 12.1
      vertex 0 14.072 0
    endloop
  endfacet
  facet normal -1 -0 0
    outer loop
      vertex 0 14.072 12.1
      vertex 0 0 0
      vertex 0 0 12.1
    endloop
  endfacet
  facet normal -1 0 0
    outer loop
      vertex 0 50.288 0
      vertex 0 87.07 12.1
      vertex 0 87.07 0
    endloop
  endfacet
  facet normal -1 -0 0
    outer loop
      vertex 0 87.07 12.1
      vertex 0 50.288 0
      vertex 0 50.288 12.1
    endloop
  endfacet
  facet normal 1 -0 0
    outer loop
      vertex 64.36 0 12.1
      vertex 64.36 9.545 0
      vertex 64.36 9.545 12.1
    endloop
  endfacet
  facet normal 1 0 0
    outer loop
      vertex 64.36 9.545 0
      vertex 64.36 0 12.1
      vertex 64.36 0 0
    endloop
  endfacet
  facet normal 1 -0 0
    outer loop
      vertex 64.36 54.815 12.1
      vertex 64.36 87.07 0
      vertex 64.36 87.07 12.1
    endloop
  endfacet
  facet normal 1 0 0
    outer loop
      vertex 64.36 87.07 0
      vertex 64.36 54.815 12.1
      vertex 64.36 54.815 0
    endloop
  endfacet
  facet normal 0 -1 0
    outer loop
      vertex 0 0 0
      vertex 64.36 0 12.1
      vertex 0 0 12.1
    endloop
  endfacet
  facet normal 0 -1 -0
    outer loop
      vertex 64.36 0 12.1
      vertex 0 0 0
      vertex 64.36 0 0
    endloop
  endfacet
  facet normal 0 1 -0
    outer loop
      vertex 64.36 87.07 0
      vertex 54.815 87.07 12.1
      vertex 64.36 87.07 12.1
    endloop
  endfacet
  facet normal 0 1 0
    outer loop
      vertex 54.815 87.07 12.1
      vertex 64.36 87.07 0
      vertex 54.815 87.07 0
    endloop
  endfacet
  facet normal 0 1 -0
    outer loop
      vertex 9.545 87.07 0
      vertex 0 87.07 12.1
      vertex 9.545 87.07 12.1
    endloop
  endfacet
  facet normal 0 1 0
    outer loop
      vertex 0 87.07 12.1
      vertex 9.545 87.07 0
      vertex 0 87.07 0
    endloop
  endfacet
  facet normal -0.992115 -0.125331 0
    outer loop
      vertex 39.88 43.535 8.1
      vertex 39.6381 45.4499 12.1
      vertex 39.6381 45.4499 8.1
    endloop
  endfacet
  facet normal -0.992115 -0.125331 0
    outer loop
      vertex 39.6381 45.4499 12.1
      vertex 39.88 43.535 8.1
      vertex 39.88 43.535 12.1
    endloop
  endfacet
  facet normal 1 -0 0
    outer loop
      vertex 24.5407 42.5699 12.1
      vertex 24.5407 44.5001 8.1
      vertex 24.5407 44.5001 12.1
    endloop
  endfacet
  facet normal 1 0 0
    outer loop
      vertex 24.5407 44.5001 8.1
      vertex 24.5407 42.5699 12.1
      vertex 24.5407 42.5699 8.1
    endloop
  endfacet
  facet normal 0.062792 -0.998027 0
    outer loop
      vertex 30.7372 51.0986 8.1
      vertex 32.6635 51.2198 12.1
      vertex 30.7372 51.0986 12.1
    endloop
  endfacet
  facet normal 0.062792 -0.998027 0
    outer loop
      vertex 32.6635 51.2198 12.1
      vertex 30.7372 51.0986 8.1
      vertex 32.6635 51.2198 8.1
    endloop
  endfacet
  facet normal -0.187382 0.982287 0
    outer loop
      vertex 34.5594 36.2119 8.1
      vertex 32.6635 35.8502 12.1
      vertex 34.5594 36.2119 12.1
    endloop
  endfacet
  facet normal -0.187382 0.982287 0
    outer loop
      vertex 32.6635 35.8502 12.1
      vertex 34.5594 36.2119 8.1
      vertex 32.6635 35.8502 8.1
    endloop
  endfacet
  facet normal -0.809019 0.587783 0
    outer loop
      vertex 37.7931 38.264 8.1
      vertex 38.9276 39.8255 12.1
      vertex 38.9276 39.8255 8.1
    endloop
  endfacet
  facet normal -0.809019 0.587783 0
    outer loop
      vertex 38.9276 39.8255 12.1
      vertex 37.7931 38.264 8.1
      vertex 37.7931 38.264 12.1
    endloop
  endfacet
  facet normal -0.637424 -0.770514 0
    outer loop
      vertex 36.3059 50.0363 8.1
      vertex 37.7931 48.806 12.1
      vertex 36.3059 50.0363 12.1
    endloop
  endfacet
  facet normal -0.637424 -0.770514 -0
    outer loop
      vertex 37.7931 48.806 12.1
      vertex 36.3059 50.0363 8.1
      vertex 37.7931 48.806 8.1
    endloop
  endfacet
  facet normal 0.728969 -0.684546 0
    outer loop
      vertex 25.9506 48.0609 12.1
      vertex 27.2718 49.468 8.1
      vertex 27.2718 49.468 12.1
    endloop
  endfacet
  facet normal 0.728969 -0.684546 0
    outer loop
      vertex 27.2718 49.468 8.1
      vertex 25.9506 48.0609 12.1
      vertex 25.9506 48.0609 8.1
    endloop
  endfacet
  facet normal 0.535826 -0.844328 0
    outer loop
      vertex 27.2718 49.468 8.1
      vertex 28.9015 50.5022 12.1
      vertex 27.2718 49.468 12.1
    endloop
  endfacet
  facet normal 0.535826 -0.844328 0
    outer loop
      vertex 28.9015 50.5022 12.1
      vertex 27.2718 49.468 8.1
      vertex 28.9015 50.5022 8.1
    endloop
  endfacet
  facet normal -0.809018 -0.587784 0
    outer loop
      vertex 38.9276 47.2445 8.1
      vertex 37.7931 48.806 12.1
      vertex 37.7931 48.806 8.1
    endloop
  endfacet
  facet normal -0.809018 -0.587784 0
    outer loop
      vertex 37.7931 48.806 12.1
      vertex 38.9276 47.2445 8.1
      vertex 38.9276 47.2445 12.1
    endloop
  endfacet
  facet normal -0.929776 -0.368127 0
    outer loop
      vertex 39.6381 45.4499 8.1
      vertex 38.9276 47.2445 12.1
      vertex 38.9276 47.2445 8.1
    endloop
  endfacet
  facet normal -0.929776 -0.368127 0
    outer loop
      vertex 38.9276 47.2445 12.1
      vertex 39.6381 45.4499 8.1
      vertex 39.6381 45.4499 12.1
    endloop
  endfacet
  facet normal -0.187382 -0.982287 0
    outer loop
      vertex 32.6635 51.2198 8.1
      vertex 34.5594 50.8581 12.1
      vertex 32.6635 51.2198 12.1
    endloop
  endfacet
  facet normal -0.187382 -0.982287 -0
    outer loop
      vertex 34.5594 50.8581 12.1
      vertex 32.6635 51.2198 8.1
      vertex 34.5594 50.8581 8.1
    endloop
  endfacet
  facet normal -0.42578 -0.904827 0
    outer loop
      vertex 34.5594 50.8581 8.1
      vertex 36.3059 50.0363 12.1
      vertex 34.5594 50.8581 12.1
    endloop
  endfacet
  facet normal -0.42578 -0.904827 -0
    outer loop
      vertex 36.3059 50.0363 12.1
      vertex 34.5594 50.8581 8.1
      vertex 36.3059 50.0363 8.1
    endloop
  endfacet
  facet normal 0.876306 -0.481754 0
    outer loop
      vertex 25.0207 46.3696 12.1
      vertex 25.9506 48.0609 8.1
      vertex 25.9506 48.0609 12.1
    endloop
  endfacet
  facet normal 0.876306 -0.481754 0
    outer loop
      vertex 25.9506 48.0609 8.1
      vertex 25.0207 46.3696 12.1
      vertex 25.0207 46.3696 8.1
    endloop
  endfacet
  facet normal 0.968583 -0.24869 0
    outer loop
      vertex 24.5407 44.5001 12.1
      vertex 25.0207 46.3696 8.1
      vertex 25.0207 46.3696 12.1
    endloop
  endfacet
  facet normal 0.968583 -0.24869 0
    outer loop
      vertex 25.0207 46.3696 8.1
      vertex 24.5407 44.5001 12.1
      vertex 24.5407 44.5001 8.1
    endloop
  endfacet
  facet normal 0.309017 -0.951057 0
    outer loop
      vertex 28.9015 50.5022 8.1
      vertex 30.7372 51.0986 12.1
      vertex 28.9015 50.5022 12.1
    endloop
  endfacet
  facet normal 0.309017 -0.951057 0
    outer loop
      vertex 30.7372 51.0986 12.1
      vertex 28.9015 50.5022 8.1
      vertex 30.7372 51.0986 8.1
    endloop
  endfacet
  facet normal 0 0 1
    outer loop
      vertex 39.6381 45.4499 8.1
      vertex 39.6381 41.6201 8.1
      vertex 39.88 43.535 8.1
    endloop
  endfacet
  facet normal 0 0 1
    outer loop
      vertex 38.9276 47.2445 8.1
      vertex 39.6381 41.6201 8.1
      vertex 39.6381 45.4499 8.1
    endloop
  endfacet
  facet normal 0 0 1
    outer loop
      vertex 38.9276 47.2445 8.1
      vertex 38.9276 39.8255 8.1
      vertex 39.6381 41.6201 8.1
    endloop
  endfacet
  facet normal 0 0 1
    outer loop
      vertex 37.7931 48.806 8.1
      vertex 38.9276 39.8255 8.1
      vertex 38.9276 47.2445 8.1
    endloop
  endfacet
  facet normal 0 0 1
    outer loop
      vertex 37.7931 48.806 8.1
      vertex 37.7931 38.264 8.1
      vertex 38.9276 39.8255 8.1
    endloop
  endfacet
  facet normal 0 0 1
    outer loop
      vertex 36.3059 50.0363 8.1
      vertex 37.7931 38.264 8.1
      vertex 37.7931 48.806 8.1
    endloop
  endfacet
  facet normal 0 0 1
    outer loop
      vertex 36.3059 50.0363 8.1
      vertex 36.3059 37.0337 8.1
      vertex 37.7931 38.264 8.1
    endloop
  endfacet
  facet normal 0 0 1
    outer loop
      vertex 34.5594 50.8581 8.1
      vertex 36.3059 37.0337 8.1
      vertex 36.3059 50.0363 8.1
    endloop
  endfacet
  facet normal 0 0 1
    outer loop
      vertex 34.5594 50.8581 8.1
      vertex 34.5594 36.2119 8.1
      vertex 36.3059 37.0337 8.1
    endloop
  endfacet
  facet normal 0 0 1
    outer loop
      vertex 32.6635 51.2198 8.1
      vertex 34.5594 36.2119 8.1
      vertex 34.5594 50.8581 8.1
    endloop
  endfacet
  facet normal 0 0 1
    outer loop
      vertex 32.6635 51.2198 8.1
      vertex 32.6635 35.8502 8.1
      vertex 34.5594 36.2119 8.1
    endloop
  endfacet
  facet normal -0 0 1
    outer loop
      vertex 30.7372 51.0986 8.1
      vertex 32.6635 35.8502 8.1
      vertex 32.6635 51.2198 8.1
    endloop
  endfacet
  facet normal 0 0 1
    outer loop
      vertex 30.7372 51.0986 8.1
      vertex 30.7372 35.9714 8.1
      vertex 32.6635 35.8502 8.1
    endloop
  endfacet
  facet normal -0 0 1
    outer loop
      vertex 28.9015 50.5022 8.1
      vertex 30.7372 35.9714 8.1
      vertex 30.7372 51.0986 8.1
    endloop
  endfacet
  facet normal 0 0 1
    outer loop
      vertex 28.9015 50.5022 8.1
      vertex 28.9015 36.5678 8.1
      vertex 30.7372 35.9714 8.1
    endloop
  endfacet
  facet normal -0 0 1
    outer loop
      vertex 27.2718 49.468 8.1
      vertex 28.9015 36.5678 8.1
      vertex 28.9015 50.5022 8.1
    endloop
  endfacet
  facet normal 0 0 1
    outer loop
      vertex 27.2718 49.468 8.1
      vertex 27.2718 37.602 8.1
      vertex 28.9015 36.5678 8.1
    endloop
  endfacet
  facet normal -0 0 1
    outer loop
      vertex 25.9506 48.0609 8.1
      vertex 27.2718 37.602 8.1
      vertex 27.2718 49.468 8.1
    endloop
  endfacet
  facet normal 0 0 1
    outer loop
      vertex 25.9506 48.0609 8.1
      vertex 25.9506 39.0091 8.1
      vertex 27.2718 37.602 8.1
    endloop
  endfacet
  facet normal -0 0 1
    outer loop
      vertex 25.0207 46.3696 8.1
      vertex 25.9506 39.0091 8.1
      vertex 25.9506 48.0609 8.1
    endloop
  endfacet
  facet normal 0 0 1
    outer loop
      vertex 25.0207 46.3696 8.1
      vertex 25.0207 40.7004 8.1
      vertex 25.9506 39.0091 8.1
    endloop
  endfacet
  facet normal -0 0 1
    outer loop
      vertex 24.5407 44.5001 8.1
      vertex 25.0207 40.7004 8.1
      vertex 25.0207 46.3696 8.1
    endloop
  endfacet
  facet normal 0 0 1
    outer loop
      vertex 25.0207 40.7004 8.1
      vertex 24.5407 44.5001 8.1
      vertex 24.5407 42.5699 8.1
    endloop
  endfacet
  facet normal -0.929776 0.368127 0
    outer loop
      vertex 38.9276 39.8255 8.1
      vertex 39.6381 41.6201 12.1
      vertex 39.6381 41.6201 8.1
    endloop
  endfacet
  facet normal -0.929776 0.368127 0
    outer loop
      vertex 39.6381 41.6201 12.1
      vertex 38.9276 39.8255 8.1
      vertex 38.9276 39.8255 12.1
    endloop
  endfacet
  facet normal 0.309017 0.951057 -0
    outer loop
      vertex 30.7372 35.9714 8.1
      vertex 28.9015 36.5678 12.1
      vertex 30.7372 35.9714 12.1
    endloop
  endfacet
  facet normal 0.309017 0.951057 0
    outer loop
      vertex 28.9015 36.5678 12.1
      vertex 30.7372 35.9714 8.1
      vertex 28.9015 36.5678 8.1
    endloop
  endfacet
  facet normal 0.728969 0.684547 0
    outer loop
      vertex 27.2718 37.602 12.1
      vertex 25.9506 39.0091 8.1
      vertex 25.9506 39.0091 12.1
    endloop
  endfacet
  facet normal 0.728969 0.684547 0
    outer loop
      vertex 25.9506 39.0091 8.1
      vertex 27.2718 37.602 12.1
      vertex 27.2718 37.602 8.1
    endloop
  endfacet
  facet normal 0.968583 0.24869 0
    outer loop
      vertex 25.0207 40.7004 12.1
      vertex 24.5407 42.5699 8.1
      vertex 24.5407 42.5699 12.1
    endloop
  endfacet
  facet normal 0.968583 0.24869 0
    outer loop
      vertex 24.5407 42.5699 8.1
      vertex 25.0207 40.7004 12.1
      vertex 25.0207 40.7004 8.1
    endloop
  endfacet
  facet normal -0.637422 0.770515 0
    outer loop
      vertex 37.7931 38.264 8.1
      vertex 36.3059 37.0337 12.1
      vertex 37.7931 38.264 12.1
    endloop
  endfacet
  facet normal -0.637422 0.770515 0
    outer loop
      vertex 36.3059 37.0337 12.1
      vertex 37.7931 38.264 8.1
      vertex 36.3059 37.0337 8.1
    endloop
  endfacet
  facet normal -0.42578 0.904827 0
    outer loop
      vertex 36.3059 37.0337 8.1
      vertex 34.5594 36.2119 12.1
      vertex 36.3059 37.0337 12.1
    endloop
  endfacet
  facet normal -0.42578 0.904827 0
    outer loop
      vertex 34.5594 36.2119 12.1
      vertex 36.3059 37.0337 8.1
      vertex 34.5594 36.2119 8.1
    endloop
  endfacet
  facet normal -0.992115 0.125331 0
    outer loop
      vertex 39.6381 41.6201 8.1
      vertex 39.88 43.535 12.1
      vertex 39.88 43.535 8.1
    endloop
  endfacet
  facet normal -0.992115 0.125331 0
    outer loop
      vertex 39.88 43.535 12.1
      vertex 39.6381 41.6201 8.1
      vertex 39.6381 41.6201 12.1
    endloop
  endfacet
  facet normal 0.062792 0.998027 -0
    outer loop
      vertex 32.6635 35.8502 8.1
      vertex 30.7372 35.9714 12.1
      vertex 32.6635 35.8502 12.1
    endloop
  endfacet
  facet normal 0.062792 0.998027 0
    outer loop
      vertex 30.7372 35.9714 12.1
      vertex 32.6635 35.8502 8.1
      vertex 30.7372 35.9714 8.1
    endloop
  endfacet
  facet normal 0.535826 0.844328 -0
    outer loop
      vertex 28.9015 36.5678 8.1
      vertex 27.2718 37.602 12.1
      vertex 28.9015 36.5678 12.1
    endloop
  endfacet
  facet normal 0.535826 0.844328 0
    outer loop
      vertex 27.2718 37.602 12.1
      vertex 28.9015 36.5678 8.1
      vertex 27.2718 37.602 8.1
    endloop
  endfacet
  facet normal 0.876307 0.481754 0
    outer loop
      vertex 25.9506 39.0091 12.1
      vertex 25.0207 40.7004 8.1
      vertex 25.0207 40.7004 12.1
    endloop
  endfacet
  facet normal 0.876307 0.481754 0
    outer loop
      vertex 25.0207 40.7004 8.1
      vertex 25.9506 39.0091 12.1
      vertex 25.9506 39.0091 8.1
    endloop
  endfacet
endsolid OpenSCAD_Model
