solid OpenSCAD_Model
  facet normal 0 1 -0
    outer loop
      vertex 31.83 3 3
      vertex 28.415 3 12.1
      vertex 31.83 3 12.1
    endloop
  endfacet
  facet normal 0 1 0
    outer loop
      vertex 28.415 3 12.1
      vertex 31.83 3 3
      vertex 28.415 3 3
    endloop
  endfacet
  facet normal 0 1 -0
    outer loop
      vertex 7.925 3 3
      vertex 4.51 3 12.1
      vertex 7.925 3 12.1
    endloop
  endfacet
  facet normal 0 1 0
    outer loop
      vertex 4.51 3 12.1
      vertex 7.925 3 3
      vertex 4.51 3 3
    endloop
  endfacet
  facet normal 0 0 1
    outer loop
      vertex 7.925 100 12.1
      vertex 4.51 97 12.1
      vertex 7.925 97 12.1
    endloop
  endfacet
  facet normal 0 0 1
    outer loop
      vertex 0 100 12.1
      vertex 4.51 62.68 12.1
      vertex 4.51 97 12.1
    endloop
  endfacet
  facet normal 0 0 1
    outer loop
      vertex 4.51 62.68 12.1
      vertex 0 100 12.1
      vertex 4.51 37.32 12.1
    endloop
  endfacet
  facet normal 0 0 1
    outer loop
      vertex 0 0 12.1
      vertex 4.51 37.32 12.1
      vertex 0 100 12.1
    endloop
  endfacet
  facet normal -0 0 1
    outer loop
      vertex 0 100 12.1
      vertex 4.51 97 12.1
      vertex 7.925 100 12.1
    endloop
  endfacet
  facet normal -0 0 1
    outer loop
      vertex 4.51 62.68 12.1
      vertex 31.83 37.32 12.1
      vertex 31.83 62.68 12.1
    endloop
  endfacet
  facet normal 0 0 1
    outer loop
      vertex 31.83 37.32 12.1
      vertex 4.51 62.68 12.1
      vertex 4.51 37.32 12.1
    endloop
  endfacet
  facet normal 0 0 1
    outer loop
      vertex 39.755 100 12.1
      vertex 36.34 97 12.1
      vertex 39.755 97 12.1
    endloop
  endfacet
  facet normal 0 0 1
    outer loop
      vertex 31.83 62.68 12.1
      vertex 36.34 62.68 12.1
      vertex 36.34 97 12.1
    endloop
  endfacet
  facet normal 0 0 1
    outer loop
      vertex 36.34 62.68 12.1
      vertex 31.83 62.68 12.1
      vertex 36.34 37.32 12.1
    endloop
  endfacet
  facet normal 0 0 1
    outer loop
      vertex 31.83 62.68 12.1
      vertex 36.34 97 12.1
      vertex 31.83 97 12.1
    endloop
  endfacet
  facet normal 0 0 1
    outer loop
      vertex 39.755 100 12.1
      vertex 31.83 97 12.1
      vertex 36.34 97 12.1
    endloop
  endfacet
  facet normal -0 0 1
    outer loop
      vertex 28.415 100 12.1
      vertex 31.83 97 12.1
      vertex 39.755 100 12.1
    endloop
  endfacet
  facet normal 0 0 1
    outer loop
      vertex 31.83 97 12.1
      vertex 28.415 100 12.1
      vertex 28.415 97 12.1
    endloop
  endfacet
  facet normal -0 0 1
    outer loop
      vertex 59.5 40.5 12.1
      vertex 68.17 37.32 12.1
      vertex 59.5 59.5 12.1
    endloop
  endfacet
  facet normal 0 0 1
    outer loop
      vertex 63.66 62.68 12.1
      vertex 40.5 59.5 12.1
      vertex 59.5 59.5 12.1
    endloop
  endfacet
  facet normal 0 0 1
    outer loop
      vertex 40.5 59.5 12.1
      vertex 36.34 62.68 12.1
      vertex 40.5 40.5 12.1
    endloop
  endfacet
  facet normal -0 0 1
    outer loop
      vertex 36.34 62.68 12.1
      vertex 40.5 59.5 12.1
      vertex 63.66 62.68 12.1
    endloop
  endfacet
  facet normal 0 0 1
    outer loop
      vertex 71.585 100 12.1
      vertex 68.17 97 12.1
      vertex 71.585 97 12.1
    endloop
  endfacet
  facet normal 0 0 1
    outer loop
      vertex 63.66 62.68 12.1
      vertex 68.17 62.68 12.1
      vertex 68.17 97 12.1
    endloop
  endfacet
  facet normal 0 0 1
    outer loop
      vertex 59.5 59.5 12.1
      vertex 68.17 62.68 12.1
      vertex 63.66 62.68 12.1
    endloop
  endfacet
  facet normal 0 0 1
    outer loop
      vertex 63.66 62.68 12.1
      vertex 68.17 97 12.1
      vertex 63.66 97 12.1
    endloop
  endfacet
  facet normal 0 0 1
    outer loop
      vertex 71.585 100 12.1
      vertex 63.66 97 12.1
      vertex 68.17 97 12.1
    endloop
  endfacet
  facet normal -0 0 1
    outer loop
      vertex 60.245 100 12.1
      vertex 63.66 97 12.1
      vertex 71.585 100 12.1
    endloop
  endfacet
  facet normal 0 0 1
    outer loop
      vertex 63.66 97 12.1
      vertex 60.245 100 12.1
      vertex 60.245 97 12.1
    endloop
  endfacet
  facet normal -0 0 1
    outer loop
      vertex 68.17 62.68 12.1
      vertex 95.49 37.32 12.1
      vertex 95.49 62.68 12.1
    endloop
  endfacet
  facet normal 0 0 1
    outer loop
      vertex 95.49 37.32 12.1
      vertex 68.17 62.68 12.1
      vertex 68.17 37.32 12.1
    endloop
  endfacet
  facet normal 0 0 1
    outer loop
      vertex 95.49 62.68 12.1
      vertex 100 100 12.1
      vertex 95.49 97 12.1
    endloop
  endfacet
  facet normal -0 0 1
    outer loop
      vertex 92.075 100 12.1
      vertex 95.49 97 12.1
      vertex 100 100 12.1
    endloop
  endfacet
  facet normal 0 0 1
    outer loop
      vertex 95.49 97 12.1
      vertex 92.075 100 12.1
      vertex 92.075 97 12.1
    endloop
  endfacet
  facet normal 0 0 1
    outer loop
      vertex 100 100 12.1
      vertex 95.49 62.68 12.1
      vertex 100 0 12.1
    endloop
  endfacet
  facet normal -0 0 1
    outer loop
      vertex 95.49 37.32 12.1
      vertex 100 0 12.1
      vertex 95.49 62.68 12.1
    endloop
  endfacet
  facet normal -0 0 1
    outer loop
      vertex 95.49 3 12.1
      vertex 100 0 12.1
      vertex 95.49 37.32 12.1
    endloop
  endfacet
  facet normal 0 0 1
    outer loop
      vertex 92.075 0 12.1
      vertex 95.49 3 12.1
      vertex 92.075 3 12.1
    endloop
  endfacet
  facet normal 0 0 1
    outer loop
      vertex 95.49 3 12.1
      vertex 92.075 0 12.1
      vertex 100 0 12.1
    endloop
  endfacet
  facet normal -0 0 1
    outer loop
      vertex 68.17 3 12.1
      vertex 71.585 0 12.1
      vertex 71.585 3 12.1
    endloop
  endfacet
  facet normal 0 0 1
    outer loop
      vertex 68.17 62.68 12.1
      vertex 59.5 59.5 12.1
      vertex 68.17 37.32 12.1
    endloop
  endfacet
  facet normal 0 0 1
    outer loop
      vertex 68.17 37.32 12.1
      vertex 63.66 37.32 12.1
      vertex 68.17 3 12.1
    endloop
  endfacet
  facet normal 0 0 1
    outer loop
      vertex 63.66 3 12.1
      vertex 68.17 3 12.1
      vertex 63.66 37.32 12.1
    endloop
  endfacet
  facet normal -0 0 1
    outer loop
      vertex 63.66 3 12.1
      vertex 71.585 0 12.1
      vertex 68.17 3 12.1
    endloop
  endfacet
  facet normal 0 0 1
    outer loop
      vertex 60.245 0 12.1
      vertex 63.66 3 12.1
      vertex 60.245 3 12.1
    endloop
  endfacet
  facet normal 0 0 1
    outer loop
      vertex 63.66 3 12.1
      vertex 60.245 0 12.1
      vertex 71.585 0 12.1
    endloop
  endfacet
  facet normal -0 0 1
    outer loop
      vertex 36.34 3 12.1
      vertex 39.755 0 12.1
      vertex 39.755 3 12.1
    endloop
  endfacet
  facet normal 0 0 1
    outer loop
      vertex 31.83 37.32 12.1
      vertex 36.34 37.32 12.1
      vertex 31.83 62.68 12.1
    endloop
  endfacet
  facet normal 0 0 1
    outer loop
      vertex 36.34 37.32 12.1
      vertex 31.83 37.32 12.1
      vertex 36.34 3 12.1
    endloop
  endfacet
  facet normal 0 0 1
    outer loop
      vertex 31.83 3 12.1
      vertex 36.34 3 12.1
      vertex 31.83 37.32 12.1
    endloop
  endfacet
  facet normal -0 0 1
    outer loop
      vertex 31.83 3 12.1
      vertex 39.755 0 12.1
      vertex 36.34 3 12.1
    endloop
  endfacet
  facet normal 0 0 1
    outer loop
      vertex 28.415 0 12.1
      vertex 31.83 3 12.1
      vertex 28.415 3 12.1
    endloop
  endfacet
  facet normal 0 0 1
    outer loop
      vertex 31.83 3 12.1
      vertex 28.415 0 12.1
      vertex 39.755 0 12.1
    endloop
  endfacet
  facet normal -0 0 1
    outer loop
      vertex 4.51 3 12.1
      vertex 7.925 0 12.1
      vertex 7.925 3 12.1
    endloop
  endfacet
  facet normal 0 0 1
    outer loop
      vertex 4.51 3 12.1
      vertex 0 0 12.1
      vertex 7.925 0 12.1
    endloop
  endfacet
  facet normal 0 0 1
    outer loop
      vertex 4.51 37.32 12.1
      vertex 0 0 12.1
      vertex 4.51 3 12.1
    endloop
  endfacet
  facet normal 0 0 1
    outer loop
      vertex 68.17 37.32 12.1
      vertex 59.5 40.5 12.1
      vertex 63.66 37.32 12.1
    endloop
  endfacet
  facet normal -0 0 1
    outer loop
      vertex 40.5 40.5 12.1
      vertex 63.66 37.32 12.1
      vertex 59.5 40.5 12.1
    endloop
  endfacet
  facet normal 0 0 1
    outer loop
      vertex 40.5 40.5 12.1
      vertex 36.34 37.32 12.1
      vertex 63.66 37.32 12.1
    endloop
  endfacet
  facet normal 0 0 1
    outer loop
      vertex 36.34 37.32 12.1
      vertex 40.5 40.5 12.1
      vertex 36.34 62.68 12.1
    endloop
  endfacet
  facet normal 0 -1 0
    outer loop
      vertex 4.51 37.32 3
      vertex 31.83 37.32 12.1
      vertex 4.51 37.32 12.1
    endloop
  endfacet
  facet normal 0 -1 -0
    outer loop
      vertex 31.83 37.32 12.1
      vertex 4.51 37.32 3
      vertex 31.83 37.32 3
    endloop
  endfacet
  facet normal 0 0 1
    outer loop
      vertex 31.83 37.32 3
      vertex 28.415 28.74 3
      vertex 31.83 3 3
    endloop
  endfacet
  facet normal 0 0 1
    outer loop
      vertex 31.83 37.32 3
      vertex 7.925 28.74 3
      vertex 28.415 28.74 3
    endloop
  endfacet
  facet normal -0 0 1
    outer loop
      vertex 4.51 37.32 3
      vertex 7.925 28.74 3
      vertex 31.83 37.32 3
    endloop
  endfacet
  facet normal 0 0 1
    outer loop
      vertex 4.51 3 3
      vertex 7.925 28.74 3
      vertex 4.51 37.32 3
    endloop
  endfacet
  facet normal 0 0 1
    outer loop
      vertex 7.925 28.74 3
      vertex 4.51 3 3
      vertex 7.925 3 3
    endloop
  endfacet
  facet normal 0 0 1
    outer loop
      vertex 31.83 3 3
      vertex 28.415 28.74 3
      vertex 28.415 3 3
    endloop
  endfacet
  facet normal -1 0 0
    outer loop
      vertex 31.83 3 3
      vertex 31.83 37.32 12.1
      vertex 31.83 37.32 3
    endloop
  endfacet
  facet normal -1 -0 0
    outer loop
      vertex 31.83 37.32 12.1
      vertex 31.83 3 3
      vertex 31.83 3 12.1
    endloop
  endfacet
  facet normal 1 -0 0
    outer loop
      vertex 4.51 3 12.1
      vertex 4.51 37.32 3
      vertex 4.51 37.32 12.1
    endloop
  endfacet
  facet normal 1 0 0
    outer loop
      vertex 4.51 37.32 3
      vertex 4.51 3 12.1
      vertex 4.51 3 3
    endloop
  endfacet
  facet normal 0 -1 0
    outer loop
      vertex 7.925 28.74 0
      vertex 28.415 28.74 3
      vertex 7.925 28.74 3
    endloop
  endfacet
  facet normal 0 -1 -0
    outer loop
      vertex 28.415 28.74 3
      vertex 7.925 28.74 0
      vertex 28.415 28.74 0
    endloop
  endfacet
  facet normal 0 0 -1
    outer loop
      vertex 0 0 0
      vertex 7.925 28.74 0
      vertex 7.925 0 0
    endloop
  endfacet
  facet normal -0 0 -1
    outer loop
      vertex 7.925 28.74 0
      vertex 0 0 0
      vertex 7.925 71.26 0
    endloop
  endfacet
  facet normal 0 0 -1
    outer loop
      vertex 0 100 0
      vertex 7.925 71.26 0
      vertex 0 0 0
    endloop
  endfacet
  facet normal 0 0 -1
    outer loop
      vertex 7.925 71.26 0
      vertex 0 100 0
      vertex 7.925 100 0
    endloop
  endfacet
  facet normal 0 0 -1
    outer loop
      vertex 7.925 28.74 0
      vertex 28.415 71.26 0
      vertex 28.415 28.74 0
    endloop
  endfacet
  facet normal -0 0 -1
    outer loop
      vertex 28.415 71.26 0
      vertex 7.925 28.74 0
      vertex 7.925 71.26 0
    endloop
  endfacet
  facet normal 0 0 -1
    outer loop
      vertex 28.415 28.74 0
      vertex 39.755 28.74 0
      vertex 39.755 0 0
    endloop
  endfacet
  facet normal 0 0 -1
    outer loop
      vertex 39.755 28.74 0
      vertex 28.415 28.74 0
      vertex 39.755 71.26 0
    endloop
  endfacet
  facet normal 0 0 -1
    outer loop
      vertex 28.415 28.74 0
      vertex 39.755 0 0
      vertex 28.415 0 0
    endloop
  endfacet
  facet normal 0 0 -1
    outer loop
      vertex 28.415 71.26 0
      vertex 39.755 71.26 0
      vertex 28.415 28.74 0
    endloop
  endfacet
  facet normal 0 0 -1
    outer loop
      vertex 39.755 71.26 0
      vertex 28.415 71.26 0
      vertex 39.755 100 0
    endloop
  endfacet
  facet normal -0 0 -1
    outer loop
      vertex 39.755 100 0
      vertex 28.415 71.26 0
      vertex 28.415 100 0
    endloop
  endfacet
  facet normal 0 0 -1
    outer loop
      vertex 59.5 59.5 0
      vertex 71.585 71.26 0
      vertex 59.5 40.5 0
    endloop
  endfacet
  facet normal 0 0 -1
    outer loop
      vertex 60.245 28.74 0
      vertex 40.5 40.5 0
      vertex 59.5 40.5 0
    endloop
  endfacet
  facet normal -0 0 -1
    outer loop
      vertex 40.5 40.5 0
      vertex 39.755 28.74 0
      vertex 40.5 59.5 0
    endloop
  endfacet
  facet normal 0 0 -1
    outer loop
      vertex 39.755 28.74 0
      vertex 40.5 40.5 0
      vertex 60.245 28.74 0
    endloop
  endfacet
  facet normal 0 0 -1
    outer loop
      vertex 60.245 28.74 0
      vertex 71.585 28.74 0
      vertex 71.585 0 0
    endloop
  endfacet
  facet normal 0 0 -1
    outer loop
      vertex 59.5 40.5 0
      vertex 71.585 28.74 0
      vertex 60.245 28.74 0
    endloop
  endfacet
  facet normal 0 0 -1
    outer loop
      vertex 60.245 28.74 0
      vertex 71.585 0 0
      vertex 60.245 0 0
    endloop
  endfacet
  facet normal 0 0 -1
    outer loop
      vertex 71.585 28.74 0
      vertex 59.5 40.5 0
      vertex 71.585 71.26 0
    endloop
  endfacet
  facet normal 0 0 -1
    outer loop
      vertex 71.585 71.26 0
      vertex 60.245 71.26 0
      vertex 71.585 100 0
    endloop
  endfacet
  facet normal -0 0 -1
    outer loop
      vertex 71.585 100 0
      vertex 60.245 71.26 0
      vertex 60.245 100 0
    endloop
  endfacet
  facet normal 0 0 -1
    outer loop
      vertex 71.585 28.74 0
      vertex 92.075 71.26 0
      vertex 92.075 28.74 0
    endloop
  endfacet
  facet normal -0 0 -1
    outer loop
      vertex 92.075 71.26 0
      vertex 71.585 28.74 0
      vertex 71.585 71.26 0
    endloop
  endfacet
  facet normal 0 0 -1
    outer loop
      vertex 92.075 28.74 0
      vertex 100 0 0
      vertex 92.075 0 0
    endloop
  endfacet
  facet normal 0 0 -1
    outer loop
      vertex 100 0 0
      vertex 92.075 28.74 0
      vertex 100 100 0
    endloop
  endfacet
  facet normal 0 0 -1
    outer loop
      vertex 92.075 71.26 0
      vertex 100 100 0
      vertex 92.075 28.74 0
    endloop
  endfacet
  facet normal -0 0 -1
    outer loop
      vertex 100 100 0
      vertex 92.075 71.26 0
      vertex 92.075 100 0
    endloop
  endfacet
  facet normal -0 0 -1
    outer loop
      vertex 71.585 71.26 0
      vertex 59.5 59.5 0
      vertex 60.245 71.26 0
    endloop
  endfacet
  facet normal 0 0 -1
    outer loop
      vertex 40.5 59.5 0
      vertex 60.245 71.26 0
      vertex 59.5 59.5 0
    endloop
  endfacet
  facet normal 0 0 -1
    outer loop
      vertex 40.5 59.5 0
      vertex 39.755 71.26 0
      vertex 60.245 71.26 0
    endloop
  endfacet
  facet normal 0 0 -1
    outer loop
      vertex 39.755 71.26 0
      vertex 40.5 59.5 0
      vertex 39.755 28.74 0
    endloop
  endfacet
  facet normal -1 0 0
    outer loop
      vertex 28.415 28.74 0
      vertex 28.415 3 3
      vertex 28.415 28.74 3
    endloop
  endfacet
  facet normal -1 0 0
    outer loop
      vertex 28.415 0 0
      vertex 28.415 3 3
      vertex 28.415 28.74 0
    endloop
  endfacet
  facet normal -1 0 0
    outer loop
      vertex 28.415 0 12.1
      vertex 28.415 3 3
      vertex 28.415 0 0
    endloop
  endfacet
  facet normal -1 0 0
    outer loop
      vertex 28.415 3 3
      vertex 28.415 0 12.1
      vertex 28.415 3 12.1
    endloop
  endfacet
  facet normal 1 0 0
    outer loop
      vertex 7.925 3 12.1
      vertex 7.925 0 12.1
      vertex 7.925 3 3
    endloop
  endfacet
  facet normal 1 -0 0
    outer loop
      vertex 7.925 3 3
      vertex 7.925 28.74 0
      vertex 7.925 28.74 3
    endloop
  endfacet
  facet normal 1 0 0
    outer loop
      vertex 7.925 3 3
      vertex 7.925 0 0
      vertex 7.925 28.74 0
    endloop
  endfacet
  facet normal 1 0 0
    outer loop
      vertex 7.925 0 0
      vertex 7.925 3 3
      vertex 7.925 0 12.1
    endloop
  endfacet
  facet normal 0 1 -0
    outer loop
      vertex 63.66 3 3
      vertex 60.245 3 12.1
      vertex 63.66 3 12.1
    endloop
  endfacet
  facet normal 0 1 0
    outer loop
      vertex 60.245 3 12.1
      vertex 63.66 3 3
      vertex 60.245 3 3
    endloop
  endfacet
  facet normal 0 1 -0
    outer loop
      vertex 39.755 3 3
      vertex 36.34 3 12.1
      vertex 39.755 3 12.1
    endloop
  endfacet
  facet normal 0 1 0
    outer loop
      vertex 36.34 3 12.1
      vertex 39.755 3 3
      vertex 36.34 3 3
    endloop
  endfacet
  facet normal 0 -1 0
    outer loop
      vertex 36.34 37.32 3
      vertex 63.66 37.32 12.1
      vertex 36.34 37.32 12.1
    endloop
  endfacet
  facet normal 0 -1 -0
    outer loop
      vertex 63.66 37.32 12.1
      vertex 36.34 37.32 3
      vertex 63.66 37.32 3
    endloop
  endfacet
  facet normal 0 0 1
    outer loop
      vertex 63.66 37.32 3
      vertex 60.245 28.74 3
      vertex 63.66 3 3
    endloop
  endfacet
  facet normal 0 0 1
    outer loop
      vertex 63.66 37.32 3
      vertex 39.755 28.74 3
      vertex 60.245 28.74 3
    endloop
  endfacet
  facet normal -0 0 1
    outer loop
      vertex 36.34 37.32 3
      vertex 39.755 28.74 3
      vertex 63.66 37.32 3
    endloop
  endfacet
  facet normal 0 0 1
    outer loop
      vertex 36.34 3 3
      vertex 39.755 28.74 3
      vertex 36.34 37.32 3
    endloop
  endfacet
  facet normal 0 0 1
    outer loop
      vertex 39.755 28.74 3
      vertex 36.34 3 3
      vertex 39.755 3 3
    endloop
  endfacet
  facet normal 0 0 1
    outer loop
      vertex 63.66 3 3
      vertex 60.245 28.74 3
      vertex 60.245 3 3
    endloop
  endfacet
  facet normal -1 0 0
    outer loop
      vertex 63.66 3 3
      vertex 63.66 37.32 12.1
      vertex 63.66 37.32 3
    endloop
  endfacet
  facet normal -1 -0 0
    outer loop
      vertex 63.66 37.32 12.1
      vertex 63.66 3 3
      vertex 63.66 3 12.1
    endloop
  endfacet
  facet normal 1 -0 0
    outer loop
      vertex 36.34 3 12.1
      vertex 36.34 37.32 3
      vertex 36.34 37.32 12.1
    endloop
  endfacet
  facet normal 1 0 0
    outer loop
      vertex 36.34 37.32 3
      vertex 36.34 3 12.1
      vertex 36.34 3 3
    endloop
  endfacet
  facet normal 0 -1 0
    outer loop
      vertex 39.755 28.74 0
      vertex 60.245 28.74 3
      vertex 39.755 28.74 3
    endloop
  endfacet
  facet normal 0 -1 -0
    outer loop
      vertex 60.245 28.74 3
      vertex 39.755 28.74 0
      vertex 60.245 28.74 0
    endloop
  endfacet
  facet normal -1 0 0
    outer loop
      vertex 60.245 28.74 0
      vertex 60.245 3 3
      vertex 60.245 28.74 3
    endloop
  endfacet
  facet normal -1 0 0
    outer loop
      vertex 60.245 0 0
      vertex 60.245 3 3
      vertex 60.245 28.74 0
    endloop
  endfacet
  facet normal -1 0 0
    outer loop
      vertex 60.245 0 12.1
      vertex 60.245 3 3
      vertex 60.245 0 0
    endloop
  endfacet
  facet normal -1 0 0
    outer loop
      vertex 60.245 3 3
      vertex 60.245 0 12.1
      vertex 60.245 3 12.1
    endloop
  endfacet
  facet normal 1 0 0
    outer loop
      vertex 39.755 3 12.1
      vertex 39.755 0 12.1
      vertex 39.755 3 3
    endloop
  endfacet
  facet normal 1 -0 0
    outer loop
      vertex 39.755 3 3
      vertex 39.755 28.74 0
      vertex 39.755 28.74 3
    endloop
  endfacet
  facet normal 1 0 0
    outer loop
      vertex 39.755 3 3
      vertex 39.755 0 0
      vertex 39.755 28.74 0
    endloop
  endfacet
  facet normal 1 0 0
    outer loop
      vertex 39.755 0 0
      vertex 39.755 3 3
      vertex 39.755 0 12.1
    endloop
  endfacet
  facet normal 0 1 -0
    outer loop
      vertex 95.49 3 3
      vertex 92.075 3 12.1
      vertex 95.49 3 12.1
    endloop
  endfacet
  facet normal 0 1 0
    outer loop
      vertex 92.075 3 12.1
      vertex 95.49 3 3
      vertex 92.075 3 3
    endloop
  endfacet
  facet normal 0 1 -0
    outer loop
      vertex 71.585 3 3
      vertex 68.17 3 12.1
      vertex 71.585 3 12.1
    endloop
  endfacet
  facet normal 0 1 0
    outer loop
      vertex 68.17 3 12.1
      vertex 71.585 3 3
      vertex 68.17 3 3
    endloop
  endfacet
  facet normal 0 -1 0
    outer loop
      vertex 68.17 37.32 3
      vertex 95.49 37.32 12.1
      vertex 68.17 37.32 12.1
    endloop
  endfacet
  facet normal 0 -1 -0
    outer loop
      vertex 95.49 37.32 12.1
      vertex 68.17 37.32 3
      vertex 95.49 37.32 3
    endloop
  endfacet
  facet normal 0 0 1
    outer loop
      vertex 95.49 37.32 3
      vertex 92.075 28.74 3
      vertex 95.49 3 3
    endloop
  endfacet
  facet normal 0 0 1
    outer loop
      vertex 95.49 37.32 3
      vertex 71.585 28.74 3
      vertex 92.075 28.74 3
    endloop
  endfacet
  facet normal -0 0 1
    outer loop
      vertex 68.17 37.32 3
      vertex 71.585 28.74 3
      vertex 95.49 37.32 3
    endloop
  endfacet
  facet normal 0 0 1
    outer loop
      vertex 68.17 3 3
      vertex 71.585 28.74 3
      vertex 68.17 37.32 3
    endloop
  endfacet
  facet normal 0 0 1
    outer loop
      vertex 71.585 28.74 3
      vertex 68.17 3 3
      vertex 71.585 3 3
    endloop
  endfacet
  facet normal 0 0 1
    outer loop
      vertex 95.49 3 3
      vertex 92.075 28.74 3
      vertex 92.075 3 3
    endloop
  endfacet
  facet normal -1 0 0
    outer loop
      vertex 95.49 3 3
      vertex 95.49 37.32 12.1
      vertex 95.49 37.32 3
    endloop
  endfacet
  facet normal -1 -0 0
    outer loop
      vertex 95.49 37.32 12.1
      vertex 95.49 3 3
      vertex 95.49 3 12.1
    endloop
  endfacet
  facet normal 1 -0 0
    outer loop
      vertex 68.17 3 12.1
      vertex 68.17 37.32 3
      vertex 68.17 37.32 12.1
    endloop
  endfacet
  facet normal 1 0 0
    outer loop
      vertex 68.17 37.32 3
      vertex 68.17 3 12.1
      vertex 68.17 3 3
    endloop
  endfacet
  facet normal 0 -1 0
    outer loop
      vertex 71.585 28.74 0
      vertex 92.075 28.74 3
      vertex 71.585 28.74 3
    endloop
  endfacet
  facet normal 0 -1 -0
    outer loop
      vertex 92.075 28.74 3
      vertex 71.585 28.74 0
      vertex 92.075 28.74 0
    endloop
  endfacet
  facet normal -1 0 0
    outer loop
      vertex 92.075 28.74 0
      vertex 92.075 3 3
      vertex 92.075 28.74 3
    endloop
  endfacet
  facet normal -1 0 0
    outer loop
      vertex 92.075 0 0
      vertex 92.075 3 3
      vertex 92.075 28.74 0
    endloop
  endfacet
  facet normal -1 0 0
    outer loop
      vertex 92.075 0 12.1
      vertex 92.075 3 3
      vertex 92.075 0 0
    endloop
  endfacet
  facet normal -1 0 0
    outer loop
      vertex 92.075 3 3
      vertex 92.075 0 12.1
      vertex 92.075 3 12.1
    endloop
  endfacet
  facet normal 1 0 0
    outer loop
      vertex 71.585 3 12.1
      vertex 71.585 0 12.1
      vertex 71.585 3 3
    endloop
  endfacet
  facet normal 1 -0 0
    outer loop
      vertex 71.585 3 3
      vertex 71.585 28.74 0
      vertex 71.585 28.74 3
    endloop
  endfacet
  facet normal 1 0 0
    outer loop
      vertex 71.585 3 3
      vertex 71.585 0 0
      vertex 71.585 28.74 0
    endloop
  endfacet
  facet normal 1 0 0
    outer loop
      vertex 71.585 0 0
      vertex 71.585 3 3
      vertex 71.585 0 12.1
    endloop
  endfacet
  facet normal 0 -1 0
    outer loop
      vertex 4.51 97 3
      vertex 7.925 97 12.1
      vertex 4.51 97 12.1
    endloop
  endfacet
  facet normal 0 -1 -0
    outer loop
      vertex 7.925 97 12.1
      vertex 4.51 97 3
      vertex 7.925 97 3
    endloop
  endfacet
  facet normal 0 -1 0
    outer loop
      vertex 28.415 97 3
      vertex 31.83 97 12.1
      vertex 28.415 97 12.1
    endloop
  endfacet
  facet normal 0 -1 -0
    outer loop
      vertex 31.83 97 12.1
      vertex 28.415 97 3
      vertex 31.83 97 3
    endloop
  endfacet
  facet normal 0 1 -0
    outer loop
      vertex 31.83 62.68 3
      vertex 4.51 62.68 12.1
      vertex 31.83 62.68 12.1
    endloop
  endfacet
  facet normal 0 1 0
    outer loop
      vertex 4.51 62.68 12.1
      vertex 31.83 62.68 3
      vertex 4.51 62.68 3
    endloop
  endfacet
  facet normal 0 0 1
    outer loop
      vertex 7.925 97 3
      vertex 4.51 97 3
      vertex 7.925 71.26 3
    endloop
  endfacet
  facet normal 0 0 1
    outer loop
      vertex 28.415 71.26 3
      vertex 31.83 97 3
      vertex 28.415 97 3
    endloop
  endfacet
  facet normal 0 0 1
    outer loop
      vertex 31.83 97 3
      vertex 28.415 71.26 3
      vertex 31.83 62.68 3
    endloop
  endfacet
  facet normal -0 0 1
    outer loop
      vertex 7.925 71.26 3
      vertex 31.83 62.68 3
      vertex 28.415 71.26 3
    endloop
  endfacet
  facet normal 0 0 1
    outer loop
      vertex 7.925 71.26 3
      vertex 4.51 62.68 3
      vertex 31.83 62.68 3
    endloop
  endfacet
  facet normal 0 0 1
    outer loop
      vertex 4.51 62.68 3
      vertex 7.925 71.26 3
      vertex 4.51 97 3
    endloop
  endfacet
  facet normal 1 -0 0
    outer loop
      vertex 4.51 62.68 12.1
      vertex 4.51 97 3
      vertex 4.51 97 12.1
    endloop
  endfacet
  facet normal 1 0 0
    outer loop
      vertex 4.51 97 3
      vertex 4.51 62.68 12.1
      vertex 4.51 62.68 3
    endloop
  endfacet
  facet normal -1 0 0
    outer loop
      vertex 31.83 62.68 3
      vertex 31.83 97 12.1
      vertex 31.83 97 3
    endloop
  endfacet
  facet normal -1 -0 0
    outer loop
      vertex 31.83 97 12.1
      vertex 31.83 62.68 3
      vertex 31.83 62.68 12.1
    endloop
  endfacet
  facet normal 0 1 -0
    outer loop
      vertex 28.415 71.26 0
      vertex 7.925 71.26 3
      vertex 28.415 71.26 3
    endloop
  endfacet
  facet normal 0 1 0
    outer loop
      vertex 7.925 71.26 3
      vertex 28.415 71.26 0
      vertex 7.925 71.26 0
    endloop
  endfacet
  facet normal 1 0 0
    outer loop
      vertex 7.925 97 3
      vertex 7.925 100 12.1
      vertex 7.925 97 12.1
    endloop
  endfacet
  facet normal 1 0 0
    outer loop
      vertex 7.925 100 12.1
      vertex 7.925 97 3
      vertex 7.925 100 0
    endloop
  endfacet
  facet normal 1 0 0
    outer loop
      vertex 7.925 71.26 0
      vertex 7.925 97 3
      vertex 7.925 71.26 3
    endloop
  endfacet
  facet normal 1 0 0
    outer loop
      vertex 7.925 97 3
      vertex 7.925 71.26 0
      vertex 7.925 100 0
    endloop
  endfacet
  facet normal -1 0 0
    outer loop
      vertex 28.415 100 0
      vertex 28.415 97 3
      vertex 28.415 100 12.1
    endloop
  endfacet
  facet normal -1 0 0
    outer loop
      vertex 28.415 71.26 0
      vertex 28.415 97 3
      vertex 28.415 100 0
    endloop
  endfacet
  facet normal -1 -0 0
    outer loop
      vertex 28.415 97 3
      vertex 28.415 71.26 0
      vertex 28.415 71.26 3
    endloop
  endfacet
  facet normal -1 -0 0
    outer loop
      vertex 28.415 100 12.1
      vertex 28.415 97 3
      vertex 28.415 97 12.1
    endloop
  endfacet
  facet normal 0 -1 0
    outer loop
      vertex 36.34 97 3
      vertex 39.755 97 12.1
      vertex 36.34 97 12.1
    endloop
  endfacet
  facet normal 0 -1 -0
    outer loop
      vertex 39.755 97 12.1
      vertex 36.34 97 3
      vertex 39.755 97 3
    endloop
  endfacet
  facet normal 0 -1 0
    outer loop
      vertex 60.245 97 3
      vertex 63.66 97 12.1
      vertex 60.245 97 12.1
    endloop
  endfacet
  facet normal 0 -1 -0
    outer loop
      vertex 63.66 97 12.1
      vertex 60.245 97 3
      vertex 63.66 97 3
    endloop
  endfacet
  facet normal 0 1 -0
    outer loop
      vertex 63.66 62.68 3
      vertex 36.34 62.68 12.1
      vertex 63.66 62.68 12.1
    endloop
  endfacet
  facet normal 0 1 0
    outer loop
      vertex 36.34 62.68 12.1
      vertex 63.66 62.68 3
      vertex 36.34 62.68 3
    endloop
  endfacet
  facet normal 0 0 1
    outer loop
      vertex 39.755 97 3
      vertex 36.34 97 3
      vertex 39.755 71.26 3
    endloop
  endfacet
  facet normal 0 0 1
    outer loop
      vertex 60.245 71.26 3
      vertex 63.66 97 3
      vertex 60.245 97 3
    endloop
  endfacet
  facet normal 0 0 1
    outer loop
      vertex 63.66 97 3
      vertex 60.245 71.26 3
      vertex 63.66 62.68 3
    endloop
  endfacet
  facet normal -0 0 1
    outer loop
      vertex 39.755 71.26 3
      vertex 63.66 62.68 3
      vertex 60.245 71.26 3
    endloop
  endfacet
  facet normal 0 0 1
    outer loop
      vertex 39.755 71.26 3
      vertex 36.34 62.68 3
      vertex 63.66 62.68 3
    endloop
  endfacet
  facet normal 0 0 1
    outer loop
      vertex 36.34 62.68 3
      vertex 39.755 71.26 3
      vertex 36.34 97 3
    endloop
  endfacet
  facet normal 1 -0 0
    outer loop
      vertex 36.34 62.68 12.1
      vertex 36.34 97 3
      vertex 36.34 97 12.1
    endloop
  endfacet
  facet normal 1 0 0
    outer loop
      vertex 36.34 97 3
      vertex 36.34 62.68 12.1
      vertex 36.34 62.68 3
    endloop
  endfacet
  facet normal -1 0 0
    outer loop
      vertex 63.66 62.68 3
      vertex 63.66 97 12.1
      vertex 63.66 97 3
    endloop
  endfacet
  facet normal -1 -0 0
    outer loop
      vertex 63.66 97 12.1
      vertex 63.66 62.68 3
      vertex 63.66 62.68 12.1
    endloop
  endfacet
  facet normal 0 1 -0
    outer loop
      vertex 60.245 71.26 0
      vertex 39.755 71.26 3
      vertex 60.245 71.26 3
    endloop
  endfacet
  facet normal 0 1 0
    outer loop
      vertex 39.755 71.26 3
      vertex 60.245 71.26 0
      vertex 39.755 71.26 0
    endloop
  endfacet
  facet normal 1 0 0
    outer loop
      vertex 39.755 97 3
      vertex 39.755 100 12.1
      vertex 39.755 97 12.1
    endloop
  endfacet
  facet normal 1 0 0
    outer loop
      vertex 39.755 100 12.1
      vertex 39.755 97 3
      vertex 39.755 100 0
    endloop
  endfacet
  facet normal 1 0 0
    outer loop
      vertex 39.755 71.26 0
      vertex 39.755 97 3
      vertex 39.755 71.26 3
    endloop
  endfacet
  facet normal 1 0 0
    outer loop
      vertex 39.755 97 3
      vertex 39.755 71.26 0
      vertex 39.755 100 0
    endloop
  endfacet
  facet normal -1 0 0
    outer loop
      vertex 60.245 100 0
      vertex 60.245 97 3
      vertex 60.245 100 12.1
    endloop
  endfacet
  facet normal -1 0 0
    outer loop
      vertex 60.245 71.26 0
      vertex 60.245 97 3
      vertex 60.245 100 0
    endloop
  endfacet
  facet normal -1 -0 0
    outer loop
      vertex 60.245 97 3
      vertex 60.245 71.26 0
      vertex 60.245 71.26 3
    endloop
  endfacet
  facet normal -1 -0 0
    outer loop
      vertex 60.245 100 12.1
      vertex 60.245 97 3
      vertex 60.245 97 12.1
    endloop
  endfacet
  facet normal 0 -1 0
    outer loop
      vertex 68.17 97 3
      vertex 71.585 97 12.1
      vertex 68.17 97 12.1
    endloop
  endfacet
  facet normal 0 -1 -0
    outer loop
      vertex 71.585 97 12.1
      vertex 68.17 97 3
      vertex 71.585 97 3
    endloop
  endfacet
  facet normal 0 -1 0
    outer loop
      vertex 92.075 97 3
      vertex 95.49 97 12.1
      vertex 92.075 97 12.1
    endloop
  endfacet
  facet normal 0 -1 -0
    outer loop
      vertex 95.49 97 12.1
      vertex 92.075 97 3
      vertex 95.49 97 3
    endloop
  endfacet
  facet normal 0 1 -0
    outer loop
      vertex 95.49 62.68 3
      vertex 68.17 62.68 12.1
      vertex 95.49 62.68 12.1
    endloop
  endfacet
  facet normal 0 1 0
    outer loop
      vertex 68.17 62.68 12.1
      vertex 95.49 62.68 3
      vertex 68.17 62.68 3
    endloop
  endfacet
  facet normal 0 0 1
    outer loop
      vertex 71.585 97 3
      vertex 68.17 97 3
      vertex 71.585 71.26 3
    endloop
  endfacet
  facet normal 0 0 1
    outer loop
      vertex 92.075 71.26 3
      vertex 95.49 97 3
      vertex 92.075 97 3
    endloop
  endfacet
  facet normal 0 0 1
    outer loop
      vertex 95.49 97 3
      vertex 92.075 71.26 3
      vertex 95.49 62.68 3
    endloop
  endfacet
  facet normal -0 0 1
    outer loop
      vertex 71.585 71.26 3
      vertex 95.49 62.68 3
      vertex 92.075 71.26 3
    endloop
  endfacet
  facet normal 0 0 1
    outer loop
      vertex 71.585 71.26 3
      vertex 68.17 62.68 3
      vertex 95.49 62.68 3
    endloop
  endfacet
  facet normal 0 0 1
    outer loop
      vertex 68.17 62.68 3
      vertex 71.585 71.26 3
      vertex 68.17 97 3
    endloop
  endfacet
  facet normal 1 -0 0
    outer loop
      vertex 68.17 62.68 12.1
      vertex 68.17 97 3
      vertex 68.17 97 12.1
    endloop
  endfacet
  facet normal 1 0 0
    outer loop
      vertex 68.17 97 3
      vertex 68.17 62.68 12.1
      vertex 68.17 62.68 3
    endloop
  endfacet
  facet normal -1 0 0
    outer loop
      vertex 95.49 62.68 3
      vertex 95.49 97 12.1
      vertex 95.49 97 3
    endloop
  endfacet
  facet normal -1 -0 0
    outer loop
      vertex 95.49 97 12.1
      vertex 95.49 62.68 3
      vertex 95.49 62.68 12.1
    endloop
  endfacet
  facet normal 0 1 -0
    outer loop
      vertex 92.075 71.26 0
      vertex 71.585 71.26 3
      vertex 92.075 71.26 3
    endloop
  endfacet
  facet normal 0 1 0
    outer loop
      vertex 71.585 71.26 3
      vertex 92.075 71.26 0
      vertex 71.585 71.26 0
    endloop
  endfacet
  facet normal 1 0 0
    outer loop
      vertex 71.585 97 3
      vertex 71.585 100 12.1
      vertex 71.585 97 12.1
    endloop
  endfacet
  facet normal 1 0 0
    outer loop
      vertex 71.585 100 12.1
      vertex 71.585 97 3
      vertex 71.585 100 0
    endloop
  endfacet
  facet normal 1 0 0
    outer loop
      vertex 71.585 71.26 0
      vertex 71.585 97 3
      vertex 71.585 71.26 3
    endloop
  endfacet
  facet normal 1 0 0
    outer loop
      vertex 71.585 97 3
      vertex 71.585 71.26 0
      vertex 71.585 100 0
    endloop
  endfacet
  facet normal -1 0 0
    outer loop
      vertex 92.075 100 0
      vertex 92.075 97 3
      vertex 92.075 100 12.1
    endloop
  endfacet
  facet normal -1 0 0
    outer loop
      vertex 92.075 71.26 0
      vertex 92.075 97 3
      vertex 92.075 100 0
    endloop
  endfacet
  facet normal -1 -0 0
    outer loop
      vertex 92.075 97 3
      vertex 92.075 71.26 0
      vertex 92.075 71.26 3
    endloop
  endfacet
  facet normal -1 -0 0
    outer loop
      vertex 92.075 100 12.1
      vertex 92.075 97 3
      vertex 92.075 97 12.1
    endloop
  endfacet
  facet normal -1 0 0
    outer loop
      vertex 0 0 0
      vertex 0 100 12.1
      vertex 0 100 0
    endloop
  endfacet
  facet normal -1 -0 0
    outer loop
      vertex 0 100 12.1
      vertex 0 0 0
      vertex 0 0 12.1
    endloop
  endfacet
  facet normal 1 -0 0
    outer loop
      vertex 100 0 12.1
      vertex 100 100 0
      vertex 100 100 12.1
    endloop
  endfacet
  facet normal 1 0 0
    outer loop
      vertex 100 100 0
      vertex 100 0 12.1
      vertex 100 0 0
    endloop
  endfacet
  facet normal 0 1 -0
    outer loop
      vertex 100 100 0
      vertex 92.075 100 12.1
      vertex 100 100 12.1
    endloop
  endfacet
  facet normal 0 1 0
    outer loop
      vertex 92.075 100 12.1
      vertex 100 100 0
      vertex 92.075 100 0
    endloop
  endfacet
  facet normal 0 1 -0
    outer loop
      vertex 7.925 100 0
      vertex 0 100 12.1
      vertex 7.925 100 12.1
    endloop
  endfacet
  facet normal 0 1 0
    outer loop
      vertex 0 100 12.1
      vertex 7.925 100 0
      vertex 0 100 0
    endloop
  endfacet
  facet normal 0 1 -0
    outer loop
      vertex 39.755 100 0
      vertex 28.415 100 12.1
      vertex 39.755 100 12.1
    endloop
  endfacet
  facet normal 0 1 0
    outer loop
      vertex 28.415 100 12.1
      vertex 39.755 100 0
      vertex 28.415 100 0
    endloop
  endfacet
  facet normal 0 1 -0
    outer loop
      vertex 71.585 100 0
      vertex 60.245 100 12.1
      vertex 71.585 100 12.1
    endloop
  endfacet
  facet normal 0 1 0
    outer loop
      vertex 60.245 100 12.1
      vertex 71.585 100 0
      vertex 60.245 100 0
    endloop
  endfacet
  facet normal 0 -1 0
    outer loop
      vertex 0 0 0
      vertex 7.925 0 12.1
      vertex 0 0 12.1
    endloop
  endfacet
  facet normal 0 -1 -0
    outer loop
      vertex 7.925 0 12.1
      vertex 0 0 0
      vertex 7.925 0 0
    endloop
  endfacet
  facet normal 0 -1 0
    outer loop
      vertex 92.075 0 0
      vertex 100 0 12.1
      vertex 92.075 0 12.1
    endloop
  endfacet
  facet normal 0 -1 -0
    outer loop
      vertex 100 0 12.1
      vertex 92.075 0 0
      vertex 100 0 0
    endloop
  endfacet
  facet normal 0 -1 0
    outer loop
      vertex 28.415 0 0
      vertex 39.755 0 12.1
      vertex 28.415 0 12.1
    endloop
  endfacet
  facet normal 0 -1 -0
    outer loop
      vertex 39.755 0 12.1
      vertex 28.415 0 0
      vertex 39.755 0 0
    endloop
  endfacet
  facet normal 0 -1 0
    outer loop
      vertex 60.245 0 0
      vertex 71.585 0 12.1
      vertex 60.245 0 12.1
    endloop
  endfacet
  facet normal 0 -1 -0
    outer loop
      vertex 71.585 0 12.1
      vertex 60.245 0 0
      vertex 71.585 0 0
    endloop
  endfacet
  facet normal 1 -0 0
    outer loop
      vertex 40.5 40.5 12.1
      vertex 40.5 59.5 0
      vertex 40.5 59.5 12.1
    endloop
  endfacet
  facet normal 1 0 0
    outer loop
      vertex 40.5 59.5 0
      vertex 40.5 40.5 12.1
      vertex 40.5 40.5 0
    endloop
  endfacet
  facet normal -1 0 0
    outer loop
      vertex 59.5 40.5 0
      vertex 59.5 59.5 12.1
      vertex 59.5 59.5 0
    endloop
  endfacet
  facet normal -1 -0 0
    outer loop
      vertex 59.5 59.5 12.1
      vertex 59.5 40.5 0
      vertex 59.5 40.5 12.1
    endloop
  endfacet
  facet normal 0 1 -0
    outer loop
      vertex 59.5 40.5 0
      vertex 40.5 40.5 12.1
      vertex 59.5 40.5 12.1
    endloop
  endfacet
  facet normal 0 1 0
    outer loop
      vertex 40.5 40.5 12.1
      vertex 59.5 40.5 0
      vertex 40.5 40.5 0
    endloop
  endfacet
  facet normal 0 -1 0
    outer loop
      vertex 40.5 59.5 0
      vertex 59.5 59.5 12.1
      vertex 40.5 59.5 12.1
    endloop
  endfacet
  facet normal 0 -1 -0
    outer loop
      vertex 59.5 59.5 12.1
      vertex 40.5 59.5 0
      vertex 59.5 59.5 0
    endloop
  endfacet
endsolid OpenSCAD_Model
