solid OpenSCAD_Model
  facet normal 0 -1 0
    outer loop
      vertex 41.855 87 9.45
      vertex 45.1413 87 12.1
      vertex 41.855 87 12.1
    endloop
  endfacet
  facet normal 0 -1 -0
    outer loop
      vertex 45.1413 87 12.1
      vertex 41.855 87 9.45
      vertex 45.1413 87 9.45
    endloop
  endfacet
  facet normal 0 -1 0
    outer loop
      vertex 64.8587 87 9.45
      vertex 68.145 87 12.1
      vertex 64.8587 87 12.1
    endloop
  endfacet
  facet normal 0 -1 -0
    outer loop
      vertex 68.145 87 12.1
      vertex 64.8587 87 9.45
      vertex 68.145 87 9.45
    endloop
  endfacet
  facet normal 0 0 1
    outer loop
      vertex 47.8407 42.1654 12.1
      vertex 26.9866 44.9606 12.1
      vertex 38.2292 25.4878 12.1
    endloop
  endfacet
  facet normal 0 0 1
    outer loop
      vertex 45.1413 89.9961 12.1
      vertex 41.855 87 12.1
      vertex 45.1413 87 12.1
    endloop
  endfacet
  facet normal 0 0 1
    outer loop
      vertex 41.855 87 12.1
      vertex 38.2292 64.4334 12.1
      vertex 41.855 53.55 12.1
    endloop
  endfacet
  facet normal 0 0 1
    outer loop
      vertex 41.855 87 12.1
      vertex 26.9854 83.9084 12.1
      vertex 38.2292 64.4334 12.1
    endloop
  endfacet
  facet normal 0 0 1
    outer loop
      vertex 45.1413 89.9961 12.1
      vertex 26.9854 83.9084 12.1
      vertex 41.855 87 12.1
    endloop
  endfacet
  facet normal -0 0 1
    outer loop
      vertex -0.125581 89.9961 12.1
      vertex 26.9854 83.9084 12.1
      vertex 45.1413 89.9961 12.1
    endloop
  endfacet
  facet normal 0 0 1
    outer loop
      vertex 26.9854 83.9084 12.1
      vertex -0.125581 89.9961 12.1
      vertex 4.49756 83.9084 12.1
    endloop
  endfacet
  facet normal 0 0 1
    outer loop
      vertex -2 88 12.1
      vertex -0.125581 89.9961 12.1
      vertex -0.374763 89.9646 12.1
    endloop
  endfacet
  facet normal 0 0 1
    outer loop
      vertex -2 88 12.1
      vertex -0.374763 89.9646 12.1
      vertex -0.618033 89.9021 12.1
    endloop
  endfacet
  facet normal 0 0 1
    outer loop
      vertex -2 88 12.1
      vertex -0.618033 89.9021 12.1
      vertex -0.851558 89.8097 12.1
    endloop
  endfacet
  facet normal 0 0 1
    outer loop
      vertex -2 88 12.1
      vertex -0.851558 89.8097 12.1
      vertex -1.07165 89.6887 12.1
    endloop
  endfacet
  facet normal 0 0 1
    outer loop
      vertex -2 88 12.1
      vertex -1.07165 89.6887 12.1
      vertex -1.27485 89.541 12.1
    endloop
  endfacet
  facet normal 0 0 1
    outer loop
      vertex -2 88 12.1
      vertex -1.27485 89.541 12.1
      vertex -1.45794 89.3691 12.1
    endloop
  endfacet
  facet normal 0 0 1
    outer loop
      vertex -2 88 12.1
      vertex -1.45794 89.3691 12.1
      vertex -1.61803 89.1756 12.1
    endloop
  endfacet
  facet normal 0 0 1
    outer loop
      vertex -2 88 12.1
      vertex -1.61803 89.1756 12.1
      vertex -1.75261 88.9635 12.1
    endloop
  endfacet
  facet normal 0 0 1
    outer loop
      vertex -2 88 12.1
      vertex -1.75261 88.9635 12.1
      vertex -1.85955 88.7363 12.1
    endloop
  endfacet
  facet normal 0 0 1
    outer loop
      vertex -2 88 12.1
      vertex -1.85955 88.7363 12.1
      vertex -1.93717 88.4974 12.1
    endloop
  endfacet
  facet normal 0 0 1
    outer loop
      vertex -2 88 12.1
      vertex -1.93717 88.4974 12.1
      vertex -1.98423 88.2507 12.1
    endloop
  endfacet
  facet normal 0 0 1
    outer loop
      vertex -0.125581 89.9961 12.1
      vertex -2 88 12.1
      vertex 4.49756 83.9084 12.1
    endloop
  endfacet
  facet normal 0 0 1
    outer loop
      vertex 4.49756 83.9084 12.1
      vertex -2 88 12.1
      vertex -2 72.6543 12.1
    endloop
  endfacet
  facet normal 0 0 1
    outer loop
      vertex 108.126 89.9961 12.1
      vertex 110 88 12.1
      vertex 109.984 88.2507 12.1
    endloop
  endfacet
  facet normal 0 0 1
    outer loop
      vertex 108.126 89.9961 12.1
      vertex 109.984 88.2507 12.1
      vertex 109.937 88.4974 12.1
    endloop
  endfacet
  facet normal 0 0 1
    outer loop
      vertex 108.126 89.9961 12.1
      vertex 109.937 88.4974 12.1
      vertex 109.86 88.7363 12.1
    endloop
  endfacet
  facet normal 0 0 1
    outer loop
      vertex 108.126 89.9961 12.1
      vertex 109.86 88.7363 12.1
      vertex 109.753 88.9635 12.1
    endloop
  endfacet
  facet normal 0 0 1
    outer loop
      vertex 108.126 89.9961 12.1
      vertex 109.753 88.9635 12.1
      vertex 109.618 89.1756 12.1
    endloop
  endfacet
  facet normal 0 0 1
    outer loop
      vertex 108.126 89.9961 12.1
      vertex 109.618 89.1756 12.1
      vertex 109.458 89.3691 12.1
    endloop
  endfacet
  facet normal 0 0 1
    outer loop
      vertex 108.126 89.9961 12.1
      vertex 109.458 89.3691 12.1
      vertex 109.275 89.541 12.1
    endloop
  endfacet
  facet normal 0 0 1
    outer loop
      vertex 108.126 89.9961 12.1
      vertex 109.275 89.541 12.1
      vertex 109.072 89.6887 12.1
    endloop
  endfacet
  facet normal 0 0 1
    outer loop
      vertex 108.126 89.9961 12.1
      vertex 109.072 89.6887 12.1
      vertex 108.852 89.8097 12.1
    endloop
  endfacet
  facet normal 0 0 1
    outer loop
      vertex 108.126 89.9961 12.1
      vertex 108.852 89.8097 12.1
      vertex 108.618 89.9021 12.1
    endloop
  endfacet
  facet normal 0 0 1
    outer loop
      vertex 108.126 89.9961 12.1
      vertex 108.618 89.9021 12.1
      vertex 108.375 89.9646 12.1
    endloop
  endfacet
  facet normal 0 0 1
    outer loop
      vertex 110 88 12.1
      vertex 108.126 89.9961 12.1
      vertex 105.502 86.9872 12.1
    endloop
  endfacet
  facet normal 0 0 1
    outer loop
      vertex 110 88 12.1
      vertex 105.502 86.9872 12.1
      vertex 110 79.1972 12.1
    endloop
  endfacet
  facet normal 0 0 1
    outer loop
      vertex 108.126 89.9961 12.1
      vertex 83.0146 86.9872 12.1
      vertex 105.502 86.9872 12.1
    endloop
  endfacet
  facet normal 0 0 1
    outer loop
      vertex 68.145 53.55 12.1
      vertex 71.7708 67.5122 12.1
      vertex 68.145 87 12.1
    endloop
  endfacet
  facet normal 0 0 1
    outer loop
      vertex 83.0146 86.9872 12.1
      vertex 68.145 87 12.1
      vertex 71.7708 67.5122 12.1
    endloop
  endfacet
  facet normal -0 0 1
    outer loop
      vertex 64.8587 89.9961 12.1
      vertex 83.0146 86.9872 12.1
      vertex 108.126 89.9961 12.1
    endloop
  endfacet
  facet normal 0 0 1
    outer loop
      vertex 83.0146 86.9872 12.1
      vertex 64.8587 89.9961 12.1
      vertex 68.145 87 12.1
    endloop
  endfacet
  facet normal 0 0 1
    outer loop
      vertex 68.145 87 12.1
      vertex 64.8587 89.9961 12.1
      vertex 64.8587 87 12.1
    endloop
  endfacet
  facet normal -0 0 1
    outer loop
      vertex 105.502 48.0372 12.1
      vertex 110 34.1728 12.1
      vertex 110 55.8272 12.1
    endloop
  endfacet
  facet normal 0 0 1
    outer loop
      vertex 105.502 48.0372 12.1
      vertex 105.502 41.9628 12.1
      vertex 110 34.1728 12.1
    endloop
  endfacet
  facet normal -0 0 1
    outer loop
      vertex 83.0146 48.0372 12.1
      vertex 105.502 41.9628 12.1
      vertex 105.502 48.0372 12.1
    endloop
  endfacet
  facet normal 0 0 1
    outer loop
      vertex 83.0146 48.0372 12.1
      vertex 83.0146 41.9628 12.1
      vertex 105.502 41.9628 12.1
    endloop
  endfacet
  facet normal 0 0 1
    outer loop
      vertex 71.7708 67.5122 12.1
      vertex 83.0146 41.9628 12.1
      vertex 83.0146 48.0372 12.1
    endloop
  endfacet
  facet normal 0 0 1
    outer loop
      vertex 83.0146 41.9628 12.1
      vertex 71.7708 67.5122 12.1
      vertex 71.7708 22.4878 12.1
    endloop
  endfacet
  facet normal -0 0 1
    outer loop
      vertex 105.502 3.01279 12.1
      vertex 110 0 12.1
      vertex 110 10.8028 12.1
    endloop
  endfacet
  facet normal 0 -0 1
    outer loop
      vertex 108.126 -1.99605 12.1
      vertex 110 0 12.1
      vertex 105.502 3.01279 12.1
    endloop
  endfacet
  facet normal 0 0 1
    outer loop
      vertex 110 0 12.1
      vertex 108.126 -1.99605 12.1
      vertex 109.984 -0.250666 12.1
    endloop
  endfacet
  facet normal 0 0 1
    outer loop
      vertex 109.984 -0.250666 12.1
      vertex 108.126 -1.99605 12.1
      vertex 109.937 -0.497379 12.1
    endloop
  endfacet
  facet normal 0 0 1
    outer loop
      vertex 109.937 -0.497379 12.1
      vertex 108.126 -1.99605 12.1
      vertex 109.86 -0.736249 12.1
    endloop
  endfacet
  facet normal 0 0 1
    outer loop
      vertex 109.86 -0.736249 12.1
      vertex 108.126 -1.99605 12.1
      vertex 109.753 -0.963507 12.1
    endloop
  endfacet
  facet normal 0 0 1
    outer loop
      vertex 109.753 -0.963507 12.1
      vertex 108.126 -1.99605 12.1
      vertex 109.618 -1.17557 12.1
    endloop
  endfacet
  facet normal 0 0 1
    outer loop
      vertex 109.618 -1.17557 12.1
      vertex 108.126 -1.99605 12.1
      vertex 109.458 -1.36909 12.1
    endloop
  endfacet
  facet normal 0 0 1
    outer loop
      vertex 109.458 -1.36909 12.1
      vertex 108.126 -1.99605 12.1
      vertex 109.275 -1.54103 12.1
    endloop
  endfacet
  facet normal 0 0 1
    outer loop
      vertex 109.275 -1.54103 12.1
      vertex 108.126 -1.99605 12.1
      vertex 109.072 -1.68865 12.1
    endloop
  endfacet
  facet normal 0 0 1
    outer loop
      vertex 109.072 -1.68865 12.1
      vertex 108.126 -1.99605 12.1
      vertex 108.852 -1.80965 12.1
    endloop
  endfacet
  facet normal 0 0 1
    outer loop
      vertex 108.852 -1.80965 12.1
      vertex 108.126 -1.99605 12.1
      vertex 108.618 -1.90211 12.1
    endloop
  endfacet
  facet normal 0 0 1
    outer loop
      vertex 108.618 -1.90211 12.1
      vertex 108.126 -1.99605 12.1
      vertex 108.375 -1.96457 12.1
    endloop
  endfacet
  facet normal -0 0 1
    outer loop
      vertex 83.0146 3.01279 12.1
      vertex 108.126 -1.99605 12.1
      vertex 105.502 3.01279 12.1
    endloop
  endfacet
  facet normal 0 0 1
    outer loop
      vertex 71.7708 67.5122 12.1
      vertex 68.145 53.55 12.1
      vertex 71.7708 22.4878 12.1
    endloop
  endfacet
  facet normal 0 0 1
    outer loop
      vertex 62.6393 44.0349 12.1
      vertex 68.145 53.55 12.1
      vertex 62.7 45 12.1
    endloop
  endfacet
  facet normal 0 0 1
    outer loop
      vertex 62.4581 43.0851 12.1
      vertex 68.145 53.55 12.1
      vertex 62.6393 44.0349 12.1
    endloop
  endfacet
  facet normal 0 0 1
    outer loop
      vertex 68.145 53.55 12.1
      vertex 62.4581 43.0851 12.1
      vertex 71.7708 22.4878 12.1
    endloop
  endfacet
  facet normal -0 0 1
    outer loop
      vertex 62.1593 42.1654 12.1
      vertex 71.7708 22.4878 12.1
      vertex 62.4581 43.0851 12.1
    endloop
  endfacet
  facet normal -0 0 1
    outer loop
      vertex 61.7476 41.2905 12.1
      vertex 71.7708 22.4878 12.1
      vertex 62.1593 42.1654 12.1
    endloop
  endfacet
  facet normal -0 0 1
    outer loop
      vertex 61.2294 40.4741 12.1
      vertex 71.7708 22.4878 12.1
      vertex 61.7476 41.2905 12.1
    endloop
  endfacet
  facet normal -0 0 1
    outer loop
      vertex 60.6131 39.729 12.1
      vertex 71.7708 22.4878 12.1
      vertex 61.2294 40.4741 12.1
    endloop
  endfacet
  facet normal -0 0 1
    outer loop
      vertex 59.9082 39.067 12.1
      vertex 71.7708 22.4878 12.1
      vertex 60.6131 39.729 12.1
    endloop
  endfacet
  facet normal -0 0 1
    outer loop
      vertex 59.1259 38.4987 12.1
      vertex 71.7708 22.4878 12.1
      vertex 59.9082 39.067 12.1
    endloop
  endfacet
  facet normal -0 0 1
    outer loop
      vertex 58.2785 38.0328 12.1
      vertex 71.7708 22.4878 12.1
      vertex 59.1259 38.4987 12.1
    endloop
  endfacet
  facet normal -0 0 1
    outer loop
      vertex 57.3794 37.6769 12.1
      vertex 71.7708 22.4878 12.1
      vertex 58.2785 38.0328 12.1
    endloop
  endfacet
  facet normal -0 0 1
    outer loop
      vertex 56.4428 37.4364 12.1
      vertex 71.7708 22.4878 12.1
      vertex 57.3794 37.6769 12.1
    endloop
  endfacet
  facet normal -0 0 1
    outer loop
      vertex 55.4835 37.3152 12.1
      vertex 71.7708 22.4878 12.1
      vertex 56.4428 37.4364 12.1
    endloop
  endfacet
  facet normal -0 0 1
    outer loop
      vertex 54.5165 37.3152 12.1
      vertex 71.7708 22.4878 12.1
      vertex 55.4835 37.3152 12.1
    endloop
  endfacet
  facet normal 0 0 1
    outer loop
      vertex 71.7708 22.4878 12.1
      vertex 54.5165 37.3152 12.1
      vertex 38.2292 25.4878 12.1
    endloop
  endfacet
  facet normal 0 0 1
    outer loop
      vertex 38.2292 25.4878 12.1
      vertex 54.5165 37.3152 12.1
      vertex 53.5572 37.4364 12.1
    endloop
  endfacet
  facet normal 0 0 1
    outer loop
      vertex 38.2292 25.4878 12.1
      vertex 53.5572 37.4364 12.1
      vertex 52.6206 37.6769 12.1
    endloop
  endfacet
  facet normal 0 0 1
    outer loop
      vertex 38.2292 25.4878 12.1
      vertex 52.6206 37.6769 12.1
      vertex 51.7215 38.0328 12.1
    endloop
  endfacet
  facet normal 0 0 1
    outer loop
      vertex 38.2292 25.4878 12.1
      vertex 51.7215 38.0328 12.1
      vertex 50.8741 38.4987 12.1
    endloop
  endfacet
  facet normal 0 0 1
    outer loop
      vertex 38.2292 25.4878 12.1
      vertex 50.8741 38.4987 12.1
      vertex 50.0918 39.067 12.1
    endloop
  endfacet
  facet normal 0 0 1
    outer loop
      vertex 38.2292 25.4878 12.1
      vertex 50.0918 39.067 12.1
      vertex 49.3869 39.729 12.1
    endloop
  endfacet
  facet normal 0 0 1
    outer loop
      vertex 26.9866 44.9606 12.1
      vertex 47.3 45 12.1
      vertex 41.855 53.55 12.1
    endloop
  endfacet
  facet normal 0 0 1
    outer loop
      vertex 47.3 45 12.1
      vertex 26.9866 44.9606 12.1
      vertex 47.3607 44.0349 12.1
    endloop
  endfacet
  facet normal 0 0 1
    outer loop
      vertex 26.9866 44.9606 12.1
      vertex 47.5419 43.0851 12.1
      vertex 47.3607 44.0349 12.1
    endloop
  endfacet
  facet normal 0 0 1
    outer loop
      vertex 26.9866 44.9606 12.1
      vertex 47.8407 42.1654 12.1
      vertex 47.5419 43.0851 12.1
    endloop
  endfacet
  facet normal 0 0 1
    outer loop
      vertex 26.9866 44.9606 12.1
      vertex 41.855 53.55 12.1
      vertex 38.2292 64.4334 12.1
    endloop
  endfacet
  facet normal 0 0 1
    outer loop
      vertex 47.8407 42.1654 12.1
      vertex 38.2292 25.4878 12.1
      vertex 48.2524 41.2905 12.1
    endloop
  endfacet
  facet normal 0 0 1
    outer loop
      vertex 38.2292 25.4878 12.1
      vertex 48.7706 40.4741 12.1
      vertex 48.2524 41.2905 12.1
    endloop
  endfacet
  facet normal 0 0 1
    outer loop
      vertex 38.2292 25.4878 12.1
      vertex 49.3869 39.729 12.1
      vertex 48.7706 40.4741 12.1
    endloop
  endfacet
  facet normal 0 0 1
    outer loop
      vertex 26.9854 6.01279 12.1
      vertex 71.7708 22.4878 12.1
      vertex 38.2292 25.4878 12.1
    endloop
  endfacet
  facet normal 0 0 1
    outer loop
      vertex 71.7708 22.4878 12.1
      vertex 26.9854 6.01279 12.1
      vertex 83.0146 3.01279 12.1
    endloop
  endfacet
  facet normal 0 0 1
    outer loop
      vertex -0.125581 -1.99605 12.1
      vertex 83.0146 3.01279 12.1
      vertex 26.9854 6.01279 12.1
    endloop
  endfacet
  facet normal 0 0 1
    outer loop
      vertex -0.125581 -1.99605 12.1
      vertex 26.9854 6.01279 12.1
      vertex 4.49756 6.01279 12.1
    endloop
  endfacet
  facet normal 0 0 1
    outer loop
      vertex 83.0146 3.01279 12.1
      vertex -0.125581 -1.99605 12.1
      vertex 108.126 -1.99605 12.1
    endloop
  endfacet
  facet normal -0 0 1
    outer loop
      vertex -2 0 12.1
      vertex -0.125581 -1.99605 12.1
      vertex 4.49756 6.01279 12.1
    endloop
  endfacet
  facet normal 0 0 1
    outer loop
      vertex -0.125581 -1.99605 12.1
      vertex -2 0 12.1
      vertex -0.374763 -1.96457 12.1
    endloop
  endfacet
  facet normal 0 0 1
    outer loop
      vertex -0.374763 -1.96457 12.1
      vertex -2 0 12.1
      vertex -0.618033 -1.90211 12.1
    endloop
  endfacet
  facet normal 0 0 1
    outer loop
      vertex -0.618033 -1.90211 12.1
      vertex -2 0 12.1
      vertex -0.851558 -1.80965 12.1
    endloop
  endfacet
  facet normal 0 0 1
    outer loop
      vertex -0.851558 -1.80965 12.1
      vertex -2 0 12.1
      vertex -1.07165 -1.68865 12.1
    endloop
  endfacet
  facet normal 0 0 1
    outer loop
      vertex -1.07165 -1.68865 12.1
      vertex -2 0 12.1
      vertex -1.27485 -1.54103 12.1
    endloop
  endfacet
  facet normal 0 0 1
    outer loop
      vertex -1.27485 -1.54103 12.1
      vertex -2 0 12.1
      vertex -1.45794 -1.36909 12.1
    endloop
  endfacet
  facet normal 0 0 1
    outer loop
      vertex -1.45794 -1.36909 12.1
      vertex -2 0 12.1
      vertex -1.61803 -1.17557 12.1
    endloop
  endfacet
  facet normal 0 0 1
    outer loop
      vertex -1.61803 -1.17557 12.1
      vertex -2 0 12.1
      vertex -1.75261 -0.963507 12.1
    endloop
  endfacet
  facet normal 0 0 1
    outer loop
      vertex -1.75261 -0.963507 12.1
      vertex -2 0 12.1
      vertex -1.85955 -0.736249 12.1
    endloop
  endfacet
  facet normal 0 0 1
    outer loop
      vertex -1.85955 -0.736249 12.1
      vertex -2 0 12.1
      vertex -1.93717 -0.497379 12.1
    endloop
  endfacet
  facet normal 0 0 1
    outer loop
      vertex -2 0 12.1
      vertex 4.49756 6.01279 12.1
      vertex -2 17.2669 12.1
    endloop
  endfacet
  facet normal 0 0 1
    outer loop
      vertex -1.93717 -0.497379 12.1
      vertex -2 0 12.1
      vertex -1.98423 -0.250666 12.1
    endloop
  endfacet
  facet normal 0 0 1
    outer loop
      vertex 68.145 53.55 12.1
      vertex 62.6393 45.9651 12.1
      vertex 62.7 45 12.1
    endloop
  endfacet
  facet normal 0 0 1
    outer loop
      vertex 68.145 53.55 12.1
      vertex 62.4581 46.9149 12.1
      vertex 62.6393 45.9651 12.1
    endloop
  endfacet
  facet normal 0 0 1
    outer loop
      vertex 68.145 53.55 12.1
      vertex 62.1593 47.8346 12.1
      vertex 62.4581 46.9149 12.1
    endloop
  endfacet
  facet normal 0 0 1
    outer loop
      vertex 68.145 53.55 12.1
      vertex 61.7476 48.7095 12.1
      vertex 62.1593 47.8346 12.1
    endloop
  endfacet
  facet normal 0 0 1
    outer loop
      vertex 68.145 53.55 12.1
      vertex 61.2294 49.5259 12.1
      vertex 61.7476 48.7095 12.1
    endloop
  endfacet
  facet normal 0 0 1
    outer loop
      vertex 68.145 53.55 12.1
      vertex 60.6131 50.271 12.1
      vertex 61.2294 49.5259 12.1
    endloop
  endfacet
  facet normal 0 0 1
    outer loop
      vertex 68.145 53.55 12.1
      vertex 59.9082 50.933 12.1
      vertex 60.6131 50.271 12.1
    endloop
  endfacet
  facet normal 0 0 1
    outer loop
      vertex 68.145 53.55 12.1
      vertex 59.1259 51.5013 12.1
      vertex 59.9082 50.933 12.1
    endloop
  endfacet
  facet normal 0 0 1
    outer loop
      vertex 68.145 53.55 12.1
      vertex 58.2785 51.9672 12.1
      vertex 59.1259 51.5013 12.1
    endloop
  endfacet
  facet normal 0 0 1
    outer loop
      vertex 68.145 53.55 12.1
      vertex 57.3794 52.3231 12.1
      vertex 58.2785 51.9672 12.1
    endloop
  endfacet
  facet normal 0 0 1
    outer loop
      vertex 68.145 53.55 12.1
      vertex 56.4428 52.5636 12.1
      vertex 57.3794 52.3231 12.1
    endloop
  endfacet
  facet normal 0 0 1
    outer loop
      vertex 68.145 53.55 12.1
      vertex 55.4835 52.6848 12.1
      vertex 56.4428 52.5636 12.1
    endloop
  endfacet
  facet normal 0 0 1
    outer loop
      vertex 68.145 53.55 12.1
      vertex 54.5165 52.6848 12.1
      vertex 55.4835 52.6848 12.1
    endloop
  endfacet
  facet normal 0 0 1
    outer loop
      vertex 47.3607 45.9651 12.1
      vertex 41.855 53.55 12.1
      vertex 47.3 45 12.1
    endloop
  endfacet
  facet normal 0 0 1
    outer loop
      vertex 47.5419 46.9149 12.1
      vertex 41.855 53.55 12.1
      vertex 47.3607 45.9651 12.1
    endloop
  endfacet
  facet normal 0 0 1
    outer loop
      vertex 47.8407 47.8346 12.1
      vertex 41.855 53.55 12.1
      vertex 47.5419 46.9149 12.1
    endloop
  endfacet
  facet normal 0 0 1
    outer loop
      vertex 48.2524 48.7095 12.1
      vertex 41.855 53.55 12.1
      vertex 47.8407 47.8346 12.1
    endloop
  endfacet
  facet normal 0 0 1
    outer loop
      vertex 48.7706 49.5259 12.1
      vertex 41.855 53.55 12.1
      vertex 48.2524 48.7095 12.1
    endloop
  endfacet
  facet normal 0 0 1
    outer loop
      vertex 49.3869 50.271 12.1
      vertex 41.855 53.55 12.1
      vertex 48.7706 49.5259 12.1
    endloop
  endfacet
  facet normal 0 0 1
    outer loop
      vertex 50.0918 50.933 12.1
      vertex 41.855 53.55 12.1
      vertex 49.3869 50.271 12.1
    endloop
  endfacet
  facet normal 0 0 1
    outer loop
      vertex 50.8741 51.5013 12.1
      vertex 41.855 53.55 12.1
      vertex 50.0918 50.933 12.1
    endloop
  endfacet
  facet normal 0 0 1
    outer loop
      vertex 51.7215 51.9672 12.1
      vertex 41.855 53.55 12.1
      vertex 50.8741 51.5013 12.1
    endloop
  endfacet
  facet normal 0 0 1
    outer loop
      vertex 52.6206 52.3231 12.1
      vertex 41.855 53.55 12.1
      vertex 51.7215 51.9672 12.1
    endloop
  endfacet
  facet normal 0 0 1
    outer loop
      vertex 53.5572 52.5636 12.1
      vertex 41.855 53.55 12.1
      vertex 52.6206 52.3231 12.1
    endloop
  endfacet
  facet normal 0 0 1
    outer loop
      vertex 54.5165 52.6848 12.1
      vertex 41.855 53.55 12.1
      vertex 53.5572 52.5636 12.1
    endloop
  endfacet
  facet normal -0 0 1
    outer loop
      vertex 41.855 53.55 12.1
      vertex 54.5165 52.6848 12.1
      vertex 68.145 53.55 12.1
    endloop
  endfacet
  facet normal 0 0 1
    outer loop
      vertex -2 56.2125 12.1
      vertex -2 33.7087 12.1
      vertex 4.49628 44.9606 12.1
    endloop
  endfacet
  facet normal 0 1 -0
    outer loop
      vertex 68.145 53.55 9.45
      vertex 41.855 53.55 12.1
      vertex 68.145 53.55 12.1
    endloop
  endfacet
  facet normal 0 1 0
    outer loop
      vertex 41.855 53.55 12.1
      vertex 68.145 53.55 9.45
      vertex 41.855 53.55 9.45
    endloop
  endfacet
  facet normal 0 0 1
    outer loop
      vertex 45.1413 87 9.45
      vertex 41.855 87 9.45
      vertex 45.1413 61.9125 9.45
    endloop
  endfacet
  facet normal 0 0 1
    outer loop
      vertex 64.8587 61.9125 9.45
      vertex 68.145 87 9.45
      vertex 64.8587 87 9.45
    endloop
  endfacet
  facet normal 0 0 1
    outer loop
      vertex 68.145 87 9.45
      vertex 64.8587 61.9125 9.45
      vertex 68.145 53.55 9.45
    endloop
  endfacet
  facet normal -0 0 1
    outer loop
      vertex 45.1413 61.9125 9.45
      vertex 68.145 53.55 9.45
      vertex 64.8587 61.9125 9.45
    endloop
  endfacet
  facet normal 0 0 1
    outer loop
      vertex 45.1413 61.9125 9.45
      vertex 41.855 53.55 9.45
      vertex 68.145 53.55 9.45
    endloop
  endfacet
  facet normal 0 0 1
    outer loop
      vertex 41.855 53.55 9.45
      vertex 45.1413 61.9125 9.45
      vertex 41.855 87 9.45
    endloop
  endfacet
  facet normal 1 -0 0
    outer loop
      vertex 41.855 53.55 12.1
      vertex 41.855 87 9.45
      vertex 41.855 87 12.1
    endloop
  endfacet
  facet normal 1 0 0
    outer loop
      vertex 41.855 87 9.45
      vertex 41.855 53.55 12.1
      vertex 41.855 53.55 9.45
    endloop
  endfacet
  facet normal -1 0 0
    outer loop
      vertex 68.145 53.55 9.45
      vertex 68.145 87 12.1
      vertex 68.145 87 9.45
    endloop
  endfacet
  facet normal -1 -0 0
    outer loop
      vertex 68.145 87 12.1
      vertex 68.145 53.55 9.45
      vertex 68.145 53.55 12.1
    endloop
  endfacet
  facet normal 0 1 -0
    outer loop
      vertex 64.8587 61.9125 0
      vertex 45.1413 61.9125 9.45
      vertex 64.8587 61.9125 9.45
    endloop
  endfacet
  facet normal 0 1 0
    outer loop
      vertex 45.1413 61.9125 9.45
      vertex 64.8587 61.9125 0
      vertex 45.1413 61.9125 0
    endloop
  endfacet
  facet normal -1 0 0
    outer loop
      vertex 64.8587 89.9961 0
      vertex 64.8587 87 9.45
      vertex 64.8587 89.9961 12.1
    endloop
  endfacet
  facet normal -1 0 0
    outer loop
      vertex 64.8587 61.9125 0
      vertex 64.8587 87 9.45
      vertex 64.8587 89.9961 0
    endloop
  endfacet
  facet normal -1 -0 0
    outer loop
      vertex 64.8587 87 9.45
      vertex 64.8587 61.9125 0
      vertex 64.8587 61.9125 9.45
    endloop
  endfacet
  facet normal -1 -0 0
    outer loop
      vertex 64.8587 89.9961 12.1
      vertex 64.8587 87 9.45
      vertex 64.8587 87 12.1
    endloop
  endfacet
  facet normal 0 0 -1
    outer loop
      vertex 108.126 -1.99605 0
      vertex 110 0 0
      vertex 109.984 -0.250666 0
    endloop
  endfacet
  facet normal 0 0 -1
    outer loop
      vertex 110 0 0
      vertex 64.8587 61.9125 0
      vertex 110 88 0
    endloop
  endfacet
  facet normal 0 0 -1
    outer loop
      vertex 108.126 -1.99605 0
      vertex 109.984 -0.250666 0
      vertex 109.937 -0.497379 0
    endloop
  endfacet
  facet normal 0 -0 -1
    outer loop
      vertex 108.126 89.9961 0
      vertex 110 88 0
      vertex 64.8587 61.9125 0
    endloop
  endfacet
  facet normal 0 0 -1
    outer loop
      vertex 108.126 -1.99605 0
      vertex 109.937 -0.497379 0
      vertex 109.86 -0.736249 0
    endloop
  endfacet
  facet normal 0 0 -1
    outer loop
      vertex 110 88 0
      vertex 108.126 89.9961 0
      vertex 109.984 88.2507 0
    endloop
  endfacet
  facet normal 0 0 -1
    outer loop
      vertex 108.126 -1.99605 0
      vertex 109.86 -0.736249 0
      vertex 109.753 -0.963507 0
    endloop
  endfacet
  facet normal 0 0 -1
    outer loop
      vertex 109.984 88.2507 0
      vertex 108.126 89.9961 0
      vertex 109.937 88.4974 0
    endloop
  endfacet
  facet normal 0 0 -1
    outer loop
      vertex 108.126 -1.99605 0
      vertex 109.753 -0.963507 0
      vertex 109.618 -1.17557 0
    endloop
  endfacet
  facet normal 0 0 -1
    outer loop
      vertex 109.937 88.4974 0
      vertex 108.126 89.9961 0
      vertex 109.86 88.7363 0
    endloop
  endfacet
  facet normal 0 0 -1
    outer loop
      vertex 108.126 -1.99605 0
      vertex 109.618 -1.17557 0
      vertex 109.458 -1.36909 0
    endloop
  endfacet
  facet normal 0 0 -1
    outer loop
      vertex 109.86 88.7363 0
      vertex 108.126 89.9961 0
      vertex 109.753 88.9635 0
    endloop
  endfacet
  facet normal 0 0 -1
    outer loop
      vertex 108.126 -1.99605 0
      vertex 109.458 -1.36909 0
      vertex 109.275 -1.54103 0
    endloop
  endfacet
  facet normal 0 0 -1
    outer loop
      vertex 109.753 88.9635 0
      vertex 108.126 89.9961 0
      vertex 109.618 89.1756 0
    endloop
  endfacet
  facet normal 0 0 -1
    outer loop
      vertex 108.126 -1.99605 0
      vertex 109.275 -1.54103 0
      vertex 109.072 -1.68865 0
    endloop
  endfacet
  facet normal 0 0 -1
    outer loop
      vertex 109.618 89.1756 0
      vertex 108.126 89.9961 0
      vertex 109.458 89.3691 0
    endloop
  endfacet
  facet normal 0 0 -1
    outer loop
      vertex 108.126 -1.99605 0
      vertex 109.072 -1.68865 0
      vertex 108.852 -1.80965 0
    endloop
  endfacet
  facet normal 0 0 -1
    outer loop
      vertex 109.458 89.3691 0
      vertex 108.126 89.9961 0
      vertex 109.275 89.541 0
    endloop
  endfacet
  facet normal 0 0 -1
    outer loop
      vertex 108.126 -1.99605 0
      vertex 108.852 -1.80965 0
      vertex 108.618 -1.90211 0
    endloop
  endfacet
  facet normal 0 0 -1
    outer loop
      vertex 109.275 89.541 0
      vertex 108.126 89.9961 0
      vertex 109.072 89.6887 0
    endloop
  endfacet
  facet normal 0 0 -1
    outer loop
      vertex 108.126 -1.99605 0
      vertex 108.618 -1.90211 0
      vertex 108.375 -1.96457 0
    endloop
  endfacet
  facet normal 0 0 -1
    outer loop
      vertex 109.072 89.6887 0
      vertex 108.126 89.9961 0
      vertex 108.852 89.8097 0
    endloop
  endfacet
  facet normal -0 0 -1
    outer loop
      vertex 110 0 0
      vertex 108.126 -1.99605 0
      vertex 64.8587 61.9125 0
    endloop
  endfacet
  facet normal 0 0 -1
    outer loop
      vertex 108.852 89.8097 0
      vertex 108.126 89.9961 0
      vertex 108.618 89.9021 0
    endloop
  endfacet
  facet normal 0 0 -1
    outer loop
      vertex 108.618 89.9021 0
      vertex 108.126 89.9961 0
      vertex 108.375 89.9646 0
    endloop
  endfacet
  facet normal 0 0 -1
    outer loop
      vertex 108.126 -1.99605 0
      vertex 45.1413 61.9125 0
      vertex 64.8587 61.9125 0
    endloop
  endfacet
  facet normal 0 0 -1
    outer loop
      vertex -0.125581 -1.99605 0
      vertex 45.1413 61.9125 0
      vertex 108.126 -1.99605 0
    endloop
  endfacet
  facet normal 0 0 -1
    outer loop
      vertex -2 0 0
      vertex 45.1413 61.9125 0
      vertex -0.125581 -1.99605 0
    endloop
  endfacet
  facet normal 0 0 -1
    outer loop
      vertex -2 88 0
      vertex 45.1413 61.9125 0
      vertex -2 0 0
    endloop
  endfacet
  facet normal 0 0 -1
    outer loop
      vertex -2 0 0
      vertex -0.125581 -1.99605 0
      vertex -0.374763 -1.96457 0
    endloop
  endfacet
  facet normal 0 -0 -1
    outer loop
      vertex -0.125581 89.9961 0
      vertex 45.1413 61.9125 0
      vertex -2 88 0
    endloop
  endfacet
  facet normal 0 0 -1
    outer loop
      vertex -2 0 0
      vertex -0.374763 -1.96457 0
      vertex -0.618033 -1.90211 0
    endloop
  endfacet
  facet normal 0 0 -1
    outer loop
      vertex 45.1413 61.9125 0
      vertex -0.125581 89.9961 0
      vertex 45.1413 89.9961 0
    endloop
  endfacet
  facet normal 0 0 -1
    outer loop
      vertex -2 0 0
      vertex -0.618033 -1.90211 0
      vertex -0.851558 -1.80965 0
    endloop
  endfacet
  facet normal 0 0 -1
    outer loop
      vertex -0.125581 89.9961 0
      vertex -2 88 0
      vertex -0.374763 89.9646 0
    endloop
  endfacet
  facet normal 0 0 -1
    outer loop
      vertex -2 0 0
      vertex -0.851558 -1.80965 0
      vertex -1.07165 -1.68865 0
    endloop
  endfacet
  facet normal 0 0 -1
    outer loop
      vertex -0.374763 89.9646 0
      vertex -2 88 0
      vertex -0.618033 89.9021 0
    endloop
  endfacet
  facet normal 0 0 -1
    outer loop
      vertex -2 0 0
      vertex -1.07165 -1.68865 0
      vertex -1.27485 -1.54103 0
    endloop
  endfacet
  facet normal 0 0 -1
    outer loop
      vertex -0.618033 89.9021 0
      vertex -2 88 0
      vertex -0.851558 89.8097 0
    endloop
  endfacet
  facet normal 0 0 -1
    outer loop
      vertex -2 0 0
      vertex -1.27485 -1.54103 0
      vertex -1.45794 -1.36909 0
    endloop
  endfacet
  facet normal 0 0 -1
    outer loop
      vertex -0.851558 89.8097 0
      vertex -2 88 0
      vertex -1.07165 89.6887 0
    endloop
  endfacet
  facet normal 0 0 -1
    outer loop
      vertex -2 0 0
      vertex -1.45794 -1.36909 0
      vertex -1.61803 -1.17557 0
    endloop
  endfacet
  facet normal 0 0 -1
    outer loop
      vertex -1.07165 89.6887 0
      vertex -2 88 0
      vertex -1.27485 89.541 0
    endloop
  endfacet
  facet normal 0 0 -1
    outer loop
      vertex -2 0 0
      vertex -1.61803 -1.17557 0
      vertex -1.75261 -0.963507 0
    endloop
  endfacet
  facet normal 0 0 -1
    outer loop
      vertex -1.27485 89.541 0
      vertex -2 88 0
      vertex -1.45794 89.3691 0
    endloop
  endfacet
  facet normal 0 0 -1
    outer loop
      vertex -2 0 0
      vertex -1.75261 -0.963507 0
      vertex -1.85955 -0.736249 0
    endloop
  endfacet
  facet normal 0 0 -1
    outer loop
      vertex -1.45794 89.3691 0
      vertex -2 88 0
      vertex -1.61803 89.1756 0
    endloop
  endfacet
  facet normal 0 0 -1
    outer loop
      vertex -2 0 0
      vertex -1.85955 -0.736249 0
      vertex -1.93717 -0.497379 0
    endloop
  endfacet
  facet normal 0 0 -1
    outer loop
      vertex -1.61803 89.1756 0
      vertex -2 88 0
      vertex -1.75261 88.9635 0
    endloop
  endfacet
  facet normal 0 0 -1
    outer loop
      vertex -2 0 0
      vertex -1.93717 -0.497379 0
      vertex -1.98423 -0.250666 0
    endloop
  endfacet
  facet normal 0 0 -1
    outer loop
      vertex -1.75261 88.9635 0
      vertex -2 88 0
      vertex -1.85955 88.7363 0
    endloop
  endfacet
  facet normal 0 0 -1
    outer loop
      vertex -1.85955 88.7363 0
      vertex -2 88 0
      vertex -1.93717 88.4974 0
    endloop
  endfacet
  facet normal 0 0 -1
    outer loop
      vertex -1.93717 88.4974 0
      vertex -2 88 0
      vertex -1.98423 88.2507 0
    endloop
  endfacet
  facet normal -0 0 -1
    outer loop
      vertex 108.126 89.9961 0
      vertex 64.8587 61.9125 0
      vertex 64.8587 89.9961 0
    endloop
  endfacet
  facet normal 1 0 0
    outer loop
      vertex 45.1413 87 9.45
      vertex 45.1413 89.9961 12.1
      vertex 45.1413 87 12.1
    endloop
  endfacet
  facet normal 1 0 0
    outer loop
      vertex 45.1413 89.9961 12.1
      vertex 45.1413 87 9.45
      vertex 45.1413 89.9961 0
    endloop
  endfacet
  facet normal 1 0 0
    outer loop
      vertex 45.1413 61.9125 0
      vertex 45.1413 87 9.45
      vertex 45.1413 61.9125 9.45
    endloop
  endfacet
  facet normal 1 0 0
    outer loop
      vertex 45.1413 87 9.45
      vertex 45.1413 61.9125 0
      vertex 45.1413 89.9961 0
    endloop
  endfacet
  facet normal 1 0 0
    outer loop
      vertex 110 10.8028 12.1
      vertex 110 0 12.1
      vertex 110 10.8028 9.45
    endloop
  endfacet
  facet normal 1 0 0
    outer loop
      vertex 110 55.8272 12.1
      vertex 110 34.1728 12.1
      vertex 110 55.8272 9.45
    endloop
  endfacet
  facet normal 1 0 0
    outer loop
      vertex 110 79.1972 9.45
      vertex 110 88 12.1
      vertex 110 79.1972 12.1
    endloop
  endfacet
  facet normal 1 0 0
    outer loop
      vertex 110 88 12.1
      vertex 110 79.1972 9.45
      vertex 110 88 0
    endloop
  endfacet
  facet normal 1 -0 0
    outer loop
      vertex 110 55.8272 9.45
      vertex 110 88 0
      vertex 110 79.1972 9.45
    endloop
  endfacet
  facet normal 1 0 0
    outer loop
      vertex 110 34.1728 9.45
      vertex 110 55.8272 9.45
      vertex 110 34.1728 12.1
    endloop
  endfacet
  facet normal 1 0 0
    outer loop
      vertex 110 55.8272 9.45
      vertex 110 34.1728 9.45
      vertex 110 88 0
    endloop
  endfacet
  facet normal 1 0 0
    outer loop
      vertex 110 0 0
      vertex 110 34.1728 9.45
      vertex 110 10.8028 9.45
    endloop
  endfacet
  facet normal 1 0 0
    outer loop
      vertex 110 34.1728 9.45
      vertex 110 0 0
      vertex 110 88 0
    endloop
  endfacet
  facet normal 1 0 0
    outer loop
      vertex 110 0 0
      vertex 110 10.8028 9.45
      vertex 110 0 12.1
    endloop
  endfacet
  facet normal -0.587785 0.809017 0
    outer loop
      vertex -1.07165 89.6887 0
      vertex -1.27485 89.541 12.1
      vertex -1.07165 89.6887 12.1
    endloop
  endfacet
  facet normal -0.587785 0.809017 0
    outer loop
      vertex -1.27485 89.541 12.1
      vertex -1.07165 89.6887 0
      vertex -1.27485 89.541 0
    endloop
  endfacet
  facet normal -1 0 0
    outer loop
      vertex -2 88 0
      vertex -2 72.6543 5.15
      vertex -2 88 12.1
    endloop
  endfacet
  facet normal -1 0 0
    outer loop
      vertex -2 88 0
      vertex -2 56.2125 5.15
      vertex -2 72.6543 5.15
    endloop
  endfacet
  facet normal -1 0 0
    outer loop
      vertex -2 33.7087 12.1
      vertex -2 56.2125 5.15
      vertex -2 33.7087 3
    endloop
  endfacet
  facet normal -1 0 0
    outer loop
      vertex -2 88 0
      vertex -2 33.7087 3
      vertex -2 56.2125 5.15
    endloop
  endfacet
  facet normal -1 0 0
    outer loop
      vertex -2 0 0
      vertex -2 33.7087 3
      vertex -2 88 0
    endloop
  endfacet
  facet normal -1 -0 0
    outer loop
      vertex -2 33.7087 3
      vertex -2 0 0
      vertex -2 17.2669 3
    endloop
  endfacet
  facet normal -1 0 0
    outer loop
      vertex -2 0 12.1
      vertex -2 17.2669 3
      vertex -2 0 0
    endloop
  endfacet
  facet normal -1 0 0
    outer loop
      vertex -2 17.2669 3
      vertex -2 0 12.1
      vertex -2 17.2669 12.1
    endloop
  endfacet
  facet normal -1 -0 0
    outer loop
      vertex -2 88 12.1
      vertex -2 72.6543 5.15
      vertex -2 72.6543 12.1
    endloop
  endfacet
  facet normal -1 0 0
    outer loop
      vertex -2 56.2125 5.15
      vertex -2 33.7087 12.1
      vertex -2 56.2125 12.1
    endloop
  endfacet
  facet normal 0.125332 -0.992115 0
    outer loop
      vertex 108.126 -1.99605 0
      vertex 108.375 -1.96457 12.1
      vertex 108.126 -1.99605 12.1
    endloop
  endfacet
  facet normal 0.125332 -0.992115 0
    outer loop
      vertex 108.375 -1.96457 12.1
      vertex 108.126 -1.99605 0
      vertex 108.375 -1.96457 0
    endloop
  endfacet
  facet normal 0 -1 0
    outer loop
      vertex -0.125581 -1.99605 0
      vertex 108.126 -1.99605 12.1
      vertex -0.125581 -1.99605 12.1
    endloop
  endfacet
  facet normal 0 -1 -0
    outer loop
      vertex 108.126 -1.99605 12.1
      vertex -0.125581 -1.99605 0
      vertex 108.126 -1.99605 0
    endloop
  endfacet
  facet normal 0.770516 -0.637421 0
    outer loop
      vertex 109.458 -1.36909 12.1
      vertex 109.618 -1.17557 0
      vertex 109.618 -1.17557 12.1
    endloop
  endfacet
  facet normal 0.770516 -0.637421 0
    outer loop
      vertex 109.618 -1.17557 0
      vertex 109.458 -1.36909 12.1
      vertex 109.458 -1.36909 0
    endloop
  endfacet
  facet normal 0.951056 -0.309018 0
    outer loop
      vertex 109.86 -0.736249 12.1
      vertex 109.937 -0.497379 0
      vertex 109.937 -0.497379 12.1
    endloop
  endfacet
  facet normal 0.951056 -0.309018 0
    outer loop
      vertex 109.937 -0.497379 0
      vertex 109.86 -0.736249 12.1
      vertex 109.86 -0.736249 0
    endloop
  endfacet
  facet normal 0 1 -0
    outer loop
      vertex 45.1413 89.9961 0
      vertex -0.125581 89.9961 12.1
      vertex 45.1413 89.9961 12.1
    endloop
  endfacet
  facet normal 0 1 0
    outer loop
      vertex -0.125581 89.9961 12.1
      vertex 45.1413 89.9961 0
      vertex -0.125581 89.9961 0
    endloop
  endfacet
  facet normal 0 1 -0
    outer loop
      vertex 108.126 89.9961 0
      vertex 64.8587 89.9961 12.1
      vertex 108.126 89.9961 12.1
    endloop
  endfacet
  facet normal 0 1 0
    outer loop
      vertex 64.8587 89.9961 12.1
      vertex 108.126 89.9961 0
      vertex 64.8587 89.9961 0
    endloop
  endfacet
  facet normal -0.248692 0.968583 0
    outer loop
      vertex -0.374763 89.9646 0
      vertex -0.618033 89.9021 12.1
      vertex -0.374763 89.9646 12.1
    endloop
  endfacet
  facet normal -0.248692 0.968583 0
    outer loop
      vertex -0.618033 89.9021 12.1
      vertex -0.374763 89.9646 0
      vertex -0.618033 89.9021 0
    endloop
  endfacet
  facet normal 0.481745 -0.876311 0
    outer loop
      vertex 108.852 -1.80965 0
      vertex 109.072 -1.68865 12.1
      vertex 108.852 -1.80965 12.1
    endloop
  endfacet
  facet normal 0.481745 -0.876311 0
    outer loop
      vertex 109.072 -1.68865 12.1
      vertex 108.852 -1.80965 0
      vertex 109.072 -1.68865 0
    endloop
  endfacet
  facet normal -0.368128 -0.929775 0
    outer loop
      vertex -0.851558 -1.80965 0
      vertex -0.618033 -1.90211 12.1
      vertex -0.851558 -1.80965 12.1
    endloop
  endfacet
  facet normal -0.368128 -0.929775 -0
    outer loop
      vertex -0.618033 -1.90211 12.1
      vertex -0.851558 -1.80965 0
      vertex -0.618033 -1.90211 0
    endloop
  endfacet
  facet normal -0.844323 0.535835 0
    outer loop
      vertex -1.75261 88.9635 0
      vertex -1.61803 89.1756 12.1
      vertex -1.61803 89.1756 0
    endloop
  endfacet
  facet normal -0.844323 0.535835 0
    outer loop
      vertex -1.61803 89.1756 12.1
      vertex -1.75261 88.9635 0
      vertex -1.75261 88.9635 12.1
    endloop
  endfacet
  facet normal 0.998027 0.0627887 0
    outer loop
      vertex 110 88 12.1
      vertex 109.984 88.2507 0
      vertex 109.984 88.2507 12.1
    endloop
  endfacet
  facet normal 0.998027 0.0627887 0
    outer loop
      vertex 109.984 88.2507 0
      vertex 110 88 12.1
      vertex 110 88 0
    endloop
  endfacet
  facet normal 0.844331 0.535822 0
    outer loop
      vertex 109.753 88.9635 12.1
      vertex 109.618 89.1756 0
      vertex 109.618 89.1756 12.1
    endloop
  endfacet
  facet normal 0.844331 0.535822 0
    outer loop
      vertex 109.618 89.1756 0
      vertex 109.753 88.9635 12.1
      vertex 109.753 88.9635 0
    endloop
  endfacet
  facet normal -0.368131 0.929774 0
    outer loop
      vertex -0.618033 89.9021 0
      vertex -0.851558 89.8097 12.1
      vertex -0.618033 89.9021 12.1
    endloop
  endfacet
  facet normal -0.368131 0.929774 0
    outer loop
      vertex -0.851558 89.8097 12.1
      vertex -0.618033 89.9021 0
      vertex -0.851558 89.8097 0
    endloop
  endfacet
  facet normal -0.125333 0.992115 0
    outer loop
      vertex -0.125581 89.9961 0
      vertex -0.374763 89.9646 12.1
      vertex -0.125581 89.9961 12.1
    endloop
  endfacet
  facet normal -0.125333 0.992115 0
    outer loop
      vertex -0.374763 89.9646 12.1
      vertex -0.125581 89.9961 0
      vertex -0.374763 89.9646 0
    endloop
  endfacet
  facet normal 0.904824 -0.425785 0
    outer loop
      vertex 109.753 -0.963507 12.1
      vertex 109.86 -0.736249 0
      vertex 109.86 -0.736249 12.1
    endloop
  endfacet
  facet normal 0.904824 -0.425785 0
    outer loop
      vertex 109.86 -0.736249 0
      vertex 109.753 -0.963507 12.1
      vertex 109.753 -0.963507 0
    endloop
  endfacet
  facet normal 0.368133 -0.929773 0
    outer loop
      vertex 108.618 -1.90211 0
      vertex 108.852 -1.80965 12.1
      vertex 108.618 -1.90211 12.1
    endloop
  endfacet
  facet normal 0.368133 -0.929773 0
    outer loop
      vertex 108.852 -1.80965 12.1
      vertex 108.618 -1.90211 0
      vertex 108.852 -1.80965 0
    endloop
  endfacet
  facet normal 0.587785 -0.809017 0
    outer loop
      vertex 109.072 -1.68865 0
      vertex 109.275 -1.54103 12.1
      vertex 109.072 -1.68865 12.1
    endloop
  endfacet
  facet normal 0.587785 -0.809017 0
    outer loop
      vertex 109.275 -1.54103 12.1
      vertex 109.072 -1.68865 0
      vertex 109.275 -1.54103 0
    endloop
  endfacet
  facet normal -0.904827 -0.425779 0
    outer loop
      vertex -1.75261 -0.963507 0
      vertex -1.85955 -0.736249 12.1
      vertex -1.85955 -0.736249 0
    endloop
  endfacet
  facet normal -0.904827 -0.425779 0
    outer loop
      vertex -1.85955 -0.736249 12.1
      vertex -1.75261 -0.963507 0
      vertex -1.75261 -0.963507 12.1
    endloop
  endfacet
  facet normal -0.982287 0.187382 0
    outer loop
      vertex -1.98423 88.2507 0
      vertex -1.93717 88.4974 12.1
      vertex -1.93717 88.4974 0
    endloop
  endfacet
  facet normal -0.982287 0.187382 0
    outer loop
      vertex -1.93717 88.4974 12.1
      vertex -1.98423 88.2507 0
      vertex -1.98423 88.2507 12.1
    endloop
  endfacet
  facet normal -0.951059 0.309011 0
    outer loop
      vertex -1.93717 88.4974 0
      vertex -1.85955 88.7363 12.1
      vertex -1.85955 88.7363 0
    endloop
  endfacet
  facet normal -0.951059 0.309011 0
    outer loop
      vertex -1.85955 88.7363 12.1
      vertex -1.93717 88.4974 0
      vertex -1.93717 88.4974 12.1
    endloop
  endfacet
  facet normal -0.77052 0.637416 0
    outer loop
      vertex -1.61803 89.1756 0
      vertex -1.45794 89.3691 12.1
      vertex -1.45794 89.3691 0
    endloop
  endfacet
  facet normal -0.77052 0.637416 0
    outer loop
      vertex -1.45794 89.3691 12.1
      vertex -1.61803 89.1756 0
      vertex -1.61803 89.1756 12.1
    endloop
  endfacet
  facet normal 0.951059 0.309011 0
    outer loop
      vertex 109.937 88.4974 12.1
      vertex 109.86 88.7363 0
      vertex 109.86 88.7363 12.1
    endloop
  endfacet
  facet normal 0.951059 0.309011 0
    outer loop
      vertex 109.86 88.7363 0
      vertex 109.937 88.4974 12.1
      vertex 109.937 88.4974 0
    endloop
  endfacet
  facet normal 0.904824 0.425787 0
    outer loop
      vertex 109.86 88.7363 12.1
      vertex 109.753 88.9635 0
      vertex 109.753 88.9635 12.1
    endloop
  endfacet
  facet normal 0.904824 0.425787 0
    outer loop
      vertex 109.753 88.9635 0
      vertex 109.86 88.7363 12.1
      vertex 109.86 88.7363 0
    endloop
  endfacet
  facet normal 0.982285 0.187393 0
    outer loop
      vertex 109.984 88.2507 12.1
      vertex 109.937 88.4974 0
      vertex 109.937 88.4974 12.1
    endloop
  endfacet
  facet normal 0.982285 0.187393 0
    outer loop
      vertex 109.937 88.4974 0
      vertex 109.984 88.2507 12.1
      vertex 109.984 88.2507 0
    endloop
  endfacet
  facet normal 0.684537 0.728978 -0
    outer loop
      vertex 109.458 89.3691 0
      vertex 109.275 89.541 12.1
      vertex 109.458 89.3691 12.1
    endloop
  endfacet
  facet normal 0.684537 0.728978 0
    outer loop
      vertex 109.275 89.541 12.1
      vertex 109.458 89.3691 0
      vertex 109.275 89.541 0
    endloop
  endfacet
  facet normal 0.770522 0.637414 0
    outer loop
      vertex 109.618 89.1756 12.1
      vertex 109.458 89.3691 0
      vertex 109.458 89.3691 12.1
    endloop
  endfacet
  facet normal 0.770522 0.637414 0
    outer loop
      vertex 109.458 89.3691 0
      vertex 109.618 89.1756 12.1
      vertex 109.618 89.1756 0
    endloop
  endfacet
  facet normal 0.587785 0.809017 -0
    outer loop
      vertex 109.275 89.541 0
      vertex 109.072 89.6887 12.1
      vertex 109.275 89.541 12.1
    endloop
  endfacet
  facet normal 0.587785 0.809017 0
    outer loop
      vertex 109.072 89.6887 12.1
      vertex 109.275 89.541 0
      vertex 109.072 89.6887 0
    endloop
  endfacet
  facet normal -0.481765 0.876301 0
    outer loop
      vertex -0.851558 89.8097 0
      vertex -1.07165 89.6887 12.1
      vertex -0.851558 89.8097 12.1
    endloop
  endfacet
  facet normal -0.481765 0.876301 0
    outer loop
      vertex -1.07165 89.6887 12.1
      vertex -0.851558 89.8097 0
      vertex -1.07165 89.6887 0
    endloop
  endfacet
  facet normal 0.998027 -0.0627882 0
    outer loop
      vertex 109.984 -0.250666 12.1
      vertex 110 0 0
      vertex 110 0 12.1
    endloop
  endfacet
  facet normal 0.998027 -0.0627882 0
    outer loop
      vertex 110 0 0
      vertex 109.984 -0.250666 12.1
      vertex 109.984 -0.250666 0
    endloop
  endfacet
  facet normal 0.982285 -0.187391 0
    outer loop
      vertex 109.937 -0.497379 12.1
      vertex 109.984 -0.250666 0
      vertex 109.984 -0.250666 12.1
    endloop
  endfacet
  facet normal 0.982285 -0.187391 0
    outer loop
      vertex 109.984 -0.250666 0
      vertex 109.937 -0.497379 12.1
      vertex 109.937 -0.497379 0
    endloop
  endfacet
  facet normal 0.844337 -0.535813 0
    outer loop
      vertex 109.618 -1.17557 12.1
      vertex 109.753 -0.963507 0
      vertex 109.753 -0.963507 12.1
    endloop
  endfacet
  facet normal 0.844337 -0.535813 0
    outer loop
      vertex 109.753 -0.963507 0
      vertex 109.618 -1.17557 12.1
      vertex 109.618 -1.17557 0
    endloop
  endfacet
  facet normal 0.248688 -0.968584 0
    outer loop
      vertex 108.375 -1.96457 0
      vertex 108.618 -1.90211 12.1
      vertex 108.375 -1.96457 12.1
    endloop
  endfacet
  facet normal 0.248688 -0.968584 0
    outer loop
      vertex 108.618 -1.90211 12.1
      vertex 108.375 -1.96457 0
      vertex 108.618 -1.90211 0
    endloop
  endfacet
  facet normal 0.684545 -0.72897 0
    outer loop
      vertex 109.275 -1.54103 0
      vertex 109.458 -1.36909 12.1
      vertex 109.275 -1.54103 12.1
    endloop
  endfacet
  facet normal 0.684545 -0.72897 0
    outer loop
      vertex 109.458 -1.36909 12.1
      vertex 109.275 -1.54103 0
      vertex 109.458 -1.36909 0
    endloop
  endfacet
  facet normal -0.998027 -0.062792 0
    outer loop
      vertex -1.98423 -0.250666 0
      vertex -2 0 12.1
      vertex -2 0 0
    endloop
  endfacet
  facet normal -0.998027 -0.062792 0
    outer loop
      vertex -2 0 12.1
      vertex -1.98423 -0.250666 0
      vertex -1.98423 -0.250666 12.1
    endloop
  endfacet
  facet normal -0.951056 -0.309018 0
    outer loop
      vertex -1.85955 -0.736249 0
      vertex -1.93717 -0.497379 12.1
      vertex -1.93717 -0.497379 0
    endloop
  endfacet
  facet normal -0.951056 -0.309018 0
    outer loop
      vertex -1.93717 -0.497379 12.1
      vertex -1.85955 -0.736249 0
      vertex -1.85955 -0.736249 12.1
    endloop
  endfacet
  facet normal -0.844328 -0.535826 0
    outer loop
      vertex -1.61803 -1.17557 0
      vertex -1.75261 -0.963507 12.1
      vertex -1.75261 -0.963507 0
    endloop
  endfacet
  facet normal -0.844328 -0.535826 0
    outer loop
      vertex -1.75261 -0.963507 12.1
      vertex -1.61803 -1.17557 0
      vertex -1.61803 -1.17557 12.1
    endloop
  endfacet
  facet normal -0.684545 -0.72897 0
    outer loop
      vertex -1.45794 -1.36909 0
      vertex -1.27485 -1.54103 12.1
      vertex -1.45794 -1.36909 12.1
    endloop
  endfacet
  facet normal -0.684545 -0.72897 -0
    outer loop
      vertex -1.27485 -1.54103 12.1
      vertex -1.45794 -1.36909 0
      vertex -1.27485 -1.54103 0
    endloop
  endfacet
  facet normal -0.481753 -0.876307 0
    outer loop
      vertex -1.07165 -1.68865 0
      vertex -0.851558 -1.80965 12.1
      vertex -1.07165 -1.68865 12.1
    endloop
  endfacet
  facet normal -0.481753 -0.876307 -0
    outer loop
      vertex -0.851558 -1.80965 12.1
      vertex -1.07165 -1.68865 0
      vertex -0.851558 -1.80965 0
    endloop
  endfacet
  facet normal -0.248688 -0.968584 0
    outer loop
      vertex -0.618033 -1.90211 0
      vertex -0.374763 -1.96457 12.1
      vertex -0.618033 -1.90211 12.1
    endloop
  endfacet
  facet normal -0.248688 -0.968584 -0
    outer loop
      vertex -0.374763 -1.96457 12.1
      vertex -0.618033 -1.90211 0
      vertex -0.374763 -1.96457 0
    endloop
  endfacet
  facet normal -0.998027 0.0627924 0
    outer loop
      vertex -2 88 0
      vertex -1.98423 88.2507 12.1
      vertex -1.98423 88.2507 0
    endloop
  endfacet
  facet normal -0.998027 0.0627924 0
    outer loop
      vertex -1.98423 88.2507 12.1
      vertex -2 88 0
      vertex -2 88 12.1
    endloop
  endfacet
  facet normal -0.904826 0.425781 0
    outer loop
      vertex -1.85955 88.7363 0
      vertex -1.75261 88.9635 12.1
      vertex -1.75261 88.9635 0
    endloop
  endfacet
  facet normal -0.904826 0.425781 0
    outer loop
      vertex -1.75261 88.9635 12.1
      vertex -1.85955 88.7363 0
      vertex -1.85955 88.7363 12.1
    endloop
  endfacet
  facet normal -0.684537 0.728978 0
    outer loop
      vertex -1.27485 89.541 0
      vertex -1.45794 89.3691 12.1
      vertex -1.27485 89.541 12.1
    endloop
  endfacet
  facet normal -0.684537 0.728978 0
    outer loop
      vertex -1.45794 89.3691 12.1
      vertex -1.27485 89.541 0
      vertex -1.45794 89.3691 0
    endloop
  endfacet
  facet normal 0.125332 0.992115 -0
    outer loop
      vertex 108.375 89.9646 0
      vertex 108.126 89.9961 12.1
      vertex 108.375 89.9646 12.1
    endloop
  endfacet
  facet normal 0.125332 0.992115 0
    outer loop
      vertex 108.126 89.9961 12.1
      vertex 108.375 89.9646 0
      vertex 108.126 89.9961 0
    endloop
  endfacet
  facet normal 0.248692 0.968583 -0
    outer loop
      vertex 108.618 89.9021 0
      vertex 108.375 89.9646 12.1
      vertex 108.618 89.9021 12.1
    endloop
  endfacet
  facet normal 0.248692 0.968583 0
    outer loop
      vertex 108.375 89.9646 12.1
      vertex 108.618 89.9021 0
      vertex 108.375 89.9646 0
    endloop
  endfacet
  facet normal -0.982287 -0.18738 0
    outer loop
      vertex -1.93717 -0.497379 0
      vertex -1.98423 -0.250666 12.1
      vertex -1.98423 -0.250666 0
    endloop
  endfacet
  facet normal -0.982287 -0.18738 0
    outer loop
      vertex -1.98423 -0.250666 12.1
      vertex -1.93717 -0.497379 0
      vertex -1.93717 -0.497379 12.1
    endloop
  endfacet
  facet normal -0.770514 -0.637423 0
    outer loop
      vertex -1.45794 -1.36909 0
      vertex -1.61803 -1.17557 12.1
      vertex -1.61803 -1.17557 0
    endloop
  endfacet
  facet normal -0.770514 -0.637423 0
    outer loop
      vertex -1.61803 -1.17557 12.1
      vertex -1.45794 -1.36909 0
      vertex -1.45794 -1.36909 12.1
    endloop
  endfacet
  facet normal -0.587785 -0.809017 0
    outer loop
      vertex -1.27485 -1.54103 0
      vertex -1.07165 -1.68865 12.1
      vertex -1.27485 -1.54103 12.1
    endloop
  endfacet
  facet normal -0.587785 -0.809017 -0
    outer loop
      vertex -1.07165 -1.68865 12.1
      vertex -1.27485 -1.54103 0
      vertex -1.07165 -1.68865 0
    endloop
  endfacet
  facet normal -0.125333 -0.992115 0
    outer loop
      vertex -0.374763 -1.96457 0
      vertex -0.125581 -1.99605 12.1
      vertex -0.374763 -1.96457 12.1
    endloop
  endfacet
  facet normal -0.125333 -0.992115 -0
    outer loop
      vertex -0.125581 -1.99605 12.1
      vertex -0.374763 -1.96457 0
      vertex -0.125581 -1.99605 0
    endloop
  endfacet
  facet normal 0.368136 0.929772 -0
    outer loop
      vertex 108.852 89.8097 0
      vertex 108.618 89.9021 12.1
      vertex 108.852 89.8097 12.1
    endloop
  endfacet
  facet normal 0.368136 0.929772 0
    outer loop
      vertex 108.618 89.9021 12.1
      vertex 108.852 89.8097 0
      vertex 108.618 89.9021 0
    endloop
  endfacet
  facet normal 0.481757 0.876305 -0
    outer loop
      vertex 109.072 89.6887 0
      vertex 108.852 89.8097 12.1
      vertex 109.072 89.6887 12.1
    endloop
  endfacet
  facet normal 0.481757 0.876305 0
    outer loop
      vertex 108.852 89.8097 12.1
      vertex 109.072 89.6887 0
      vertex 108.852 89.8097 0
    endloop
  endfacet
  facet normal -0 0 1
    outer loop
      vertex -2 33.7087 3
      vertex 38.2292 25.4878 3
      vertex 26.9854 44.9628 3
    endloop
  endfacet
  facet normal 0 0 1
    outer loop
      vertex -2 33.7087 3
      vertex 26.9854 44.9628 3
      vertex 4.49756 44.9628 3
    endloop
  endfacet
  facet normal 0 0 1
    outer loop
      vertex -2 17.2669 3
      vertex 38.2292 25.4878 3
      vertex -2 33.7087 3
    endloop
  endfacet
  facet normal 0 0 1
    outer loop
      vertex 38.2292 25.4878 3
      vertex -2 17.2669 3
      vertex 26.9854 6.01279 3
    endloop
  endfacet
  facet normal 0 0 1
    outer loop
      vertex 26.9854 6.01279 3
      vertex -2 17.2669 3
      vertex 4.49756 6.01279 3
    endloop
  endfacet
  facet normal -0.865836 -0.500328 0
    outer loop
      vertex 26.9854 44.9628 3
      vertex 26.9866 44.9606 5.15
      vertex 26.9854 44.9628 5.15
    endloop
  endfacet
  facet normal -0.866025 -0.5 4.47939e-007
    outer loop
      vertex 38.2292 25.4878 3
      vertex 26.9866 44.9606 5.15
      vertex 26.9854 44.9628 3
    endloop
  endfacet
  facet normal -0.866025 -0.5 -0
    outer loop
      vertex 38.2292 25.4878 12.1
      vertex 26.9866 44.9606 5.15
      vertex 38.2292 25.4878 3
    endloop
  endfacet
  facet normal -0.866025 -0.5 0
    outer loop
      vertex 26.9866 44.9606 5.15
      vertex 38.2292 25.4878 12.1
      vertex 26.9866 44.9606 12.1
    endloop
  endfacet
  facet normal 0 1 -0
    outer loop
      vertex 26.9854 6.01279 3
      vertex 4.49756 6.01279 12.1
      vertex 26.9854 6.01279 12.1
    endloop
  endfacet
  facet normal 0 1 0
    outer loop
      vertex 4.49756 6.01279 12.1
      vertex 26.9854 6.01279 3
      vertex 4.49756 6.01279 3
    endloop
  endfacet
  facet normal 0.866025 -0.5 0
    outer loop
      vertex 4.49628 44.9606 12.1
      vertex -2 33.7087 12.1
      vertex 4.49628 44.9606 5.15
    endloop
  endfacet
  facet normal 0.865836 -0.500328 0
    outer loop
      vertex 4.49628 44.9606 5.15
      vertex 4.49756 44.9628 3
      vertex 4.49756 44.9628 5.15
    endloop
  endfacet
  facet normal 0.866025 -0.5 0
    outer loop
      vertex -2 33.7087 3
      vertex 4.49628 44.9606 5.15
      vertex -2 33.7087 12.1
    endloop
  endfacet
  facet normal 0.866025 -0.5 4.47941e-007
    outer loop
      vertex 4.49628 44.9606 5.15
      vertex -2 33.7087 3
      vertex 4.49756 44.9628 3
    endloop
  endfacet
  facet normal 0 -1 0
    outer loop
      vertex 4.49756 44.9628 3
      vertex 26.9854 44.9628 5.15
      vertex 4.49756 44.9628 5.15
    endloop
  endfacet
  facet normal 0 -1 -0
    outer loop
      vertex 26.9854 44.9628 5.15
      vertex 4.49756 44.9628 3
      vertex 26.9854 44.9628 3
    endloop
  endfacet
  facet normal 0.866025 0.5 0
    outer loop
      vertex 4.49756 6.01279 12.1
      vertex -2 17.2669 3
      vertex -2 17.2669 12.1
    endloop
  endfacet
  facet normal 0.866025 0.5 0
    outer loop
      vertex -2 17.2669 3
      vertex 4.49756 6.01279 12.1
      vertex 4.49756 6.01279 3
    endloop
  endfacet
  facet normal -0.866025 0.5 0
    outer loop
      vertex 26.9854 6.01279 3
      vertex 38.2292 25.4878 12.1
      vertex 38.2292 25.4878 3
    endloop
  endfacet
  facet normal -0.866025 0.5 0
    outer loop
      vertex 38.2292 25.4878 12.1
      vertex 26.9854 6.01279 3
      vertex 26.9854 6.01279 12.1
    endloop
  endfacet
  facet normal -0.866025 -0.5 0
    outer loop
      vertex 38.2292 64.4334 5.15
      vertex 26.9854 83.9084 12.1
      vertex 26.9854 83.9084 5.15
    endloop
  endfacet
  facet normal -0.866025 -0.5 0
    outer loop
      vertex 26.9854 83.9084 12.1
      vertex 38.2292 64.4334 5.15
      vertex 38.2292 64.4334 12.1
    endloop
  endfacet
  facet normal 0.866025 -0.5 0
    outer loop
      vertex -2 72.6543 12.1
      vertex 4.49756 83.9084 5.15
      vertex 4.49756 83.9084 12.1
    endloop
  endfacet
  facet normal 0.866025 -0.5 0
    outer loop
      vertex 4.49756 83.9084 5.15
      vertex -2 72.6543 12.1
      vertex -2 72.6543 5.15
    endloop
  endfacet
  facet normal 0 -1 0
    outer loop
      vertex 4.49756 83.9084 5.15
      vertex 26.9854 83.9084 12.1
      vertex 4.49756 83.9084 12.1
    endloop
  endfacet
  facet normal 0 -1 -0
    outer loop
      vertex 26.9854 83.9084 12.1
      vertex 4.49756 83.9084 5.15
      vertex 26.9854 83.9084 5.15
    endloop
  endfacet
  facet normal 0.866025 0.5 0
    outer loop
      vertex 4.49628 44.9606 12.1
      vertex -2 56.2125 5.15
      vertex -2 56.2125 12.1
    endloop
  endfacet
  facet normal 0.866025 0.5 0
    outer loop
      vertex -2 56.2125 5.15
      vertex 4.49628 44.9606 12.1
      vertex 4.49628 44.9606 5.15
    endloop
  endfacet
  facet normal -0.866025 0.5 0
    outer loop
      vertex 26.9866 44.9606 5.15
      vertex 38.2292 64.4334 12.1
      vertex 38.2292 64.4334 5.15
    endloop
  endfacet
  facet normal -0.866025 0.5 0
    outer loop
      vertex 38.2292 64.4334 12.1
      vertex 26.9866 44.9606 5.15
      vertex 26.9866 44.9606 12.1
    endloop
  endfacet
  facet normal -0 0 1
    outer loop
      vertex -2 72.6543 5.15
      vertex 38.2292 64.4334 5.15
      vertex 26.9854 83.9084 5.15
    endloop
  endfacet
  facet normal 0 0 1
    outer loop
      vertex 38.2292 64.4334 5.15
      vertex 26.9854 44.9628 5.15
      vertex 26.9866 44.9606 5.15
    endloop
  endfacet
  facet normal 0 0 1
    outer loop
      vertex -2 72.6543 5.15
      vertex 26.9854 83.9084 5.15
      vertex 4.49756 83.9084 5.15
    endloop
  endfacet
  facet normal 0 0 1
    outer loop
      vertex -2 56.2125 5.15
      vertex 38.2292 64.4334 5.15
      vertex -2 72.6543 5.15
    endloop
  endfacet
  facet normal 0 0 1
    outer loop
      vertex 38.2292 64.4334 5.15
      vertex -2 56.2125 5.15
      vertex 26.9854 44.9628 5.15
    endloop
  endfacet
  facet normal 0 0 1
    outer loop
      vertex 26.9854 44.9628 5.15
      vertex -2 56.2125 5.15
      vertex 4.49756 44.9628 5.15
    endloop
  endfacet
  facet normal 0 0 1
    outer loop
      vertex 4.49756 44.9628 5.15
      vertex -2 56.2125 5.15
      vertex 4.49628 44.9606 5.15
    endloop
  endfacet
  facet normal 0.866025 0.5 0
    outer loop
      vertex 83.0146 3.01279 12.1
      vertex 71.7708 22.4878 9.45
      vertex 71.7708 22.4878 12.1
    endloop
  endfacet
  facet normal 0.866025 0.5 0
    outer loop
      vertex 71.7708 22.4878 9.45
      vertex 83.0146 3.01279 12.1
      vertex 83.0146 3.01279 9.45
    endloop
  endfacet
  facet normal 0 1 -0
    outer loop
      vertex 105.502 3.01279 9.45
      vertex 83.0146 3.01279 12.1
      vertex 105.502 3.01279 12.1
    endloop
  endfacet
  facet normal 0 1 0
    outer loop
      vertex 83.0146 3.01279 12.1
      vertex 105.502 3.01279 9.45
      vertex 83.0146 3.01279 9.45
    endloop
  endfacet
  facet normal -0.866025 0.5 0
    outer loop
      vertex 105.502 3.01279 9.45
      vertex 110 10.8028 12.1
      vertex 110 10.8028 9.45
    endloop
  endfacet
  facet normal -0.866025 0.5 0
    outer loop
      vertex 110 10.8028 12.1
      vertex 105.502 3.01279 9.45
      vertex 105.502 3.01279 12.1
    endloop
  endfacet
  facet normal 0.866025 -0.5 0
    outer loop
      vertex 71.7708 22.4878 12.1
      vertex 83.0146 41.9628 9.45
      vertex 83.0146 41.9628 12.1
    endloop
  endfacet
  facet normal 0.866025 -0.5 0
    outer loop
      vertex 83.0146 41.9628 9.45
      vertex 71.7708 22.4878 12.1
      vertex 71.7708 22.4878 9.45
    endloop
  endfacet
  facet normal -0 0 1
    outer loop
      vertex 83.0146 41.9628 9.45
      vertex 110 34.1728 9.45
      vertex 105.502 41.9628 9.45
    endloop
  endfacet
  facet normal 0 0 1
    outer loop
      vertex 71.7708 22.4878 9.45
      vertex 110 34.1728 9.45
      vertex 83.0146 41.9628 9.45
    endloop
  endfacet
  facet normal 0 0 1
    outer loop
      vertex 110 34.1728 9.45
      vertex 71.7708 22.4878 9.45
      vertex 110 10.8028 9.45
    endloop
  endfacet
  facet normal 0 0 1
    outer loop
      vertex 110 10.8028 9.45
      vertex 83.0146 3.01279 9.45
      vertex 105.502 3.01279 9.45
    endloop
  endfacet
  facet normal 0 0 1
    outer loop
      vertex 110 10.8028 9.45
      vertex 71.7708 22.4878 9.45
      vertex 83.0146 3.01279 9.45
    endloop
  endfacet
  facet normal 0 -1 0
    outer loop
      vertex 83.0146 41.9628 9.45
      vertex 105.502 41.9628 12.1
      vertex 83.0146 41.9628 12.1
    endloop
  endfacet
  facet normal 0 -1 -0
    outer loop
      vertex 105.502 41.9628 12.1
      vertex 83.0146 41.9628 9.45
      vertex 105.502 41.9628 9.45
    endloop
  endfacet
  facet normal -0.866025 -0.5 0
    outer loop
      vertex 110 34.1728 9.45
      vertex 105.502 41.9628 12.1
      vertex 105.502 41.9628 9.45
    endloop
  endfacet
  facet normal -0.866025 -0.5 0
    outer loop
      vertex 105.502 41.9628 12.1
      vertex 110 34.1728 9.45
      vertex 110 34.1728 12.1
    endloop
  endfacet
  facet normal 0.866025 0.5 0
    outer loop
      vertex 83.0146 48.0372 12.1
      vertex 71.7708 67.5122 9.45
      vertex 71.7708 67.5122 12.1
    endloop
  endfacet
  facet normal 0.866025 0.5 0
    outer loop
      vertex 71.7708 67.5122 9.45
      vertex 83.0146 48.0372 12.1
      vertex 83.0146 48.0372 9.45
    endloop
  endfacet
  facet normal 0 1 -0
    outer loop
      vertex 105.502 48.0372 9.45
      vertex 83.0146 48.0372 12.1
      vertex 105.502 48.0372 12.1
    endloop
  endfacet
  facet normal 0 1 0
    outer loop
      vertex 83.0146 48.0372 12.1
      vertex 105.502 48.0372 9.45
      vertex 83.0146 48.0372 9.45
    endloop
  endfacet
  facet normal -0.866025 0.5 0
    outer loop
      vertex 105.502 48.0372 9.45
      vertex 110 55.8272 12.1
      vertex 110 55.8272 9.45
    endloop
  endfacet
  facet normal -0.866025 0.5 0
    outer loop
      vertex 110 55.8272 12.1
      vertex 105.502 48.0372 9.45
      vertex 105.502 48.0372 12.1
    endloop
  endfacet
  facet normal 0.866025 -0.5 0
    outer loop
      vertex 71.7708 67.5122 12.1
      vertex 83.0146 86.9872 9.45
      vertex 83.0146 86.9872 12.1
    endloop
  endfacet
  facet normal 0.866025 -0.5 0
    outer loop
      vertex 83.0146 86.9872 9.45
      vertex 71.7708 67.5122 12.1
      vertex 71.7708 67.5122 9.45
    endloop
  endfacet
  facet normal -0 0 1
    outer loop
      vertex 83.0146 86.9872 9.45
      vertex 110 79.1972 9.45
      vertex 105.502 86.9872 9.45
    endloop
  endfacet
  facet normal 0 0 1
    outer loop
      vertex 71.7708 67.5122 9.45
      vertex 110 79.1972 9.45
      vertex 83.0146 86.9872 9.45
    endloop
  endfacet
  facet normal 0 0 1
    outer loop
      vertex 110 79.1972 9.45
      vertex 71.7708 67.5122 9.45
      vertex 110 55.8272 9.45
    endloop
  endfacet
  facet normal 0 0 1
    outer loop
      vertex 110 55.8272 9.45
      vertex 83.0146 48.0372 9.45
      vertex 105.502 48.0372 9.45
    endloop
  endfacet
  facet normal 0 0 1
    outer loop
      vertex 110 55.8272 9.45
      vertex 71.7708 67.5122 9.45
      vertex 83.0146 48.0372 9.45
    endloop
  endfacet
  facet normal 0 -1 0
    outer loop
      vertex 83.0146 86.9872 9.45
      vertex 105.502 86.9872 12.1
      vertex 83.0146 86.9872 12.1
    endloop
  endfacet
  facet normal 0 -1 -0
    outer loop
      vertex 105.502 86.9872 12.1
      vertex 83.0146 86.9872 9.45
      vertex 105.502 86.9872 9.45
    endloop
  endfacet
  facet normal -0.866025 -0.5 0
    outer loop
      vertex 110 79.1972 9.45
      vertex 105.502 86.9872 12.1
      vertex 105.502 86.9872 9.45
    endloop
  endfacet
  facet normal -0.866025 -0.5 0
    outer loop
      vertex 105.502 86.9872 12.1
      vertex 110 79.1972 9.45
      vertex 110 79.1972 12.1
    endloop
  endfacet
  facet normal -0.904826 -0.425781 0
    outer loop
      vertex 62.1593 47.8346 8.1
      vertex 61.7476 48.7095 12.1
      vertex 61.7476 48.7095 8.1
    endloop
  endfacet
  facet normal -0.904826 -0.425781 0
    outer loop
      vertex 61.7476 48.7095 12.1
      vertex 62.1593 47.8346 8.1
      vertex 62.1593 47.8346 12.1
    endloop
  endfacet
  facet normal 0.982288 -0.187379 0
    outer loop
      vertex 47.3607 45.9651 12.1
      vertex 47.5419 46.9149 8.1
      vertex 47.5419 46.9149 12.1
    endloop
  endfacet
  facet normal 0.982288 -0.187379 0
    outer loop
      vertex 47.5419 46.9149 8.1
      vertex 47.3607 45.9651 12.1
      vertex 47.3607 45.9651 8.1
    endloop
  endfacet
  facet normal -0.84433 -0.535824 0
    outer loop
      vertex 61.7476 48.7095 8.1
      vertex 61.2294 49.5259 12.1
      vertex 61.2294 49.5259 8.1
    endloop
  endfacet
  facet normal -0.84433 -0.535824 0
    outer loop
      vertex 61.2294 49.5259 12.1
      vertex 61.7476 48.7095 8.1
      vertex 61.7476 48.7095 12.1
    endloop
  endfacet
  facet normal -0.248688 -0.968584 0
    outer loop
      vertex 56.4428 52.5636 8.1
      vertex 57.3794 52.3231 12.1
      vertex 56.4428 52.5636 12.1
    endloop
  endfacet
  facet normal -0.248688 -0.968584 -0
    outer loop
      vertex 57.3794 52.3231 12.1
      vertex 56.4428 52.5636 8.1
      vertex 57.3794 52.3231 8.1
    endloop
  endfacet
  facet normal 0.481753 -0.876307 0
    outer loop
      vertex 50.8741 51.5013 8.1
      vertex 51.7215 51.9672 12.1
      vertex 50.8741 51.5013 12.1
    endloop
  endfacet
  facet normal 0.481753 -0.876307 0
    outer loop
      vertex 51.7215 51.9672 12.1
      vertex 50.8741 51.5013 8.1
      vertex 51.7215 51.9672 8.1
    endloop
  endfacet
  facet normal 0.951056 -0.309018 0
    outer loop
      vertex 47.5419 46.9149 12.1
      vertex 47.8407 47.8346 8.1
      vertex 47.8407 47.8346 12.1
    endloop
  endfacet
  facet normal 0.951056 -0.309018 0
    outer loop
      vertex 47.8407 47.8346 8.1
      vertex 47.5419 46.9149 12.1
      vertex 47.5419 46.9149 8.1
    endloop
  endfacet
  facet normal -0.982288 0.187379 0
    outer loop
      vertex 62.4581 43.0851 8.1
      vertex 62.6393 44.0349 12.1
      vertex 62.6393 44.0349 8.1
    endloop
  endfacet
  facet normal -0.982288 0.187379 0
    outer loop
      vertex 62.6393 44.0349 12.1
      vertex 62.4581 43.0851 8.1
      vertex 62.4581 43.0851 12.1
    endloop
  endfacet
  facet normal -0.481753 0.876307 0
    outer loop
      vertex 59.1259 38.4987 8.1
      vertex 58.2785 38.0328 12.1
      vertex 59.1259 38.4987 12.1
    endloop
  endfacet
  facet normal -0.481753 0.876307 0
    outer loop
      vertex 58.2785 38.0328 12.1
      vertex 59.1259 38.4987 8.1
      vertex 58.2785 38.0328 8.1
    endloop
  endfacet
  facet normal -0.684548 -0.728968 0
    outer loop
      vertex 59.9082 50.933 8.1
      vertex 60.6131 50.271 12.1
      vertex 59.9082 50.933 12.1
    endloop
  endfacet
  facet normal -0.684548 -0.728968 -0
    outer loop
      vertex 60.6131 50.271 12.1
      vertex 59.9082 50.933 8.1
      vertex 60.6131 50.271 8.1
    endloop
  endfacet
  facet normal 0 -1 0
    outer loop
      vertex 54.5165 52.6848 8.1
      vertex 55.4835 52.6848 12.1
      vertex 54.5165 52.6848 12.1
    endloop
  endfacet
  facet normal 0 -1 -0
    outer loop
      vertex 55.4835 52.6848 12.1
      vertex 54.5165 52.6848 8.1
      vertex 55.4835 52.6848 8.1
    endloop
  endfacet
  facet normal 0 0 1
    outer loop
      vertex 62.6393 45.9651 8.1
      vertex 62.6393 44.0349 8.1
      vertex 62.7 45 8.1
    endloop
  endfacet
  facet normal 0 0 1
    outer loop
      vertex 62.4581 46.9149 8.1
      vertex 62.6393 44.0349 8.1
      vertex 62.6393 45.9651 8.1
    endloop
  endfacet
  facet normal 0 0 1
    outer loop
      vertex 62.4581 46.9149 8.1
      vertex 62.4581 43.0851 8.1
      vertex 62.6393 44.0349 8.1
    endloop
  endfacet
  facet normal 0 0 1
    outer loop
      vertex 62.1593 47.8346 8.1
      vertex 62.4581 43.0851 8.1
      vertex 62.4581 46.9149 8.1
    endloop
  endfacet
  facet normal 0 0 1
    outer loop
      vertex 62.1593 47.8346 8.1
      vertex 62.1593 42.1654 8.1
      vertex 62.4581 43.0851 8.1
    endloop
  endfacet
  facet normal 0 0 1
    outer loop
      vertex 61.7476 48.7095 8.1
      vertex 62.1593 42.1654 8.1
      vertex 62.1593 47.8346 8.1
    endloop
  endfacet
  facet normal 0 0 1
    outer loop
      vertex 61.7476 48.7095 8.1
      vertex 61.7476 41.2905 8.1
      vertex 62.1593 42.1654 8.1
    endloop
  endfacet
  facet normal 0 0 1
    outer loop
      vertex 61.2294 49.5259 8.1
      vertex 61.7476 41.2905 8.1
      vertex 61.7476 48.7095 8.1
    endloop
  endfacet
  facet normal 0 0 1
    outer loop
      vertex 61.2294 49.5259 8.1
      vertex 61.2294 40.4741 8.1
      vertex 61.7476 41.2905 8.1
    endloop
  endfacet
  facet normal 0 0 1
    outer loop
      vertex 60.6131 50.271 8.1
      vertex 61.2294 40.4741 8.1
      vertex 61.2294 49.5259 8.1
    endloop
  endfacet
  facet normal 0 0 1
    outer loop
      vertex 60.6131 50.271 8.1
      vertex 60.6131 39.729 8.1
      vertex 61.2294 40.4741 8.1
    endloop
  endfacet
  facet normal 0 0 1
    outer loop
      vertex 59.9082 50.933 8.1
      vertex 60.6131 39.729 8.1
      vertex 60.6131 50.271 8.1
    endloop
  endfacet
  facet normal 0 0 1
    outer loop
      vertex 59.9082 50.933 8.1
      vertex 59.9082 39.067 8.1
      vertex 60.6131 39.729 8.1
    endloop
  endfacet
  facet normal 0 0 1
    outer loop
      vertex 59.1259 51.5013 8.1
      vertex 59.9082 39.067 8.1
      vertex 59.9082 50.933 8.1
    endloop
  endfacet
  facet normal 0 0 1
    outer loop
      vertex 59.1259 51.5013 8.1
      vertex 59.1259 38.4987 8.1
      vertex 59.9082 39.067 8.1
    endloop
  endfacet
  facet normal 0 0 1
    outer loop
      vertex 58.2785 51.9672 8.1
      vertex 59.1259 38.4987 8.1
      vertex 59.1259 51.5013 8.1
    endloop
  endfacet
  facet normal 0 0 1
    outer loop
      vertex 58.2785 51.9672 8.1
      vertex 58.2785 38.0328 8.1
      vertex 59.1259 38.4987 8.1
    endloop
  endfacet
  facet normal 0 0 1
    outer loop
      vertex 57.3794 52.3231 8.1
      vertex 58.2785 38.0328 8.1
      vertex 58.2785 51.9672 8.1
    endloop
  endfacet
  facet normal 0 0 1
    outer loop
      vertex 57.3794 52.3231 8.1
      vertex 57.3794 37.6769 8.1
      vertex 58.2785 38.0328 8.1
    endloop
  endfacet
  facet normal 0 0 1
    outer loop
      vertex 56.4428 52.5636 8.1
      vertex 57.3794 37.6769 8.1
      vertex 57.3794 52.3231 8.1
    endloop
  endfacet
  facet normal 0 0 1
    outer loop
      vertex 56.4428 52.5636 8.1
      vertex 56.4428 37.4364 8.1
      vertex 57.3794 37.6769 8.1
    endloop
  endfacet
  facet normal 0 0 1
    outer loop
      vertex 55.4835 52.6848 8.1
      vertex 56.4428 37.4364 8.1
      vertex 56.4428 52.5636 8.1
    endloop
  endfacet
  facet normal 0 0 1
    outer loop
      vertex 55.4835 52.6848 8.1
      vertex 55.4835 37.3152 8.1
      vertex 56.4428 37.4364 8.1
    endloop
  endfacet
  facet normal -0 0 1
    outer loop
      vertex 54.5165 52.6848 8.1
      vertex 55.4835 37.3152 8.1
      vertex 55.4835 52.6848 8.1
    endloop
  endfacet
  facet normal 0 0 1
    outer loop
      vertex 54.5165 52.6848 8.1
      vertex 54.5165 37.3152 8.1
      vertex 55.4835 37.3152 8.1
    endloop
  endfacet
  facet normal -0 0 1
    outer loop
      vertex 53.5572 52.5636 8.1
      vertex 54.5165 37.3152 8.1
      vertex 54.5165 52.6848 8.1
    endloop
  endfacet
  facet normal 0 0 1
    outer loop
      vertex 53.5572 52.5636 8.1
      vertex 53.5572 37.4364 8.1
      vertex 54.5165 37.3152 8.1
    endloop
  endfacet
  facet normal -0 0 1
    outer loop
      vertex 52.6206 52.3231 8.1
      vertex 53.5572 37.4364 8.1
      vertex 53.5572 52.5636 8.1
    endloop
  endfacet
  facet normal 0 0 1
    outer loop
      vertex 52.6206 52.3231 8.1
      vertex 52.6206 37.6769 8.1
      vertex 53.5572 37.4364 8.1
    endloop
  endfacet
  facet normal -0 0 1
    outer loop
      vertex 51.7215 51.9672 8.1
      vertex 52.6206 37.6769 8.1
      vertex 52.6206 52.3231 8.1
    endloop
  endfacet
  facet normal 0 0 1
    outer loop
      vertex 51.7215 51.9672 8.1
      vertex 51.7215 38.0328 8.1
      vertex 52.6206 37.6769 8.1
    endloop
  endfacet
  facet normal -0 0 1
    outer loop
      vertex 50.8741 51.5013 8.1
      vertex 51.7215 38.0328 8.1
      vertex 51.7215 51.9672 8.1
    endloop
  endfacet
  facet normal 0 0 1
    outer loop
      vertex 50.8741 51.5013 8.1
      vertex 50.8741 38.4987 8.1
      vertex 51.7215 38.0328 8.1
    endloop
  endfacet
  facet normal -0 0 1
    outer loop
      vertex 50.0918 50.933 8.1
      vertex 50.8741 38.4987 8.1
      vertex 50.8741 51.5013 8.1
    endloop
  endfacet
  facet normal 0 0 1
    outer loop
      vertex 50.0918 50.933 8.1
      vertex 50.0918 39.067 8.1
      vertex 50.8741 38.4987 8.1
    endloop
  endfacet
  facet normal -0 0 1
    outer loop
      vertex 49.3869 50.271 8.1
      vertex 50.0918 39.067 8.1
      vertex 50.0918 50.933 8.1
    endloop
  endfacet
  facet normal 0 0 1
    outer loop
      vertex 49.3869 50.271 8.1
      vertex 49.3869 39.729 8.1
      vertex 50.0918 39.067 8.1
    endloop
  endfacet
  facet normal -0 0 1
    outer loop
      vertex 48.7706 49.5259 8.1
      vertex 49.3869 39.729 8.1
      vertex 49.3869 50.271 8.1
    endloop
  endfacet
  facet normal 0 0 1
    outer loop
      vertex 48.7706 49.5259 8.1
      vertex 48.7706 40.4741 8.1
      vertex 49.3869 39.729 8.1
    endloop
  endfacet
  facet normal -0 0 1
    outer loop
      vertex 48.2524 48.7095 8.1
      vertex 48.7706 40.4741 8.1
      vertex 48.7706 49.5259 8.1
    endloop
  endfacet
  facet normal 0 0 1
    outer loop
      vertex 48.2524 48.7095 8.1
      vertex 48.2524 41.2905 8.1
      vertex 48.7706 40.4741 8.1
    endloop
  endfacet
  facet normal -0 0 1
    outer loop
      vertex 47.8407 47.8346 8.1
      vertex 48.2524 41.2905 8.1
      vertex 48.2524 48.7095 8.1
    endloop
  endfacet
  facet normal 0 0 1
    outer loop
      vertex 47.8407 47.8346 8.1
      vertex 47.8407 42.1654 8.1
      vertex 48.2524 41.2905 8.1
    endloop
  endfacet
  facet normal -0 0 1
    outer loop
      vertex 47.5419 46.9149 8.1
      vertex 47.8407 42.1654 8.1
      vertex 47.8407 47.8346 8.1
    endloop
  endfacet
  facet normal 0 0 1
    outer loop
      vertex 47.5419 46.9149 8.1
      vertex 47.5419 43.0851 8.1
      vertex 47.8407 42.1654 8.1
    endloop
  endfacet
  facet normal -0 0 1
    outer loop
      vertex 47.3607 45.9651 8.1
      vertex 47.5419 43.0851 8.1
      vertex 47.5419 46.9149 8.1
    endloop
  endfacet
  facet normal 0 0 1
    outer loop
      vertex 47.3607 45.9651 8.1
      vertex 47.3607 44.0349 8.1
      vertex 47.5419 43.0851 8.1
    endloop
  endfacet
  facet normal 0 -0 1
    outer loop
      vertex 47.3607 44.0349 8.1
      vertex 47.3607 45.9651 8.1
      vertex 47.3 45 8.1
    endloop
  endfacet
  facet normal 0.998027 0.0627924 0
    outer loop
      vertex 47.3607 44.0349 12.1
      vertex 47.3 45 8.1
      vertex 47.3 45 12.1
    endloop
  endfacet
  facet normal 0.998027 0.0627924 0
    outer loop
      vertex 47.3 45 8.1
      vertex 47.3607 44.0349 12.1
      vertex 47.3607 44.0349 8.1
    endloop
  endfacet
  facet normal 0.844328 -0.535827 0
    outer loop
      vertex 48.2524 48.7095 12.1
      vertex 48.7706 49.5259 8.1
      vertex 48.7706 49.5259 12.1
    endloop
  endfacet
  facet normal 0.844328 -0.535827 0
    outer loop
      vertex 48.7706 49.5259 8.1
      vertex 48.2524 48.7095 12.1
      vertex 48.2524 48.7095 8.1
    endloop
  endfacet
  facet normal 0.248688 -0.968584 0
    outer loop
      vertex 52.6206 52.3231 8.1
      vertex 53.5572 52.5636 12.1
      vertex 52.6206 52.3231 12.1
    endloop
  endfacet
  facet normal 0.248688 -0.968584 0
    outer loop
      vertex 53.5572 52.5636 12.1
      vertex 52.6206 52.3231 8.1
      vertex 53.5572 52.5636 8.1
    endloop
  endfacet
  facet normal 0.770513 -0.637424 0
    outer loop
      vertex 48.7706 49.5259 12.1
      vertex 49.3869 50.271 8.1
      vertex 49.3869 50.271 12.1
    endloop
  endfacet
  facet normal 0.770513 -0.637424 0
    outer loop
      vertex 49.3869 50.271 8.1
      vertex 48.7706 49.5259 12.1
      vertex 48.7706 49.5259 8.1
    endloop
  endfacet
  facet normal -0.951056 0.309018 0
    outer loop
      vertex 62.1593 42.1654 8.1
      vertex 62.4581 43.0851 12.1
      vertex 62.4581 43.0851 8.1
    endloop
  endfacet
  facet normal -0.951056 0.309018 0
    outer loop
      vertex 62.4581 43.0851 12.1
      vertex 62.1593 42.1654 8.1
      vertex 62.1593 42.1654 12.1
    endloop
  endfacet
  facet normal 0 1 -0
    outer loop
      vertex 55.4835 37.3152 8.1
      vertex 54.5165 37.3152 12.1
      vertex 55.4835 37.3152 12.1
    endloop
  endfacet
  facet normal 0 1 0
    outer loop
      vertex 54.5165 37.3152 12.1
      vertex 55.4835 37.3152 8.1
      vertex 54.5165 37.3152 8.1
    endloop
  endfacet
  facet normal -0.368124 0.929777 0
    outer loop
      vertex 58.2785 38.0328 8.1
      vertex 57.3794 37.6769 12.1
      vertex 58.2785 38.0328 12.1
    endloop
  endfacet
  facet normal -0.368124 0.929777 0
    outer loop
      vertex 57.3794 37.6769 12.1
      vertex 58.2785 38.0328 8.1
      vertex 57.3794 37.6769 8.1
    endloop
  endfacet
  facet normal -0.982288 -0.187379 0
    outer loop
      vertex 62.6393 45.9651 8.1
      vertex 62.4581 46.9149 12.1
      vertex 62.4581 46.9149 8.1
    endloop
  endfacet
  facet normal -0.982288 -0.187379 0
    outer loop
      vertex 62.4581 46.9149 12.1
      vertex 62.6393 45.9651 8.1
      vertex 62.6393 45.9651 12.1
    endloop
  endfacet
  facet normal -0.951056 -0.309018 0
    outer loop
      vertex 62.4581 46.9149 8.1
      vertex 62.1593 47.8346 12.1
      vertex 62.1593 47.8346 8.1
    endloop
  endfacet
  facet normal -0.951056 -0.309018 0
    outer loop
      vertex 62.1593 47.8346 12.1
      vertex 62.4581 46.9149 8.1
      vertex 62.4581 46.9149 12.1
    endloop
  endfacet
  facet normal -0.770513 -0.637424 0
    outer loop
      vertex 61.2294 49.5259 8.1
      vertex 60.6131 50.271 12.1
      vertex 60.6131 50.271 8.1
    endloop
  endfacet
  facet normal -0.770513 -0.637424 0
    outer loop
      vertex 60.6131 50.271 12.1
      vertex 61.2294 49.5259 8.1
      vertex 61.2294 49.5259 12.1
    endloop
  endfacet
  facet normal 0.125336 -0.992114 0
    outer loop
      vertex 53.5572 52.5636 8.1
      vertex 54.5165 52.6848 12.1
      vertex 53.5572 52.5636 12.1
    endloop
  endfacet
  facet normal 0.125336 -0.992114 0
    outer loop
      vertex 54.5165 52.6848 12.1
      vertex 53.5572 52.5636 8.1
      vertex 54.5165 52.6848 8.1
    endloop
  endfacet
  facet normal -0.125336 -0.992114 0
    outer loop
      vertex 55.4835 52.6848 8.1
      vertex 56.4428 52.5636 12.1
      vertex 55.4835 52.6848 12.1
    endloop
  endfacet
  facet normal -0.125336 -0.992114 -0
    outer loop
      vertex 56.4428 52.5636 12.1
      vertex 55.4835 52.6848 8.1
      vertex 56.4428 52.5636 8.1
    endloop
  endfacet
  facet normal -0.587783 -0.809018 0
    outer loop
      vertex 59.1259 51.5013 8.1
      vertex 59.9082 50.933 12.1
      vertex 59.1259 51.5013 12.1
    endloop
  endfacet
  facet normal -0.587783 -0.809018 -0
    outer loop
      vertex 59.9082 50.933 12.1
      vertex 59.1259 51.5013 8.1
      vertex 59.9082 50.933 8.1
    endloop
  endfacet
  facet normal -0.481753 -0.876307 0
    outer loop
      vertex 58.2785 51.9672 8.1
      vertex 59.1259 51.5013 12.1
      vertex 58.2785 51.9672 12.1
    endloop
  endfacet
  facet normal -0.481753 -0.876307 -0
    outer loop
      vertex 59.1259 51.5013 12.1
      vertex 58.2785 51.9672 8.1
      vertex 59.1259 51.5013 8.1
    endloop
  endfacet
  facet normal 0.904828 -0.425777 0
    outer loop
      vertex 47.8407 47.8346 12.1
      vertex 48.2524 48.7095 8.1
      vertex 48.2524 48.7095 12.1
    endloop
  endfacet
  facet normal 0.904828 -0.425777 0
    outer loop
      vertex 48.2524 48.7095 8.1
      vertex 47.8407 47.8346 12.1
      vertex 47.8407 47.8346 8.1
    endloop
  endfacet
  facet normal 0.587783 -0.809018 0
    outer loop
      vertex 50.0918 50.933 8.1
      vertex 50.8741 51.5013 12.1
      vertex 50.0918 50.933 12.1
    endloop
  endfacet
  facet normal 0.587783 -0.809018 0
    outer loop
      vertex 50.8741 51.5013 12.1
      vertex 50.0918 50.933 8.1
      vertex 50.8741 51.5013 8.1
    endloop
  endfacet
  facet normal 0.684548 -0.728968 0
    outer loop
      vertex 49.3869 50.271 8.1
      vertex 50.0918 50.933 12.1
      vertex 49.3869 50.271 12.1
    endloop
  endfacet
  facet normal 0.684548 -0.728968 0
    outer loop
      vertex 50.0918 50.933 12.1
      vertex 49.3869 50.271 8.1
      vertex 50.0918 50.933 8.1
    endloop
  endfacet
  facet normal -0.998027 -0.0627924 0
    outer loop
      vertex 62.7 45 8.1
      vertex 62.6393 45.9651 12.1
      vertex 62.6393 45.9651 8.1
    endloop
  endfacet
  facet normal -0.998027 -0.0627924 0
    outer loop
      vertex 62.6393 45.9651 12.1
      vertex 62.7 45 8.1
      vertex 62.7 45 12.1
    endloop
  endfacet
  facet normal -0.904826 0.425782 0
    outer loop
      vertex 61.7476 41.2905 8.1
      vertex 62.1593 42.1654 12.1
      vertex 62.1593 42.1654 8.1
    endloop
  endfacet
  facet normal -0.904826 0.425782 0
    outer loop
      vertex 62.1593 42.1654 12.1
      vertex 61.7476 41.2905 8.1
      vertex 61.7476 41.2905 12.1
    endloop
  endfacet
  facet normal 0.125332 0.992115 -0
    outer loop
      vertex 54.5165 37.3152 8.1
      vertex 53.5572 37.4364 12.1
      vertex 54.5165 37.3152 12.1
    endloop
  endfacet
  facet normal 0.125332 0.992115 0
    outer loop
      vertex 53.5572 37.4364 12.1
      vertex 54.5165 37.3152 8.1
      vertex 53.5572 37.4364 8.1
    endloop
  endfacet
  facet normal -0.248691 0.968583 0
    outer loop
      vertex 57.3794 37.6769 8.1
      vertex 56.4428 37.4364 12.1
      vertex 57.3794 37.6769 12.1
    endloop
  endfacet
  facet normal -0.248691 0.968583 0
    outer loop
      vertex 56.4428 37.4364 12.1
      vertex 57.3794 37.6769 8.1
      vertex 56.4428 37.4364 8.1
    endloop
  endfacet
  facet normal -0.368127 -0.929776 0
    outer loop
      vertex 57.3794 52.3231 8.1
      vertex 58.2785 51.9672 12.1
      vertex 57.3794 52.3231 12.1
    endloop
  endfacet
  facet normal -0.368127 -0.929776 -0
    outer loop
      vertex 58.2785 51.9672 12.1
      vertex 57.3794 52.3231 8.1
      vertex 58.2785 51.9672 8.1
    endloop
  endfacet
  facet normal 0.998027 -0.0627924 0
    outer loop
      vertex 47.3 45 12.1
      vertex 47.3607 45.9651 8.1
      vertex 47.3607 45.9651 12.1
    endloop
  endfacet
  facet normal 0.998027 -0.0627924 0
    outer loop
      vertex 47.3607 45.9651 8.1
      vertex 47.3 45 12.1
      vertex 47.3 45 8.1
    endloop
  endfacet
  facet normal 0.368127 -0.929776 0
    outer loop
      vertex 51.7215 51.9672 8.1
      vertex 52.6206 52.3231 12.1
      vertex 51.7215 51.9672 12.1
    endloop
  endfacet
  facet normal 0.368127 -0.929776 0
    outer loop
      vertex 52.6206 52.3231 12.1
      vertex 51.7215 51.9672 8.1
      vertex 52.6206 52.3231 8.1
    endloop
  endfacet
  facet normal -0.998027 0.0627924 0
    outer loop
      vertex 62.6393 44.0349 8.1
      vertex 62.7 45 12.1
      vertex 62.7 45 8.1
    endloop
  endfacet
  facet normal -0.998027 0.0627924 0
    outer loop
      vertex 62.7 45 12.1
      vertex 62.6393 44.0349 8.1
      vertex 62.6393 44.0349 12.1
    endloop
  endfacet
  facet normal -0.587786 0.809016 0
    outer loop
      vertex 59.9082 39.067 8.1
      vertex 59.1259 38.4987 12.1
      vertex 59.9082 39.067 12.1
    endloop
  endfacet
  facet normal -0.587786 0.809016 0
    outer loop
      vertex 59.1259 38.4987 12.1
      vertex 59.9082 39.067 8.1
      vertex 59.1259 38.4987 8.1
    endloop
  endfacet
  facet normal -0.770513 0.637424 0
    outer loop
      vertex 60.6131 39.729 8.1
      vertex 61.2294 40.4741 12.1
      vertex 61.2294 40.4741 8.1
    endloop
  endfacet
  facet normal -0.770513 0.637424 0
    outer loop
      vertex 61.2294 40.4741 12.1
      vertex 60.6131 39.729 8.1
      vertex 60.6131 39.729 12.1
    endloop
  endfacet
  facet normal 0.248691 0.968583 -0
    outer loop
      vertex 53.5572 37.4364 8.1
      vertex 52.6206 37.6769 12.1
      vertex 53.5572 37.4364 12.1
    endloop
  endfacet
  facet normal 0.248691 0.968583 0
    outer loop
      vertex 52.6206 37.6769 12.1
      vertex 53.5572 37.4364 8.1
      vertex 52.6206 37.6769 8.1
    endloop
  endfacet
  facet normal 0.982288 0.187379 0
    outer loop
      vertex 47.5419 43.0851 12.1
      vertex 47.3607 44.0349 8.1
      vertex 47.3607 44.0349 12.1
    endloop
  endfacet
  facet normal 0.982288 0.187379 0
    outer loop
      vertex 47.3607 44.0349 8.1
      vertex 47.5419 43.0851 12.1
      vertex 47.5419 43.0851 8.1
    endloop
  endfacet
  facet normal 0.904827 0.425779 0
    outer loop
      vertex 48.2524 41.2905 12.1
      vertex 47.8407 42.1654 8.1
      vertex 47.8407 42.1654 12.1
    endloop
  endfacet
  facet normal 0.904827 0.425779 0
    outer loop
      vertex 47.8407 42.1654 8.1
      vertex 48.2524 41.2905 12.1
      vertex 48.2524 41.2905 8.1
    endloop
  endfacet
  facet normal 0.684548 0.728968 -0
    outer loop
      vertex 50.0918 39.067 8.1
      vertex 49.3869 39.729 12.1
      vertex 50.0918 39.067 12.1
    endloop
  endfacet
  facet normal 0.684548 0.728968 0
    outer loop
      vertex 49.3869 39.729 12.1
      vertex 50.0918 39.067 8.1
      vertex 49.3869 39.729 8.1
    endloop
  endfacet
  facet normal -0.684548 0.728968 0
    outer loop
      vertex 60.6131 39.729 8.1
      vertex 59.9082 39.067 12.1
      vertex 60.6131 39.729 12.1
    endloop
  endfacet
  facet normal -0.684548 0.728968 0
    outer loop
      vertex 59.9082 39.067 12.1
      vertex 60.6131 39.729 8.1
      vertex 59.9082 39.067 8.1
    endloop
  endfacet
  facet normal -0.84433 0.535824 0
    outer loop
      vertex 61.2294 40.4741 8.1
      vertex 61.7476 41.2905 12.1
      vertex 61.7476 41.2905 8.1
    endloop
  endfacet
  facet normal -0.84433 0.535824 0
    outer loop
      vertex 61.7476 41.2905 12.1
      vertex 61.2294 40.4741 8.1
      vertex 61.2294 40.4741 12.1
    endloop
  endfacet
  facet normal 0.587786 0.809016 -0
    outer loop
      vertex 50.8741 38.4987 8.1
      vertex 50.0918 39.067 12.1
      vertex 50.8741 38.4987 12.1
    endloop
  endfacet
  facet normal 0.587786 0.809016 0
    outer loop
      vertex 50.0918 39.067 12.1
      vertex 50.8741 38.4987 8.1
      vertex 50.0918 39.067 8.1
    endloop
  endfacet
  facet normal -0.125332 0.992115 0
    outer loop
      vertex 56.4428 37.4364 8.1
      vertex 55.4835 37.3152 12.1
      vertex 56.4428 37.4364 12.1
    endloop
  endfacet
  facet normal -0.125332 0.992115 0
    outer loop
      vertex 55.4835 37.3152 12.1
      vertex 56.4428 37.4364 8.1
      vertex 55.4835 37.3152 8.1
    endloop
  endfacet
  facet normal 0.368124 0.929777 -0
    outer loop
      vertex 52.6206 37.6769 8.1
      vertex 51.7215 38.0328 12.1
      vertex 52.6206 37.6769 12.1
    endloop
  endfacet
  facet normal 0.368124 0.929777 0
    outer loop
      vertex 51.7215 38.0328 12.1
      vertex 52.6206 37.6769 8.1
      vertex 51.7215 38.0328 8.1
    endloop
  endfacet
  facet normal 0.951056 0.309018 0
    outer loop
      vertex 47.8407 42.1654 12.1
      vertex 47.5419 43.0851 8.1
      vertex 47.5419 43.0851 12.1
    endloop
  endfacet
  facet normal 0.951056 0.309018 0
    outer loop
      vertex 47.5419 43.0851 8.1
      vertex 47.8407 42.1654 12.1
      vertex 47.8407 42.1654 8.1
    endloop
  endfacet
  facet normal 0.770513 0.637424 0
    outer loop
      vertex 49.3869 39.729 12.1
      vertex 48.7706 40.4741 8.1
      vertex 48.7706 40.4741 12.1
    endloop
  endfacet
  facet normal 0.770513 0.637424 0
    outer loop
      vertex 48.7706 40.4741 8.1
      vertex 49.3869 39.729 12.1
      vertex 49.3869 39.729 8.1
    endloop
  endfacet
  facet normal 0.844328 0.535827 0
    outer loop
      vertex 48.7706 40.4741 12.1
      vertex 48.2524 41.2905 8.1
      vertex 48.2524 41.2905 12.1
    endloop
  endfacet
  facet normal 0.844328 0.535827 0
    outer loop
      vertex 48.2524 41.2905 8.1
      vertex 48.7706 40.4741 12.1
      vertex 48.7706 40.4741 8.1
    endloop
  endfacet
  facet normal 0.481753 0.876307 -0
    outer loop
      vertex 51.7215 38.0328 8.1
      vertex 50.8741 38.4987 12.1
      vertex 51.7215 38.0328 12.1
    endloop
  endfacet
  facet normal 0.481753 0.876307 0
    outer loop
      vertex 50.8741 38.4987 12.1
      vertex 51.7215 38.0328 8.1
      vertex 50.8741 38.4987 8.1
    endloop
  endfacet
endsolid OpenSCAD_Model
