solid OpenSCAD_Model
  facet normal -1 0 0
    outer loop
      vertex 0 95 0
      vertex 0 84.4191 3
      vertex 0 95 29.3
    endloop
  endfacet
  facet normal -1 0 0
    outer loop
      vertex 0 95 0
      vertex 0 61.5291 3
      vertex 0 84.4191 3
    endloop
  endfacet
  facet normal -1 0 0
    outer loop
      vertex 0 61.5291 3
      vertex 0 33.4709 3
      vertex 0 61.5291 29.3
    endloop
  endfacet
  facet normal -1 0 0
    outer loop
      vertex 0 95 0
      vertex 0 33.4709 3
      vertex 0 61.5291 3
    endloop
  endfacet
  facet normal -1 0 0
    outer loop
      vertex 0 0 0
      vertex 0 33.4709 3
      vertex 0 95 0
    endloop
  endfacet
  facet normal -1 -0 0
    outer loop
      vertex 0 33.4709 3
      vertex 0 0 0
      vertex 0 10.5809 3
    endloop
  endfacet
  facet normal -1 0 0
    outer loop
      vertex 0 0 29.3
      vertex 0 10.5809 3
      vertex 0 0 0
    endloop
  endfacet
  facet normal -1 0 0
    outer loop
      vertex 0 10.5809 3
      vertex 0 0 29.3
      vertex 0 10.5809 29.3
    endloop
  endfacet
  facet normal -1 -0 0
    outer loop
      vertex 0 95 29.3
      vertex 0 84.4191 3
      vertex 0 84.4191 29.3
    endloop
  endfacet
  facet normal -1 -0 0
    outer loop
      vertex 0 61.5291 29.3
      vertex 0 33.4709 3
      vertex 0 33.4709 29.3
    endloop
  endfacet
  facet normal 0 0 1
    outer loop
      vertex 47.7706 42.9741 29.3
      vertex 26.4311 41.1009 29.3
      vertex 39.925 26.4311 29.3
    endloop
  endfacet
  facet normal 0 0 1
    outer loop
      vertex 39.925 26.4311 29.3
      vertex 26.4311 41.1009 29.3
      vertex 37.444 22.0259 29.3
    endloop
  endfacet
  facet normal -0 0 1
    outer loop
      vertex 4.40518 53.8991 29.3
      vertex 26.4311 41.1009 29.3
      vertex 26.4311 53.8991 29.3
    endloop
  endfacet
  facet normal 0 0 1
    outer loop
      vertex 4.40518 53.8991 29.3
      vertex 4.40518 41.1009 29.3
      vertex 26.4311 41.1009 29.3
    endloop
  endfacet
  facet normal 0 0 1
    outer loop
      vertex 0 61.5291 29.3
      vertex 4.40518 41.1009 29.3
      vertex 4.40518 53.8991 29.3
    endloop
  endfacet
  facet normal 0 0 1
    outer loop
      vertex 4.40518 41.1009 29.3
      vertex 0 61.5291 29.3
      vertex 0 33.4709 29.3
    endloop
  endfacet
  facet normal -0 0 1
    outer loop
      vertex 37.444 72.9741 29.3
      vertex 39.925 68.5689 29.3
      vertex 39.925 90.5948 29.3
    endloop
  endfacet
  facet normal 0 0 1
    outer loop
      vertex 26.4311 53.8991 29.3
      vertex 39.925 68.5689 29.3
      vertex 37.444 72.9741 29.3
    endloop
  endfacet
  facet normal 0 0 1
    outer loop
      vertex 46.3607 46.5349 29.3
      vertex 26.4311 41.1009 29.3
      vertex 46.8407 44.6654 29.3
    endloop
  endfacet
  facet normal 0 0 1
    outer loop
      vertex 39.925 90.5948 29.3
      vertex 26.4311 92.0491 29.3
      vertex 37.444 72.9741 29.3
    endloop
  endfacet
  facet normal 0 0 1
    outer loop
      vertex 47.555 95 29.3
      vertex 26.4311 92.0491 29.3
      vertex 39.925 90.5948 29.3
    endloop
  endfacet
  facet normal -0 0 1
    outer loop
      vertex 0 95 29.3
      vertex 26.4311 92.0491 29.3
      vertex 47.555 95 29.3
    endloop
  endfacet
  facet normal 0 0 1
    outer loop
      vertex 26.4311 92.0491 29.3
      vertex 0 95 29.3
      vertex 4.40518 92.0491 29.3
    endloop
  endfacet
  facet normal 0 0 1
    outer loop
      vertex 4.40518 92.0491 29.3
      vertex 0 95 29.3
      vertex 0 84.4191 29.3
    endloop
  endfacet
  facet normal 0 0 1
    outer loop
      vertex 39.925 26.4311 29.3
      vertex 37.444 22.0259 29.3
      vertex 39.925 4.40518 29.3
    endloop
  endfacet
  facet normal 0 0 1
    outer loop
      vertex 26.4311 2.95091 29.3
      vertex 39.925 4.40518 29.3
      vertex 37.444 22.0259 29.3
    endloop
  endfacet
  facet normal -0 0 1
    outer loop
      vertex 26.4311 2.95091 29.3
      vertex 47.555 0 29.3
      vertex 39.925 4.40518 29.3
    endloop
  endfacet
  facet normal 0 0 1
    outer loop
      vertex 0 0 29.3
      vertex 26.4311 2.95091 29.3
      vertex 4.40518 2.95091 29.3
    endloop
  endfacet
  facet normal 0 0 1
    outer loop
      vertex 26.4311 2.95091 29.3
      vertex 0 0 29.3
      vertex 47.555 0 29.3
    endloop
  endfacet
  facet normal 0 0 1
    outer loop
      vertex 0 0 29.3
      vertex 4.40518 2.95091 29.3
      vertex 0 10.5809 29.3
    endloop
  endfacet
  facet normal 0 0 1
    outer loop
      vertex 108 95 29.3
      vertex 103.595 66.575 29.3
      vertex 108 58.945 29.3
    endloop
  endfacet
  facet normal -0 0 1
    outer loop
      vertex 78.075 90.5948 29.3
      vertex 103.595 66.575 29.3
      vertex 108 95 29.3
    endloop
  endfacet
  facet normal 0 0 1
    outer loop
      vertex 103.595 66.575 29.3
      vertex 78.075 90.5948 29.3
      vertex 81.5689 66.575 29.3
    endloop
  endfacet
  facet normal 0 -0 1
    outer loop
      vertex 78.075 90.5948 29.3
      vertex 108 95 29.3
      vertex 70.445 95 29.3
    endloop
  endfacet
  facet normal -0 0 1
    outer loop
      vertex 78.075 68.5689 29.3
      vertex 81.5689 66.575 29.3
      vertex 78.075 90.5948 29.3
    endloop
  endfacet
  facet normal 0 0 1
    outer loop
      vertex 78.075 68.5689 29.3
      vertex 70.5559 47.5 29.3
      vertex 81.5689 66.575 29.3
    endloop
  endfacet
  facet normal -0 0 1
    outer loop
      vertex 59 57.5559 29.3
      vertex 70.5559 47.5 29.3
      vertex 78.075 68.5689 29.3
    endloop
  endfacet
  facet normal 0 0 1
    outer loop
      vertex 70.5559 47.5 29.3
      vertex 61.4581 49.4149 29.3
      vertex 61.7 47.5 29.3
    endloop
  endfacet
  facet normal 0 0 1
    outer loop
      vertex 70.5559 47.5 29.3
      vertex 60.7476 51.2095 29.3
      vertex 61.4581 49.4149 29.3
    endloop
  endfacet
  facet normal 0 0 1
    outer loop
      vertex 70.5559 47.5 29.3
      vertex 59 57.5559 29.3
      vertex 60.7476 51.2095 29.3
    endloop
  endfacet
  facet normal 0 0 1
    outer loop
      vertex 60.7476 51.2095 29.3
      vertex 59 57.5559 29.3
      vertex 59.6131 52.771 29.3
    endloop
  endfacet
  facet normal 0 0 1
    outer loop
      vertex 59 57.5559 29.3
      vertex 58.1259 54.0013 29.3
      vertex 59.6131 52.771 29.3
    endloop
  endfacet
  facet normal 0 0 1
    outer loop
      vertex 59 57.5559 29.3
      vertex 56.3794 54.8231 29.3
      vertex 58.1259 54.0013 29.3
    endloop
  endfacet
  facet normal 0 0 1
    outer loop
      vertex 59 57.5559 29.3
      vertex 54.4835 55.1848 29.3
      vertex 56.3794 54.8231 29.3
    endloop
  endfacet
  facet normal 0 0 1
    outer loop
      vertex 59 57.5559 29.3
      vertex 52.5572 55.0636 29.3
      vertex 54.4835 55.1848 29.3
    endloop
  endfacet
  facet normal 0 0 1
    outer loop
      vertex 39.925 68.5689 29.3
      vertex 52.5572 55.0636 29.3
      vertex 59 57.5559 29.3
    endloop
  endfacet
  facet normal 0 0 1
    outer loop
      vertex 46.8407 50.3346 29.3
      vertex 26.4311 53.8991 29.3
      vertex 46.3607 48.4651 29.3
    endloop
  endfacet
  facet normal 0 0 1
    outer loop
      vertex 47.7706 52.0259 29.3
      vertex 26.4311 53.8991 29.3
      vertex 46.8407 50.3346 29.3
    endloop
  endfacet
  facet normal -0 0 1
    outer loop
      vertex 26.4311 53.8991 29.3
      vertex 47.7706 52.0259 29.3
      vertex 39.925 68.5689 29.3
    endloop
  endfacet
  facet normal 0 0 1
    outer loop
      vertex 49.0918 53.433 29.3
      vertex 39.925 68.5689 29.3
      vertex 47.7706 52.0259 29.3
    endloop
  endfacet
  facet normal 0 0 1
    outer loop
      vertex 50.7215 54.4672 29.3
      vertex 39.925 68.5689 29.3
      vertex 49.0918 53.433 29.3
    endloop
  endfacet
  facet normal 0 0 1
    outer loop
      vertex 52.5572 55.0636 29.3
      vertex 39.925 68.5689 29.3
      vertex 50.7215 54.4672 29.3
    endloop
  endfacet
  facet normal 0 0 1
    outer loop
      vertex 70.5559 47.5 29.3
      vertex 78.075 26.4311 29.3
      vertex 81.5689 28.425 29.3
    endloop
  endfacet
  facet normal 0 0 1
    outer loop
      vertex 61.4581 45.5851 29.3
      vertex 70.5559 47.5 29.3
      vertex 61.7 47.5 29.3
    endloop
  endfacet
  facet normal 0 0 1
    outer loop
      vertex 60.7476 43.7905 29.3
      vertex 70.5559 47.5 29.3
      vertex 61.4581 45.5851 29.3
    endloop
  endfacet
  facet normal 0 0 1
    outer loop
      vertex 59 37.444 29.3
      vertex 70.5559 47.5 29.3
      vertex 60.7476 43.7905 29.3
    endloop
  endfacet
  facet normal 0 0 1
    outer loop
      vertex 59 37.444 29.3
      vertex 60.7476 43.7905 29.3
      vertex 59.6131 42.229 29.3
    endloop
  endfacet
  facet normal 0 0 1
    outer loop
      vertex 70.5559 47.5 29.3
      vertex 59 37.444 29.3
      vertex 78.075 26.4311 29.3
    endloop
  endfacet
  facet normal -0 0 1
    outer loop
      vertex 58.1259 40.9987 29.3
      vertex 59 37.444 29.3
      vertex 59.6131 42.229 29.3
    endloop
  endfacet
  facet normal -0 0 1
    outer loop
      vertex 56.3794 40.1769 29.3
      vertex 59 37.444 29.3
      vertex 58.1259 40.9987 29.3
    endloop
  endfacet
  facet normal -0 0 1
    outer loop
      vertex 54.4835 39.8152 29.3
      vertex 59 37.444 29.3
      vertex 56.3794 40.1769 29.3
    endloop
  endfacet
  facet normal 0 0 1
    outer loop
      vertex 52.5572 39.9364 29.3
      vertex 59 37.444 29.3
      vertex 54.4835 39.8152 29.3
    endloop
  endfacet
  facet normal 0 0 1
    outer loop
      vertex 39.925 26.4311 29.3
      vertex 52.5572 39.9364 29.3
      vertex 50.7215 40.5328 29.3
    endloop
  endfacet
  facet normal 0 0 1
    outer loop
      vertex 46.3607 48.4651 29.3
      vertex 26.4311 53.8991 29.3
      vertex 46.3607 46.5349 29.3
    endloop
  endfacet
  facet normal 0 0 1
    outer loop
      vertex 52.5572 39.9364 29.3
      vertex 39.925 26.4311 29.3
      vertex 59 37.444 29.3
    endloop
  endfacet
  facet normal 0 0 1
    outer loop
      vertex 49.0918 41.567 29.3
      vertex 39.925 26.4311 29.3
      vertex 50.7215 40.5328 29.3
    endloop
  endfacet
  facet normal 0 0 1
    outer loop
      vertex 47.7706 42.9741 29.3
      vertex 39.925 26.4311 29.3
      vertex 49.0918 41.567 29.3
    endloop
  endfacet
  facet normal 0 0 1
    outer loop
      vertex 26.4311 41.1009 29.3
      vertex 47.7706 42.9741 29.3
      vertex 46.8407 44.6654 29.3
    endloop
  endfacet
  facet normal 0 0 1
    outer loop
      vertex 26.4311 41.1009 29.3
      vertex 46.3607 46.5349 29.3
      vertex 26.4311 53.8991 29.3
    endloop
  endfacet
  facet normal -0 0 1
    outer loop
      vertex 103.595 28.425 29.3
      vertex 108 0 29.3
      vertex 108 36.055 29.3
    endloop
  endfacet
  facet normal 0 0 1
    outer loop
      vertex 78.075 4.40518 29.3
      vertex 103.595 28.425 29.3
      vertex 81.5689 28.425 29.3
    endloop
  endfacet
  facet normal 0 0 1
    outer loop
      vertex 78.075 4.40518 29.3
      vertex 81.5689 28.425 29.3
      vertex 78.075 26.4311 29.3
    endloop
  endfacet
  facet normal 0 0 1
    outer loop
      vertex 103.595 28.425 29.3
      vertex 78.075 4.40518 29.3
      vertex 108 0 29.3
    endloop
  endfacet
  facet normal 0 0 1
    outer loop
      vertex 108 0 29.3
      vertex 78.075 4.40518 29.3
      vertex 70.445 0 29.3
    endloop
  endfacet
  facet normal 1 0 0
    outer loop
      vertex 108 36.055 29.3
      vertex 108 0 29.3
      vertex 108 36.055 3
    endloop
  endfacet
  facet normal 1 0 0
    outer loop
      vertex 108 58.945 3
      vertex 108 95 29.3
      vertex 108 58.945 29.3
    endloop
  endfacet
  facet normal 1 0 0
    outer loop
      vertex 108 95 29.3
      vertex 108 58.945 3
      vertex 108 95 0
    endloop
  endfacet
  facet normal 1 -0 0
    outer loop
      vertex 108 36.055 3
      vertex 108 95 0
      vertex 108 58.945 3
    endloop
  endfacet
  facet normal 1 0 0
    outer loop
      vertex 108 36.055 3
      vertex 108 0 0
      vertex 108 95 0
    endloop
  endfacet
  facet normal 1 0 0
    outer loop
      vertex 108 0 0
      vertex 108 36.055 3
      vertex 108 0 29.3
    endloop
  endfacet
  facet normal 0 0 -1
    outer loop
      vertex 0 0 0
      vertex 108 95 0
      vertex 108 0 0
    endloop
  endfacet
  facet normal -0 0 -1
    outer loop
      vertex 108 95 0
      vertex 0 0 0
      vertex 0 95 0
    endloop
  endfacet
  facet normal 0 -1 0
    outer loop
      vertex 0 0 29.3
      vertex 47.555 0 3
      vertex 47.555 0 29.3
    endloop
  endfacet
  facet normal 0 -1 0
    outer loop
      vertex 108 0 0
      vertex 47.555 0 3
      vertex 0 0 0
    endloop
  endfacet
  facet normal 0 -1 0
    outer loop
      vertex 0 0 0
      vertex 47.555 0 3
      vertex 0 0 29.3
    endloop
  endfacet
  facet normal 0 -1 0
    outer loop
      vertex 70.445 0 3
      vertex 108 0 29.3
      vertex 70.445 0 29.3
    endloop
  endfacet
  facet normal 0 -1 0
    outer loop
      vertex 70.445 0 3
      vertex 108 0 0
      vertex 108 0 29.3
    endloop
  endfacet
  facet normal 0 -1 0
    outer loop
      vertex 47.555 0 3
      vertex 108 0 0
      vertex 70.445 0 3
    endloop
  endfacet
  facet normal 0 1 0
    outer loop
      vertex 108 95 29.3
      vertex 70.445 95 3
      vertex 70.445 95 29.3
    endloop
  endfacet
  facet normal 0 1 0
    outer loop
      vertex 70.445 95 3
      vertex 108 95 0
      vertex 47.555 95 3
    endloop
  endfacet
  facet normal 0 1 -0
    outer loop
      vertex 108 95 0
      vertex 70.445 95 3
      vertex 108 95 29.3
    endloop
  endfacet
  facet normal 0 1 -0
    outer loop
      vertex 47.555 95 3
      vertex 0 95 29.3
      vertex 47.555 95 29.3
    endloop
  endfacet
  facet normal 0 1 0
    outer loop
      vertex 47.555 95 3
      vertex 0 95 0
      vertex 0 95 29.3
    endloop
  endfacet
  facet normal 0 1 0
    outer loop
      vertex 0 95 0
      vertex 47.555 95 3
      vertex 108 95 0
    endloop
  endfacet
  facet normal -0.866025 -0.5 0
    outer loop
      vertex 37.444 22.0259 3
      vertex 26.4311 41.1009 29.3
      vertex 26.4311 41.1009 3
    endloop
  endfacet
  facet normal -0.866025 -0.5 0
    outer loop
      vertex 26.4311 41.1009 29.3
      vertex 37.444 22.0259 3
      vertex 37.444 22.0259 29.3
    endloop
  endfacet
  facet normal 0.866025 -0.5 0
    outer loop
      vertex 0 33.4709 29.3
      vertex 4.40518 41.1009 3
      vertex 4.40518 41.1009 29.3
    endloop
  endfacet
  facet normal 0.866025 -0.5 0
    outer loop
      vertex 4.40518 41.1009 3
      vertex 0 33.4709 29.3
      vertex 0 33.4709 3
    endloop
  endfacet
  facet normal 0 -1 0
    outer loop
      vertex 4.40518 41.1009 3
      vertex 26.4311 41.1009 29.3
      vertex 4.40518 41.1009 29.3
    endloop
  endfacet
  facet normal 0 -1 -0
    outer loop
      vertex 26.4311 41.1009 29.3
      vertex 4.40518 41.1009 3
      vertex 26.4311 41.1009 3
    endloop
  endfacet
  facet normal -0.866025 0.5 0
    outer loop
      vertex 26.4311 2.95091 3
      vertex 37.444 22.0259 29.3
      vertex 37.444 22.0259 3
    endloop
  endfacet
  facet normal -0.866025 0.5 0
    outer loop
      vertex 37.444 22.0259 29.3
      vertex 26.4311 2.95091 3
      vertex 26.4311 2.95091 29.3
    endloop
  endfacet
  facet normal -0 0 1
    outer loop
      vertex 0 33.4709 3
      vertex 37.444 22.0259 3
      vertex 26.4311 41.1009 3
    endloop
  endfacet
  facet normal 0 0 1
    outer loop
      vertex 0 33.4709 3
      vertex 26.4311 41.1009 3
      vertex 4.40518 41.1009 3
    endloop
  endfacet
  facet normal 0 0 1
    outer loop
      vertex 0 10.5809 3
      vertex 37.444 22.0259 3
      vertex 0 33.4709 3
    endloop
  endfacet
  facet normal 0 0 1
    outer loop
      vertex 37.444 22.0259 3
      vertex 0 10.5809 3
      vertex 26.4311 2.95091 3
    endloop
  endfacet
  facet normal 0 0 1
    outer loop
      vertex 26.4311 2.95091 3
      vertex 0 10.5809 3
      vertex 4.40518 2.95091 3
    endloop
  endfacet
  facet normal 0 1 -0
    outer loop
      vertex 26.4311 2.95091 3
      vertex 4.40518 2.95091 29.3
      vertex 26.4311 2.95091 29.3
    endloop
  endfacet
  facet normal 0 1 0
    outer loop
      vertex 4.40518 2.95091 29.3
      vertex 26.4311 2.95091 3
      vertex 4.40518 2.95091 3
    endloop
  endfacet
  facet normal 0.866025 0.5 0
    outer loop
      vertex 4.40518 2.95091 29.3
      vertex 0 10.5809 3
      vertex 0 10.5809 29.3
    endloop
  endfacet
  facet normal 0.866025 0.5 0
    outer loop
      vertex 0 10.5809 3
      vertex 4.40518 2.95091 29.3
      vertex 4.40518 2.95091 3
    endloop
  endfacet
  facet normal -0.866025 -0.5 0
    outer loop
      vertex 37.444 72.9741 3
      vertex 26.4311 92.0491 29.3
      vertex 26.4311 92.0491 3
    endloop
  endfacet
  facet normal -0.866025 -0.5 0
    outer loop
      vertex 26.4311 92.0491 29.3
      vertex 37.444 72.9741 3
      vertex 37.444 72.9741 29.3
    endloop
  endfacet
  facet normal 0.866025 -0.5 0
    outer loop
      vertex 0 84.4191 29.3
      vertex 4.40518 92.0491 3
      vertex 4.40518 92.0491 29.3
    endloop
  endfacet
  facet normal 0.866025 -0.5 0
    outer loop
      vertex 4.40518 92.0491 3
      vertex 0 84.4191 29.3
      vertex 0 84.4191 3
    endloop
  endfacet
  facet normal 0 -1 0
    outer loop
      vertex 4.40518 92.0491 3
      vertex 26.4311 92.0491 29.3
      vertex 4.40518 92.0491 29.3
    endloop
  endfacet
  facet normal 0 -1 -0
    outer loop
      vertex 26.4311 92.0491 29.3
      vertex 4.40518 92.0491 3
      vertex 26.4311 92.0491 3
    endloop
  endfacet
  facet normal 0.866025 0.5 0
    outer loop
      vertex 4.40518 53.8991 29.3
      vertex 0 61.5291 3
      vertex 0 61.5291 29.3
    endloop
  endfacet
  facet normal 0.866025 0.5 0
    outer loop
      vertex 0 61.5291 3
      vertex 4.40518 53.8991 29.3
      vertex 4.40518 53.8991 3
    endloop
  endfacet
  facet normal -0.866025 0.5 0
    outer loop
      vertex 26.4311 53.8991 3
      vertex 37.444 72.9741 29.3
      vertex 37.444 72.9741 3
    endloop
  endfacet
  facet normal -0.866025 0.5 0
    outer loop
      vertex 37.444 72.9741 29.3
      vertex 26.4311 53.8991 3
      vertex 26.4311 53.8991 29.3
    endloop
  endfacet
  facet normal -0 0 1
    outer loop
      vertex 0 84.4191 3
      vertex 37.444 72.9741 3
      vertex 26.4311 92.0491 3
    endloop
  endfacet
  facet normal 0 0 1
    outer loop
      vertex 0 84.4191 3
      vertex 26.4311 92.0491 3
      vertex 4.40518 92.0491 3
    endloop
  endfacet
  facet normal 0 0 1
    outer loop
      vertex 0 61.5291 3
      vertex 37.444 72.9741 3
      vertex 0 84.4191 3
    endloop
  endfacet
  facet normal 0 0 1
    outer loop
      vertex 37.444 72.9741 3
      vertex 0 61.5291 3
      vertex 26.4311 53.8991 3
    endloop
  endfacet
  facet normal 0 0 1
    outer loop
      vertex 26.4311 53.8991 3
      vertex 0 61.5291 3
      vertex 4.40518 53.8991 3
    endloop
  endfacet
  facet normal 0 1 -0
    outer loop
      vertex 26.4311 53.8991 3
      vertex 4.40518 53.8991 29.3
      vertex 26.4311 53.8991 29.3
    endloop
  endfacet
  facet normal 0 1 0
    outer loop
      vertex 4.40518 53.8991 29.3
      vertex 26.4311 53.8991 3
      vertex 4.40518 53.8991 3
    endloop
  endfacet
  facet normal 0.866025 0.5 0
    outer loop
      vertex 81.5689 28.425 29.3
      vertex 70.5559 47.5 3
      vertex 70.5559 47.5 29.3
    endloop
  endfacet
  facet normal 0.866025 0.5 0
    outer loop
      vertex 70.5559 47.5 3
      vertex 81.5689 28.425 29.3
      vertex 81.5689 28.425 3
    endloop
  endfacet
  facet normal 0 1 -0
    outer loop
      vertex 103.595 28.425 3
      vertex 81.5689 28.425 29.3
      vertex 103.595 28.425 29.3
    endloop
  endfacet
  facet normal 0 1 0
    outer loop
      vertex 81.5689 28.425 29.3
      vertex 103.595 28.425 3
      vertex 81.5689 28.425 3
    endloop
  endfacet
  facet normal -0.866025 0.5 0
    outer loop
      vertex 103.595 28.425 3
      vertex 108 36.055 29.3
      vertex 108 36.055 3
    endloop
  endfacet
  facet normal -0.866025 0.5 0
    outer loop
      vertex 108 36.055 29.3
      vertex 103.595 28.425 3
      vertex 103.595 28.425 29.3
    endloop
  endfacet
  facet normal 0.866025 -0.5 0
    outer loop
      vertex 70.5559 47.5 29.3
      vertex 81.5689 66.575 3
      vertex 81.5689 66.575 29.3
    endloop
  endfacet
  facet normal 0.866025 -0.5 0
    outer loop
      vertex 81.5689 66.575 3
      vertex 70.5559 47.5 29.3
      vertex 70.5559 47.5 3
    endloop
  endfacet
  facet normal -0 0 1
    outer loop
      vertex 81.5689 66.575 3
      vertex 108 58.945 3
      vertex 103.595 66.575 3
    endloop
  endfacet
  facet normal 0 0 1
    outer loop
      vertex 70.5559 47.5 3
      vertex 108 58.945 3
      vertex 81.5689 66.575 3
    endloop
  endfacet
  facet normal 0 0 1
    outer loop
      vertex 108 58.945 3
      vertex 70.5559 47.5 3
      vertex 108 36.055 3
    endloop
  endfacet
  facet normal 0 0 1
    outer loop
      vertex 108 36.055 3
      vertex 81.5689 28.425 3
      vertex 103.595 28.425 3
    endloop
  endfacet
  facet normal 0 0 1
    outer loop
      vertex 108 36.055 3
      vertex 70.5559 47.5 3
      vertex 81.5689 28.425 3
    endloop
  endfacet
  facet normal 0 -1 0
    outer loop
      vertex 81.5689 66.575 3
      vertex 103.595 66.575 29.3
      vertex 81.5689 66.575 29.3
    endloop
  endfacet
  facet normal 0 -1 -0
    outer loop
      vertex 103.595 66.575 29.3
      vertex 81.5689 66.575 3
      vertex 103.595 66.575 3
    endloop
  endfacet
  facet normal -0.866025 -0.5 0
    outer loop
      vertex 108 58.945 3
      vertex 103.595 66.575 29.3
      vertex 103.595 66.575 3
    endloop
  endfacet
  facet normal -0.866025 -0.5 0
    outer loop
      vertex 103.595 66.575 29.3
      vertex 108 58.945 3
      vertex 108 58.945 29.3
    endloop
  endfacet
  facet normal 0 0 1
    outer loop
      vertex 78.075 26.4311 3
      vertex 70.445 0 3
      vertex 78.075 4.40518 3
    endloop
  endfacet
  facet normal 0 0 1
    outer loop
      vertex 59 37.444 3
      vertex 70.445 0 3
      vertex 78.075 26.4311 3
    endloop
  endfacet
  facet normal 0 0 1
    outer loop
      vertex 59 37.444 3
      vertex 47.555 0 3
      vertex 70.445 0 3
    endloop
  endfacet
  facet normal -0 0 1
    outer loop
      vertex 39.925 26.4311 3
      vertex 47.555 0 3
      vertex 59 37.444 3
    endloop
  endfacet
  facet normal 0 0 1
    outer loop
      vertex 47.555 0 3
      vertex 39.925 26.4311 3
      vertex 39.925 4.40518 3
    endloop
  endfacet
  facet normal 0.5 -0.866025 0
    outer loop
      vertex 39.925 26.4311 3
      vertex 59 37.444 29.3
      vertex 39.925 26.4311 29.3
    endloop
  endfacet
  facet normal 0.5 -0.866025 0
    outer loop
      vertex 59 37.444 29.3
      vertex 39.925 26.4311 3
      vertex 59 37.444 3
    endloop
  endfacet
  facet normal 1 -0 0
    outer loop
      vertex 39.925 4.40518 29.3
      vertex 39.925 26.4311 3
      vertex 39.925 26.4311 29.3
    endloop
  endfacet
  facet normal 1 0 0
    outer loop
      vertex 39.925 26.4311 3
      vertex 39.925 4.40518 29.3
      vertex 39.925 4.40518 3
    endloop
  endfacet
  facet normal 0.5 0.866025 -0
    outer loop
      vertex 47.555 0 3
      vertex 39.925 4.40518 29.3
      vertex 47.555 0 29.3
    endloop
  endfacet
  facet normal 0.5 0.866025 0
    outer loop
      vertex 39.925 4.40518 29.3
      vertex 47.555 0 3
      vertex 39.925 4.40518 3
    endloop
  endfacet
  facet normal -0.5 -0.866025 0
    outer loop
      vertex 59 37.444 3
      vertex 78.075 26.4311 29.3
      vertex 59 37.444 29.3
    endloop
  endfacet
  facet normal -0.5 -0.866025 -0
    outer loop
      vertex 78.075 26.4311 29.3
      vertex 59 37.444 3
      vertex 78.075 26.4311 3
    endloop
  endfacet
  facet normal -1 0 0
    outer loop
      vertex 78.075 4.40518 3
      vertex 78.075 26.4311 29.3
      vertex 78.075 26.4311 3
    endloop
  endfacet
  facet normal -1 -0 0
    outer loop
      vertex 78.075 26.4311 29.3
      vertex 78.075 4.40518 3
      vertex 78.075 4.40518 29.3
    endloop
  endfacet
  facet normal -0.5 0.866025 0
    outer loop
      vertex 78.075 4.40518 3
      vertex 70.445 0 29.3
      vertex 78.075 4.40518 29.3
    endloop
  endfacet
  facet normal -0.5 0.866025 0
    outer loop
      vertex 70.445 0 29.3
      vertex 78.075 4.40518 3
      vertex 70.445 0 3
    endloop
  endfacet
  facet normal -0.5 0.866025 0
    outer loop
      vertex 78.075 68.5689 3
      vertex 59 57.5559 29.3
      vertex 78.075 68.5689 29.3
    endloop
  endfacet
  facet normal -0.5 0.866025 0
    outer loop
      vertex 59 57.5559 29.3
      vertex 78.075 68.5689 3
      vertex 59 57.5559 3
    endloop
  endfacet
  facet normal -0.5 -0.866025 0
    outer loop
      vertex 70.445 95 3
      vertex 78.075 90.5948 29.3
      vertex 70.445 95 29.3
    endloop
  endfacet
  facet normal -0.5 -0.866025 -0
    outer loop
      vertex 78.075 90.5948 29.3
      vertex 70.445 95 3
      vertex 78.075 90.5948 3
    endloop
  endfacet
  facet normal -1 0 0
    outer loop
      vertex 78.075 68.5689 3
      vertex 78.075 90.5948 29.3
      vertex 78.075 90.5948 3
    endloop
  endfacet
  facet normal -1 -0 0
    outer loop
      vertex 78.075 90.5948 29.3
      vertex 78.075 68.5689 3
      vertex 78.075 68.5689 29.3
    endloop
  endfacet
  facet normal 0 0 1
    outer loop
      vertex 70.445 95 3
      vertex 78.075 68.5689 3
      vertex 78.075 90.5948 3
    endloop
  endfacet
  facet normal 0 0 1
    outer loop
      vertex 70.445 95 3
      vertex 59 57.5559 3
      vertex 78.075 68.5689 3
    endloop
  endfacet
  facet normal -0 0 1
    outer loop
      vertex 47.555 95 3
      vertex 59 57.5559 3
      vertex 70.445 95 3
    endloop
  endfacet
  facet normal 0 0 1
    outer loop
      vertex 39.925 68.5689 3
      vertex 47.555 95 3
      vertex 39.925 90.5948 3
    endloop
  endfacet
  facet normal 0 0 1
    outer loop
      vertex 47.555 95 3
      vertex 39.925 68.5689 3
      vertex 59 57.5559 3
    endloop
  endfacet
  facet normal 0.5 0.866025 -0
    outer loop
      vertex 59 57.5559 3
      vertex 39.925 68.5689 29.3
      vertex 59 57.5559 29.3
    endloop
  endfacet
  facet normal 0.5 0.866025 0
    outer loop
      vertex 39.925 68.5689 29.3
      vertex 59 57.5559 3
      vertex 39.925 68.5689 3
    endloop
  endfacet
  facet normal 1 -0 0
    outer loop
      vertex 39.925 68.5689 29.3
      vertex 39.925 90.5948 3
      vertex 39.925 90.5948 29.3
    endloop
  endfacet
  facet normal 1 0 0
    outer loop
      vertex 39.925 90.5948 3
      vertex 39.925 68.5689 29.3
      vertex 39.925 68.5689 3
    endloop
  endfacet
  facet normal 0.5 -0.866025 0
    outer loop
      vertex 39.925 90.5948 3
      vertex 47.555 95 29.3
      vertex 39.925 90.5948 29.3
    endloop
  endfacet
  facet normal 0.5 -0.866025 0
    outer loop
      vertex 47.555 95 29.3
      vertex 39.925 90.5948 3
      vertex 47.555 95 3
    endloop
  endfacet
  facet normal -0.809018 -0.587784 0
    outer loop
      vertex 60.7476 51.2095 25.3
      vertex 59.6131 52.771 29.3
      vertex 59.6131 52.771 25.3
    endloop
  endfacet
  facet normal -0.809018 -0.587784 0
    outer loop
      vertex 59.6131 52.771 29.3
      vertex 60.7476 51.2095 25.3
      vertex 60.7476 51.2095 29.3
    endloop
  endfacet
  facet normal -0.992115 -0.125333 0
    outer loop
      vertex 61.7 47.5 25.3
      vertex 61.4581 49.4149 29.3
      vertex 61.4581 49.4149 25.3
    endloop
  endfacet
  facet normal -0.992115 -0.125333 0
    outer loop
      vertex 61.4581 49.4149 29.3
      vertex 61.7 47.5 25.3
      vertex 61.7 47.5 29.3
    endloop
  endfacet
  facet normal 0.968583 0.248689 0
    outer loop
      vertex 46.8407 44.6654 29.3
      vertex 46.3607 46.5349 25.3
      vertex 46.3607 46.5349 29.3
    endloop
  endfacet
  facet normal 0.968583 0.248689 0
    outer loop
      vertex 46.3607 46.5349 25.3
      vertex 46.8407 44.6654 29.3
      vertex 46.8407 44.6654 25.3
    endloop
  endfacet
  facet normal -0.637424 -0.770514 0
    outer loop
      vertex 58.1259 54.0013 25.3
      vertex 59.6131 52.771 29.3
      vertex 58.1259 54.0013 29.3
    endloop
  endfacet
  facet normal -0.637424 -0.770514 -0
    outer loop
      vertex 59.6131 52.771 29.3
      vertex 58.1259 54.0013 25.3
      vertex 59.6131 52.771 25.3
    endloop
  endfacet
  facet normal 0.535826 -0.844329 0
    outer loop
      vertex 49.0918 53.433 25.3
      vertex 50.7215 54.4672 29.3
      vertex 49.0918 53.433 29.3
    endloop
  endfacet
  facet normal 0.535826 -0.844329 0
    outer loop
      vertex 50.7215 54.4672 29.3
      vertex 49.0918 53.433 25.3
      vertex 50.7215 54.4672 25.3
    endloop
  endfacet
  facet normal 0.728969 -0.684547 0
    outer loop
      vertex 47.7706 52.0259 29.3
      vertex 49.0918 53.433 25.3
      vertex 49.0918 53.433 29.3
    endloop
  endfacet
  facet normal 0.728969 -0.684547 0
    outer loop
      vertex 49.0918 53.433 25.3
      vertex 47.7706 52.0259 29.3
      vertex 47.7706 52.0259 25.3
    endloop
  endfacet
  facet normal -0.425779 0.904827 0
    outer loop
      vertex 58.1259 40.9987 25.3
      vertex 56.3794 40.1769 29.3
      vertex 58.1259 40.9987 29.3
    endloop
  endfacet
  facet normal -0.425779 0.904827 0
    outer loop
      vertex 56.3794 40.1769 29.3
      vertex 58.1259 40.9987 25.3
      vertex 56.3794 40.1769 25.3
    endloop
  endfacet
  facet normal -0.929776 -0.368126 0
    outer loop
      vertex 61.4581 49.4149 25.3
      vertex 60.7476 51.2095 29.3
      vertex 60.7476 51.2095 25.3
    endloop
  endfacet
  facet normal -0.929776 -0.368126 0
    outer loop
      vertex 60.7476 51.2095 29.3
      vertex 61.4581 49.4149 25.3
      vertex 61.4581 49.4149 29.3
    endloop
  endfacet
  facet normal 0.062792 -0.998027 0
    outer loop
      vertex 52.5572 55.0636 25.3
      vertex 54.4835 55.1848 29.3
      vertex 52.5572 55.0636 29.3
    endloop
  endfacet
  facet normal 0.062792 -0.998027 0
    outer loop
      vertex 54.4835 55.1848 29.3
      vertex 52.5572 55.0636 25.3
      vertex 54.4835 55.1848 25.3
    endloop
  endfacet
  facet normal -0.42578 -0.904827 0
    outer loop
      vertex 56.3794 54.8231 25.3
      vertex 58.1259 54.0013 29.3
      vertex 56.3794 54.8231 29.3
    endloop
  endfacet
  facet normal -0.42578 -0.904827 -0
    outer loop
      vertex 58.1259 54.0013 29.3
      vertex 56.3794 54.8231 25.3
      vertex 58.1259 54.0013 25.3
    endloop
  endfacet
  facet normal 1 -0 0
    outer loop
      vertex 46.3607 46.5349 29.3
      vertex 46.3607 48.4651 25.3
      vertex 46.3607 48.4651 29.3
    endloop
  endfacet
  facet normal 1 0 0
    outer loop
      vertex 46.3607 48.4651 25.3
      vertex 46.3607 46.5349 29.3
      vertex 46.3607 46.5349 25.3
    endloop
  endfacet
  facet normal 0.876307 -0.481753 0
    outer loop
      vertex 46.8407 50.3346 29.3
      vertex 47.7706 52.0259 25.3
      vertex 47.7706 52.0259 29.3
    endloop
  endfacet
  facet normal 0.876307 -0.481753 0
    outer loop
      vertex 47.7706 52.0259 25.3
      vertex 46.8407 50.3346 29.3
      vertex 46.8407 50.3346 25.3
    endloop
  endfacet
  facet normal 0.309017 -0.951056 0
    outer loop
      vertex 50.7215 54.4672 25.3
      vertex 52.5572 55.0636 29.3
      vertex 50.7215 54.4672 29.3
    endloop
  endfacet
  facet normal 0.309017 -0.951056 0
    outer loop
      vertex 52.5572 55.0636 29.3
      vertex 50.7215 54.4672 25.3
      vertex 52.5572 55.0636 25.3
    endloop
  endfacet
  facet normal 0.535827 0.844328 -0
    outer loop
      vertex 50.7215 40.5328 25.3
      vertex 49.0918 41.567 29.3
      vertex 50.7215 40.5328 29.3
    endloop
  endfacet
  facet normal 0.535827 0.844328 0
    outer loop
      vertex 49.0918 41.567 29.3
      vertex 50.7215 40.5328 25.3
      vertex 49.0918 41.567 25.3
    endloop
  endfacet
  facet normal 0.876307 0.481754 0
    outer loop
      vertex 47.7706 42.9741 29.3
      vertex 46.8407 44.6654 25.3
      vertex 46.8407 44.6654 29.3
    endloop
  endfacet
  facet normal 0.876307 0.481754 0
    outer loop
      vertex 46.8407 44.6654 25.3
      vertex 47.7706 42.9741 29.3
      vertex 47.7706 42.9741 25.3
    endloop
  endfacet
  facet normal -0.809018 0.587784 0
    outer loop
      vertex 59.6131 42.229 25.3
      vertex 60.7476 43.7905 29.3
      vertex 60.7476 43.7905 25.3
    endloop
  endfacet
  facet normal -0.809018 0.587784 0
    outer loop
      vertex 60.7476 43.7905 29.3
      vertex 59.6131 42.229 25.3
      vertex 59.6131 42.229 29.3
    endloop
  endfacet
  facet normal -0.187381 -0.982287 0
    outer loop
      vertex 54.4835 55.1848 25.3
      vertex 56.3794 54.8231 29.3
      vertex 54.4835 55.1848 29.3
    endloop
  endfacet
  facet normal -0.187381 -0.982287 -0
    outer loop
      vertex 56.3794 54.8231 29.3
      vertex 54.4835 55.1848 25.3
      vertex 56.3794 54.8231 25.3
    endloop
  endfacet
  facet normal 0.968583 -0.24869 0
    outer loop
      vertex 46.3607 48.4651 29.3
      vertex 46.8407 50.3346 25.3
      vertex 46.8407 50.3346 29.3
    endloop
  endfacet
  facet normal 0.968583 -0.24869 0
    outer loop
      vertex 46.8407 50.3346 25.3
      vertex 46.3607 48.4651 29.3
      vertex 46.3607 48.4651 25.3
    endloop
  endfacet
  facet normal -0.992115 0.125333 0
    outer loop
      vertex 61.4581 45.5851 25.3
      vertex 61.7 47.5 29.3
      vertex 61.7 47.5 25.3
    endloop
  endfacet
  facet normal -0.992115 0.125333 0
    outer loop
      vertex 61.7 47.5 29.3
      vertex 61.4581 45.5851 25.3
      vertex 61.4581 45.5851 29.3
    endloop
  endfacet
  facet normal 0 0 1
    outer loop
      vertex 61.4581 49.4149 25.3
      vertex 61.4581 45.5851 25.3
      vertex 61.7 47.5 25.3
    endloop
  endfacet
  facet normal 0 0 1
    outer loop
      vertex 60.7476 51.2095 25.3
      vertex 61.4581 45.5851 25.3
      vertex 61.4581 49.4149 25.3
    endloop
  endfacet
  facet normal 0 0 1
    outer loop
      vertex 60.7476 51.2095 25.3
      vertex 60.7476 43.7905 25.3
      vertex 61.4581 45.5851 25.3
    endloop
  endfacet
  facet normal 0 0 1
    outer loop
      vertex 59.6131 52.771 25.3
      vertex 60.7476 43.7905 25.3
      vertex 60.7476 51.2095 25.3
    endloop
  endfacet
  facet normal 0 0 1
    outer loop
      vertex 59.6131 52.771 25.3
      vertex 59.6131 42.229 25.3
      vertex 60.7476 43.7905 25.3
    endloop
  endfacet
  facet normal 0 0 1
    outer loop
      vertex 58.1259 54.0013 25.3
      vertex 59.6131 42.229 25.3
      vertex 59.6131 52.771 25.3
    endloop
  endfacet
  facet normal 0 0 1
    outer loop
      vertex 58.1259 54.0013 25.3
      vertex 58.1259 40.9987 25.3
      vertex 59.6131 42.229 25.3
    endloop
  endfacet
  facet normal 0 0 1
    outer loop
      vertex 56.3794 54.8231 25.3
      vertex 58.1259 40.9987 25.3
      vertex 58.1259 54.0013 25.3
    endloop
  endfacet
  facet normal 0 0 1
    outer loop
      vertex 56.3794 54.8231 25.3
      vertex 56.3794 40.1769 25.3
      vertex 58.1259 40.9987 25.3
    endloop
  endfacet
  facet normal 0 0 1
    outer loop
      vertex 54.4835 55.1848 25.3
      vertex 56.3794 40.1769 25.3
      vertex 56.3794 54.8231 25.3
    endloop
  endfacet
  facet normal 0 0 1
    outer loop
      vertex 54.4835 55.1848 25.3
      vertex 54.4835 39.8152 25.3
      vertex 56.3794 40.1769 25.3
    endloop
  endfacet
  facet normal -0 0 1
    outer loop
      vertex 52.5572 55.0636 25.3
      vertex 54.4835 39.8152 25.3
      vertex 54.4835 55.1848 25.3
    endloop
  endfacet
  facet normal 0 0 1
    outer loop
      vertex 52.5572 55.0636 25.3
      vertex 52.5572 39.9364 25.3
      vertex 54.4835 39.8152 25.3
    endloop
  endfacet
  facet normal -0 0 1
    outer loop
      vertex 50.7215 54.4672 25.3
      vertex 52.5572 39.9364 25.3
      vertex 52.5572 55.0636 25.3
    endloop
  endfacet
  facet normal 0 0 1
    outer loop
      vertex 50.7215 54.4672 25.3
      vertex 50.7215 40.5328 25.3
      vertex 52.5572 39.9364 25.3
    endloop
  endfacet
  facet normal -0 0 1
    outer loop
      vertex 49.0918 53.433 25.3
      vertex 50.7215 40.5328 25.3
      vertex 50.7215 54.4672 25.3
    endloop
  endfacet
  facet normal 0 0 1
    outer loop
      vertex 49.0918 53.433 25.3
      vertex 49.0918 41.567 25.3
      vertex 50.7215 40.5328 25.3
    endloop
  endfacet
  facet normal -0 0 1
    outer loop
      vertex 47.7706 52.0259 25.3
      vertex 49.0918 41.567 25.3
      vertex 49.0918 53.433 25.3
    endloop
  endfacet
  facet normal 0 0 1
    outer loop
      vertex 47.7706 52.0259 25.3
      vertex 47.7706 42.9741 25.3
      vertex 49.0918 41.567 25.3
    endloop
  endfacet
  facet normal -0 0 1
    outer loop
      vertex 46.8407 50.3346 25.3
      vertex 47.7706 42.9741 25.3
      vertex 47.7706 52.0259 25.3
    endloop
  endfacet
  facet normal 0 0 1
    outer loop
      vertex 46.8407 50.3346 25.3
      vertex 46.8407 44.6654 25.3
      vertex 47.7706 42.9741 25.3
    endloop
  endfacet
  facet normal -0 0 1
    outer loop
      vertex 46.3607 48.4651 25.3
      vertex 46.8407 44.6654 25.3
      vertex 46.8407 50.3346 25.3
    endloop
  endfacet
  facet normal 0 0 1
    outer loop
      vertex 46.8407 44.6654 25.3
      vertex 46.3607 48.4651 25.3
      vertex 46.3607 46.5349 25.3
    endloop
  endfacet
  facet normal 0.728969 0.684547 0
    outer loop
      vertex 49.0918 41.567 29.3
      vertex 47.7706 42.9741 25.3
      vertex 47.7706 42.9741 29.3
    endloop
  endfacet
  facet normal 0.728969 0.684547 0
    outer loop
      vertex 47.7706 42.9741 25.3
      vertex 49.0918 41.567 29.3
      vertex 49.0918 41.567 25.3
    endloop
  endfacet
  facet normal -0.637425 0.770513 0
    outer loop
      vertex 59.6131 42.229 25.3
      vertex 58.1259 40.9987 29.3
      vertex 59.6131 42.229 29.3
    endloop
  endfacet
  facet normal -0.637425 0.770513 0
    outer loop
      vertex 58.1259 40.9987 29.3
      vertex 59.6131 42.229 25.3
      vertex 58.1259 40.9987 25.3
    endloop
  endfacet
  facet normal -0.929776 0.368127 0
    outer loop
      vertex 60.7476 43.7905 25.3
      vertex 61.4581 45.5851 29.3
      vertex 61.4581 45.5851 25.3
    endloop
  endfacet
  facet normal -0.929776 0.368127 0
    outer loop
      vertex 61.4581 45.5851 29.3
      vertex 60.7476 43.7905 25.3
      vertex 60.7476 43.7905 29.3
    endloop
  endfacet
  facet normal -0.187381 0.982287 0
    outer loop
      vertex 56.3794 40.1769 25.3
      vertex 54.4835 39.8152 29.3
      vertex 56.3794 40.1769 29.3
    endloop
  endfacet
  facet normal -0.187381 0.982287 0
    outer loop
      vertex 54.4835 39.8152 29.3
      vertex 56.3794 40.1769 25.3
      vertex 54.4835 39.8152 25.3
    endloop
  endfacet
  facet normal 0.06279 0.998027 -0
    outer loop
      vertex 54.4835 39.8152 25.3
      vertex 52.5572 39.9364 29.3
      vertex 54.4835 39.8152 29.3
    endloop
  endfacet
  facet normal 0.06279 0.998027 0
    outer loop
      vertex 52.5572 39.9364 29.3
      vertex 54.4835 39.8152 25.3
      vertex 52.5572 39.9364 25.3
    endloop
  endfacet
  facet normal 0.309017 0.951056 -0
    outer loop
      vertex 52.5572 39.9364 25.3
      vertex 50.7215 40.5328 29.3
      vertex 52.5572 39.9364 29.3
    endloop
  endfacet
  facet normal 0.309017 0.951056 0
    outer loop
      vertex 50.7215 40.5328 29.3
      vertex 52.5572 39.9364 25.3
      vertex 50.7215 40.5328 25.3
    endloop
  endfacet
endsolid OpenSCAD_Model
