solid OpenSCAD_Model
  facet normal 0 1 -0
    outer loop
      vertex 34.33 3 18.05
      vertex 30.915 3 31.45
      vertex 34.33 3 31.45
    endloop
  endfacet
  facet normal 0 1 0
    outer loop
      vertex 30.915 3 31.45
      vertex 34.33 3 18.05
      vertex 30.915 3 18.05
    endloop
  endfacet
  facet normal 0 1 -0
    outer loop
      vertex 10.425 3 18.05
      vertex 7.01 3 31.45
      vertex 10.425 3 31.45
    endloop
  endfacet
  facet normal 0 1 0
    outer loop
      vertex 7.01 3 31.45
      vertex 10.425 3 18.05
      vertex 7.01 3 18.05
    endloop
  endfacet
  facet normal 0 0 1
    outer loop
      vertex 10.425 110 31.45
      vertex 7.01 107 31.45
      vertex 10.425 107 31.45
    endloop
  endfacet
  facet normal 0 0 1
    outer loop
      vertex 0 110 31.45
      vertex 7.01 72.68 31.45
      vertex 7.01 107 31.45
    endloop
  endfacet
  facet normal 0 0 1
    outer loop
      vertex 7.01 72.68 31.45
      vertex 0 110 31.45
      vertex 7.01 37.32 31.45
    endloop
  endfacet
  facet normal 0 0 1
    outer loop
      vertex 0 0 31.45
      vertex 7.01 37.32 31.45
      vertex 0 110 31.45
    endloop
  endfacet
  facet normal -0 0 1
    outer loop
      vertex 0 110 31.45
      vertex 7.01 107 31.45
      vertex 10.425 110 31.45
    endloop
  endfacet
  facet normal 0 0 1
    outer loop
      vertex 44.755 110 31.45
      vertex 41.34 107 31.45
      vertex 44.755 107 31.45
    endloop
  endfacet
  facet normal 0 0 1
    outer loop
      vertex 34.33 72.68 31.45
      vertex 41.34 72.68 31.45
      vertex 41.34 107 31.45
    endloop
  endfacet
  facet normal 0 0 1
    outer loop
      vertex 41.34 72.68 31.45
      vertex 34.33 72.68 31.45
      vertex 41.34 37.32 31.45
    endloop
  endfacet
  facet normal 0 0 1
    outer loop
      vertex 41.34 37.32 31.45
      vertex 34.33 37.32 31.45
      vertex 41.34 3 31.45
    endloop
  endfacet
  facet normal 0 0 1
    outer loop
      vertex 34.33 72.68 31.45
      vertex 41.34 107 31.45
      vertex 34.33 107 31.45
    endloop
  endfacet
  facet normal 0 0 1
    outer loop
      vertex 44.755 110 31.45
      vertex 34.33 107 31.45
      vertex 41.34 107 31.45
    endloop
  endfacet
  facet normal -0 0 1
    outer loop
      vertex 30.915 110 31.45
      vertex 34.33 107 31.45
      vertex 44.755 110 31.45
    endloop
  endfacet
  facet normal 0 0 1
    outer loop
      vertex 34.33 107 31.45
      vertex 30.915 110 31.45
      vertex 30.915 107 31.45
    endloop
  endfacet
  facet normal 0 0 1
    outer loop
      vertex 79.085 110 31.45
      vertex 75.67 107 31.45
      vertex 79.085 107 31.45
    endloop
  endfacet
  facet normal 0 0 1
    outer loop
      vertex 68.66 72.68 31.45
      vertex 75.67 72.68 31.45
      vertex 75.67 107 31.45
    endloop
  endfacet
  facet normal 0 0 1
    outer loop
      vertex 64.5 64.5 31.45
      vertex 75.67 72.68 31.45
      vertex 68.66 72.68 31.45
    endloop
  endfacet
  facet normal 0 0 1
    outer loop
      vertex 75.67 37.32 31.45
      vertex 68.66 37.32 31.45
      vertex 75.67 3 31.45
    endloop
  endfacet
  facet normal 0 0 1
    outer loop
      vertex 68.66 72.68 31.45
      vertex 75.67 107 31.45
      vertex 68.66 107 31.45
    endloop
  endfacet
  facet normal 0 0 1
    outer loop
      vertex 79.085 110 31.45
      vertex 68.66 107 31.45
      vertex 75.67 107 31.45
    endloop
  endfacet
  facet normal -0 0 1
    outer loop
      vertex 65.245 110 31.45
      vertex 68.66 107 31.45
      vertex 79.085 110 31.45
    endloop
  endfacet
  facet normal 0 0 1
    outer loop
      vertex 68.66 107 31.45
      vertex 65.245 110 31.45
      vertex 65.245 107 31.45
    endloop
  endfacet
  facet normal -0 0 1
    outer loop
      vertex 75.67 72.68 31.45
      vertex 102.99 37.32 31.45
      vertex 102.99 72.68 31.45
    endloop
  endfacet
  facet normal 0 0 1
    outer loop
      vertex 102.99 37.32 31.45
      vertex 75.67 72.68 31.45
      vertex 75.67 37.32 31.45
    endloop
  endfacet
  facet normal 0 0 1
    outer loop
      vertex 102.99 72.68 31.45
      vertex 110 110 31.45
      vertex 102.99 107 31.45
    endloop
  endfacet
  facet normal -0 0 1
    outer loop
      vertex 99.575 110 31.45
      vertex 102.99 107 31.45
      vertex 110 110 31.45
    endloop
  endfacet
  facet normal 0 0 1
    outer loop
      vertex 102.99 107 31.45
      vertex 99.575 110 31.45
      vertex 99.575 107 31.45
    endloop
  endfacet
  facet normal 0 0 1
    outer loop
      vertex 110 110 31.45
      vertex 102.99 72.68 31.45
      vertex 110 0 31.45
    endloop
  endfacet
  facet normal -0 0 1
    outer loop
      vertex 102.99 37.32 31.45
      vertex 110 0 31.45
      vertex 102.99 72.68 31.45
    endloop
  endfacet
  facet normal -0 0 1
    outer loop
      vertex 102.99 3 31.45
      vertex 110 0 31.45
      vertex 102.99 37.32 31.45
    endloop
  endfacet
  facet normal 0 0 1
    outer loop
      vertex 99.575 0 31.45
      vertex 102.99 3 31.45
      vertex 99.575 3 31.45
    endloop
  endfacet
  facet normal 0 0 1
    outer loop
      vertex 102.99 3 31.45
      vertex 99.575 0 31.45
      vertex 110 0 31.45
    endloop
  endfacet
  facet normal -0 0 1
    outer loop
      vertex 75.67 3 31.45
      vertex 79.085 0 31.45
      vertex 79.085 3 31.45
    endloop
  endfacet
  facet normal 0 0 1
    outer loop
      vertex 68.66 3 31.45
      vertex 75.67 3 31.45
      vertex 68.66 37.32 31.45
    endloop
  endfacet
  facet normal -0 0 1
    outer loop
      vertex 68.66 3 31.45
      vertex 79.085 0 31.45
      vertex 75.67 3 31.45
    endloop
  endfacet
  facet normal 0 0 1
    outer loop
      vertex 65.245 0 31.45
      vertex 68.66 3 31.45
      vertex 65.245 3 31.45
    endloop
  endfacet
  facet normal 0 0 1
    outer loop
      vertex 68.66 3 31.45
      vertex 65.245 0 31.45
      vertex 79.085 0 31.45
    endloop
  endfacet
  facet normal 0 0 1
    outer loop
      vertex 75.67 72.68 31.45
      vertex 64.5 64.5 31.45
      vertex 75.67 37.32 31.45
    endloop
  endfacet
  facet normal -0 0 1
    outer loop
      vertex 64.5 45.5 31.45
      vertex 75.67 37.32 31.45
      vertex 64.5 64.5 31.45
    endloop
  endfacet
  facet normal 0 0 1
    outer loop
      vertex 75.67 37.32 31.45
      vertex 64.5 45.5 31.45
      vertex 68.66 37.32 31.45
    endloop
  endfacet
  facet normal -0 0 1
    outer loop
      vertex 45.5 45.5 31.45
      vertex 68.66 37.32 31.45
      vertex 64.5 45.5 31.45
    endloop
  endfacet
  facet normal 0 0 1
    outer loop
      vertex 45.5 45.5 31.45
      vertex 41.34 37.32 31.45
      vertex 68.66 37.32 31.45
    endloop
  endfacet
  facet normal 0 0 1
    outer loop
      vertex 41.34 37.32 31.45
      vertex 45.5 45.5 31.45
      vertex 41.34 72.68 31.45
    endloop
  endfacet
  facet normal -0 0 1
    outer loop
      vertex 41.34 3 31.45
      vertex 44.755 0 31.45
      vertex 44.755 3 31.45
    endloop
  endfacet
  facet normal 0 0 1
    outer loop
      vertex 34.33 3 31.45
      vertex 41.34 3 31.45
      vertex 34.33 37.32 31.45
    endloop
  endfacet
  facet normal -0 0 1
    outer loop
      vertex 34.33 3 31.45
      vertex 44.755 0 31.45
      vertex 41.34 3 31.45
    endloop
  endfacet
  facet normal 0 0 1
    outer loop
      vertex 30.915 0 31.45
      vertex 34.33 3 31.45
      vertex 30.915 3 31.45
    endloop
  endfacet
  facet normal 0 0 1
    outer loop
      vertex 34.33 3 31.45
      vertex 30.915 0 31.45
      vertex 44.755 0 31.45
    endloop
  endfacet
  facet normal 0 0 1
    outer loop
      vertex 41.34 37.32 31.45
      vertex 34.33 72.68 31.45
      vertex 34.33 37.32 31.45
    endloop
  endfacet
  facet normal -0 0 1
    outer loop
      vertex 7.01 72.68 31.45
      vertex 34.33 37.32 31.45
      vertex 34.33 72.68 31.45
    endloop
  endfacet
  facet normal 0 0 1
    outer loop
      vertex 34.33 37.32 31.45
      vertex 7.01 72.68 31.45
      vertex 7.01 37.32 31.45
    endloop
  endfacet
  facet normal -0 0 1
    outer loop
      vertex 7.01 3 31.45
      vertex 10.425 0 31.45
      vertex 10.425 3 31.45
    endloop
  endfacet
  facet normal 0 0 1
    outer loop
      vertex 7.01 3 31.45
      vertex 0 0 31.45
      vertex 10.425 0 31.45
    endloop
  endfacet
  facet normal 0 0 1
    outer loop
      vertex 7.01 37.32 31.45
      vertex 0 0 31.45
      vertex 7.01 3 31.45
    endloop
  endfacet
  facet normal 0 0 1
    outer loop
      vertex 68.66 72.68 31.45
      vertex 45.5 64.5 31.45
      vertex 64.5 64.5 31.45
    endloop
  endfacet
  facet normal 0 0 1
    outer loop
      vertex 45.5 64.5 31.45
      vertex 41.34 72.68 31.45
      vertex 45.5 45.5 31.45
    endloop
  endfacet
  facet normal -0 0 1
    outer loop
      vertex 41.34 72.68 31.45
      vertex 45.5 64.5 31.45
      vertex 68.66 72.68 31.45
    endloop
  endfacet
  facet normal 0 -1 0
    outer loop
      vertex 7.01 37.32 18.05
      vertex 34.33 37.32 31.45
      vertex 7.01 37.32 31.45
    endloop
  endfacet
  facet normal 0 -1 -0
    outer loop
      vertex 34.33 37.32 31.45
      vertex 7.01 37.32 18.05
      vertex 34.33 37.32 18.05
    endloop
  endfacet
  facet normal 1 -0 0
    outer loop
      vertex 7.01 3 31.45
      vertex 7.01 37.32 18.05
      vertex 7.01 37.32 31.45
    endloop
  endfacet
  facet normal 1 0 0
    outer loop
      vertex 7.01 37.32 18.05
      vertex 7.01 3 31.45
      vertex 7.01 3 18.05
    endloop
  endfacet
  facet normal 0 0 1
    outer loop
      vertex 34.33 37.32 18.05
      vertex 30.915 28.74 18.05
      vertex 34.33 3 18.05
    endloop
  endfacet
  facet normal 0 0 1
    outer loop
      vertex 34.33 37.32 18.05
      vertex 10.425 28.74 18.05
      vertex 30.915 28.74 18.05
    endloop
  endfacet
  facet normal -0 0 1
    outer loop
      vertex 7.01 37.32 18.05
      vertex 10.425 28.74 18.05
      vertex 34.33 37.32 18.05
    endloop
  endfacet
  facet normal 0 0 1
    outer loop
      vertex 7.01 3 18.05
      vertex 10.425 28.74 18.05
      vertex 7.01 37.32 18.05
    endloop
  endfacet
  facet normal 0 0 1
    outer loop
      vertex 10.425 28.74 18.05
      vertex 7.01 3 18.05
      vertex 10.425 3 18.05
    endloop
  endfacet
  facet normal 0 0 1
    outer loop
      vertex 34.33 3 18.05
      vertex 30.915 28.74 18.05
      vertex 30.915 3 18.05
    endloop
  endfacet
  facet normal -1 0 0
    outer loop
      vertex 34.33 3 18.05
      vertex 34.33 37.32 31.45
      vertex 34.33 37.32 18.05
    endloop
  endfacet
  facet normal -1 -0 0
    outer loop
      vertex 34.33 37.32 31.45
      vertex 34.33 3 18.05
      vertex 34.33 3 31.45
    endloop
  endfacet
  facet normal 0 -1 0
    outer loop
      vertex 10.425 28.74 0
      vertex 30.915 28.74 18.05
      vertex 10.425 28.74 18.05
    endloop
  endfacet
  facet normal 0 -1 -0
    outer loop
      vertex 30.915 28.74 18.05
      vertex 10.425 28.74 0
      vertex 30.915 28.74 0
    endloop
  endfacet
  facet normal 1 0 0
    outer loop
      vertex 10.425 3 31.45
      vertex 10.425 0 31.45
      vertex 10.425 3 18.05
    endloop
  endfacet
  facet normal 1 -0 0
    outer loop
      vertex 10.425 3 18.05
      vertex 10.425 28.74 0
      vertex 10.425 28.74 18.05
    endloop
  endfacet
  facet normal 1 0 0
    outer loop
      vertex 10.425 3 18.05
      vertex 10.425 0 0
      vertex 10.425 28.74 0
    endloop
  endfacet
  facet normal 1 0 0
    outer loop
      vertex 10.425 0 0
      vertex 10.425 3 18.05
      vertex 10.425 0 31.45
    endloop
  endfacet
  facet normal 0 0 -1
    outer loop
      vertex 0 0 0
      vertex 10.425 28.74 0
      vertex 10.425 0 0
    endloop
  endfacet
  facet normal -0 0 -1
    outer loop
      vertex 10.425 28.74 0
      vertex 0 0 0
      vertex 10.425 81.26 0
    endloop
  endfacet
  facet normal 0 0 -1
    outer loop
      vertex 0 110 0
      vertex 10.425 81.26 0
      vertex 0 0 0
    endloop
  endfacet
  facet normal 0 0 -1
    outer loop
      vertex 10.425 81.26 0
      vertex 0 110 0
      vertex 10.425 110 0
    endloop
  endfacet
  facet normal 0 0 -1
    outer loop
      vertex 10.425 28.74 0
      vertex 30.915 81.26 0
      vertex 30.915 28.74 0
    endloop
  endfacet
  facet normal -0 0 -1
    outer loop
      vertex 30.915 81.26 0
      vertex 10.425 28.74 0
      vertex 10.425 81.26 0
    endloop
  endfacet
  facet normal 0 0 -1
    outer loop
      vertex 30.915 28.74 0
      vertex 44.755 28.74 0
      vertex 44.755 0 0
    endloop
  endfacet
  facet normal 0 0 -1
    outer loop
      vertex 44.755 28.74 0
      vertex 30.915 28.74 0
      vertex 44.755 81.26 0
    endloop
  endfacet
  facet normal 0 0 -1
    outer loop
      vertex 30.915 28.74 0
      vertex 44.755 0 0
      vertex 30.915 0 0
    endloop
  endfacet
  facet normal 0 0 -1
    outer loop
      vertex 30.915 81.26 0
      vertex 44.755 81.26 0
      vertex 30.915 28.74 0
    endloop
  endfacet
  facet normal 0 0 -1
    outer loop
      vertex 44.755 81.26 0
      vertex 30.915 81.26 0
      vertex 44.755 110 0
    endloop
  endfacet
  facet normal -0 0 -1
    outer loop
      vertex 44.755 110 0
      vertex 30.915 81.26 0
      vertex 30.915 110 0
    endloop
  endfacet
  facet normal -0 0 -1
    outer loop
      vertex 99.575 81.26 0
      vertex 64.5 64.5 0
      vertex 79.085 81.26 0
    endloop
  endfacet
  facet normal 0 0 -1
    outer loop
      vertex 65.245 28.74 0
      vertex 45.5 45.5 0
      vertex 64.5 45.5 0
    endloop
  endfacet
  facet normal -0 0 -1
    outer loop
      vertex 45.5 45.5 0
      vertex 44.755 28.74 0
      vertex 45.5 64.5 0
    endloop
  endfacet
  facet normal 0 0 -1
    outer loop
      vertex 44.755 28.74 0
      vertex 45.5 45.5 0
      vertex 65.245 28.74 0
    endloop
  endfacet
  facet normal 0 0 -1
    outer loop
      vertex 65.245 28.74 0
      vertex 79.085 28.74 0
      vertex 79.085 0 0
    endloop
  endfacet
  facet normal 0 0 -1
    outer loop
      vertex 64.5 45.5 0
      vertex 79.085 28.74 0
      vertex 65.245 28.74 0
    endloop
  endfacet
  facet normal 0 0 -1
    outer loop
      vertex 65.245 28.74 0
      vertex 79.085 0 0
      vertex 65.245 0 0
    endloop
  endfacet
  facet normal 0 0 -1
    outer loop
      vertex 64.5 64.5 0
      vertex 99.575 81.26 0
      vertex 64.5 45.5 0
    endloop
  endfacet
  facet normal 0 0 -1
    outer loop
      vertex 79.085 81.26 0
      vertex 65.245 81.26 0
      vertex 79.085 110 0
    endloop
  endfacet
  facet normal -0 0 -1
    outer loop
      vertex 79.085 110 0
      vertex 65.245 81.26 0
      vertex 65.245 110 0
    endloop
  endfacet
  facet normal 0 0 -1
    outer loop
      vertex 64.5 45.5 0
      vertex 99.575 28.74 0
      vertex 79.085 28.74 0
    endloop
  endfacet
  facet normal 0 0 -1
    outer loop
      vertex 99.575 28.74 0
      vertex 64.5 45.5 0
      vertex 99.575 81.26 0
    endloop
  endfacet
  facet normal 0 0 -1
    outer loop
      vertex 99.575 28.74 0
      vertex 110 0 0
      vertex 99.575 0 0
    endloop
  endfacet
  facet normal 0 0 -1
    outer loop
      vertex 110 0 0
      vertex 99.575 28.74 0
      vertex 110 110 0
    endloop
  endfacet
  facet normal 0 0 -1
    outer loop
      vertex 99.575 81.26 0
      vertex 110 110 0
      vertex 99.575 28.74 0
    endloop
  endfacet
  facet normal -0 0 -1
    outer loop
      vertex 110 110 0
      vertex 99.575 81.26 0
      vertex 99.575 110 0
    endloop
  endfacet
  facet normal -0 0 -1
    outer loop
      vertex 79.085 81.26 0
      vertex 64.5 64.5 0
      vertex 65.245 81.26 0
    endloop
  endfacet
  facet normal 0 0 -1
    outer loop
      vertex 45.5 64.5 0
      vertex 65.245 81.26 0
      vertex 64.5 64.5 0
    endloop
  endfacet
  facet normal 0 0 -1
    outer loop
      vertex 45.5 64.5 0
      vertex 44.755 81.26 0
      vertex 65.245 81.26 0
    endloop
  endfacet
  facet normal 0 0 -1
    outer loop
      vertex 44.755 81.26 0
      vertex 45.5 64.5 0
      vertex 44.755 28.74 0
    endloop
  endfacet
  facet normal -1 0 0
    outer loop
      vertex 30.915 28.74 0
      vertex 30.915 3 18.05
      vertex 30.915 28.74 18.05
    endloop
  endfacet
  facet normal -1 0 0
    outer loop
      vertex 30.915 0 0
      vertex 30.915 3 18.05
      vertex 30.915 28.74 0
    endloop
  endfacet
  facet normal -1 0 0
    outer loop
      vertex 30.915 0 31.45
      vertex 30.915 3 18.05
      vertex 30.915 0 0
    endloop
  endfacet
  facet normal -1 0 0
    outer loop
      vertex 30.915 3 18.05
      vertex 30.915 0 31.45
      vertex 30.915 3 31.45
    endloop
  endfacet
  facet normal 0 1 -0
    outer loop
      vertex 68.66 3 18.05
      vertex 65.245 3 31.45
      vertex 68.66 3 31.45
    endloop
  endfacet
  facet normal 0 1 0
    outer loop
      vertex 65.245 3 31.45
      vertex 68.66 3 18.05
      vertex 65.245 3 18.05
    endloop
  endfacet
  facet normal 0 1 -0
    outer loop
      vertex 44.755 3 18.05
      vertex 41.34 3 31.45
      vertex 44.755 3 31.45
    endloop
  endfacet
  facet normal 0 1 0
    outer loop
      vertex 41.34 3 31.45
      vertex 44.755 3 18.05
      vertex 41.34 3 18.05
    endloop
  endfacet
  facet normal 0 -1 0
    outer loop
      vertex 41.34 37.32 18.05
      vertex 68.66 37.32 31.45
      vertex 41.34 37.32 31.45
    endloop
  endfacet
  facet normal 0 -1 -0
    outer loop
      vertex 68.66 37.32 31.45
      vertex 41.34 37.32 18.05
      vertex 68.66 37.32 18.05
    endloop
  endfacet
  facet normal 1 -0 0
    outer loop
      vertex 41.34 3 31.45
      vertex 41.34 37.32 18.05
      vertex 41.34 37.32 31.45
    endloop
  endfacet
  facet normal 1 0 0
    outer loop
      vertex 41.34 37.32 18.05
      vertex 41.34 3 31.45
      vertex 41.34 3 18.05
    endloop
  endfacet
  facet normal 0 0 1
    outer loop
      vertex 68.66 37.32 18.05
      vertex 65.245 28.74 18.05
      vertex 68.66 3 18.05
    endloop
  endfacet
  facet normal 0 0 1
    outer loop
      vertex 68.66 37.32 18.05
      vertex 44.755 28.74 18.05
      vertex 65.245 28.74 18.05
    endloop
  endfacet
  facet normal -0 0 1
    outer loop
      vertex 41.34 37.32 18.05
      vertex 44.755 28.74 18.05
      vertex 68.66 37.32 18.05
    endloop
  endfacet
  facet normal 0 0 1
    outer loop
      vertex 41.34 3 18.05
      vertex 44.755 28.74 18.05
      vertex 41.34 37.32 18.05
    endloop
  endfacet
  facet normal 0 0 1
    outer loop
      vertex 44.755 28.74 18.05
      vertex 41.34 3 18.05
      vertex 44.755 3 18.05
    endloop
  endfacet
  facet normal 0 0 1
    outer loop
      vertex 68.66 3 18.05
      vertex 65.245 28.74 18.05
      vertex 65.245 3 18.05
    endloop
  endfacet
  facet normal -1 0 0
    outer loop
      vertex 68.66 3 18.05
      vertex 68.66 37.32 31.45
      vertex 68.66 37.32 18.05
    endloop
  endfacet
  facet normal -1 -0 0
    outer loop
      vertex 68.66 37.32 31.45
      vertex 68.66 3 18.05
      vertex 68.66 3 31.45
    endloop
  endfacet
  facet normal 0 -1 0
    outer loop
      vertex 44.755 28.74 0
      vertex 65.245 28.74 18.05
      vertex 44.755 28.74 18.05
    endloop
  endfacet
  facet normal 0 -1 -0
    outer loop
      vertex 65.245 28.74 18.05
      vertex 44.755 28.74 0
      vertex 65.245 28.74 0
    endloop
  endfacet
  facet normal 1 0 0
    outer loop
      vertex 44.755 3 31.45
      vertex 44.755 0 31.45
      vertex 44.755 3 18.05
    endloop
  endfacet
  facet normal 1 -0 0
    outer loop
      vertex 44.755 3 18.05
      vertex 44.755 28.74 0
      vertex 44.755 28.74 18.05
    endloop
  endfacet
  facet normal 1 0 0
    outer loop
      vertex 44.755 3 18.05
      vertex 44.755 0 0
      vertex 44.755 28.74 0
    endloop
  endfacet
  facet normal 1 0 0
    outer loop
      vertex 44.755 0 0
      vertex 44.755 3 18.05
      vertex 44.755 0 31.45
    endloop
  endfacet
  facet normal -1 0 0
    outer loop
      vertex 65.245 28.74 0
      vertex 65.245 3 18.05
      vertex 65.245 28.74 18.05
    endloop
  endfacet
  facet normal -1 0 0
    outer loop
      vertex 65.245 0 0
      vertex 65.245 3 18.05
      vertex 65.245 28.74 0
    endloop
  endfacet
  facet normal -1 0 0
    outer loop
      vertex 65.245 0 31.45
      vertex 65.245 3 18.05
      vertex 65.245 0 0
    endloop
  endfacet
  facet normal -1 0 0
    outer loop
      vertex 65.245 3 18.05
      vertex 65.245 0 31.45
      vertex 65.245 3 31.45
    endloop
  endfacet
  facet normal 0 1 -0
    outer loop
      vertex 102.99 3 9.45
      vertex 99.575 3 31.45
      vertex 102.99 3 31.45
    endloop
  endfacet
  facet normal 0 1 0
    outer loop
      vertex 99.575 3 31.45
      vertex 102.99 3 9.45
      vertex 99.575 3 9.45
    endloop
  endfacet
  facet normal 0 1 -0
    outer loop
      vertex 79.085 3 9.45
      vertex 75.67 3 31.45
      vertex 79.085 3 31.45
    endloop
  endfacet
  facet normal 0 1 0
    outer loop
      vertex 75.67 3 31.45
      vertex 79.085 3 9.45
      vertex 75.67 3 9.45
    endloop
  endfacet
  facet normal 0 -1 0
    outer loop
      vertex 75.67 37.32 9.45
      vertex 102.99 37.32 31.45
      vertex 75.67 37.32 31.45
    endloop
  endfacet
  facet normal 0 -1 -0
    outer loop
      vertex 102.99 37.32 31.45
      vertex 75.67 37.32 9.45
      vertex 102.99 37.32 9.45
    endloop
  endfacet
  facet normal 1 -0 0
    outer loop
      vertex 75.67 3 31.45
      vertex 75.67 37.32 9.45
      vertex 75.67 37.32 31.45
    endloop
  endfacet
  facet normal 1 0 0
    outer loop
      vertex 75.67 37.32 9.45
      vertex 75.67 3 31.45
      vertex 75.67 3 9.45
    endloop
  endfacet
  facet normal 0 0 1
    outer loop
      vertex 102.99 37.32 9.45
      vertex 99.575 28.74 9.45
      vertex 102.99 3 9.45
    endloop
  endfacet
  facet normal 0 0 1
    outer loop
      vertex 102.99 37.32 9.45
      vertex 79.085 28.74 9.45
      vertex 99.575 28.74 9.45
    endloop
  endfacet
  facet normal -0 0 1
    outer loop
      vertex 75.67 37.32 9.45
      vertex 79.085 28.74 9.45
      vertex 102.99 37.32 9.45
    endloop
  endfacet
  facet normal 0 0 1
    outer loop
      vertex 75.67 3 9.45
      vertex 79.085 28.74 9.45
      vertex 75.67 37.32 9.45
    endloop
  endfacet
  facet normal 0 0 1
    outer loop
      vertex 79.085 28.74 9.45
      vertex 75.67 3 9.45
      vertex 79.085 3 9.45
    endloop
  endfacet
  facet normal 0 0 1
    outer loop
      vertex 102.99 3 9.45
      vertex 99.575 28.74 9.45
      vertex 99.575 3 9.45
    endloop
  endfacet
  facet normal -1 0 0
    outer loop
      vertex 102.99 3 9.45
      vertex 102.99 37.32 31.45
      vertex 102.99 37.32 9.45
    endloop
  endfacet
  facet normal -1 -0 0
    outer loop
      vertex 102.99 37.32 31.45
      vertex 102.99 3 9.45
      vertex 102.99 3 31.45
    endloop
  endfacet
  facet normal 0 -1 0
    outer loop
      vertex 79.085 28.74 0
      vertex 99.575 28.74 9.45
      vertex 79.085 28.74 9.45
    endloop
  endfacet
  facet normal 0 -1 -0
    outer loop
      vertex 99.575 28.74 9.45
      vertex 79.085 28.74 0
      vertex 99.575 28.74 0
    endloop
  endfacet
  facet normal -1 0 0
    outer loop
      vertex 99.575 28.74 0
      vertex 99.575 3 9.45
      vertex 99.575 28.74 9.45
    endloop
  endfacet
  facet normal -1 0 0
    outer loop
      vertex 99.575 0 0
      vertex 99.575 3 9.45
      vertex 99.575 28.74 0
    endloop
  endfacet
  facet normal -1 0 0
    outer loop
      vertex 99.575 0 31.45
      vertex 99.575 3 9.45
      vertex 99.575 0 0
    endloop
  endfacet
  facet normal -1 0 0
    outer loop
      vertex 99.575 3 9.45
      vertex 99.575 0 31.45
      vertex 99.575 3 31.45
    endloop
  endfacet
  facet normal 1 0 0
    outer loop
      vertex 79.085 3 31.45
      vertex 79.085 0 31.45
      vertex 79.085 3 9.45
    endloop
  endfacet
  facet normal 1 -0 0
    outer loop
      vertex 79.085 3 9.45
      vertex 79.085 28.74 0
      vertex 79.085 28.74 9.45
    endloop
  endfacet
  facet normal 1 0 0
    outer loop
      vertex 79.085 3 9.45
      vertex 79.085 0 0
      vertex 79.085 28.74 0
    endloop
  endfacet
  facet normal 1 0 0
    outer loop
      vertex 79.085 0 0
      vertex 79.085 3 9.45
      vertex 79.085 0 31.45
    endloop
  endfacet
  facet normal 0 -1 0
    outer loop
      vertex 7.01 107 5.15
      vertex 10.425 107 31.45
      vertex 7.01 107 31.45
    endloop
  endfacet
  facet normal 0 -1 -0
    outer loop
      vertex 10.425 107 31.45
      vertex 7.01 107 5.15
      vertex 10.425 107 5.15
    endloop
  endfacet
  facet normal 0 -1 0
    outer loop
      vertex 30.915 107 5.15
      vertex 34.33 107 31.45
      vertex 30.915 107 31.45
    endloop
  endfacet
  facet normal 0 -1 -0
    outer loop
      vertex 34.33 107 31.45
      vertex 30.915 107 5.15
      vertex 34.33 107 5.15
    endloop
  endfacet
  facet normal 0 1 -0
    outer loop
      vertex 34.33 72.68 5.15
      vertex 7.01 72.68 31.45
      vertex 34.33 72.68 31.45
    endloop
  endfacet
  facet normal 0 1 0
    outer loop
      vertex 7.01 72.68 31.45
      vertex 34.33 72.68 5.15
      vertex 7.01 72.68 5.15
    endloop
  endfacet
  facet normal 0 0 1
    outer loop
      vertex 10.425 107 5.15
      vertex 7.01 107 5.15
      vertex 10.425 81.26 5.15
    endloop
  endfacet
  facet normal 0 0 1
    outer loop
      vertex 30.915 81.26 5.15
      vertex 34.33 107 5.15
      vertex 30.915 107 5.15
    endloop
  endfacet
  facet normal 0 0 1
    outer loop
      vertex 34.33 107 5.15
      vertex 30.915 81.26 5.15
      vertex 34.33 72.68 5.15
    endloop
  endfacet
  facet normal -0 0 1
    outer loop
      vertex 10.425 81.26 5.15
      vertex 34.33 72.68 5.15
      vertex 30.915 81.26 5.15
    endloop
  endfacet
  facet normal 0 0 1
    outer loop
      vertex 10.425 81.26 5.15
      vertex 7.01 72.68 5.15
      vertex 34.33 72.68 5.15
    endloop
  endfacet
  facet normal 0 0 1
    outer loop
      vertex 7.01 72.68 5.15
      vertex 10.425 81.26 5.15
      vertex 7.01 107 5.15
    endloop
  endfacet
  facet normal 1 -0 0
    outer loop
      vertex 7.01 72.68 31.45
      vertex 7.01 107 5.15
      vertex 7.01 107 31.45
    endloop
  endfacet
  facet normal 1 0 0
    outer loop
      vertex 7.01 107 5.15
      vertex 7.01 72.68 31.45
      vertex 7.01 72.68 5.15
    endloop
  endfacet
  facet normal -1 0 0
    outer loop
      vertex 34.33 72.68 5.15
      vertex 34.33 107 31.45
      vertex 34.33 107 5.15
    endloop
  endfacet
  facet normal -1 -0 0
    outer loop
      vertex 34.33 107 31.45
      vertex 34.33 72.68 5.15
      vertex 34.33 72.68 31.45
    endloop
  endfacet
  facet normal 0 1 -0
    outer loop
      vertex 30.915 81.26 0
      vertex 10.425 81.26 5.15
      vertex 30.915 81.26 5.15
    endloop
  endfacet
  facet normal 0 1 0
    outer loop
      vertex 10.425 81.26 5.15
      vertex 30.915 81.26 0
      vertex 10.425 81.26 0
    endloop
  endfacet
  facet normal -1 0 0
    outer loop
      vertex 30.915 110 0
      vertex 30.915 107 5.15
      vertex 30.915 110 31.45
    endloop
  endfacet
  facet normal -1 0 0
    outer loop
      vertex 30.915 81.26 0
      vertex 30.915 107 5.15
      vertex 30.915 110 0
    endloop
  endfacet
  facet normal -1 -0 0
    outer loop
      vertex 30.915 107 5.15
      vertex 30.915 81.26 0
      vertex 30.915 81.26 5.15
    endloop
  endfacet
  facet normal -1 -0 0
    outer loop
      vertex 30.915 110 31.45
      vertex 30.915 107 5.15
      vertex 30.915 107 31.45
    endloop
  endfacet
  facet normal 1 0 0
    outer loop
      vertex 10.425 107 5.15
      vertex 10.425 110 31.45
      vertex 10.425 107 31.45
    endloop
  endfacet
  facet normal 1 0 0
    outer loop
      vertex 10.425 110 31.45
      vertex 10.425 107 5.15
      vertex 10.425 110 0
    endloop
  endfacet
  facet normal 1 0 0
    outer loop
      vertex 10.425 81.26 0
      vertex 10.425 107 5.15
      vertex 10.425 81.26 5.15
    endloop
  endfacet
  facet normal 1 0 0
    outer loop
      vertex 10.425 107 5.15
      vertex 10.425 81.26 0
      vertex 10.425 110 0
    endloop
  endfacet
  facet normal 0 -1 0
    outer loop
      vertex 41.34 107 3
      vertex 44.755 107 31.45
      vertex 41.34 107 31.45
    endloop
  endfacet
  facet normal 0 -1 -0
    outer loop
      vertex 44.755 107 31.45
      vertex 41.34 107 3
      vertex 44.755 107 3
    endloop
  endfacet
  facet normal 0 -1 0
    outer loop
      vertex 65.245 107 3
      vertex 68.66 107 31.45
      vertex 65.245 107 31.45
    endloop
  endfacet
  facet normal 0 -1 -0
    outer loop
      vertex 68.66 107 31.45
      vertex 65.245 107 3
      vertex 68.66 107 3
    endloop
  endfacet
  facet normal 0 1 -0
    outer loop
      vertex 68.66 72.68 3
      vertex 41.34 72.68 31.45
      vertex 68.66 72.68 31.45
    endloop
  endfacet
  facet normal 0 1 0
    outer loop
      vertex 41.34 72.68 31.45
      vertex 68.66 72.68 3
      vertex 41.34 72.68 3
    endloop
  endfacet
  facet normal 0 0 1
    outer loop
      vertex 44.755 107 3
      vertex 41.34 107 3
      vertex 44.755 81.26 3
    endloop
  endfacet
  facet normal 0 0 1
    outer loop
      vertex 65.245 81.26 3
      vertex 68.66 107 3
      vertex 65.245 107 3
    endloop
  endfacet
  facet normal 0 0 1
    outer loop
      vertex 68.66 107 3
      vertex 65.245 81.26 3
      vertex 68.66 72.68 3
    endloop
  endfacet
  facet normal -0 0 1
    outer loop
      vertex 44.755 81.26 3
      vertex 68.66 72.68 3
      vertex 65.245 81.26 3
    endloop
  endfacet
  facet normal 0 0 1
    outer loop
      vertex 44.755 81.26 3
      vertex 41.34 72.68 3
      vertex 68.66 72.68 3
    endloop
  endfacet
  facet normal 0 0 1
    outer loop
      vertex 41.34 72.68 3
      vertex 44.755 81.26 3
      vertex 41.34 107 3
    endloop
  endfacet
  facet normal 1 -0 0
    outer loop
      vertex 41.34 72.68 31.45
      vertex 41.34 107 3
      vertex 41.34 107 31.45
    endloop
  endfacet
  facet normal 1 0 0
    outer loop
      vertex 41.34 107 3
      vertex 41.34 72.68 31.45
      vertex 41.34 72.68 3
    endloop
  endfacet
  facet normal -1 0 0
    outer loop
      vertex 68.66 72.68 3
      vertex 68.66 107 31.45
      vertex 68.66 107 3
    endloop
  endfacet
  facet normal -1 -0 0
    outer loop
      vertex 68.66 107 31.45
      vertex 68.66 72.68 3
      vertex 68.66 72.68 31.45
    endloop
  endfacet
  facet normal 0 1 -0
    outer loop
      vertex 65.245 81.26 0
      vertex 44.755 81.26 3
      vertex 65.245 81.26 3
    endloop
  endfacet
  facet normal 0 1 0
    outer loop
      vertex 44.755 81.26 3
      vertex 65.245 81.26 0
      vertex 44.755 81.26 0
    endloop
  endfacet
  facet normal -1 0 0
    outer loop
      vertex 65.245 110 0
      vertex 65.245 107 3
      vertex 65.245 110 31.45
    endloop
  endfacet
  facet normal -1 0 0
    outer loop
      vertex 65.245 81.26 0
      vertex 65.245 107 3
      vertex 65.245 110 0
    endloop
  endfacet
  facet normal -1 -0 0
    outer loop
      vertex 65.245 107 3
      vertex 65.245 81.26 0
      vertex 65.245 81.26 3
    endloop
  endfacet
  facet normal -1 -0 0
    outer loop
      vertex 65.245 110 31.45
      vertex 65.245 107 3
      vertex 65.245 107 31.45
    endloop
  endfacet
  facet normal 1 0 0
    outer loop
      vertex 44.755 107 3
      vertex 44.755 110 31.45
      vertex 44.755 107 31.45
    endloop
  endfacet
  facet normal 1 0 0
    outer loop
      vertex 44.755 110 31.45
      vertex 44.755 107 3
      vertex 44.755 110 0
    endloop
  endfacet
  facet normal 1 0 0
    outer loop
      vertex 44.755 81.26 0
      vertex 44.755 107 3
      vertex 44.755 81.26 3
    endloop
  endfacet
  facet normal 1 0 0
    outer loop
      vertex 44.755 107 3
      vertex 44.755 81.26 0
      vertex 44.755 110 0
    endloop
  endfacet
  facet normal 0 -1 0
    outer loop
      vertex 75.67 107 9.45
      vertex 79.085 107 31.45
      vertex 75.67 107 31.45
    endloop
  endfacet
  facet normal 0 -1 -0
    outer loop
      vertex 79.085 107 31.45
      vertex 75.67 107 9.45
      vertex 79.085 107 9.45
    endloop
  endfacet
  facet normal 0 -1 0
    outer loop
      vertex 99.575 107 9.45
      vertex 102.99 107 31.45
      vertex 99.575 107 31.45
    endloop
  endfacet
  facet normal 0 -1 -0
    outer loop
      vertex 102.99 107 31.45
      vertex 99.575 107 9.45
      vertex 102.99 107 9.45
    endloop
  endfacet
  facet normal 0 1 -0
    outer loop
      vertex 102.99 72.68 9.45
      vertex 75.67 72.68 31.45
      vertex 102.99 72.68 31.45
    endloop
  endfacet
  facet normal 0 1 0
    outer loop
      vertex 75.67 72.68 31.45
      vertex 102.99 72.68 9.45
      vertex 75.67 72.68 9.45
    endloop
  endfacet
  facet normal -1 0 0
    outer loop
      vertex 102.99 72.68 9.45
      vertex 102.99 107 31.45
      vertex 102.99 107 9.45
    endloop
  endfacet
  facet normal -1 -0 0
    outer loop
      vertex 102.99 107 31.45
      vertex 102.99 72.68 9.45
      vertex 102.99 72.68 31.45
    endloop
  endfacet
  facet normal 0 0 1
    outer loop
      vertex 79.085 107 9.45
      vertex 75.67 107 9.45
      vertex 79.085 81.26 9.45
    endloop
  endfacet
  facet normal 0 0 1
    outer loop
      vertex 99.575 81.26 9.45
      vertex 102.99 107 9.45
      vertex 99.575 107 9.45
    endloop
  endfacet
  facet normal 0 0 1
    outer loop
      vertex 102.99 107 9.45
      vertex 99.575 81.26 9.45
      vertex 102.99 72.68 9.45
    endloop
  endfacet
  facet normal -0 0 1
    outer loop
      vertex 79.085 81.26 9.45
      vertex 102.99 72.68 9.45
      vertex 99.575 81.26 9.45
    endloop
  endfacet
  facet normal 0 0 1
    outer loop
      vertex 79.085 81.26 9.45
      vertex 75.67 72.68 9.45
      vertex 102.99 72.68 9.45
    endloop
  endfacet
  facet normal 0 0 1
    outer loop
      vertex 75.67 72.68 9.45
      vertex 79.085 81.26 9.45
      vertex 75.67 107 9.45
    endloop
  endfacet
  facet normal 1 -0 0
    outer loop
      vertex 75.67 72.68 31.45
      vertex 75.67 107 9.45
      vertex 75.67 107 31.45
    endloop
  endfacet
  facet normal 1 0 0
    outer loop
      vertex 75.67 107 9.45
      vertex 75.67 72.68 31.45
      vertex 75.67 72.68 9.45
    endloop
  endfacet
  facet normal 0 1 -0
    outer loop
      vertex 99.575 81.26 0
      vertex 79.085 81.26 9.45
      vertex 99.575 81.26 9.45
    endloop
  endfacet
  facet normal 0 1 0
    outer loop
      vertex 79.085 81.26 9.45
      vertex 99.575 81.26 0
      vertex 79.085 81.26 0
    endloop
  endfacet
  facet normal 1 0 0
    outer loop
      vertex 79.085 107 9.45
      vertex 79.085 110 31.45
      vertex 79.085 107 31.45
    endloop
  endfacet
  facet normal 1 0 0
    outer loop
      vertex 79.085 110 31.45
      vertex 79.085 107 9.45
      vertex 79.085 110 0
    endloop
  endfacet
  facet normal 1 0 0
    outer loop
      vertex 79.085 81.26 0
      vertex 79.085 107 9.45
      vertex 79.085 81.26 9.45
    endloop
  endfacet
  facet normal 1 0 0
    outer loop
      vertex 79.085 107 9.45
      vertex 79.085 81.26 0
      vertex 79.085 110 0
    endloop
  endfacet
  facet normal -1 0 0
    outer loop
      vertex 99.575 110 0
      vertex 99.575 107 9.45
      vertex 99.575 110 31.45
    endloop
  endfacet
  facet normal -1 0 0
    outer loop
      vertex 99.575 81.26 0
      vertex 99.575 107 9.45
      vertex 99.575 110 0
    endloop
  endfacet
  facet normal -1 -0 0
    outer loop
      vertex 99.575 107 9.45
      vertex 99.575 81.26 0
      vertex 99.575 81.26 9.45
    endloop
  endfacet
  facet normal -1 -0 0
    outer loop
      vertex 99.575 110 31.45
      vertex 99.575 107 9.45
      vertex 99.575 107 31.45
    endloop
  endfacet
  facet normal -1 0 0
    outer loop
      vertex 0 0 0
      vertex 0 110 31.45
      vertex 0 110 0
    endloop
  endfacet
  facet normal -1 -0 0
    outer loop
      vertex 0 110 31.45
      vertex 0 0 0
      vertex 0 0 31.45
    endloop
  endfacet
  facet normal 1 -0 0
    outer loop
      vertex 110 0 31.45
      vertex 110 110 0
      vertex 110 110 31.45
    endloop
  endfacet
  facet normal 1 0 0
    outer loop
      vertex 110 110 0
      vertex 110 0 31.45
      vertex 110 0 0
    endloop
  endfacet
  facet normal 0 1 -0
    outer loop
      vertex 110 110 0
      vertex 99.575 110 31.45
      vertex 110 110 31.45
    endloop
  endfacet
  facet normal 0 1 0
    outer loop
      vertex 99.575 110 31.45
      vertex 110 110 0
      vertex 99.575 110 0
    endloop
  endfacet
  facet normal 0 1 -0
    outer loop
      vertex 10.425 110 0
      vertex 0 110 31.45
      vertex 10.425 110 31.45
    endloop
  endfacet
  facet normal 0 1 0
    outer loop
      vertex 0 110 31.45
      vertex 10.425 110 0
      vertex 0 110 0
    endloop
  endfacet
  facet normal 0 1 -0
    outer loop
      vertex 44.755 110 0
      vertex 30.915 110 31.45
      vertex 44.755 110 31.45
    endloop
  endfacet
  facet normal 0 1 0
    outer loop
      vertex 30.915 110 31.45
      vertex 44.755 110 0
      vertex 30.915 110 0
    endloop
  endfacet
  facet normal 0 1 -0
    outer loop
      vertex 79.085 110 0
      vertex 65.245 110 31.45
      vertex 79.085 110 31.45
    endloop
  endfacet
  facet normal 0 1 0
    outer loop
      vertex 65.245 110 31.45
      vertex 79.085 110 0
      vertex 65.245 110 0
    endloop
  endfacet
  facet normal 0 -1 0
    outer loop
      vertex 0 0 0
      vertex 10.425 0 31.45
      vertex 0 0 31.45
    endloop
  endfacet
  facet normal 0 -1 -0
    outer loop
      vertex 10.425 0 31.45
      vertex 0 0 0
      vertex 10.425 0 0
    endloop
  endfacet
  facet normal 0 -1 0
    outer loop
      vertex 99.575 0 0
      vertex 110 0 31.45
      vertex 99.575 0 31.45
    endloop
  endfacet
  facet normal 0 -1 -0
    outer loop
      vertex 110 0 31.45
      vertex 99.575 0 0
      vertex 110 0 0
    endloop
  endfacet
  facet normal 0 -1 0
    outer loop
      vertex 30.915 0 0
      vertex 44.755 0 31.45
      vertex 30.915 0 31.45
    endloop
  endfacet
  facet normal 0 -1 -0
    outer loop
      vertex 44.755 0 31.45
      vertex 30.915 0 0
      vertex 44.755 0 0
    endloop
  endfacet
  facet normal 0 -1 0
    outer loop
      vertex 65.245 0 0
      vertex 79.085 0 31.45
      vertex 65.245 0 31.45
    endloop
  endfacet
  facet normal 0 -1 -0
    outer loop
      vertex 79.085 0 31.45
      vertex 65.245 0 0
      vertex 79.085 0 0
    endloop
  endfacet
  facet normal 1 -0 0
    outer loop
      vertex 45.5 45.5 31.45
      vertex 45.5 64.5 0
      vertex 45.5 64.5 31.45
    endloop
  endfacet
  facet normal 1 0 0
    outer loop
      vertex 45.5 64.5 0
      vertex 45.5 45.5 31.45
      vertex 45.5 45.5 0
    endloop
  endfacet
  facet normal -1 0 0
    outer loop
      vertex 64.5 45.5 0
      vertex 64.5 64.5 31.45
      vertex 64.5 64.5 0
    endloop
  endfacet
  facet normal -1 -0 0
    outer loop
      vertex 64.5 64.5 31.45
      vertex 64.5 45.5 0
      vertex 64.5 45.5 31.45
    endloop
  endfacet
  facet normal 0 1 -0
    outer loop
      vertex 64.5 45.5 0
      vertex 45.5 45.5 31.45
      vertex 64.5 45.5 31.45
    endloop
  endfacet
  facet normal 0 1 0
    outer loop
      vertex 45.5 45.5 31.45
      vertex 64.5 45.5 0
      vertex 45.5 45.5 0
    endloop
  endfacet
  facet normal 0 -1 0
    outer loop
      vertex 45.5 64.5 0
      vertex 64.5 64.5 31.45
      vertex 45.5 64.5 31.45
    endloop
  endfacet
  facet normal 0 -1 -0
    outer loop
      vertex 64.5 64.5 31.45
      vertex 45.5 64.5 0
      vertex 64.5 64.5 0
    endloop
  endfacet
endsolid OpenSCAD_Model
