solid OpenSCAD_Model
  facet normal 0 1 -0
    outer loop
      vertex 20.3375 3 3
      vertex 18.2938 3 25
      vertex 20.3375 3 25
    endloop
  endfacet
  facet normal 0 1 0
    outer loop
      vertex 18.2938 3 25
      vertex 20.3375 3 3
      vertex 18.2938 3 3
    endloop
  endfacet
  facet normal 0 1 -0
    outer loop
      vertex 6.03125 3 3
      vertex 3.9875 3 25
      vertex 6.03125 3 25
    endloop
  endfacet
  facet normal 0 1 0
    outer loop
      vertex 3.9875 3 25
      vertex 6.03125 3 3
      vertex 3.9875 3 3
    endloop
  endfacet
  facet normal 0 0 1
    outer loop
      vertex 3 37.0687 25
      vertex 0 37.0687 25
      vertex 3 35.025 25
    endloop
  endfacet
  facet normal 0 0 1
    outer loop
      vertex 26.3687 86.4 25
      vertex 24.325 83.4 25
      vertex 26.3687 83.4 25
    endloop
  endfacet
  facet normal 0 0 1
    outer loop
      vertex 20.3375 67.05 25
      vertex 24.325 67.05 25
      vertex 24.325 83.4 25
    endloop
  endfacet
  facet normal 0 0 1
    outer loop
      vertex 24.325 67.05 25
      vertex 20.3375 67.05 25
      vertex 23 52.7 25
    endloop
  endfacet
  facet normal 0 0 1
    outer loop
      vertex 20.3375 67.05 25
      vertex 24.325 83.4 25
      vertex 20.3375 83.4 25
    endloop
  endfacet
  facet normal 0 0 1
    outer loop
      vertex 26.3687 86.4 25
      vertex 20.3375 83.4 25
      vertex 24.325 83.4 25
    endloop
  endfacet
  facet normal -0 0 1
    outer loop
      vertex 18.2937 86.4 25
      vertex 20.3375 83.4 25
      vertex 26.3687 86.4 25
    endloop
  endfacet
  facet normal 0 0 1
    outer loop
      vertex 20.3375 83.4 25
      vertex 18.2937 86.4 25
      vertex 18.2937 83.4 25
    endloop
  endfacet
  facet normal -0 0 1
    outer loop
      vertex 45.65 35.025 25
      vertex 61.0125 19.35 25
      vertex 62 35.025 25
    endloop
  endfacet
  facet normal 0 0 1
    outer loop
      vertex 61.0125 19.35 25
      vertex 45.65 35.025 25
      vertex 44.6625 19.35 25
    endloop
  endfacet
  facet normal 0 0 1
    outer loop
      vertex 62 35.025 25
      vertex 65 37.0687 25
      vertex 62 37.0688 25
    endloop
  endfacet
  facet normal 0 0 1
    outer loop
      vertex 61.0125 19.35 25
      vertex 65 37.0687 25
      vertex 62 35.025 25
    endloop
  endfacet
  facet normal 0 0 1
    outer loop
      vertex 65 37.0687 25
      vertex 61.0125 19.35 25
      vertex 65 0 25
    endloop
  endfacet
  facet normal -0 0 1
    outer loop
      vertex 61.0125 3 25
      vertex 65 0 25
      vertex 61.0125 19.35 25
    endloop
  endfacet
  facet normal 0 0 1
    outer loop
      vertex 58.9688 0 25
      vertex 61.0125 3 25
      vertex 58.9688 3 25
    endloop
  endfacet
  facet normal 0 0 1
    outer loop
      vertex 61.0125 3 25
      vertex 58.9688 0 25
      vertex 65 0 25
    endloop
  endfacet
  facet normal -0 0 1
    outer loop
      vertex 61.0125 67.05 25
      vertex 65 49.3312 25
      vertex 65 86.4 25
    endloop
  endfacet
  facet normal 0 0 1
    outer loop
      vertex 61.0125 67.05 25
      vertex 65 86.4 25
      vertex 61.0125 83.4 25
    endloop
  endfacet
  facet normal -0 0 1
    outer loop
      vertex 58.9688 86.4 25
      vertex 61.0125 83.4 25
      vertex 65 86.4 25
    endloop
  endfacet
  facet normal 0 0 1
    outer loop
      vertex 61.0125 83.4 25
      vertex 58.9688 86.4 25
      vertex 58.9688 83.4 25
    endloop
  endfacet
  facet normal 0 0 1
    outer loop
      vertex 65 49.3312 25
      vertex 62 51.375 25
      vertex 62 49.3312 25
    endloop
  endfacet
  facet normal 0 0 1
    outer loop
      vertex 65 49.3312 25
      vertex 61.0125 67.05 25
      vertex 62 51.375 25
    endloop
  endfacet
  facet normal 0 0 1
    outer loop
      vertex 61.0125 67.05 25
      vertex 45.65 51.375 25
      vertex 62 51.375 25
    endloop
  endfacet
  facet normal 0 0 1
    outer loop
      vertex 42 33.7 25
      vertex 45.65 35.025 25
      vertex 45.65 51.375 25
    endloop
  endfacet
  facet normal 0 0 1
    outer loop
      vertex 45.65 35.025 25
      vertex 42 33.7 25
      vertex 44.6625 19.35 25
    endloop
  endfacet
  facet normal 0 0 1
    outer loop
      vertex 42 33.7 25
      vertex 45.65 51.375 25
      vertex 44.6625 67.05 25
    endloop
  endfacet
  facet normal -0 0 1
    outer loop
      vertex 44.6625 67.05 25
      vertex 45.65 51.375 25
      vertex 61.0125 67.05 25
    endloop
  endfacet
  facet normal -0 0 1
    outer loop
      vertex 44.6625 3 25
      vertex 46.7062 0 25
      vertex 46.7062 3 25
    endloop
  endfacet
  facet normal 0 0 1
    outer loop
      vertex 42 33.7 25
      vertex 44.6625 67.05 25
      vertex 42 52.7 25
    endloop
  endfacet
  facet normal 0 0 1
    outer loop
      vertex 40.675 19.35 25
      vertex 44.6625 19.35 25
      vertex 42 33.7 25
    endloop
  endfacet
  facet normal 0 0 1
    outer loop
      vertex 44.6625 19.35 25
      vertex 40.675 19.35 25
      vertex 44.6625 3 25
    endloop
  endfacet
  facet normal 0 0 1
    outer loop
      vertex 40.675 3 25
      vertex 44.6625 3 25
      vertex 40.675 19.35 25
    endloop
  endfacet
  facet normal -0 0 1
    outer loop
      vertex 40.675 3 25
      vertex 46.7062 0 25
      vertex 44.6625 3 25
    endloop
  endfacet
  facet normal 0 0 1
    outer loop
      vertex 38.6312 0 25
      vertex 40.675 3 25
      vertex 38.6312 3 25
    endloop
  endfacet
  facet normal 0 0 1
    outer loop
      vertex 40.675 3 25
      vertex 38.6312 0 25
      vertex 46.7062 0 25
    endloop
  endfacet
  facet normal 0 0 1
    outer loop
      vertex 42 33.7 25
      vertex 24.325 19.35 25
      vertex 40.675 19.35 25
    endloop
  endfacet
  facet normal 0 0 1
    outer loop
      vertex 20.3375 19.35 25
      vertex 24.325 19.35 25
      vertex 23 33.7 25
    endloop
  endfacet
  facet normal -0 0 1
    outer loop
      vertex 23 33.7 25
      vertex 24.325 19.35 25
      vertex 42 33.7 25
    endloop
  endfacet
  facet normal 0 0 1
    outer loop
      vertex 46.7062 86.4 25
      vertex 44.6625 83.4 25
      vertex 46.7062 83.4 25
    endloop
  endfacet
  facet normal 0 0 1
    outer loop
      vertex 40.675 67.05 25
      vertex 44.6625 67.05 25
      vertex 44.6625 83.4 25
    endloop
  endfacet
  facet normal 0 0 1
    outer loop
      vertex 40.675 67.05 25
      vertex 44.6625 83.4 25
      vertex 40.675 83.4 25
    endloop
  endfacet
  facet normal 0 0 1
    outer loop
      vertex 46.7062 86.4 25
      vertex 40.675 83.4 25
      vertex 44.6625 83.4 25
    endloop
  endfacet
  facet normal -0 0 1
    outer loop
      vertex 38.6312 86.4 25
      vertex 40.675 83.4 25
      vertex 46.7062 86.4 25
    endloop
  endfacet
  facet normal 0 0 1
    outer loop
      vertex 40.675 83.4 25
      vertex 38.6312 86.4 25
      vertex 38.6312 83.4 25
    endloop
  endfacet
  facet normal 0 0 1
    outer loop
      vertex 44.6625 67.05 25
      vertex 40.675 67.05 25
      vertex 42 52.7 25
    endloop
  endfacet
  facet normal -0 0 1
    outer loop
      vertex 24.325 67.05 25
      vertex 42 52.7 25
      vertex 40.675 67.05 25
    endloop
  endfacet
  facet normal 0 0 1
    outer loop
      vertex 42 52.7 25
      vertex 24.325 67.05 25
      vertex 23 52.7 25
    endloop
  endfacet
  facet normal -0 0 1
    outer loop
      vertex 24.325 3 25
      vertex 26.3687 0 25
      vertex 26.3687 3 25
    endloop
  endfacet
  facet normal 0 0 1
    outer loop
      vertex 19.35 51.375 25
      vertex 23 52.7 25
      vertex 20.3375 67.05 25
    endloop
  endfacet
  facet normal 0 0 1
    outer loop
      vertex 23 52.7 25
      vertex 19.35 51.375 25
      vertex 23 33.7 25
    endloop
  endfacet
  facet normal -0 0 1
    outer loop
      vertex 19.35 35.025 25
      vertex 23 33.7 25
      vertex 19.35 51.375 25
    endloop
  endfacet
  facet normal 0 0 1
    outer loop
      vertex 20.3375 3 25
      vertex 24.325 3 25
      vertex 20.3375 19.35 25
    endloop
  endfacet
  facet normal -0 0 1
    outer loop
      vertex 20.3375 3 25
      vertex 26.3687 0 25
      vertex 24.325 3 25
    endloop
  endfacet
  facet normal 0 0 1
    outer loop
      vertex 18.2938 0 25
      vertex 20.3375 3 25
      vertex 18.2938 3 25
    endloop
  endfacet
  facet normal 0 0 1
    outer loop
      vertex 20.3375 3 25
      vertex 18.2938 0 25
      vertex 26.3687 0 25
    endloop
  endfacet
  facet normal 0 -0 1
    outer loop
      vertex 20.3375 19.35 25
      vertex 23 33.7 25
      vertex 19.35 35.025 25
    endloop
  endfacet
  facet normal -0 0 1
    outer loop
      vertex 3.9875 67.05 25
      vertex 19.35 51.375 25
      vertex 20.3375 67.05 25
    endloop
  endfacet
  facet normal 0 0 1
    outer loop
      vertex 19.35 51.375 25
      vertex 3.9875 67.05 25
      vertex 3 51.375 25
    endloop
  endfacet
  facet normal 0 0 1
    outer loop
      vertex 24.325 19.35 25
      vertex 20.3375 19.35 25
      vertex 24.325 3 25
    endloop
  endfacet
  facet normal 0 0 1
    outer loop
      vertex 19.35 35.025 25
      vertex 3.9875 19.35 25
      vertex 20.3375 19.35 25
    endloop
  endfacet
  facet normal 0 0 1
    outer loop
      vertex 0 37.0687 25
      vertex 3.9875 19.35 25
      vertex 3 35.025 25
    endloop
  endfacet
  facet normal -0 0 1
    outer loop
      vertex 3 35.025 25
      vertex 3.9875 19.35 25
      vertex 19.35 35.025 25
    endloop
  endfacet
  facet normal -0 0 1
    outer loop
      vertex 3.9875 3 25
      vertex 6.03125 0 25
      vertex 6.03125 3 25
    endloop
  endfacet
  facet normal 0 0 1
    outer loop
      vertex 0 0 25
      vertex 3.9875 19.35 25
      vertex 0 37.0687 25
    endloop
  endfacet
  facet normal 0 0 1
    outer loop
      vertex 3.9875 3 25
      vertex 0 0 25
      vertex 6.03125 0 25
    endloop
  endfacet
  facet normal 0 0 1
    outer loop
      vertex 3.9875 19.35 25
      vertex 0 0 25
      vertex 3.9875 3 25
    endloop
  endfacet
  facet normal 0 0 1
    outer loop
      vertex 6.03125 86.4 25
      vertex 3.9875 83.4 25
      vertex 6.03125 83.4 25
    endloop
  endfacet
  facet normal 0 0 1
    outer loop
      vertex 0 86.4 25
      vertex 3.9875 67.05 25
      vertex 3.9875 83.4 25
    endloop
  endfacet
  facet normal -0 0 1
    outer loop
      vertex 0 86.4 25
      vertex 3.9875 83.4 25
      vertex 6.03125 86.4 25
    endloop
  endfacet
  facet normal 0 0 1
    outer loop
      vertex 3.9875 67.05 25
      vertex 0 86.4 25
      vertex 0 49.3312 25
    endloop
  endfacet
  facet normal 0 0 1
    outer loop
      vertex 3.9875 67.05 25
      vertex 0 49.3312 25
      vertex 3 51.375 25
    endloop
  endfacet
  facet normal 0 0 1
    outer loop
      vertex 3 51.375 25
      vertex 0 49.3312 25
      vertex 3 49.3312 25
    endloop
  endfacet
  facet normal -1.16657e-007 -1 0
    outer loop
      vertex 3.9875 19.35 3
      vertex 20.3375 19.35 25
      vertex 3.9875 19.35 25
    endloop
  endfacet
  facet normal -1.16657e-007 -1 -0
    outer loop
      vertex 20.3375 19.35 25
      vertex 3.9875 19.35 3
      vertex 20.3375 19.35 3
    endloop
  endfacet
  facet normal 1 -0 0
    outer loop
      vertex 3.9875 3 25
      vertex 3.9875 19.35 3
      vertex 3.9875 19.35 25
    endloop
  endfacet
  facet normal 1 0 0
    outer loop
      vertex 3.9875 19.35 3
      vertex 3.9875 3 25
      vertex 3.9875 3 3
    endloop
  endfacet
  facet normal 0 0 1
    outer loop
      vertex 20.3375 19.35 3
      vertex 18.2938 15.2625 3
      vertex 20.3375 3 3
    endloop
  endfacet
  facet normal 0 0 1
    outer loop
      vertex 20.3375 19.35 3
      vertex 6.03125 15.2625 3
      vertex 18.2938 15.2625 3
    endloop
  endfacet
  facet normal 0 0 1
    outer loop
      vertex 3.9875 19.35 3
      vertex 6.03125 15.2625 3
      vertex 20.3375 19.35 3
    endloop
  endfacet
  facet normal 0 0 1
    outer loop
      vertex 3.9875 3 3
      vertex 6.03125 15.2625 3
      vertex 3.9875 19.35 3
    endloop
  endfacet
  facet normal 0 0 1
    outer loop
      vertex 6.03125 15.2625 3
      vertex 3.9875 3 3
      vertex 6.03125 3 3
    endloop
  endfacet
  facet normal 0 0 1
    outer loop
      vertex 20.3375 3 3
      vertex 18.2938 15.2625 3
      vertex 18.2938 3 3
    endloop
  endfacet
  facet normal -1 0 0
    outer loop
      vertex 20.3375 3 3
      vertex 20.3375 19.35 25
      vertex 20.3375 19.35 3
    endloop
  endfacet
  facet normal -1 -0 0
    outer loop
      vertex 20.3375 19.35 25
      vertex 20.3375 3 3
      vertex 20.3375 3 25
    endloop
  endfacet
  facet normal 0 -1 0
    outer loop
      vertex 6.03125 15.2625 0
      vertex 18.2938 15.2625 3
      vertex 6.03125 15.2625 3
    endloop
  endfacet
  facet normal 0 -1 -0
    outer loop
      vertex 18.2938 15.2625 3
      vertex 6.03125 15.2625 0
      vertex 18.2938 15.2625 0
    endloop
  endfacet
  facet normal 0 0 -1
    outer loop
      vertex 6.03125 0 0
      vertex 0 0 0
      vertex 6.03125 15.2625 0
    endloop
  endfacet
  facet normal 0 0 -1
    outer loop
      vertex 58.9688 15.2625 0
      vertex 65 0 0
      vertex 58.9688 0 0
    endloop
  endfacet
  facet normal 0 0 -1
    outer loop
      vertex 65 0 0
      vertex 58.9688 15.2625 0
      vertex 65 37.0687 0
    endloop
  endfacet
  facet normal 0 0 -1
    outer loop
      vertex 58.9688 15.2625 0
      vertex 49.7375 37.0688 0
      vertex 65 37.0687 0
    endloop
  endfacet
  facet normal 0 0 -1
    outer loop
      vertex 42 33.7 0
      vertex 49.7375 37.0688 0
      vertex 46.7062 15.2625 0
    endloop
  endfacet
  facet normal 0 0 -1
    outer loop
      vertex 46.7062 15.2625 0
      vertex 49.7375 37.0688 0
      vertex 58.9688 15.2625 0
    endloop
  endfacet
  facet normal 0 0 -1
    outer loop
      vertex 65 49.3312 0
      vertex 58.9688 71.1375 0
      vertex 65 86.4 0
    endloop
  endfacet
  facet normal 0 0 -1
    outer loop
      vertex 49.7375 49.3312 0
      vertex 58.9688 71.1375 0
      vertex 65 49.3312 0
    endloop
  endfacet
  facet normal 0 0 -1
    outer loop
      vertex 49.7375 49.3312 0
      vertex 46.7062 71.1375 0
      vertex 58.9688 71.1375 0
    endloop
  endfacet
  facet normal -0 0 -1
    outer loop
      vertex 49.7375 37.0688 0
      vertex 42 33.7 0
      vertex 49.7375 49.3312 0
    endloop
  endfacet
  facet normal -0 0 -1
    outer loop
      vertex 65 86.4 0
      vertex 58.9688 71.1375 0
      vertex 58.9688 86.4 0
    endloop
  endfacet
  facet normal 0 0 -1
    outer loop
      vertex 15.2625 49.3312 0
      vertex 23 52.7 0
      vertex 15.2625 37.0687 0
    endloop
  endfacet
  facet normal 0 0 -1
    outer loop
      vertex 6.03125 15.2625 0
      vertex 15.2625 37.0687 0
      vertex 18.2938 15.2625 0
    endloop
  endfacet
  facet normal 0 0 -1
    outer loop
      vertex 6.03125 15.2625 0
      vertex 0 37.0687 0
      vertex 15.2625 37.0687 0
    endloop
  endfacet
  facet normal 0 0 -1
    outer loop
      vertex 0 37.0687 0
      vertex 6.03125 15.2625 0
      vertex 0 0 0
    endloop
  endfacet
  facet normal -0 0 -1
    outer loop
      vertex 23 52.7 0
      vertex 15.2625 49.3312 0
      vertex 18.2937 71.1375 0
    endloop
  endfacet
  facet normal 0 0 -1
    outer loop
      vertex 15.2625 49.3312 0
      vertex 6.03125 71.1375 0
      vertex 18.2937 71.1375 0
    endloop
  endfacet
  facet normal 0 0 -1
    outer loop
      vertex 0 49.3312 0
      vertex 6.03125 71.1375 0
      vertex 15.2625 49.3312 0
    endloop
  endfacet
  facet normal 0 0 -1
    outer loop
      vertex 0 86.4 0
      vertex 6.03125 71.1375 0
      vertex 0 49.3312 0
    endloop
  endfacet
  facet normal 0 0 -1
    outer loop
      vertex 6.03125 71.1375 0
      vertex 0 86.4 0
      vertex 6.03125 86.4 0
    endloop
  endfacet
  facet normal 0 0 -1
    outer loop
      vertex 18.2938 15.2625 0
      vertex 26.3687 15.2625 0
      vertex 26.3687 0 0
    endloop
  endfacet
  facet normal 0 0 -1
    outer loop
      vertex 26.3687 15.2625 0
      vertex 18.2938 15.2625 0
      vertex 23 33.7 0
    endloop
  endfacet
  facet normal 0 0 -1
    outer loop
      vertex 18.2938 15.2625 0
      vertex 26.3687 0 0
      vertex 18.2938 0 0
    endloop
  endfacet
  facet normal 0 0 -1
    outer loop
      vertex 42 52.7 0
      vertex 26.3687 71.1375 0
      vertex 38.6312 71.1375 0
    endloop
  endfacet
  facet normal 0 0 -1
    outer loop
      vertex 23 52.7 0
      vertex 26.3687 71.1375 0
      vertex 42 52.7 0
    endloop
  endfacet
  facet normal 0 0 -1
    outer loop
      vertex 18.2937 71.1375 0
      vertex 26.3687 71.1375 0
      vertex 23 52.7 0
    endloop
  endfacet
  facet normal 0 0 -1
    outer loop
      vertex 15.2625 37.0687 0
      vertex 23 33.7 0
      vertex 18.2938 15.2625 0
    endloop
  endfacet
  facet normal 0 0 -1
    outer loop
      vertex 23 33.7 0
      vertex 15.2625 37.0687 0
      vertex 23 52.7 0
    endloop
  endfacet
  facet normal 0 0 -1
    outer loop
      vertex 26.3687 71.1375 0
      vertex 18.2937 71.1375 0
      vertex 26.3687 86.4 0
    endloop
  endfacet
  facet normal -0 0 -1
    outer loop
      vertex 26.3687 86.4 0
      vertex 18.2937 71.1375 0
      vertex 18.2937 86.4 0
    endloop
  endfacet
  facet normal 0 0 -1
    outer loop
      vertex 38.6312 15.2625 0
      vertex 46.7062 15.2625 0
      vertex 46.7062 0 0
    endloop
  endfacet
  facet normal 0 0 -1
    outer loop
      vertex 42 52.7 0
      vertex 49.7375 49.3312 0
      vertex 42 33.7 0
    endloop
  endfacet
  facet normal 0 0 -1
    outer loop
      vertex 49.7375 49.3312 0
      vertex 42 52.7 0
      vertex 46.7062 71.1375 0
    endloop
  endfacet
  facet normal 0 0 -1
    outer loop
      vertex 38.6312 15.2625 0
      vertex 46.7062 0 0
      vertex 38.6312 0 0
    endloop
  endfacet
  facet normal 0 0 -1
    outer loop
      vertex 46.7062 15.2625 0
      vertex 38.6312 15.2625 0
      vertex 42 33.7 0
    endloop
  endfacet
  facet normal 0 0 -1
    outer loop
      vertex 26.3687 15.2625 0
      vertex 42 33.7 0
      vertex 38.6312 15.2625 0
    endloop
  endfacet
  facet normal -0 0 -1
    outer loop
      vertex 42 33.7 0
      vertex 26.3687 15.2625 0
      vertex 23 33.7 0
    endloop
  endfacet
  facet normal 0 0 -1
    outer loop
      vertex 38.6312 71.1375 0
      vertex 46.7062 71.1375 0
      vertex 42 52.7 0
    endloop
  endfacet
  facet normal 0 0 -1
    outer loop
      vertex 46.7062 71.1375 0
      vertex 38.6312 71.1375 0
      vertex 46.7062 86.4 0
    endloop
  endfacet
  facet normal -0 0 -1
    outer loop
      vertex 46.7062 86.4 0
      vertex 38.6312 71.1375 0
      vertex 38.6312 86.4 0
    endloop
  endfacet
  facet normal -1 0 0
    outer loop
      vertex 18.2938 15.2625 0
      vertex 18.2938 3 3
      vertex 18.2938 15.2625 3
    endloop
  endfacet
  facet normal -1 0 0
    outer loop
      vertex 18.2938 0 0
      vertex 18.2938 3 3
      vertex 18.2938 15.2625 0
    endloop
  endfacet
  facet normal -1 0 0
    outer loop
      vertex 18.2938 0 25
      vertex 18.2938 3 3
      vertex 18.2938 0 0
    endloop
  endfacet
  facet normal -1 0 0
    outer loop
      vertex 18.2938 3 3
      vertex 18.2938 0 25
      vertex 18.2938 3 25
    endloop
  endfacet
  facet normal 1 0 0
    outer loop
      vertex 6.03125 3 25
      vertex 6.03125 0 25
      vertex 6.03125 3 3
    endloop
  endfacet
  facet normal 1 -0 0
    outer loop
      vertex 6.03125 3 3
      vertex 6.03125 15.2625 0
      vertex 6.03125 15.2625 3
    endloop
  endfacet
  facet normal 1 0 0
    outer loop
      vertex 6.03125 3 3
      vertex 6.03125 0 0
      vertex 6.03125 15.2625 0
    endloop
  endfacet
  facet normal 1 0 0
    outer loop
      vertex 6.03125 0 0
      vertex 6.03125 3 3
      vertex 6.03125 0 25
    endloop
  endfacet
  facet normal 0 1 -0
    outer loop
      vertex 40.675 3 3
      vertex 38.6312 3 25
      vertex 40.675 3 25
    endloop
  endfacet
  facet normal 0 1 0
    outer loop
      vertex 38.6312 3 25
      vertex 40.675 3 3
      vertex 38.6312 3 3
    endloop
  endfacet
  facet normal 0 1 -0
    outer loop
      vertex 26.3687 3 3
      vertex 24.325 3 25
      vertex 26.3687 3 25
    endloop
  endfacet
  facet normal 0 1 0
    outer loop
      vertex 24.325 3 25
      vertex 26.3687 3 3
      vertex 24.325 3 3
    endloop
  endfacet
  facet normal -1.16657e-007 -1 0
    outer loop
      vertex 24.325 19.35 3
      vertex 40.675 19.35 25
      vertex 24.325 19.35 25
    endloop
  endfacet
  facet normal -1.16657e-007 -1 -0
    outer loop
      vertex 40.675 19.35 25
      vertex 24.325 19.35 3
      vertex 40.675 19.35 3
    endloop
  endfacet
  facet normal 1 -0 0
    outer loop
      vertex 24.325 3 25
      vertex 24.325 19.35 3
      vertex 24.325 19.35 25
    endloop
  endfacet
  facet normal 1 0 0
    outer loop
      vertex 24.325 19.35 3
      vertex 24.325 3 25
      vertex 24.325 3 3
    endloop
  endfacet
  facet normal 0 0 1
    outer loop
      vertex 40.675 19.35 3
      vertex 38.6312 15.2625 3
      vertex 40.675 3 3
    endloop
  endfacet
  facet normal 0 0 1
    outer loop
      vertex 40.675 19.35 3
      vertex 26.3687 15.2625 3
      vertex 38.6312 15.2625 3
    endloop
  endfacet
  facet normal 0 0 1
    outer loop
      vertex 24.325 19.35 3
      vertex 26.3687 15.2625 3
      vertex 40.675 19.35 3
    endloop
  endfacet
  facet normal 0 0 1
    outer loop
      vertex 24.325 3 3
      vertex 26.3687 15.2625 3
      vertex 24.325 19.35 3
    endloop
  endfacet
  facet normal 0 0 1
    outer loop
      vertex 26.3687 15.2625 3
      vertex 24.325 3 3
      vertex 26.3687 3 3
    endloop
  endfacet
  facet normal 0 0 1
    outer loop
      vertex 40.675 3 3
      vertex 38.6312 15.2625 3
      vertex 38.6312 3 3
    endloop
  endfacet
  facet normal -1 0 0
    outer loop
      vertex 40.675 3 3
      vertex 40.675 19.35 25
      vertex 40.675 19.35 3
    endloop
  endfacet
  facet normal -1 -0 0
    outer loop
      vertex 40.675 19.35 25
      vertex 40.675 3 3
      vertex 40.675 3 25
    endloop
  endfacet
  facet normal 0 -1 0
    outer loop
      vertex 26.3687 15.2625 0
      vertex 38.6312 15.2625 3
      vertex 26.3687 15.2625 3
    endloop
  endfacet
  facet normal 0 -1 -0
    outer loop
      vertex 38.6312 15.2625 3
      vertex 26.3687 15.2625 0
      vertex 38.6312 15.2625 0
    endloop
  endfacet
  facet normal -1 0 0
    outer loop
      vertex 38.6312 15.2625 0
      vertex 38.6312 3 3
      vertex 38.6312 15.2625 3
    endloop
  endfacet
  facet normal -1 0 0
    outer loop
      vertex 38.6312 0 0
      vertex 38.6312 3 3
      vertex 38.6312 15.2625 0
    endloop
  endfacet
  facet normal -1 0 0
    outer loop
      vertex 38.6312 0 25
      vertex 38.6312 3 3
      vertex 38.6312 0 0
    endloop
  endfacet
  facet normal -1 0 0
    outer loop
      vertex 38.6312 3 3
      vertex 38.6312 0 25
      vertex 38.6312 3 25
    endloop
  endfacet
  facet normal 1 0 0
    outer loop
      vertex 26.3687 3 25
      vertex 26.3687 0 25
      vertex 26.3687 3 3
    endloop
  endfacet
  facet normal 1 -0 0
    outer loop
      vertex 26.3687 3 3
      vertex 26.3687 15.2625 0
      vertex 26.3687 15.2625 3
    endloop
  endfacet
  facet normal 1 0 0
    outer loop
      vertex 26.3687 3 3
      vertex 26.3687 0 0
      vertex 26.3687 15.2625 0
    endloop
  endfacet
  facet normal 1 0 0
    outer loop
      vertex 26.3687 0 0
      vertex 26.3687 3 3
      vertex 26.3687 0 25
    endloop
  endfacet
  facet normal 0 1 -0
    outer loop
      vertex 61.0125 3 3
      vertex 58.9688 3 25
      vertex 61.0125 3 25
    endloop
  endfacet
  facet normal 0 1 0
    outer loop
      vertex 58.9688 3 25
      vertex 61.0125 3 3
      vertex 58.9688 3 3
    endloop
  endfacet
  facet normal 0 1 -0
    outer loop
      vertex 46.7062 3 3
      vertex 44.6625 3 25
      vertex 46.7062 3 25
    endloop
  endfacet
  facet normal 0 1 0
    outer loop
      vertex 44.6625 3 25
      vertex 46.7062 3 3
      vertex 44.6625 3 3
    endloop
  endfacet
  facet normal -1.16657e-007 -1 0
    outer loop
      vertex 44.6625 19.35 3
      vertex 61.0125 19.35 25
      vertex 44.6625 19.35 25
    endloop
  endfacet
  facet normal -1.16657e-007 -1 -0
    outer loop
      vertex 61.0125 19.35 25
      vertex 44.6625 19.35 3
      vertex 61.0125 19.35 3
    endloop
  endfacet
  facet normal 1 -0 0
    outer loop
      vertex 44.6625 3 25
      vertex 44.6625 19.35 3
      vertex 44.6625 19.35 25
    endloop
  endfacet
  facet normal 1 0 0
    outer loop
      vertex 44.6625 19.35 3
      vertex 44.6625 3 25
      vertex 44.6625 3 3
    endloop
  endfacet
  facet normal 0 0 1
    outer loop
      vertex 61.0125 19.35 3
      vertex 58.9688 15.2625 3
      vertex 61.0125 3 3
    endloop
  endfacet
  facet normal 0 0 1
    outer loop
      vertex 61.0125 19.35 3
      vertex 46.7062 15.2625 3
      vertex 58.9688 15.2625 3
    endloop
  endfacet
  facet normal 0 0 1
    outer loop
      vertex 44.6625 19.35 3
      vertex 46.7062 15.2625 3
      vertex 61.0125 19.35 3
    endloop
  endfacet
  facet normal 0 0 1
    outer loop
      vertex 44.6625 3 3
      vertex 46.7062 15.2625 3
      vertex 44.6625 19.35 3
    endloop
  endfacet
  facet normal 0 0 1
    outer loop
      vertex 46.7062 15.2625 3
      vertex 44.6625 3 3
      vertex 46.7062 3 3
    endloop
  endfacet
  facet normal 0 0 1
    outer loop
      vertex 61.0125 3 3
      vertex 58.9688 15.2625 3
      vertex 58.9688 3 3
    endloop
  endfacet
  facet normal -1 0 0
    outer loop
      vertex 61.0125 3 3
      vertex 61.0125 19.35 25
      vertex 61.0125 19.35 3
    endloop
  endfacet
  facet normal -1 -0 0
    outer loop
      vertex 61.0125 19.35 25
      vertex 61.0125 3 3
      vertex 61.0125 3 25
    endloop
  endfacet
  facet normal 0 -1 0
    outer loop
      vertex 46.7062 15.2625 0
      vertex 58.9688 15.2625 3
      vertex 46.7062 15.2625 3
    endloop
  endfacet
  facet normal 0 -1 -0
    outer loop
      vertex 58.9688 15.2625 3
      vertex 46.7062 15.2625 0
      vertex 58.9688 15.2625 0
    endloop
  endfacet
  facet normal -1 0 0
    outer loop
      vertex 58.9688 15.2625 0
      vertex 58.9688 3 3
      vertex 58.9688 15.2625 3
    endloop
  endfacet
  facet normal -1 0 0
    outer loop
      vertex 58.9688 0 0
      vertex 58.9688 3 3
      vertex 58.9688 15.2625 0
    endloop
  endfacet
  facet normal -1 0 0
    outer loop
      vertex 58.9688 0 25
      vertex 58.9688 3 3
      vertex 58.9688 0 0
    endloop
  endfacet
  facet normal -1 0 0
    outer loop
      vertex 58.9688 3 3
      vertex 58.9688 0 25
      vertex 58.9688 3 25
    endloop
  endfacet
  facet normal 1 0 0
    outer loop
      vertex 46.7062 3 25
      vertex 46.7062 0 25
      vertex 46.7062 3 3
    endloop
  endfacet
  facet normal 1 -0 0
    outer loop
      vertex 46.7062 3 3
      vertex 46.7062 15.2625 0
      vertex 46.7062 15.2625 3
    endloop
  endfacet
  facet normal 1 0 0
    outer loop
      vertex 46.7062 3 3
      vertex 46.7062 0 0
      vertex 46.7062 15.2625 0
    endloop
  endfacet
  facet normal 1 0 0
    outer loop
      vertex 46.7062 0 0
      vertex 46.7062 3 3
      vertex 46.7062 0 25
    endloop
  endfacet
  facet normal 0 -1 0
    outer loop
      vertex 3.9875 83.4 3
      vertex 6.03125 83.4 25
      vertex 3.9875 83.4 25
    endloop
  endfacet
  facet normal 0 -1 -0
    outer loop
      vertex 6.03125 83.4 25
      vertex 3.9875 83.4 3
      vertex 6.03125 83.4 3
    endloop
  endfacet
  facet normal 0 -1 0
    outer loop
      vertex 18.2937 83.4 3
      vertex 20.3375 83.4 25
      vertex 18.2937 83.4 25
    endloop
  endfacet
  facet normal 0 -1 -0
    outer loop
      vertex 20.3375 83.4 25
      vertex 18.2937 83.4 3
      vertex 20.3375 83.4 3
    endloop
  endfacet
  facet normal 0 1 -0
    outer loop
      vertex 20.3375 67.05 3
      vertex 3.9875 67.05 25
      vertex 20.3375 67.05 25
    endloop
  endfacet
  facet normal 0 1 0
    outer loop
      vertex 3.9875 67.05 25
      vertex 20.3375 67.05 3
      vertex 3.9875 67.05 3
    endloop
  endfacet
  facet normal -1 0 0
    outer loop
      vertex 20.3375 67.05 3
      vertex 20.3375 83.4 25
      vertex 20.3375 83.4 3
    endloop
  endfacet
  facet normal -1 -0 0
    outer loop
      vertex 20.3375 83.4 25
      vertex 20.3375 67.05 3
      vertex 20.3375 67.05 25
    endloop
  endfacet
  facet normal 0 0 1
    outer loop
      vertex 6.03125 83.4 3
      vertex 3.9875 83.4 3
      vertex 6.03125 71.1375 3
    endloop
  endfacet
  facet normal 0 0 1
    outer loop
      vertex 18.2937 71.1375 3
      vertex 20.3375 83.4 3
      vertex 18.2937 83.4 3
    endloop
  endfacet
  facet normal 0 0 1
    outer loop
      vertex 20.3375 83.4 3
      vertex 18.2937 71.1375 3
      vertex 20.3375 67.05 3
    endloop
  endfacet
  facet normal -0 0 1
    outer loop
      vertex 6.03125 71.1375 3
      vertex 20.3375 67.05 3
      vertex 18.2937 71.1375 3
    endloop
  endfacet
  facet normal 0 0 1
    outer loop
      vertex 6.03125 71.1375 3
      vertex 3.9875 67.05 3
      vertex 20.3375 67.05 3
    endloop
  endfacet
  facet normal 0 0 1
    outer loop
      vertex 3.9875 67.05 3
      vertex 6.03125 71.1375 3
      vertex 3.9875 83.4 3
    endloop
  endfacet
  facet normal 1 -0 0
    outer loop
      vertex 3.9875 67.05 25
      vertex 3.9875 83.4 3
      vertex 3.9875 83.4 25
    endloop
  endfacet
  facet normal 1 0 0
    outer loop
      vertex 3.9875 83.4 3
      vertex 3.9875 67.05 25
      vertex 3.9875 67.05 3
    endloop
  endfacet
  facet normal 0 1 -0
    outer loop
      vertex 18.2937 71.1375 0
      vertex 6.03125 71.1375 3
      vertex 18.2937 71.1375 3
    endloop
  endfacet
  facet normal 0 1 0
    outer loop
      vertex 6.03125 71.1375 3
      vertex 18.2937 71.1375 0
      vertex 6.03125 71.1375 0
    endloop
  endfacet
  facet normal 1 0 0
    outer loop
      vertex 6.03125 83.4 3
      vertex 6.03125 86.4 25
      vertex 6.03125 83.4 25
    endloop
  endfacet
  facet normal 1 0 0
    outer loop
      vertex 6.03125 86.4 25
      vertex 6.03125 83.4 3
      vertex 6.03125 86.4 0
    endloop
  endfacet
  facet normal 1 0 0
    outer loop
      vertex 6.03125 71.1375 0
      vertex 6.03125 83.4 3
      vertex 6.03125 71.1375 3
    endloop
  endfacet
  facet normal 1 0 0
    outer loop
      vertex 6.03125 83.4 3
      vertex 6.03125 71.1375 0
      vertex 6.03125 86.4 0
    endloop
  endfacet
  facet normal -1 0 0
    outer loop
      vertex 18.2937 86.4 0
      vertex 18.2937 83.4 3
      vertex 18.2937 86.4 25
    endloop
  endfacet
  facet normal -1 0 0
    outer loop
      vertex 18.2937 71.1375 0
      vertex 18.2937 83.4 3
      vertex 18.2937 86.4 0
    endloop
  endfacet
  facet normal -1 -0 0
    outer loop
      vertex 18.2937 83.4 3
      vertex 18.2937 71.1375 0
      vertex 18.2937 71.1375 3
    endloop
  endfacet
  facet normal -1 -0 0
    outer loop
      vertex 18.2937 86.4 25
      vertex 18.2937 83.4 3
      vertex 18.2937 83.4 25
    endloop
  endfacet
  facet normal 0 -1 0
    outer loop
      vertex 24.325 83.4 3
      vertex 26.3687 83.4 25
      vertex 24.325 83.4 25
    endloop
  endfacet
  facet normal 0 -1 -0
    outer loop
      vertex 26.3687 83.4 25
      vertex 24.325 83.4 3
      vertex 26.3687 83.4 3
    endloop
  endfacet
  facet normal 0 -1 0
    outer loop
      vertex 38.6312 83.4 3
      vertex 40.675 83.4 25
      vertex 38.6312 83.4 25
    endloop
  endfacet
  facet normal 0 -1 -0
    outer loop
      vertex 40.675 83.4 25
      vertex 38.6312 83.4 3
      vertex 40.675 83.4 3
    endloop
  endfacet
  facet normal 0 1 -0
    outer loop
      vertex 40.675 67.05 3
      vertex 24.325 67.05 25
      vertex 40.675 67.05 25
    endloop
  endfacet
  facet normal 0 1 0
    outer loop
      vertex 24.325 67.05 25
      vertex 40.675 67.05 3
      vertex 24.325 67.05 3
    endloop
  endfacet
  facet normal -1 0 0
    outer loop
      vertex 40.675 67.05 3
      vertex 40.675 83.4 25
      vertex 40.675 83.4 3
    endloop
  endfacet
  facet normal -1 -0 0
    outer loop
      vertex 40.675 83.4 25
      vertex 40.675 67.05 3
      vertex 40.675 67.05 25
    endloop
  endfacet
  facet normal 0 0 1
    outer loop
      vertex 26.3687 83.4 3
      vertex 24.325 83.4 3
      vertex 26.3687 71.1375 3
    endloop
  endfacet
  facet normal 0 0 1
    outer loop
      vertex 38.6312 71.1375 3
      vertex 40.675 83.4 3
      vertex 38.6312 83.4 3
    endloop
  endfacet
  facet normal 0 0 1
    outer loop
      vertex 40.675 83.4 3
      vertex 38.6312 71.1375 3
      vertex 40.675 67.05 3
    endloop
  endfacet
  facet normal -0 0 1
    outer loop
      vertex 26.3687 71.1375 3
      vertex 40.675 67.05 3
      vertex 38.6312 71.1375 3
    endloop
  endfacet
  facet normal 0 0 1
    outer loop
      vertex 26.3687 71.1375 3
      vertex 24.325 67.05 3
      vertex 40.675 67.05 3
    endloop
  endfacet
  facet normal 0 0 1
    outer loop
      vertex 24.325 67.05 3
      vertex 26.3687 71.1375 3
      vertex 24.325 83.4 3
    endloop
  endfacet
  facet normal 1 -0 0
    outer loop
      vertex 24.325 67.05 25
      vertex 24.325 83.4 3
      vertex 24.325 83.4 25
    endloop
  endfacet
  facet normal 1 0 0
    outer loop
      vertex 24.325 83.4 3
      vertex 24.325 67.05 25
      vertex 24.325 67.05 3
    endloop
  endfacet
  facet normal 0 1 -0
    outer loop
      vertex 38.6312 71.1375 0
      vertex 26.3687 71.1375 3
      vertex 38.6312 71.1375 3
    endloop
  endfacet
  facet normal 0 1 0
    outer loop
      vertex 26.3687 71.1375 3
      vertex 38.6312 71.1375 0
      vertex 26.3687 71.1375 0
    endloop
  endfacet
  facet normal 1 0 0
    outer loop
      vertex 26.3687 83.4 3
      vertex 26.3687 86.4 25
      vertex 26.3687 83.4 25
    endloop
  endfacet
  facet normal 1 0 0
    outer loop
      vertex 26.3687 86.4 25
      vertex 26.3687 83.4 3
      vertex 26.3687 86.4 0
    endloop
  endfacet
  facet normal 1 0 0
    outer loop
      vertex 26.3687 71.1375 0
      vertex 26.3687 83.4 3
      vertex 26.3687 71.1375 3
    endloop
  endfacet
  facet normal 1 0 0
    outer loop
      vertex 26.3687 83.4 3
      vertex 26.3687 71.1375 0
      vertex 26.3687 86.4 0
    endloop
  endfacet
  facet normal -1 0 0
    outer loop
      vertex 38.6312 86.4 0
      vertex 38.6312 83.4 3
      vertex 38.6312 86.4 25
    endloop
  endfacet
  facet normal -1 0 0
    outer loop
      vertex 38.6312 71.1375 0
      vertex 38.6312 83.4 3
      vertex 38.6312 86.4 0
    endloop
  endfacet
  facet normal -1 -0 0
    outer loop
      vertex 38.6312 83.4 3
      vertex 38.6312 71.1375 0
      vertex 38.6312 71.1375 3
    endloop
  endfacet
  facet normal -1 -0 0
    outer loop
      vertex 38.6312 86.4 25
      vertex 38.6312 83.4 3
      vertex 38.6312 83.4 25
    endloop
  endfacet
  facet normal 0 -1 0
    outer loop
      vertex 44.6625 83.4 3
      vertex 46.7062 83.4 25
      vertex 44.6625 83.4 25
    endloop
  endfacet
  facet normal 0 -1 -0
    outer loop
      vertex 46.7062 83.4 25
      vertex 44.6625 83.4 3
      vertex 46.7062 83.4 3
    endloop
  endfacet
  facet normal 0 -1 0
    outer loop
      vertex 58.9688 83.4 3
      vertex 61.0125 83.4 25
      vertex 58.9688 83.4 25
    endloop
  endfacet
  facet normal 0 -1 -0
    outer loop
      vertex 61.0125 83.4 25
      vertex 58.9688 83.4 3
      vertex 61.0125 83.4 3
    endloop
  endfacet
  facet normal 0 1 -0
    outer loop
      vertex 61.0125 67.05 3
      vertex 44.6625 67.05 25
      vertex 61.0125 67.05 25
    endloop
  endfacet
  facet normal 0 1 0
    outer loop
      vertex 44.6625 67.05 25
      vertex 61.0125 67.05 3
      vertex 44.6625 67.05 3
    endloop
  endfacet
  facet normal -1 0 0
    outer loop
      vertex 61.0125 67.05 3
      vertex 61.0125 83.4 25
      vertex 61.0125 83.4 3
    endloop
  endfacet
  facet normal -1 -0 0
    outer loop
      vertex 61.0125 83.4 25
      vertex 61.0125 67.05 3
      vertex 61.0125 67.05 25
    endloop
  endfacet
  facet normal 0 0 1
    outer loop
      vertex 46.7062 83.4 3
      vertex 44.6625 83.4 3
      vertex 46.7062 71.1375 3
    endloop
  endfacet
  facet normal 0 0 1
    outer loop
      vertex 58.9688 71.1375 3
      vertex 61.0125 83.4 3
      vertex 58.9688 83.4 3
    endloop
  endfacet
  facet normal 0 0 1
    outer loop
      vertex 61.0125 83.4 3
      vertex 58.9688 71.1375 3
      vertex 61.0125 67.05 3
    endloop
  endfacet
  facet normal -0 0 1
    outer loop
      vertex 46.7062 71.1375 3
      vertex 61.0125 67.05 3
      vertex 58.9688 71.1375 3
    endloop
  endfacet
  facet normal 0 0 1
    outer loop
      vertex 46.7062 71.1375 3
      vertex 44.6625 67.05 3
      vertex 61.0125 67.05 3
    endloop
  endfacet
  facet normal 0 0 1
    outer loop
      vertex 44.6625 67.05 3
      vertex 46.7062 71.1375 3
      vertex 44.6625 83.4 3
    endloop
  endfacet
  facet normal 1 -0 0
    outer loop
      vertex 44.6625 67.05 25
      vertex 44.6625 83.4 3
      vertex 44.6625 83.4 25
    endloop
  endfacet
  facet normal 1 0 0
    outer loop
      vertex 44.6625 83.4 3
      vertex 44.6625 67.05 25
      vertex 44.6625 67.05 3
    endloop
  endfacet
  facet normal 0 1 -0
    outer loop
      vertex 58.9688 71.1375 0
      vertex 46.7062 71.1375 3
      vertex 58.9688 71.1375 3
    endloop
  endfacet
  facet normal 0 1 0
    outer loop
      vertex 46.7062 71.1375 3
      vertex 58.9688 71.1375 0
      vertex 46.7062 71.1375 0
    endloop
  endfacet
  facet normal 1 0 0
    outer loop
      vertex 46.7062 83.4 3
      vertex 46.7062 86.4 25
      vertex 46.7062 83.4 25
    endloop
  endfacet
  facet normal 1 0 0
    outer loop
      vertex 46.7062 86.4 25
      vertex 46.7062 83.4 3
      vertex 46.7062 86.4 0
    endloop
  endfacet
  facet normal 1 0 0
    outer loop
      vertex 46.7062 71.1375 0
      vertex 46.7062 83.4 3
      vertex 46.7062 71.1375 3
    endloop
  endfacet
  facet normal 1 0 0
    outer loop
      vertex 46.7062 83.4 3
      vertex 46.7062 71.1375 0
      vertex 46.7062 86.4 0
    endloop
  endfacet
  facet normal -1 0 0
    outer loop
      vertex 58.9688 86.4 0
      vertex 58.9688 83.4 3
      vertex 58.9688 86.4 25
    endloop
  endfacet
  facet normal -1 0 0
    outer loop
      vertex 58.9688 71.1375 0
      vertex 58.9688 83.4 3
      vertex 58.9688 86.4 0
    endloop
  endfacet
  facet normal -1 -0 0
    outer loop
      vertex 58.9688 83.4 3
      vertex 58.9688 71.1375 0
      vertex 58.9688 71.1375 3
    endloop
  endfacet
  facet normal -1 -0 0
    outer loop
      vertex 58.9688 86.4 25
      vertex 58.9688 83.4 3
      vertex 58.9688 83.4 25
    endloop
  endfacet
  facet normal 1 -0 0
    outer loop
      vertex 3 35.025 25
      vertex 3 37.0687 3
      vertex 3 37.0687 25
    endloop
  endfacet
  facet normal 1 0 0
    outer loop
      vertex 3 37.0687 3
      vertex 3 35.025 25
      vertex 3 35.025 3
    endloop
  endfacet
  facet normal 1 -0 0
    outer loop
      vertex 3 49.3312 25
      vertex 3 51.375 3
      vertex 3 51.375 25
    endloop
  endfacet
  facet normal 1 0 0
    outer loop
      vertex 3 51.375 3
      vertex 3 49.3312 25
      vertex 3 49.3312 3
    endloop
  endfacet
  facet normal -1 0 0
    outer loop
      vertex 19.35 35.025 3
      vertex 19.35 51.375 25
      vertex 19.35 51.375 3
    endloop
  endfacet
  facet normal -1 -0 0
    outer loop
      vertex 19.35 51.375 25
      vertex 19.35 35.025 3
      vertex 19.35 35.025 25
    endloop
  endfacet
  facet normal 0 -1 0
    outer loop
      vertex 3 51.375 3
      vertex 19.35 51.375 25
      vertex 3 51.375 25
    endloop
  endfacet
  facet normal 0 -1 -0
    outer loop
      vertex 19.35 51.375 25
      vertex 3 51.375 3
      vertex 19.35 51.375 3
    endloop
  endfacet
  facet normal 0 0 1
    outer loop
      vertex 19.35 51.375 3
      vertex 15.2625 49.3312 3
      vertex 19.35 35.025 3
    endloop
  endfacet
  facet normal -0 0 1
    outer loop
      vertex 3 51.375 3
      vertex 15.2625 49.3312 3
      vertex 19.35 51.375 3
    endloop
  endfacet
  facet normal 0 0 1
    outer loop
      vertex 15.2625 49.3312 3
      vertex 3 51.375 3
      vertex 3 49.3312 3
    endloop
  endfacet
  facet normal -0 0 1
    outer loop
      vertex 15.2625 37.0687 3
      vertex 19.35 35.025 3
      vertex 15.2625 49.3312 3
    endloop
  endfacet
  facet normal 0 0 1
    outer loop
      vertex 3 35.025 3
      vertex 15.2625 37.0687 3
      vertex 3 37.0687 3
    endloop
  endfacet
  facet normal 0 0 1
    outer loop
      vertex 15.2625 37.0687 3
      vertex 3 35.025 3
      vertex 19.35 35.025 3
    endloop
  endfacet
  facet normal 0 1 -0
    outer loop
      vertex 19.35 35.025 3
      vertex 3 35.025 25
      vertex 19.35 35.025 25
    endloop
  endfacet
  facet normal 0 1 0
    outer loop
      vertex 3 35.025 25
      vertex 19.35 35.025 3
      vertex 3 35.025 3
    endloop
  endfacet
  facet normal -1 0 0
    outer loop
      vertex 15.2625 37.0687 0
      vertex 15.2625 49.3312 3
      vertex 15.2625 49.3312 0
    endloop
  endfacet
  facet normal -1 -0 0
    outer loop
      vertex 15.2625 49.3312 3
      vertex 15.2625 37.0687 0
      vertex 15.2625 37.0687 3
    endloop
  endfacet
  facet normal 0 1 0
    outer loop
      vertex 15.2625 37.0687 3
      vertex 15.2625 37.0687 0
      vertex 3 37.0687 3
    endloop
  endfacet
  facet normal 0 1 -0
    outer loop
      vertex 3 37.0687 3
      vertex 0 37.0687 25
      vertex 3 37.0687 25
    endloop
  endfacet
  facet normal 0 1 0
    outer loop
      vertex 3 37.0687 3
      vertex 0 37.0687 0
      vertex 0 37.0687 25
    endloop
  endfacet
  facet normal 0 1 0
    outer loop
      vertex 0 37.0687 0
      vertex 3 37.0687 3
      vertex 15.2625 37.0687 0
    endloop
  endfacet
  facet normal 0 -1 0
    outer loop
      vertex 0 49.3312 25
      vertex 3 49.3312 3
      vertex 3 49.3312 25
    endloop
  endfacet
  facet normal 0 -1 0
    outer loop
      vertex 0 49.3312 0
      vertex 3 49.3312 3
      vertex 0 49.3312 25
    endloop
  endfacet
  facet normal 0 -1 0
    outer loop
      vertex 15.2625 49.3312 0
      vertex 3 49.3312 3
      vertex 0 49.3312 0
    endloop
  endfacet
  facet normal 0 -1 0
    outer loop
      vertex 3 49.3312 3
      vertex 15.2625 49.3312 0
      vertex 15.2625 49.3312 3
    endloop
  endfacet
  facet normal -1 0 0
    outer loop
      vertex 62 49.3312 3
      vertex 62 51.375 25
      vertex 62 51.375 3
    endloop
  endfacet
  facet normal -1 -0 0
    outer loop
      vertex 62 51.375 25
      vertex 62 49.3312 3
      vertex 62 49.3312 25
    endloop
  endfacet
  facet normal -1 0 0
    outer loop
      vertex 62 35.025 3
      vertex 62 37.0688 25
      vertex 62 37.0688 3
    endloop
  endfacet
  facet normal -1 -0 0
    outer loop
      vertex 62 37.0688 25
      vertex 62 35.025 3
      vertex 62 35.025 25
    endloop
  endfacet
  facet normal 1 -0 0
    outer loop
      vertex 45.65 35.025 25
      vertex 45.65 51.375 3
      vertex 45.65 51.375 25
    endloop
  endfacet
  facet normal 1 0 0
    outer loop
      vertex 45.65 51.375 3
      vertex 45.65 35.025 25
      vertex 45.65 35.025 3
    endloop
  endfacet
  facet normal 0 1 -0
    outer loop
      vertex 62 35.025 3
      vertex 45.65 35.025 25
      vertex 62 35.025 25
    endloop
  endfacet
  facet normal 0 1 0
    outer loop
      vertex 45.65 35.025 25
      vertex 62 35.025 3
      vertex 45.65 35.025 3
    endloop
  endfacet
  facet normal 0 0 1
    outer loop
      vertex 62 51.375 3
      vertex 49.7375 49.3312 3
      vertex 62 49.3312 3
    endloop
  endfacet
  facet normal 0 0 1
    outer loop
      vertex 49.7375 49.3312 3
      vertex 45.65 51.375 3
      vertex 49.7375 37.0688 3
    endloop
  endfacet
  facet normal -0 0 1
    outer loop
      vertex 45.65 51.375 3
      vertex 49.7375 49.3312 3
      vertex 62 51.375 3
    endloop
  endfacet
  facet normal -0 0 1
    outer loop
      vertex 49.7375 37.0688 3
      vertex 62 35.025 3
      vertex 62 37.0688 3
    endloop
  endfacet
  facet normal 0 0 1
    outer loop
      vertex 49.7375 37.0688 3
      vertex 45.65 35.025 3
      vertex 62 35.025 3
    endloop
  endfacet
  facet normal 0 0 1
    outer loop
      vertex 45.65 35.025 3
      vertex 49.7375 37.0688 3
      vertex 45.65 51.375 3
    endloop
  endfacet
  facet normal 0 -1 0
    outer loop
      vertex 45.65 51.375 3
      vertex 62 51.375 25
      vertex 45.65 51.375 25
    endloop
  endfacet
  facet normal 0 -1 -0
    outer loop
      vertex 62 51.375 25
      vertex 45.65 51.375 3
      vertex 62 51.375 3
    endloop
  endfacet
  facet normal 1 -0 0
    outer loop
      vertex 49.7375 37.0688 3
      vertex 49.7375 49.3312 0
      vertex 49.7375 49.3312 3
    endloop
  endfacet
  facet normal 1 0 0
    outer loop
      vertex 49.7375 49.3312 0
      vertex 49.7375 37.0688 3
      vertex 49.7375 37.0688 0
    endloop
  endfacet
  facet normal 0 -1 0
    outer loop
      vertex 49.7375 49.3312 3
      vertex 49.7375 49.3312 0
      vertex 62 49.3312 3
    endloop
  endfacet
  facet normal 0 -1 0
    outer loop
      vertex 62 49.3312 3
      vertex 65 49.3312 25
      vertex 62 49.3312 25
    endloop
  endfacet
  facet normal 0 -1 0
    outer loop
      vertex 62 49.3312 3
      vertex 65 49.3312 0
      vertex 65 49.3312 25
    endloop
  endfacet
  facet normal 0 -1 0
    outer loop
      vertex 65 49.3312 0
      vertex 62 49.3312 3
      vertex 49.7375 49.3312 0
    endloop
  endfacet
  facet normal 1.27157e-006 1 0
    outer loop
      vertex 65 37.0687 25
      vertex 62 37.0688 3
      vertex 62 37.0688 25
    endloop
  endfacet
  facet normal 1.27157e-006 1 -0
    outer loop
      vertex 65 37.0687 0
      vertex 62 37.0688 3
      vertex 65 37.0687 25
    endloop
  endfacet
  facet normal 2.49939e-007 1 -1.02163e-006
    outer loop
      vertex 49.7375 37.0688 0
      vertex 62 37.0688 3
      vertex 65 37.0687 0
    endloop
  endfacet
  facet normal 0 1 0
    outer loop
      vertex 62 37.0688 3
      vertex 49.7375 37.0688 0
      vertex 49.7375 37.0688 3
    endloop
  endfacet
  facet normal -1 0 0
    outer loop
      vertex 0 0 0
      vertex 0 37.0687 25
      vertex 0 37.0687 0
    endloop
  endfacet
  facet normal -1 -0 0
    outer loop
      vertex 0 37.0687 25
      vertex 0 0 0
      vertex 0 0 25
    endloop
  endfacet
  facet normal -1 0 0
    outer loop
      vertex 0 49.3312 0
      vertex 0 86.4 25
      vertex 0 86.4 0
    endloop
  endfacet
  facet normal -1 -0 0
    outer loop
      vertex 0 86.4 25
      vertex 0 49.3312 0
      vertex 0 49.3312 25
    endloop
  endfacet
  facet normal 1 -0 0
    outer loop
      vertex 65 0 25
      vertex 65 37.0687 0
      vertex 65 37.0687 25
    endloop
  endfacet
  facet normal 1 0 0
    outer loop
      vertex 65 37.0687 0
      vertex 65 0 25
      vertex 65 0 0
    endloop
  endfacet
  facet normal 1 -0 0
    outer loop
      vertex 65 49.3312 25
      vertex 65 86.4 0
      vertex 65 86.4 25
    endloop
  endfacet
  facet normal 1 0 0
    outer loop
      vertex 65 86.4 0
      vertex 65 49.3312 25
      vertex 65 49.3312 0
    endloop
  endfacet
  facet normal 0 1 -0
    outer loop
      vertex 65 86.4 0
      vertex 58.9688 86.4 25
      vertex 65 86.4 25
    endloop
  endfacet
  facet normal 0 1 0
    outer loop
      vertex 58.9688 86.4 25
      vertex 65 86.4 0
      vertex 58.9688 86.4 0
    endloop
  endfacet
  facet normal 0 1 -0
    outer loop
      vertex 6.03125 86.4 0
      vertex 0 86.4 25
      vertex 6.03125 86.4 25
    endloop
  endfacet
  facet normal 0 1 0
    outer loop
      vertex 0 86.4 25
      vertex 6.03125 86.4 0
      vertex 0 86.4 0
    endloop
  endfacet
  facet normal 0 1 -0
    outer loop
      vertex 26.3687 86.4 0
      vertex 18.2937 86.4 25
      vertex 26.3687 86.4 25
    endloop
  endfacet
  facet normal 0 1 0
    outer loop
      vertex 18.2937 86.4 25
      vertex 26.3687 86.4 0
      vertex 18.2937 86.4 0
    endloop
  endfacet
  facet normal 0 1 -0
    outer loop
      vertex 46.7062 86.4 0
      vertex 38.6312 86.4 25
      vertex 46.7062 86.4 25
    endloop
  endfacet
  facet normal 0 1 0
    outer loop
      vertex 38.6312 86.4 25
      vertex 46.7062 86.4 0
      vertex 38.6312 86.4 0
    endloop
  endfacet
  facet normal 0 -1 0
    outer loop
      vertex 0 0 0
      vertex 6.03125 0 25
      vertex 0 0 25
    endloop
  endfacet
  facet normal 0 -1 -0
    outer loop
      vertex 6.03125 0 25
      vertex 0 0 0
      vertex 6.03125 0 0
    endloop
  endfacet
  facet normal 0 -1 0
    outer loop
      vertex 58.9688 0 0
      vertex 65 0 25
      vertex 58.9688 0 25
    endloop
  endfacet
  facet normal 0 -1 -0
    outer loop
      vertex 65 0 25
      vertex 58.9688 0 0
      vertex 65 0 0
    endloop
  endfacet
  facet normal 0 -1 0
    outer loop
      vertex 18.2938 0 0
      vertex 26.3687 0 25
      vertex 18.2938 0 25
    endloop
  endfacet
  facet normal 0 -1 -0
    outer loop
      vertex 26.3687 0 25
      vertex 18.2938 0 0
      vertex 26.3687 0 0
    endloop
  endfacet
  facet normal 0 -1 0
    outer loop
      vertex 38.6312 0 0
      vertex 46.7062 0 25
      vertex 38.6312 0 25
    endloop
  endfacet
  facet normal 0 -1 -0
    outer loop
      vertex 46.7062 0 25
      vertex 38.6312 0 0
      vertex 46.7062 0 0
    endloop
  endfacet
  facet normal 1 -0 0
    outer loop
      vertex 23 33.7 25
      vertex 23 52.7 0
      vertex 23 52.7 25
    endloop
  endfacet
  facet normal 1 0 0
    outer loop
      vertex 23 52.7 0
      vertex 23 33.7 25
      vertex 23 33.7 0
    endloop
  endfacet
  facet normal -1 0 0
    outer loop
      vertex 42 33.7 0
      vertex 42 52.7 25
      vertex 42 52.7 0
    endloop
  endfacet
  facet normal -1 -0 0
    outer loop
      vertex 42 52.7 25
      vertex 42 33.7 0
      vertex 42 33.7 25
    endloop
  endfacet
  facet normal 0 1 -0
    outer loop
      vertex 42 33.7 0
      vertex 23 33.7 25
      vertex 42 33.7 25
    endloop
  endfacet
  facet normal 0 1 0
    outer loop
      vertex 23 33.7 25
      vertex 42 33.7 0
      vertex 23 33.7 0
    endloop
  endfacet
  facet normal 0 -1 0
    outer loop
      vertex 23 52.7 0
      vertex 42 52.7 25
      vertex 23 52.7 25
    endloop
  endfacet
  facet normal 0 -1 -0
    outer loop
      vertex 42 52.7 25
      vertex 23 52.7 0
      vertex 42 52.7 0
    endloop
  endfacet
endsolid OpenSCAD_Model
