solid OpenSCAD_Model
  facet normal 0 1 -0
    outer loop
      vertex 37.7 3 3
      vertex 35.7188 3 27
      vertex 37.7 3 27
    endloop
  endfacet
  facet normal 0 1 0
    outer loop
      vertex 35.7188 3 27
      vertex 37.7 3 3
      vertex 35.7188 3 3
    endloop
  endfacet
  facet normal 0 1 -0
    outer loop
      vertex 23.8313 3 3
      vertex 21.85 3 27
      vertex 23.8313 3 27
    endloop
  endfacet
  facet normal 0 1 0
    outer loop
      vertex 21.85 3 27
      vertex 23.8313 3 3
      vertex 21.85 3 3
    endloop
  endfacet
  facet normal 0 0 1
    outer loop
      vertex 4.98125 62.7 27
      vertex 3 59.7 27
      vertex 4.98125 59.7 27
    endloop
  endfacet
  facet normal 0 0 1
    outer loop
      vertex 3 59.7 27
      vertex 0 62.7 27
      vertex 3 43.85 27
    endloop
  endfacet
  facet normal -0 0 1
    outer loop
      vertex 0 62.7 27
      vertex 3 59.7 27
      vertex 4.98125 62.7 27
    endloop
  endfacet
  facet normal 0 0 1
    outer loop
      vertex 23.8312 62.7 27
      vertex 21.85 59.7 27
      vertex 23.8312 59.7 27
    endloop
  endfacet
  facet normal 0 0 1
    outer loop
      vertex 18.85 43.85 27
      vertex 21.85 43.85 27
      vertex 21.85 59.7 27
    endloop
  endfacet
  facet normal 0 0 1
    outer loop
      vertex 21.85 43.85 27
      vertex 18.85 43.85 27
      vertex 21.85 18.85 27
    endloop
  endfacet
  facet normal 0 0 1
    outer loop
      vertex 21.85 18.85 27
      vertex 18.85 18.85 27
      vertex 21.85 3 27
    endloop
  endfacet
  facet normal 0 0 1
    outer loop
      vertex 18.85 43.85 27
      vertex 21.85 59.7 27
      vertex 18.85 59.7 27
    endloop
  endfacet
  facet normal 0 0 1
    outer loop
      vertex 23.8312 62.7 27
      vertex 18.85 59.7 27
      vertex 21.85 59.7 27
    endloop
  endfacet
  facet normal -0 0 1
    outer loop
      vertex 16.8687 62.7 27
      vertex 18.85 59.7 27
      vertex 23.8312 62.7 27
    endloop
  endfacet
  facet normal 0 0 1
    outer loop
      vertex 18.85 59.7 27
      vertex 16.8687 62.7 27
      vertex 16.8687 59.7 27
    endloop
  endfacet
  facet normal 0 0 1
    outer loop
      vertex 42.6813 62.7 27
      vertex 40.7 59.7 27
      vertex 42.6813 59.7 27
    endloop
  endfacet
  facet normal 0 0 1
    outer loop
      vertex 37.7 43.85 27
      vertex 40.7 43.85 27
      vertex 40.7 59.7 27
    endloop
  endfacet
  facet normal 0 0 1
    outer loop
      vertex 40.7 43.85 27
      vertex 37.7 43.85 27
      vertex 39.125 40.85 27
    endloop
  endfacet
  facet normal 0 0 1
    outer loop
      vertex 37.7 43.85 27
      vertex 40.7 59.7 27
      vertex 37.7 59.7 27
    endloop
  endfacet
  facet normal 0 0 1
    outer loop
      vertex 42.6813 62.7 27
      vertex 37.7 59.7 27
      vertex 40.7 59.7 27
    endloop
  endfacet
  facet normal -0 0 1
    outer loop
      vertex 35.7188 62.7 27
      vertex 37.7 59.7 27
      vertex 42.6813 62.7 27
    endloop
  endfacet
  facet normal 0 0 1
    outer loop
      vertex 37.7 59.7 27
      vertex 35.7188 62.7 27
      vertex 35.7188 59.7 27
    endloop
  endfacet
  facet normal 0 0 1
    outer loop
      vertex 58.125 21.85 27
      vertex 40.7 18.85 27
      vertex 56.55 18.85 27
    endloop
  endfacet
  facet normal 0 0 1
    outer loop
      vertex 37.7 18.85 27
      vertex 40.7 18.85 27
      vertex 39.125 21.85 27
    endloop
  endfacet
  facet normal -0 0 1
    outer loop
      vertex 39.125 21.85 27
      vertex 40.7 18.85 27
      vertex 58.125 21.85 27
    endloop
  endfacet
  facet normal 0 0 1
    outer loop
      vertex 61.5312 62.7 27
      vertex 59.55 59.7 27
      vertex 61.5312 59.7 27
    endloop
  endfacet
  facet normal 0 0 1
    outer loop
      vertex 56.55 43.85 27
      vertex 59.55 43.85 27
      vertex 59.55 59.7 27
    endloop
  endfacet
  facet normal 0 0 1
    outer loop
      vertex 59.55 43.85 27
      vertex 58.125 40.85 27
      vertex 59.55 18.85 27
    endloop
  endfacet
  facet normal -0 0 1
    outer loop
      vertex 58.125 21.85 27
      vertex 59.55 18.85 27
      vertex 58.125 40.85 27
    endloop
  endfacet
  facet normal 0 0 1
    outer loop
      vertex 56.55 43.85 27
      vertex 59.55 59.7 27
      vertex 56.55 59.7 27
    endloop
  endfacet
  facet normal 0 0 1
    outer loop
      vertex 61.5312 62.7 27
      vertex 56.55 59.7 27
      vertex 59.55 59.7 27
    endloop
  endfacet
  facet normal -0 0 1
    outer loop
      vertex 54.5687 62.7 27
      vertex 56.55 59.7 27
      vertex 61.5312 62.7 27
    endloop
  endfacet
  facet normal 0 0 1
    outer loop
      vertex 56.55 59.7 27
      vertex 54.5687 62.7 27
      vertex 54.5687 59.7 27
    endloop
  endfacet
  facet normal -0 0 1
    outer loop
      vertex 59.55 43.85 27
      vertex 75.4 18.85 27
      vertex 75.4 43.85 27
    endloop
  endfacet
  facet normal 0 0 1
    outer loop
      vertex 75.4 18.85 27
      vertex 59.55 43.85 27
      vertex 59.55 18.85 27
    endloop
  endfacet
  facet normal 0 0 1
    outer loop
      vertex 80.3812 62.7 27
      vertex 78.4 59.7 27
      vertex 80.3812 59.7 27
    endloop
  endfacet
  facet normal 0 0 1
    outer loop
      vertex 75.4 43.85 27
      vertex 78.4 43.85 27
      vertex 78.4 59.7 27
    endloop
  endfacet
  facet normal 0 0 1
    outer loop
      vertex 78.4 43.85 27
      vertex 75.4 43.85 27
      vertex 78.4 18.85 27
    endloop
  endfacet
  facet normal 0 0 1
    outer loop
      vertex 75.4 43.85 27
      vertex 78.4 59.7 27
      vertex 75.4 59.7 27
    endloop
  endfacet
  facet normal 0 0 1
    outer loop
      vertex 80.3812 62.7 27
      vertex 75.4 59.7 27
      vertex 78.4 59.7 27
    endloop
  endfacet
  facet normal -0 0 1
    outer loop
      vertex 73.4187 62.7 27
      vertex 75.4 59.7 27
      vertex 80.3812 62.7 27
    endloop
  endfacet
  facet normal 0 0 1
    outer loop
      vertex 75.4 59.7 27
      vertex 73.4187 62.7 27
      vertex 73.4187 59.7 27
    endloop
  endfacet
  facet normal -0 0 1
    outer loop
      vertex 78.4 43.85 27
      vertex 94.25 18.85 27
      vertex 94.25 43.85 27
    endloop
  endfacet
  facet normal 0 0 1
    outer loop
      vertex 94.25 18.85 27
      vertex 78.4 43.85 27
      vertex 78.4 18.85 27
    endloop
  endfacet
  facet normal 0 0 1
    outer loop
      vertex 94.25 43.85 27
      vertex 97.25 62.7 27
      vertex 94.25 59.7 27
    endloop
  endfacet
  facet normal -0 0 1
    outer loop
      vertex 92.2688 62.7 27
      vertex 94.25 59.7 27
      vertex 97.25 62.7 27
    endloop
  endfacet
  facet normal 0 0 1
    outer loop
      vertex 94.25 59.7 27
      vertex 92.2688 62.7 27
      vertex 92.2688 59.7 27
    endloop
  endfacet
  facet normal 0 0 1
    outer loop
      vertex 97.25 62.7 27
      vertex 94.25 43.85 27
      vertex 97.25 0 27
    endloop
  endfacet
  facet normal -0 0 1
    outer loop
      vertex 94.25 18.85 27
      vertex 97.25 0 27
      vertex 94.25 43.85 27
    endloop
  endfacet
  facet normal -0 0 1
    outer loop
      vertex 94.25 3 27
      vertex 97.25 0 27
      vertex 94.25 18.85 27
    endloop
  endfacet
  facet normal 0 0 1
    outer loop
      vertex 92.2688 0 27
      vertex 94.25 3 27
      vertex 92.2688 3 27
    endloop
  endfacet
  facet normal 0 0 1
    outer loop
      vertex 94.25 3 27
      vertex 92.2688 0 27
      vertex 97.25 0 27
    endloop
  endfacet
  facet normal -0 0 1
    outer loop
      vertex 78.4 3 27
      vertex 80.3812 0 27
      vertex 80.3812 3 27
    endloop
  endfacet
  facet normal 0 0 1
    outer loop
      vertex 75.4 18.85 27
      vertex 78.4 18.85 27
      vertex 75.4 43.85 27
    endloop
  endfacet
  facet normal 0 0 1
    outer loop
      vertex 78.4 18.85 27
      vertex 75.4 18.85 27
      vertex 78.4 3 27
    endloop
  endfacet
  facet normal 0 0 1
    outer loop
      vertex 75.4 3 27
      vertex 78.4 3 27
      vertex 75.4 18.85 27
    endloop
  endfacet
  facet normal -0 0 1
    outer loop
      vertex 75.4 3 27
      vertex 80.3812 0 27
      vertex 78.4 3 27
    endloop
  endfacet
  facet normal 0 0 1
    outer loop
      vertex 73.4187 0 27
      vertex 75.4 3 27
      vertex 73.4187 3 27
    endloop
  endfacet
  facet normal 0 0 1
    outer loop
      vertex 75.4 3 27
      vertex 73.4187 0 27
      vertex 80.3812 0 27
    endloop
  endfacet
  facet normal -0 0 1
    outer loop
      vertex 59.55 3 27
      vertex 61.5312 0 27
      vertex 61.5312 3 27
    endloop
  endfacet
  facet normal 0 0 1
    outer loop
      vertex 56.55 18.85 27
      vertex 59.55 18.85 27
      vertex 58.125 21.85 27
    endloop
  endfacet
  facet normal 0 0 1
    outer loop
      vertex 59.55 18.85 27
      vertex 56.55 18.85 27
      vertex 59.55 3 27
    endloop
  endfacet
  facet normal 0 0 1
    outer loop
      vertex 56.55 3 27
      vertex 59.55 3 27
      vertex 56.55 18.85 27
    endloop
  endfacet
  facet normal -0 0 1
    outer loop
      vertex 56.55 3 27
      vertex 61.5312 0 27
      vertex 59.55 3 27
    endloop
  endfacet
  facet normal 0 0 1
    outer loop
      vertex 54.5687 0 27
      vertex 56.55 3 27
      vertex 54.5687 3 27
    endloop
  endfacet
  facet normal 0 0 1
    outer loop
      vertex 56.55 3 27
      vertex 54.5687 0 27
      vertex 61.5312 0 27
    endloop
  endfacet
  facet normal 0 0 1
    outer loop
      vertex 59.55 43.85 27
      vertex 56.55 43.85 27
      vertex 58.125 40.85 27
    endloop
  endfacet
  facet normal -0 0 1
    outer loop
      vertex 40.7 43.85 27
      vertex 58.125 40.85 27
      vertex 56.55 43.85 27
    endloop
  endfacet
  facet normal 0 0 1
    outer loop
      vertex 58.125 40.85 27
      vertex 40.7 43.85 27
      vertex 39.125 40.85 27
    endloop
  endfacet
  facet normal -0 0 1
    outer loop
      vertex 40.7 3 27
      vertex 42.6813 0 27
      vertex 42.6813 3 27
    endloop
  endfacet
  facet normal -0 0 1
    outer loop
      vertex 21.85 43.85 27
      vertex 39.125 40.85 27
      vertex 37.7 43.85 27
    endloop
  endfacet
  facet normal 0 0 1
    outer loop
      vertex 39.125 40.85 27
      vertex 21.85 43.85 27
      vertex 39.125 21.85 27
    endloop
  endfacet
  facet normal 0 0 1
    outer loop
      vertex 40.7 18.85 27
      vertex 37.7 18.85 27
      vertex 40.7 3 27
    endloop
  endfacet
  facet normal 0 0 1
    outer loop
      vertex 37.7 3 27
      vertex 40.7 3 27
      vertex 37.7 18.85 27
    endloop
  endfacet
  facet normal -0 0 1
    outer loop
      vertex 37.7 3 27
      vertex 42.6813 0 27
      vertex 40.7 3 27
    endloop
  endfacet
  facet normal 0 0 1
    outer loop
      vertex 35.7188 0 27
      vertex 37.7 3 27
      vertex 35.7188 3 27
    endloop
  endfacet
  facet normal 0 0 1
    outer loop
      vertex 37.7 3 27
      vertex 35.7188 0 27
      vertex 42.6813 0 27
    endloop
  endfacet
  facet normal 0 0 1
    outer loop
      vertex 21.85 18.85 27
      vertex 39.125 21.85 27
      vertex 21.85 43.85 27
    endloop
  endfacet
  facet normal 0 0 1
    outer loop
      vertex 39.125 21.85 27
      vertex 21.85 18.85 27
      vertex 37.7 18.85 27
    endloop
  endfacet
  facet normal -0 0 1
    outer loop
      vertex 21.85 3 27
      vertex 23.8313 0 27
      vertex 23.8313 3 27
    endloop
  endfacet
  facet normal 0 0 1
    outer loop
      vertex 18.85 3 27
      vertex 21.85 3 27
      vertex 18.85 18.85 27
    endloop
  endfacet
  facet normal -0 0 1
    outer loop
      vertex 18.85 3 27
      vertex 23.8313 0 27
      vertex 21.85 3 27
    endloop
  endfacet
  facet normal 0 0 1
    outer loop
      vertex 16.8687 0 27
      vertex 18.85 3 27
      vertex 16.8687 3 27
    endloop
  endfacet
  facet normal 0 0 1
    outer loop
      vertex 18.85 3 27
      vertex 16.8687 0 27
      vertex 23.8313 0 27
    endloop
  endfacet
  facet normal 0 0 1
    outer loop
      vertex 21.85 18.85 27
      vertex 18.85 43.85 27
      vertex 18.85 18.85 27
    endloop
  endfacet
  facet normal 0 0 1
    outer loop
      vertex 18.85 43.85 27
      vertex 3 18.85 27
      vertex 18.85 18.85 27
    endloop
  endfacet
  facet normal 0 0 1
    outer loop
      vertex 0 0 27
      vertex 3 18.85 27
      vertex 3 43.85 27
    endloop
  endfacet
  facet normal -0 0 1
    outer loop
      vertex 3 43.85 27
      vertex 3 18.85 27
      vertex 18.85 43.85 27
    endloop
  endfacet
  facet normal -0 0 1
    outer loop
      vertex 3 3 27
      vertex 4.98125 0 27
      vertex 4.98125 3 27
    endloop
  endfacet
  facet normal 0 0 1
    outer loop
      vertex 0 0 27
      vertex 3 43.85 27
      vertex 0 62.7 27
    endloop
  endfacet
  facet normal 0 0 1
    outer loop
      vertex 3 3 27
      vertex 0 0 27
      vertex 4.98125 0 27
    endloop
  endfacet
  facet normal 0 0 1
    outer loop
      vertex 3 18.85 27
      vertex 0 0 27
      vertex 3 3 27
    endloop
  endfacet
  facet normal -1.20337e-007 -1 0
    outer loop
      vertex 21.85 18.85 3
      vertex 37.7 18.85 27
      vertex 21.85 18.85 27
    endloop
  endfacet
  facet normal -1.20337e-007 -1 -0
    outer loop
      vertex 37.7 18.85 27
      vertex 21.85 18.85 3
      vertex 37.7 18.85 3
    endloop
  endfacet
  facet normal 0 0 1
    outer loop
      vertex 37.7 18.85 3
      vertex 35.7188 3 3
      vertex 37.7 3 3
    endloop
  endfacet
  facet normal 0 0 1
    outer loop
      vertex 35.7188 3 3
      vertex 23.8313 3 3
      vertex 35.7188 0 3
    endloop
  endfacet
  facet normal 0 0 1
    outer loop
      vertex 37.7 18.85 3
      vertex 23.8313 3 3
      vertex 35.7188 3 3
    endloop
  endfacet
  facet normal 0 0 1
    outer loop
      vertex 21.85 18.85 3
      vertex 23.8313 3 3
      vertex 37.7 18.85 3
    endloop
  endfacet
  facet normal 0 0 1
    outer loop
      vertex 23.8313 3 3
      vertex 21.85 18.85 3
      vertex 21.85 3 3
    endloop
  endfacet
  facet normal 0 0 1
    outer loop
      vertex 35.7188 0 3
      vertex 23.8313 3 3
      vertex 23.8313 0 3
    endloop
  endfacet
  facet normal -1 0 0
    outer loop
      vertex 37.7 3 3
      vertex 37.7 18.85 27
      vertex 37.7 18.85 3
    endloop
  endfacet
  facet normal -1 -0 0
    outer loop
      vertex 37.7 18.85 27
      vertex 37.7 3 3
      vertex 37.7 3 27
    endloop
  endfacet
  facet normal 1 -0 0
    outer loop
      vertex 21.85 3 27
      vertex 21.85 18.85 3
      vertex 21.85 18.85 27
    endloop
  endfacet
  facet normal 1 0 0
    outer loop
      vertex 21.85 18.85 3
      vertex 21.85 3 27
      vertex 21.85 3 3
    endloop
  endfacet
  facet normal 1 -0 0
    outer loop
      vertex 23.8313 0 27
      vertex 23.8313 3 3
      vertex 23.8313 3 27
    endloop
  endfacet
  facet normal 1 0 0
    outer loop
      vertex 23.8313 3 3
      vertex 23.8313 0 27
      vertex 23.8313 0 3
    endloop
  endfacet
  facet normal -1 0 0
    outer loop
      vertex 35.7188 0 3
      vertex 35.7188 3 27
      vertex 35.7188 3 3
    endloop
  endfacet
  facet normal -1 -0 0
    outer loop
      vertex 35.7188 3 27
      vertex 35.7188 0 3
      vertex 35.7188 0 27
    endloop
  endfacet
  facet normal 0 1 -0
    outer loop
      vertex 75.4 3 3
      vertex 73.4187 3 27
      vertex 75.4 3 27
    endloop
  endfacet
  facet normal 0 1 0
    outer loop
      vertex 73.4187 3 27
      vertex 75.4 3 3
      vertex 73.4187 3 3
    endloop
  endfacet
  facet normal 0 1 -0
    outer loop
      vertex 61.5312 3 3
      vertex 59.55 3 27
      vertex 61.5312 3 27
    endloop
  endfacet
  facet normal 0 1 0
    outer loop
      vertex 59.55 3 27
      vertex 61.5312 3 3
      vertex 59.55 3 3
    endloop
  endfacet
  facet normal -1.20337e-007 -1 0
    outer loop
      vertex 59.55 18.85 3
      vertex 75.4 18.85 27
      vertex 59.55 18.85 27
    endloop
  endfacet
  facet normal -1.20337e-007 -1 -0
    outer loop
      vertex 75.4 18.85 27
      vertex 59.55 18.85 3
      vertex 75.4 18.85 3
    endloop
  endfacet
  facet normal 0 0 1
    outer loop
      vertex 75.4 18.85 3
      vertex 73.4187 3 3
      vertex 75.4 3 3
    endloop
  endfacet
  facet normal 0 0 1
    outer loop
      vertex 73.4187 3 3
      vertex 61.5312 3 3
      vertex 73.4187 0 3
    endloop
  endfacet
  facet normal 0 0 1
    outer loop
      vertex 75.4 18.85 3
      vertex 61.5312 3 3
      vertex 73.4187 3 3
    endloop
  endfacet
  facet normal 0 0 1
    outer loop
      vertex 59.55 18.85 3
      vertex 61.5312 3 3
      vertex 75.4 18.85 3
    endloop
  endfacet
  facet normal 0 0 1
    outer loop
      vertex 61.5312 3 3
      vertex 59.55 18.85 3
      vertex 59.55 3 3
    endloop
  endfacet
  facet normal 0 0 1
    outer loop
      vertex 73.4187 0 3
      vertex 61.5312 3 3
      vertex 61.5312 0 3
    endloop
  endfacet
  facet normal -1 0 0
    outer loop
      vertex 75.4 3 3
      vertex 75.4 18.85 27
      vertex 75.4 18.85 3
    endloop
  endfacet
  facet normal -1 -0 0
    outer loop
      vertex 75.4 18.85 27
      vertex 75.4 3 3
      vertex 75.4 3 27
    endloop
  endfacet
  facet normal 1 -0 0
    outer loop
      vertex 59.55 3 27
      vertex 59.55 18.85 3
      vertex 59.55 18.85 27
    endloop
  endfacet
  facet normal 1 0 0
    outer loop
      vertex 59.55 18.85 3
      vertex 59.55 3 27
      vertex 59.55 3 3
    endloop
  endfacet
  facet normal 1 -0 0
    outer loop
      vertex 61.5312 0 27
      vertex 61.5312 3 3
      vertex 61.5312 3 27
    endloop
  endfacet
  facet normal 1 0 0
    outer loop
      vertex 61.5312 3 3
      vertex 61.5312 0 27
      vertex 61.5312 0 3
    endloop
  endfacet
  facet normal -1 0 0
    outer loop
      vertex 73.4187 0 3
      vertex 73.4187 3 27
      vertex 73.4187 3 3
    endloop
  endfacet
  facet normal -1 -0 0
    outer loop
      vertex 73.4187 3 27
      vertex 73.4187 0 3
      vertex 73.4187 0 27
    endloop
  endfacet
  facet normal 0 1 -0
    outer loop
      vertex 18.85 3 3
      vertex 16.8687 3 27
      vertex 18.85 3 27
    endloop
  endfacet
  facet normal 0 1 0
    outer loop
      vertex 16.8687 3 27
      vertex 18.85 3 3
      vertex 16.8687 3 3
    endloop
  endfacet
  facet normal 0 1 -0
    outer loop
      vertex 4.98125 3 3
      vertex 3 3 27
      vertex 4.98125 3 27
    endloop
  endfacet
  facet normal 0 1 0
    outer loop
      vertex 3 3 27
      vertex 4.98125 3 3
      vertex 3 3 3
    endloop
  endfacet
  facet normal -1.20337e-007 -1 0
    outer loop
      vertex 3 18.85 3
      vertex 18.85 18.85 27
      vertex 3 18.85 27
    endloop
  endfacet
  facet normal -1.20337e-007 -1 -0
    outer loop
      vertex 18.85 18.85 27
      vertex 3 18.85 3
      vertex 18.85 18.85 3
    endloop
  endfacet
  facet normal 0 0 1
    outer loop
      vertex 18.85 18.85 3
      vertex 16.8687 3 3
      vertex 18.85 3 3
    endloop
  endfacet
  facet normal 0 0 1
    outer loop
      vertex 16.8687 3 3
      vertex 4.98125 3 3
      vertex 16.8687 0 3
    endloop
  endfacet
  facet normal 0 0 1
    outer loop
      vertex 18.85 18.85 3
      vertex 4.98125 3 3
      vertex 16.8687 3 3
    endloop
  endfacet
  facet normal 0 0 1
    outer loop
      vertex 3 18.85 3
      vertex 4.98125 3 3
      vertex 18.85 18.85 3
    endloop
  endfacet
  facet normal 0 0 1
    outer loop
      vertex 4.98125 3 3
      vertex 3 18.85 3
      vertex 3 3 3
    endloop
  endfacet
  facet normal 0 0 1
    outer loop
      vertex 16.8687 0 3
      vertex 4.98125 3 3
      vertex 4.98125 0 3
    endloop
  endfacet
  facet normal -1 0 0
    outer loop
      vertex 18.85 3 3
      vertex 18.85 18.85 27
      vertex 18.85 18.85 3
    endloop
  endfacet
  facet normal -1 -0 0
    outer loop
      vertex 18.85 18.85 27
      vertex 18.85 3 3
      vertex 18.85 3 27
    endloop
  endfacet
  facet normal 1 -0 0
    outer loop
      vertex 3 3 27
      vertex 3 18.85 3
      vertex 3 18.85 27
    endloop
  endfacet
  facet normal 1 0 0
    outer loop
      vertex 3 18.85 3
      vertex 3 3 27
      vertex 3 3 3
    endloop
  endfacet
  facet normal 1 -0 0
    outer loop
      vertex 4.98125 0 27
      vertex 4.98125 3 3
      vertex 4.98125 3 27
    endloop
  endfacet
  facet normal 1 0 0
    outer loop
      vertex 4.98125 3 3
      vertex 4.98125 0 27
      vertex 4.98125 0 3
    endloop
  endfacet
  facet normal -1 0 0
    outer loop
      vertex 16.8687 0 3
      vertex 16.8687 3 27
      vertex 16.8687 3 3
    endloop
  endfacet
  facet normal -1 -0 0
    outer loop
      vertex 16.8687 3 27
      vertex 16.8687 0 3
      vertex 16.8687 0 27
    endloop
  endfacet
  facet normal 0 1 -0
    outer loop
      vertex 56.55 3 3
      vertex 54.5687 3 27
      vertex 56.55 3 27
    endloop
  endfacet
  facet normal 0 1 0
    outer loop
      vertex 54.5687 3 27
      vertex 56.55 3 3
      vertex 54.5687 3 3
    endloop
  endfacet
  facet normal 0 1 -0
    outer loop
      vertex 42.6813 3 3
      vertex 40.7 3 27
      vertex 42.6813 3 27
    endloop
  endfacet
  facet normal 0 1 0
    outer loop
      vertex 40.7 3 27
      vertex 42.6813 3 3
      vertex 40.7 3 3
    endloop
  endfacet
  facet normal -1.20337e-007 -1 0
    outer loop
      vertex 40.7 18.85 3
      vertex 56.55 18.85 27
      vertex 40.7 18.85 27
    endloop
  endfacet
  facet normal -1.20337e-007 -1 -0
    outer loop
      vertex 56.55 18.85 27
      vertex 40.7 18.85 3
      vertex 56.55 18.85 3
    endloop
  endfacet
  facet normal 0 0 1
    outer loop
      vertex 56.55 18.85 3
      vertex 54.5687 3 3
      vertex 56.55 3 3
    endloop
  endfacet
  facet normal 0 0 1
    outer loop
      vertex 54.5687 3 3
      vertex 42.6813 3 3
      vertex 54.5687 0 3
    endloop
  endfacet
  facet normal 0 0 1
    outer loop
      vertex 56.55 18.85 3
      vertex 42.6813 3 3
      vertex 54.5687 3 3
    endloop
  endfacet
  facet normal 0 0 1
    outer loop
      vertex 40.7 18.85 3
      vertex 42.6813 3 3
      vertex 56.55 18.85 3
    endloop
  endfacet
  facet normal 0 0 1
    outer loop
      vertex 42.6813 3 3
      vertex 40.7 18.85 3
      vertex 40.7 3 3
    endloop
  endfacet
  facet normal 0 0 1
    outer loop
      vertex 54.5687 0 3
      vertex 42.6813 3 3
      vertex 42.6813 0 3
    endloop
  endfacet
  facet normal -1 0 0
    outer loop
      vertex 56.55 3 3
      vertex 56.55 18.85 27
      vertex 56.55 18.85 3
    endloop
  endfacet
  facet normal -1 -0 0
    outer loop
      vertex 56.55 18.85 27
      vertex 56.55 3 3
      vertex 56.55 3 27
    endloop
  endfacet
  facet normal 1 -0 0
    outer loop
      vertex 40.7 3 27
      vertex 40.7 18.85 3
      vertex 40.7 18.85 27
    endloop
  endfacet
  facet normal 1 0 0
    outer loop
      vertex 40.7 18.85 3
      vertex 40.7 3 27
      vertex 40.7 3 3
    endloop
  endfacet
  facet normal 1 -0 0
    outer loop
      vertex 42.6813 0 27
      vertex 42.6813 3 3
      vertex 42.6813 3 27
    endloop
  endfacet
  facet normal 1 0 0
    outer loop
      vertex 42.6813 3 3
      vertex 42.6813 0 27
      vertex 42.6813 0 3
    endloop
  endfacet
  facet normal -1 0 0
    outer loop
      vertex 54.5687 0 3
      vertex 54.5687 3 27
      vertex 54.5687 3 3
    endloop
  endfacet
  facet normal -1 -0 0
    outer loop
      vertex 54.5687 3 27
      vertex 54.5687 0 3
      vertex 54.5687 0 27
    endloop
  endfacet
  facet normal 0 1 -0
    outer loop
      vertex 94.25 3 3
      vertex 92.2688 3 27
      vertex 94.25 3 27
    endloop
  endfacet
  facet normal 0 1 0
    outer loop
      vertex 92.2688 3 27
      vertex 94.25 3 3
      vertex 92.2688 3 3
    endloop
  endfacet
  facet normal 0 1 -0
    outer loop
      vertex 80.3812 3 3
      vertex 78.4 3 27
      vertex 80.3812 3 27
    endloop
  endfacet
  facet normal 0 1 0
    outer loop
      vertex 78.4 3 27
      vertex 80.3812 3 3
      vertex 78.4 3 3
    endloop
  endfacet
  facet normal -1.20337e-007 -1 0
    outer loop
      vertex 78.4 18.85 3
      vertex 94.25 18.85 27
      vertex 78.4 18.85 27
    endloop
  endfacet
  facet normal -1.20337e-007 -1 -0
    outer loop
      vertex 94.25 18.85 27
      vertex 78.4 18.85 3
      vertex 94.25 18.85 3
    endloop
  endfacet
  facet normal 0 0 1
    outer loop
      vertex 94.25 18.85 3
      vertex 92.2688 3 3
      vertex 94.25 3 3
    endloop
  endfacet
  facet normal 0 0 1
    outer loop
      vertex 92.2688 3 3
      vertex 80.3812 3 3
      vertex 92.2688 0 3
    endloop
  endfacet
  facet normal 0 0 1
    outer loop
      vertex 94.25 18.85 3
      vertex 80.3812 3 3
      vertex 92.2688 3 3
    endloop
  endfacet
  facet normal 0 0 1
    outer loop
      vertex 78.4 18.85 3
      vertex 80.3812 3 3
      vertex 94.25 18.85 3
    endloop
  endfacet
  facet normal 0 0 1
    outer loop
      vertex 80.3812 3 3
      vertex 78.4 18.85 3
      vertex 78.4 3 3
    endloop
  endfacet
  facet normal 0 0 1
    outer loop
      vertex 92.2688 0 3
      vertex 80.3812 3 3
      vertex 80.3812 0 3
    endloop
  endfacet
  facet normal -1 0 0
    outer loop
      vertex 94.25 3 3
      vertex 94.25 18.85 27
      vertex 94.25 18.85 3
    endloop
  endfacet
  facet normal -1 -0 0
    outer loop
      vertex 94.25 18.85 27
      vertex 94.25 3 3
      vertex 94.25 3 27
    endloop
  endfacet
  facet normal 1 -0 0
    outer loop
      vertex 78.4 3 27
      vertex 78.4 18.85 3
      vertex 78.4 18.85 27
    endloop
  endfacet
  facet normal 1 0 0
    outer loop
      vertex 78.4 18.85 3
      vertex 78.4 3 27
      vertex 78.4 3 3
    endloop
  endfacet
  facet normal 1 -0 0
    outer loop
      vertex 80.3812 0 27
      vertex 80.3812 3 3
      vertex 80.3812 3 27
    endloop
  endfacet
  facet normal 1 0 0
    outer loop
      vertex 80.3812 3 3
      vertex 80.3812 0 27
      vertex 80.3812 0 3
    endloop
  endfacet
  facet normal -1 0 0
    outer loop
      vertex 92.2688 0 3
      vertex 92.2688 3 27
      vertex 92.2688 3 3
    endloop
  endfacet
  facet normal -1 -0 0
    outer loop
      vertex 92.2688 3 27
      vertex 92.2688 0 3
      vertex 92.2688 0 27
    endloop
  endfacet
  facet normal 0 -1 0
    outer loop
      vertex 3 59.7 3
      vertex 4.98125 59.7 27
      vertex 3 59.7 27
    endloop
  endfacet
  facet normal 0 -1 -0
    outer loop
      vertex 4.98125 59.7 27
      vertex 3 59.7 3
      vertex 4.98125 59.7 3
    endloop
  endfacet
  facet normal 0 -1 0
    outer loop
      vertex 16.8687 59.7 3
      vertex 18.85 59.7 27
      vertex 16.8687 59.7 27
    endloop
  endfacet
  facet normal 0 -1 -0
    outer loop
      vertex 18.85 59.7 27
      vertex 16.8687 59.7 3
      vertex 18.85 59.7 3
    endloop
  endfacet
  facet normal 0 1 -0
    outer loop
      vertex 18.85 43.85 3
      vertex 3 43.85 27
      vertex 18.85 43.85 27
    endloop
  endfacet
  facet normal 0 1 0
    outer loop
      vertex 3 43.85 27
      vertex 18.85 43.85 3
      vertex 3 43.85 3
    endloop
  endfacet
  facet normal 0 0 1
    outer loop
      vertex 16.8687 62.7 3
      vertex 4.98125 62.7 3
      vertex 16.8687 59.7 3
    endloop
  endfacet
  facet normal -0 0 1
    outer loop
      vertex 16.8687 59.7 3
      vertex 18.85 43.85 3
      vertex 18.85 59.7 3
    endloop
  endfacet
  facet normal 0 0 1
    outer loop
      vertex 4.98125 59.7 3
      vertex 16.8687 59.7 3
      vertex 4.98125 62.7 3
    endloop
  endfacet
  facet normal 0 0 1
    outer loop
      vertex 16.8687 59.7 3
      vertex 4.98125 59.7 3
      vertex 18.85 43.85 3
    endloop
  endfacet
  facet normal 0 0 1
    outer loop
      vertex 3 43.85 3
      vertex 4.98125 59.7 3
      vertex 3 59.7 3
    endloop
  endfacet
  facet normal 0 0 1
    outer loop
      vertex 4.98125 59.7 3
      vertex 3 43.85 3
      vertex 18.85 43.85 3
    endloop
  endfacet
  facet normal 1 -0 0
    outer loop
      vertex 3 43.85 27
      vertex 3 59.7 3
      vertex 3 59.7 27
    endloop
  endfacet
  facet normal 1 0 0
    outer loop
      vertex 3 59.7 3
      vertex 3 43.85 27
      vertex 3 43.85 3
    endloop
  endfacet
  facet normal -1 0 0
    outer loop
      vertex 18.85 43.85 3
      vertex 18.85 59.7 27
      vertex 18.85 59.7 3
    endloop
  endfacet
  facet normal -1 -0 0
    outer loop
      vertex 18.85 59.7 27
      vertex 18.85 43.85 3
      vertex 18.85 43.85 27
    endloop
  endfacet
  facet normal -1 0 0
    outer loop
      vertex 16.8687 59.7 3
      vertex 16.8687 62.7 27
      vertex 16.8687 62.7 3
    endloop
  endfacet
  facet normal -1 -0 0
    outer loop
      vertex 16.8687 62.7 27
      vertex 16.8687 59.7 3
      vertex 16.8687 59.7 27
    endloop
  endfacet
  facet normal 1 -0 0
    outer loop
      vertex 4.98125 59.7 27
      vertex 4.98125 62.7 3
      vertex 4.98125 62.7 27
    endloop
  endfacet
  facet normal 1 0 0
    outer loop
      vertex 4.98125 62.7 3
      vertex 4.98125 59.7 27
      vertex 4.98125 59.7 3
    endloop
  endfacet
  facet normal 0 -1 0
    outer loop
      vertex 21.85 59.7 3
      vertex 23.8312 59.7 27
      vertex 21.85 59.7 27
    endloop
  endfacet
  facet normal 0 -1 -0
    outer loop
      vertex 23.8312 59.7 27
      vertex 21.85 59.7 3
      vertex 23.8312 59.7 3
    endloop
  endfacet
  facet normal 0 -1 0
    outer loop
      vertex 35.7188 59.7 3
      vertex 37.7 59.7 27
      vertex 35.7188 59.7 27
    endloop
  endfacet
  facet normal 0 -1 -0
    outer loop
      vertex 37.7 59.7 27
      vertex 35.7188 59.7 3
      vertex 37.7 59.7 3
    endloop
  endfacet
  facet normal 0 1 -0
    outer loop
      vertex 37.7 43.85 3
      vertex 21.85 43.85 27
      vertex 37.7 43.85 27
    endloop
  endfacet
  facet normal 0 1 0
    outer loop
      vertex 21.85 43.85 27
      vertex 37.7 43.85 3
      vertex 21.85 43.85 3
    endloop
  endfacet
  facet normal 0 0 1
    outer loop
      vertex 35.7188 62.7 3
      vertex 23.8312 62.7 3
      vertex 35.7188 59.7 3
    endloop
  endfacet
  facet normal -0 0 1
    outer loop
      vertex 35.7188 59.7 3
      vertex 37.7 43.85 3
      vertex 37.7 59.7 3
    endloop
  endfacet
  facet normal 0 0 1
    outer loop
      vertex 23.8312 59.7 3
      vertex 35.7188 59.7 3
      vertex 23.8312 62.7 3
    endloop
  endfacet
  facet normal 0 0 1
    outer loop
      vertex 35.7188 59.7 3
      vertex 23.8312 59.7 3
      vertex 37.7 43.85 3
    endloop
  endfacet
  facet normal 0 0 1
    outer loop
      vertex 21.85 43.85 3
      vertex 23.8312 59.7 3
      vertex 21.85 59.7 3
    endloop
  endfacet
  facet normal 0 0 1
    outer loop
      vertex 23.8312 59.7 3
      vertex 21.85 43.85 3
      vertex 37.7 43.85 3
    endloop
  endfacet
  facet normal 1 -0 0
    outer loop
      vertex 21.85 43.85 27
      vertex 21.85 59.7 3
      vertex 21.85 59.7 27
    endloop
  endfacet
  facet normal 1 0 0
    outer loop
      vertex 21.85 59.7 3
      vertex 21.85 43.85 27
      vertex 21.85 43.85 3
    endloop
  endfacet
  facet normal -1 0 0
    outer loop
      vertex 37.7 43.85 3
      vertex 37.7 59.7 27
      vertex 37.7 59.7 3
    endloop
  endfacet
  facet normal -1 -0 0
    outer loop
      vertex 37.7 59.7 27
      vertex 37.7 43.85 3
      vertex 37.7 43.85 27
    endloop
  endfacet
  facet normal -1 0 0
    outer loop
      vertex 35.7188 59.7 3
      vertex 35.7188 62.7 27
      vertex 35.7188 62.7 3
    endloop
  endfacet
  facet normal -1 -0 0
    outer loop
      vertex 35.7188 62.7 27
      vertex 35.7188 59.7 3
      vertex 35.7188 59.7 27
    endloop
  endfacet
  facet normal 1 -0 0
    outer loop
      vertex 23.8312 59.7 27
      vertex 23.8312 62.7 3
      vertex 23.8312 62.7 27
    endloop
  endfacet
  facet normal 1 0 0
    outer loop
      vertex 23.8312 62.7 3
      vertex 23.8312 59.7 27
      vertex 23.8312 59.7 3
    endloop
  endfacet
  facet normal 0 -1 0
    outer loop
      vertex 40.7 59.7 3
      vertex 42.6813 59.7 27
      vertex 40.7 59.7 27
    endloop
  endfacet
  facet normal 0 -1 -0
    outer loop
      vertex 42.6813 59.7 27
      vertex 40.7 59.7 3
      vertex 42.6813 59.7 3
    endloop
  endfacet
  facet normal 0 -1 0
    outer loop
      vertex 54.5687 59.7 3
      vertex 56.55 59.7 27
      vertex 54.5687 59.7 27
    endloop
  endfacet
  facet normal 0 -1 -0
    outer loop
      vertex 56.55 59.7 27
      vertex 54.5687 59.7 3
      vertex 56.55 59.7 3
    endloop
  endfacet
  facet normal 0 1 -0
    outer loop
      vertex 56.55 43.85 3
      vertex 40.7 43.85 27
      vertex 56.55 43.85 27
    endloop
  endfacet
  facet normal 0 1 0
    outer loop
      vertex 40.7 43.85 27
      vertex 56.55 43.85 3
      vertex 40.7 43.85 3
    endloop
  endfacet
  facet normal 0 0 1
    outer loop
      vertex 54.5687 62.7 3
      vertex 42.6813 62.7 3
      vertex 54.5687 59.7 3
    endloop
  endfacet
  facet normal -0 0 1
    outer loop
      vertex 54.5687 59.7 3
      vertex 56.55 43.85 3
      vertex 56.55 59.7 3
    endloop
  endfacet
  facet normal 0 0 1
    outer loop
      vertex 42.6813 59.7 3
      vertex 54.5687 59.7 3
      vertex 42.6813 62.7 3
    endloop
  endfacet
  facet normal 0 0 1
    outer loop
      vertex 54.5687 59.7 3
      vertex 42.6813 59.7 3
      vertex 56.55 43.85 3
    endloop
  endfacet
  facet normal 0 0 1
    outer loop
      vertex 40.7 43.85 3
      vertex 42.6813 59.7 3
      vertex 40.7 59.7 3
    endloop
  endfacet
  facet normal 0 0 1
    outer loop
      vertex 42.6813 59.7 3
      vertex 40.7 43.85 3
      vertex 56.55 43.85 3
    endloop
  endfacet
  facet normal 1 -0 0
    outer loop
      vertex 40.7 43.85 27
      vertex 40.7 59.7 3
      vertex 40.7 59.7 27
    endloop
  endfacet
  facet normal 1 0 0
    outer loop
      vertex 40.7 59.7 3
      vertex 40.7 43.85 27
      vertex 40.7 43.85 3
    endloop
  endfacet
  facet normal -1 0 0
    outer loop
      vertex 56.55 43.85 3
      vertex 56.55 59.7 27
      vertex 56.55 59.7 3
    endloop
  endfacet
  facet normal -1 -0 0
    outer loop
      vertex 56.55 59.7 27
      vertex 56.55 43.85 3
      vertex 56.55 43.85 27
    endloop
  endfacet
  facet normal -1 0 0
    outer loop
      vertex 54.5687 59.7 3
      vertex 54.5687 62.7 27
      vertex 54.5687 62.7 3
    endloop
  endfacet
  facet normal -1 -0 0
    outer loop
      vertex 54.5687 62.7 27
      vertex 54.5687 59.7 3
      vertex 54.5687 59.7 27
    endloop
  endfacet
  facet normal 1 -0 0
    outer loop
      vertex 42.6813 59.7 27
      vertex 42.6813 62.7 3
      vertex 42.6813 62.7 27
    endloop
  endfacet
  facet normal 1 0 0
    outer loop
      vertex 42.6813 62.7 3
      vertex 42.6813 59.7 27
      vertex 42.6813 59.7 3
    endloop
  endfacet
  facet normal 0 -1 0
    outer loop
      vertex 59.55 59.7 3
      vertex 61.5312 59.7 27
      vertex 59.55 59.7 27
    endloop
  endfacet
  facet normal 0 -1 -0
    outer loop
      vertex 61.5312 59.7 27
      vertex 59.55 59.7 3
      vertex 61.5312 59.7 3
    endloop
  endfacet
  facet normal 0 -1 0
    outer loop
      vertex 73.4187 59.7 3
      vertex 75.4 59.7 27
      vertex 73.4187 59.7 27
    endloop
  endfacet
  facet normal 0 -1 -0
    outer loop
      vertex 75.4 59.7 27
      vertex 73.4187 59.7 3
      vertex 75.4 59.7 3
    endloop
  endfacet
  facet normal 0 1 -0
    outer loop
      vertex 75.4 43.85 3
      vertex 59.55 43.85 27
      vertex 75.4 43.85 27
    endloop
  endfacet
  facet normal 0 1 0
    outer loop
      vertex 59.55 43.85 27
      vertex 75.4 43.85 3
      vertex 59.55 43.85 3
    endloop
  endfacet
  facet normal 0 0 1
    outer loop
      vertex 73.4187 62.7 3
      vertex 61.5312 62.7 3
      vertex 73.4187 59.7 3
    endloop
  endfacet
  facet normal -0 0 1
    outer loop
      vertex 73.4187 59.7 3
      vertex 75.4 43.85 3
      vertex 75.4 59.7 3
    endloop
  endfacet
  facet normal 0 0 1
    outer loop
      vertex 61.5312 59.7 3
      vertex 73.4187 59.7 3
      vertex 61.5312 62.7 3
    endloop
  endfacet
  facet normal 0 0 1
    outer loop
      vertex 73.4187 59.7 3
      vertex 61.5312 59.7 3
      vertex 75.4 43.85 3
    endloop
  endfacet
  facet normal 0 0 1
    outer loop
      vertex 59.55 43.85 3
      vertex 61.5312 59.7 3
      vertex 59.55 59.7 3
    endloop
  endfacet
  facet normal 0 0 1
    outer loop
      vertex 61.5312 59.7 3
      vertex 59.55 43.85 3
      vertex 75.4 43.85 3
    endloop
  endfacet
  facet normal 1 -0 0
    outer loop
      vertex 59.55 43.85 27
      vertex 59.55 59.7 3
      vertex 59.55 59.7 27
    endloop
  endfacet
  facet normal 1 0 0
    outer loop
      vertex 59.55 59.7 3
      vertex 59.55 43.85 27
      vertex 59.55 43.85 3
    endloop
  endfacet
  facet normal -1 0 0
    outer loop
      vertex 75.4 43.85 3
      vertex 75.4 59.7 27
      vertex 75.4 59.7 3
    endloop
  endfacet
  facet normal -1 -0 0
    outer loop
      vertex 75.4 59.7 27
      vertex 75.4 43.85 3
      vertex 75.4 43.85 27
    endloop
  endfacet
  facet normal -1 0 0
    outer loop
      vertex 73.4187 59.7 3
      vertex 73.4187 62.7 27
      vertex 73.4187 62.7 3
    endloop
  endfacet
  facet normal -1 -0 0
    outer loop
      vertex 73.4187 62.7 27
      vertex 73.4187 59.7 3
      vertex 73.4187 59.7 27
    endloop
  endfacet
  facet normal 1 -0 0
    outer loop
      vertex 61.5312 59.7 27
      vertex 61.5312 62.7 3
      vertex 61.5312 62.7 27
    endloop
  endfacet
  facet normal 1 0 0
    outer loop
      vertex 61.5312 62.7 3
      vertex 61.5312 59.7 27
      vertex 61.5312 59.7 3
    endloop
  endfacet
  facet normal 0 -1 0
    outer loop
      vertex 78.4 59.7 3
      vertex 80.3812 59.7 27
      vertex 78.4 59.7 27
    endloop
  endfacet
  facet normal 0 -1 -0
    outer loop
      vertex 80.3812 59.7 27
      vertex 78.4 59.7 3
      vertex 80.3812 59.7 3
    endloop
  endfacet
  facet normal 0 -1 0
    outer loop
      vertex 92.2688 59.7 3
      vertex 94.25 59.7 27
      vertex 92.2688 59.7 27
    endloop
  endfacet
  facet normal 0 -1 -0
    outer loop
      vertex 94.25 59.7 27
      vertex 92.2688 59.7 3
      vertex 94.25 59.7 3
    endloop
  endfacet
  facet normal 0 1 -0
    outer loop
      vertex 94.25 43.85 3
      vertex 78.4 43.85 27
      vertex 94.25 43.85 27
    endloop
  endfacet
  facet normal 0 1 0
    outer loop
      vertex 78.4 43.85 27
      vertex 94.25 43.85 3
      vertex 78.4 43.85 3
    endloop
  endfacet
  facet normal 0 0 1
    outer loop
      vertex 92.2688 62.7 3
      vertex 80.3812 62.7 3
      vertex 92.2688 59.7 3
    endloop
  endfacet
  facet normal -0 0 1
    outer loop
      vertex 92.2688 59.7 3
      vertex 94.25 43.85 3
      vertex 94.25 59.7 3
    endloop
  endfacet
  facet normal 0 0 1
    outer loop
      vertex 80.3812 59.7 3
      vertex 92.2688 59.7 3
      vertex 80.3812 62.7 3
    endloop
  endfacet
  facet normal 0 0 1
    outer loop
      vertex 92.2688 59.7 3
      vertex 80.3812 59.7 3
      vertex 94.25 43.85 3
    endloop
  endfacet
  facet normal 0 0 1
    outer loop
      vertex 78.4 43.85 3
      vertex 80.3812 59.7 3
      vertex 78.4 59.7 3
    endloop
  endfacet
  facet normal 0 0 1
    outer loop
      vertex 80.3812 59.7 3
      vertex 78.4 43.85 3
      vertex 94.25 43.85 3
    endloop
  endfacet
  facet normal 1 -0 0
    outer loop
      vertex 78.4 43.85 27
      vertex 78.4 59.7 3
      vertex 78.4 59.7 27
    endloop
  endfacet
  facet normal 1 0 0
    outer loop
      vertex 78.4 59.7 3
      vertex 78.4 43.85 27
      vertex 78.4 43.85 3
    endloop
  endfacet
  facet normal -1 0 0
    outer loop
      vertex 94.25 43.85 3
      vertex 94.25 59.7 27
      vertex 94.25 59.7 3
    endloop
  endfacet
  facet normal -1 -0 0
    outer loop
      vertex 94.25 59.7 27
      vertex 94.25 43.85 3
      vertex 94.25 43.85 27
    endloop
  endfacet
  facet normal -1 0 0
    outer loop
      vertex 92.2688 59.7 3
      vertex 92.2688 62.7 27
      vertex 92.2688 62.7 3
    endloop
  endfacet
  facet normal -1 -0 0
    outer loop
      vertex 92.2688 62.7 27
      vertex 92.2688 59.7 3
      vertex 92.2688 59.7 27
    endloop
  endfacet
  facet normal 1 -0 0
    outer loop
      vertex 80.3812 59.7 27
      vertex 80.3812 62.7 3
      vertex 80.3812 62.7 27
    endloop
  endfacet
  facet normal 1 0 0
    outer loop
      vertex 80.3812 62.7 3
      vertex 80.3812 59.7 27
      vertex 80.3812 59.7 3
    endloop
  endfacet
  facet normal -1 0 0
    outer loop
      vertex 0 0 0
      vertex 0 62.7 27
      vertex 0 62.7 0
    endloop
  endfacet
  facet normal -1 -0 0
    outer loop
      vertex 0 62.7 27
      vertex 0 0 0
      vertex 0 0 27
    endloop
  endfacet
  facet normal 1 -0 0
    outer loop
      vertex 97.25 0 27
      vertex 97.25 62.7 0
      vertex 97.25 62.7 27
    endloop
  endfacet
  facet normal 1 0 0
    outer loop
      vertex 97.25 62.7 0
      vertex 97.25 0 27
      vertex 97.25 0 0
    endloop
  endfacet
  facet normal 0 0 -1
    outer loop
      vertex 97.25 0 0
      vertex 58.125 21.85 0
      vertex 97.25 62.7 0
    endloop
  endfacet
  facet normal 0 0 -1
    outer loop
      vertex 97.25 0 0
      vertex 39.125 21.85 0
      vertex 58.125 21.85 0
    endloop
  endfacet
  facet normal -0 0 -1
    outer loop
      vertex 39.125 21.85 0
      vertex 0 0 0
      vertex 39.125 40.85 0
    endloop
  endfacet
  facet normal 0 0 -1
    outer loop
      vertex 0 0 0
      vertex 39.125 21.85 0
      vertex 97.25 0 0
    endloop
  endfacet
  facet normal 0 0 -1
    outer loop
      vertex 58.125 40.85 0
      vertex 97.25 62.7 0
      vertex 58.125 21.85 0
    endloop
  endfacet
  facet normal 0 0 -1
    outer loop
      vertex 39.125 40.85 0
      vertex 97.25 62.7 0
      vertex 58.125 40.85 0
    endloop
  endfacet
  facet normal 0 0 -1
    outer loop
      vertex 39.125 40.85 0
      vertex 0 62.7 0
      vertex 97.25 62.7 0
    endloop
  endfacet
  facet normal 0 0 -1
    outer loop
      vertex 0 62.7 0
      vertex 39.125 40.85 0
      vertex 0 0 0
    endloop
  endfacet
  facet normal 0 -1 0
    outer loop
      vertex 0 0 27
      vertex 4.98125 0 3
      vertex 4.98125 0 27
    endloop
  endfacet
  facet normal 0 -1 0
    outer loop
      vertex 0 0 0
      vertex 16.8687 0 3
      vertex 4.98125 0 3
    endloop
  endfacet
  facet normal 0 -1 -0
    outer loop
      vertex 16.8687 0 3
      vertex 0 0 0
      vertex 23.8313 0 3
    endloop
  endfacet
  facet normal 0 -1 -0
    outer loop
      vertex 23.8313 0 3
      vertex 0 0 0
      vertex 35.7188 0 3
    endloop
  endfacet
  facet normal 0 -1 -0
    outer loop
      vertex 35.7188 0 3
      vertex 0 0 0
      vertex 42.6813 0 3
    endloop
  endfacet
  facet normal 0 -1 -0
    outer loop
      vertex 42.6813 0 3
      vertex 0 0 0
      vertex 54.5687 0 3
    endloop
  endfacet
  facet normal 0 -1 0
    outer loop
      vertex 97.25 0 0
      vertex 54.5687 0 3
      vertex 0 0 0
    endloop
  endfacet
  facet normal 0 -1 0
    outer loop
      vertex 54.5687 0 3
      vertex 97.25 0 0
      vertex 61.5312 0 3
    endloop
  endfacet
  facet normal 0 -1 0
    outer loop
      vertex 61.5312 0 3
      vertex 97.25 0 0
      vertex 73.4187 0 3
    endloop
  endfacet
  facet normal 0 -1 0
    outer loop
      vertex 73.4187 0 3
      vertex 97.25 0 0
      vertex 80.3812 0 3
    endloop
  endfacet
  facet normal 0 -1 0
    outer loop
      vertex 0 0 0
      vertex 4.98125 0 3
      vertex 0 0 27
    endloop
  endfacet
  facet normal 0 -1 0
    outer loop
      vertex 16.8687 0 3
      vertex 23.8313 0 27
      vertex 16.8687 0 27
    endloop
  endfacet
  facet normal 0 -1 -0
    outer loop
      vertex 23.8313 0 27
      vertex 16.8687 0 3
      vertex 23.8313 0 3
    endloop
  endfacet
  facet normal 0 -1 0
    outer loop
      vertex 35.7188 0 3
      vertex 42.6813 0 27
      vertex 35.7188 0 27
    endloop
  endfacet
  facet normal 0 -1 -0
    outer loop
      vertex 42.6813 0 27
      vertex 35.7188 0 3
      vertex 42.6813 0 3
    endloop
  endfacet
  facet normal 0 -1 0
    outer loop
      vertex 54.5687 0 3
      vertex 61.5312 0 27
      vertex 54.5687 0 27
    endloop
  endfacet
  facet normal 0 -1 -0
    outer loop
      vertex 61.5312 0 27
      vertex 54.5687 0 3
      vertex 61.5312 0 3
    endloop
  endfacet
  facet normal 0 -1 0
    outer loop
      vertex 73.4187 0 3
      vertex 80.3812 0 27
      vertex 73.4187 0 27
    endloop
  endfacet
  facet normal 0 -1 -0
    outer loop
      vertex 80.3812 0 27
      vertex 73.4187 0 3
      vertex 80.3812 0 3
    endloop
  endfacet
  facet normal 0 -1 0
    outer loop
      vertex 92.2688 0 3
      vertex 97.25 0 27
      vertex 92.2688 0 27
    endloop
  endfacet
  facet normal 0 -1 0
    outer loop
      vertex 92.2688 0 3
      vertex 97.25 0 0
      vertex 97.25 0 27
    endloop
  endfacet
  facet normal 0 -1 0
    outer loop
      vertex 80.3812 0 3
      vertex 97.25 0 0
      vertex 92.2688 0 3
    endloop
  endfacet
  facet normal 0 1 0
    outer loop
      vertex 97.25 62.7 27
      vertex 92.2688 62.7 3
      vertex 92.2688 62.7 27
    endloop
  endfacet
  facet normal 0 1 0
    outer loop
      vertex 97.25 62.7 0
      vertex 80.3812 62.7 3
      vertex 92.2688 62.7 3
    endloop
  endfacet
  facet normal 0 1 0
    outer loop
      vertex 80.3812 62.7 3
      vertex 97.25 62.7 0
      vertex 73.4187 62.7 3
    endloop
  endfacet
  facet normal 0 1 0
    outer loop
      vertex 73.4187 62.7 3
      vertex 97.25 62.7 0
      vertex 61.5312 62.7 3
    endloop
  endfacet
  facet normal 0 1 0
    outer loop
      vertex 61.5312 62.7 3
      vertex 97.25 62.7 0
      vertex 54.5687 62.7 3
    endloop
  endfacet
  facet normal 0 1 0
    outer loop
      vertex 54.5687 62.7 3
      vertex 97.25 62.7 0
      vertex 42.6813 62.7 3
    endloop
  endfacet
  facet normal 0 1 0
    outer loop
      vertex 0 62.7 0
      vertex 42.6813 62.7 3
      vertex 97.25 62.7 0
    endloop
  endfacet
  facet normal 0 1 0
    outer loop
      vertex 42.6813 62.7 3
      vertex 0 62.7 0
      vertex 35.7188 62.7 3
    endloop
  endfacet
  facet normal 0 1 0
    outer loop
      vertex 35.7188 62.7 3
      vertex 0 62.7 0
      vertex 23.8312 62.7 3
    endloop
  endfacet
  facet normal 0 1 0
    outer loop
      vertex 23.8312 62.7 3
      vertex 0 62.7 0
      vertex 16.8687 62.7 3
    endloop
  endfacet
  facet normal 0 1 -0
    outer loop
      vertex 97.25 62.7 0
      vertex 92.2688 62.7 3
      vertex 97.25 62.7 27
    endloop
  endfacet
  facet normal 0 1 -0
    outer loop
      vertex 80.3812 62.7 3
      vertex 73.4187 62.7 27
      vertex 80.3812 62.7 27
    endloop
  endfacet
  facet normal 0 1 0
    outer loop
      vertex 73.4187 62.7 27
      vertex 80.3812 62.7 3
      vertex 73.4187 62.7 3
    endloop
  endfacet
  facet normal 0 1 -0
    outer loop
      vertex 61.5312 62.7 3
      vertex 54.5687 62.7 27
      vertex 61.5312 62.7 27
    endloop
  endfacet
  facet normal 0 1 0
    outer loop
      vertex 54.5687 62.7 27
      vertex 61.5312 62.7 3
      vertex 54.5687 62.7 3
    endloop
  endfacet
  facet normal 0 1 -0
    outer loop
      vertex 42.6813 62.7 3
      vertex 35.7188 62.7 27
      vertex 42.6813 62.7 27
    endloop
  endfacet
  facet normal 0 1 0
    outer loop
      vertex 35.7188 62.7 27
      vertex 42.6813 62.7 3
      vertex 35.7188 62.7 3
    endloop
  endfacet
  facet normal 0 1 -0
    outer loop
      vertex 23.8312 62.7 3
      vertex 16.8687 62.7 27
      vertex 23.8312 62.7 27
    endloop
  endfacet
  facet normal 0 1 0
    outer loop
      vertex 16.8687 62.7 27
      vertex 23.8312 62.7 3
      vertex 16.8687 62.7 3
    endloop
  endfacet
  facet normal 0 1 -0
    outer loop
      vertex 4.98125 62.7 3
      vertex 0 62.7 27
      vertex 4.98125 62.7 27
    endloop
  endfacet
  facet normal 0 1 0
    outer loop
      vertex 4.98125 62.7 3
      vertex 0 62.7 0
      vertex 0 62.7 27
    endloop
  endfacet
  facet normal 0 1 0
    outer loop
      vertex 16.8687 62.7 3
      vertex 0 62.7 0
      vertex 4.98125 62.7 3
    endloop
  endfacet
  facet normal 1 -0 0
    outer loop
      vertex 39.125 21.85 27
      vertex 39.125 40.85 0
      vertex 39.125 40.85 27
    endloop
  endfacet
  facet normal 1 0 0
    outer loop
      vertex 39.125 40.85 0
      vertex 39.125 21.85 27
      vertex 39.125 21.85 0
    endloop
  endfacet
  facet normal -1 0 0
    outer loop
      vertex 58.125 21.85 0
      vertex 58.125 40.85 27
      vertex 58.125 40.85 0
    endloop
  endfacet
  facet normal -1 -0 0
    outer loop
      vertex 58.125 40.85 27
      vertex 58.125 21.85 0
      vertex 58.125 21.85 27
    endloop
  endfacet
  facet normal 0 -1 0
    outer loop
      vertex 39.125 40.85 0
      vertex 58.125 40.85 27
      vertex 39.125 40.85 27
    endloop
  endfacet
  facet normal 0 -1 -0
    outer loop
      vertex 58.125 40.85 27
      vertex 39.125 40.85 0
      vertex 58.125 40.85 0
    endloop
  endfacet
  facet normal 0 1 -0
    outer loop
      vertex 58.125 21.85 0
      vertex 39.125 21.85 27
      vertex 58.125 21.85 27
    endloop
  endfacet
  facet normal 0 1 0
    outer loop
      vertex 39.125 21.85 27
      vertex 58.125 21.85 0
      vertex 39.125 21.85 0
    endloop
  endfacet
endsolid OpenSCAD_Model
