solid OpenSCAD_Model
  facet normal -1 0 0
    outer loop
      vertex 0 95 0
      vertex 0 58.945 3
      vertex 0 95 29.3
    endloop
  endfacet
  facet normal -1 0 0
    outer loop
      vertex 0 95 0
      vertex 0 36.055 3
      vertex 0 58.945 3
    endloop
  endfacet
  facet normal -1 0 0
    outer loop
      vertex 0 0 0
      vertex 0 36.055 3
      vertex 0 95 0
    endloop
  endfacet
  facet normal -1 0 0
    outer loop
      vertex 0 0 29.3
      vertex 0 36.055 3
      vertex 0 0 0
    endloop
  endfacet
  facet normal -1 0 0
    outer loop
      vertex 0 36.055 3
      vertex 0 0 29.3
      vertex 0 36.055 29.3
    endloop
  endfacet
  facet normal -1 -0 0
    outer loop
      vertex 0 95 29.3
      vertex 0 58.945 3
      vertex 0 58.945 29.3
    endloop
  endfacet
  facet normal 0 0 1
    outer loop
      vertex 28.425 90.5948 29.3
      vertex 26.4311 66.575 29.3
      vertex 28.425 68.5689 29.3
    endloop
  endfacet
  facet normal 0 0 1
    outer loop
      vertex 28.425 90.5948 29.3
      vertex 4.40518 66.575 29.3
      vertex 26.4311 66.575 29.3
    endloop
  endfacet
  facet normal -0 0 1
    outer loop
      vertex 0 95 29.3
      vertex 28.425 90.5948 29.3
      vertex 36.055 95 29.3
    endloop
  endfacet
  facet normal 0 0 1
    outer loop
      vertex 0 95 29.3
      vertex 4.40518 66.575 29.3
      vertex 28.425 90.5948 29.3
    endloop
  endfacet
  facet normal 0 0 1
    outer loop
      vertex 4.40518 66.575 29.3
      vertex 0 95 29.3
      vertex 0 58.945 29.3
    endloop
  endfacet
  facet normal 0 0 1
    outer loop
      vertex 95 95 29.3
      vertex 90.5948 66.575 29.3
      vertex 95 58.945 29.3
    endloop
  endfacet
  facet normal -0 0 1
    outer loop
      vertex 66.575 90.5948 29.3
      vertex 90.5948 66.575 29.3
      vertex 95 95 29.3
    endloop
  endfacet
  facet normal 0 0 1
    outer loop
      vertex 90.5948 66.575 29.3
      vertex 66.575 90.5948 29.3
      vertex 68.5689 66.575 29.3
    endloop
  endfacet
  facet normal 0 -0 1
    outer loop
      vertex 66.575 90.5948 29.3
      vertex 95 95 29.3
      vertex 58.945 95 29.3
    endloop
  endfacet
  facet normal -0 0 1
    outer loop
      vertex 66.575 68.5689 29.3
      vertex 68.5689 66.575 29.3
      vertex 66.575 90.5948 29.3
    endloop
  endfacet
  facet normal 0 0 1
    outer loop
      vertex 53.1131 52.771 29.3
      vertex 68.5689 66.575 29.3
      vertex 66.575 68.5689 29.3
    endloop
  endfacet
  facet normal 0 0 1
    outer loop
      vertex 68.5689 66.575 29.3
      vertex 54.2476 51.2095 29.3
      vertex 57.5559 47.5 29.3
    endloop
  endfacet
  facet normal 0 0 1
    outer loop
      vertex 57.5559 47.5 29.3
      vertex 54.9581 49.4149 29.3
      vertex 55.2 47.5 29.3
    endloop
  endfacet
  facet normal 0 0 1
    outer loop
      vertex 57.5559 47.5 29.3
      vertex 54.2476 51.2095 29.3
      vertex 54.9581 49.4149 29.3
    endloop
  endfacet
  facet normal 0 0 1
    outer loop
      vertex 68.5689 66.575 29.3
      vertex 53.1131 52.771 29.3
      vertex 54.2476 51.2095 29.3
    endloop
  endfacet
  facet normal 0 0 1
    outer loop
      vertex 66.575 68.5689 29.3
      vertex 51.6259 54.0013 29.3
      vertex 53.1131 52.771 29.3
    endloop
  endfacet
  facet normal -0 0 1
    outer loop
      vertex 47.5 57.5559 29.3
      vertex 51.6259 54.0013 29.3
      vertex 66.575 68.5689 29.3
    endloop
  endfacet
  facet normal 0 0 1
    outer loop
      vertex 51.6259 54.0013 29.3
      vertex 47.5 57.5559 29.3
      vertex 49.8794 54.8231 29.3
    endloop
  endfacet
  facet normal 0 0 1
    outer loop
      vertex 49.8794 54.8231 29.3
      vertex 47.5 57.5559 29.3
      vertex 47.9835 55.1848 29.3
    endloop
  endfacet
  facet normal 0 0 1
    outer loop
      vertex 47.5 57.5559 29.3
      vertex 46.0572 55.0636 29.3
      vertex 47.9835 55.1848 29.3
    endloop
  endfacet
  facet normal 0 0 1
    outer loop
      vertex 47.5 57.5559 29.3
      vertex 44.2215 54.4672 29.3
      vertex 46.0572 55.0636 29.3
    endloop
  endfacet
  facet normal 0 0 1
    outer loop
      vertex 28.425 68.5689 29.3
      vertex 44.2215 54.4672 29.3
      vertex 47.5 57.5559 29.3
    endloop
  endfacet
  facet normal 0 0 1
    outer loop
      vertex 39.8607 48.4651 29.3
      vertex 37.444 47.5 29.3
      vertex 39.8607 46.5349 29.3
    endloop
  endfacet
  facet normal 0 0 1
    outer loop
      vertex 40.3407 50.3346 29.3
      vertex 37.444 47.5 29.3
      vertex 39.8607 48.4651 29.3
    endloop
  endfacet
  facet normal 0 0 1
    outer loop
      vertex 41.2706 52.0259 29.3
      vertex 37.444 47.5 29.3
      vertex 40.3407 50.3346 29.3
    endloop
  endfacet
  facet normal 0 0 1
    outer loop
      vertex 44.2215 54.4672 29.3
      vertex 28.425 68.5689 29.3
      vertex 42.5918 53.433 29.3
    endloop
  endfacet
  facet normal -0 0 1
    outer loop
      vertex 26.4311 66.575 29.3
      vertex 42.5918 53.433 29.3
      vertex 28.425 68.5689 29.3
    endloop
  endfacet
  facet normal 0 0 1
    outer loop
      vertex 42.5918 53.433 29.3
      vertex 26.4311 66.575 29.3
      vertex 41.2706 52.0259 29.3
    endloop
  endfacet
  facet normal 0 0 1
    outer loop
      vertex 41.2706 52.0259 29.3
      vertex 26.4311 66.575 29.3
      vertex 37.444 47.5 29.3
    endloop
  endfacet
  facet normal -0 0 1
    outer loop
      vertex 54.2476 43.7905 29.3
      vertex 68.5689 28.425 29.3
      vertex 57.5559 47.5 29.3
    endloop
  endfacet
  facet normal 0 0 1
    outer loop
      vertex 54.9581 45.5851 29.3
      vertex 57.5559 47.5 29.3
      vertex 55.2 47.5 29.3
    endloop
  endfacet
  facet normal 0 0 1
    outer loop
      vertex 54.2476 43.7905 29.3
      vertex 57.5559 47.5 29.3
      vertex 54.9581 45.5851 29.3
    endloop
  endfacet
  facet normal -0 0 1
    outer loop
      vertex 53.1131 42.229 29.3
      vertex 68.5689 28.425 29.3
      vertex 54.2476 43.7905 29.3
    endloop
  endfacet
  facet normal 0 0 1
    outer loop
      vertex 68.5689 28.425 29.3
      vertex 53.1131 42.229 29.3
      vertex 66.575 26.4311 29.3
    endloop
  endfacet
  facet normal -0 0 1
    outer loop
      vertex 51.6259 40.9987 29.3
      vertex 66.575 26.4311 29.3
      vertex 53.1131 42.229 29.3
    endloop
  endfacet
  facet normal 0 0 1
    outer loop
      vertex 47.5 37.444 29.3
      vertex 51.6259 40.9987 29.3
      vertex 49.8794 40.1769 29.3
    endloop
  endfacet
  facet normal 0 0 1
    outer loop
      vertex 47.5 37.444 29.3
      vertex 49.8794 40.1769 29.3
      vertex 47.9835 39.8152 29.3
    endloop
  endfacet
  facet normal 0 0 1
    outer loop
      vertex 51.6259 40.9987 29.3
      vertex 47.5 37.444 29.3
      vertex 66.575 26.4311 29.3
    endloop
  endfacet
  facet normal 0 0 1
    outer loop
      vertex 46.0572 39.9364 29.3
      vertex 47.5 37.444 29.3
      vertex 47.9835 39.8152 29.3
    endloop
  endfacet
  facet normal 0 0 1
    outer loop
      vertex 44.2215 40.5328 29.3
      vertex 47.5 37.444 29.3
      vertex 46.0572 39.9364 29.3
    endloop
  endfacet
  facet normal 0 0 1
    outer loop
      vertex 28.425 26.4311 29.3
      vertex 44.2215 40.5328 29.3
      vertex 42.5918 41.567 29.3
    endloop
  endfacet
  facet normal 0 0 1
    outer loop
      vertex 37.444 47.5 29.3
      vertex 40.3407 44.6654 29.3
      vertex 39.8607 46.5349 29.3
    endloop
  endfacet
  facet normal 0 0 1
    outer loop
      vertex 37.444 47.5 29.3
      vertex 41.2706 42.9741 29.3
      vertex 40.3407 44.6654 29.3
    endloop
  endfacet
  facet normal 0 0 1
    outer loop
      vertex 44.2215 40.5328 29.3
      vertex 28.425 26.4311 29.3
      vertex 47.5 37.444 29.3
    endloop
  endfacet
  facet normal 0 0 1
    outer loop
      vertex 26.4311 28.425 29.3
      vertex 42.5918 41.567 29.3
      vertex 41.2706 42.9741 29.3
    endloop
  endfacet
  facet normal 0 0 1
    outer loop
      vertex 26.4311 28.425 29.3
      vertex 41.2706 42.9741 29.3
      vertex 37.444 47.5 29.3
    endloop
  endfacet
  facet normal 0 0 1
    outer loop
      vertex 28.425 26.4311 29.3
      vertex 26.4311 28.425 29.3
      vertex 28.425 4.40518 29.3
    endloop
  endfacet
  facet normal 0 0 1
    outer loop
      vertex 42.5918 41.567 29.3
      vertex 26.4311 28.425 29.3
      vertex 28.425 26.4311 29.3
    endloop
  endfacet
  facet normal -0 0 1
    outer loop
      vertex 90.5948 28.425 29.3
      vertex 95 0 29.3
      vertex 95 36.055 29.3
    endloop
  endfacet
  facet normal 0 0 1
    outer loop
      vertex 66.575 4.40518 29.3
      vertex 90.5948 28.425 29.3
      vertex 68.5689 28.425 29.3
    endloop
  endfacet
  facet normal 0 0 1
    outer loop
      vertex 66.575 4.40518 29.3
      vertex 68.5689 28.425 29.3
      vertex 66.575 26.4311 29.3
    endloop
  endfacet
  facet normal 0 0 1
    outer loop
      vertex 90.5948 28.425 29.3
      vertex 66.575 4.40518 29.3
      vertex 95 0 29.3
    endloop
  endfacet
  facet normal 0 0 1
    outer loop
      vertex 95 0 29.3
      vertex 66.575 4.40518 29.3
      vertex 58.945 0 29.3
    endloop
  endfacet
  facet normal -0 0 1
    outer loop
      vertex 4.40518 28.425 29.3
      vertex 28.425 4.40518 29.3
      vertex 26.4311 28.425 29.3
    endloop
  endfacet
  facet normal 0 0 1
    outer loop
      vertex 28.425 4.40518 29.3
      vertex 0 0 29.3
      vertex 36.055 0 29.3
    endloop
  endfacet
  facet normal 0 0 1
    outer loop
      vertex 4.40518 28.425 29.3
      vertex 0 0 29.3
      vertex 28.425 4.40518 29.3
    endloop
  endfacet
  facet normal 0 0 1
    outer loop
      vertex 0 0 29.3
      vertex 4.40518 28.425 29.3
      vertex 0 36.055 29.3
    endloop
  endfacet
  facet normal 1 0 0
    outer loop
      vertex 95 36.055 29.3
      vertex 95 0 29.3
      vertex 95 36.055 3
    endloop
  endfacet
  facet normal 1 0 0
    outer loop
      vertex 95 58.945 3
      vertex 95 95 29.3
      vertex 95 58.945 29.3
    endloop
  endfacet
  facet normal 1 0 0
    outer loop
      vertex 95 95 29.3
      vertex 95 58.945 3
      vertex 95 95 0
    endloop
  endfacet
  facet normal 1 -0 0
    outer loop
      vertex 95 36.055 3
      vertex 95 95 0
      vertex 95 58.945 3
    endloop
  endfacet
  facet normal 1 0 0
    outer loop
      vertex 95 36.055 3
      vertex 95 0 0
      vertex 95 95 0
    endloop
  endfacet
  facet normal 1 0 0
    outer loop
      vertex 95 0 0
      vertex 95 36.055 3
      vertex 95 0 29.3
    endloop
  endfacet
  facet normal 0 1 0
    outer loop
      vertex 95 95 29.3
      vertex 58.945 95 3
      vertex 58.945 95 29.3
    endloop
  endfacet
  facet normal 0 1 0
    outer loop
      vertex 58.945 95 3
      vertex 95 95 0
      vertex 36.055 95 3
    endloop
  endfacet
  facet normal 0 1 -0
    outer loop
      vertex 95 95 0
      vertex 58.945 95 3
      vertex 95 95 29.3
    endloop
  endfacet
  facet normal 0 1 -0
    outer loop
      vertex 36.055 95 3
      vertex 0 95 29.3
      vertex 36.055 95 29.3
    endloop
  endfacet
  facet normal 0 1 0
    outer loop
      vertex 36.055 95 3
      vertex 0 95 0
      vertex 0 95 29.3
    endloop
  endfacet
  facet normal 0 1 0
    outer loop
      vertex 0 95 0
      vertex 36.055 95 3
      vertex 95 95 0
    endloop
  endfacet
  facet normal 0 0 -1
    outer loop
      vertex 0 0 0
      vertex 95 95 0
      vertex 95 0 0
    endloop
  endfacet
  facet normal -0 0 -1
    outer loop
      vertex 95 95 0
      vertex 0 0 0
      vertex 0 95 0
    endloop
  endfacet
  facet normal 0 -1 0
    outer loop
      vertex 0 0 29.3
      vertex 36.055 0 3
      vertex 36.055 0 29.3
    endloop
  endfacet
  facet normal 0 -1 -0
    outer loop
      vertex 36.055 0 3
      vertex 0 0 0
      vertex 58.945 0 3
    endloop
  endfacet
  facet normal 0 -1 0
    outer loop
      vertex 0 0 0
      vertex 36.055 0 3
      vertex 0 0 29.3
    endloop
  endfacet
  facet normal 0 -1 0
    outer loop
      vertex 58.945 0 3
      vertex 95 0 29.3
      vertex 58.945 0 29.3
    endloop
  endfacet
  facet normal 0 -1 0
    outer loop
      vertex 58.945 0 3
      vertex 95 0 0
      vertex 95 0 29.3
    endloop
  endfacet
  facet normal 0 -1 0
    outer loop
      vertex 95 0 0
      vertex 58.945 0 3
      vertex 0 0 0
    endloop
  endfacet
  facet normal -0.866025 -0.5 0
    outer loop
      vertex 37.444 47.5 3
      vertex 26.4311 66.575 29.3
      vertex 26.4311 66.575 3
    endloop
  endfacet
  facet normal -0.866025 -0.5 0
    outer loop
      vertex 26.4311 66.575 29.3
      vertex 37.444 47.5 3
      vertex 37.444 47.5 29.3
    endloop
  endfacet
  facet normal 0.866025 0.5 0
    outer loop
      vertex 4.40518 28.425 29.3
      vertex 0 36.055 3
      vertex 0 36.055 29.3
    endloop
  endfacet
  facet normal 0.866025 0.5 0
    outer loop
      vertex 0 36.055 3
      vertex 4.40518 28.425 29.3
      vertex 4.40518 28.425 3
    endloop
  endfacet
  facet normal 0 -1 0
    outer loop
      vertex 4.40518 66.575 3
      vertex 26.4311 66.575 29.3
      vertex 4.40518 66.575 29.3
    endloop
  endfacet
  facet normal 0 -1 -0
    outer loop
      vertex 26.4311 66.575 29.3
      vertex 4.40518 66.575 3
      vertex 26.4311 66.575 3
    endloop
  endfacet
  facet normal 0 1 -0
    outer loop
      vertex 26.4311 28.425 3
      vertex 4.40518 28.425 29.3
      vertex 26.4311 28.425 29.3
    endloop
  endfacet
  facet normal 0 1 0
    outer loop
      vertex 4.40518 28.425 29.3
      vertex 26.4311 28.425 3
      vertex 4.40518 28.425 3
    endloop
  endfacet
  facet normal 0.866025 -0.5 0
    outer loop
      vertex 0 58.945 29.3
      vertex 4.40518 66.575 3
      vertex 4.40518 66.575 29.3
    endloop
  endfacet
  facet normal 0.866025 -0.5 0
    outer loop
      vertex 4.40518 66.575 3
      vertex 0 58.945 29.3
      vertex 0 58.945 3
    endloop
  endfacet
  facet normal -0 0 1
    outer loop
      vertex 0 58.945 3
      vertex 37.444 47.5 3
      vertex 26.4311 66.575 3
    endloop
  endfacet
  facet normal 0 0 1
    outer loop
      vertex 0 58.945 3
      vertex 26.4311 66.575 3
      vertex 4.40518 66.575 3
    endloop
  endfacet
  facet normal 0 0 1
    outer loop
      vertex 0 36.055 3
      vertex 37.444 47.5 3
      vertex 0 58.945 3
    endloop
  endfacet
  facet normal 0 0 1
    outer loop
      vertex 37.444 47.5 3
      vertex 0 36.055 3
      vertex 26.4311 28.425 3
    endloop
  endfacet
  facet normal 0 0 1
    outer loop
      vertex 26.4311 28.425 3
      vertex 0 36.055 3
      vertex 4.40518 28.425 3
    endloop
  endfacet
  facet normal -0.866025 0.5 0
    outer loop
      vertex 26.4311 28.425 3
      vertex 37.444 47.5 29.3
      vertex 37.444 47.5 3
    endloop
  endfacet
  facet normal -0.866025 0.5 0
    outer loop
      vertex 37.444 47.5 29.3
      vertex 26.4311 28.425 3
      vertex 26.4311 28.425 29.3
    endloop
  endfacet
  facet normal 0.866025 0.5 0
    outer loop
      vertex 68.5689 28.425 29.3
      vertex 57.5559 47.5 3
      vertex 57.5559 47.5 29.3
    endloop
  endfacet
  facet normal 0.866025 0.5 0
    outer loop
      vertex 57.5559 47.5 3
      vertex 68.5689 28.425 29.3
      vertex 68.5689 28.425 3
    endloop
  endfacet
  facet normal 0 1 -0
    outer loop
      vertex 90.5948 28.425 3
      vertex 68.5689 28.425 29.3
      vertex 90.5948 28.425 29.3
    endloop
  endfacet
  facet normal 0 1 0
    outer loop
      vertex 68.5689 28.425 29.3
      vertex 90.5948 28.425 3
      vertex 68.5689 28.425 3
    endloop
  endfacet
  facet normal -0.866025 0.5 0
    outer loop
      vertex 90.5948 28.425 3
      vertex 95 36.055 29.3
      vertex 95 36.055 3
    endloop
  endfacet
  facet normal -0.866025 0.5 0
    outer loop
      vertex 95 36.055 29.3
      vertex 90.5948 28.425 3
      vertex 90.5948 28.425 29.3
    endloop
  endfacet
  facet normal 0.866025 -0.5 0
    outer loop
      vertex 57.5559 47.5 29.3
      vertex 68.5689 66.575 3
      vertex 68.5689 66.575 29.3
    endloop
  endfacet
  facet normal 0.866025 -0.5 0
    outer loop
      vertex 68.5689 66.575 3
      vertex 57.5559 47.5 29.3
      vertex 57.5559 47.5 3
    endloop
  endfacet
  facet normal -0 0 1
    outer loop
      vertex 68.5689 66.575 3
      vertex 95 58.945 3
      vertex 90.5948 66.575 3
    endloop
  endfacet
  facet normal 0 0 1
    outer loop
      vertex 57.5559 47.5 3
      vertex 95 58.945 3
      vertex 68.5689 66.575 3
    endloop
  endfacet
  facet normal 0 0 1
    outer loop
      vertex 95 58.945 3
      vertex 57.5559 47.5 3
      vertex 95 36.055 3
    endloop
  endfacet
  facet normal 0 0 1
    outer loop
      vertex 95 36.055 3
      vertex 68.5689 28.425 3
      vertex 90.5948 28.425 3
    endloop
  endfacet
  facet normal 0 0 1
    outer loop
      vertex 95 36.055 3
      vertex 57.5559 47.5 3
      vertex 68.5689 28.425 3
    endloop
  endfacet
  facet normal 0 -1 0
    outer loop
      vertex 68.5689 66.575 3
      vertex 90.5948 66.575 29.3
      vertex 68.5689 66.575 29.3
    endloop
  endfacet
  facet normal 0 -1 -0
    outer loop
      vertex 90.5948 66.575 29.3
      vertex 68.5689 66.575 3
      vertex 90.5948 66.575 3
    endloop
  endfacet
  facet normal -0.866025 -0.5 0
    outer loop
      vertex 95 58.945 3
      vertex 90.5948 66.575 29.3
      vertex 90.5948 66.575 3
    endloop
  endfacet
  facet normal -0.866025 -0.5 0
    outer loop
      vertex 90.5948 66.575 29.3
      vertex 95 58.945 3
      vertex 95 58.945 29.3
    endloop
  endfacet
  facet normal 0 0 1
    outer loop
      vertex 66.575 26.4311 3
      vertex 58.945 0 3
      vertex 66.575 4.40518 3
    endloop
  endfacet
  facet normal 0 0 1
    outer loop
      vertex 47.5 37.444 3
      vertex 58.945 0 3
      vertex 66.575 26.4311 3
    endloop
  endfacet
  facet normal 0 0 1
    outer loop
      vertex 47.5 37.444 3
      vertex 36.055 0 3
      vertex 58.945 0 3
    endloop
  endfacet
  facet normal -0 0 1
    outer loop
      vertex 28.425 26.4311 3
      vertex 36.055 0 3
      vertex 47.5 37.444 3
    endloop
  endfacet
  facet normal 0 0 1
    outer loop
      vertex 36.055 0 3
      vertex 28.425 26.4311 3
      vertex 28.425 4.40518 3
    endloop
  endfacet
  facet normal 0.5 -0.866025 0
    outer loop
      vertex 28.425 26.4311 3
      vertex 47.5 37.444 29.3
      vertex 28.425 26.4311 29.3
    endloop
  endfacet
  facet normal 0.5 -0.866025 0
    outer loop
      vertex 47.5 37.444 29.3
      vertex 28.425 26.4311 3
      vertex 47.5 37.444 3
    endloop
  endfacet
  facet normal 1 -0 0
    outer loop
      vertex 28.425 4.40518 29.3
      vertex 28.425 26.4311 3
      vertex 28.425 26.4311 29.3
    endloop
  endfacet
  facet normal 1 0 0
    outer loop
      vertex 28.425 26.4311 3
      vertex 28.425 4.40518 29.3
      vertex 28.425 4.40518 3
    endloop
  endfacet
  facet normal -0.5 0.866025 0
    outer loop
      vertex 66.575 4.40518 3
      vertex 58.945 0 29.3
      vertex 66.575 4.40518 29.3
    endloop
  endfacet
  facet normal -0.5 0.866025 0
    outer loop
      vertex 58.945 0 29.3
      vertex 66.575 4.40518 3
      vertex 58.945 0 3
    endloop
  endfacet
  facet normal 0.5 0.866025 -0
    outer loop
      vertex 36.055 0 3
      vertex 28.425 4.40518 29.3
      vertex 36.055 0 29.3
    endloop
  endfacet
  facet normal 0.5 0.866025 0
    outer loop
      vertex 28.425 4.40518 29.3
      vertex 36.055 0 3
      vertex 28.425 4.40518 3
    endloop
  endfacet
  facet normal -0.5 -0.866025 0
    outer loop
      vertex 47.5 37.444 3
      vertex 66.575 26.4311 29.3
      vertex 47.5 37.444 29.3
    endloop
  endfacet
  facet normal -0.5 -0.866025 -0
    outer loop
      vertex 66.575 26.4311 29.3
      vertex 47.5 37.444 3
      vertex 66.575 26.4311 3
    endloop
  endfacet
  facet normal -1 0 0
    outer loop
      vertex 66.575 4.40518 3
      vertex 66.575 26.4311 29.3
      vertex 66.575 26.4311 3
    endloop
  endfacet
  facet normal -1 -0 0
    outer loop
      vertex 66.575 26.4311 29.3
      vertex 66.575 4.40518 3
      vertex 66.575 4.40518 29.3
    endloop
  endfacet
  facet normal -0.5 0.866025 0
    outer loop
      vertex 66.575 68.5689 3
      vertex 47.5 57.5559 29.3
      vertex 66.575 68.5689 29.3
    endloop
  endfacet
  facet normal -0.5 0.866025 0
    outer loop
      vertex 47.5 57.5559 29.3
      vertex 66.575 68.5689 3
      vertex 47.5 57.5559 3
    endloop
  endfacet
  facet normal -0.5 -0.866025 0
    outer loop
      vertex 58.945 95 3
      vertex 66.575 90.5948 29.3
      vertex 58.945 95 29.3
    endloop
  endfacet
  facet normal -0.5 -0.866025 -0
    outer loop
      vertex 66.575 90.5948 29.3
      vertex 58.945 95 3
      vertex 66.575 90.5948 3
    endloop
  endfacet
  facet normal -1 0 0
    outer loop
      vertex 66.575 68.5689 3
      vertex 66.575 90.5948 29.3
      vertex 66.575 90.5948 3
    endloop
  endfacet
  facet normal -1 -0 0
    outer loop
      vertex 66.575 90.5948 29.3
      vertex 66.575 68.5689 3
      vertex 66.575 68.5689 29.3
    endloop
  endfacet
  facet normal 0 0 1
    outer loop
      vertex 58.945 95 3
      vertex 66.575 68.5689 3
      vertex 66.575 90.5948 3
    endloop
  endfacet
  facet normal 0 0 1
    outer loop
      vertex 58.945 95 3
      vertex 47.5 57.5559 3
      vertex 66.575 68.5689 3
    endloop
  endfacet
  facet normal -0 0 1
    outer loop
      vertex 36.055 95 3
      vertex 47.5 57.5559 3
      vertex 58.945 95 3
    endloop
  endfacet
  facet normal 0 0 1
    outer loop
      vertex 28.425 68.5689 3
      vertex 36.055 95 3
      vertex 28.425 90.5948 3
    endloop
  endfacet
  facet normal 0 0 1
    outer loop
      vertex 36.055 95 3
      vertex 28.425 68.5689 3
      vertex 47.5 57.5559 3
    endloop
  endfacet
  facet normal 0.5 0.866025 -0
    outer loop
      vertex 47.5 57.5559 3
      vertex 28.425 68.5689 29.3
      vertex 47.5 57.5559 29.3
    endloop
  endfacet
  facet normal 0.5 0.866025 0
    outer loop
      vertex 28.425 68.5689 29.3
      vertex 47.5 57.5559 3
      vertex 28.425 68.5689 3
    endloop
  endfacet
  facet normal 1 -0 0
    outer loop
      vertex 28.425 68.5689 29.3
      vertex 28.425 90.5948 3
      vertex 28.425 90.5948 29.3
    endloop
  endfacet
  facet normal 1 0 0
    outer loop
      vertex 28.425 90.5948 3
      vertex 28.425 68.5689 29.3
      vertex 28.425 68.5689 3
    endloop
  endfacet
  facet normal 0.5 -0.866025 0
    outer loop
      vertex 28.425 90.5948 3
      vertex 36.055 95 29.3
      vertex 28.425 90.5948 29.3
    endloop
  endfacet
  facet normal 0.5 -0.866025 0
    outer loop
      vertex 36.055 95 29.3
      vertex 28.425 90.5948 3
      vertex 36.055 95 3
    endloop
  endfacet
  facet normal -0.992115 -0.125333 0
    outer loop
      vertex 55.2 47.5 25.3
      vertex 54.9581 49.4149 29.3
      vertex 54.9581 49.4149 25.3
    endloop
  endfacet
  facet normal -0.992115 -0.125333 0
    outer loop
      vertex 54.9581 49.4149 29.3
      vertex 55.2 47.5 25.3
      vertex 55.2 47.5 29.3
    endloop
  endfacet
  facet normal 1 -0 0
    outer loop
      vertex 39.8607 46.5349 29.3
      vertex 39.8607 48.4651 25.3
      vertex 39.8607 48.4651 29.3
    endloop
  endfacet
  facet normal 1 0 0
    outer loop
      vertex 39.8607 48.4651 25.3
      vertex 39.8607 46.5349 29.3
      vertex 39.8607 46.5349 25.3
    endloop
  endfacet
  facet normal 0.062792 -0.998027 0
    outer loop
      vertex 46.0572 55.0636 25.3
      vertex 47.9835 55.1848 29.3
      vertex 46.0572 55.0636 29.3
    endloop
  endfacet
  facet normal 0.062792 -0.998027 0
    outer loop
      vertex 47.9835 55.1848 29.3
      vertex 46.0572 55.0636 25.3
      vertex 47.9835 55.1848 25.3
    endloop
  endfacet
  facet normal -0.187381 0.982287 0
    outer loop
      vertex 49.8794 40.1769 25.3
      vertex 47.9835 39.8152 29.3
      vertex 49.8794 40.1769 29.3
    endloop
  endfacet
  facet normal -0.187381 0.982287 0
    outer loop
      vertex 47.9835 39.8152 29.3
      vertex 49.8794 40.1769 25.3
      vertex 47.9835 39.8152 25.3
    endloop
  endfacet
  facet normal -0.637424 -0.770514 0
    outer loop
      vertex 51.6259 54.0013 25.3
      vertex 53.1131 52.771 29.3
      vertex 51.6259 54.0013 29.3
    endloop
  endfacet
  facet normal -0.637424 -0.770514 -0
    outer loop
      vertex 53.1131 52.771 29.3
      vertex 51.6259 54.0013 25.3
      vertex 53.1131 52.771 25.3
    endloop
  endfacet
  facet normal -0.42578 -0.904827 0
    outer loop
      vertex 49.8794 54.8231 25.3
      vertex 51.6259 54.0013 29.3
      vertex 49.8794 54.8231 29.3
    endloop
  endfacet
  facet normal -0.42578 -0.904827 -0
    outer loop
      vertex 51.6259 54.0013 29.3
      vertex 49.8794 54.8231 25.3
      vertex 51.6259 54.0013 25.3
    endloop
  endfacet
  facet normal 0.728969 -0.684547 0
    outer loop
      vertex 41.2706 52.0259 29.3
      vertex 42.5918 53.433 25.3
      vertex 42.5918 53.433 29.3
    endloop
  endfacet
  facet normal 0.728969 -0.684547 0
    outer loop
      vertex 42.5918 53.433 25.3
      vertex 41.2706 52.0259 29.3
      vertex 41.2706 52.0259 25.3
    endloop
  endfacet
  facet normal 0.876307 -0.481753 0
    outer loop
      vertex 40.3407 50.3346 29.3
      vertex 41.2706 52.0259 25.3
      vertex 41.2706 52.0259 29.3
    endloop
  endfacet
  facet normal 0.876307 -0.481753 0
    outer loop
      vertex 41.2706 52.0259 25.3
      vertex 40.3407 50.3346 29.3
      vertex 40.3407 50.3346 25.3
    endloop
  endfacet
  facet normal 0.535826 -0.844329 0
    outer loop
      vertex 42.5918 53.433 25.3
      vertex 44.2215 54.4672 29.3
      vertex 42.5918 53.433 29.3
    endloop
  endfacet
  facet normal 0.535826 -0.844329 0
    outer loop
      vertex 44.2215 54.4672 29.3
      vertex 42.5918 53.433 25.3
      vertex 44.2215 54.4672 25.3
    endloop
  endfacet
  facet normal 0 0 1
    outer loop
      vertex 54.9581 49.4149 25.3
      vertex 54.9581 45.5851 25.3
      vertex 55.2 47.5 25.3
    endloop
  endfacet
  facet normal 0 0 1
    outer loop
      vertex 54.2476 51.2095 25.3
      vertex 54.9581 45.5851 25.3
      vertex 54.9581 49.4149 25.3
    endloop
  endfacet
  facet normal 0 0 1
    outer loop
      vertex 54.2476 51.2095 25.3
      vertex 54.2476 43.7905 25.3
      vertex 54.9581 45.5851 25.3
    endloop
  endfacet
  facet normal 0 0 1
    outer loop
      vertex 53.1131 52.771 25.3
      vertex 54.2476 43.7905 25.3
      vertex 54.2476 51.2095 25.3
    endloop
  endfacet
  facet normal 0 0 1
    outer loop
      vertex 53.1131 52.771 25.3
      vertex 53.1131 42.229 25.3
      vertex 54.2476 43.7905 25.3
    endloop
  endfacet
  facet normal 0 0 1
    outer loop
      vertex 51.6259 54.0013 25.3
      vertex 53.1131 42.229 25.3
      vertex 53.1131 52.771 25.3
    endloop
  endfacet
  facet normal 0 0 1
    outer loop
      vertex 51.6259 54.0013 25.3
      vertex 51.6259 40.9987 25.3
      vertex 53.1131 42.229 25.3
    endloop
  endfacet
  facet normal 0 0 1
    outer loop
      vertex 49.8794 54.8231 25.3
      vertex 51.6259 40.9987 25.3
      vertex 51.6259 54.0013 25.3
    endloop
  endfacet
  facet normal 0 0 1
    outer loop
      vertex 49.8794 54.8231 25.3
      vertex 49.8794 40.1769 25.3
      vertex 51.6259 40.9987 25.3
    endloop
  endfacet
  facet normal 0 0 1
    outer loop
      vertex 47.9835 55.1848 25.3
      vertex 49.8794 40.1769 25.3
      vertex 49.8794 54.8231 25.3
    endloop
  endfacet
  facet normal 0 0 1
    outer loop
      vertex 47.9835 55.1848 25.3
      vertex 47.9835 39.8152 25.3
      vertex 49.8794 40.1769 25.3
    endloop
  endfacet
  facet normal -0 0 1
    outer loop
      vertex 46.0572 55.0636 25.3
      vertex 47.9835 39.8152 25.3
      vertex 47.9835 55.1848 25.3
    endloop
  endfacet
  facet normal 0 0 1
    outer loop
      vertex 46.0572 55.0636 25.3
      vertex 46.0572 39.9364 25.3
      vertex 47.9835 39.8152 25.3
    endloop
  endfacet
  facet normal -0 0 1
    outer loop
      vertex 44.2215 54.4672 25.3
      vertex 46.0572 39.9364 25.3
      vertex 46.0572 55.0636 25.3
    endloop
  endfacet
  facet normal 0 0 1
    outer loop
      vertex 44.2215 54.4672 25.3
      vertex 44.2215 40.5328 25.3
      vertex 46.0572 39.9364 25.3
    endloop
  endfacet
  facet normal -0 0 1
    outer loop
      vertex 42.5918 53.433 25.3
      vertex 44.2215 40.5328 25.3
      vertex 44.2215 54.4672 25.3
    endloop
  endfacet
  facet normal 0 0 1
    outer loop
      vertex 42.5918 53.433 25.3
      vertex 42.5918 41.567 25.3
      vertex 44.2215 40.5328 25.3
    endloop
  endfacet
  facet normal -0 0 1
    outer loop
      vertex 41.2706 52.0259 25.3
      vertex 42.5918 41.567 25.3
      vertex 42.5918 53.433 25.3
    endloop
  endfacet
  facet normal 0 0 1
    outer loop
      vertex 41.2706 52.0259 25.3
      vertex 41.2706 42.9741 25.3
      vertex 42.5918 41.567 25.3
    endloop
  endfacet
  facet normal -0 0 1
    outer loop
      vertex 40.3407 50.3346 25.3
      vertex 41.2706 42.9741 25.3
      vertex 41.2706 52.0259 25.3
    endloop
  endfacet
  facet normal 0 0 1
    outer loop
      vertex 40.3407 50.3346 25.3
      vertex 40.3407 44.6654 25.3
      vertex 41.2706 42.9741 25.3
    endloop
  endfacet
  facet normal -0 0 1
    outer loop
      vertex 39.8607 48.4651 25.3
      vertex 40.3407 44.6654 25.3
      vertex 40.3407 50.3346 25.3
    endloop
  endfacet
  facet normal 0 0 1
    outer loop
      vertex 40.3407 44.6654 25.3
      vertex 39.8607 48.4651 25.3
      vertex 39.8607 46.5349 25.3
    endloop
  endfacet
  facet normal -0.929776 0.368127 0
    outer loop
      vertex 54.2476 43.7905 25.3
      vertex 54.9581 45.5851 29.3
      vertex 54.9581 45.5851 25.3
    endloop
  endfacet
  facet normal -0.929776 0.368127 0
    outer loop
      vertex 54.9581 45.5851 29.3
      vertex 54.2476 43.7905 25.3
      vertex 54.2476 43.7905 29.3
    endloop
  endfacet
  facet normal -0.809018 -0.587784 0
    outer loop
      vertex 54.2476 51.2095 25.3
      vertex 53.1131 52.771 29.3
      vertex 53.1131 52.771 25.3
    endloop
  endfacet
  facet normal -0.809018 -0.587784 0
    outer loop
      vertex 53.1131 52.771 29.3
      vertex 54.2476 51.2095 25.3
      vertex 54.2476 51.2095 29.3
    endloop
  endfacet
  facet normal -0.929776 -0.368126 0
    outer loop
      vertex 54.9581 49.4149 25.3
      vertex 54.2476 51.2095 29.3
      vertex 54.2476 51.2095 25.3
    endloop
  endfacet
  facet normal -0.929776 -0.368126 0
    outer loop
      vertex 54.2476 51.2095 29.3
      vertex 54.9581 49.4149 25.3
      vertex 54.9581 49.4149 29.3
    endloop
  endfacet
  facet normal -0.187381 -0.982287 0
    outer loop
      vertex 47.9835 55.1848 25.3
      vertex 49.8794 54.8231 29.3
      vertex 47.9835 55.1848 29.3
    endloop
  endfacet
  facet normal -0.187381 -0.982287 -0
    outer loop
      vertex 49.8794 54.8231 29.3
      vertex 47.9835 55.1848 25.3
      vertex 49.8794 54.8231 25.3
    endloop
  endfacet
  facet normal 0.968583 -0.24869 0
    outer loop
      vertex 39.8607 48.4651 29.3
      vertex 40.3407 50.3346 25.3
      vertex 40.3407 50.3346 29.3
    endloop
  endfacet
  facet normal 0.968583 -0.24869 0
    outer loop
      vertex 40.3407 50.3346 25.3
      vertex 39.8607 48.4651 29.3
      vertex 39.8607 48.4651 25.3
    endloop
  endfacet
  facet normal 0.309017 -0.951056 0
    outer loop
      vertex 44.2215 54.4672 25.3
      vertex 46.0572 55.0636 29.3
      vertex 44.2215 54.4672 29.3
    endloop
  endfacet
  facet normal 0.309017 -0.951056 0
    outer loop
      vertex 46.0572 55.0636 29.3
      vertex 44.2215 54.4672 25.3
      vertex 46.0572 55.0636 25.3
    endloop
  endfacet
  facet normal -0.992115 0.125333 0
    outer loop
      vertex 54.9581 45.5851 25.3
      vertex 55.2 47.5 29.3
      vertex 55.2 47.5 25.3
    endloop
  endfacet
  facet normal -0.992115 0.125333 0
    outer loop
      vertex 55.2 47.5 29.3
      vertex 54.9581 45.5851 25.3
      vertex 54.9581 45.5851 29.3
    endloop
  endfacet
  facet normal -0.809018 0.587784 0
    outer loop
      vertex 53.1131 42.229 25.3
      vertex 54.2476 43.7905 29.3
      vertex 54.2476 43.7905 25.3
    endloop
  endfacet
  facet normal -0.809018 0.587784 0
    outer loop
      vertex 54.2476 43.7905 29.3
      vertex 53.1131 42.229 25.3
      vertex 53.1131 42.229 29.3
    endloop
  endfacet
  facet normal 0.535827 0.844328 -0
    outer loop
      vertex 44.2215 40.5328 25.3
      vertex 42.5918 41.567 29.3
      vertex 44.2215 40.5328 29.3
    endloop
  endfacet
  facet normal 0.535827 0.844328 0
    outer loop
      vertex 42.5918 41.567 29.3
      vertex 44.2215 40.5328 25.3
      vertex 42.5918 41.567 25.3
    endloop
  endfacet
  facet normal 0.876307 0.481754 0
    outer loop
      vertex 41.2706 42.9741 29.3
      vertex 40.3407 44.6654 25.3
      vertex 40.3407 44.6654 29.3
    endloop
  endfacet
  facet normal 0.876307 0.481754 0
    outer loop
      vertex 40.3407 44.6654 25.3
      vertex 41.2706 42.9741 29.3
      vertex 41.2706 42.9741 25.3
    endloop
  endfacet
  facet normal 0.968583 0.248689 0
    outer loop
      vertex 40.3407 44.6654 29.3
      vertex 39.8607 46.5349 25.3
      vertex 39.8607 46.5349 29.3
    endloop
  endfacet
  facet normal 0.968583 0.248689 0
    outer loop
      vertex 39.8607 46.5349 25.3
      vertex 40.3407 44.6654 29.3
      vertex 40.3407 44.6654 25.3
    endloop
  endfacet
  facet normal 0.728969 0.684547 0
    outer loop
      vertex 42.5918 41.567 29.3
      vertex 41.2706 42.9741 25.3
      vertex 41.2706 42.9741 29.3
    endloop
  endfacet
  facet normal 0.728969 0.684547 0
    outer loop
      vertex 41.2706 42.9741 25.3
      vertex 42.5918 41.567 29.3
      vertex 42.5918 41.567 25.3
    endloop
  endfacet
  facet normal 0.06279 0.998027 -0
    outer loop
      vertex 47.9835 39.8152 25.3
      vertex 46.0572 39.9364 29.3
      vertex 47.9835 39.8152 29.3
    endloop
  endfacet
  facet normal 0.06279 0.998027 0
    outer loop
      vertex 46.0572 39.9364 29.3
      vertex 47.9835 39.8152 25.3
      vertex 46.0572 39.9364 25.3
    endloop
  endfacet
  facet normal -0.637425 0.770513 0
    outer loop
      vertex 53.1131 42.229 25.3
      vertex 51.6259 40.9987 29.3
      vertex 53.1131 42.229 29.3
    endloop
  endfacet
  facet normal -0.637425 0.770513 0
    outer loop
      vertex 51.6259 40.9987 29.3
      vertex 53.1131 42.229 25.3
      vertex 51.6259 40.9987 25.3
    endloop
  endfacet
  facet normal -0.425779 0.904827 0
    outer loop
      vertex 51.6259 40.9987 25.3
      vertex 49.8794 40.1769 29.3
      vertex 51.6259 40.9987 29.3
    endloop
  endfacet
  facet normal -0.425779 0.904827 0
    outer loop
      vertex 49.8794 40.1769 29.3
      vertex 51.6259 40.9987 25.3
      vertex 49.8794 40.1769 25.3
    endloop
  endfacet
  facet normal 0.309017 0.951056 -0
    outer loop
      vertex 46.0572 39.9364 25.3
      vertex 44.2215 40.5328 29.3
      vertex 46.0572 39.9364 29.3
    endloop
  endfacet
  facet normal 0.309017 0.951056 0
    outer loop
      vertex 44.2215 40.5328 29.3
      vertex 46.0572 39.9364 25.3
      vertex 44.2215 40.5328 25.3
    endloop
  endfacet
endsolid OpenSCAD_Model
