solid OpenSCAD_Model
  facet normal -1 0 0
    outer loop
      vertex 0 45 0
      vertex 0 29.4052 3
      vertex 0 45 35.75
    endloop
  endfacet
  facet normal -1 0 0
    outer loop
      vertex 0 45 0
      vertex 0 15.5948 3
      vertex 0 29.4052 3
    endloop
  endfacet
  facet normal -1 0 0
    outer loop
      vertex 0 0 0
      vertex 0 15.5948 3
      vertex 0 45 0
    endloop
  endfacet
  facet normal -1 0 0
    outer loop
      vertex 0 0 35.75
      vertex 0 15.5948 3
      vertex 0 0 0
    endloop
  endfacet
  facet normal -1 0 0
    outer loop
      vertex 0 15.5948 3
      vertex 0 0 35.75
      vertex 0 15.5948 35.75
    endloop
  endfacet
  facet normal -1 -0 0
    outer loop
      vertex 0 45 35.75
      vertex 0 29.4052 3
      vertex 0 29.4052 35.75
    endloop
  endfacet
  facet normal 0 0 1
    outer loop
      vertex 24.3362 34.5915 35.75
      vertex 20.3497 32.4507 35.75
      vertex 22.2227 30.3704 35.75
    endloop
  endfacet
  facet normal 0 0 1
    outer loop
      vertex 15.5277 35.2346 35.75
      vertex 22.4 40.125 35.75
      vertex 22.6225 42.0999 35.75
    endloop
  endfacet
  facet normal 0 0 1
    outer loop
      vertex 22.6225 38.1501 35.75
      vertex 18.085 34.0961 35.75
      vertex 20.3497 32.4507 35.75
    endloop
  endfacet
  facet normal 0 0 1
    outer loop
      vertex 12.7896 35.8166 35.75
      vertex 22.6225 42.0999 35.75
      vertex 23.2789 43.9757 35.75
    endloop
  endfacet
  facet normal 0 0 1
    outer loop
      vertex 22.6225 38.1501 35.75
      vertex 15.5277 35.2346 35.75
      vertex 18.085 34.0961 35.75
    endloop
  endfacet
  facet normal -0 0 1
    outer loop
      vertex 0 45 35.75
      vertex 23.2789 43.9757 35.75
      vertex 23.9225 45 35.75
    endloop
  endfacet
  facet normal 0 0 1
    outer loop
      vertex 22.6225 42.0999 35.75
      vertex 12.7896 35.8166 35.75
      vertex 15.5277 35.2346 35.75
    endloop
  endfacet
  facet normal 0 0 1
    outer loop
      vertex 23.2789 43.9757 35.75
      vertex 0 45 35.75
      vertex 12.7896 35.8166 35.75
    endloop
  endfacet
  facet normal 0 0 1
    outer loop
      vertex 12.7896 35.8166 35.75
      vertex 0 45 35.75
      vertex 9.99036 35.8166 35.75
    endloop
  endfacet
  facet normal 0 0 1
    outer loop
      vertex 9.99036 35.8166 35.75
      vertex 0 45 35.75
      vertex 7.25226 35.2346 35.75
    endloop
  endfacet
  facet normal 0 0 1
    outer loop
      vertex 7.25226 35.2346 35.75
      vertex 0 45 35.75
      vertex 4.695 34.0961 35.75
    endloop
  endfacet
  facet normal 0 0 1
    outer loop
      vertex 0 45 35.75
      vertex 2.43034 32.4507 35.75
      vertex 4.695 34.0961 35.75
    endloop
  endfacet
  facet normal 0 0 1
    outer loop
      vertex 0 45 35.75
      vertex 0.557262 30.3704 35.75
      vertex 2.43034 32.4507 35.75
    endloop
  endfacet
  facet normal 0 0 1
    outer loop
      vertex 0.557262 30.3704 35.75
      vertex 0 45 35.75
      vertex 0 29.4052 35.75
    endloop
  endfacet
  facet normal 0 0 1
    outer loop
      vertex 23.6224 17.0538 35.75
      vertex 27.7706 17.9741 35.75
      vertex 24.4874 19.7161 35.75
    endloop
  endfacet
  facet normal 0 0 1
    outer loop
      vertex 27.7706 17.9741 35.75
      vertex 23.6224 17.0538 35.75
      vertex 25.7415 11.8138 35.75
    endloop
  endfacet
  facet normal -0 0 1
    outer loop
      vertex 22.2227 14.6296 35.75
      vertex 25.7415 11.8138 35.75
      vertex 23.6224 17.0538 35.75
    endloop
  endfacet
  facet normal 0 0 1
    outer loop
      vertex 25.7415 11.8138 35.75
      vertex 22.2227 14.6296 35.75
      vertex 24.3362 10.4085 35.75
    endloop
  endfacet
  facet normal -0 0 1
    outer loop
      vertex 20.3497 12.5493 35.75
      vertex 24.3362 10.4085 35.75
      vertex 22.2227 14.6296 35.75
    endloop
  endfacet
  facet normal 0 0 1
    outer loop
      vertex 24.3362 10.4085 35.75
      vertex 20.3497 12.5493 35.75
      vertex 23.2789 8.72572 35.75
    endloop
  endfacet
  facet normal -0 0 1
    outer loop
      vertex 18.085 10.9039 35.75
      vertex 23.2789 8.72572 35.75
      vertex 20.3497 12.5493 35.75
    endloop
  endfacet
  facet normal 0 0 1
    outer loop
      vertex 23.2789 8.72572 35.75
      vertex 18.085 10.9039 35.75
      vertex 22.6225 6.84987 35.75
    endloop
  endfacet
  facet normal -0 0 1
    outer loop
      vertex 15.5277 9.76535 35.75
      vertex 22.6225 6.84987 35.75
      vertex 18.085 10.9039 35.75
    endloop
  endfacet
  facet normal 0 0 1
    outer loop
      vertex 22.6225 6.84987 35.75
      vertex 15.5277 9.76535 35.75
      vertex 22.4 4.875 35.75
    endloop
  endfacet
  facet normal 0 0 1
    outer loop
      vertex 22.4 4.875 35.75
      vertex 15.5277 9.76535 35.75
      vertex 22.6225 2.90013 35.75
    endloop
  endfacet
  facet normal -0 0 1
    outer loop
      vertex 12.7896 9.18335 35.75
      vertex 22.6225 2.90013 35.75
      vertex 15.5277 9.76535 35.75
    endloop
  endfacet
  facet normal 0 0 1
    outer loop
      vertex 22.6225 2.90013 35.75
      vertex 12.7896 9.18335 35.75
      vertex 23.2789 1.02428 35.75
    endloop
  endfacet
  facet normal 0 0 1
    outer loop
      vertex 0 0 35.75
      vertex 23.2789 1.02428 35.75
      vertex 12.7896 9.18335 35.75
    endloop
  endfacet
  facet normal 0 0 1
    outer loop
      vertex 0 0 35.75
      vertex 12.7896 9.18335 35.75
      vertex 9.99036 9.18335 35.75
    endloop
  endfacet
  facet normal 0 0 1
    outer loop
      vertex 0 0 35.75
      vertex 9.99036 9.18335 35.75
      vertex 7.25226 9.76535 35.75
    endloop
  endfacet
  facet normal 0 0 1
    outer loop
      vertex 0 0 35.75
      vertex 7.25226 9.76535 35.75
      vertex 4.695 10.9039 35.75
    endloop
  endfacet
  facet normal 0 0 1
    outer loop
      vertex 23.2789 1.02428 35.75
      vertex 0 0 35.75
      vertex 23.9225 0 35.75
    endloop
  endfacet
  facet normal 0 0 1
    outer loop
      vertex 2.43034 12.5493 35.75
      vertex 0 0 35.75
      vertex 4.695 10.9039 35.75
    endloop
  endfacet
  facet normal 0 0 1
    outer loop
      vertex 0.557262 14.6296 35.75
      vertex 0 0 35.75
      vertex 2.43034 12.5493 35.75
    endloop
  endfacet
  facet normal 0 0 1
    outer loop
      vertex 0 0 35.75
      vertex 0.557262 14.6296 35.75
      vertex 0 15.5948 35.75
    endloop
  endfacet
  facet normal 0 0 1
    outer loop
      vertex 43.15 6.925 35.75
      vertex 39.9275 6.84987 35.75
      vertex 40.15 4.875 35.75
    endloop
  endfacet
  facet normal -0 0 1
    outer loop
      vertex 38.1259 15.9987 35.75
      vertex 44.0945 11.3686 35.75
      vertex 39.6131 17.229 35.75
    endloop
  endfacet
  facet normal 0 0 1
    outer loop
      vertex 44.0945 11.3686 35.75
      vertex 39.2711 8.72572 35.75
      vertex 39.9275 6.84987 35.75
    endloop
  endfacet
  facet normal 0 0 1
    outer loop
      vertex 44.0945 11.3686 35.75
      vertex 38.2138 10.4085 35.75
      vertex 39.2711 8.72572 35.75
    endloop
  endfacet
  facet normal 0 0 1
    outer loop
      vertex 44.0945 11.3686 35.75
      vertex 38.1259 15.9987 35.75
      vertex 38.2138 10.4085 35.75
    endloop
  endfacet
  facet normal 0 0 1
    outer loop
      vertex 38.1259 15.9987 35.75
      vertex 36.8085 11.8138 35.75
      vertex 38.2138 10.4085 35.75
    endloop
  endfacet
  facet normal -0 0 1
    outer loop
      vertex 36.3794 15.1769 35.75
      vertex 36.8085 11.8138 35.75
      vertex 38.1259 15.9987 35.75
    endloop
  endfacet
  facet normal 0 0 1
    outer loop
      vertex 36.3794 15.1769 35.75
      vertex 35.1257 12.8711 35.75
      vertex 36.8085 11.8138 35.75
    endloop
  endfacet
  facet normal -0 0 1
    outer loop
      vertex 34.4835 14.8152 35.75
      vertex 35.1257 12.8711 35.75
      vertex 36.3794 15.1769 35.75
    endloop
  endfacet
  facet normal 0 0 1
    outer loop
      vertex 34.4835 14.8152 35.75
      vertex 33.2499 13.5275 35.75
      vertex 35.1257 12.8711 35.75
    endloop
  endfacet
  facet normal 0 0 1
    outer loop
      vertex 32.5572 14.9364 35.75
      vertex 33.2499 13.5275 35.75
      vertex 34.4835 14.8152 35.75
    endloop
  endfacet
  facet normal 0 0 1
    outer loop
      vertex 32.5572 14.9364 35.75
      vertex 31.275 13.75 35.75
      vertex 33.2499 13.5275 35.75
    endloop
  endfacet
  facet normal 0 0 1
    outer loop
      vertex 30.7215 15.5328 35.75
      vertex 31.275 13.75 35.75
      vertex 32.5572 14.9364 35.75
    endloop
  endfacet
  facet normal 0 0 1
    outer loop
      vertex 30.7215 15.5328 35.75
      vertex 29.3001 13.5275 35.75
      vertex 31.275 13.75 35.75
    endloop
  endfacet
  facet normal 0 0 1
    outer loop
      vertex 29.0918 16.567 35.75
      vertex 29.3001 13.5275 35.75
      vertex 30.7215 15.5328 35.75
    endloop
  endfacet
  facet normal 0 0 1
    outer loop
      vertex 27.4243 12.8711 35.75
      vertex 29.0918 16.567 35.75
      vertex 27.7706 17.9741 35.75
    endloop
  endfacet
  facet normal 0 0 1
    outer loop
      vertex 29.0918 16.567 35.75
      vertex 27.4243 12.8711 35.75
      vertex 29.3001 13.5275 35.75
    endloop
  endfacet
  facet normal 0 0 1
    outer loop
      vertex 24.4874 19.7161 35.75
      vertex 27.7706 17.9741 35.75
      vertex 26.8407 19.6654 35.75
    endloop
  endfacet
  facet normal 0 0 1
    outer loop
      vertex 24.4874 19.7161 35.75
      vertex 26.3607 21.5349 35.75
      vertex 24.78 22.5 35.75
    endloop
  endfacet
  facet normal 0 0 1
    outer loop
      vertex 27.7706 17.9741 35.75
      vertex 25.7415 11.8138 35.75
      vertex 27.4243 12.8711 35.75
    endloop
  endfacet
  facet normal 0 -0 1
    outer loop
      vertex 24.78 22.5 35.75
      vertex 26.3607 23.4651 35.75
      vertex 24.4874 25.2839 35.75
    endloop
  endfacet
  facet normal 0 0 1
    outer loop
      vertex 26.3607 21.5349 35.75
      vertex 24.4874 19.7161 35.75
      vertex 26.8407 19.6654 35.75
    endloop
  endfacet
  facet normal 0 0 1
    outer loop
      vertex 26.3607 23.4651 35.75
      vertex 24.78 22.5 35.75
      vertex 26.3607 21.5349 35.75
    endloop
  endfacet
  facet normal 0 0 1
    outer loop
      vertex 22.2227 30.3704 35.75
      vertex 25.7415 33.1862 35.75
      vertex 24.3362 34.5915 35.75
    endloop
  endfacet
  facet normal 0 0 1
    outer loop
      vertex 25.7415 33.1862 35.75
      vertex 23.6224 27.9462 35.75
      vertex 24.4874 25.2839 35.75
    endloop
  endfacet
  facet normal 0 0 1
    outer loop
      vertex 20.3497 32.4507 35.75
      vertex 24.3362 34.5915 35.75
      vertex 23.2789 36.2743 35.75
    endloop
  endfacet
  facet normal 0 0 1
    outer loop
      vertex 20.3497 32.4507 35.75
      vertex 23.2789 36.2743 35.75
      vertex 22.6225 38.1501 35.75
    endloop
  endfacet
  facet normal 0 0 1
    outer loop
      vertex 15.5277 35.2346 35.75
      vertex 22.6225 38.1501 35.75
      vertex 22.4 40.125 35.75
    endloop
  endfacet
  facet normal 0 0 1
    outer loop
      vertex 25.7415 33.1862 35.75
      vertex 22.2227 30.3704 35.75
      vertex 23.6224 27.9462 35.75
    endloop
  endfacet
  facet normal -0 0 1
    outer loop
      vertex 39.6131 17.229 35.75
      vertex 45.2365 13.3466 35.75
      vertex 40.7476 18.7905 35.75
    endloop
  endfacet
  facet normal 0 0 1
    outer loop
      vertex 43.3887 35.8036 35.75
      vertex 41.4581 24.4149 35.75
      vertex 41.7 22.5 35.75
    endloop
  endfacet
  facet normal -0 0 1
    outer loop
      vertex 40.15 40.125 35.75
      vertex 43.15 38.075 35.75
      vertex 43.3887 40.3464 35.75
    endloop
  endfacet
  facet normal 0 0 1
    outer loop
      vertex 43.3887 35.8036 35.75
      vertex 40.7476 26.2095 35.75
      vertex 41.4581 24.4149 35.75
    endloop
  endfacet
  facet normal 0 0 1
    outer loop
      vertex 43.15 38.075 35.75
      vertex 40.15 40.125 35.75
      vertex 39.9275 38.1501 35.75
    endloop
  endfacet
  facet normal -0 0 1
    outer loop
      vertex 39.9275 42.0999 35.75
      vertex 43.3887 40.3464 35.75
      vertex 44.0945 42.5186 35.75
    endloop
  endfacet
  facet normal -0 0 1
    outer loop
      vertex 39.2711 43.9757 35.75
      vertex 44.0945 42.5186 35.75
      vertex 45.2365 44.4966 35.75
    endloop
  endfacet
  facet normal -0 0 1
    outer loop
      vertex 38.6275 45 35.75
      vertex 45.2365 44.4966 35.75
      vertex 45.6898 45 35.75
    endloop
  endfacet
  facet normal 0 0 1
    outer loop
      vertex 43.3887 40.3464 35.75
      vertex 39.9275 42.0999 35.75
      vertex 40.15 40.125 35.75
    endloop
  endfacet
  facet normal 0 0 1
    outer loop
      vertex 44.0945 42.5186 35.75
      vertex 39.2711 43.9757 35.75
      vertex 39.9275 42.0999 35.75
    endloop
  endfacet
  facet normal 0 0 1
    outer loop
      vertex 45.2365 44.4966 35.75
      vertex 38.6275 45 35.75
      vertex 39.2711 43.9757 35.75
    endloop
  endfacet
  facet normal -0 0 1
    outer loop
      vertex 64.7613 9.19643 35.75
      vertex 68 0 35.75
      vertex 64.7613 35.8036 35.75
    endloop
  endfacet
  facet normal 0 0 1
    outer loop
      vertex 68 0 35.75
      vertex 64.7613 9.19643 35.75
      vertex 65 6.925 35.75
    endloop
  endfacet
  facet normal -0 0 1
    outer loop
      vertex 64.0555 33.6314 35.75
      vertex 64.7613 9.19643 35.75
      vertex 64.7613 35.8036 35.75
    endloop
  endfacet
  facet normal 0 0 1
    outer loop
      vertex 64.0555 33.6314 35.75
      vertex 64.0555 11.3686 35.75
      vertex 64.7613 9.19643 35.75
    endloop
  endfacet
  facet normal -0 0 1
    outer loop
      vertex 62.9135 31.6534 35.75
      vertex 64.0555 11.3686 35.75
      vertex 64.0555 33.6314 35.75
    endloop
  endfacet
  facet normal 0 0 1
    outer loop
      vertex 62.9135 31.6534 35.75
      vertex 62.9135 13.3466 35.75
      vertex 64.0555 11.3686 35.75
    endloop
  endfacet
  facet normal -0 0 1
    outer loop
      vertex 61.3853 29.9561 35.75
      vertex 62.9135 13.3466 35.75
      vertex 62.9135 31.6534 35.75
    endloop
  endfacet
  facet normal 0 0 1
    outer loop
      vertex 61.3853 29.9561 35.75
      vertex 61.3853 15.0439 35.75
      vertex 62.9135 13.3466 35.75
    endloop
  endfacet
  facet normal -0 0 1
    outer loop
      vertex 59.5375 28.6137 35.75
      vertex 61.3853 15.0439 35.75
      vertex 61.3853 29.9561 35.75
    endloop
  endfacet
  facet normal 0 0 1
    outer loop
      vertex 59.5375 28.6137 35.75
      vertex 59.5375 16.3863 35.75
      vertex 61.3853 15.0439 35.75
    endloop
  endfacet
  facet normal -0 0 1
    outer loop
      vertex 57.451 27.6847 35.75
      vertex 59.5375 16.3863 35.75
      vertex 59.5375 28.6137 35.75
    endloop
  endfacet
  facet normal 0 0 1
    outer loop
      vertex 57.451 27.6847 35.75
      vertex 57.451 17.3153 35.75
      vertex 59.5375 16.3863 35.75
    endloop
  endfacet
  facet normal -0 0 1
    outer loop
      vertex 55.217 27.2098 35.75
      vertex 57.451 17.3153 35.75
      vertex 57.451 27.6847 35.75
    endloop
  endfacet
  facet normal 0 0 1
    outer loop
      vertex 55.217 27.2098 35.75
      vertex 55.217 17.7902 35.75
      vertex 57.451 17.3153 35.75
    endloop
  endfacet
  facet normal -0 0 1
    outer loop
      vertex 52.933 27.2098 35.75
      vertex 55.217 17.7902 35.75
      vertex 55.217 27.2098 35.75
    endloop
  endfacet
  facet normal 0 0 1
    outer loop
      vertex 52.933 27.2098 35.75
      vertex 52.933 17.7902 35.75
      vertex 55.217 17.7902 35.75
    endloop
  endfacet
  facet normal 0 0 1
    outer loop
      vertex 50.699 27.6847 35.75
      vertex 52.933 17.7902 35.75
      vertex 52.933 27.2098 35.75
    endloop
  endfacet
  facet normal 0 0 1
    outer loop
      vertex 50.699 27.6847 35.75
      vertex 50.699 17.3153 35.75
      vertex 52.933 17.7902 35.75
    endloop
  endfacet
  facet normal 0 0 1
    outer loop
      vertex 41.7 22.5 35.75
      vertex 50.699 27.6847 35.75
      vertex 48.6125 28.6137 35.75
    endloop
  endfacet
  facet normal 0 0 1
    outer loop
      vertex 50.699 27.6847 35.75
      vertex 41.7 22.5 35.75
      vertex 50.699 17.3153 35.75
    endloop
  endfacet
  facet normal 0 0 1
    outer loop
      vertex 41.7 22.5 35.75
      vertex 48.6125 28.6137 35.75
      vertex 46.7647 29.9561 35.75
    endloop
  endfacet
  facet normal 0 0 1
    outer loop
      vertex 50.699 17.3153 35.75
      vertex 41.7 22.5 35.75
      vertex 48.6125 16.3863 35.75
    endloop
  endfacet
  facet normal 0 0 1
    outer loop
      vertex 41.7 22.5 35.75
      vertex 46.7647 29.9561 35.75
      vertex 45.2365 31.6534 35.75
    endloop
  endfacet
  facet normal -0 0 1
    outer loop
      vertex 41.4581 20.5851 35.75
      vertex 48.6125 16.3863 35.75
      vertex 41.7 22.5 35.75
    endloop
  endfacet
  facet normal 0 0 1
    outer loop
      vertex 41.7 22.5 35.75
      vertex 45.2365 31.6534 35.75
      vertex 44.0945 33.6314 35.75
    endloop
  endfacet
  facet normal 0 0 1
    outer loop
      vertex 48.6125 16.3863 35.75
      vertex 41.4581 20.5851 35.75
      vertex 46.7647 15.0439 35.75
    endloop
  endfacet
  facet normal 0 0 1
    outer loop
      vertex 41.7 22.5 35.75
      vertex 44.0945 33.6314 35.75
      vertex 43.3887 35.8036 35.75
    endloop
  endfacet
  facet normal -0 0 1
    outer loop
      vertex 40.7476 18.7905 35.75
      vertex 46.7647 15.0439 35.75
      vertex 41.4581 20.5851 35.75
    endloop
  endfacet
  facet normal 0 0 1
    outer loop
      vertex 39.9275 38.1501 35.75
      vertex 43.3887 35.8036 35.75
      vertex 43.15 38.075 35.75
    endloop
  endfacet
  facet normal 0 0 1
    outer loop
      vertex 46.7647 15.0439 35.75
      vertex 40.7476 18.7905 35.75
      vertex 45.2365 13.3466 35.75
    endloop
  endfacet
  facet normal 0 0 1
    outer loop
      vertex 64.7613 35.8036 35.75
      vertex 68 45 35.75
      vertex 65 38.075 35.75
    endloop
  endfacet
  facet normal 0 0 1
    outer loop
      vertex 68 45 35.75
      vertex 64.7613 40.3464 35.75
      vertex 65 38.075 35.75
    endloop
  endfacet
  facet normal 0 0 1
    outer loop
      vertex 68 45 35.75
      vertex 64.0555 42.5186 35.75
      vertex 64.7613 40.3464 35.75
    endloop
  endfacet
  facet normal 0 0 1
    outer loop
      vertex 68 45 35.75
      vertex 62.9135 44.4966 35.75
      vertex 64.0555 42.5186 35.75
    endloop
  endfacet
  facet normal 0 -0 1
    outer loop
      vertex 62.9135 44.4966 35.75
      vertex 68 45 35.75
      vertex 62.4602 45 35.75
    endloop
  endfacet
  facet normal 0 0 1
    outer loop
      vertex 68 45 35.75
      vertex 64.7613 35.8036 35.75
      vertex 68 0 35.75
    endloop
  endfacet
  facet normal -0 0 1
    outer loop
      vertex 64.7613 4.65356 35.75
      vertex 68 0 35.75
      vertex 65 6.925 35.75
    endloop
  endfacet
  facet normal -0 0 1
    outer loop
      vertex 64.0555 2.4814 35.75
      vertex 68 0 35.75
      vertex 64.7613 4.65356 35.75
    endloop
  endfacet
  facet normal -0 0 1
    outer loop
      vertex 62.9135 0.503446 35.75
      vertex 68 0 35.75
      vertex 64.0555 2.4814 35.75
    endloop
  endfacet
  facet normal 0 0 1
    outer loop
      vertex 68 0 35.75
      vertex 62.9135 0.503446 35.75
      vertex 62.4602 0 35.75
    endloop
  endfacet
  facet normal 0 0 1
    outer loop
      vertex 45.2365 13.3466 35.75
      vertex 39.6131 17.229 35.75
      vertex 44.0945 11.3686 35.75
    endloop
  endfacet
  facet normal 0 0 1
    outer loop
      vertex 44.0945 11.3686 35.75
      vertex 39.9275 6.84987 35.75
      vertex 43.3887 9.19643 35.75
    endloop
  endfacet
  facet normal 0 0 1
    outer loop
      vertex 39.9275 6.84987 35.75
      vertex 43.15 6.925 35.75
      vertex 43.3887 9.19643 35.75
    endloop
  endfacet
  facet normal 0 0 1
    outer loop
      vertex 43.15 6.925 35.75
      vertex 40.15 4.875 35.75
      vertex 43.3887 4.65356 35.75
    endloop
  endfacet
  facet normal 0 0 1
    outer loop
      vertex 39.9275 2.90013 35.75
      vertex 43.3887 4.65356 35.75
      vertex 40.15 4.875 35.75
    endloop
  endfacet
  facet normal 0 0 1
    outer loop
      vertex 43.3887 4.65356 35.75
      vertex 39.9275 2.90013 35.75
      vertex 44.0945 2.4814 35.75
    endloop
  endfacet
  facet normal 0 0 1
    outer loop
      vertex 39.2711 1.02428 35.75
      vertex 44.0945 2.4814 35.75
      vertex 39.9275 2.90013 35.75
    endloop
  endfacet
  facet normal 0 0 1
    outer loop
      vertex 44.0945 2.4814 35.75
      vertex 39.2711 1.02428 35.75
      vertex 45.2365 0.503446 35.75
    endloop
  endfacet
  facet normal 0 0 1
    outer loop
      vertex 38.6275 0 35.75
      vertex 45.2365 0.503446 35.75
      vertex 39.2711 1.02428 35.75
    endloop
  endfacet
  facet normal 0 0 1
    outer loop
      vertex 45.2365 0.503446 35.75
      vertex 38.6275 0 35.75
      vertex 45.6898 0 35.75
    endloop
  endfacet
  facet normal 0 0 1
    outer loop
      vertex 43.3887 35.8036 35.75
      vertex 39.9275 38.1501 35.75
      vertex 39.2711 36.2743 35.75
    endloop
  endfacet
  facet normal 0 0 1
    outer loop
      vertex 43.3887 35.8036 35.75
      vertex 39.2711 36.2743 35.75
      vertex 38.2138 34.5915 35.75
    endloop
  endfacet
  facet normal 0 0 1
    outer loop
      vertex 43.3887 35.8036 35.75
      vertex 39.6131 27.771 35.75
      vertex 40.7476 26.2095 35.75
    endloop
  endfacet
  facet normal 0 0 1
    outer loop
      vertex 43.3887 35.8036 35.75
      vertex 38.2138 34.5915 35.75
      vertex 39.6131 27.771 35.75
    endloop
  endfacet
  facet normal 0 0 1
    outer loop
      vertex 38.2138 34.5915 35.75
      vertex 38.1259 29.0013 35.75
      vertex 39.6131 27.771 35.75
    endloop
  endfacet
  facet normal -0 0 1
    outer loop
      vertex 36.8085 33.1862 35.75
      vertex 38.1259 29.0013 35.75
      vertex 38.2138 34.5915 35.75
    endloop
  endfacet
  facet normal 0 0 1
    outer loop
      vertex 36.8085 33.1862 35.75
      vertex 36.3794 29.8231 35.75
      vertex 38.1259 29.0013 35.75
    endloop
  endfacet
  facet normal -0 0 1
    outer loop
      vertex 35.1257 32.1289 35.75
      vertex 36.3794 29.8231 35.75
      vertex 36.8085 33.1862 35.75
    endloop
  endfacet
  facet normal 0 0 1
    outer loop
      vertex 35.1257 32.1289 35.75
      vertex 34.4835 30.1848 35.75
      vertex 36.3794 29.8231 35.75
    endloop
  endfacet
  facet normal -0 0 1
    outer loop
      vertex 33.2499 31.4725 35.75
      vertex 34.4835 30.1848 35.75
      vertex 35.1257 32.1289 35.75
    endloop
  endfacet
  facet normal 0 0 1
    outer loop
      vertex 33.2499 31.4725 35.75
      vertex 32.5572 30.0636 35.75
      vertex 34.4835 30.1848 35.75
    endloop
  endfacet
  facet normal -0 0 1
    outer loop
      vertex 31.275 31.25 35.75
      vertex 32.5572 30.0636 35.75
      vertex 33.2499 31.4725 35.75
    endloop
  endfacet
  facet normal 0 0 1
    outer loop
      vertex 31.275 31.25 35.75
      vertex 30.7215 29.4672 35.75
      vertex 32.5572 30.0636 35.75
    endloop
  endfacet
  facet normal 0 0 1
    outer loop
      vertex 29.3001 31.4725 35.75
      vertex 30.7215 29.4672 35.75
      vertex 31.275 31.25 35.75
    endloop
  endfacet
  facet normal 0 0 1
    outer loop
      vertex 29.3001 31.4725 35.75
      vertex 29.0918 28.433 35.75
      vertex 30.7215 29.4672 35.75
    endloop
  endfacet
  facet normal 0 0 1
    outer loop
      vertex 27.4243 32.1289 35.75
      vertex 29.0918 28.433 35.75
      vertex 29.3001 31.4725 35.75
    endloop
  endfacet
  facet normal 0 0 1
    outer loop
      vertex 29.0918 28.433 35.75
      vertex 27.4243 32.1289 35.75
      vertex 27.7706 27.0259 35.75
    endloop
  endfacet
  facet normal 0 0 1
    outer loop
      vertex 25.7415 33.1862 35.75
      vertex 27.7706 27.0259 35.75
      vertex 27.4243 32.1289 35.75
    endloop
  endfacet
  facet normal 0 0 1
    outer loop
      vertex 24.4874 25.2839 35.75
      vertex 27.7706 27.0259 35.75
      vertex 25.7415 33.1862 35.75
    endloop
  endfacet
  facet normal 0 0 1
    outer loop
      vertex 26.8407 25.3346 35.75
      vertex 24.4874 25.2839 35.75
      vertex 26.3607 23.4651 35.75
    endloop
  endfacet
  facet normal 0 0 1
    outer loop
      vertex 27.7706 27.0259 35.75
      vertex 24.4874 25.2839 35.75
      vertex 26.8407 25.3346 35.75
    endloop
  endfacet
  facet normal 1 -0 0
    outer loop
      vertex 68 0 35.75
      vertex 68 45 0
      vertex 68 45 35.75
    endloop
  endfacet
  facet normal 1 0 0
    outer loop
      vertex 68 45 0
      vertex 68 0 35.75
      vertex 68 0 0
    endloop
  endfacet
  facet normal 0 0 -1
    outer loop
      vertex 0 0 0
      vertex 68 45 0
      vertex 68 0 0
    endloop
  endfacet
  facet normal -0 0 -1
    outer loop
      vertex 68 45 0
      vertex 0 0 0
      vertex 0 45 0
    endloop
  endfacet
  facet normal 0 -1 0
    outer loop
      vertex 0 0 35.75
      vertex 23.9225 0 13.75
      vertex 23.9225 0 35.75
    endloop
  endfacet
  facet normal 0 -1 0
    outer loop
      vertex 0 0 0
      vertex 38.6275 0 13.75
      vertex 23.9225 0 13.75
    endloop
  endfacet
  facet normal 0 -1 0
    outer loop
      vertex 38.6275 0 13.75
      vertex 68 0 0
      vertex 45.6898 0 13.75
    endloop
  endfacet
  facet normal 0 -1 -0
    outer loop
      vertex 38.6275 0 13.75
      vertex 0 0 0
      vertex 68 0 0
    endloop
  endfacet
  facet normal 0 -1 0
    outer loop
      vertex 0 0 0
      vertex 23.9225 0 13.75
      vertex 0 0 35.75
    endloop
  endfacet
  facet normal 0 -1 0
    outer loop
      vertex 38.6275 0 13.75
      vertex 45.6898 0 35.75
      vertex 38.6275 0 35.75
    endloop
  endfacet
  facet normal 0 -1 -0
    outer loop
      vertex 45.6898 0 35.75
      vertex 38.6275 0 13.75
      vertex 45.6898 0 13.75
    endloop
  endfacet
  facet normal 0 -1 0
    outer loop
      vertex 62.4602 0 13.75
      vertex 68 0 35.75
      vertex 62.4602 0 35.75
    endloop
  endfacet
  facet normal 0 -1 0
    outer loop
      vertex 62.4602 0 13.75
      vertex 68 0 0
      vertex 68 0 35.75
    endloop
  endfacet
  facet normal 0 -1 0
    outer loop
      vertex 45.6898 0 13.75
      vertex 68 0 0
      vertex 62.4602 0 13.75
    endloop
  endfacet
  facet normal 0 1 0
    outer loop
      vertex 68 45 35.75
      vertex 62.4602 45 13.75
      vertex 62.4602 45 35.75
    endloop
  endfacet
  facet normal 0 1 0
    outer loop
      vertex 68 45 0
      vertex 45.6898 45 13.75
      vertex 62.4602 45 13.75
    endloop
  endfacet
  facet normal 0 1 0
    outer loop
      vertex 45.6898 45 13.75
      vertex 68 45 0
      vertex 38.6275 45 13.75
    endloop
  endfacet
  facet normal 0 1 0
    outer loop
      vertex 0 45 0
      vertex 38.6275 45 13.75
      vertex 68 45 0
    endloop
  endfacet
  facet normal 0 1 -0
    outer loop
      vertex 68 45 0
      vertex 62.4602 45 13.75
      vertex 68 45 35.75
    endloop
  endfacet
  facet normal 0 1 -0
    outer loop
      vertex 45.6898 45 13.75
      vertex 38.6275 45 35.75
      vertex 45.6898 45 35.75
    endloop
  endfacet
  facet normal 0 1 0
    outer loop
      vertex 38.6275 45 35.75
      vertex 45.6898 45 13.75
      vertex 38.6275 45 13.75
    endloop
  endfacet
  facet normal 0 1 -0
    outer loop
      vertex 23.9225 45 13.75
      vertex 0 45 35.75
      vertex 23.9225 45 35.75
    endloop
  endfacet
  facet normal 0 1 0
    outer loop
      vertex 23.9225 45 13.75
      vertex 0 45 0
      vertex 0 45 35.75
    endloop
  endfacet
  facet normal 0 1 0
    outer loop
      vertex 38.6275 45 13.75
      vertex 0 45 0
      vertex 23.9225 45 13.75
    endloop
  endfacet
  facet normal -0.993712 -0.111967 0
    outer loop
      vertex 40.15 4.875 13.75
      vertex 39.9275 6.84987 35.75
      vertex 39.9275 6.84987 13.75
    endloop
  endfacet
  facet normal -0.993712 -0.111967 0
    outer loop
      vertex 39.9275 6.84987 35.75
      vertex 40.15 4.875 13.75
      vertex 40.15 4.875 35.75
    endloop
  endfacet
  facet normal 0.111965 -0.993712 0
    outer loop
      vertex 29.3001 13.5275 13.75
      vertex 31.275 13.75 35.75
      vertex 29.3001 13.5275 35.75
    endloop
  endfacet
  facet normal 0.111965 -0.993712 0
    outer loop
      vertex 31.275 13.75 35.75
      vertex 29.3001 13.5275 13.75
      vertex 31.275 13.75 13.75
    endloop
  endfacet
  facet normal -0.532032 -0.846724 0
    outer loop
      vertex 35.1257 12.8711 13.75
      vertex 36.8085 11.8138 35.75
      vertex 35.1257 12.8711 35.75
    endloop
  endfacet
  facet normal -0.532032 -0.846724 -0
    outer loop
      vertex 36.8085 11.8138 35.75
      vertex 35.1257 12.8711 13.75
      vertex 36.8085 11.8138 13.75
    endloop
  endfacet
  facet normal 0.846724 -0.532033 0
    outer loop
      vertex 23.2789 8.72572 35.75
      vertex 24.3362 10.4085 13.75
      vertex 24.3362 10.4085 35.75
    endloop
  endfacet
  facet normal 0.846724 -0.532033 0
    outer loop
      vertex 24.3362 10.4085 13.75
      vertex 23.2789 8.72572 35.75
      vertex 23.2789 8.72572 13.75
    endloop
  endfacet
  facet normal 0 0 1
    outer loop
      vertex 39.9275 6.84987 13.75
      vertex 39.9275 2.90013 13.75
      vertex 40.15 4.875 13.75
    endloop
  endfacet
  facet normal 0 0 1
    outer loop
      vertex 38.6275 0 13.75
      vertex 39.9275 6.84987 13.75
      vertex 39.2711 8.72572 13.75
    endloop
  endfacet
  facet normal 0 0 1
    outer loop
      vertex 39.9275 6.84987 13.75
      vertex 38.6275 0 13.75
      vertex 39.9275 2.90013 13.75
    endloop
  endfacet
  facet normal 0 0 1
    outer loop
      vertex 39.9275 2.90013 13.75
      vertex 38.6275 0 13.75
      vertex 39.2711 1.02428 13.75
    endloop
  endfacet
  facet normal 0 0 1
    outer loop
      vertex 38.2138 10.4085 13.75
      vertex 38.6275 0 13.75
      vertex 39.2711 8.72572 13.75
    endloop
  endfacet
  facet normal 0 0 1
    outer loop
      vertex 36.8085 11.8138 13.75
      vertex 38.6275 0 13.75
      vertex 38.2138 10.4085 13.75
    endloop
  endfacet
  facet normal 0 0 1
    outer loop
      vertex 35.1257 12.8711 13.75
      vertex 38.6275 0 13.75
      vertex 36.8085 11.8138 13.75
    endloop
  endfacet
  facet normal 0 0 1
    outer loop
      vertex 33.2499 13.5275 13.75
      vertex 38.6275 0 13.75
      vertex 35.1257 12.8711 13.75
    endloop
  endfacet
  facet normal 0 0 1
    outer loop
      vertex 31.275 13.75 13.75
      vertex 38.6275 0 13.75
      vertex 33.2499 13.5275 13.75
    endloop
  endfacet
  facet normal -0 0 1
    outer loop
      vertex 29.3001 13.5275 13.75
      vertex 38.6275 0 13.75
      vertex 31.275 13.75 13.75
    endloop
  endfacet
  facet normal -0 0 1
    outer loop
      vertex 27.4243 12.8711 13.75
      vertex 38.6275 0 13.75
      vertex 29.3001 13.5275 13.75
    endloop
  endfacet
  facet normal -0 0 1
    outer loop
      vertex 25.7415 11.8138 13.75
      vertex 38.6275 0 13.75
      vertex 27.4243 12.8711 13.75
    endloop
  endfacet
  facet normal -0 0 1
    outer loop
      vertex 24.3362 10.4085 13.75
      vertex 38.6275 0 13.75
      vertex 25.7415 11.8138 13.75
    endloop
  endfacet
  facet normal 0 0 1
    outer loop
      vertex 24.3362 10.4085 13.75
      vertex 23.9225 0 13.75
      vertex 38.6275 0 13.75
    endloop
  endfacet
  facet normal -0 0 1
    outer loop
      vertex 23.2789 8.72572 13.75
      vertex 23.9225 0 13.75
      vertex 24.3362 10.4085 13.75
    endloop
  endfacet
  facet normal -0 0 1
    outer loop
      vertex 22.6225 6.84987 13.75
      vertex 23.9225 0 13.75
      vertex 23.2789 8.72572 13.75
    endloop
  endfacet
  facet normal -0 0 1
    outer loop
      vertex 22.6225 2.90013 13.75
      vertex 23.9225 0 13.75
      vertex 22.6225 6.84987 13.75
    endloop
  endfacet
  facet normal 0 0 1
    outer loop
      vertex 23.9225 0 13.75
      vertex 22.6225 2.90013 13.75
      vertex 23.2789 1.02428 13.75
    endloop
  endfacet
  facet normal 0 -0 1
    outer loop
      vertex 22.6225 2.90013 13.75
      vertex 22.6225 6.84987 13.75
      vertex 22.4 4.875 13.75
    endloop
  endfacet
  facet normal 0.532032 -0.846724 0
    outer loop
      vertex 25.7415 11.8138 13.75
      vertex 27.4243 12.8711 35.75
      vertex 25.7415 11.8138 35.75
    endloop
  endfacet
  facet normal 0.532032 -0.846724 0
    outer loop
      vertex 27.4243 12.8711 35.75
      vertex 25.7415 11.8138 13.75
      vertex 27.4243 12.8711 13.75
    endloop
  endfacet
  facet normal -0.846724 -0.532033 0
    outer loop
      vertex 39.2711 8.72572 13.75
      vertex 38.2138 10.4085 35.75
      vertex 38.2138 10.4085 13.75
    endloop
  endfacet
  facet normal -0.846724 -0.532033 0
    outer loop
      vertex 38.2138 10.4085 35.75
      vertex 39.2711 8.72572 13.75
      vertex 39.2711 8.72572 35.75
    endloop
  endfacet
  facet normal -0.943884 -0.330278 0
    outer loop
      vertex 39.9275 6.84987 13.75
      vertex 39.2711 8.72572 35.75
      vertex 39.2711 8.72572 13.75
    endloop
  endfacet
  facet normal -0.943884 -0.330278 0
    outer loop
      vertex 39.2711 8.72572 35.75
      vertex 39.9275 6.84987 13.75
      vertex 39.9275 6.84987 35.75
    endloop
  endfacet
  facet normal -0.707107 -0.707106 0
    outer loop
      vertex 38.2138 10.4085 13.75
      vertex 36.8085 11.8138 35.75
      vertex 36.8085 11.8138 13.75
    endloop
  endfacet
  facet normal -0.707107 -0.707106 0
    outer loop
      vertex 36.8085 11.8138 35.75
      vertex 38.2138 10.4085 13.75
      vertex 38.2138 10.4085 35.75
    endloop
  endfacet
  facet normal -0.111965 -0.993712 0
    outer loop
      vertex 31.275 13.75 13.75
      vertex 33.2499 13.5275 35.75
      vertex 31.275 13.75 35.75
    endloop
  endfacet
  facet normal -0.111965 -0.993712 -0
    outer loop
      vertex 33.2499 13.5275 35.75
      vertex 31.275 13.75 13.75
      vertex 33.2499 13.5275 13.75
    endloop
  endfacet
  facet normal -0.330279 -0.943883 0
    outer loop
      vertex 33.2499 13.5275 13.75
      vertex 35.1257 12.8711 35.75
      vertex 33.2499 13.5275 35.75
    endloop
  endfacet
  facet normal -0.330279 -0.943883 -0
    outer loop
      vertex 35.1257 12.8711 35.75
      vertex 33.2499 13.5275 13.75
      vertex 35.1257 12.8711 13.75
    endloop
  endfacet
  facet normal 0.943884 -0.330279 0
    outer loop
      vertex 22.6225 6.84987 35.75
      vertex 23.2789 8.72572 13.75
      vertex 23.2789 8.72572 35.75
    endloop
  endfacet
  facet normal 0.943884 -0.330279 0
    outer loop
      vertex 23.2789 8.72572 13.75
      vertex 22.6225 6.84987 35.75
      vertex 22.6225 6.84987 13.75
    endloop
  endfacet
  facet normal 0.993712 -0.111965 0
    outer loop
      vertex 22.4 4.875 35.75
      vertex 22.6225 6.84987 13.75
      vertex 22.6225 6.84987 35.75
    endloop
  endfacet
  facet normal 0.993712 -0.111965 0
    outer loop
      vertex 22.6225 6.84987 13.75
      vertex 22.4 4.875 35.75
      vertex 22.4 4.875 13.75
    endloop
  endfacet
  facet normal 0.993712 0.111965 0
    outer loop
      vertex 22.6225 2.90013 35.75
      vertex 22.4 4.875 13.75
      vertex 22.4 4.875 35.75
    endloop
  endfacet
  facet normal 0.993712 0.111965 0
    outer loop
      vertex 22.4 4.875 13.75
      vertex 22.6225 2.90013 35.75
      vertex 22.6225 2.90013 13.75
    endloop
  endfacet
  facet normal 0.707107 -0.707106 0
    outer loop
      vertex 24.3362 10.4085 35.75
      vertex 25.7415 11.8138 13.75
      vertex 25.7415 11.8138 35.75
    endloop
  endfacet
  facet normal 0.707107 -0.707106 0
    outer loop
      vertex 25.7415 11.8138 13.75
      vertex 24.3362 10.4085 35.75
      vertex 24.3362 10.4085 13.75
    endloop
  endfacet
  facet normal 0.330279 -0.943883 0
    outer loop
      vertex 27.4243 12.8711 13.75
      vertex 29.3001 13.5275 35.75
      vertex 27.4243 12.8711 35.75
    endloop
  endfacet
  facet normal 0.330279 -0.943883 0
    outer loop
      vertex 29.3001 13.5275 35.75
      vertex 27.4243 12.8711 13.75
      vertex 29.3001 13.5275 13.75
    endloop
  endfacet
  facet normal -0.993712 0.111967 0
    outer loop
      vertex 39.9275 2.90013 13.75
      vertex 40.15 4.875 35.75
      vertex 40.15 4.875 13.75
    endloop
  endfacet
  facet normal -0.993712 0.111967 0
    outer loop
      vertex 40.15 4.875 35.75
      vertex 39.9275 2.90013 13.75
      vertex 39.9275 2.90013 35.75
    endloop
  endfacet
  facet normal -0.943884 0.330278 0
    outer loop
      vertex 39.2711 1.02428 13.75
      vertex 39.9275 2.90013 35.75
      vertex 39.9275 2.90013 13.75
    endloop
  endfacet
  facet normal -0.943884 0.330278 0
    outer loop
      vertex 39.9275 2.90013 35.75
      vertex 39.2711 1.02428 13.75
      vertex 39.2711 1.02428 35.75
    endloop
  endfacet
  facet normal 0.846724 0.532033 0
    outer loop
      vertex 23.9225 0 35.75
      vertex 23.2789 1.02428 13.75
      vertex 23.2789 1.02428 35.75
    endloop
  endfacet
  facet normal 0.846724 0.532033 0
    outer loop
      vertex 23.2789 1.02428 13.75
      vertex 23.9225 0 35.75
      vertex 23.9225 0 13.75
    endloop
  endfacet
  facet normal 0.943884 0.330279 0
    outer loop
      vertex 23.2789 1.02428 35.75
      vertex 22.6225 2.90013 13.75
      vertex 22.6225 2.90013 35.75
    endloop
  endfacet
  facet normal 0.943884 0.330279 0
    outer loop
      vertex 22.6225 2.90013 13.75
      vertex 23.2789 1.02428 35.75
      vertex 23.2789 1.02428 13.75
    endloop
  endfacet
  facet normal -0.846724 0.532033 0
    outer loop
      vertex 38.6275 0 13.75
      vertex 39.2711 1.02428 35.75
      vertex 39.2711 1.02428 13.75
    endloop
  endfacet
  facet normal -0.846724 0.532033 0
    outer loop
      vertex 39.2711 1.02428 35.75
      vertex 38.6275 0 13.75
      vertex 38.6275 0 35.75
    endloop
  endfacet
  facet normal 0 0 1
    outer loop
      vertex 64.7613 9.19643 13.75
      vertex 64.7613 4.65356 13.75
      vertex 65 6.925 13.75
    endloop
  endfacet
  facet normal 0 0 1
    outer loop
      vertex 64.0555 11.3686 13.75
      vertex 64.7613 4.65356 13.75
      vertex 64.7613 9.19643 13.75
    endloop
  endfacet
  facet normal 0 0 1
    outer loop
      vertex 62.4602 0 13.75
      vertex 64.7613 4.65356 13.75
      vertex 64.0555 11.3686 13.75
    endloop
  endfacet
  facet normal 0 0 1
    outer loop
      vertex 62.4602 0 13.75
      vertex 64.0555 11.3686 13.75
      vertex 62.9135 13.3466 13.75
    endloop
  endfacet
  facet normal 0 0 1
    outer loop
      vertex 64.7613 4.65356 13.75
      vertex 62.4602 0 13.75
      vertex 64.0555 2.4814 13.75
    endloop
  endfacet
  facet normal 0 0 1
    outer loop
      vertex 64.0555 2.4814 13.75
      vertex 62.4602 0 13.75
      vertex 62.9135 0.503446 13.75
    endloop
  endfacet
  facet normal 0 0 1
    outer loop
      vertex 61.3853 15.0439 13.75
      vertex 62.4602 0 13.75
      vertex 62.9135 13.3466 13.75
    endloop
  endfacet
  facet normal 0 0 1
    outer loop
      vertex 59.5375 16.3863 13.75
      vertex 62.4602 0 13.75
      vertex 61.3853 15.0439 13.75
    endloop
  endfacet
  facet normal 0 0 1
    outer loop
      vertex 57.451 17.3153 13.75
      vertex 62.4602 0 13.75
      vertex 59.5375 16.3863 13.75
    endloop
  endfacet
  facet normal 0 0 1
    outer loop
      vertex 55.217 17.7902 13.75
      vertex 62.4602 0 13.75
      vertex 57.451 17.3153 13.75
    endloop
  endfacet
  facet normal -0 0 1
    outer loop
      vertex 52.933 17.7902 13.75
      vertex 62.4602 0 13.75
      vertex 55.217 17.7902 13.75
    endloop
  endfacet
  facet normal -0 0 1
    outer loop
      vertex 50.699 17.3153 13.75
      vertex 62.4602 0 13.75
      vertex 52.933 17.7902 13.75
    endloop
  endfacet
  facet normal -0 0 1
    outer loop
      vertex 48.6125 16.3863 13.75
      vertex 62.4602 0 13.75
      vertex 50.699 17.3153 13.75
    endloop
  endfacet
  facet normal -0 0 1
    outer loop
      vertex 46.7647 15.0439 13.75
      vertex 62.4602 0 13.75
      vertex 48.6125 16.3863 13.75
    endloop
  endfacet
  facet normal 0 0 1
    outer loop
      vertex 46.7647 15.0439 13.75
      vertex 45.6898 0 13.75
      vertex 62.4602 0 13.75
    endloop
  endfacet
  facet normal -0 0 1
    outer loop
      vertex 45.2365 13.3466 13.75
      vertex 45.6898 0 13.75
      vertex 46.7647 15.0439 13.75
    endloop
  endfacet
  facet normal -0 0 1
    outer loop
      vertex 44.0945 11.3686 13.75
      vertex 45.6898 0 13.75
      vertex 45.2365 13.3466 13.75
    endloop
  endfacet
  facet normal -0 0 1
    outer loop
      vertex 43.3887 9.19643 13.75
      vertex 45.6898 0 13.75
      vertex 44.0945 11.3686 13.75
    endloop
  endfacet
  facet normal 0 0 1
    outer loop
      vertex 45.6898 0 13.75
      vertex 44.0945 2.4814 13.75
      vertex 45.2365 0.503446 13.75
    endloop
  endfacet
  facet normal -0 0 1
    outer loop
      vertex 43.3887 4.65356 13.75
      vertex 45.6898 0 13.75
      vertex 43.3887 9.19643 13.75
    endloop
  endfacet
  facet normal 0 0 1
    outer loop
      vertex 45.6898 0 13.75
      vertex 43.3887 4.65356 13.75
      vertex 44.0945 2.4814 13.75
    endloop
  endfacet
  facet normal 0 -0 1
    outer loop
      vertex 43.3887 4.65356 13.75
      vertex 43.3887 9.19643 13.75
      vertex 43.15 6.925 13.75
    endloop
  endfacet
  facet normal -0.406738 -0.913545 0
    outer loop
      vertex 57.451 17.3153 13.75
      vertex 59.5375 16.3863 35.75
      vertex 57.451 17.3153 35.75
    endloop
  endfacet
  facet normal -0.406738 -0.913545 -0
    outer loop
      vertex 59.5375 16.3863 35.75
      vertex 57.451 17.3153 13.75
      vertex 59.5375 16.3863 13.75
    endloop
  endfacet
  facet normal -0.994522 0.104529 0
    outer loop
      vertex 64.7613 4.65356 13.75
      vertex 65 6.925 35.75
      vertex 65 6.925 13.75
    endloop
  endfacet
  facet normal -0.994522 0.104529 0
    outer loop
      vertex 65 6.925 35.75
      vertex 64.7613 4.65356 13.75
      vertex 64.7613 4.65356 35.75
    endloop
  endfacet
  facet normal 0.587785 -0.809017 0
    outer loop
      vertex 46.7647 15.0439 13.75
      vertex 48.6125 16.3863 35.75
      vertex 46.7647 15.0439 35.75
    endloop
  endfacet
  facet normal 0.587785 -0.809017 0
    outer loop
      vertex 48.6125 16.3863 35.75
      vertex 46.7647 15.0439 13.75
      vertex 48.6125 16.3863 13.75
    endloop
  endfacet
  facet normal 0.951056 -0.309018 0
    outer loop
      vertex 43.3887 9.19643 35.75
      vertex 44.0945 11.3686 13.75
      vertex 44.0945 11.3686 35.75
    endloop
  endfacet
  facet normal 0.951056 -0.309018 0
    outer loop
      vertex 44.0945 11.3686 13.75
      vertex 43.3887 9.19643 35.75
      vertex 43.3887 9.19643 13.75
    endloop
  endfacet
  facet normal 0.743145 -0.669131 0
    outer loop
      vertex 45.2365 13.3466 35.75
      vertex 46.7647 15.0439 13.75
      vertex 46.7647 15.0439 35.75
    endloop
  endfacet
  facet normal 0.743145 -0.669131 0
    outer loop
      vertex 46.7647 15.0439 13.75
      vertex 45.2365 13.3466 35.75
      vertex 45.2365 13.3466 13.75
    endloop
  endfacet
  facet normal -0.743145 0.66913 0
    outer loop
      vertex 62.4602 0 13.75
      vertex 62.9135 0.503446 35.75
      vertex 62.9135 0.503446 13.75
    endloop
  endfacet
  facet normal -0.743145 0.66913 0
    outer loop
      vertex 62.9135 0.503446 35.75
      vertex 62.4602 0 13.75
      vertex 62.4602 0 35.75
    endloop
  endfacet
  facet normal -0.951056 -0.309018 0
    outer loop
      vertex 64.7613 9.19643 13.75
      vertex 64.0555 11.3686 35.75
      vertex 64.0555 11.3686 13.75
    endloop
  endfacet
  facet normal -0.951056 -0.309018 0
    outer loop
      vertex 64.0555 11.3686 35.75
      vertex 64.7613 9.19643 13.75
      vertex 64.7613 9.19643 35.75
    endloop
  endfacet
  facet normal -0.866026 -0.499999 0
    outer loop
      vertex 64.0555 11.3686 13.75
      vertex 62.9135 13.3466 35.75
      vertex 62.9135 13.3466 13.75
    endloop
  endfacet
  facet normal -0.866026 -0.499999 0
    outer loop
      vertex 62.9135 13.3466 35.75
      vertex 64.0555 11.3686 13.75
      vertex 64.0555 11.3686 35.75
    endloop
  endfacet
  facet normal -0.743145 -0.669131 0
    outer loop
      vertex 62.9135 13.3466 13.75
      vertex 61.3853 15.0439 35.75
      vertex 61.3853 15.0439 13.75
    endloop
  endfacet
  facet normal -0.743145 -0.669131 0
    outer loop
      vertex 61.3853 15.0439 35.75
      vertex 62.9135 13.3466 13.75
      vertex 62.9135 13.3466 35.75
    endloop
  endfacet
  facet normal -0.587785 -0.809017 0
    outer loop
      vertex 59.5375 16.3863 13.75
      vertex 61.3853 15.0439 35.75
      vertex 59.5375 16.3863 35.75
    endloop
  endfacet
  facet normal -0.587785 -0.809017 -0
    outer loop
      vertex 61.3853 15.0439 35.75
      vertex 59.5375 16.3863 13.75
      vertex 61.3853 15.0439 13.75
    endloop
  endfacet
  facet normal -0.207911 -0.978148 0
    outer loop
      vertex 55.217 17.7902 13.75
      vertex 57.451 17.3153 35.75
      vertex 55.217 17.7902 35.75
    endloop
  endfacet
  facet normal -0.207911 -0.978148 -0
    outer loop
      vertex 57.451 17.3153 35.75
      vertex 55.217 17.7902 13.75
      vertex 57.451 17.3153 13.75
    endloop
  endfacet
  facet normal 0.207912 -0.978148 0
    outer loop
      vertex 50.699 17.3153 13.75
      vertex 52.933 17.7902 35.75
      vertex 50.699 17.3153 35.75
    endloop
  endfacet
  facet normal 0.207912 -0.978148 0
    outer loop
      vertex 52.933 17.7902 35.75
      vertex 50.699 17.3153 13.75
      vertex 52.933 17.7902 13.75
    endloop
  endfacet
  facet normal 0.994522 0.104528 0
    outer loop
      vertex 43.3887 4.65356 35.75
      vertex 43.15 6.925 13.75
      vertex 43.15 6.925 35.75
    endloop
  endfacet
  facet normal 0.994522 0.104528 0
    outer loop
      vertex 43.15 6.925 13.75
      vertex 43.3887 4.65356 35.75
      vertex 43.3887 4.65356 13.75
    endloop
  endfacet
  facet normal 0.866026 -0.499999 0
    outer loop
      vertex 44.0945 11.3686 35.75
      vertex 45.2365 13.3466 13.75
      vertex 45.2365 13.3466 35.75
    endloop
  endfacet
  facet normal 0.866026 -0.499999 0
    outer loop
      vertex 45.2365 13.3466 13.75
      vertex 44.0945 11.3686 35.75
      vertex 44.0945 11.3686 13.75
    endloop
  endfacet
  facet normal 0.406737 -0.913545 0
    outer loop
      vertex 48.6125 16.3863 13.75
      vertex 50.699 17.3153 35.75
      vertex 48.6125 16.3863 35.75
    endloop
  endfacet
  facet normal 0.406737 -0.913545 0
    outer loop
      vertex 50.699 17.3153 35.75
      vertex 48.6125 16.3863 13.75
      vertex 50.699 17.3153 13.75
    endloop
  endfacet
  facet normal -0.994522 -0.104529 0
    outer loop
      vertex 65 6.925 13.75
      vertex 64.7613 9.19643 35.75
      vertex 64.7613 9.19643 13.75
    endloop
  endfacet
  facet normal -0.994522 -0.104529 0
    outer loop
      vertex 64.7613 9.19643 35.75
      vertex 65 6.925 13.75
      vertex 65 6.925 35.75
    endloop
  endfacet
  facet normal -0.866026 0.499999 0
    outer loop
      vertex 62.9135 0.503446 13.75
      vertex 64.0555 2.4814 35.75
      vertex 64.0555 2.4814 13.75
    endloop
  endfacet
  facet normal -0.866026 0.499999 0
    outer loop
      vertex 64.0555 2.4814 35.75
      vertex 62.9135 0.503446 13.75
      vertex 62.9135 0.503446 35.75
    endloop
  endfacet
  facet normal -0.951056 0.309018 0
    outer loop
      vertex 64.0555 2.4814 13.75
      vertex 64.7613 4.65356 35.75
      vertex 64.7613 4.65356 13.75
    endloop
  endfacet
  facet normal -0.951056 0.309018 0
    outer loop
      vertex 64.7613 4.65356 35.75
      vertex 64.0555 2.4814 13.75
      vertex 64.0555 2.4814 35.75
    endloop
  endfacet
  facet normal 0.743145 0.66913 0
    outer loop
      vertex 45.6898 0 35.75
      vertex 45.2365 0.503446 13.75
      vertex 45.2365 0.503446 35.75
    endloop
  endfacet
  facet normal 0.743145 0.66913 0
    outer loop
      vertex 45.2365 0.503446 13.75
      vertex 45.6898 0 35.75
      vertex 45.6898 0 13.75
    endloop
  endfacet
  facet normal 0.951056 0.309018 0
    outer loop
      vertex 44.0945 2.4814 35.75
      vertex 43.3887 4.65356 13.75
      vertex 43.3887 4.65356 35.75
    endloop
  endfacet
  facet normal 0.951056 0.309018 0
    outer loop
      vertex 43.3887 4.65356 13.75
      vertex 44.0945 2.4814 35.75
      vertex 44.0945 2.4814 13.75
    endloop
  endfacet
  facet normal 0 -1 0
    outer loop
      vertex 52.933 17.7902 13.75
      vertex 55.217 17.7902 35.75
      vertex 52.933 17.7902 35.75
    endloop
  endfacet
  facet normal 0 -1 -0
    outer loop
      vertex 55.217 17.7902 35.75
      vertex 52.933 17.7902 13.75
      vertex 55.217 17.7902 13.75
    endloop
  endfacet
  facet normal 0.994522 -0.104527 0
    outer loop
      vertex 43.15 6.925 35.75
      vertex 43.3887 9.19643 13.75
      vertex 43.3887 9.19643 35.75
    endloop
  endfacet
  facet normal 0.994522 -0.104527 0
    outer loop
      vertex 43.3887 9.19643 13.75
      vertex 43.15 6.925 35.75
      vertex 43.15 6.925 13.75
    endloop
  endfacet
  facet normal 0.866026 0.499999 0
    outer loop
      vertex 45.2365 0.503446 35.75
      vertex 44.0945 2.4814 13.75
      vertex 44.0945 2.4814 35.75
    endloop
  endfacet
  facet normal 0.866026 0.499999 0
    outer loop
      vertex 44.0945 2.4814 13.75
      vertex 45.2365 0.503446 35.75
      vertex 45.2365 0.503446 13.75
    endloop
  endfacet
  facet normal -0.993712 -0.111967 0
    outer loop
      vertex 40.15 40.125 13.75
      vertex 39.9275 42.0999 35.75
      vertex 39.9275 42.0999 13.75
    endloop
  endfacet
  facet normal -0.993712 -0.111967 0
    outer loop
      vertex 39.9275 42.0999 35.75
      vertex 40.15 40.125 13.75
      vertex 40.15 40.125 35.75
    endloop
  endfacet
  facet normal 0.993712 0.111965 0
    outer loop
      vertex 22.6225 38.1501 35.75
      vertex 22.4 40.125 13.75
      vertex 22.4 40.125 35.75
    endloop
  endfacet
  facet normal 0.993712 0.111965 0
    outer loop
      vertex 22.4 40.125 13.75
      vertex 22.6225 38.1501 35.75
      vertex 22.6225 38.1501 13.75
    endloop
  endfacet
  facet normal 0.111965 0.993712 -0
    outer loop
      vertex 31.275 31.25 13.75
      vertex 29.3001 31.4725 35.75
      vertex 31.275 31.25 35.75
    endloop
  endfacet
  facet normal 0.111965 0.993712 0
    outer loop
      vertex 29.3001 31.4725 35.75
      vertex 31.275 31.25 13.75
      vertex 29.3001 31.4725 13.75
    endloop
  endfacet
  facet normal 0.993712 -0.111965 0
    outer loop
      vertex 22.4 40.125 35.75
      vertex 22.6225 42.0999 13.75
      vertex 22.6225 42.0999 35.75
    endloop
  endfacet
  facet normal 0.993712 -0.111965 0
    outer loop
      vertex 22.6225 42.0999 13.75
      vertex 22.4 40.125 35.75
      vertex 22.4 40.125 13.75
    endloop
  endfacet
  facet normal -0.993712 0.111967 0
    outer loop
      vertex 39.9275 38.1501 13.75
      vertex 40.15 40.125 35.75
      vertex 40.15 40.125 13.75
    endloop
  endfacet
  facet normal -0.993712 0.111967 0
    outer loop
      vertex 40.15 40.125 35.75
      vertex 39.9275 38.1501 13.75
      vertex 39.9275 38.1501 35.75
    endloop
  endfacet
  facet normal 0.330278 0.943884 -0
    outer loop
      vertex 29.3001 31.4725 13.75
      vertex 27.4243 32.1289 35.75
      vertex 29.3001 31.4725 35.75
    endloop
  endfacet
  facet normal 0.330278 0.943884 0
    outer loop
      vertex 27.4243 32.1289 35.75
      vertex 29.3001 31.4725 13.75
      vertex 27.4243 32.1289 13.75
    endloop
  endfacet
  facet normal -0.943884 -0.330278 0
    outer loop
      vertex 39.9275 42.0999 13.75
      vertex 39.2711 43.9757 35.75
      vertex 39.2711 43.9757 13.75
    endloop
  endfacet
  facet normal -0.943884 -0.330278 0
    outer loop
      vertex 39.2711 43.9757 35.75
      vertex 39.9275 42.0999 13.75
      vertex 39.9275 42.0999 35.75
    endloop
  endfacet
  facet normal -0.846724 -0.532032 0
    outer loop
      vertex 39.2711 43.9757 13.75
      vertex 38.6275 45 35.75
      vertex 38.6275 45 13.75
    endloop
  endfacet
  facet normal -0.846724 -0.532032 0
    outer loop
      vertex 38.6275 45 35.75
      vertex 39.2711 43.9757 13.75
      vertex 39.2711 43.9757 35.75
    endloop
  endfacet
  facet normal 0.943883 -0.330279 0
    outer loop
      vertex 22.6225 42.0999 35.75
      vertex 23.2789 43.9757 13.75
      vertex 23.2789 43.9757 35.75
    endloop
  endfacet
  facet normal 0.943883 -0.330279 0
    outer loop
      vertex 23.2789 43.9757 13.75
      vertex 22.6225 42.0999 35.75
      vertex 22.6225 42.0999 13.75
    endloop
  endfacet
  facet normal 0 0 1
    outer loop
      vertex 39.9275 42.0999 13.75
      vertex 39.9275 38.1501 13.75
      vertex 40.15 40.125 13.75
    endloop
  endfacet
  facet normal 0 0 1
    outer loop
      vertex 38.6275 45 13.75
      vertex 39.9275 42.0999 13.75
      vertex 39.2711 43.9757 13.75
    endloop
  endfacet
  facet normal 0 0 1
    outer loop
      vertex 39.9275 42.0999 13.75
      vertex 38.6275 45 13.75
      vertex 39.9275 38.1501 13.75
    endloop
  endfacet
  facet normal 0 0 1
    outer loop
      vertex 39.9275 38.1501 13.75
      vertex 38.6275 45 13.75
      vertex 39.2711 36.2743 13.75
    endloop
  endfacet
  facet normal 0 0 1
    outer loop
      vertex 38.6275 45 13.75
      vertex 38.2138 34.5915 13.75
      vertex 39.2711 36.2743 13.75
    endloop
  endfacet
  facet normal 0 0 1
    outer loop
      vertex 38.6275 45 13.75
      vertex 36.8085 33.1862 13.75
      vertex 38.2138 34.5915 13.75
    endloop
  endfacet
  facet normal 0 0 1
    outer loop
      vertex 38.6275 45 13.75
      vertex 35.1257 32.1289 13.75
      vertex 36.8085 33.1862 13.75
    endloop
  endfacet
  facet normal 0 0 1
    outer loop
      vertex 38.6275 45 13.75
      vertex 33.2499 31.4725 13.75
      vertex 35.1257 32.1289 13.75
    endloop
  endfacet
  facet normal 0 0 1
    outer loop
      vertex 38.6275 45 13.75
      vertex 31.275 31.25 13.75
      vertex 33.2499 31.4725 13.75
    endloop
  endfacet
  facet normal 0 0 1
    outer loop
      vertex 38.6275 45 13.75
      vertex 29.3001 31.4725 13.75
      vertex 31.275 31.25 13.75
    endloop
  endfacet
  facet normal 0 0 1
    outer loop
      vertex 38.6275 45 13.75
      vertex 27.4243 32.1289 13.75
      vertex 29.3001 31.4725 13.75
    endloop
  endfacet
  facet normal 0 0 1
    outer loop
      vertex 38.6275 45 13.75
      vertex 25.7415 33.1862 13.75
      vertex 27.4243 32.1289 13.75
    endloop
  endfacet
  facet normal 0 0 1
    outer loop
      vertex 38.6275 45 13.75
      vertex 24.3362 34.5915 13.75
      vertex 25.7415 33.1862 13.75
    endloop
  endfacet
  facet normal -0 0 1
    outer loop
      vertex 23.9225 45 13.75
      vertex 24.3362 34.5915 13.75
      vertex 38.6275 45 13.75
    endloop
  endfacet
  facet normal 0 0 1
    outer loop
      vertex 22.6225 42.0999 13.75
      vertex 23.9225 45 13.75
      vertex 23.2789 43.9757 13.75
    endloop
  endfacet
  facet normal 0 0 1
    outer loop
      vertex 23.9225 45 13.75
      vertex 23.2789 36.2743 13.75
      vertex 24.3362 34.5915 13.75
    endloop
  endfacet
  facet normal 0 0 1
    outer loop
      vertex 22.6225 38.1501 13.75
      vertex 23.9225 45 13.75
      vertex 22.6225 42.0999 13.75
    endloop
  endfacet
  facet normal 0 0 1
    outer loop
      vertex 23.9225 45 13.75
      vertex 22.6225 38.1501 13.75
      vertex 23.2789 36.2743 13.75
    endloop
  endfacet
  facet normal 0 -0 1
    outer loop
      vertex 22.6225 38.1501 13.75
      vertex 22.6225 42.0999 13.75
      vertex 22.4 40.125 13.75
    endloop
  endfacet
  facet normal 0.846724 -0.532032 0
    outer loop
      vertex 23.2789 43.9757 35.75
      vertex 23.9225 45 13.75
      vertex 23.9225 45 35.75
    endloop
  endfacet
  facet normal 0.846724 -0.532032 0
    outer loop
      vertex 23.9225 45 13.75
      vertex 23.2789 43.9757 35.75
      vertex 23.2789 43.9757 13.75
    endloop
  endfacet
  facet normal -0.707108 0.707106 0
    outer loop
      vertex 36.8085 33.1862 13.75
      vertex 38.2138 34.5915 35.75
      vertex 38.2138 34.5915 13.75
    endloop
  endfacet
  facet normal -0.707108 0.707106 0
    outer loop
      vertex 38.2138 34.5915 35.75
      vertex 36.8085 33.1862 13.75
      vertex 36.8085 33.1862 35.75
    endloop
  endfacet
  facet normal -0.330278 0.943884 0
    outer loop
      vertex 35.1257 32.1289 13.75
      vertex 33.2499 31.4725 35.75
      vertex 35.1257 32.1289 35.75
    endloop
  endfacet
  facet normal -0.330278 0.943884 0
    outer loop
      vertex 33.2499 31.4725 35.75
      vertex 35.1257 32.1289 13.75
      vertex 33.2499 31.4725 13.75
    endloop
  endfacet
  facet normal -0.111965 0.993712 0
    outer loop
      vertex 33.2499 31.4725 13.75
      vertex 31.275 31.25 35.75
      vertex 33.2499 31.4725 35.75
    endloop
  endfacet
  facet normal -0.111965 0.993712 0
    outer loop
      vertex 31.275 31.25 35.75
      vertex 33.2499 31.4725 13.75
      vertex 31.275 31.25 13.75
    endloop
  endfacet
  facet normal 0.707108 0.707106 0
    outer loop
      vertex 25.7415 33.1862 35.75
      vertex 24.3362 34.5915 13.75
      vertex 24.3362 34.5915 35.75
    endloop
  endfacet
  facet normal 0.707108 0.707106 0
    outer loop
      vertex 24.3362 34.5915 13.75
      vertex 25.7415 33.1862 35.75
      vertex 25.7415 33.1862 13.75
    endloop
  endfacet
  facet normal 0.943884 0.330278 0
    outer loop
      vertex 23.2789 36.2743 35.75
      vertex 22.6225 38.1501 13.75
      vertex 22.6225 38.1501 35.75
    endloop
  endfacet
  facet normal 0.943884 0.330278 0
    outer loop
      vertex 22.6225 38.1501 13.75
      vertex 23.2789 36.2743 35.75
      vertex 23.2789 36.2743 13.75
    endloop
  endfacet
  facet normal 0.532033 0.846724 -0
    outer loop
      vertex 27.4243 32.1289 13.75
      vertex 25.7415 33.1862 35.75
      vertex 27.4243 32.1289 35.75
    endloop
  endfacet
  facet normal 0.532033 0.846724 0
    outer loop
      vertex 25.7415 33.1862 35.75
      vertex 27.4243 32.1289 13.75
      vertex 25.7415 33.1862 13.75
    endloop
  endfacet
  facet normal -0.846723 0.532034 0
    outer loop
      vertex 38.2138 34.5915 13.75
      vertex 39.2711 36.2743 35.75
      vertex 39.2711 36.2743 13.75
    endloop
  endfacet
  facet normal -0.846723 0.532034 0
    outer loop
      vertex 39.2711 36.2743 35.75
      vertex 38.2138 34.5915 13.75
      vertex 38.2138 34.5915 35.75
    endloop
  endfacet
  facet normal -0.943884 0.330277 0
    outer loop
      vertex 39.2711 36.2743 13.75
      vertex 39.9275 38.1501 35.75
      vertex 39.9275 38.1501 13.75
    endloop
  endfacet
  facet normal -0.943884 0.330277 0
    outer loop
      vertex 39.9275 38.1501 35.75
      vertex 39.2711 36.2743 13.75
      vertex 39.2711 36.2743 35.75
    endloop
  endfacet
  facet normal -0.532033 0.846724 0
    outer loop
      vertex 36.8085 33.1862 13.75
      vertex 35.1257 32.1289 35.75
      vertex 36.8085 33.1862 35.75
    endloop
  endfacet
  facet normal -0.532033 0.846724 0
    outer loop
      vertex 35.1257 32.1289 35.75
      vertex 36.8085 33.1862 13.75
      vertex 35.1257 32.1289 13.75
    endloop
  endfacet
  facet normal 0.846723 0.532034 0
    outer loop
      vertex 24.3362 34.5915 35.75
      vertex 23.2789 36.2743 13.75
      vertex 23.2789 36.2743 35.75
    endloop
  endfacet
  facet normal 0.846723 0.532034 0
    outer loop
      vertex 23.2789 36.2743 13.75
      vertex 24.3362 34.5915 35.75
      vertex 24.3362 34.5915 13.75
    endloop
  endfacet
  facet normal -0.994522 -0.104529 0
    outer loop
      vertex 65 38.075 13.75
      vertex 64.7613 40.3464 35.75
      vertex 64.7613 40.3464 13.75
    endloop
  endfacet
  facet normal -0.994522 -0.104529 0
    outer loop
      vertex 64.7613 40.3464 35.75
      vertex 65 38.075 13.75
      vertex 65 38.075 35.75
    endloop
  endfacet
  facet normal 0 1 -0
    outer loop
      vertex 55.217 27.2098 13.75
      vertex 52.933 27.2098 35.75
      vertex 55.217 27.2098 35.75
    endloop
  endfacet
  facet normal 0 1 0
    outer loop
      vertex 52.933 27.2098 35.75
      vertex 55.217 27.2098 13.75
      vertex 52.933 27.2098 13.75
    endloop
  endfacet
  facet normal 0.587785 0.809017 -0
    outer loop
      vertex 48.6125 28.6137 13.75
      vertex 46.7647 29.9561 35.75
      vertex 48.6125 28.6137 35.75
    endloop
  endfacet
  facet normal 0.587785 0.809017 0
    outer loop
      vertex 46.7647 29.9561 35.75
      vertex 48.6125 28.6137 13.75
      vertex 46.7647 29.9561 13.75
    endloop
  endfacet
  facet normal 0.866026 -0.5 0
    outer loop
      vertex 44.0945 42.5186 35.75
      vertex 45.2365 44.4966 13.75
      vertex 45.2365 44.4966 35.75
    endloop
  endfacet
  facet normal 0.866026 -0.5 0
    outer loop
      vertex 45.2365 44.4966 13.75
      vertex 44.0945 42.5186 35.75
      vertex 44.0945 42.5186 13.75
    endloop
  endfacet
  facet normal 0.951056 -0.309018 0
    outer loop
      vertex 43.3887 40.3464 35.75
      vertex 44.0945 42.5186 13.75
      vertex 44.0945 42.5186 35.75
    endloop
  endfacet
  facet normal 0.951056 -0.309018 0
    outer loop
      vertex 44.0945 42.5186 13.75
      vertex 43.3887 40.3464 35.75
      vertex 43.3887 40.3464 13.75
    endloop
  endfacet
  facet normal -0.743145 0.669131 0
    outer loop
      vertex 61.3853 29.9561 13.75
      vertex 62.9135 31.6534 35.75
      vertex 62.9135 31.6534 13.75
    endloop
  endfacet
  facet normal -0.743145 0.669131 0
    outer loop
      vertex 62.9135 31.6534 35.75
      vertex 61.3853 29.9561 13.75
      vertex 61.3853 29.9561 35.75
    endloop
  endfacet
  facet normal 0.406736 0.913546 -0
    outer loop
      vertex 50.699 27.6847 13.75
      vertex 48.6125 28.6137 35.75
      vertex 50.699 27.6847 35.75
    endloop
  endfacet
  facet normal 0.406736 0.913546 0
    outer loop
      vertex 48.6125 28.6137 35.75
      vertex 50.699 27.6847 13.75
      vertex 48.6125 28.6137 13.75
    endloop
  endfacet
  facet normal -0.866026 -0.5 0
    outer loop
      vertex 64.0555 42.5186 13.75
      vertex 62.9135 44.4966 35.75
      vertex 62.9135 44.4966 13.75
    endloop
  endfacet
  facet normal -0.866026 -0.5 0
    outer loop
      vertex 62.9135 44.4966 35.75
      vertex 64.0555 42.5186 13.75
      vertex 64.0555 42.5186 35.75
    endloop
  endfacet
  facet normal -0.951056 -0.309018 0
    outer loop
      vertex 64.7613 40.3464 13.75
      vertex 64.0555 42.5186 35.75
      vertex 64.0555 42.5186 13.75
    endloop
  endfacet
  facet normal -0.951056 -0.309018 0
    outer loop
      vertex 64.0555 42.5186 35.75
      vertex 64.7613 40.3464 13.75
      vertex 64.7613 40.3464 35.75
    endloop
  endfacet
  facet normal -0.743147 -0.669128 0
    outer loop
      vertex 62.9135 44.4966 13.75
      vertex 62.4602 45 35.75
      vertex 62.4602 45 13.75
    endloop
  endfacet
  facet normal -0.743147 -0.669128 0
    outer loop
      vertex 62.4602 45 35.75
      vertex 62.9135 44.4966 13.75
      vertex 62.9135 44.4966 35.75
    endloop
  endfacet
  facet normal 0 0 1
    outer loop
      vertex 64.7613 40.3464 13.75
      vertex 64.7613 35.8036 13.75
      vertex 65 38.075 13.75
    endloop
  endfacet
  facet normal 0 0 1
    outer loop
      vertex 62.4602 45 13.75
      vertex 64.7613 40.3464 13.75
      vertex 64.0555 42.5186 13.75
    endloop
  endfacet
  facet normal 0 0 1
    outer loop
      vertex 64.7613 40.3464 13.75
      vertex 62.4602 45 13.75
      vertex 64.7613 35.8036 13.75
    endloop
  endfacet
  facet normal 0 0 1
    outer loop
      vertex 62.4602 45 13.75
      vertex 64.0555 42.5186 13.75
      vertex 62.9135 44.4966 13.75
    endloop
  endfacet
  facet normal 0 0 1
    outer loop
      vertex 64.7613 35.8036 13.75
      vertex 62.4602 45 13.75
      vertex 64.0555 33.6314 13.75
    endloop
  endfacet
  facet normal 0 0 1
    outer loop
      vertex 64.0555 33.6314 13.75
      vertex 62.4602 45 13.75
      vertex 62.9135 31.6534 13.75
    endloop
  endfacet
  facet normal 0 0 1
    outer loop
      vertex 62.4602 45 13.75
      vertex 61.3853 29.9561 13.75
      vertex 62.9135 31.6534 13.75
    endloop
  endfacet
  facet normal 0 0 1
    outer loop
      vertex 62.4602 45 13.75
      vertex 59.5375 28.6137 13.75
      vertex 61.3853 29.9561 13.75
    endloop
  endfacet
  facet normal 0 0 1
    outer loop
      vertex 62.4602 45 13.75
      vertex 57.451 27.6847 13.75
      vertex 59.5375 28.6137 13.75
    endloop
  endfacet
  facet normal 0 0 1
    outer loop
      vertex 62.4602 45 13.75
      vertex 55.217 27.2098 13.75
      vertex 57.451 27.6847 13.75
    endloop
  endfacet
  facet normal 0 0 1
    outer loop
      vertex 62.4602 45 13.75
      vertex 52.933 27.2098 13.75
      vertex 55.217 27.2098 13.75
    endloop
  endfacet
  facet normal 0 0 1
    outer loop
      vertex 62.4602 45 13.75
      vertex 50.699 27.6847 13.75
      vertex 52.933 27.2098 13.75
    endloop
  endfacet
  facet normal 0 0 1
    outer loop
      vertex 62.4602 45 13.75
      vertex 48.6125 28.6137 13.75
      vertex 50.699 27.6847 13.75
    endloop
  endfacet
  facet normal 0 0 1
    outer loop
      vertex 62.4602 45 13.75
      vertex 46.7647 29.9561 13.75
      vertex 48.6125 28.6137 13.75
    endloop
  endfacet
  facet normal -0 0 1
    outer loop
      vertex 45.6898 45 13.75
      vertex 46.7647 29.9561 13.75
      vertex 62.4602 45 13.75
    endloop
  endfacet
  facet normal 0 0 1
    outer loop
      vertex 44.0945 42.5186 13.75
      vertex 45.6898 45 13.75
      vertex 45.2365 44.4966 13.75
    endloop
  endfacet
  facet normal 0 0 1
    outer loop
      vertex 45.6898 45 13.75
      vertex 45.2365 31.6534 13.75
      vertex 46.7647 29.9561 13.75
    endloop
  endfacet
  facet normal 0 0 1
    outer loop
      vertex 43.3887 40.3464 13.75
      vertex 45.6898 45 13.75
      vertex 44.0945 42.5186 13.75
    endloop
  endfacet
  facet normal 0 0 1
    outer loop
      vertex 45.6898 45 13.75
      vertex 44.0945 33.6314 13.75
      vertex 45.2365 31.6534 13.75
    endloop
  endfacet
  facet normal 0 0 1
    outer loop
      vertex 45.6898 45 13.75
      vertex 43.3887 40.3464 13.75
      vertex 44.0945 33.6314 13.75
    endloop
  endfacet
  facet normal 0 0 1
    outer loop
      vertex 43.3887 40.3464 13.75
      vertex 43.3887 35.8036 13.75
      vertex 44.0945 33.6314 13.75
    endloop
  endfacet
  facet normal 0 -0 1
    outer loop
      vertex 43.3887 35.8036 13.75
      vertex 43.3887 40.3464 13.75
      vertex 43.15 38.075 13.75
    endloop
  endfacet
  facet normal 0.994522 -0.104528 0
    outer loop
      vertex 43.15 38.075 35.75
      vertex 43.3887 40.3464 13.75
      vertex 43.3887 40.3464 35.75
    endloop
  endfacet
  facet normal 0.994522 -0.104528 0
    outer loop
      vertex 43.3887 40.3464 13.75
      vertex 43.15 38.075 35.75
      vertex 43.15 38.075 13.75
    endloop
  endfacet
  facet normal 0.743147 -0.669128 0
    outer loop
      vertex 45.2365 44.4966 35.75
      vertex 45.6898 45 13.75
      vertex 45.6898 45 35.75
    endloop
  endfacet
  facet normal 0.743147 -0.669128 0
    outer loop
      vertex 45.6898 45 13.75
      vertex 45.2365 44.4966 35.75
      vertex 45.2365 44.4966 13.75
    endloop
  endfacet
  facet normal -0.994522 0.104529 0
    outer loop
      vertex 64.7613 35.8036 13.75
      vertex 65 38.075 35.75
      vertex 65 38.075 13.75
    endloop
  endfacet
  facet normal -0.994522 0.104529 0
    outer loop
      vertex 65 38.075 35.75
      vertex 64.7613 35.8036 13.75
      vertex 64.7613 35.8036 35.75
    endloop
  endfacet
  facet normal -0.207912 0.978147 0
    outer loop
      vertex 57.451 27.6847 13.75
      vertex 55.217 27.2098 35.75
      vertex 57.451 27.6847 35.75
    endloop
  endfacet
  facet normal -0.207912 0.978147 0
    outer loop
      vertex 55.217 27.2098 35.75
      vertex 57.451 27.6847 13.75
      vertex 55.217 27.2098 13.75
    endloop
  endfacet
  facet normal -0.587785 0.809017 0
    outer loop
      vertex 61.3853 29.9561 13.75
      vertex 59.5375 28.6137 35.75
      vertex 61.3853 29.9561 35.75
    endloop
  endfacet
  facet normal -0.587785 0.809017 0
    outer loop
      vertex 59.5375 28.6137 35.75
      vertex 61.3853 29.9561 13.75
      vertex 59.5375 28.6137 13.75
    endloop
  endfacet
  facet normal 0.207913 0.978147 -0
    outer loop
      vertex 52.933 27.2098 13.75
      vertex 50.699 27.6847 35.75
      vertex 52.933 27.2098 35.75
    endloop
  endfacet
  facet normal 0.207913 0.978147 0
    outer loop
      vertex 50.699 27.6847 35.75
      vertex 52.933 27.2098 13.75
      vertex 50.699 27.6847 13.75
    endloop
  endfacet
  facet normal 0.743145 0.669131 0
    outer loop
      vertex 46.7647 29.9561 35.75
      vertex 45.2365 31.6534 13.75
      vertex 45.2365 31.6534 35.75
    endloop
  endfacet
  facet normal 0.743145 0.669131 0
    outer loop
      vertex 45.2365 31.6534 13.75
      vertex 46.7647 29.9561 35.75
      vertex 46.7647 29.9561 13.75
    endloop
  endfacet
  facet normal 0.951056 0.309017 0
    outer loop
      vertex 44.0945 33.6314 35.75
      vertex 43.3887 35.8036 13.75
      vertex 43.3887 35.8036 35.75
    endloop
  endfacet
  facet normal 0.951056 0.309017 0
    outer loop
      vertex 43.3887 35.8036 13.75
      vertex 44.0945 33.6314 35.75
      vertex 44.0945 33.6314 13.75
    endloop
  endfacet
  facet normal 0.994522 0.104528 0
    outer loop
      vertex 43.3887 35.8036 35.75
      vertex 43.15 38.075 13.75
      vertex 43.15 38.075 35.75
    endloop
  endfacet
  facet normal 0.994522 0.104528 0
    outer loop
      vertex 43.15 38.075 13.75
      vertex 43.3887 35.8036 35.75
      vertex 43.3887 35.8036 13.75
    endloop
  endfacet
  facet normal -0.406737 0.913545 0
    outer loop
      vertex 59.5375 28.6137 13.75
      vertex 57.451 27.6847 35.75
      vertex 59.5375 28.6137 35.75
    endloop
  endfacet
  facet normal -0.406737 0.913545 0
    outer loop
      vertex 57.451 27.6847 35.75
      vertex 59.5375 28.6137 13.75
      vertex 57.451 27.6847 13.75
    endloop
  endfacet
  facet normal -0.951056 0.309017 0
    outer loop
      vertex 64.0555 33.6314 13.75
      vertex 64.7613 35.8036 35.75
      vertex 64.7613 35.8036 13.75
    endloop
  endfacet
  facet normal -0.951056 0.309017 0
    outer loop
      vertex 64.7613 35.8036 35.75
      vertex 64.0555 33.6314 13.75
      vertex 64.0555 33.6314 35.75
    endloop
  endfacet
  facet normal -0.866026 0.5 0
    outer loop
      vertex 62.9135 31.6534 13.75
      vertex 64.0555 33.6314 35.75
      vertex 64.0555 33.6314 13.75
    endloop
  endfacet
  facet normal -0.866026 0.5 0
    outer loop
      vertex 64.0555 33.6314 35.75
      vertex 62.9135 31.6534 13.75
      vertex 62.9135 31.6534 35.75
    endloop
  endfacet
  facet normal 0.866026 0.5 0
    outer loop
      vertex 45.2365 31.6534 35.75
      vertex 44.0945 33.6314 13.75
      vertex 44.0945 33.6314 35.75
    endloop
  endfacet
  facet normal 0.866026 0.5 0
    outer loop
      vertex 44.0945 33.6314 13.75
      vertex 45.2365 31.6534 35.75
      vertex 45.2365 31.6534 13.75
    endloop
  endfacet
  facet normal -0.866025 -0.5 0
    outer loop
      vertex 23.6224 27.9462 3
      vertex 22.2227 30.3704 35.75
      vertex 22.2227 30.3704 3
    endloop
  endfacet
  facet normal -0.866025 -0.5 0
    outer loop
      vertex 22.2227 30.3704 35.75
      vertex 23.6224 27.9462 3
      vertex 23.6224 27.9462 35.75
    endloop
  endfacet
  facet normal 0 -1 0
    outer loop
      vertex 9.99036 35.8166 3
      vertex 12.7896 35.8166 35.75
      vertex 9.99036 35.8166 35.75
    endloop
  endfacet
  facet normal 0 -1 -0
    outer loop
      vertex 12.7896 35.8166 35.75
      vertex 9.99036 35.8166 3
      vertex 12.7896 35.8166 3
    endloop
  endfacet
  facet normal -0.743145 -0.669131 0
    outer loop
      vertex 22.2227 30.3704 3
      vertex 20.3497 32.4507 35.75
      vertex 20.3497 32.4507 3
    endloop
  endfacet
  facet normal -0.743145 -0.669131 0
    outer loop
      vertex 20.3497 32.4507 35.75
      vertex 22.2227 30.3704 3
      vertex 22.2227 30.3704 35.75
    endloop
  endfacet
  facet normal -0.207911 -0.978148 0
    outer loop
      vertex 12.7896 35.8166 3
      vertex 15.5277 35.2346 35.75
      vertex 12.7896 35.8166 35.75
    endloop
  endfacet
  facet normal -0.207911 -0.978148 -0
    outer loop
      vertex 15.5277 35.2346 35.75
      vertex 12.7896 35.8166 3
      vertex 15.5277 35.2346 3
    endloop
  endfacet
  facet normal 0.406736 -0.913546 0
    outer loop
      vertex 4.695 34.0961 3
      vertex 7.25226 35.2346 35.75
      vertex 4.695 34.0961 35.75
    endloop
  endfacet
  facet normal 0.406736 -0.913546 0
    outer loop
      vertex 7.25226 35.2346 35.75
      vertex 4.695 34.0961 3
      vertex 7.25226 35.2346 3
    endloop
  endfacet
  facet normal -0.994522 0.104528 0
    outer loop
      vertex 24.4874 19.7161 3
      vertex 24.78 22.5 35.75
      vertex 24.78 22.5 3
    endloop
  endfacet
  facet normal -0.994522 0.104528 0
    outer loop
      vertex 24.78 22.5 35.75
      vertex 24.4874 19.7161 3
      vertex 24.4874 19.7161 35.75
    endloop
  endfacet
  facet normal -0.207912 0.978148 0
    outer loop
      vertex 15.5277 9.76535 3
      vertex 12.7896 9.18335 35.75
      vertex 15.5277 9.76535 35.75
    endloop
  endfacet
  facet normal -0.207912 0.978148 0
    outer loop
      vertex 12.7896 9.18335 35.75
      vertex 15.5277 9.76535 3
      vertex 12.7896 9.18335 3
    endloop
  endfacet
  facet normal -0.587786 -0.809017 0
    outer loop
      vertex 18.085 34.0961 3
      vertex 20.3497 32.4507 35.75
      vertex 18.085 34.0961 35.75
    endloop
  endfacet
  facet normal -0.587786 -0.809017 -0
    outer loop
      vertex 20.3497 32.4507 35.75
      vertex 18.085 34.0961 3
      vertex 20.3497 32.4507 3
    endloop
  endfacet
  facet normal -0.406736 -0.913546 0
    outer loop
      vertex 15.5277 35.2346 3
      vertex 18.085 34.0961 35.75
      vertex 15.5277 35.2346 35.75
    endloop
  endfacet
  facet normal -0.406736 -0.913546 -0
    outer loop
      vertex 18.085 34.0961 35.75
      vertex 15.5277 35.2346 3
      vertex 18.085 34.0961 3
    endloop
  endfacet
  facet normal 0.866026 -0.5 0
    outer loop
      vertex 0 29.4052 35.75
      vertex 0.557262 30.3704 3
      vertex 0.557262 30.3704 35.75
    endloop
  endfacet
  facet normal 0.866026 -0.5 0
    outer loop
      vertex 0.557262 30.3704 3
      vertex 0 29.4052 35.75
      vertex 0 29.4052 3
    endloop
  endfacet
  facet normal 0.587786 -0.809016 0
    outer loop
      vertex 2.43034 32.4507 3
      vertex 4.695 34.0961 35.75
      vertex 2.43034 32.4507 35.75
    endloop
  endfacet
  facet normal 0.587786 -0.809016 0
    outer loop
      vertex 4.695 34.0961 35.75
      vertex 2.43034 32.4507 3
      vertex 4.695 34.0961 3
    endloop
  endfacet
  facet normal 0.207911 -0.978148 0
    outer loop
      vertex 7.25226 35.2346 3
      vertex 9.99036 35.8166 35.75
      vertex 7.25226 35.2346 35.75
    endloop
  endfacet
  facet normal 0.207911 -0.978148 0
    outer loop
      vertex 9.99036 35.8166 35.75
      vertex 7.25226 35.2346 3
      vertex 9.99036 35.8166 3
    endloop
  endfacet
  facet normal 0.743144 -0.669131 0
    outer loop
      vertex 0.557262 30.3704 35.75
      vertex 2.43034 32.4507 3
      vertex 2.43034 32.4507 35.75
    endloop
  endfacet
  facet normal 0.743144 -0.669131 0
    outer loop
      vertex 2.43034 32.4507 3
      vertex 0.557262 30.3704 35.75
      vertex 0.557262 30.3704 3
    endloop
  endfacet
  facet normal -0.994522 -0.104528 0
    outer loop
      vertex 24.78 22.5 3
      vertex 24.4874 25.2839 35.75
      vertex 24.4874 25.2839 3
    endloop
  endfacet
  facet normal -0.994522 -0.104528 0
    outer loop
      vertex 24.4874 25.2839 35.75
      vertex 24.78 22.5 3
      vertex 24.78 22.5 35.75
    endloop
  endfacet
  facet normal -0.951057 0.309017 0
    outer loop
      vertex 23.6224 17.0538 3
      vertex 24.4874 19.7161 35.75
      vertex 24.4874 19.7161 3
    endloop
  endfacet
  facet normal -0.951057 0.309017 0
    outer loop
      vertex 24.4874 19.7161 35.75
      vertex 23.6224 17.0538 3
      vertex 23.6224 17.0538 35.75
    endloop
  endfacet
  facet normal -0.587785 0.809017 0
    outer loop
      vertex 20.3497 12.5493 3
      vertex 18.085 10.9039 35.75
      vertex 20.3497 12.5493 35.75
    endloop
  endfacet
  facet normal -0.587785 0.809017 0
    outer loop
      vertex 18.085 10.9039 35.75
      vertex 20.3497 12.5493 3
      vertex 18.085 10.9039 3
    endloop
  endfacet
  facet normal -0.951057 -0.309017 0
    outer loop
      vertex 24.4874 25.2839 3
      vertex 23.6224 27.9462 35.75
      vertex 23.6224 27.9462 3
    endloop
  endfacet
  facet normal -0.951057 -0.309017 0
    outer loop
      vertex 23.6224 27.9462 35.75
      vertex 24.4874 25.2839 3
      vertex 24.4874 25.2839 35.75
    endloop
  endfacet
  facet normal -0.866025 0.5 0
    outer loop
      vertex 22.2227 14.6296 3
      vertex 23.6224 17.0538 35.75
      vertex 23.6224 17.0538 3
    endloop
  endfacet
  facet normal -0.866025 0.5 0
    outer loop
      vertex 23.6224 17.0538 35.75
      vertex 22.2227 14.6296 3
      vertex 22.2227 14.6296 35.75
    endloop
  endfacet
  facet normal 0 1 -0
    outer loop
      vertex 12.7896 9.18335 3
      vertex 9.99036 9.18335 35.75
      vertex 12.7896 9.18335 35.75
    endloop
  endfacet
  facet normal 0 1 0
    outer loop
      vertex 9.99036 9.18335 35.75
      vertex 12.7896 9.18335 3
      vertex 9.99036 9.18335 3
    endloop
  endfacet
  facet normal -0.406736 0.913546 0
    outer loop
      vertex 18.085 10.9039 3
      vertex 15.5277 9.76535 35.75
      vertex 18.085 10.9039 35.75
    endloop
  endfacet
  facet normal -0.406736 0.913546 0
    outer loop
      vertex 15.5277 9.76535 35.75
      vertex 18.085 10.9039 3
      vertex 15.5277 9.76535 3
    endloop
  endfacet
  facet normal 0.866025 0.5 0
    outer loop
      vertex 0.557262 14.6296 35.75
      vertex 0 15.5948 3
      vertex 0 15.5948 35.75
    endloop
  endfacet
  facet normal 0.866025 0.5 0
    outer loop
      vertex 0 15.5948 3
      vertex 0.557262 14.6296 35.75
      vertex 0.557262 14.6296 3
    endloop
  endfacet
  facet normal 0 0 1
    outer loop
      vertex 24.4874 25.2839 3
      vertex 24.4874 19.7161 3
      vertex 24.78 22.5 3
    endloop
  endfacet
  facet normal 0 0 1
    outer loop
      vertex 23.6224 27.9462 3
      vertex 24.4874 19.7161 3
      vertex 24.4874 25.2839 3
    endloop
  endfacet
  facet normal 0 0 1
    outer loop
      vertex 23.6224 27.9462 3
      vertex 23.6224 17.0538 3
      vertex 24.4874 19.7161 3
    endloop
  endfacet
  facet normal 0 0 1
    outer loop
      vertex 22.2227 30.3704 3
      vertex 23.6224 17.0538 3
      vertex 23.6224 27.9462 3
    endloop
  endfacet
  facet normal 0 0 1
    outer loop
      vertex 22.2227 30.3704 3
      vertex 22.2227 14.6296 3
      vertex 23.6224 17.0538 3
    endloop
  endfacet
  facet normal 0 0 1
    outer loop
      vertex 20.3497 32.4507 3
      vertex 22.2227 14.6296 3
      vertex 22.2227 30.3704 3
    endloop
  endfacet
  facet normal 0 0 1
    outer loop
      vertex 20.3497 32.4507 3
      vertex 20.3497 12.5493 3
      vertex 22.2227 14.6296 3
    endloop
  endfacet
  facet normal 0 0 1
    outer loop
      vertex 18.085 34.0961 3
      vertex 20.3497 12.5493 3
      vertex 20.3497 32.4507 3
    endloop
  endfacet
  facet normal 0 0 1
    outer loop
      vertex 18.085 34.0961 3
      vertex 18.085 10.9039 3
      vertex 20.3497 12.5493 3
    endloop
  endfacet
  facet normal 0 0 1
    outer loop
      vertex 15.5277 35.2346 3
      vertex 18.085 10.9039 3
      vertex 18.085 34.0961 3
    endloop
  endfacet
  facet normal 0 0 1
    outer loop
      vertex 15.5277 35.2346 3
      vertex 15.5277 9.76535 3
      vertex 18.085 10.9039 3
    endloop
  endfacet
  facet normal 0 0 1
    outer loop
      vertex 12.7896 35.8166 3
      vertex 15.5277 9.76535 3
      vertex 15.5277 35.2346 3
    endloop
  endfacet
  facet normal 0 0 1
    outer loop
      vertex 12.7896 35.8166 3
      vertex 12.7896 9.18335 3
      vertex 15.5277 9.76535 3
    endloop
  endfacet
  facet normal -0 0 1
    outer loop
      vertex 9.99036 35.8166 3
      vertex 12.7896 9.18335 3
      vertex 12.7896 35.8166 3
    endloop
  endfacet
  facet normal 0 0 1
    outer loop
      vertex 9.99036 35.8166 3
      vertex 9.99036 9.18335 3
      vertex 12.7896 9.18335 3
    endloop
  endfacet
  facet normal -0 0 1
    outer loop
      vertex 7.25226 35.2346 3
      vertex 9.99036 9.18335 3
      vertex 9.99036 35.8166 3
    endloop
  endfacet
  facet normal 0 0 1
    outer loop
      vertex 7.25226 35.2346 3
      vertex 7.25226 9.76535 3
      vertex 9.99036 9.18335 3
    endloop
  endfacet
  facet normal 0 0 1
    outer loop
      vertex 0 29.4052 3
      vertex 7.25226 35.2346 3
      vertex 4.695 34.0961 3
    endloop
  endfacet
  facet normal 0 0 1
    outer loop
      vertex 7.25226 35.2346 3
      vertex 0 29.4052 3
      vertex 7.25226 9.76535 3
    endloop
  endfacet
  facet normal 0 0 1
    outer loop
      vertex 0 29.4052 3
      vertex 4.695 34.0961 3
      vertex 2.43034 32.4507 3
    endloop
  endfacet
  facet normal -0 0 1
    outer loop
      vertex 0 15.5948 3
      vertex 7.25226 9.76535 3
      vertex 0 29.4052 3
    endloop
  endfacet
  facet normal 0 0 1
    outer loop
      vertex 0 29.4052 3
      vertex 2.43034 32.4507 3
      vertex 0.557262 30.3704 3
    endloop
  endfacet
  facet normal 0 0 1
    outer loop
      vertex 7.25226 9.76535 3
      vertex 0 15.5948 3
      vertex 4.695 10.9039 3
    endloop
  endfacet
  facet normal 0 0 1
    outer loop
      vertex 4.695 10.9039 3
      vertex 0 15.5948 3
      vertex 2.43034 12.5493 3
    endloop
  endfacet
  facet normal 0 0 1
    outer loop
      vertex 2.43034 12.5493 3
      vertex 0 15.5948 3
      vertex 0.557262 14.6296 3
    endloop
  endfacet
  facet normal 0.743145 0.669131 0
    outer loop
      vertex 2.43034 12.5493 35.75
      vertex 0.557262 14.6296 3
      vertex 0.557262 14.6296 35.75
    endloop
  endfacet
  facet normal 0.743145 0.669131 0
    outer loop
      vertex 0.557262 14.6296 3
      vertex 2.43034 12.5493 35.75
      vertex 2.43034 12.5493 3
    endloop
  endfacet
  facet normal 0.587785 0.809017 -0
    outer loop
      vertex 4.695 10.9039 3
      vertex 2.43034 12.5493 35.75
      vertex 4.695 10.9039 35.75
    endloop
  endfacet
  facet normal 0.587785 0.809017 0
    outer loop
      vertex 2.43034 12.5493 35.75
      vertex 4.695 10.9039 3
      vertex 2.43034 12.5493 3
    endloop
  endfacet
  facet normal -0.743145 0.66913 0
    outer loop
      vertex 20.3497 12.5493 3
      vertex 22.2227 14.6296 35.75
      vertex 22.2227 14.6296 3
    endloop
  endfacet
  facet normal -0.743145 0.66913 0
    outer loop
      vertex 22.2227 14.6296 35.75
      vertex 20.3497 12.5493 3
      vertex 20.3497 12.5493 35.75
    endloop
  endfacet
  facet normal 0.406736 0.913546 -0
    outer loop
      vertex 7.25226 9.76535 3
      vertex 4.695 10.9039 35.75
      vertex 7.25226 9.76535 35.75
    endloop
  endfacet
  facet normal 0.406736 0.913546 0
    outer loop
      vertex 4.695 10.9039 35.75
      vertex 7.25226 9.76535 3
      vertex 4.695 10.9039 3
    endloop
  endfacet
  facet normal 0.207912 0.978148 -0
    outer loop
      vertex 9.99036 9.18335 3
      vertex 7.25226 9.76535 35.75
      vertex 9.99036 9.18335 35.75
    endloop
  endfacet
  facet normal 0.207912 0.978148 0
    outer loop
      vertex 7.25226 9.76535 35.75
      vertex 9.99036 9.18335 3
      vertex 7.25226 9.76535 3
    endloop
  endfacet
  facet normal -0.992115 -0.125333 0
    outer loop
      vertex 41.7 22.5 31.75
      vertex 41.4581 24.4149 35.75
      vertex 41.4581 24.4149 31.75
    endloop
  endfacet
  facet normal -0.992115 -0.125333 0
    outer loop
      vertex 41.4581 24.4149 35.75
      vertex 41.7 22.5 31.75
      vertex 41.7 22.5 35.75
    endloop
  endfacet
  facet normal 1 -0 0
    outer loop
      vertex 26.3607 21.5349 35.75
      vertex 26.3607 23.4651 31.75
      vertex 26.3607 23.4651 35.75
    endloop
  endfacet
  facet normal 1 0 0
    outer loop
      vertex 26.3607 23.4651 31.75
      vertex 26.3607 21.5349 35.75
      vertex 26.3607 21.5349 31.75
    endloop
  endfacet
  facet normal 0.062791 -0.998027 0
    outer loop
      vertex 32.5572 30.0636 31.75
      vertex 34.4835 30.1848 35.75
      vertex 32.5572 30.0636 35.75
    endloop
  endfacet
  facet normal 0.062791 -0.998027 0
    outer loop
      vertex 34.4835 30.1848 35.75
      vertex 32.5572 30.0636 31.75
      vertex 34.4835 30.1848 31.75
    endloop
  endfacet
  facet normal -0.187381 0.982287 0
    outer loop
      vertex 36.3794 15.1769 31.75
      vertex 34.4835 14.8152 35.75
      vertex 36.3794 15.1769 35.75
    endloop
  endfacet
  facet normal -0.187381 0.982287 0
    outer loop
      vertex 34.4835 14.8152 35.75
      vertex 36.3794 15.1769 31.75
      vertex 34.4835 14.8152 31.75
    endloop
  endfacet
  facet normal -0.637424 -0.770514 0
    outer loop
      vertex 38.1259 29.0013 31.75
      vertex 39.6131 27.771 35.75
      vertex 38.1259 29.0013 35.75
    endloop
  endfacet
  facet normal -0.637424 -0.770514 -0
    outer loop
      vertex 39.6131 27.771 35.75
      vertex 38.1259 29.0013 31.75
      vertex 39.6131 27.771 31.75
    endloop
  endfacet
  facet normal -0.42578 -0.904827 0
    outer loop
      vertex 36.3794 29.8231 31.75
      vertex 38.1259 29.0013 35.75
      vertex 36.3794 29.8231 35.75
    endloop
  endfacet
  facet normal -0.42578 -0.904827 -0
    outer loop
      vertex 38.1259 29.0013 35.75
      vertex 36.3794 29.8231 31.75
      vertex 38.1259 29.0013 31.75
    endloop
  endfacet
  facet normal 0.728969 -0.684547 0
    outer loop
      vertex 27.7706 27.0259 35.75
      vertex 29.0918 28.433 31.75
      vertex 29.0918 28.433 35.75
    endloop
  endfacet
  facet normal 0.728969 -0.684547 0
    outer loop
      vertex 29.0918 28.433 31.75
      vertex 27.7706 27.0259 35.75
      vertex 27.7706 27.0259 31.75
    endloop
  endfacet
  facet normal 0.876307 -0.481754 0
    outer loop
      vertex 26.8407 25.3346 35.75
      vertex 27.7706 27.0259 31.75
      vertex 27.7706 27.0259 35.75
    endloop
  endfacet
  facet normal 0.876307 -0.481754 0
    outer loop
      vertex 27.7706 27.0259 31.75
      vertex 26.8407 25.3346 35.75
      vertex 26.8407 25.3346 31.75
    endloop
  endfacet
  facet normal 0.535826 -0.844329 0
    outer loop
      vertex 29.0918 28.433 31.75
      vertex 30.7215 29.4672 35.75
      vertex 29.0918 28.433 35.75
    endloop
  endfacet
  facet normal 0.535826 -0.844329 0
    outer loop
      vertex 30.7215 29.4672 35.75
      vertex 29.0918 28.433 31.75
      vertex 30.7215 29.4672 31.75
    endloop
  endfacet
  facet normal 0 0 1
    outer loop
      vertex 41.4581 24.4149 31.75
      vertex 41.4581 20.5851 31.75
      vertex 41.7 22.5 31.75
    endloop
  endfacet
  facet normal 0 0 1
    outer loop
      vertex 40.7476 26.2095 31.75
      vertex 41.4581 20.5851 31.75
      vertex 41.4581 24.4149 31.75
    endloop
  endfacet
  facet normal 0 0 1
    outer loop
      vertex 40.7476 26.2095 31.75
      vertex 40.7476 18.7905 31.75
      vertex 41.4581 20.5851 31.75
    endloop
  endfacet
  facet normal 0 0 1
    outer loop
      vertex 39.6131 27.771 31.75
      vertex 40.7476 18.7905 31.75
      vertex 40.7476 26.2095 31.75
    endloop
  endfacet
  facet normal 0 0 1
    outer loop
      vertex 39.6131 27.771 31.75
      vertex 39.6131 17.229 31.75
      vertex 40.7476 18.7905 31.75
    endloop
  endfacet
  facet normal 0 0 1
    outer loop
      vertex 38.1259 29.0013 31.75
      vertex 39.6131 17.229 31.75
      vertex 39.6131 27.771 31.75
    endloop
  endfacet
  facet normal 0 0 1
    outer loop
      vertex 38.1259 29.0013 31.75
      vertex 38.1259 15.9987 31.75
      vertex 39.6131 17.229 31.75
    endloop
  endfacet
  facet normal 0 0 1
    outer loop
      vertex 36.3794 29.8231 31.75
      vertex 38.1259 15.9987 31.75
      vertex 38.1259 29.0013 31.75
    endloop
  endfacet
  facet normal 0 0 1
    outer loop
      vertex 36.3794 29.8231 31.75
      vertex 36.3794 15.1769 31.75
      vertex 38.1259 15.9987 31.75
    endloop
  endfacet
  facet normal 0 0 1
    outer loop
      vertex 34.4835 30.1848 31.75
      vertex 36.3794 15.1769 31.75
      vertex 36.3794 29.8231 31.75
    endloop
  endfacet
  facet normal 0 0 1
    outer loop
      vertex 34.4835 30.1848 31.75
      vertex 34.4835 14.8152 31.75
      vertex 36.3794 15.1769 31.75
    endloop
  endfacet
  facet normal -0 0 1
    outer loop
      vertex 32.5572 30.0636 31.75
      vertex 34.4835 14.8152 31.75
      vertex 34.4835 30.1848 31.75
    endloop
  endfacet
  facet normal 0 0 1
    outer loop
      vertex 32.5572 30.0636 31.75
      vertex 32.5572 14.9364 31.75
      vertex 34.4835 14.8152 31.75
    endloop
  endfacet
  facet normal -0 0 1
    outer loop
      vertex 30.7215 29.4672 31.75
      vertex 32.5572 14.9364 31.75
      vertex 32.5572 30.0636 31.75
    endloop
  endfacet
  facet normal 0 0 1
    outer loop
      vertex 30.7215 29.4672 31.75
      vertex 30.7215 15.5328 31.75
      vertex 32.5572 14.9364 31.75
    endloop
  endfacet
  facet normal -0 0 1
    outer loop
      vertex 29.0918 28.433 31.75
      vertex 30.7215 15.5328 31.75
      vertex 30.7215 29.4672 31.75
    endloop
  endfacet
  facet normal 0 0 1
    outer loop
      vertex 29.0918 28.433 31.75
      vertex 29.0918 16.567 31.75
      vertex 30.7215 15.5328 31.75
    endloop
  endfacet
  facet normal -0 0 1
    outer loop
      vertex 27.7706 27.0259 31.75
      vertex 29.0918 16.567 31.75
      vertex 29.0918 28.433 31.75
    endloop
  endfacet
  facet normal 0 0 1
    outer loop
      vertex 27.7706 27.0259 31.75
      vertex 27.7706 17.9741 31.75
      vertex 29.0918 16.567 31.75
    endloop
  endfacet
  facet normal -0 0 1
    outer loop
      vertex 26.8407 25.3346 31.75
      vertex 27.7706 17.9741 31.75
      vertex 27.7706 27.0259 31.75
    endloop
  endfacet
  facet normal 0 0 1
    outer loop
      vertex 26.8407 25.3346 31.75
      vertex 26.8407 19.6654 31.75
      vertex 27.7706 17.9741 31.75
    endloop
  endfacet
  facet normal -0 0 1
    outer loop
      vertex 26.3607 23.4651 31.75
      vertex 26.8407 19.6654 31.75
      vertex 26.8407 25.3346 31.75
    endloop
  endfacet
  facet normal 0 0 1
    outer loop
      vertex 26.8407 19.6654 31.75
      vertex 26.3607 23.4651 31.75
      vertex 26.3607 21.5349 31.75
    endloop
  endfacet
  facet normal -0.929776 0.368127 0
    outer loop
      vertex 40.7476 18.7905 31.75
      vertex 41.4581 20.5851 35.75
      vertex 41.4581 20.5851 31.75
    endloop
  endfacet
  facet normal -0.929776 0.368127 0
    outer loop
      vertex 41.4581 20.5851 35.75
      vertex 40.7476 18.7905 31.75
      vertex 40.7476 18.7905 35.75
    endloop
  endfacet
  facet normal -0.809018 -0.587784 0
    outer loop
      vertex 40.7476 26.2095 31.75
      vertex 39.6131 27.771 35.75
      vertex 39.6131 27.771 31.75
    endloop
  endfacet
  facet normal -0.809018 -0.587784 0
    outer loop
      vertex 39.6131 27.771 35.75
      vertex 40.7476 26.2095 31.75
      vertex 40.7476 26.2095 35.75
    endloop
  endfacet
  facet normal -0.929776 -0.368126 0
    outer loop
      vertex 41.4581 24.4149 31.75
      vertex 40.7476 26.2095 35.75
      vertex 40.7476 26.2095 31.75
    endloop
  endfacet
  facet normal -0.929776 -0.368126 0
    outer loop
      vertex 40.7476 26.2095 35.75
      vertex 41.4581 24.4149 31.75
      vertex 41.4581 24.4149 35.75
    endloop
  endfacet
  facet normal -0.187381 -0.982287 0
    outer loop
      vertex 34.4835 30.1848 31.75
      vertex 36.3794 29.8231 35.75
      vertex 34.4835 30.1848 35.75
    endloop
  endfacet
  facet normal -0.187381 -0.982287 -0
    outer loop
      vertex 36.3794 29.8231 35.75
      vertex 34.4835 30.1848 31.75
      vertex 36.3794 29.8231 31.75
    endloop
  endfacet
  facet normal 0.968583 -0.24869 0
    outer loop
      vertex 26.3607 23.4651 35.75
      vertex 26.8407 25.3346 31.75
      vertex 26.8407 25.3346 35.75
    endloop
  endfacet
  facet normal 0.968583 -0.24869 0
    outer loop
      vertex 26.8407 25.3346 31.75
      vertex 26.3607 23.4651 35.75
      vertex 26.3607 23.4651 31.75
    endloop
  endfacet
  facet normal 0.309017 -0.951056 0
    outer loop
      vertex 30.7215 29.4672 31.75
      vertex 32.5572 30.0636 35.75
      vertex 30.7215 29.4672 35.75
    endloop
  endfacet
  facet normal 0.309017 -0.951056 0
    outer loop
      vertex 32.5572 30.0636 35.75
      vertex 30.7215 29.4672 31.75
      vertex 32.5572 30.0636 31.75
    endloop
  endfacet
  facet normal -0.992115 0.125333 0
    outer loop
      vertex 41.4581 20.5851 31.75
      vertex 41.7 22.5 35.75
      vertex 41.7 22.5 31.75
    endloop
  endfacet
  facet normal -0.992115 0.125333 0
    outer loop
      vertex 41.7 22.5 35.75
      vertex 41.4581 20.5851 31.75
      vertex 41.4581 20.5851 35.75
    endloop
  endfacet
  facet normal -0.809018 0.587784 0
    outer loop
      vertex 39.6131 17.229 31.75
      vertex 40.7476 18.7905 35.75
      vertex 40.7476 18.7905 31.75
    endloop
  endfacet
  facet normal -0.809018 0.587784 0
    outer loop
      vertex 40.7476 18.7905 35.75
      vertex 39.6131 17.229 31.75
      vertex 39.6131 17.229 35.75
    endloop
  endfacet
  facet normal 0.535826 0.844328 -0
    outer loop
      vertex 30.7215 15.5328 31.75
      vertex 29.0918 16.567 35.75
      vertex 30.7215 15.5328 35.75
    endloop
  endfacet
  facet normal 0.535826 0.844328 0
    outer loop
      vertex 29.0918 16.567 35.75
      vertex 30.7215 15.5328 31.75
      vertex 29.0918 16.567 31.75
    endloop
  endfacet
  facet normal 0.876307 0.481754 0
    outer loop
      vertex 27.7706 17.9741 35.75
      vertex 26.8407 19.6654 31.75
      vertex 26.8407 19.6654 35.75
    endloop
  endfacet
  facet normal 0.876307 0.481754 0
    outer loop
      vertex 26.8407 19.6654 31.75
      vertex 27.7706 17.9741 35.75
      vertex 27.7706 17.9741 31.75
    endloop
  endfacet
  facet normal 0.968583 0.24869 0
    outer loop
      vertex 26.8407 19.6654 35.75
      vertex 26.3607 21.5349 31.75
      vertex 26.3607 21.5349 35.75
    endloop
  endfacet
  facet normal 0.968583 0.24869 0
    outer loop
      vertex 26.3607 21.5349 31.75
      vertex 26.8407 19.6654 35.75
      vertex 26.8407 19.6654 31.75
    endloop
  endfacet
  facet normal 0.728969 0.684547 0
    outer loop
      vertex 29.0918 16.567 35.75
      vertex 27.7706 17.9741 31.75
      vertex 27.7706 17.9741 35.75
    endloop
  endfacet
  facet normal 0.728969 0.684547 0
    outer loop
      vertex 27.7706 17.9741 31.75
      vertex 29.0918 16.567 35.75
      vertex 29.0918 16.567 31.75
    endloop
  endfacet
  facet normal 0.0627905 0.998027 -0
    outer loop
      vertex 34.4835 14.8152 31.75
      vertex 32.5572 14.9364 35.75
      vertex 34.4835 14.8152 35.75
    endloop
  endfacet
  facet normal 0.0627905 0.998027 0
    outer loop
      vertex 32.5572 14.9364 35.75
      vertex 34.4835 14.8152 31.75
      vertex 32.5572 14.9364 31.75
    endloop
  endfacet
  facet normal -0.637424 0.770514 0
    outer loop
      vertex 39.6131 17.229 31.75
      vertex 38.1259 15.9987 35.75
      vertex 39.6131 17.229 35.75
    endloop
  endfacet
  facet normal -0.637424 0.770514 0
    outer loop
      vertex 38.1259 15.9987 35.75
      vertex 39.6131 17.229 31.75
      vertex 38.1259 15.9987 31.75
    endloop
  endfacet
  facet normal -0.42578 0.904827 0
    outer loop
      vertex 38.1259 15.9987 31.75
      vertex 36.3794 15.1769 35.75
      vertex 38.1259 15.9987 35.75
    endloop
  endfacet
  facet normal -0.42578 0.904827 0
    outer loop
      vertex 36.3794 15.1769 35.75
      vertex 38.1259 15.9987 31.75
      vertex 36.3794 15.1769 31.75
    endloop
  endfacet
  facet normal 0.309017 0.951056 -0
    outer loop
      vertex 32.5572 14.9364 31.75
      vertex 30.7215 15.5328 35.75
      vertex 32.5572 14.9364 35.75
    endloop
  endfacet
  facet normal 0.309017 0.951056 0
    outer loop
      vertex 30.7215 15.5328 35.75
      vertex 32.5572 14.9364 31.75
      vertex 30.7215 15.5328 31.75
    endloop
  endfacet
endsolid OpenSCAD_Model
