solid OpenSCAD_Model
  facet normal 0 -1 0
    outer loop
      vertex 4.51 97 3
      vertex 7.925 97 20.7
      vertex 4.51 97 20.7
    endloop
  endfacet
  facet normal 0 -1 -0
    outer loop
      vertex 7.925 97 20.7
      vertex 4.51 97 3
      vertex 7.925 97 3
    endloop
  endfacet
  facet normal 0 -1 0
    outer loop
      vertex 28.415 97 3
      vertex 31.83 97 20.7
      vertex 28.415 97 20.7
    endloop
  endfacet
  facet normal 0 -1 -0
    outer loop
      vertex 31.83 97 20.7
      vertex 28.415 97 3
      vertex 31.83 97 3
    endloop
  endfacet
  facet normal 0 0 1
    outer loop
      vertex 7.925 100 20.7
      vertex 4.51 97 20.7
      vertex 7.925 97 20.7
    endloop
  endfacet
  facet normal 0 0 1
    outer loop
      vertex 4.51 97 20.7
      vertex 0 100 20.7
      vertex 4.51 62.68 20.7
    endloop
  endfacet
  facet normal -0 0 1
    outer loop
      vertex 0 100 20.7
      vertex 4.51 97 20.7
      vertex 7.925 100 20.7
    endloop
  endfacet
  facet normal 0 0 1
    outer loop
      vertex 39.755 100 20.7
      vertex 36.34 97 20.7
      vertex 39.755 97 20.7
    endloop
  endfacet
  facet normal 0 0 1
    outer loop
      vertex 36.34 97 20.7
      vertex 31.83 97 20.7
      vertex 36.34 62.68 20.7
    endloop
  endfacet
  facet normal 0 0 1
    outer loop
      vertex 39.755 100 20.7
      vertex 31.83 97 20.7
      vertex 36.34 97 20.7
    endloop
  endfacet
  facet normal -0 0 1
    outer loop
      vertex 28.415 100 20.7
      vertex 31.83 97 20.7
      vertex 39.755 100 20.7
    endloop
  endfacet
  facet normal 0 0 1
    outer loop
      vertex 31.83 97 20.7
      vertex 28.415 100 20.7
      vertex 28.415 97 20.7
    endloop
  endfacet
  facet normal -0 0 1
    outer loop
      vertex 15.12 3 20.7
      vertex 18.535 0 20.7
      vertex 18.535 3 20.7
    endloop
  endfacet
  facet normal 0 0 1
    outer loop
      vertex 15.12 3 20.7
      vertex 0 0 20.7
      vertex 18.535 0 20.7
    endloop
  endfacet
  facet normal 0 0 1
    outer loop
      vertex 15.12 37.32 20.7
      vertex 0 0 20.7
      vertex 15.12 3 20.7
    endloop
  endfacet
  facet normal 0 0 1
    outer loop
      vertex 0 0 20.7
      vertex 4.51 62.68 20.7
      vertex 0 100 20.7
    endloop
  endfacet
  facet normal 0 0 1
    outer loop
      vertex 63.66 62.68 20.7
      vertex 40.5 59.5 20.7
      vertex 59.5 59.5 20.7
    endloop
  endfacet
  facet normal -0 0 1
    outer loop
      vertex 31.83 62.68 20.7
      vertex 40.5 59.5 20.7
      vertex 36.34 62.68 20.7
    endloop
  endfacet
  facet normal -0 0 1
    outer loop
      vertex 36.34 62.68 20.7
      vertex 40.5 59.5 20.7
      vertex 63.66 62.68 20.7
    endloop
  endfacet
  facet normal 0 0 1
    outer loop
      vertex 71.585 100 20.7
      vertex 68.17 97 20.7
      vertex 71.585 97 20.7
    endloop
  endfacet
  facet normal 0 0 1
    outer loop
      vertex 68.17 97 20.7
      vertex 63.66 97 20.7
      vertex 68.17 62.68 20.7
    endloop
  endfacet
  facet normal 0 0 1
    outer loop
      vertex 71.585 100 20.7
      vertex 63.66 97 20.7
      vertex 68.17 97 20.7
    endloop
  endfacet
  facet normal -0 0 1
    outer loop
      vertex 60.245 100 20.7
      vertex 63.66 97 20.7
      vertex 71.585 100 20.7
    endloop
  endfacet
  facet normal 0 0 1
    outer loop
      vertex 63.66 97 20.7
      vertex 60.245 100 20.7
      vertex 60.245 97 20.7
    endloop
  endfacet
  facet normal 0 0 1
    outer loop
      vertex 95.49 62.68 20.7
      vertex 100 100 20.7
      vertex 95.49 97 20.7
    endloop
  endfacet
  facet normal -0 0 1
    outer loop
      vertex 92.075 100 20.7
      vertex 95.49 97 20.7
      vertex 100 100 20.7
    endloop
  endfacet
  facet normal 0 0 1
    outer loop
      vertex 95.49 97 20.7
      vertex 92.075 100 20.7
      vertex 92.075 97 20.7
    endloop
  endfacet
  facet normal 0 0 1
    outer loop
      vertex 100 100 20.7
      vertex 95.49 62.68 20.7
      vertex 100 0 20.7
    endloop
  endfacet
  facet normal -0 0 1
    outer loop
      vertex 84.88 37.32 20.7
      vertex 100 0 20.7
      vertex 95.49 62.68 20.7
    endloop
  endfacet
  facet normal -0 0 1
    outer loop
      vertex 84.88 3 20.7
      vertex 100 0 20.7
      vertex 84.88 37.32 20.7
    endloop
  endfacet
  facet normal 0 0 1
    outer loop
      vertex 81.465 0 20.7
      vertex 84.88 3 20.7
      vertex 81.465 3 20.7
    endloop
  endfacet
  facet normal 0 0 1
    outer loop
      vertex 84.88 3 20.7
      vertex 81.465 0 20.7
      vertex 100 0 20.7
    endloop
  endfacet
  facet normal -0 0 1
    outer loop
      vertex 68.17 62.68 20.7
      vertex 84.88 37.32 20.7
      vertex 95.49 62.68 20.7
    endloop
  endfacet
  facet normal 0 0 1
    outer loop
      vertex 63.66 62.68 20.7
      vertex 68.17 62.68 20.7
      vertex 63.66 97 20.7
    endloop
  endfacet
  facet normal 0 0 1
    outer loop
      vertex 59.5 59.5 20.7
      vertex 68.17 62.68 20.7
      vertex 63.66 62.68 20.7
    endloop
  endfacet
  facet normal 0 0 1
    outer loop
      vertex 68.17 62.68 20.7
      vertex 59.5 59.5 20.7
      vertex 59.5 40.5 20.7
    endloop
  endfacet
  facet normal 0 0 1
    outer loop
      vertex 68.17 62.68 20.7
      vertex 59.5 40.5 20.7
      vertex 84.88 37.32 20.7
    endloop
  endfacet
  facet normal 0 0 1
    outer loop
      vertex 59.5 40.5 20.7
      vertex 57.56 37.32 20.7
      vertex 84.88 37.32 20.7
    endloop
  endfacet
  facet normal 0 0 1
    outer loop
      vertex 57.56 37.32 20.7
      vertex 42.44 37.32 20.7
      vertex 57.56 3 20.7
    endloop
  endfacet
  facet normal 0 0 1
    outer loop
      vertex 59.5 40.5 20.7
      vertex 42.44 37.32 20.7
      vertex 57.56 37.32 20.7
    endloop
  endfacet
  facet normal -0 0 1
    outer loop
      vertex 40.5 40.5 20.7
      vertex 42.44 37.32 20.7
      vertex 59.5 40.5 20.7
    endloop
  endfacet
  facet normal 0 0 1
    outer loop
      vertex 31.83 62.68 20.7
      vertex 36.34 62.68 20.7
      vertex 31.83 97 20.7
    endloop
  endfacet
  facet normal 0 0 1
    outer loop
      vertex 40.5 59.5 20.7
      vertex 31.83 62.68 20.7
      vertex 40.5 40.5 20.7
    endloop
  endfacet
  facet normal 0 0 1
    outer loop
      vertex 40.5 40.5 20.7
      vertex 15.12 37.32 20.7
      vertex 42.44 37.32 20.7
    endloop
  endfacet
  facet normal 0 0 1
    outer loop
      vertex 31.83 62.68 20.7
      vertex 15.12 37.32 20.7
      vertex 40.5 40.5 20.7
    endloop
  endfacet
  facet normal 0 0 1
    outer loop
      vertex 0 0 20.7
      vertex 15.12 37.32 20.7
      vertex 4.51 62.68 20.7
    endloop
  endfacet
  facet normal -0 0 1
    outer loop
      vertex 4.51 62.68 20.7
      vertex 15.12 37.32 20.7
      vertex 31.83 62.68 20.7
    endloop
  endfacet
  facet normal -0 0 1
    outer loop
      vertex 57.56 3 20.7
      vertex 60.975 0 20.7
      vertex 60.975 3 20.7
    endloop
  endfacet
  facet normal 0 0 1
    outer loop
      vertex 42.44 3 20.7
      vertex 57.56 3 20.7
      vertex 42.44 37.32 20.7
    endloop
  endfacet
  facet normal -0 0 1
    outer loop
      vertex 42.44 3 20.7
      vertex 60.975 0 20.7
      vertex 57.56 3 20.7
    endloop
  endfacet
  facet normal 0 0 1
    outer loop
      vertex 39.025 0 20.7
      vertex 42.44 3 20.7
      vertex 39.025 3 20.7
    endloop
  endfacet
  facet normal 0 0 1
    outer loop
      vertex 42.44 3 20.7
      vertex 39.025 0 20.7
      vertex 60.975 0 20.7
    endloop
  endfacet
  facet normal 0 1 -0
    outer loop
      vertex 31.83 62.68 3
      vertex 4.51 62.68 20.7
      vertex 31.83 62.68 20.7
    endloop
  endfacet
  facet normal 0 1 0
    outer loop
      vertex 4.51 62.68 20.7
      vertex 31.83 62.68 3
      vertex 4.51 62.68 3
    endloop
  endfacet
  facet normal -1 0 0
    outer loop
      vertex 31.83 62.68 3
      vertex 31.83 97 20.7
      vertex 31.83 97 3
    endloop
  endfacet
  facet normal -1 -0 0
    outer loop
      vertex 31.83 97 20.7
      vertex 31.83 62.68 3
      vertex 31.83 62.68 20.7
    endloop
  endfacet
  facet normal 0 0 1
    outer loop
      vertex 7.925 97 3
      vertex 4.51 97 3
      vertex 7.925 71.26 3
    endloop
  endfacet
  facet normal 0 0 1
    outer loop
      vertex 28.415 71.26 3
      vertex 31.83 97 3
      vertex 28.415 97 3
    endloop
  endfacet
  facet normal 0 0 1
    outer loop
      vertex 31.83 97 3
      vertex 28.415 71.26 3
      vertex 31.83 62.68 3
    endloop
  endfacet
  facet normal -0 0 1
    outer loop
      vertex 7.925 71.26 3
      vertex 31.83 62.68 3
      vertex 28.415 71.26 3
    endloop
  endfacet
  facet normal 0 0 1
    outer loop
      vertex 7.925 71.26 3
      vertex 4.51 62.68 3
      vertex 31.83 62.68 3
    endloop
  endfacet
  facet normal 0 0 1
    outer loop
      vertex 4.51 62.68 3
      vertex 7.925 71.26 3
      vertex 4.51 97 3
    endloop
  endfacet
  facet normal 1 -0 0
    outer loop
      vertex 4.51 62.68 20.7
      vertex 4.51 97 3
      vertex 4.51 97 20.7
    endloop
  endfacet
  facet normal 1 0 0
    outer loop
      vertex 4.51 97 3
      vertex 4.51 62.68 20.7
      vertex 4.51 62.68 3
    endloop
  endfacet
  facet normal 0 1 -0
    outer loop
      vertex 28.415 71.26 0
      vertex 7.925 71.26 3
      vertex 28.415 71.26 3
    endloop
  endfacet
  facet normal 0 1 0
    outer loop
      vertex 7.925 71.26 3
      vertex 28.415 71.26 0
      vertex 7.925 71.26 0
    endloop
  endfacet
  facet normal -1 0 0
    outer loop
      vertex 28.415 100 0
      vertex 28.415 97 3
      vertex 28.415 100 20.7
    endloop
  endfacet
  facet normal -1 0 0
    outer loop
      vertex 28.415 71.26 0
      vertex 28.415 97 3
      vertex 28.415 100 0
    endloop
  endfacet
  facet normal -1 -0 0
    outer loop
      vertex 28.415 97 3
      vertex 28.415 71.26 0
      vertex 28.415 71.26 3
    endloop
  endfacet
  facet normal -1 -0 0
    outer loop
      vertex 28.415 100 20.7
      vertex 28.415 97 3
      vertex 28.415 97 20.7
    endloop
  endfacet
  facet normal 0 0 -1
    outer loop
      vertex 0 0 0
      vertex 18.535 28.74 0
      vertex 18.535 0 0
    endloop
  endfacet
  facet normal -0 0 -1
    outer loop
      vertex 18.535 28.74 0
      vertex 0 0 0
      vertex 7.925 71.26 0
    endloop
  endfacet
  facet normal 0 0 -1
    outer loop
      vertex 0 100 0
      vertex 7.925 71.26 0
      vertex 0 0 0
    endloop
  endfacet
  facet normal 0 0 -1
    outer loop
      vertex 7.925 71.26 0
      vertex 0 100 0
      vertex 7.925 100 0
    endloop
  endfacet
  facet normal -0 0 -1
    outer loop
      vertex 40.5 59.5 0
      vertex 18.535 28.74 0
      vertex 28.415 71.26 0
    endloop
  endfacet
  facet normal -0 0 -1
    outer loop
      vertex 28.415 71.26 0
      vertex 18.535 28.74 0
      vertex 7.925 71.26 0
    endloop
  endfacet
  facet normal 0 0 -1
    outer loop
      vertex 39.025 28.74 0
      vertex 60.975 28.74 0
      vertex 60.975 0 0
    endloop
  endfacet
  facet normal 0 0 -1
    outer loop
      vertex 59.5 59.5 0
      vertex 60.975 28.74 0
      vertex 59.5 40.5 0
    endloop
  endfacet
  facet normal 0 0 -1
    outer loop
      vertex 60.975 28.74 0
      vertex 39.025 28.74 0
      vertex 59.5 40.5 0
    endloop
  endfacet
  facet normal 0 0 -1
    outer loop
      vertex 18.535 28.74 0
      vertex 40.5 59.5 0
      vertex 40.5 40.5 0
    endloop
  endfacet
  facet normal 0 0 -1
    outer loop
      vertex 39.025 28.74 0
      vertex 60.975 0 0
      vertex 39.025 0 0
    endloop
  endfacet
  facet normal -0 0 -1
    outer loop
      vertex 59.5 40.5 0
      vertex 39.025 28.74 0
      vertex 40.5 40.5 0
    endloop
  endfacet
  facet normal 0 0 -1
    outer loop
      vertex 18.535 28.74 0
      vertex 40.5 40.5 0
      vertex 39.025 28.74 0
    endloop
  endfacet
  facet normal 0 0 -1
    outer loop
      vertex 40.5 59.5 0
      vertex 28.415 71.26 0
      vertex 39.755 71.26 0
    endloop
  endfacet
  facet normal 0 0 -1
    outer loop
      vertex 39.755 71.26 0
      vertex 28.415 71.26 0
      vertex 39.755 100 0
    endloop
  endfacet
  facet normal -0 0 -1
    outer loop
      vertex 39.755 100 0
      vertex 28.415 71.26 0
      vertex 28.415 100 0
    endloop
  endfacet
  facet normal 0 0 -1
    outer loop
      vertex 100 0 0
      vertex 92.075 71.26 0
      vertex 100 100 0
    endloop
  endfacet
  facet normal 0 0 -1
    outer loop
      vertex 81.465 28.74 0
      vertex 100 0 0
      vertex 81.465 0 0
    endloop
  endfacet
  facet normal 0 0 -1
    outer loop
      vertex 100 0 0
      vertex 81.465 28.74 0
      vertex 92.075 71.26 0
    endloop
  endfacet
  facet normal 0 0 -1
    outer loop
      vertex 81.465 28.74 0
      vertex 71.585 71.26 0
      vertex 92.075 71.26 0
    endloop
  endfacet
  facet normal 0 0 -1
    outer loop
      vertex 60.975 28.74 0
      vertex 71.585 71.26 0
      vertex 81.465 28.74 0
    endloop
  endfacet
  facet normal 0 0 -1
    outer loop
      vertex 60.245 71.26 0
      vertex 71.585 71.26 0
      vertex 60.975 28.74 0
    endloop
  endfacet
  facet normal 0 0 -1
    outer loop
      vertex 71.585 71.26 0
      vertex 60.245 71.26 0
      vertex 71.585 100 0
    endloop
  endfacet
  facet normal -0 0 -1
    outer loop
      vertex 71.585 100 0
      vertex 60.245 71.26 0
      vertex 60.245 100 0
    endloop
  endfacet
  facet normal -0 0 -1
    outer loop
      vertex 100 100 0
      vertex 92.075 71.26 0
      vertex 92.075 100 0
    endloop
  endfacet
  facet normal 0 0 -1
    outer loop
      vertex 60.975 28.74 0
      vertex 59.5 59.5 0
      vertex 60.245 71.26 0
    endloop
  endfacet
  facet normal 0 0 -1
    outer loop
      vertex 40.5 59.5 0
      vertex 60.245 71.26 0
      vertex 59.5 59.5 0
    endloop
  endfacet
  facet normal -0 0 -1
    outer loop
      vertex 60.245 71.26 0
      vertex 40.5 59.5 0
      vertex 39.755 71.26 0
    endloop
  endfacet
  facet normal 1 0 0
    outer loop
      vertex 7.925 97 3
      vertex 7.925 100 20.7
      vertex 7.925 97 20.7
    endloop
  endfacet
  facet normal 1 0 0
    outer loop
      vertex 7.925 100 20.7
      vertex 7.925 97 3
      vertex 7.925 100 0
    endloop
  endfacet
  facet normal 1 0 0
    outer loop
      vertex 7.925 71.26 0
      vertex 7.925 97 3
      vertex 7.925 71.26 3
    endloop
  endfacet
  facet normal 1 0 0
    outer loop
      vertex 7.925 97 3
      vertex 7.925 71.26 0
      vertex 7.925 100 0
    endloop
  endfacet
  facet normal 0 -1 0
    outer loop
      vertex 36.34 97 3
      vertex 39.755 97 20.7
      vertex 36.34 97 20.7
    endloop
  endfacet
  facet normal 0 -1 -0
    outer loop
      vertex 39.755 97 20.7
      vertex 36.34 97 3
      vertex 39.755 97 3
    endloop
  endfacet
  facet normal 0 -1 0
    outer loop
      vertex 60.245 97 3
      vertex 63.66 97 20.7
      vertex 60.245 97 20.7
    endloop
  endfacet
  facet normal 0 -1 -0
    outer loop
      vertex 63.66 97 20.7
      vertex 60.245 97 3
      vertex 63.66 97 3
    endloop
  endfacet
  facet normal 0 1 -0
    outer loop
      vertex 63.66 62.68 3
      vertex 36.34 62.68 20.7
      vertex 63.66 62.68 20.7
    endloop
  endfacet
  facet normal 0 1 0
    outer loop
      vertex 36.34 62.68 20.7
      vertex 63.66 62.68 3
      vertex 36.34 62.68 3
    endloop
  endfacet
  facet normal -1 0 0
    outer loop
      vertex 63.66 62.68 3
      vertex 63.66 97 20.7
      vertex 63.66 97 3
    endloop
  endfacet
  facet normal -1 -0 0
    outer loop
      vertex 63.66 97 20.7
      vertex 63.66 62.68 3
      vertex 63.66 62.68 20.7
    endloop
  endfacet
  facet normal 0 0 1
    outer loop
      vertex 39.755 97 3
      vertex 36.34 97 3
      vertex 39.755 71.26 3
    endloop
  endfacet
  facet normal 0 0 1
    outer loop
      vertex 60.245 71.26 3
      vertex 63.66 97 3
      vertex 60.245 97 3
    endloop
  endfacet
  facet normal 0 0 1
    outer loop
      vertex 63.66 97 3
      vertex 60.245 71.26 3
      vertex 63.66 62.68 3
    endloop
  endfacet
  facet normal -0 0 1
    outer loop
      vertex 39.755 71.26 3
      vertex 63.66 62.68 3
      vertex 60.245 71.26 3
    endloop
  endfacet
  facet normal 0 0 1
    outer loop
      vertex 39.755 71.26 3
      vertex 36.34 62.68 3
      vertex 63.66 62.68 3
    endloop
  endfacet
  facet normal 0 0 1
    outer loop
      vertex 36.34 62.68 3
      vertex 39.755 71.26 3
      vertex 36.34 97 3
    endloop
  endfacet
  facet normal 1 -0 0
    outer loop
      vertex 36.34 62.68 20.7
      vertex 36.34 97 3
      vertex 36.34 97 20.7
    endloop
  endfacet
  facet normal 1 0 0
    outer loop
      vertex 36.34 97 3
      vertex 36.34 62.68 20.7
      vertex 36.34 62.68 3
    endloop
  endfacet
  facet normal 0 1 -0
    outer loop
      vertex 60.245 71.26 0
      vertex 39.755 71.26 3
      vertex 60.245 71.26 3
    endloop
  endfacet
  facet normal 0 1 0
    outer loop
      vertex 39.755 71.26 3
      vertex 60.245 71.26 0
      vertex 39.755 71.26 0
    endloop
  endfacet
  facet normal -1 0 0
    outer loop
      vertex 60.245 100 0
      vertex 60.245 97 3
      vertex 60.245 100 20.7
    endloop
  endfacet
  facet normal -1 0 0
    outer loop
      vertex 60.245 71.26 0
      vertex 60.245 97 3
      vertex 60.245 100 0
    endloop
  endfacet
  facet normal -1 -0 0
    outer loop
      vertex 60.245 97 3
      vertex 60.245 71.26 0
      vertex 60.245 71.26 3
    endloop
  endfacet
  facet normal -1 -0 0
    outer loop
      vertex 60.245 100 20.7
      vertex 60.245 97 3
      vertex 60.245 97 20.7
    endloop
  endfacet
  facet normal 1 0 0
    outer loop
      vertex 39.755 97 3
      vertex 39.755 100 20.7
      vertex 39.755 97 20.7
    endloop
  endfacet
  facet normal 1 0 0
    outer loop
      vertex 39.755 100 20.7
      vertex 39.755 97 3
      vertex 39.755 100 0
    endloop
  endfacet
  facet normal 1 0 0
    outer loop
      vertex 39.755 71.26 0
      vertex 39.755 97 3
      vertex 39.755 71.26 3
    endloop
  endfacet
  facet normal 1 0 0
    outer loop
      vertex 39.755 97 3
      vertex 39.755 71.26 0
      vertex 39.755 100 0
    endloop
  endfacet
  facet normal 0 -1 0
    outer loop
      vertex 68.17 97 3
      vertex 71.585 97 20.7
      vertex 68.17 97 20.7
    endloop
  endfacet
  facet normal 0 -1 -0
    outer loop
      vertex 71.585 97 20.7
      vertex 68.17 97 3
      vertex 71.585 97 3
    endloop
  endfacet
  facet normal 0 -1 0
    outer loop
      vertex 92.075 97 3
      vertex 95.49 97 20.7
      vertex 92.075 97 20.7
    endloop
  endfacet
  facet normal 0 -1 -0
    outer loop
      vertex 95.49 97 20.7
      vertex 92.075 97 3
      vertex 95.49 97 3
    endloop
  endfacet
  facet normal 0 1 -0
    outer loop
      vertex 95.49 62.68 3
      vertex 68.17 62.68 20.7
      vertex 95.49 62.68 20.7
    endloop
  endfacet
  facet normal 0 1 0
    outer loop
      vertex 68.17 62.68 20.7
      vertex 95.49 62.68 3
      vertex 68.17 62.68 3
    endloop
  endfacet
  facet normal -1 0 0
    outer loop
      vertex 95.49 62.68 3
      vertex 95.49 97 20.7
      vertex 95.49 97 3
    endloop
  endfacet
  facet normal -1 -0 0
    outer loop
      vertex 95.49 97 20.7
      vertex 95.49 62.68 3
      vertex 95.49 62.68 20.7
    endloop
  endfacet
  facet normal 0 0 1
    outer loop
      vertex 71.585 97 3
      vertex 68.17 97 3
      vertex 71.585 71.26 3
    endloop
  endfacet
  facet normal 0 0 1
    outer loop
      vertex 92.075 71.26 3
      vertex 95.49 97 3
      vertex 92.075 97 3
    endloop
  endfacet
  facet normal 0 0 1
    outer loop
      vertex 95.49 97 3
      vertex 92.075 71.26 3
      vertex 95.49 62.68 3
    endloop
  endfacet
  facet normal -0 0 1
    outer loop
      vertex 71.585 71.26 3
      vertex 95.49 62.68 3
      vertex 92.075 71.26 3
    endloop
  endfacet
  facet normal 0 0 1
    outer loop
      vertex 71.585 71.26 3
      vertex 68.17 62.68 3
      vertex 95.49 62.68 3
    endloop
  endfacet
  facet normal 0 0 1
    outer loop
      vertex 68.17 62.68 3
      vertex 71.585 71.26 3
      vertex 68.17 97 3
    endloop
  endfacet
  facet normal 1 -0 0
    outer loop
      vertex 68.17 62.68 20.7
      vertex 68.17 97 3
      vertex 68.17 97 20.7
    endloop
  endfacet
  facet normal 1 0 0
    outer loop
      vertex 68.17 97 3
      vertex 68.17 62.68 20.7
      vertex 68.17 62.68 3
    endloop
  endfacet
  facet normal 0 1 -0
    outer loop
      vertex 92.075 71.26 0
      vertex 71.585 71.26 3
      vertex 92.075 71.26 3
    endloop
  endfacet
  facet normal 0 1 0
    outer loop
      vertex 71.585 71.26 3
      vertex 92.075 71.26 0
      vertex 71.585 71.26 0
    endloop
  endfacet
  facet normal -1 0 0
    outer loop
      vertex 92.075 100 0
      vertex 92.075 97 3
      vertex 92.075 100 20.7
    endloop
  endfacet
  facet normal -1 0 0
    outer loop
      vertex 92.075 71.26 0
      vertex 92.075 97 3
      vertex 92.075 100 0
    endloop
  endfacet
  facet normal -1 -0 0
    outer loop
      vertex 92.075 97 3
      vertex 92.075 71.26 0
      vertex 92.075 71.26 3
    endloop
  endfacet
  facet normal -1 -0 0
    outer loop
      vertex 92.075 100 20.7
      vertex 92.075 97 3
      vertex 92.075 97 20.7
    endloop
  endfacet
  facet normal 1 0 0
    outer loop
      vertex 71.585 97 3
      vertex 71.585 100 20.7
      vertex 71.585 97 20.7
    endloop
  endfacet
  facet normal 1 0 0
    outer loop
      vertex 71.585 100 20.7
      vertex 71.585 97 3
      vertex 71.585 100 0
    endloop
  endfacet
  facet normal 1 0 0
    outer loop
      vertex 71.585 71.26 0
      vertex 71.585 97 3
      vertex 71.585 71.26 3
    endloop
  endfacet
  facet normal 1 0 0
    outer loop
      vertex 71.585 97 3
      vertex 71.585 71.26 0
      vertex 71.585 100 0
    endloop
  endfacet
  facet normal 0 1 -0
    outer loop
      vertex 42.44 3 3
      vertex 39.025 3 20.7
      vertex 42.44 3 20.7
    endloop
  endfacet
  facet normal 0 1 0
    outer loop
      vertex 39.025 3 20.7
      vertex 42.44 3 3
      vertex 39.025 3 3
    endloop
  endfacet
  facet normal 0 1 -0
    outer loop
      vertex 18.535 3 3
      vertex 15.12 3 20.7
      vertex 18.535 3 20.7
    endloop
  endfacet
  facet normal 0 1 0
    outer loop
      vertex 15.12 3 20.7
      vertex 18.535 3 3
      vertex 15.12 3 3
    endloop
  endfacet
  facet normal 0 -1 0
    outer loop
      vertex 15.12 37.32 3
      vertex 42.44 37.32 20.7
      vertex 15.12 37.32 20.7
    endloop
  endfacet
  facet normal 0 -1 -0
    outer loop
      vertex 42.44 37.32 20.7
      vertex 15.12 37.32 3
      vertex 42.44 37.32 3
    endloop
  endfacet
  facet normal 1 -0 0
    outer loop
      vertex 15.12 3 20.7
      vertex 15.12 37.32 3
      vertex 15.12 37.32 20.7
    endloop
  endfacet
  facet normal 1 0 0
    outer loop
      vertex 15.12 37.32 3
      vertex 15.12 3 20.7
      vertex 15.12 3 3
    endloop
  endfacet
  facet normal 0 0 1
    outer loop
      vertex 42.44 37.32 3
      vertex 39.025 28.74 3
      vertex 42.44 3 3
    endloop
  endfacet
  facet normal 0 0 1
    outer loop
      vertex 42.44 37.32 3
      vertex 18.535 28.74 3
      vertex 39.025 28.74 3
    endloop
  endfacet
  facet normal -0 0 1
    outer loop
      vertex 15.12 37.32 3
      vertex 18.535 28.74 3
      vertex 42.44 37.32 3
    endloop
  endfacet
  facet normal 0 0 1
    outer loop
      vertex 15.12 3 3
      vertex 18.535 28.74 3
      vertex 15.12 37.32 3
    endloop
  endfacet
  facet normal 0 0 1
    outer loop
      vertex 18.535 28.74 3
      vertex 15.12 3 3
      vertex 18.535 3 3
    endloop
  endfacet
  facet normal 0 0 1
    outer loop
      vertex 42.44 3 3
      vertex 39.025 28.74 3
      vertex 39.025 3 3
    endloop
  endfacet
  facet normal -1 0 0
    outer loop
      vertex 42.44 3 3
      vertex 42.44 37.32 20.7
      vertex 42.44 37.32 3
    endloop
  endfacet
  facet normal -1 -0 0
    outer loop
      vertex 42.44 37.32 20.7
      vertex 42.44 3 3
      vertex 42.44 3 20.7
    endloop
  endfacet
  facet normal 0 -1 0
    outer loop
      vertex 18.535 28.74 0
      vertex 39.025 28.74 3
      vertex 18.535 28.74 3
    endloop
  endfacet
  facet normal 0 -1 -0
    outer loop
      vertex 39.025 28.74 3
      vertex 18.535 28.74 0
      vertex 39.025 28.74 0
    endloop
  endfacet
  facet normal 1 0 0
    outer loop
      vertex 18.535 3 20.7
      vertex 18.535 0 20.7
      vertex 18.535 3 3
    endloop
  endfacet
  facet normal 1 -0 0
    outer loop
      vertex 18.535 3 3
      vertex 18.535 28.74 0
      vertex 18.535 28.74 3
    endloop
  endfacet
  facet normal 1 0 0
    outer loop
      vertex 18.535 3 3
      vertex 18.535 0 0
      vertex 18.535 28.74 0
    endloop
  endfacet
  facet normal 1 0 0
    outer loop
      vertex 18.535 0 0
      vertex 18.535 3 3
      vertex 18.535 0 20.7
    endloop
  endfacet
  facet normal -1 0 0
    outer loop
      vertex 39.025 28.74 0
      vertex 39.025 3 3
      vertex 39.025 28.74 3
    endloop
  endfacet
  facet normal -1 0 0
    outer loop
      vertex 39.025 0 0
      vertex 39.025 3 3
      vertex 39.025 28.74 0
    endloop
  endfacet
  facet normal -1 0 0
    outer loop
      vertex 39.025 0 20.7
      vertex 39.025 3 3
      vertex 39.025 0 0
    endloop
  endfacet
  facet normal -1 0 0
    outer loop
      vertex 39.025 3 3
      vertex 39.025 0 20.7
      vertex 39.025 3 20.7
    endloop
  endfacet
  facet normal 0 1 -0
    outer loop
      vertex 84.88 3 3
      vertex 81.465 3 20.7
      vertex 84.88 3 20.7
    endloop
  endfacet
  facet normal 0 1 0
    outer loop
      vertex 81.465 3 20.7
      vertex 84.88 3 3
      vertex 81.465 3 3
    endloop
  endfacet
  facet normal 0 1 -0
    outer loop
      vertex 60.975 3 3
      vertex 57.56 3 20.7
      vertex 60.975 3 20.7
    endloop
  endfacet
  facet normal 0 1 0
    outer loop
      vertex 57.56 3 20.7
      vertex 60.975 3 3
      vertex 57.56 3 3
    endloop
  endfacet
  facet normal 0 -1 0
    outer loop
      vertex 57.56 37.32 3
      vertex 84.88 37.32 20.7
      vertex 57.56 37.32 20.7
    endloop
  endfacet
  facet normal 0 -1 -0
    outer loop
      vertex 84.88 37.32 20.7
      vertex 57.56 37.32 3
      vertex 84.88 37.32 3
    endloop
  endfacet
  facet normal 1 -0 0
    outer loop
      vertex 57.56 3 20.7
      vertex 57.56 37.32 3
      vertex 57.56 37.32 20.7
    endloop
  endfacet
  facet normal 1 0 0
    outer loop
      vertex 57.56 37.32 3
      vertex 57.56 3 20.7
      vertex 57.56 3 3
    endloop
  endfacet
  facet normal 0 0 1
    outer loop
      vertex 84.88 37.32 3
      vertex 81.465 28.74 3
      vertex 84.88 3 3
    endloop
  endfacet
  facet normal 0 0 1
    outer loop
      vertex 84.88 37.32 3
      vertex 60.975 28.74 3
      vertex 81.465 28.74 3
    endloop
  endfacet
  facet normal -0 0 1
    outer loop
      vertex 57.56 37.32 3
      vertex 60.975 28.74 3
      vertex 84.88 37.32 3
    endloop
  endfacet
  facet normal 0 0 1
    outer loop
      vertex 57.56 3 3
      vertex 60.975 28.74 3
      vertex 57.56 37.32 3
    endloop
  endfacet
  facet normal 0 0 1
    outer loop
      vertex 60.975 28.74 3
      vertex 57.56 3 3
      vertex 60.975 3 3
    endloop
  endfacet
  facet normal 0 0 1
    outer loop
      vertex 84.88 3 3
      vertex 81.465 28.74 3
      vertex 81.465 3 3
    endloop
  endfacet
  facet normal -1 0 0
    outer loop
      vertex 84.88 3 3
      vertex 84.88 37.32 20.7
      vertex 84.88 37.32 3
    endloop
  endfacet
  facet normal -1 -0 0
    outer loop
      vertex 84.88 37.32 20.7
      vertex 84.88 3 3
      vertex 84.88 3 20.7
    endloop
  endfacet
  facet normal 0 -1 0
    outer loop
      vertex 60.975 28.74 0
      vertex 81.465 28.74 3
      vertex 60.975 28.74 3
    endloop
  endfacet
  facet normal 0 -1 -0
    outer loop
      vertex 81.465 28.74 3
      vertex 60.975 28.74 0
      vertex 81.465 28.74 0
    endloop
  endfacet
  facet normal 1 0 0
    outer loop
      vertex 60.975 3 20.7
      vertex 60.975 0 20.7
      vertex 60.975 3 3
    endloop
  endfacet
  facet normal 1 -0 0
    outer loop
      vertex 60.975 3 3
      vertex 60.975 28.74 0
      vertex 60.975 28.74 3
    endloop
  endfacet
  facet normal 1 0 0
    outer loop
      vertex 60.975 3 3
      vertex 60.975 0 0
      vertex 60.975 28.74 0
    endloop
  endfacet
  facet normal 1 0 0
    outer loop
      vertex 60.975 0 0
      vertex 60.975 3 3
      vertex 60.975 0 20.7
    endloop
  endfacet
  facet normal -1 0 0
    outer loop
      vertex 81.465 28.74 0
      vertex 81.465 3 3
      vertex 81.465 28.74 3
    endloop
  endfacet
  facet normal -1 0 0
    outer loop
      vertex 81.465 0 0
      vertex 81.465 3 3
      vertex 81.465 28.74 0
    endloop
  endfacet
  facet normal -1 0 0
    outer loop
      vertex 81.465 0 20.7
      vertex 81.465 3 3
      vertex 81.465 0 0
    endloop
  endfacet
  facet normal -1 0 0
    outer loop
      vertex 81.465 3 3
      vertex 81.465 0 20.7
      vertex 81.465 3 20.7
    endloop
  endfacet
  facet normal -1 0 0
    outer loop
      vertex 0 0 0
      vertex 0 100 20.7
      vertex 0 100 0
    endloop
  endfacet
  facet normal -1 -0 0
    outer loop
      vertex 0 100 20.7
      vertex 0 0 0
      vertex 0 0 20.7
    endloop
  endfacet
  facet normal 1 -0 0
    outer loop
      vertex 100 0 20.7
      vertex 100 100 0
      vertex 100 100 20.7
    endloop
  endfacet
  facet normal 1 0 0
    outer loop
      vertex 100 100 0
      vertex 100 0 20.7
      vertex 100 0 0
    endloop
  endfacet
  facet normal 0 -1 0
    outer loop
      vertex 0 0 0
      vertex 18.535 0 20.7
      vertex 0 0 20.7
    endloop
  endfacet
  facet normal 0 -1 -0
    outer loop
      vertex 18.535 0 20.7
      vertex 0 0 0
      vertex 18.535 0 0
    endloop
  endfacet
  facet normal 0 -1 0
    outer loop
      vertex 81.465 0 0
      vertex 100 0 20.7
      vertex 81.465 0 20.7
    endloop
  endfacet
  facet normal 0 -1 -0
    outer loop
      vertex 100 0 20.7
      vertex 81.465 0 0
      vertex 100 0 0
    endloop
  endfacet
  facet normal 0 -1 0
    outer loop
      vertex 39.025 0 0
      vertex 60.975 0 20.7
      vertex 39.025 0 20.7
    endloop
  endfacet
  facet normal 0 -1 -0
    outer loop
      vertex 60.975 0 20.7
      vertex 39.025 0 0
      vertex 60.975 0 0
    endloop
  endfacet
  facet normal 0 1 -0
    outer loop
      vertex 100 100 0
      vertex 92.075 100 20.7
      vertex 100 100 20.7
    endloop
  endfacet
  facet normal 0 1 0
    outer loop
      vertex 92.075 100 20.7
      vertex 100 100 0
      vertex 92.075 100 0
    endloop
  endfacet
  facet normal 0 1 -0
    outer loop
      vertex 7.925 100 0
      vertex 0 100 20.7
      vertex 7.925 100 20.7
    endloop
  endfacet
  facet normal 0 1 0
    outer loop
      vertex 0 100 20.7
      vertex 7.925 100 0
      vertex 0 100 0
    endloop
  endfacet
  facet normal 0 1 -0
    outer loop
      vertex 39.755 100 0
      vertex 28.415 100 20.7
      vertex 39.755 100 20.7
    endloop
  endfacet
  facet normal 0 1 0
    outer loop
      vertex 28.415 100 20.7
      vertex 39.755 100 0
      vertex 28.415 100 0
    endloop
  endfacet
  facet normal 0 1 -0
    outer loop
      vertex 71.585 100 0
      vertex 60.245 100 20.7
      vertex 71.585 100 20.7
    endloop
  endfacet
  facet normal 0 1 0
    outer loop
      vertex 60.245 100 20.7
      vertex 71.585 100 0
      vertex 60.245 100 0
    endloop
  endfacet
  facet normal 1 -0 0
    outer loop
      vertex 40.5 40.5 20.7
      vertex 40.5 59.5 0
      vertex 40.5 59.5 20.7
    endloop
  endfacet
  facet normal 1 0 0
    outer loop
      vertex 40.5 59.5 0
      vertex 40.5 40.5 20.7
      vertex 40.5 40.5 0
    endloop
  endfacet
  facet normal -1 0 0
    outer loop
      vertex 59.5 40.5 0
      vertex 59.5 59.5 20.7
      vertex 59.5 59.5 0
    endloop
  endfacet
  facet normal -1 -0 0
    outer loop
      vertex 59.5 59.5 20.7
      vertex 59.5 40.5 0
      vertex 59.5 40.5 20.7
    endloop
  endfacet
  facet normal 0 -1 0
    outer loop
      vertex 40.5 59.5 0
      vertex 59.5 59.5 20.7
      vertex 40.5 59.5 20.7
    endloop
  endfacet
  facet normal 0 -1 -0
    outer loop
      vertex 59.5 59.5 20.7
      vertex 40.5 59.5 0
      vertex 59.5 59.5 0
    endloop
  endfacet
  facet normal 0 1 -0
    outer loop
      vertex 59.5 40.5 0
      vertex 40.5 40.5 20.7
      vertex 59.5 40.5 20.7
    endloop
  endfacet
  facet normal 0 1 0
    outer loop
      vertex 40.5 40.5 20.7
      vertex 59.5 40.5 0
      vertex 40.5 40.5 0
    endloop
  endfacet
endsolid OpenSCAD_Model
