solid OpenSCAD_Model
  facet normal 0 1 -0
    outer loop
      vertex 26.95 3 3
      vertex 24.9688 3 9.95
      vertex 26.95 3 9.95
    endloop
  endfacet
  facet normal 0 1 0
    outer loop
      vertex 24.9688 3 9.95
      vertex 26.95 3 3
      vertex 24.9688 3 3
    endloop
  endfacet
  facet normal 0 1 -0
    outer loop
      vertex 13.0813 3 3
      vertex 11.1 3 9.95
      vertex 13.0813 3 9.95
    endloop
  endfacet
  facet normal 0 1 0
    outer loop
      vertex 11.1 3 9.95
      vertex 13.0813 3 3
      vertex 11.1 3 3
    endloop
  endfacet
  facet normal 0 0 1
    outer loop
      vertex 3 23.3646 9.95
      vertex 0 23.3646 9.95
      vertex 3 21.3833 9.95
    endloop
  endfacet
  facet normal 0 0 1
    outer loop
      vertex 46.7687 80 9.95
      vertex 44.7875 77 9.95
      vertex 46.7687 77 9.95
    endloop
  endfacet
  facet normal 0 0 1
    outer loop
      vertex 40.425 61.15 9.95
      vertex 44.7875 61.15 9.95
      vertex 44.7875 77 9.95
    endloop
  endfacet
  facet normal 0 0 1
    outer loop
      vertex 40.425 61.15 9.95
      vertex 44.7875 77 9.95
      vertex 40.425 77 9.95
    endloop
  endfacet
  facet normal 0 0 1
    outer loop
      vertex 46.7687 80 9.95
      vertex 40.425 77 9.95
      vertex 44.7875 77 9.95
    endloop
  endfacet
  facet normal -0 0 1
    outer loop
      vertex 38.4437 80 9.95
      vertex 40.425 77 9.95
      vertex 46.7687 80 9.95
    endloop
  endfacet
  facet normal 0 0 1
    outer loop
      vertex 40.425 77 9.95
      vertex 38.4437 80 9.95
      vertex 38.4437 77 9.95
    endloop
  endfacet
  facet normal -0 0 1
    outer loop
      vertex 46.15 42.7667 9.95
      vertex 62 37.2333 9.95
      vertex 62 42.7667 9.95
    endloop
  endfacet
  facet normal 0 0 1
    outer loop
      vertex 62 37.2333 9.95
      vertex 46.15 42.7667 9.95
      vertex 46.15 37.2333 9.95
    endloop
  endfacet
  facet normal 0 0 1
    outer loop
      vertex 62 42.7667 9.95
      vertex 65 44.7479 9.95
      vertex 62 44.7479 9.95
    endloop
  endfacet
  facet normal 0 0 1
    outer loop
      vertex 65 44.7479 9.95
      vertex 62 42.7667 9.95
      vertex 65 35.2521 9.95
    endloop
  endfacet
  facet normal -0 0 1
    outer loop
      vertex 62 37.2333 9.95
      vertex 65 35.2521 9.95
      vertex 62 42.7667 9.95
    endloop
  endfacet
  facet normal 0 0 1
    outer loop
      vertex 65 35.2521 9.95
      vertex 62 37.2333 9.95
      vertex 62 35.2521 9.95
    endloop
  endfacet
  facet normal -0 0 1
    outer loop
      vertex 60.6375 61.15 9.95
      vertex 65 56.6354 9.95
      vertex 65 80 9.95
    endloop
  endfacet
  facet normal 0 0 1
    outer loop
      vertex 60.6375 61.15 9.95
      vertex 65 80 9.95
      vertex 60.6375 77 9.95
    endloop
  endfacet
  facet normal -0 0 1
    outer loop
      vertex 58.6562 80 9.95
      vertex 60.6375 77 9.95
      vertex 65 80 9.95
    endloop
  endfacet
  facet normal 0 0 1
    outer loop
      vertex 60.6375 77 9.95
      vertex 58.6562 80 9.95
      vertex 58.6562 77 9.95
    endloop
  endfacet
  facet normal 0 0 1
    outer loop
      vertex 65 56.6354 9.95
      vertex 62 58.6167 9.95
      vertex 62 56.6354 9.95
    endloop
  endfacet
  facet normal 0 0 1
    outer loop
      vertex 65 56.6354 9.95
      vertex 60.6375 61.15 9.95
      vertex 62 58.6167 9.95
    endloop
  endfacet
  facet normal 0 0 1
    outer loop
      vertex 60.6375 61.15 9.95
      vertex 46.15 58.6167 9.95
      vertex 62 58.6167 9.95
    endloop
  endfacet
  facet normal -0 0 1
    outer loop
      vertex 42 49.5 9.95
      vertex 46.15 42.7667 9.95
      vertex 46.15 58.6167 9.95
    endloop
  endfacet
  facet normal 0 0 1
    outer loop
      vertex 46.15 42.7667 9.95
      vertex 42 49.5 9.95
      vertex 46.15 37.2333 9.95
    endloop
  endfacet
  facet normal 0 0 1
    outer loop
      vertex 42 49.5 9.95
      vertex 46.15 58.6167 9.95
      vertex 44.7875 61.15 9.95
    endloop
  endfacet
  facet normal -0 0 1
    outer loop
      vertex 44.7875 61.15 9.95
      vertex 46.15 58.6167 9.95
      vertex 60.6375 61.15 9.95
    endloop
  endfacet
  facet normal -0 0 1
    outer loop
      vertex 46.15 21.3833 9.95
      vertex 53.9 18.85 9.95
      vertex 62 21.3833 9.95
    endloop
  endfacet
  facet normal 0 0 1
    outer loop
      vertex 42 30.5 9.95
      vertex 46.15 37.2333 9.95
      vertex 42 49.5 9.95
    endloop
  endfacet
  facet normal 0 0 1
    outer loop
      vertex 46.15 37.2333 9.95
      vertex 42 30.5 9.95
      vertex 46.15 21.3833 9.95
    endloop
  endfacet
  facet normal 0 0 1
    outer loop
      vertex 46.15 21.3833 9.95
      vertex 38.05 18.85 9.95
      vertex 53.9 18.85 9.95
    endloop
  endfacet
  facet normal 0 0 1
    outer loop
      vertex 42 30.5 9.95
      vertex 38.05 18.85 9.95
      vertex 46.15 21.3833 9.95
    endloop
  endfacet
  facet normal 0 0 1
    outer loop
      vertex 38.05 18.85 9.95
      vertex 26.95 18.85 9.95
      vertex 38.05 3 9.95
    endloop
  endfacet
  facet normal 0 0 1
    outer loop
      vertex 42 30.5 9.95
      vertex 26.95 18.85 9.95
      vertex 38.05 18.85 9.95
    endloop
  endfacet
  facet normal -0 0 1
    outer loop
      vertex 23 30.5 9.95
      vertex 26.95 18.85 9.95
      vertex 42 30.5 9.95
    endloop
  endfacet
  facet normal 0 0 1
    outer loop
      vertex 24.575 61.15 9.95
      vertex 18.85 58.6167 9.95
      vertex 23 49.5 9.95
    endloop
  endfacet
  facet normal 0 0 1
    outer loop
      vertex 23 49.5 9.95
      vertex 18.85 58.6167 9.95
      vertex 18.85 42.7667 9.95
    endloop
  endfacet
  facet normal 0 0 1
    outer loop
      vertex 23 49.5 9.95
      vertex 18.85 42.7667 9.95
      vertex 23 30.5 9.95
    endloop
  endfacet
  facet normal -0 0 1
    outer loop
      vertex 18.85 37.2333 9.95
      vertex 23 30.5 9.95
      vertex 18.85 42.7667 9.95
    endloop
  endfacet
  facet normal 0 0 1
    outer loop
      vertex 18.85 21.3833 9.95
      vertex 23 30.5 9.95
      vertex 18.85 37.2333 9.95
    endloop
  endfacet
  facet normal 0 0 1
    outer loop
      vertex 23 30.5 9.95
      vertex 18.85 21.3833 9.95
      vertex 26.95 18.85 9.95
    endloop
  endfacet
  facet normal 0 0 1
    outer loop
      vertex 18.85 21.3833 9.95
      vertex 11.1 18.85 9.95
      vertex 26.95 18.85 9.95
    endloop
  endfacet
  facet normal 0 0 1
    outer loop
      vertex 11.1 18.85 9.95
      vertex 3 21.3833 9.95
      vertex 11.1 3 9.95
    endloop
  endfacet
  facet normal -0 0 1
    outer loop
      vertex 3 21.3833 9.95
      vertex 11.1 18.85 9.95
      vertex 18.85 21.3833 9.95
    endloop
  endfacet
  facet normal 0 0 1
    outer loop
      vertex 62 21.3833 9.95
      vertex 65 23.3646 9.95
      vertex 62 23.3646 9.95
    endloop
  endfacet
  facet normal 0 0 1
    outer loop
      vertex 65 23.3646 9.95
      vertex 62 21.3833 9.95
      vertex 65 0 9.95
    endloop
  endfacet
  facet normal 0 0 1
    outer loop
      vertex 53.9 3 9.95
      vertex 62 21.3833 9.95
      vertex 53.9 18.85 9.95
    endloop
  endfacet
  facet normal 0 0 1
    outer loop
      vertex 62 21.3833 9.95
      vertex 53.9 3 9.95
      vertex 65 0 9.95
    endloop
  endfacet
  facet normal 0 0 1
    outer loop
      vertex 51.9188 0 9.95
      vertex 53.9 3 9.95
      vertex 51.9188 3 9.95
    endloop
  endfacet
  facet normal 0 0 1
    outer loop
      vertex 53.9 3 9.95
      vertex 51.9188 0 9.95
      vertex 65 0 9.95
    endloop
  endfacet
  facet normal 0 0 1
    outer loop
      vertex 44.7875 61.15 9.95
      vertex 40.425 61.15 9.95
      vertex 42 49.5 9.95
    endloop
  endfacet
  facet normal -0 0 1
    outer loop
      vertex 24.575 61.15 9.95
      vertex 42 49.5 9.95
      vertex 40.425 61.15 9.95
    endloop
  endfacet
  facet normal 0 0 1
    outer loop
      vertex 42 49.5 9.95
      vertex 24.575 61.15 9.95
      vertex 23 49.5 9.95
    endloop
  endfacet
  facet normal -0 0 1
    outer loop
      vertex 3 42.7667 9.95
      vertex 18.85 37.2333 9.95
      vertex 18.85 42.7667 9.95
    endloop
  endfacet
  facet normal 0 0 1
    outer loop
      vertex 18.85 37.2333 9.95
      vertex 3 42.7667 9.95
      vertex 3 37.2333 9.95
    endloop
  endfacet
  facet normal -0 0 1
    outer loop
      vertex 4.3625 61.15 9.95
      vertex 18.85 58.6167 9.95
      vertex 20.2125 61.15 9.95
    endloop
  endfacet
  facet normal 0 0 1
    outer loop
      vertex 18.85 58.6167 9.95
      vertex 4.3625 61.15 9.95
      vertex 3 58.6167 9.95
    endloop
  endfacet
  facet normal 0 0 1
    outer loop
      vertex 26.5562 80 9.95
      vertex 24.575 77 9.95
      vertex 26.5562 77 9.95
    endloop
  endfacet
  facet normal -0 0 1
    outer loop
      vertex 20.2125 77 9.95
      vertex 24.575 61.15 9.95
      vertex 24.575 77 9.95
    endloop
  endfacet
  facet normal 0 0 1
    outer loop
      vertex 18.85 58.6167 9.95
      vertex 24.575 61.15 9.95
      vertex 20.2125 61.15 9.95
    endloop
  endfacet
  facet normal 0 0 1
    outer loop
      vertex 20.2125 61.15 9.95
      vertex 24.575 61.15 9.95
      vertex 20.2125 77 9.95
    endloop
  endfacet
  facet normal 0 0 1
    outer loop
      vertex 26.5562 80 9.95
      vertex 20.2125 77 9.95
      vertex 24.575 77 9.95
    endloop
  endfacet
  facet normal -0 0 1
    outer loop
      vertex 18.2312 80 9.95
      vertex 20.2125 77 9.95
      vertex 26.5562 80 9.95
    endloop
  endfacet
  facet normal 0 0 1
    outer loop
      vertex 20.2125 77 9.95
      vertex 18.2312 80 9.95
      vertex 18.2312 77 9.95
    endloop
  endfacet
  facet normal -0 0 1
    outer loop
      vertex 38.05 3 9.95
      vertex 40.0312 0 9.95
      vertex 40.0312 3 9.95
    endloop
  endfacet
  facet normal 0 0 1
    outer loop
      vertex 26.95 3 9.95
      vertex 38.05 3 9.95
      vertex 26.95 18.85 9.95
    endloop
  endfacet
  facet normal 0 0 1
    outer loop
      vertex 38.05 3 9.95
      vertex 26.95 3 9.95
      vertex 40.0312 0 9.95
    endloop
  endfacet
  facet normal 0 0 1
    outer loop
      vertex 24.9688 0 9.95
      vertex 26.95 3 9.95
      vertex 24.9688 3 9.95
    endloop
  endfacet
  facet normal 0 0 1
    outer loop
      vertex 26.95 3 9.95
      vertex 24.9688 0 9.95
      vertex 40.0312 0 9.95
    endloop
  endfacet
  facet normal -0 0 1
    outer loop
      vertex 11.1 3 9.95
      vertex 13.0813 0 9.95
      vertex 13.0813 3 9.95
    endloop
  endfacet
  facet normal 0 0 1
    outer loop
      vertex 0 0 9.95
      vertex 3 21.3833 9.95
      vertex 0 23.3646 9.95
    endloop
  endfacet
  facet normal 0 0 1
    outer loop
      vertex 11.1 3 9.95
      vertex 0 0 9.95
      vertex 13.0813 0 9.95
    endloop
  endfacet
  facet normal 0 0 1
    outer loop
      vertex 3 21.3833 9.95
      vertex 0 0 9.95
      vertex 11.1 3 9.95
    endloop
  endfacet
  facet normal -0 0 1
    outer loop
      vertex 0 44.7479 9.95
      vertex 3 42.7667 9.95
      vertex 3 44.7479 9.95
    endloop
  endfacet
  facet normal 0 0 1
    outer loop
      vertex 3 42.7667 9.95
      vertex 0 44.7479 9.95
      vertex 3 37.2333 9.95
    endloop
  endfacet
  facet normal 0 0 1
    outer loop
      vertex 0 35.2521 9.95
      vertex 3 37.2333 9.95
      vertex 0 44.7479 9.95
    endloop
  endfacet
  facet normal 0 0 1
    outer loop
      vertex 3 37.2333 9.95
      vertex 0 35.2521 9.95
      vertex 3 35.2521 9.95
    endloop
  endfacet
  facet normal 0 0 1
    outer loop
      vertex 6.34375 80 9.95
      vertex 4.3625 77 9.95
      vertex 6.34375 77 9.95
    endloop
  endfacet
  facet normal 0 0 1
    outer loop
      vertex 0 80 9.95
      vertex 4.3625 61.15 9.95
      vertex 4.3625 77 9.95
    endloop
  endfacet
  facet normal -0 0 1
    outer loop
      vertex 0 80 9.95
      vertex 4.3625 77 9.95
      vertex 6.34375 80 9.95
    endloop
  endfacet
  facet normal 0 0 1
    outer loop
      vertex 0 56.6354 9.95
      vertex 4.3625 61.15 9.95
      vertex 0 80 9.95
    endloop
  endfacet
  facet normal 0 0 1
    outer loop
      vertex 4.3625 61.15 9.95
      vertex 0 56.6354 9.95
      vertex 3 58.6167 9.95
    endloop
  endfacet
  facet normal 0 0 1
    outer loop
      vertex 3 58.6167 9.95
      vertex 0 56.6354 9.95
      vertex 3 56.6354 9.95
    endloop
  endfacet
  facet normal -1.20337e-007 -1 0
    outer loop
      vertex 11.1 18.85 3
      vertex 26.95 18.85 9.95
      vertex 11.1 18.85 9.95
    endloop
  endfacet
  facet normal -1.20337e-007 -1 -0
    outer loop
      vertex 26.95 18.85 9.95
      vertex 11.1 18.85 3
      vertex 26.95 18.85 3
    endloop
  endfacet
  facet normal 1 -0 0
    outer loop
      vertex 11.1 3 9.95
      vertex 11.1 18.85 3
      vertex 11.1 18.85 9.95
    endloop
  endfacet
  facet normal 1 0 0
    outer loop
      vertex 11.1 18.85 3
      vertex 11.1 3 9.95
      vertex 11.1 3 3
    endloop
  endfacet
  facet normal 0 0 1
    outer loop
      vertex 26.95 18.85 3
      vertex 24.9688 14.8875 3
      vertex 26.95 3 3
    endloop
  endfacet
  facet normal 0 0 1
    outer loop
      vertex 26.95 18.85 3
      vertex 13.0813 14.8875 3
      vertex 24.9688 14.8875 3
    endloop
  endfacet
  facet normal 0 0 1
    outer loop
      vertex 11.1 18.85 3
      vertex 13.0813 14.8875 3
      vertex 26.95 18.85 3
    endloop
  endfacet
  facet normal 0 0 1
    outer loop
      vertex 11.1 3 3
      vertex 13.0813 14.8875 3
      vertex 11.1 18.85 3
    endloop
  endfacet
  facet normal 0 0 1
    outer loop
      vertex 13.0813 14.8875 3
      vertex 11.1 3 3
      vertex 13.0813 3 3
    endloop
  endfacet
  facet normal 0 0 1
    outer loop
      vertex 26.95 3 3
      vertex 24.9688 14.8875 3
      vertex 24.9688 3 3
    endloop
  endfacet
  facet normal -1 0 0
    outer loop
      vertex 26.95 3 3
      vertex 26.95 18.85 9.95
      vertex 26.95 18.85 3
    endloop
  endfacet
  facet normal -1 -0 0
    outer loop
      vertex 26.95 18.85 9.95
      vertex 26.95 3 3
      vertex 26.95 3 9.95
    endloop
  endfacet
  facet normal 0 -1 0
    outer loop
      vertex 13.0813 14.8875 0
      vertex 24.9688 14.8875 3
      vertex 13.0813 14.8875 3
    endloop
  endfacet
  facet normal 0 -1 -0
    outer loop
      vertex 24.9688 14.8875 3
      vertex 13.0813 14.8875 0
      vertex 24.9688 14.8875 0
    endloop
  endfacet
  facet normal 1 0 0
    outer loop
      vertex 13.0813 3 9.95
      vertex 13.0813 0 9.95
      vertex 13.0813 3 3
    endloop
  endfacet
  facet normal 1 -0 0
    outer loop
      vertex 13.0813 3 3
      vertex 13.0813 14.8875 0
      vertex 13.0813 14.8875 3
    endloop
  endfacet
  facet normal 1 0 0
    outer loop
      vertex 13.0813 3 3
      vertex 13.0813 0 0
      vertex 13.0813 14.8875 0
    endloop
  endfacet
  facet normal 1 0 0
    outer loop
      vertex 13.0813 0 0
      vertex 13.0813 3 3
      vertex 13.0813 0 9.95
    endloop
  endfacet
  facet normal 0 0 -1
    outer loop
      vertex 13.0813 0 0
      vertex 0 0 0
      vertex 13.0813 14.8875 0
    endloop
  endfacet
  facet normal 0 0 -1
    outer loop
      vertex 40.0312 0 0
      vertex 24.9688 0 0
      vertex 40.0312 14.8875 0
    endloop
  endfacet
  facet normal 0 0 -1
    outer loop
      vertex 51.9188 14.8875 0
      vertex 65 0 0
      vertex 51.9188 0 0
    endloop
  endfacet
  facet normal 0 0 -1
    outer loop
      vertex 65 0 0
      vertex 51.9188 14.8875 0
      vertex 65 23.3646 0
    endloop
  endfacet
  facet normal 0 0 -1
    outer loop
      vertex 51.9188 14.8875 0
      vertex 50.1125 23.3646 0
      vertex 65 23.3646 0
    endloop
  endfacet
  facet normal 0 0 -1
    outer loop
      vertex 42 30.5 0
      vertex 50.1125 35.2521 0
      vertex 50.1125 23.3646 0
    endloop
  endfacet
  facet normal -0 0 -1
    outer loop
      vertex 50.1125 35.2521 0
      vertex 42 30.5 0
      vertex 50.1125 44.7479 0
    endloop
  endfacet
  facet normal 0 0 -1
    outer loop
      vertex 50.1125 44.7479 0
      vertex 42 49.5 0
      vertex 50.1125 56.6354 0
    endloop
  endfacet
  facet normal 0 0 -1
    outer loop
      vertex 38.4437 65.1125 0
      vertex 50.1125 56.6354 0
      vertex 42 49.5 0
    endloop
  endfacet
  facet normal -0 0 -1
    outer loop
      vertex 50.1125 44.7479 0
      vertex 42 30.5 0
      vertex 42 49.5 0
    endloop
  endfacet
  facet normal 0 0 -1
    outer loop
      vertex 40.0312 14.8875 0
      vertex 50.1125 23.3646 0
      vertex 51.9188 14.8875 0
    endloop
  endfacet
  facet normal -0 0 -1
    outer loop
      vertex 50.1125 23.3646 0
      vertex 40.0312 14.8875 0
      vertex 42 30.5 0
    endloop
  endfacet
  facet normal 0 0 -1
    outer loop
      vertex 24.9688 14.8875 0
      vertex 40.0312 14.8875 0
      vertex 24.9688 0 0
    endloop
  endfacet
  facet normal 0 0 -1
    outer loop
      vertex 40.0312 14.8875 0
      vertex 24.9688 14.8875 0
      vertex 42 30.5 0
    endloop
  endfacet
  facet normal 0 0 -1
    outer loop
      vertex 24.9688 14.8875 0
      vertex 23 30.5 0
      vertex 42 30.5 0
    endloop
  endfacet
  facet normal 0 0 -1
    outer loop
      vertex 14.8875 44.7479 0
      vertex 23 49.5 0
      vertex 23 30.5 0
    endloop
  endfacet
  facet normal 0 0 -1
    outer loop
      vertex 14.8875 23.3646 0
      vertex 23 30.5 0
      vertex 24.9688 14.8875 0
    endloop
  endfacet
  facet normal -0 0 -1
    outer loop
      vertex 23 30.5 0
      vertex 14.8875 23.3646 0
      vertex 14.8875 35.2521 0
    endloop
  endfacet
  facet normal 0 0 -1
    outer loop
      vertex 13.0813 14.8875 0
      vertex 14.8875 23.3646 0
      vertex 24.9688 14.8875 0
    endloop
  endfacet
  facet normal 0 0 -1
    outer loop
      vertex 0 23.3646 0
      vertex 13.0813 14.8875 0
      vertex 0 0 0
    endloop
  endfacet
  facet normal 0 0 -1
    outer loop
      vertex 13.0813 14.8875 0
      vertex 0 23.3646 0
      vertex 14.8875 23.3646 0
    endloop
  endfacet
  facet normal 0 0 -1
    outer loop
      vertex 50.1125 35.2521 0
      vertex 65 44.7479 0
      vertex 65 35.2521 0
    endloop
  endfacet
  facet normal -0 0 -1
    outer loop
      vertex 65 44.7479 0
      vertex 50.1125 35.2521 0
      vertex 50.1125 44.7479 0
    endloop
  endfacet
  facet normal 0 0 -1
    outer loop
      vertex 65 56.6354 0
      vertex 58.6562 65.1125 0
      vertex 65 80 0
    endloop
  endfacet
  facet normal 0 0 -1
    outer loop
      vertex 50.1125 56.6354 0
      vertex 58.6562 65.1125 0
      vertex 65 56.6354 0
    endloop
  endfacet
  facet normal -0 0 -1
    outer loop
      vertex 58.6562 65.1125 0
      vertex 50.1125 56.6354 0
      vertex 46.7687 65.1125 0
    endloop
  endfacet
  facet normal -0 0 -1
    outer loop
      vertex 65 80 0
      vertex 58.6562 65.1125 0
      vertex 58.6562 80 0
    endloop
  endfacet
  facet normal 0 0 -1
    outer loop
      vertex 50.1125 56.6354 0
      vertex 38.4437 65.1125 0
      vertex 46.7687 65.1125 0
    endloop
  endfacet
  facet normal 0 0 -1
    outer loop
      vertex 46.7687 65.1125 0
      vertex 38.4437 65.1125 0
      vertex 46.7687 80 0
    endloop
  endfacet
  facet normal -0 0 -1
    outer loop
      vertex 46.7687 80 0
      vertex 38.4437 65.1125 0
      vertex 38.4437 80 0
    endloop
  endfacet
  facet normal 0 0 -1
    outer loop
      vertex 0 35.2521 0
      vertex 14.8875 44.7479 0
      vertex 14.8875 35.2521 0
    endloop
  endfacet
  facet normal -0 0 -1
    outer loop
      vertex 14.8875 44.7479 0
      vertex 0 35.2521 0
      vertex 0 44.7479 0
    endloop
  endfacet
  facet normal 0 0 -1
    outer loop
      vertex 42 49.5 0
      vertex 26.5562 65.1125 0
      vertex 38.4437 65.1125 0
    endloop
  endfacet
  facet normal 0 0 -1
    outer loop
      vertex 23 49.5 0
      vertex 26.5562 65.1125 0
      vertex 42 49.5 0
    endloop
  endfacet
  facet normal 0 0 -1
    outer loop
      vertex 18.2312 65.1125 0
      vertex 26.5562 65.1125 0
      vertex 23 49.5 0
    endloop
  endfacet
  facet normal 0 0 -1
    outer loop
      vertex 26.5562 65.1125 0
      vertex 18.2312 65.1125 0
      vertex 26.5562 80 0
    endloop
  endfacet
  facet normal -0 0 -1
    outer loop
      vertex 26.5562 80 0
      vertex 18.2312 65.1125 0
      vertex 18.2312 80 0
    endloop
  endfacet
  facet normal 0 0 -1
    outer loop
      vertex 23 30.5 0
      vertex 14.8875 35.2521 0
      vertex 14.8875 44.7479 0
    endloop
  endfacet
  facet normal 0 0 -1
    outer loop
      vertex 14.8875 56.6354 0
      vertex 23 49.5 0
      vertex 14.8875 44.7479 0
    endloop
  endfacet
  facet normal 0 0 -1
    outer loop
      vertex 23 49.5 0
      vertex 14.8875 56.6354 0
      vertex 18.2312 65.1125 0
    endloop
  endfacet
  facet normal 0 0 -1
    outer loop
      vertex 14.8875 56.6354 0
      vertex 6.34375 65.1125 0
      vertex 18.2312 65.1125 0
    endloop
  endfacet
  facet normal 0 0 -1
    outer loop
      vertex 0 56.6354 0
      vertex 6.34375 65.1125 0
      vertex 14.8875 56.6354 0
    endloop
  endfacet
  facet normal 0 0 -1
    outer loop
      vertex 0 80 0
      vertex 6.34375 65.1125 0
      vertex 0 56.6354 0
    endloop
  endfacet
  facet normal 0 0 -1
    outer loop
      vertex 6.34375 65.1125 0
      vertex 0 80 0
      vertex 6.34375 80 0
    endloop
  endfacet
  facet normal -1 0 0
    outer loop
      vertex 24.9688 14.8875 0
      vertex 24.9688 3 3
      vertex 24.9688 14.8875 3
    endloop
  endfacet
  facet normal -1 0 0
    outer loop
      vertex 24.9688 0 0
      vertex 24.9688 3 3
      vertex 24.9688 14.8875 0
    endloop
  endfacet
  facet normal -1 0 0
    outer loop
      vertex 24.9688 0 9.95
      vertex 24.9688 3 3
      vertex 24.9688 0 0
    endloop
  endfacet
  facet normal -1 0 0
    outer loop
      vertex 24.9688 3 3
      vertex 24.9688 0 9.95
      vertex 24.9688 3 9.95
    endloop
  endfacet
  facet normal 0 1 -0
    outer loop
      vertex 53.9 3 3
      vertex 51.9188 3 9.95
      vertex 53.9 3 9.95
    endloop
  endfacet
  facet normal 0 1 0
    outer loop
      vertex 51.9188 3 9.95
      vertex 53.9 3 3
      vertex 51.9188 3 3
    endloop
  endfacet
  facet normal 0 1 -0
    outer loop
      vertex 40.0312 3 3
      vertex 38.05 3 9.95
      vertex 40.0312 3 9.95
    endloop
  endfacet
  facet normal 0 1 0
    outer loop
      vertex 38.05 3 9.95
      vertex 40.0312 3 3
      vertex 38.05 3 3
    endloop
  endfacet
  facet normal -1.20337e-007 -1 0
    outer loop
      vertex 38.05 18.85 3
      vertex 53.9 18.85 9.95
      vertex 38.05 18.85 9.95
    endloop
  endfacet
  facet normal -1.20337e-007 -1 -0
    outer loop
      vertex 53.9 18.85 9.95
      vertex 38.05 18.85 3
      vertex 53.9 18.85 3
    endloop
  endfacet
  facet normal 1 -0 0
    outer loop
      vertex 38.05 3 9.95
      vertex 38.05 18.85 3
      vertex 38.05 18.85 9.95
    endloop
  endfacet
  facet normal 1 0 0
    outer loop
      vertex 38.05 18.85 3
      vertex 38.05 3 9.95
      vertex 38.05 3 3
    endloop
  endfacet
  facet normal 0 0 1
    outer loop
      vertex 53.9 18.85 3
      vertex 51.9188 14.8875 3
      vertex 53.9 3 3
    endloop
  endfacet
  facet normal 0 0 1
    outer loop
      vertex 53.9 18.85 3
      vertex 40.0312 14.8875 3
      vertex 51.9188 14.8875 3
    endloop
  endfacet
  facet normal 0 0 1
    outer loop
      vertex 38.05 18.85 3
      vertex 40.0312 14.8875 3
      vertex 53.9 18.85 3
    endloop
  endfacet
  facet normal 0 0 1
    outer loop
      vertex 38.05 3 3
      vertex 40.0312 14.8875 3
      vertex 38.05 18.85 3
    endloop
  endfacet
  facet normal 0 0 1
    outer loop
      vertex 40.0312 14.8875 3
      vertex 38.05 3 3
      vertex 40.0312 3 3
    endloop
  endfacet
  facet normal 0 0 1
    outer loop
      vertex 53.9 3 3
      vertex 51.9188 14.8875 3
      vertex 51.9188 3 3
    endloop
  endfacet
  facet normal -1 0 0
    outer loop
      vertex 53.9 3 3
      vertex 53.9 18.85 9.95
      vertex 53.9 18.85 3
    endloop
  endfacet
  facet normal -1 -0 0
    outer loop
      vertex 53.9 18.85 9.95
      vertex 53.9 3 3
      vertex 53.9 3 9.95
    endloop
  endfacet
  facet normal 0 -1 0
    outer loop
      vertex 40.0312 14.8875 0
      vertex 51.9188 14.8875 3
      vertex 40.0312 14.8875 3
    endloop
  endfacet
  facet normal 0 -1 -0
    outer loop
      vertex 51.9188 14.8875 3
      vertex 40.0312 14.8875 0
      vertex 51.9188 14.8875 0
    endloop
  endfacet
  facet normal 1 0 0
    outer loop
      vertex 40.0312 3 9.95
      vertex 40.0312 0 9.95
      vertex 40.0312 3 3
    endloop
  endfacet
  facet normal 1 -0 0
    outer loop
      vertex 40.0312 3 3
      vertex 40.0312 14.8875 0
      vertex 40.0312 14.8875 3
    endloop
  endfacet
  facet normal 1 0 0
    outer loop
      vertex 40.0312 3 3
      vertex 40.0312 0 0
      vertex 40.0312 14.8875 0
    endloop
  endfacet
  facet normal 1 0 0
    outer loop
      vertex 40.0312 0 0
      vertex 40.0312 3 3
      vertex 40.0312 0 9.95
    endloop
  endfacet
  facet normal -1 0 0
    outer loop
      vertex 51.9188 14.8875 0
      vertex 51.9188 3 3
      vertex 51.9188 14.8875 3
    endloop
  endfacet
  facet normal -1 0 0
    outer loop
      vertex 51.9188 0 0
      vertex 51.9188 3 3
      vertex 51.9188 14.8875 0
    endloop
  endfacet
  facet normal -1 0 0
    outer loop
      vertex 51.9188 0 9.95
      vertex 51.9188 3 3
      vertex 51.9188 0 0
    endloop
  endfacet
  facet normal -1 0 0
    outer loop
      vertex 51.9188 3 3
      vertex 51.9188 0 9.95
      vertex 51.9188 3 9.95
    endloop
  endfacet
  facet normal 0 -1 0
    outer loop
      vertex 4.3625 77 3
      vertex 6.34375 77 9.95
      vertex 4.3625 77 9.95
    endloop
  endfacet
  facet normal 0 -1 -0
    outer loop
      vertex 6.34375 77 9.95
      vertex 4.3625 77 3
      vertex 6.34375 77 3
    endloop
  endfacet
  facet normal 0 -1 0
    outer loop
      vertex 18.2312 77 3
      vertex 20.2125 77 9.95
      vertex 18.2312 77 9.95
    endloop
  endfacet
  facet normal 0 -1 -0
    outer loop
      vertex 20.2125 77 9.95
      vertex 18.2312 77 3
      vertex 20.2125 77 3
    endloop
  endfacet
  facet normal 0 1 -0
    outer loop
      vertex 20.2125 61.15 3
      vertex 4.3625 61.15 9.95
      vertex 20.2125 61.15 9.95
    endloop
  endfacet
  facet normal 0 1 0
    outer loop
      vertex 4.3625 61.15 9.95
      vertex 20.2125 61.15 3
      vertex 4.3625 61.15 3
    endloop
  endfacet
  facet normal -1 0 0
    outer loop
      vertex 20.2125 61.15 3
      vertex 20.2125 77 9.95
      vertex 20.2125 77 3
    endloop
  endfacet
  facet normal -1 -0 0
    outer loop
      vertex 20.2125 77 9.95
      vertex 20.2125 61.15 3
      vertex 20.2125 61.15 9.95
    endloop
  endfacet
  facet normal 0 0 1
    outer loop
      vertex 6.34375 77 3
      vertex 4.3625 77 3
      vertex 6.34375 65.1125 3
    endloop
  endfacet
  facet normal 0 0 1
    outer loop
      vertex 18.2312 65.1125 3
      vertex 20.2125 77 3
      vertex 18.2312 77 3
    endloop
  endfacet
  facet normal 0 0 1
    outer loop
      vertex 20.2125 77 3
      vertex 18.2312 65.1125 3
      vertex 20.2125 61.15 3
    endloop
  endfacet
  facet normal -0 0 1
    outer loop
      vertex 6.34375 65.1125 3
      vertex 20.2125 61.15 3
      vertex 18.2312 65.1125 3
    endloop
  endfacet
  facet normal 0 0 1
    outer loop
      vertex 6.34375 65.1125 3
      vertex 4.3625 61.15 3
      vertex 20.2125 61.15 3
    endloop
  endfacet
  facet normal 0 0 1
    outer loop
      vertex 4.3625 61.15 3
      vertex 6.34375 65.1125 3
      vertex 4.3625 77 3
    endloop
  endfacet
  facet normal 1 -0 0
    outer loop
      vertex 4.3625 61.15 9.95
      vertex 4.3625 77 3
      vertex 4.3625 77 9.95
    endloop
  endfacet
  facet normal 1 0 0
    outer loop
      vertex 4.3625 77 3
      vertex 4.3625 61.15 9.95
      vertex 4.3625 61.15 3
    endloop
  endfacet
  facet normal 0 1 -0
    outer loop
      vertex 18.2312 65.1125 0
      vertex 6.34375 65.1125 3
      vertex 18.2312 65.1125 3
    endloop
  endfacet
  facet normal 0 1 0
    outer loop
      vertex 6.34375 65.1125 3
      vertex 18.2312 65.1125 0
      vertex 6.34375 65.1125 0
    endloop
  endfacet
  facet normal -1 0 0
    outer loop
      vertex 18.2312 80 0
      vertex 18.2312 77 3
      vertex 18.2312 80 9.95
    endloop
  endfacet
  facet normal -1 0 0
    outer loop
      vertex 18.2312 65.1125 0
      vertex 18.2312 77 3
      vertex 18.2312 80 0
    endloop
  endfacet
  facet normal -1 -0 0
    outer loop
      vertex 18.2312 77 3
      vertex 18.2312 65.1125 0
      vertex 18.2312 65.1125 3
    endloop
  endfacet
  facet normal -1 -0 0
    outer loop
      vertex 18.2312 80 9.95
      vertex 18.2312 77 3
      vertex 18.2312 77 9.95
    endloop
  endfacet
  facet normal 1 0 0
    outer loop
      vertex 6.34375 77 3
      vertex 6.34375 80 9.95
      vertex 6.34375 77 9.95
    endloop
  endfacet
  facet normal 1 0 0
    outer loop
      vertex 6.34375 80 9.95
      vertex 6.34375 77 3
      vertex 6.34375 80 0
    endloop
  endfacet
  facet normal 1 0 0
    outer loop
      vertex 6.34375 65.1125 0
      vertex 6.34375 77 3
      vertex 6.34375 65.1125 3
    endloop
  endfacet
  facet normal 1 0 0
    outer loop
      vertex 6.34375 77 3
      vertex 6.34375 65.1125 0
      vertex 6.34375 80 0
    endloop
  endfacet
  facet normal 0 -1 0
    outer loop
      vertex 24.575 77 3
      vertex 26.5562 77 9.95
      vertex 24.575 77 9.95
    endloop
  endfacet
  facet normal 0 -1 -0
    outer loop
      vertex 26.5562 77 9.95
      vertex 24.575 77 3
      vertex 26.5562 77 3
    endloop
  endfacet
  facet normal 0 -1 0
    outer loop
      vertex 38.4437 77 3
      vertex 40.425 77 9.95
      vertex 38.4437 77 9.95
    endloop
  endfacet
  facet normal 0 -1 -0
    outer loop
      vertex 40.425 77 9.95
      vertex 38.4437 77 3
      vertex 40.425 77 3
    endloop
  endfacet
  facet normal 0 1 -0
    outer loop
      vertex 40.425 61.15 3
      vertex 24.575 61.15 9.95
      vertex 40.425 61.15 9.95
    endloop
  endfacet
  facet normal 0 1 0
    outer loop
      vertex 24.575 61.15 9.95
      vertex 40.425 61.15 3
      vertex 24.575 61.15 3
    endloop
  endfacet
  facet normal -1 0 0
    outer loop
      vertex 40.425 61.15 3
      vertex 40.425 77 9.95
      vertex 40.425 77 3
    endloop
  endfacet
  facet normal -1 -0 0
    outer loop
      vertex 40.425 77 9.95
      vertex 40.425 61.15 3
      vertex 40.425 61.15 9.95
    endloop
  endfacet
  facet normal 0 0 1
    outer loop
      vertex 26.5562 77 3
      vertex 24.575 77 3
      vertex 26.5562 65.1125 3
    endloop
  endfacet
  facet normal 0 0 1
    outer loop
      vertex 38.4437 65.1125 3
      vertex 40.425 77 3
      vertex 38.4437 77 3
    endloop
  endfacet
  facet normal 0 0 1
    outer loop
      vertex 40.425 77 3
      vertex 38.4437 65.1125 3
      vertex 40.425 61.15 3
    endloop
  endfacet
  facet normal -0 0 1
    outer loop
      vertex 26.5562 65.1125 3
      vertex 40.425 61.15 3
      vertex 38.4437 65.1125 3
    endloop
  endfacet
  facet normal 0 0 1
    outer loop
      vertex 26.5562 65.1125 3
      vertex 24.575 61.15 3
      vertex 40.425 61.15 3
    endloop
  endfacet
  facet normal 0 0 1
    outer loop
      vertex 24.575 61.15 3
      vertex 26.5562 65.1125 3
      vertex 24.575 77 3
    endloop
  endfacet
  facet normal 1 -0 0
    outer loop
      vertex 24.575 61.15 9.95
      vertex 24.575 77 3
      vertex 24.575 77 9.95
    endloop
  endfacet
  facet normal 1 0 0
    outer loop
      vertex 24.575 77 3
      vertex 24.575 61.15 9.95
      vertex 24.575 61.15 3
    endloop
  endfacet
  facet normal 0 1 -0
    outer loop
      vertex 38.4437 65.1125 0
      vertex 26.5562 65.1125 3
      vertex 38.4437 65.1125 3
    endloop
  endfacet
  facet normal 0 1 0
    outer loop
      vertex 26.5562 65.1125 3
      vertex 38.4437 65.1125 0
      vertex 26.5562 65.1125 0
    endloop
  endfacet
  facet normal -1 0 0
    outer loop
      vertex 38.4437 80 0
      vertex 38.4437 77 3
      vertex 38.4437 80 9.95
    endloop
  endfacet
  facet normal -1 0 0
    outer loop
      vertex 38.4437 65.1125 0
      vertex 38.4437 77 3
      vertex 38.4437 80 0
    endloop
  endfacet
  facet normal -1 -0 0
    outer loop
      vertex 38.4437 77 3
      vertex 38.4437 65.1125 0
      vertex 38.4437 65.1125 3
    endloop
  endfacet
  facet normal -1 -0 0
    outer loop
      vertex 38.4437 80 9.95
      vertex 38.4437 77 3
      vertex 38.4437 77 9.95
    endloop
  endfacet
  facet normal 1 0 0
    outer loop
      vertex 26.5562 77 3
      vertex 26.5562 80 9.95
      vertex 26.5562 77 9.95
    endloop
  endfacet
  facet normal 1 0 0
    outer loop
      vertex 26.5562 80 9.95
      vertex 26.5562 77 3
      vertex 26.5562 80 0
    endloop
  endfacet
  facet normal 1 0 0
    outer loop
      vertex 26.5562 65.1125 0
      vertex 26.5562 77 3
      vertex 26.5562 65.1125 3
    endloop
  endfacet
  facet normal 1 0 0
    outer loop
      vertex 26.5562 77 3
      vertex 26.5562 65.1125 0
      vertex 26.5562 80 0
    endloop
  endfacet
  facet normal 0 -1 0
    outer loop
      vertex 44.7875 77 3
      vertex 46.7687 77 9.95
      vertex 44.7875 77 9.95
    endloop
  endfacet
  facet normal 0 -1 -0
    outer loop
      vertex 46.7687 77 9.95
      vertex 44.7875 77 3
      vertex 46.7687 77 3
    endloop
  endfacet
  facet normal 0 -1 0
    outer loop
      vertex 58.6562 77 3
      vertex 60.6375 77 9.95
      vertex 58.6562 77 9.95
    endloop
  endfacet
  facet normal 0 -1 -0
    outer loop
      vertex 60.6375 77 9.95
      vertex 58.6562 77 3
      vertex 60.6375 77 3
    endloop
  endfacet
  facet normal 0 1 -0
    outer loop
      vertex 60.6375 61.15 3
      vertex 44.7875 61.15 9.95
      vertex 60.6375 61.15 9.95
    endloop
  endfacet
  facet normal 0 1 0
    outer loop
      vertex 44.7875 61.15 9.95
      vertex 60.6375 61.15 3
      vertex 44.7875 61.15 3
    endloop
  endfacet
  facet normal -1 0 0
    outer loop
      vertex 60.6375 61.15 3
      vertex 60.6375 77 9.95
      vertex 60.6375 77 3
    endloop
  endfacet
  facet normal -1 -0 0
    outer loop
      vertex 60.6375 77 9.95
      vertex 60.6375 61.15 3
      vertex 60.6375 61.15 9.95
    endloop
  endfacet
  facet normal 0 0 1
    outer loop
      vertex 46.7687 77 3
      vertex 44.7875 77 3
      vertex 46.7687 65.1125 3
    endloop
  endfacet
  facet normal 0 0 1
    outer loop
      vertex 58.6562 65.1125 3
      vertex 60.6375 77 3
      vertex 58.6562 77 3
    endloop
  endfacet
  facet normal 0 0 1
    outer loop
      vertex 60.6375 77 3
      vertex 58.6562 65.1125 3
      vertex 60.6375 61.15 3
    endloop
  endfacet
  facet normal -0 0 1
    outer loop
      vertex 46.7687 65.1125 3
      vertex 60.6375 61.15 3
      vertex 58.6562 65.1125 3
    endloop
  endfacet
  facet normal 0 0 1
    outer loop
      vertex 46.7687 65.1125 3
      vertex 44.7875 61.15 3
      vertex 60.6375 61.15 3
    endloop
  endfacet
  facet normal 0 0 1
    outer loop
      vertex 44.7875 61.15 3
      vertex 46.7687 65.1125 3
      vertex 44.7875 77 3
    endloop
  endfacet
  facet normal 1 -0 0
    outer loop
      vertex 44.7875 61.15 9.95
      vertex 44.7875 77 3
      vertex 44.7875 77 9.95
    endloop
  endfacet
  facet normal 1 0 0
    outer loop
      vertex 44.7875 77 3
      vertex 44.7875 61.15 9.95
      vertex 44.7875 61.15 3
    endloop
  endfacet
  facet normal 0 1 -0
    outer loop
      vertex 58.6562 65.1125 0
      vertex 46.7687 65.1125 3
      vertex 58.6562 65.1125 3
    endloop
  endfacet
  facet normal 0 1 0
    outer loop
      vertex 46.7687 65.1125 3
      vertex 58.6562 65.1125 0
      vertex 46.7687 65.1125 0
    endloop
  endfacet
  facet normal -1 0 0
    outer loop
      vertex 58.6562 80 0
      vertex 58.6562 77 3
      vertex 58.6562 80 9.95
    endloop
  endfacet
  facet normal -1 0 0
    outer loop
      vertex 58.6562 65.1125 0
      vertex 58.6562 77 3
      vertex 58.6562 80 0
    endloop
  endfacet
  facet normal -1 -0 0
    outer loop
      vertex 58.6562 77 3
      vertex 58.6562 65.1125 0
      vertex 58.6562 65.1125 3
    endloop
  endfacet
  facet normal -1 -0 0
    outer loop
      vertex 58.6562 80 9.95
      vertex 58.6562 77 3
      vertex 58.6562 77 9.95
    endloop
  endfacet
  facet normal 1 0 0
    outer loop
      vertex 46.7687 77 3
      vertex 46.7687 80 9.95
      vertex 46.7687 77 9.95
    endloop
  endfacet
  facet normal 1 0 0
    outer loop
      vertex 46.7687 80 9.95
      vertex 46.7687 77 3
      vertex 46.7687 80 0
    endloop
  endfacet
  facet normal 1 0 0
    outer loop
      vertex 46.7687 65.1125 0
      vertex 46.7687 77 3
      vertex 46.7687 65.1125 3
    endloop
  endfacet
  facet normal 1 0 0
    outer loop
      vertex 46.7687 77 3
      vertex 46.7687 65.1125 0
      vertex 46.7687 80 0
    endloop
  endfacet
  facet normal 1 -0 0
    outer loop
      vertex 3 21.3833 9.95
      vertex 3 23.3646 3
      vertex 3 23.3646 9.95
    endloop
  endfacet
  facet normal 1 0 0
    outer loop
      vertex 3 23.3646 3
      vertex 3 21.3833 9.95
      vertex 3 21.3833 3
    endloop
  endfacet
  facet normal 1 -0 0
    outer loop
      vertex 3 35.2521 9.95
      vertex 3 37.2333 3
      vertex 3 37.2333 9.95
    endloop
  endfacet
  facet normal 1 0 0
    outer loop
      vertex 3 37.2333 3
      vertex 3 35.2521 9.95
      vertex 3 35.2521 3
    endloop
  endfacet
  facet normal -1 0 0
    outer loop
      vertex 18.85 21.3833 3
      vertex 18.85 37.2333 9.95
      vertex 18.85 37.2333 3
    endloop
  endfacet
  facet normal -1 -0 0
    outer loop
      vertex 18.85 37.2333 9.95
      vertex 18.85 21.3833 3
      vertex 18.85 21.3833 9.95
    endloop
  endfacet
  facet normal 0 -1 0
    outer loop
      vertex 3 37.2333 3
      vertex 18.85 37.2333 9.95
      vertex 3 37.2333 9.95
    endloop
  endfacet
  facet normal 0 -1 -0
    outer loop
      vertex 18.85 37.2333 9.95
      vertex 3 37.2333 3
      vertex 18.85 37.2333 3
    endloop
  endfacet
  facet normal 0 0 1
    outer loop
      vertex 18.85 37.2333 3
      vertex 14.8875 35.2521 3
      vertex 18.85 21.3833 3
    endloop
  endfacet
  facet normal -0 0 1
    outer loop
      vertex 3 37.2333 3
      vertex 14.8875 35.2521 3
      vertex 18.85 37.2333 3
    endloop
  endfacet
  facet normal 0 0 1
    outer loop
      vertex 14.8875 35.2521 3
      vertex 3 37.2333 3
      vertex 3 35.2521 3
    endloop
  endfacet
  facet normal -0 0 1
    outer loop
      vertex 14.8875 23.3646 3
      vertex 18.85 21.3833 3
      vertex 14.8875 35.2521 3
    endloop
  endfacet
  facet normal 0 0 1
    outer loop
      vertex 3 21.3833 3
      vertex 14.8875 23.3646 3
      vertex 3 23.3646 3
    endloop
  endfacet
  facet normal 0 0 1
    outer loop
      vertex 14.8875 23.3646 3
      vertex 3 21.3833 3
      vertex 18.85 21.3833 3
    endloop
  endfacet
  facet normal 0 1 -0
    outer loop
      vertex 18.85 21.3833 3
      vertex 3 21.3833 9.95
      vertex 18.85 21.3833 9.95
    endloop
  endfacet
  facet normal 0 1 0
    outer loop
      vertex 3 21.3833 9.95
      vertex 18.85 21.3833 3
      vertex 3 21.3833 3
    endloop
  endfacet
  facet normal -1 0 0
    outer loop
      vertex 14.8875 23.3646 0
      vertex 14.8875 35.2521 3
      vertex 14.8875 35.2521 0
    endloop
  endfacet
  facet normal -1 -0 0
    outer loop
      vertex 14.8875 35.2521 3
      vertex 14.8875 23.3646 0
      vertex 14.8875 23.3646 3
    endloop
  endfacet
  facet normal 0 -1 0
    outer loop
      vertex 0 35.2521 9.95
      vertex 3 35.2521 3
      vertex 3 35.2521 9.95
    endloop
  endfacet
  facet normal 0 -1 0
    outer loop
      vertex 0 35.2521 0
      vertex 3 35.2521 3
      vertex 0 35.2521 9.95
    endloop
  endfacet
  facet normal 0 -1 0
    outer loop
      vertex 14.8875 35.2521 0
      vertex 3 35.2521 3
      vertex 0 35.2521 0
    endloop
  endfacet
  facet normal 0 -1 0
    outer loop
      vertex 3 35.2521 3
      vertex 14.8875 35.2521 0
      vertex 14.8875 35.2521 3
    endloop
  endfacet
  facet normal 0 1 0
    outer loop
      vertex 14.8875 23.3646 3
      vertex 14.8875 23.3646 0
      vertex 3 23.3646 3
    endloop
  endfacet
  facet normal 0 1 -0
    outer loop
      vertex 3 23.3646 3
      vertex 0 23.3646 9.95
      vertex 3 23.3646 9.95
    endloop
  endfacet
  facet normal 0 1 0
    outer loop
      vertex 3 23.3646 3
      vertex 0 23.3646 0
      vertex 0 23.3646 9.95
    endloop
  endfacet
  facet normal 0 1 0
    outer loop
      vertex 0 23.3646 0
      vertex 3 23.3646 3
      vertex 14.8875 23.3646 0
    endloop
  endfacet
  facet normal 1 -0 0
    outer loop
      vertex 3 42.7667 9.95
      vertex 3 44.7479 3
      vertex 3 44.7479 9.95
    endloop
  endfacet
  facet normal 1 0 0
    outer loop
      vertex 3 44.7479 3
      vertex 3 42.7667 9.95
      vertex 3 42.7667 3
    endloop
  endfacet
  facet normal 1 -0 0
    outer loop
      vertex 3 56.6354 9.95
      vertex 3 58.6167 3
      vertex 3 58.6167 9.95
    endloop
  endfacet
  facet normal 1 0 0
    outer loop
      vertex 3 58.6167 3
      vertex 3 56.6354 9.95
      vertex 3 56.6354 3
    endloop
  endfacet
  facet normal -1 0 0
    outer loop
      vertex 18.85 42.7667 3
      vertex 18.85 58.6167 9.95
      vertex 18.85 58.6167 3
    endloop
  endfacet
  facet normal -1 -0 0
    outer loop
      vertex 18.85 58.6167 9.95
      vertex 18.85 42.7667 3
      vertex 18.85 42.7667 9.95
    endloop
  endfacet
  facet normal 0 -1 0
    outer loop
      vertex 3 58.6167 3
      vertex 18.85 58.6167 9.95
      vertex 3 58.6167 9.95
    endloop
  endfacet
  facet normal 0 -1 -0
    outer loop
      vertex 18.85 58.6167 9.95
      vertex 3 58.6167 3
      vertex 18.85 58.6167 3
    endloop
  endfacet
  facet normal 0 0 1
    outer loop
      vertex 18.85 58.6167 3
      vertex 14.8875 56.6354 3
      vertex 18.85 42.7667 3
    endloop
  endfacet
  facet normal -0 0 1
    outer loop
      vertex 3 58.6167 3
      vertex 14.8875 56.6354 3
      vertex 18.85 58.6167 3
    endloop
  endfacet
  facet normal 0 0 1
    outer loop
      vertex 14.8875 56.6354 3
      vertex 3 58.6167 3
      vertex 3 56.6354 3
    endloop
  endfacet
  facet normal -0 0 1
    outer loop
      vertex 14.8875 44.7479 3
      vertex 18.85 42.7667 3
      vertex 14.8875 56.6354 3
    endloop
  endfacet
  facet normal 0 0 1
    outer loop
      vertex 3 42.7667 3
      vertex 14.8875 44.7479 3
      vertex 3 44.7479 3
    endloop
  endfacet
  facet normal 0 0 1
    outer loop
      vertex 14.8875 44.7479 3
      vertex 3 42.7667 3
      vertex 18.85 42.7667 3
    endloop
  endfacet
  facet normal 0 1 -0
    outer loop
      vertex 18.85 42.7667 3
      vertex 3 42.7667 9.95
      vertex 18.85 42.7667 9.95
    endloop
  endfacet
  facet normal 0 1 0
    outer loop
      vertex 3 42.7667 9.95
      vertex 18.85 42.7667 3
      vertex 3 42.7667 3
    endloop
  endfacet
  facet normal -1 0 0
    outer loop
      vertex 14.8875 44.7479 0
      vertex 14.8875 56.6354 3
      vertex 14.8875 56.6354 0
    endloop
  endfacet
  facet normal -1 -0 0
    outer loop
      vertex 14.8875 56.6354 3
      vertex 14.8875 44.7479 0
      vertex 14.8875 44.7479 3
    endloop
  endfacet
  facet normal 0 -1 0
    outer loop
      vertex 0 56.6354 9.95
      vertex 3 56.6354 3
      vertex 3 56.6354 9.95
    endloop
  endfacet
  facet normal 0 -1 0
    outer loop
      vertex 0 56.6354 0
      vertex 3 56.6354 3
      vertex 0 56.6354 9.95
    endloop
  endfacet
  facet normal 0 -1 0
    outer loop
      vertex 14.8875 56.6354 0
      vertex 3 56.6354 3
      vertex 0 56.6354 0
    endloop
  endfacet
  facet normal 0 -1 0
    outer loop
      vertex 3 56.6354 3
      vertex 14.8875 56.6354 0
      vertex 14.8875 56.6354 3
    endloop
  endfacet
  facet normal 0 1 0
    outer loop
      vertex 14.8875 44.7479 3
      vertex 14.8875 44.7479 0
      vertex 3 44.7479 3
    endloop
  endfacet
  facet normal 0 1 -0
    outer loop
      vertex 3 44.7479 3
      vertex 0 44.7479 9.95
      vertex 3 44.7479 9.95
    endloop
  endfacet
  facet normal 0 1 0
    outer loop
      vertex 3 44.7479 3
      vertex 0 44.7479 0
      vertex 0 44.7479 9.95
    endloop
  endfacet
  facet normal 0 1 0
    outer loop
      vertex 0 44.7479 0
      vertex 3 44.7479 3
      vertex 14.8875 44.7479 0
    endloop
  endfacet
  facet normal -1 0 0
    outer loop
      vertex 62 35.2521 3
      vertex 62 37.2333 9.95
      vertex 62 37.2333 3
    endloop
  endfacet
  facet normal -1 -0 0
    outer loop
      vertex 62 37.2333 9.95
      vertex 62 35.2521 3
      vertex 62 35.2521 9.95
    endloop
  endfacet
  facet normal -1 0 0
    outer loop
      vertex 62 21.3833 3
      vertex 62 23.3646 9.95
      vertex 62 23.3646 3
    endloop
  endfacet
  facet normal -1 -0 0
    outer loop
      vertex 62 23.3646 9.95
      vertex 62 21.3833 3
      vertex 62 21.3833 9.95
    endloop
  endfacet
  facet normal 1 -0 0
    outer loop
      vertex 46.15 21.3833 9.95
      vertex 46.15 37.2333 3
      vertex 46.15 37.2333 9.95
    endloop
  endfacet
  facet normal 1 0 0
    outer loop
      vertex 46.15 37.2333 3
      vertex 46.15 21.3833 9.95
      vertex 46.15 21.3833 3
    endloop
  endfacet
  facet normal 0 1 -0
    outer loop
      vertex 62 21.3833 3
      vertex 46.15 21.3833 9.95
      vertex 62 21.3833 9.95
    endloop
  endfacet
  facet normal 0 1 0
    outer loop
      vertex 46.15 21.3833 9.95
      vertex 62 21.3833 3
      vertex 46.15 21.3833 3
    endloop
  endfacet
  facet normal 0 0 1
    outer loop
      vertex 62 37.2333 3
      vertex 50.1125 35.2521 3
      vertex 62 35.2521 3
    endloop
  endfacet
  facet normal 0 0 1
    outer loop
      vertex 50.1125 35.2521 3
      vertex 46.15 37.2333 3
      vertex 50.1125 23.3646 3
    endloop
  endfacet
  facet normal -0 0 1
    outer loop
      vertex 46.15 37.2333 3
      vertex 50.1125 35.2521 3
      vertex 62 37.2333 3
    endloop
  endfacet
  facet normal -0 0 1
    outer loop
      vertex 50.1125 23.3646 3
      vertex 62 21.3833 3
      vertex 62 23.3646 3
    endloop
  endfacet
  facet normal 0 0 1
    outer loop
      vertex 50.1125 23.3646 3
      vertex 46.15 21.3833 3
      vertex 62 21.3833 3
    endloop
  endfacet
  facet normal 0 0 1
    outer loop
      vertex 46.15 21.3833 3
      vertex 50.1125 23.3646 3
      vertex 46.15 37.2333 3
    endloop
  endfacet
  facet normal 0 -1 0
    outer loop
      vertex 46.15 37.2333 3
      vertex 62 37.2333 9.95
      vertex 46.15 37.2333 9.95
    endloop
  endfacet
  facet normal 0 -1 -0
    outer loop
      vertex 62 37.2333 9.95
      vertex 46.15 37.2333 3
      vertex 62 37.2333 3
    endloop
  endfacet
  facet normal 1 -0 0
    outer loop
      vertex 50.1125 23.3646 3
      vertex 50.1125 35.2521 0
      vertex 50.1125 35.2521 3
    endloop
  endfacet
  facet normal 1 0 0
    outer loop
      vertex 50.1125 35.2521 0
      vertex 50.1125 23.3646 3
      vertex 50.1125 23.3646 0
    endloop
  endfacet
  facet normal 0 1 0
    outer loop
      vertex 65 23.3646 9.95
      vertex 62 23.3646 3
      vertex 62 23.3646 9.95
    endloop
  endfacet
  facet normal 0 1 -0
    outer loop
      vertex 65 23.3646 0
      vertex 62 23.3646 3
      vertex 65 23.3646 9.95
    endloop
  endfacet
  facet normal 0 1 0
    outer loop
      vertex 50.1125 23.3646 0
      vertex 62 23.3646 3
      vertex 65 23.3646 0
    endloop
  endfacet
  facet normal 0 1 0
    outer loop
      vertex 62 23.3646 3
      vertex 50.1125 23.3646 0
      vertex 50.1125 23.3646 3
    endloop
  endfacet
  facet normal 0 -1 0
    outer loop
      vertex 50.1125 35.2521 3
      vertex 50.1125 35.2521 0
      vertex 62 35.2521 3
    endloop
  endfacet
  facet normal 0 -1 0
    outer loop
      vertex 62 35.2521 3
      vertex 65 35.2521 9.95
      vertex 62 35.2521 9.95
    endloop
  endfacet
  facet normal 0 -1 0
    outer loop
      vertex 62 35.2521 3
      vertex 65 35.2521 0
      vertex 65 35.2521 9.95
    endloop
  endfacet
  facet normal 0 -1 0
    outer loop
      vertex 65 35.2521 0
      vertex 62 35.2521 3
      vertex 50.1125 35.2521 0
    endloop
  endfacet
  facet normal -1 0 0
    outer loop
      vertex 62 56.6354 3
      vertex 62 58.6167 9.95
      vertex 62 58.6167 3
    endloop
  endfacet
  facet normal -1 -0 0
    outer loop
      vertex 62 58.6167 9.95
      vertex 62 56.6354 3
      vertex 62 56.6354 9.95
    endloop
  endfacet
  facet normal -1 0 0
    outer loop
      vertex 62 42.7667 3
      vertex 62 44.7479 9.95
      vertex 62 44.7479 3
    endloop
  endfacet
  facet normal -1 -0 0
    outer loop
      vertex 62 44.7479 9.95
      vertex 62 42.7667 3
      vertex 62 42.7667 9.95
    endloop
  endfacet
  facet normal 1 -0 0
    outer loop
      vertex 46.15 42.7667 9.95
      vertex 46.15 58.6167 3
      vertex 46.15 58.6167 9.95
    endloop
  endfacet
  facet normal 1 0 0
    outer loop
      vertex 46.15 58.6167 3
      vertex 46.15 42.7667 9.95
      vertex 46.15 42.7667 3
    endloop
  endfacet
  facet normal 0 1 -0
    outer loop
      vertex 62 42.7667 3
      vertex 46.15 42.7667 9.95
      vertex 62 42.7667 9.95
    endloop
  endfacet
  facet normal 0 1 0
    outer loop
      vertex 46.15 42.7667 9.95
      vertex 62 42.7667 3
      vertex 46.15 42.7667 3
    endloop
  endfacet
  facet normal 0 0 1
    outer loop
      vertex 62 58.6167 3
      vertex 50.1125 56.6354 3
      vertex 62 56.6354 3
    endloop
  endfacet
  facet normal 0 0 1
    outer loop
      vertex 50.1125 56.6354 3
      vertex 46.15 58.6167 3
      vertex 50.1125 44.7479 3
    endloop
  endfacet
  facet normal -0 0 1
    outer loop
      vertex 46.15 58.6167 3
      vertex 50.1125 56.6354 3
      vertex 62 58.6167 3
    endloop
  endfacet
  facet normal -0 0 1
    outer loop
      vertex 50.1125 44.7479 3
      vertex 62 42.7667 3
      vertex 62 44.7479 3
    endloop
  endfacet
  facet normal 0 0 1
    outer loop
      vertex 50.1125 44.7479 3
      vertex 46.15 42.7667 3
      vertex 62 42.7667 3
    endloop
  endfacet
  facet normal 0 0 1
    outer loop
      vertex 46.15 42.7667 3
      vertex 50.1125 44.7479 3
      vertex 46.15 58.6167 3
    endloop
  endfacet
  facet normal 0 -1 0
    outer loop
      vertex 46.15 58.6167 3
      vertex 62 58.6167 9.95
      vertex 46.15 58.6167 9.95
    endloop
  endfacet
  facet normal 0 -1 -0
    outer loop
      vertex 62 58.6167 9.95
      vertex 46.15 58.6167 3
      vertex 62 58.6167 3
    endloop
  endfacet
  facet normal 1 -0 0
    outer loop
      vertex 50.1125 44.7479 3
      vertex 50.1125 56.6354 0
      vertex 50.1125 56.6354 3
    endloop
  endfacet
  facet normal 1 0 0
    outer loop
      vertex 50.1125 56.6354 0
      vertex 50.1125 44.7479 3
      vertex 50.1125 44.7479 0
    endloop
  endfacet
  facet normal 0 1 0
    outer loop
      vertex 65 44.7479 9.95
      vertex 62 44.7479 3
      vertex 62 44.7479 9.95
    endloop
  endfacet
  facet normal 0 1 -0
    outer loop
      vertex 65 44.7479 0
      vertex 62 44.7479 3
      vertex 65 44.7479 9.95
    endloop
  endfacet
  facet normal 0 1 0
    outer loop
      vertex 50.1125 44.7479 0
      vertex 62 44.7479 3
      vertex 65 44.7479 0
    endloop
  endfacet
  facet normal 0 1 0
    outer loop
      vertex 62 44.7479 3
      vertex 50.1125 44.7479 0
      vertex 50.1125 44.7479 3
    endloop
  endfacet
  facet normal 0 -1 0
    outer loop
      vertex 50.1125 56.6354 3
      vertex 50.1125 56.6354 0
      vertex 62 56.6354 3
    endloop
  endfacet
  facet normal 0 -1 0
    outer loop
      vertex 62 56.6354 3
      vertex 65 56.6354 9.95
      vertex 62 56.6354 9.95
    endloop
  endfacet
  facet normal 0 -1 0
    outer loop
      vertex 62 56.6354 3
      vertex 65 56.6354 0
      vertex 65 56.6354 9.95
    endloop
  endfacet
  facet normal 0 -1 0
    outer loop
      vertex 65 56.6354 0
      vertex 62 56.6354 3
      vertex 50.1125 56.6354 0
    endloop
  endfacet
  facet normal -1 0 0
    outer loop
      vertex 0 0 0
      vertex 0 23.3646 9.95
      vertex 0 23.3646 0
    endloop
  endfacet
  facet normal -1 -0 0
    outer loop
      vertex 0 23.3646 9.95
      vertex 0 0 0
      vertex 0 0 9.95
    endloop
  endfacet
  facet normal -1 0 0
    outer loop
      vertex 0 56.6354 0
      vertex 0 80 9.95
      vertex 0 80 0
    endloop
  endfacet
  facet normal -1 -0 0
    outer loop
      vertex 0 80 9.95
      vertex 0 56.6354 0
      vertex 0 56.6354 9.95
    endloop
  endfacet
  facet normal -1 0 0
    outer loop
      vertex 0 35.2521 0
      vertex 0 44.7479 9.95
      vertex 0 44.7479 0
    endloop
  endfacet
  facet normal -1 -0 0
    outer loop
      vertex 0 44.7479 9.95
      vertex 0 35.2521 0
      vertex 0 35.2521 9.95
    endloop
  endfacet
  facet normal 1 -0 0
    outer loop
      vertex 65 0 9.95
      vertex 65 23.3646 0
      vertex 65 23.3646 9.95
    endloop
  endfacet
  facet normal 1 0 0
    outer loop
      vertex 65 23.3646 0
      vertex 65 0 9.95
      vertex 65 0 0
    endloop
  endfacet
  facet normal 1 -0 0
    outer loop
      vertex 65 56.6354 9.95
      vertex 65 80 0
      vertex 65 80 9.95
    endloop
  endfacet
  facet normal 1 0 0
    outer loop
      vertex 65 80 0
      vertex 65 56.6354 9.95
      vertex 65 56.6354 0
    endloop
  endfacet
  facet normal 1 -0 0
    outer loop
      vertex 65 35.2521 9.95
      vertex 65 44.7479 0
      vertex 65 44.7479 9.95
    endloop
  endfacet
  facet normal 1 0 0
    outer loop
      vertex 65 44.7479 0
      vertex 65 35.2521 9.95
      vertex 65 35.2521 0
    endloop
  endfacet
  facet normal 0 -1 0
    outer loop
      vertex 0 0 0
      vertex 13.0813 0 9.95
      vertex 0 0 9.95
    endloop
  endfacet
  facet normal 0 -1 -0
    outer loop
      vertex 13.0813 0 9.95
      vertex 0 0 0
      vertex 13.0813 0 0
    endloop
  endfacet
  facet normal 0 -1 0
    outer loop
      vertex 51.9188 0 0
      vertex 65 0 9.95
      vertex 51.9188 0 9.95
    endloop
  endfacet
  facet normal 0 -1 -0
    outer loop
      vertex 65 0 9.95
      vertex 51.9188 0 0
      vertex 65 0 0
    endloop
  endfacet
  facet normal 0 -1 0
    outer loop
      vertex 24.9688 0 0
      vertex 40.0312 0 9.95
      vertex 24.9688 0 9.95
    endloop
  endfacet
  facet normal 0 -1 -0
    outer loop
      vertex 40.0312 0 9.95
      vertex 24.9688 0 0
      vertex 40.0312 0 0
    endloop
  endfacet
  facet normal 0 1 -0
    outer loop
      vertex 65 80 0
      vertex 58.6562 80 9.95
      vertex 65 80 9.95
    endloop
  endfacet
  facet normal 0 1 0
    outer loop
      vertex 58.6562 80 9.95
      vertex 65 80 0
      vertex 58.6562 80 0
    endloop
  endfacet
  facet normal 0 1 -0
    outer loop
      vertex 6.34375 80 0
      vertex 0 80 9.95
      vertex 6.34375 80 9.95
    endloop
  endfacet
  facet normal 0 1 0
    outer loop
      vertex 0 80 9.95
      vertex 6.34375 80 0
      vertex 0 80 0
    endloop
  endfacet
  facet normal 0 1 -0
    outer loop
      vertex 26.5562 80 0
      vertex 18.2312 80 9.95
      vertex 26.5562 80 9.95
    endloop
  endfacet
  facet normal 0 1 0
    outer loop
      vertex 18.2312 80 9.95
      vertex 26.5562 80 0
      vertex 18.2312 80 0
    endloop
  endfacet
  facet normal 0 1 -0
    outer loop
      vertex 46.7687 80 0
      vertex 38.4437 80 9.95
      vertex 46.7687 80 9.95
    endloop
  endfacet
  facet normal 0 1 0
    outer loop
      vertex 38.4437 80 9.95
      vertex 46.7687 80 0
      vertex 38.4437 80 0
    endloop
  endfacet
  facet normal 1 -0 0
    outer loop
      vertex 23 30.5 9.95
      vertex 23 49.5 0
      vertex 23 49.5 9.95
    endloop
  endfacet
  facet normal 1 0 0
    outer loop
      vertex 23 49.5 0
      vertex 23 30.5 9.95
      vertex 23 30.5 0
    endloop
  endfacet
  facet normal -1 0 0
    outer loop
      vertex 42 30.5 0
      vertex 42 49.5 9.95
      vertex 42 49.5 0
    endloop
  endfacet
  facet normal -1 -0 0
    outer loop
      vertex 42 49.5 9.95
      vertex 42 30.5 0
      vertex 42 30.5 9.95
    endloop
  endfacet
  facet normal 0 -1 0
    outer loop
      vertex 23 49.5 0
      vertex 42 49.5 9.95
      vertex 23 49.5 9.95
    endloop
  endfacet
  facet normal 0 -1 -0
    outer loop
      vertex 42 49.5 9.95
      vertex 23 49.5 0
      vertex 42 49.5 0
    endloop
  endfacet
  facet normal 0 1 -0
    outer loop
      vertex 42 30.5 0
      vertex 23 30.5 9.95
      vertex 42 30.5 9.95
    endloop
  endfacet
  facet normal 0 1 0
    outer loop
      vertex 23 30.5 9.95
      vertex 42 30.5 0
      vertex 23 30.5 0
    endloop
  endfacet
endsolid OpenSCAD_Model
