solid OpenSCAD_Model
  facet normal 0.248902 0.968529 -0
    outer loop
      vertex 93.618 94.9021 0
      vertex 93.3748 94.9646 3
      vertex 93.618 94.9021 3
    endloop
  endfacet
  facet normal 0.248902 0.968529 0
    outer loop
      vertex 93.3748 94.9646 3
      vertex 93.618 94.9021 0
      vertex 93.3748 94.9646 0
    endloop
  endfacet
  facet normal 0 0 1
    outer loop
      vertex 93.1256 94.9961 3
      vertex 95 93 3
      vertex 94.9842 93.2507 3
    endloop
  endfacet
  facet normal 0 0 1
    outer loop
      vertex 95 93 3
      vertex 56.5 56.5 3
      vertex 95 2 3
    endloop
  endfacet
  facet normal 0 0 1
    outer loop
      vertex 93.1256 94.9961 3
      vertex 94.9842 93.2507 3
      vertex 94.9372 93.4974 3
    endloop
  endfacet
  facet normal -0 0 1
    outer loop
      vertex 56.5 38.5 3
      vertex 95 2 3
      vertex 56.5 56.5 3
    endloop
  endfacet
  facet normal 0 0 1
    outer loop
      vertex 93.1256 94.9961 3
      vertex 94.9372 93.4974 3
      vertex 94.8596 93.7363 3
    endloop
  endfacet
  facet normal 0 -0 1
    outer loop
      vertex 93.1256 0.00394726 3
      vertex 95 2 3
      vertex 56.5 38.5 3
    endloop
  endfacet
  facet normal 0 0 1
    outer loop
      vertex 93.1256 94.9961 3
      vertex 94.8596 93.7363 3
      vertex 94.7526 93.9635 3
    endloop
  endfacet
  facet normal 0 0 1
    outer loop
      vertex 95 2 3
      vertex 93.1256 0.00394726 3
      vertex 94.9842 1.74933 3
    endloop
  endfacet
  facet normal 0 0 1
    outer loop
      vertex 93.1256 94.9961 3
      vertex 94.7526 93.9635 3
      vertex 94.618 94.1756 3
    endloop
  endfacet
  facet normal 0 0 1
    outer loop
      vertex 94.9842 1.74933 3
      vertex 93.1256 0.00394726 3
      vertex 94.9372 1.50262 3
    endloop
  endfacet
  facet normal 0 0 1
    outer loop
      vertex 93.1256 94.9961 3
      vertex 94.618 94.1756 3
      vertex 94.4579 94.3691 3
    endloop
  endfacet
  facet normal 0 0 1
    outer loop
      vertex 94.9372 1.50262 3
      vertex 93.1256 0.00394726 3
      vertex 94.8596 1.26375 3
    endloop
  endfacet
  facet normal 0 0 1
    outer loop
      vertex 93.1256 94.9961 3
      vertex 94.4579 94.3691 3
      vertex 94.2748 94.541 3
    endloop
  endfacet
  facet normal 0 0 1
    outer loop
      vertex 94.8596 1.26375 3
      vertex 93.1256 0.00394726 3
      vertex 94.7526 1.03649 3
    endloop
  endfacet
  facet normal 0 0 1
    outer loop
      vertex 93.1256 94.9961 3
      vertex 94.2748 94.541 3
      vertex 94.0717 94.6887 3
    endloop
  endfacet
  facet normal 0 0 1
    outer loop
      vertex 94.7526 1.03649 3
      vertex 93.1256 0.00394726 3
      vertex 94.618 0.82443 3
    endloop
  endfacet
  facet normal 0 0 1
    outer loop
      vertex 93.1256 94.9961 3
      vertex 94.0717 94.6887 3
      vertex 93.8516 94.8097 3
    endloop
  endfacet
  facet normal 0 0 1
    outer loop
      vertex 94.618 0.82443 3
      vertex 93.1256 0.00394726 3
      vertex 94.4579 0.630906 3
    endloop
  endfacet
  facet normal 0 0 1
    outer loop
      vertex 93.1256 94.9961 3
      vertex 93.8516 94.8097 3
      vertex 93.618 94.9021 3
    endloop
  endfacet
  facet normal 0 0 1
    outer loop
      vertex 94.4579 0.630906 3
      vertex 93.1256 0.00394726 3
      vertex 94.2748 0.458974 3
    endloop
  endfacet
  facet normal 0 0 1
    outer loop
      vertex 93.1256 94.9961 3
      vertex 93.618 94.9021 3
      vertex 93.3748 94.9646 3
    endloop
  endfacet
  facet normal 0 0 1
    outer loop
      vertex 94.2748 0.458974 3
      vertex 93.1256 0.00394726 3
      vertex 94.0717 0.311345 3
    endloop
  endfacet
  facet normal 0 0 1
    outer loop
      vertex 95 93 3
      vertex 93.1256 94.9961 3
      vertex 56.5 56.5 3
    endloop
  endfacet
  facet normal 0 0 1
    outer loop
      vertex 94.0717 0.311345 3
      vertex 93.1256 0.00394726 3
      vertex 93.8516 0.190347 3
    endloop
  endfacet
  facet normal 0 0 1
    outer loop
      vertex 93.8516 0.190347 3
      vertex 93.1256 0.00394726 3
      vertex 93.618 0.097887 3
    endloop
  endfacet
  facet normal 0 0 1
    outer loop
      vertex 93.1256 94.9961 3
      vertex 38.5 56.5 3
      vertex 56.5 56.5 3
    endloop
  endfacet
  facet normal -0 0 1
    outer loop
      vertex 0 93 3
      vertex 38.5 56.5 3
      vertex 1.87442 94.9961 3
    endloop
  endfacet
  facet normal -0 0 1
    outer loop
      vertex 1.87442 94.9961 3
      vertex 38.5 56.5 3
      vertex 93.1256 94.9961 3
    endloop
  endfacet
  facet normal 0 0 1
    outer loop
      vertex 93.618 0.097887 3
      vertex 93.1256 0.00394726 3
      vertex 93.3748 0.0354261 3
    endloop
  endfacet
  facet normal -0 0 1
    outer loop
      vertex 38.5 38.5 3
      vertex 93.1256 0.00394726 3
      vertex 56.5 38.5 3
    endloop
  endfacet
  facet normal 0 0 1
    outer loop
      vertex 38.5 38.5 3
      vertex 1.87442 0.00394726 3
      vertex 93.1256 0.00394726 3
    endloop
  endfacet
  facet normal 0 0 1
    outer loop
      vertex 38.5 56.5 3
      vertex 0 93 3
      vertex 38.5 38.5 3
    endloop
  endfacet
  facet normal 0 0 1
    outer loop
      vertex 0 93 3
      vertex 1.87442 94.9961 3
      vertex 1.62524 94.9646 3
    endloop
  endfacet
  facet normal 0 0 1
    outer loop
      vertex 0 2 3
      vertex 38.5 38.5 3
      vertex 0 93 3
    endloop
  endfacet
  facet normal 0 0 1
    outer loop
      vertex 0 93 3
      vertex 1.62524 94.9646 3
      vertex 1.38197 94.9021 3
    endloop
  endfacet
  facet normal 0 0 1
    outer loop
      vertex 38.5 38.5 3
      vertex 0 2 3
      vertex 1.87442 0.00394726 3
    endloop
  endfacet
  facet normal 0 0 1
    outer loop
      vertex 0 93 3
      vertex 1.38197 94.9021 3
      vertex 1.14844 94.8097 3
    endloop
  endfacet
  facet normal 0 0 1
    outer loop
      vertex 1.87442 0.00394726 3
      vertex 0 2 3
      vertex 1.62524 0.0354261 3
    endloop
  endfacet
  facet normal 0 0 1
    outer loop
      vertex 0 93 3
      vertex 1.14844 94.8097 3
      vertex 0.928347 94.6887 3
    endloop
  endfacet
  facet normal 0 0 1
    outer loop
      vertex 1.62524 0.0354261 3
      vertex 0 2 3
      vertex 1.38197 0.097887 3
    endloop
  endfacet
  facet normal 0 0 1
    outer loop
      vertex 0 93 3
      vertex 0.928347 94.6887 3
      vertex 0.725153 94.541 3
    endloop
  endfacet
  facet normal 0 0 1
    outer loop
      vertex 1.38197 0.097887 3
      vertex 0 2 3
      vertex 1.14844 0.190347 3
    endloop
  endfacet
  facet normal 0 0 1
    outer loop
      vertex 0 93 3
      vertex 0.725153 94.541 3
      vertex 0.542063 94.3691 3
    endloop
  endfacet
  facet normal 0 0 1
    outer loop
      vertex 1.14844 0.190347 3
      vertex 0 2 3
      vertex 0.928347 0.311345 3
    endloop
  endfacet
  facet normal 0 0 1
    outer loop
      vertex 0 93 3
      vertex 0.542063 94.3691 3
      vertex 0.381967 94.1756 3
    endloop
  endfacet
  facet normal 0 0 1
    outer loop
      vertex 0.928347 0.311345 3
      vertex 0 2 3
      vertex 0.725153 0.458974 3
    endloop
  endfacet
  facet normal 0 0 1
    outer loop
      vertex 0 93 3
      vertex 0.381967 94.1756 3
      vertex 0.247387 93.9635 3
    endloop
  endfacet
  facet normal 0 0 1
    outer loop
      vertex 0.725153 0.458974 3
      vertex 0 2 3
      vertex 0.542063 0.630906 3
    endloop
  endfacet
  facet normal 0 0 1
    outer loop
      vertex 0 93 3
      vertex 0.247387 93.9635 3
      vertex 0.140448 93.7363 3
    endloop
  endfacet
  facet normal 0 0 1
    outer loop
      vertex 0.542063 0.630906 3
      vertex 0 2 3
      vertex 0.381967 0.82443 3
    endloop
  endfacet
  facet normal 0 0 1
    outer loop
      vertex 0 93 3
      vertex 0.140448 93.7363 3
      vertex 0.0628338 93.4974 3
    endloop
  endfacet
  facet normal 0 0 1
    outer loop
      vertex 0.381967 0.82443 3
      vertex 0 2 3
      vertex 0.247387 1.03649 3
    endloop
  endfacet
  facet normal 0 0 1
    outer loop
      vertex 0 93 3
      vertex 0.0628338 93.4974 3
      vertex 0.0157709 93.2507 3
    endloop
  endfacet
  facet normal 0 0 1
    outer loop
      vertex 0.247387 1.03649 3
      vertex 0 2 3
      vertex 0.140448 1.26375 3
    endloop
  endfacet
  facet normal 0 0 1
    outer loop
      vertex 0.140448 1.26375 3
      vertex 0 2 3
      vertex 0.0628338 1.50262 3
    endloop
  endfacet
  facet normal 0 0 1
    outer loop
      vertex 0.0628338 1.50262 3
      vertex 0 2 3
      vertex 0.0157709 1.74933 3
    endloop
  endfacet
  facet normal 0 1 -0
    outer loop
      vertex 93.1256 94.9961 0
      vertex 1.87442 94.9961 3
      vertex 93.1256 94.9961 3
    endloop
  endfacet
  facet normal 0 1 0
    outer loop
      vertex 1.87442 94.9961 3
      vertex 93.1256 94.9961 0
      vertex 1.87442 94.9961 0
    endloop
  endfacet
  facet normal 0.125407 0.992105 -0
    outer loop
      vertex 93.3748 94.9646 0
      vertex 93.1256 94.9961 3
      vertex 93.3748 94.9646 3
    endloop
  endfacet
  facet normal 0.125407 0.992105 0
    outer loop
      vertex 93.1256 94.9961 3
      vertex 93.3748 94.9646 0
      vertex 93.1256 94.9961 0
    endloop
  endfacet
  facet normal 1 -0 0
    outer loop
      vertex 95 2 3
      vertex 95 93 0
      vertex 95 93 3
    endloop
  endfacet
  facet normal 1 0 0
    outer loop
      vertex 95 93 0
      vertex 95 2 3
      vertex 95 2 0
    endloop
  endfacet
  facet normal 0 -1 0
    outer loop
      vertex 1.87442 0.00394726 0
      vertex 93.1256 0.00394726 3
      vertex 1.87442 0.00394726 3
    endloop
  endfacet
  facet normal 0 -1 -0
    outer loop
      vertex 93.1256 0.00394726 3
      vertex 1.87442 0.00394726 0
      vertex 93.1256 0.00394726 0
    endloop
  endfacet
  facet normal -1 0 0
    outer loop
      vertex 0 2 0
      vertex 0 93 3
      vertex 0 93 0
    endloop
  endfacet
  facet normal -1 -0 0
    outer loop
      vertex 0 93 3
      vertex 0 2 0
      vertex 0 2 3
    endloop
  endfacet
  facet normal 0.367819 0.929897 -0
    outer loop
      vertex 93.8516 94.8097 0
      vertex 93.618 94.9021 3
      vertex 93.8516 94.8097 3
    endloop
  endfacet
  facet normal 0.367819 0.929897 0
    outer loop
      vertex 93.618 94.9021 3
      vertex 93.8516 94.8097 0
      vertex 93.618 94.9021 0
    endloop
  endfacet
  facet normal 0.587963 -0.808888 0
    outer loop
      vertex 94.0717 0.311345 0
      vertex 94.2748 0.458974 3
      vertex 94.0717 0.311345 3
    endloop
  endfacet
  facet normal 0.587963 -0.808888 0
    outer loop
      vertex 94.2748 0.458974 3
      vertex 94.0717 0.311345 0
      vertex 94.2748 0.458974 0
    endloop
  endfacet
  facet normal -0.368121 -0.929778 0
    outer loop
      vertex 1.14844 0.190347 0
      vertex 1.38197 0.097887 3
      vertex 1.14844 0.190347 3
    endloop
  endfacet
  facet normal -0.368121 -0.929778 -0
    outer loop
      vertex 1.38197 0.097887 3
      vertex 1.14844 0.190347 0
      vertex 1.38197 0.097887 0
    endloop
  endfacet
  facet normal -0.481762 0.876302 0
    outer loop
      vertex 1.14844 94.8097 0
      vertex 0.928347 94.6887 3
      vertex 1.14844 94.8097 3
    endloop
  endfacet
  facet normal -0.481762 0.876302 0
    outer loop
      vertex 0.928347 94.6887 3
      vertex 1.14844 94.8097 0
      vertex 0.928347 94.6887 0
    endloop
  endfacet
  facet normal -0.367914 0.92986 0
    outer loop
      vertex 1.38197 94.9021 0
      vertex 1.14844 94.8097 3
      vertex 1.38197 94.9021 3
    endloop
  endfacet
  facet normal -0.367914 0.92986 0
    outer loop
      vertex 1.14844 94.8097 3
      vertex 1.38197 94.9021 0
      vertex 1.14844 94.8097 0
    endloop
  endfacet
  facet normal -0.125334 -0.992115 0
    outer loop
      vertex 1.62524 0.0354261 0
      vertex 1.87442 0.00394726 3
      vertex 1.62524 0.0354261 3
    endloop
  endfacet
  facet normal -0.125334 -0.992115 -0
    outer loop
      vertex 1.87442 0.00394726 3
      vertex 1.62524 0.0354261 0
      vertex 1.87442 0.00394726 0
    endloop
  endfacet
  facet normal 0.982332 0.187149 0
    outer loop
      vertex 94.9842 93.2507 3
      vertex 94.9372 93.4974 0
      vertex 94.9372 93.4974 3
    endloop
  endfacet
  facet normal 0.982332 0.187149 0
    outer loop
      vertex 94.9372 93.4974 0
      vertex 94.9842 93.2507 3
      vertex 94.9842 93.2507 0
    endloop
  endfacet
  facet normal 0.951084 0.308933 0
    outer loop
      vertex 94.9372 93.4974 3
      vertex 94.8596 93.7363 0
      vertex 94.8596 93.7363 3
    endloop
  endfacet
  facet normal 0.951084 0.308933 0
    outer loop
      vertex 94.8596 93.7363 0
      vertex 94.9372 93.4974 3
      vertex 94.9372 93.4974 0
    endloop
  endfacet
  facet normal 0.951072 -0.308968 0
    outer loop
      vertex 94.8596 1.26375 3
      vertex 94.9372 1.50262 0
      vertex 94.9372 1.50262 3
    endloop
  endfacet
  facet normal 0.951072 -0.308968 0
    outer loop
      vertex 94.9372 1.50262 0
      vertex 94.8596 1.26375 3
      vertex 94.8596 1.26375 0
    endloop
  endfacet
  facet normal 0.368026 -0.929816 0
    outer loop
      vertex 93.618 0.097887 0
      vertex 93.8516 0.190347 3
      vertex 93.618 0.097887 3
    endloop
  endfacet
  facet normal 0.368026 -0.929816 0
    outer loop
      vertex 93.8516 0.190347 3
      vertex 93.618 0.097887 0
      vertex 93.8516 0.190347 0
    endloop
  endfacet
  facet normal 0.481745 -0.876312 0
    outer loop
      vertex 93.8516 0.190347 0
      vertex 94.0717 0.311345 3
      vertex 93.8516 0.190347 3
    endloop
  endfacet
  facet normal 0.481745 -0.876312 0
    outer loop
      vertex 94.0717 0.311345 3
      vertex 93.8516 0.190347 0
      vertex 94.0717 0.311345 0
    endloop
  endfacet
  facet normal -0.844323 -0.535834 0
    outer loop
      vertex 0.381967 0.82443 0
      vertex 0.247387 1.03649 3
      vertex 0.247387 1.03649 0
    endloop
  endfacet
  facet normal -0.844323 -0.535834 0
    outer loop
      vertex 0.247387 1.03649 3
      vertex 0.381967 0.82443 0
      vertex 0.381967 0.82443 3
    endloop
  endfacet
  facet normal -0.844369 0.535762 0
    outer loop
      vertex 0.247387 93.9635 0
      vertex 0.381967 94.1756 3
      vertex 0.381967 94.1756 0
    endloop
  endfacet
  facet normal -0.844369 0.535762 0
    outer loop
      vertex 0.381967 94.1756 3
      vertex 0.247387 93.9635 0
      vertex 0.247387 93.9635 3
    endloop
  endfacet
  facet normal -0.904786 0.425867 0
    outer loop
      vertex 0.140448 93.7363 0
      vertex 0.247387 93.9635 3
      vertex 0.247387 93.9635 0
    endloop
  endfacet
  facet normal -0.904786 0.425867 0
    outer loop
      vertex 0.247387 93.9635 3
      vertex 0.140448 93.7363 0
      vertex 0.140448 93.7363 3
    endloop
  endfacet
  facet normal -0.684545 -0.728971 0
    outer loop
      vertex 0.542063 0.630906 0
      vertex 0.725153 0.458974 3
      vertex 0.542063 0.630906 3
    endloop
  endfacet
  facet normal -0.684545 -0.728971 -0
    outer loop
      vertex 0.725153 0.458974 3
      vertex 0.542063 0.630906 0
      vertex 0.725153 0.458974 0
    endloop
  endfacet
  facet normal -0.481756 -0.876305 0
    outer loop
      vertex 0.928347 0.311345 0
      vertex 1.14844 0.190347 3
      vertex 0.928347 0.311345 3
    endloop
  endfacet
  facet normal -0.481756 -0.876305 -0
    outer loop
      vertex 1.14844 0.190347 3
      vertex 0.928347 0.311345 0
      vertex 1.14844 0.190347 0
    endloop
  endfacet
  facet normal -0.587785 -0.809017 0
    outer loop
      vertex 0.725153 0.458974 0
      vertex 0.928347 0.311345 3
      vertex 0.725153 0.458974 3
    endloop
  endfacet
  facet normal -0.587785 -0.809017 -0
    outer loop
      vertex 0.928347 0.311345 3
      vertex 0.725153 0.458974 0
      vertex 0.928347 0.311345 0
    endloop
  endfacet
  facet normal -0.248689 -0.968583 0
    outer loop
      vertex 1.38197 0.097887 0
      vertex 1.62524 0.0354261 3
      vertex 1.38197 0.097887 3
    endloop
  endfacet
  facet normal -0.248689 -0.968583 -0
    outer loop
      vertex 1.62524 0.0354261 3
      vertex 1.38197 0.097887 0
      vertex 1.62524 0.0354261 0
    endloop
  endfacet
  facet normal -0.684477 0.729034 0
    outer loop
      vertex 0.725153 94.541 0
      vertex 0.542063 94.3691 3
      vertex 0.725153 94.541 3
    endloop
  endfacet
  facet normal -0.684477 0.729034 0
    outer loop
      vertex 0.542063 94.3691 3
      vertex 0.725153 94.541 0
      vertex 0.542063 94.3691 0
    endloop
  endfacet
  facet normal -0.58797 0.808883 0
    outer loop
      vertex 0.928347 94.6887 0
      vertex 0.725153 94.541 3
      vertex 0.928347 94.6887 3
    endloop
  endfacet
  facet normal -0.58797 0.808883 0
    outer loop
      vertex 0.725153 94.541 3
      vertex 0.928347 94.6887 0
      vertex 0.725153 94.541 0
    endloop
  endfacet
  facet normal -0.248835 0.968546 0
    outer loop
      vertex 1.62524 94.9646 0
      vertex 1.38197 94.9021 3
      vertex 1.62524 94.9646 3
    endloop
  endfacet
  facet normal -0.248835 0.968546 0
    outer loop
      vertex 1.38197 94.9021 3
      vertex 1.62524 94.9646 0
      vertex 1.38197 94.9021 0
    endloop
  endfacet
  facet normal -0.125416 0.992104 0
    outer loop
      vertex 1.87442 94.9961 0
      vertex 1.62524 94.9646 3
      vertex 1.87442 94.9961 3
    endloop
  endfacet
  facet normal -0.125416 0.992104 0
    outer loop
      vertex 1.62524 94.9646 3
      vertex 1.87442 94.9961 0
      vertex 1.62524 94.9646 0
    endloop
  endfacet
  facet normal 0.481751 0.876308 -0
    outer loop
      vertex 94.0717 94.6887 0
      vertex 93.8516 94.8097 3
      vertex 94.0717 94.6887 3
    endloop
  endfacet
  facet normal 0.481751 0.876308 0
    outer loop
      vertex 93.8516 94.8097 3
      vertex 94.0717 94.6887 0
      vertex 93.8516 94.8097 0
    endloop
  endfacet
  facet normal 0.588148 0.808753 -0
    outer loop
      vertex 94.2748 94.541 0
      vertex 94.0717 94.6887 3
      vertex 94.2748 94.541 3
    endloop
  endfacet
  facet normal 0.588148 0.808753 0
    outer loop
      vertex 94.0717 94.6887 3
      vertex 94.2748 94.541 0
      vertex 94.0717 94.6887 0
    endloop
  endfacet
  facet normal 0.99802 0.0628987 0
    outer loop
      vertex 95 93 3
      vertex 94.9842 93.2507 0
      vertex 94.9842 93.2507 3
    endloop
  endfacet
  facet normal 0.99802 0.0628987 0
    outer loop
      vertex 94.9842 93.2507 0
      vertex 95 93 3
      vertex 95 93 0
    endloop
  endfacet
  facet normal 0.770507 -0.637431 0
    outer loop
      vertex 94.4579 0.630906 3
      vertex 94.618 0.82443 0
      vertex 94.618 0.82443 3
    endloop
  endfacet
  facet normal 0.770507 -0.637431 0
    outer loop
      vertex 94.618 0.82443 0
      vertex 94.4579 0.630906 3
      vertex 94.4579 0.630906 0
    endloop
  endfacet
  facet normal 0.904736 -0.425973 0
    outer loop
      vertex 94.7526 1.03649 3
      vertex 94.8596 1.26375 0
      vertex 94.8596 1.26375 3
    endloop
  endfacet
  facet normal 0.904736 -0.425973 0
    outer loop
      vertex 94.8596 1.26375 0
      vertex 94.7526 1.03649 3
      vertex 94.7526 1.03649 0
    endloop
  endfacet
  facet normal 0.982333 -0.187141 0
    outer loop
      vertex 94.9372 1.50262 3
      vertex 94.9842 1.74933 0
      vertex 94.9842 1.74933 3
    endloop
  endfacet
  facet normal 0.982333 -0.187141 0
    outer loop
      vertex 94.9842 1.74933 0
      vertex 94.9372 1.50262 3
      vertex 94.9372 1.50262 0
    endloop
  endfacet
  facet normal 0.684525 -0.728989 0
    outer loop
      vertex 94.2748 0.458974 0
      vertex 94.4579 0.630906 3
      vertex 94.2748 0.458974 3
    endloop
  endfacet
  facet normal 0.684525 -0.728989 0
    outer loop
      vertex 94.4579 0.630906 3
      vertex 94.2748 0.458974 0
      vertex 94.4579 0.630906 0
    endloop
  endfacet
  facet normal 0.125324 -0.992116 0
    outer loop
      vertex 93.1256 0.00394726 0
      vertex 93.3748 0.0354261 3
      vertex 93.1256 0.00394726 3
    endloop
  endfacet
  facet normal 0.125324 -0.992116 0
    outer loop
      vertex 93.3748 0.0354261 3
      vertex 93.1256 0.00394726 0
      vertex 93.3748 0.0354261 0
    endloop
  endfacet
  facet normal 0.248756 -0.968566 0
    outer loop
      vertex 93.3748 0.0354261 0
      vertex 93.618 0.097887 3
      vertex 93.3748 0.0354261 3
    endloop
  endfacet
  facet normal 0.248756 -0.968566 0
    outer loop
      vertex 93.618 0.097887 3
      vertex 93.3748 0.0354261 0
      vertex 93.618 0.097887 0
    endloop
  endfacet
  facet normal -0.998027 -0.0627908 0
    outer loop
      vertex 0.0157709 1.74933 0
      vertex 0 2 3
      vertex 0 2 0
    endloop
  endfacet
  facet normal -0.998027 -0.0627908 0
    outer loop
      vertex 0 2 3
      vertex 0.0157709 1.74933 0
      vertex 0.0157709 1.74933 3
    endloop
  endfacet
  facet normal -0.951056 -0.309019 0
    outer loop
      vertex 0.140448 1.26375 0
      vertex 0.0628338 1.50262 3
      vertex 0.0628338 1.50262 0
    endloop
  endfacet
  facet normal -0.951056 -0.309019 0
    outer loop
      vertex 0.0628338 1.50262 3
      vertex 0.140448 1.26375 0
      vertex 0.140448 1.26375 3
    endloop
  endfacet
  facet normal -0.904829 -0.425775 0
    outer loop
      vertex 0.247387 1.03649 0
      vertex 0.140448 1.26375 3
      vertex 0.140448 1.26375 0
    endloop
  endfacet
  facet normal -0.904829 -0.425775 0
    outer loop
      vertex 0.140448 1.26375 3
      vertex 0.247387 1.03649 0
      vertex 0.247387 1.03649 3
    endloop
  endfacet
  facet normal -0.998027 0.0627834 0
    outer loop
      vertex 0 93 0
      vertex 0.0157709 93.2507 3
      vertex 0.0157709 93.2507 0
    endloop
  endfacet
  facet normal -0.998027 0.0627834 0
    outer loop
      vertex 0.0157709 93.2507 3
      vertex 0 93 0
      vertex 0 93 3
    endloop
  endfacet
  facet normal -0.951067 0.308984 0
    outer loop
      vertex 0.0628338 93.4974 0
      vertex 0.140448 93.7363 3
      vertex 0.140448 93.7363 0
    endloop
  endfacet
  facet normal -0.951067 0.308984 0
    outer loop
      vertex 0.140448 93.7363 3
      vertex 0.0628338 93.4974 0
      vertex 0.0628338 93.4974 3
    endloop
  endfacet
  facet normal -0.770476 0.637469 0
    outer loop
      vertex 0.381967 94.1756 0
      vertex 0.542063 94.3691 3
      vertex 0.542063 94.3691 0
    endloop
  endfacet
  facet normal -0.770476 0.637469 0
    outer loop
      vertex 0.542063 94.3691 3
      vertex 0.381967 94.1756 0
      vertex 0.381967 94.1756 3
    endloop
  endfacet
  facet normal 0.684458 0.729053 -0
    outer loop
      vertex 94.4579 94.3691 0
      vertex 94.2748 94.541 3
      vertex 94.4579 94.3691 3
    endloop
  endfacet
  facet normal 0.684458 0.729053 0
    outer loop
      vertex 94.2748 94.541 3
      vertex 94.4579 94.3691 0
      vertex 94.2748 94.541 0
    endloop
  endfacet
  facet normal 0.904692 0.426065 0
    outer loop
      vertex 94.8596 93.7363 3
      vertex 94.7526 93.9635 0
      vertex 94.7526 93.9635 3
    endloop
  endfacet
  facet normal 0.904692 0.426065 0
    outer loop
      vertex 94.7526 93.9635 0
      vertex 94.8596 93.7363 3
      vertex 94.8596 93.7363 0
    endloop
  endfacet
  facet normal 0.770468 0.637478 0
    outer loop
      vertex 94.618 94.1756 3
      vertex 94.4579 94.3691 0
      vertex 94.4579 94.3691 3
    endloop
  endfacet
  facet normal 0.770468 0.637478 0
    outer loop
      vertex 94.4579 94.3691 0
      vertex 94.618 94.1756 3
      vertex 94.618 94.1756 0
    endloop
  endfacet
  facet normal 0.844287 -0.535891 0
    outer loop
      vertex 94.618 0.82443 3
      vertex 94.7526 1.03649 0
      vertex 94.7526 1.03649 3
    endloop
  endfacet
  facet normal 0.844287 -0.535891 0
    outer loop
      vertex 94.7526 1.03649 0
      vertex 94.618 0.82443 3
      vertex 94.618 0.82443 0
    endloop
  endfacet
  facet normal 0.998019 -0.0629062 0
    outer loop
      vertex 94.9842 1.74933 3
      vertex 95 2 0
      vertex 95 2 3
    endloop
  endfacet
  facet normal 0.998019 -0.0629062 0
    outer loop
      vertex 95 2 0
      vertex 94.9842 1.74933 3
      vertex 94.9842 1.74933 0
    endloop
  endfacet
  facet normal 0 0 -1
    outer loop
      vertex 93.1256 0.00394726 0
      vertex 95 2 0
      vertex 94.9842 1.74933 0
    endloop
  endfacet
  facet normal 0 0 -1
    outer loop
      vertex 0 2 0
      vertex 95 2 0
      vertex 93.1256 0.00394726 0
    endloop
  endfacet
  facet normal 0 0 -1
    outer loop
      vertex 93.1256 0.00394726 0
      vertex 94.9842 1.74933 0
      vertex 94.9372 1.50262 0
    endloop
  endfacet
  facet normal 0 0 -1
    outer loop
      vertex 95 2 0
      vertex 0 2 0
      vertex 95 93 0
    endloop
  endfacet
  facet normal 0 0 -1
    outer loop
      vertex 93.1256 0.00394726 0
      vertex 94.9372 1.50262 0
      vertex 94.8596 1.26375 0
    endloop
  endfacet
  facet normal 0 0 -1
    outer loop
      vertex 95 93 0
      vertex 93.1256 94.9961 0
      vertex 94.9842 93.2507 0
    endloop
  endfacet
  facet normal 0 0 -1
    outer loop
      vertex 93.1256 0.00394726 0
      vertex 94.8596 1.26375 0
      vertex 94.7526 1.03649 0
    endloop
  endfacet
  facet normal 0 0 -1
    outer loop
      vertex 94.9842 93.2507 0
      vertex 93.1256 94.9961 0
      vertex 94.9372 93.4974 0
    endloop
  endfacet
  facet normal 0 0 -1
    outer loop
      vertex 93.1256 0.00394726 0
      vertex 94.7526 1.03649 0
      vertex 94.618 0.82443 0
    endloop
  endfacet
  facet normal 0 0 -1
    outer loop
      vertex 94.9372 93.4974 0
      vertex 93.1256 94.9961 0
      vertex 94.8596 93.7363 0
    endloop
  endfacet
  facet normal 0 0 -1
    outer loop
      vertex 93.1256 0.00394726 0
      vertex 94.618 0.82443 0
      vertex 94.4579 0.630906 0
    endloop
  endfacet
  facet normal 0 0 -1
    outer loop
      vertex 94.8596 93.7363 0
      vertex 93.1256 94.9961 0
      vertex 94.7526 93.9635 0
    endloop
  endfacet
  facet normal 0 0 -1
    outer loop
      vertex 93.1256 0.00394726 0
      vertex 94.4579 0.630906 0
      vertex 94.2748 0.458974 0
    endloop
  endfacet
  facet normal 0 0 -1
    outer loop
      vertex 94.7526 93.9635 0
      vertex 93.1256 94.9961 0
      vertex 94.618 94.1756 0
    endloop
  endfacet
  facet normal 0 0 -1
    outer loop
      vertex 93.1256 0.00394726 0
      vertex 94.2748 0.458974 0
      vertex 94.0717 0.311345 0
    endloop
  endfacet
  facet normal 0 0 -1
    outer loop
      vertex 94.618 94.1756 0
      vertex 93.1256 94.9961 0
      vertex 94.4579 94.3691 0
    endloop
  endfacet
  facet normal 0 0 -1
    outer loop
      vertex 93.1256 0.00394726 0
      vertex 94.0717 0.311345 0
      vertex 93.8516 0.190347 0
    endloop
  endfacet
  facet normal 0 0 -1
    outer loop
      vertex 94.4579 94.3691 0
      vertex 93.1256 94.9961 0
      vertex 94.2748 94.541 0
    endloop
  endfacet
  facet normal 0 0 -1
    outer loop
      vertex 93.1256 0.00394726 0
      vertex 93.8516 0.190347 0
      vertex 93.618 0.097887 0
    endloop
  endfacet
  facet normal 0 0 -1
    outer loop
      vertex 94.2748 94.541 0
      vertex 93.1256 94.9961 0
      vertex 94.0717 94.6887 0
    endloop
  endfacet
  facet normal 0 0 -1
    outer loop
      vertex 93.1256 0.00394726 0
      vertex 93.618 0.097887 0
      vertex 93.3748 0.0354261 0
    endloop
  endfacet
  facet normal 0 0 -1
    outer loop
      vertex 94.0717 94.6887 0
      vertex 93.1256 94.9961 0
      vertex 93.8516 94.8097 0
    endloop
  endfacet
  facet normal 0 0 -1
    outer loop
      vertex 93.8516 94.8097 0
      vertex 93.1256 94.9961 0
      vertex 93.618 94.9021 0
    endloop
  endfacet
  facet normal 0 0 -1
    outer loop
      vertex 93.618 94.9021 0
      vertex 93.1256 94.9961 0
      vertex 93.3748 94.9646 0
    endloop
  endfacet
  facet normal 0 0 -1
    outer loop
      vertex 0 2 0
      vertex 93.1256 0.00394726 0
      vertex 1.87442 0.00394726 0
    endloop
  endfacet
  facet normal 0 0 -1
    outer loop
      vertex 0 93 0
      vertex 95 93 0
      vertex 0 2 0
    endloop
  endfacet
  facet normal 0 0 -1
    outer loop
      vertex 0 2 0
      vertex 1.87442 0.00394726 0
      vertex 1.62524 0.0354261 0
    endloop
  endfacet
  facet normal 0 0 -1
    outer loop
      vertex 95 93 0
      vertex 0 93 0
      vertex 93.1256 94.9961 0
    endloop
  endfacet
  facet normal 0 0 -1
    outer loop
      vertex 0 2 0
      vertex 1.62524 0.0354261 0
      vertex 1.38197 0.097887 0
    endloop
  endfacet
  facet normal -0 0 -1
    outer loop
      vertex 93.1256 94.9961 0
      vertex 0 93 0
      vertex 1.87442 94.9961 0
    endloop
  endfacet
  facet normal 0 0 -1
    outer loop
      vertex 0 2 0
      vertex 1.38197 0.097887 0
      vertex 1.14844 0.190347 0
    endloop
  endfacet
  facet normal 0 0 -1
    outer loop
      vertex 1.87442 94.9961 0
      vertex 0 93 0
      vertex 1.62524 94.9646 0
    endloop
  endfacet
  facet normal 0 0 -1
    outer loop
      vertex 0 2 0
      vertex 1.14844 0.190347 0
      vertex 0.928347 0.311345 0
    endloop
  endfacet
  facet normal 0 0 -1
    outer loop
      vertex 1.62524 94.9646 0
      vertex 0 93 0
      vertex 1.38197 94.9021 0
    endloop
  endfacet
  facet normal 0 0 -1
    outer loop
      vertex 0 2 0
      vertex 0.928347 0.311345 0
      vertex 0.725153 0.458974 0
    endloop
  endfacet
  facet normal 0 0 -1
    outer loop
      vertex 1.38197 94.9021 0
      vertex 0 93 0
      vertex 1.14844 94.8097 0
    endloop
  endfacet
  facet normal 0 0 -1
    outer loop
      vertex 0 2 0
      vertex 0.725153 0.458974 0
      vertex 0.542063 0.630906 0
    endloop
  endfacet
  facet normal 0 0 -1
    outer loop
      vertex 1.14844 94.8097 0
      vertex 0 93 0
      vertex 0.928347 94.6887 0
    endloop
  endfacet
  facet normal 0 0 -1
    outer loop
      vertex 0 2 0
      vertex 0.542063 0.630906 0
      vertex 0.381967 0.82443 0
    endloop
  endfacet
  facet normal 0 0 -1
    outer loop
      vertex 0.928347 94.6887 0
      vertex 0 93 0
      vertex 0.725153 94.541 0
    endloop
  endfacet
  facet normal 0 0 -1
    outer loop
      vertex 0 2 0
      vertex 0.381967 0.82443 0
      vertex 0.247387 1.03649 0
    endloop
  endfacet
  facet normal 0 0 -1
    outer loop
      vertex 0.725153 94.541 0
      vertex 0 93 0
      vertex 0.542063 94.3691 0
    endloop
  endfacet
  facet normal 0 0 -1
    outer loop
      vertex 0 2 0
      vertex 0.247387 1.03649 0
      vertex 0.140448 1.26375 0
    endloop
  endfacet
  facet normal 0 0 -1
    outer loop
      vertex 0.542063 94.3691 0
      vertex 0 93 0
      vertex 0.381967 94.1756 0
    endloop
  endfacet
  facet normal 0 0 -1
    outer loop
      vertex 0 2 0
      vertex 0.140448 1.26375 0
      vertex 0.0628338 1.50262 0
    endloop
  endfacet
  facet normal 0 0 -1
    outer loop
      vertex 0.381967 94.1756 0
      vertex 0 93 0
      vertex 0.247387 93.9635 0
    endloop
  endfacet
  facet normal 0 0 -1
    outer loop
      vertex 0 2 0
      vertex 0.0628338 1.50262 0
      vertex 0.0157709 1.74933 0
    endloop
  endfacet
  facet normal 0 0 -1
    outer loop
      vertex 0.247387 93.9635 0
      vertex 0 93 0
      vertex 0.140448 93.7363 0
    endloop
  endfacet
  facet normal 0 0 -1
    outer loop
      vertex 0.140448 93.7363 0
      vertex 0 93 0
      vertex 0.0628338 93.4974 0
    endloop
  endfacet
  facet normal 0 0 -1
    outer loop
      vertex 0.0628338 93.4974 0
      vertex 0 93 0
      vertex 0.0157709 93.2507 0
    endloop
  endfacet
  facet normal -0.982287 -0.187383 0
    outer loop
      vertex 0.0628338 1.50262 0
      vertex 0.0157709 1.74933 3
      vertex 0.0157709 1.74933 0
    endloop
  endfacet
  facet normal -0.982287 -0.187383 0
    outer loop
      vertex 0.0157709 1.74933 3
      vertex 0.0628338 1.50262 0
      vertex 0.0628338 1.50262 3
    endloop
  endfacet
  facet normal -0.770515 -0.637422 0
    outer loop
      vertex 0.542063 0.630906 0
      vertex 0.381967 0.82443 3
      vertex 0.381967 0.82443 0
    endloop
  endfacet
  facet normal -0.770515 -0.637422 0
    outer loop
      vertex 0.381967 0.82443 3
      vertex 0.542063 0.630906 0
      vertex 0.542063 0.630906 3
    endloop
  endfacet
  facet normal -0.982286 0.18739 0
    outer loop
      vertex 0.0157709 93.2507 0
      vertex 0.0628338 93.4974 3
      vertex 0.0628338 93.4974 0
    endloop
  endfacet
  facet normal -0.982286 0.18739 0
    outer loop
      vertex 0.0628338 93.4974 3
      vertex 0.0157709 93.2507 0
      vertex 0.0157709 93.2507 3
    endloop
  endfacet
  facet normal 0.844333 0.535819 0
    outer loop
      vertex 94.7526 93.9635 3
      vertex 94.618 94.1756 0
      vertex 94.618 94.1756 3
    endloop
  endfacet
  facet normal 0.844333 0.535819 0
    outer loop
      vertex 94.618 94.1756 0
      vertex 94.7526 93.9635 3
      vertex 94.7526 93.9635 0
    endloop
  endfacet
  facet normal -1 0 0
    outer loop
      vertex 38.5 38.5 3
      vertex 38.5 56.5 36.92
      vertex 38.5 56.5 3
    endloop
  endfacet
  facet normal -1 -0 0
    outer loop
      vertex 38.5 56.5 36.92
      vertex 38.5 38.5 3
      vertex 38.5 38.5 36.92
    endloop
  endfacet
  facet normal 0 0 1
    outer loop
      vertex 56.5 56.5 36.92
      vertex 55.2 47.5 36.92
      vertex 56.5 38.5 36.92
    endloop
  endfacet
  facet normal 0 0 1
    outer loop
      vertex 56.5 56.5 36.92
      vertex 54.9581 49.4149 36.92
      vertex 55.2 47.5 36.92
    endloop
  endfacet
  facet normal 0 0 1
    outer loop
      vertex 56.5 56.5 36.92
      vertex 54.2476 51.2095 36.92
      vertex 54.9581 49.4149 36.92
    endloop
  endfacet
  facet normal 0 0 1
    outer loop
      vertex 56.5 56.5 36.92
      vertex 53.1131 52.771 36.92
      vertex 54.2476 51.2095 36.92
    endloop
  endfacet
  facet normal 0 0 1
    outer loop
      vertex 56.5 56.5 36.92
      vertex 51.6259 54.0013 36.92
      vertex 53.1131 52.771 36.92
    endloop
  endfacet
  facet normal 0 0 1
    outer loop
      vertex 56.5 56.5 36.92
      vertex 49.8794 54.8231 36.92
      vertex 51.6259 54.0013 36.92
    endloop
  endfacet
  facet normal 0 0 1
    outer loop
      vertex 56.5 56.5 36.92
      vertex 47.9835 55.1848 36.92
      vertex 49.8794 54.8231 36.92
    endloop
  endfacet
  facet normal -0 0 1
    outer loop
      vertex 38.5 56.5 36.92
      vertex 47.9835 55.1848 36.92
      vertex 56.5 56.5 36.92
    endloop
  endfacet
  facet normal 0 0 1
    outer loop
      vertex 39.8607 48.4651 36.92
      vertex 38.5 56.5 36.92
      vertex 39.8607 46.5349 36.92
    endloop
  endfacet
  facet normal 0 0 1
    outer loop
      vertex 40.3407 50.3346 36.92
      vertex 38.5 56.5 36.92
      vertex 39.8607 48.4651 36.92
    endloop
  endfacet
  facet normal 0 0 1
    outer loop
      vertex 41.2706 52.0259 36.92
      vertex 38.5 56.5 36.92
      vertex 40.3407 50.3346 36.92
    endloop
  endfacet
  facet normal 0 0 1
    outer loop
      vertex 42.5918 53.433 36.92
      vertex 38.5 56.5 36.92
      vertex 41.2706 52.0259 36.92
    endloop
  endfacet
  facet normal 0 0 1
    outer loop
      vertex 44.2215 54.4672 36.92
      vertex 38.5 56.5 36.92
      vertex 42.5918 53.433 36.92
    endloop
  endfacet
  facet normal 0 0 1
    outer loop
      vertex 46.0572 55.0636 36.92
      vertex 38.5 56.5 36.92
      vertex 44.2215 54.4672 36.92
    endloop
  endfacet
  facet normal 0 0 1
    outer loop
      vertex 47.9835 55.1848 36.92
      vertex 38.5 56.5 36.92
      vertex 46.0572 55.0636 36.92
    endloop
  endfacet
  facet normal -0 0 1
    outer loop
      vertex 54.9581 45.5851 36.92
      vertex 56.5 38.5 36.92
      vertex 55.2 47.5 36.92
    endloop
  endfacet
  facet normal -0 0 1
    outer loop
      vertex 54.2476 43.7905 36.92
      vertex 56.5 38.5 36.92
      vertex 54.9581 45.5851 36.92
    endloop
  endfacet
  facet normal -0 0 1
    outer loop
      vertex 53.1131 42.229 36.92
      vertex 56.5 38.5 36.92
      vertex 54.2476 43.7905 36.92
    endloop
  endfacet
  facet normal -0 0 1
    outer loop
      vertex 51.6259 40.9987 36.92
      vertex 56.5 38.5 36.92
      vertex 53.1131 42.229 36.92
    endloop
  endfacet
  facet normal -0 0 1
    outer loop
      vertex 49.8794 40.1769 36.92
      vertex 56.5 38.5 36.92
      vertex 51.6259 40.9987 36.92
    endloop
  endfacet
  facet normal -0 0 1
    outer loop
      vertex 47.9835 39.8152 36.92
      vertex 56.5 38.5 36.92
      vertex 49.8794 40.1769 36.92
    endloop
  endfacet
  facet normal 0 0 1
    outer loop
      vertex 38.5 38.5 36.92
      vertex 47.9835 39.8152 36.92
      vertex 46.0572 39.9364 36.92
    endloop
  endfacet
  facet normal 0 0 1
    outer loop
      vertex 47.9835 39.8152 36.92
      vertex 38.5 38.5 36.92
      vertex 56.5 38.5 36.92
    endloop
  endfacet
  facet normal 0 0 1
    outer loop
      vertex 44.2215 40.5328 36.92
      vertex 38.5 38.5 36.92
      vertex 46.0572 39.9364 36.92
    endloop
  endfacet
  facet normal 0 0 1
    outer loop
      vertex 42.5918 41.567 36.92
      vertex 38.5 38.5 36.92
      vertex 44.2215 40.5328 36.92
    endloop
  endfacet
  facet normal 0 0 1
    outer loop
      vertex 41.2706 42.9741 36.92
      vertex 38.5 38.5 36.92
      vertex 42.5918 41.567 36.92
    endloop
  endfacet
  facet normal 0 0 1
    outer loop
      vertex 40.3407 44.6654 36.92
      vertex 38.5 38.5 36.92
      vertex 41.2706 42.9741 36.92
    endloop
  endfacet
  facet normal 0 0 1
    outer loop
      vertex 39.8607 46.5349 36.92
      vertex 38.5 38.5 36.92
      vertex 40.3407 44.6654 36.92
    endloop
  endfacet
  facet normal 0 0 1
    outer loop
      vertex 38.5 38.5 36.92
      vertex 39.8607 46.5349 36.92
      vertex 38.5 56.5 36.92
    endloop
  endfacet
  facet normal 1 -0 0
    outer loop
      vertex 56.5 38.5 36.92
      vertex 56.5 56.5 3
      vertex 56.5 56.5 36.92
    endloop
  endfacet
  facet normal 1 0 0
    outer loop
      vertex 56.5 56.5 3
      vertex 56.5 38.5 36.92
      vertex 56.5 38.5 3
    endloop
  endfacet
  facet normal 0 -1 0
    outer loop
      vertex 38.5 38.5 3
      vertex 56.5 38.5 36.92
      vertex 38.5 38.5 36.92
    endloop
  endfacet
  facet normal 0 -1 -0
    outer loop
      vertex 56.5 38.5 36.92
      vertex 38.5 38.5 3
      vertex 56.5 38.5 3
    endloop
  endfacet
  facet normal 0 1 -0
    outer loop
      vertex 56.5 56.5 3
      vertex 38.5 56.5 36.92
      vertex 56.5 56.5 36.92
    endloop
  endfacet
  facet normal 0 1 0
    outer loop
      vertex 38.5 56.5 36.92
      vertex 56.5 56.5 3
      vertex 38.5 56.5 3
    endloop
  endfacet
  facet normal -0.809016 -0.587787 0
    outer loop
      vertex 54.2476 51.2095 32.92
      vertex 53.1131 52.771 36.92
      vertex 53.1131 52.771 32.92
    endloop
  endfacet
  facet normal -0.809016 -0.587787 0
    outer loop
      vertex 53.1131 52.771 36.92
      vertex 54.2476 51.2095 32.92
      vertex 54.2476 51.2095 36.92
    endloop
  endfacet
  facet normal -0.992115 -0.125329 0
    outer loop
      vertex 55.2 47.5 32.92
      vertex 54.9581 49.4149 36.92
      vertex 54.9581 49.4149 32.92
    endloop
  endfacet
  facet normal -0.992115 -0.125329 0
    outer loop
      vertex 54.9581 49.4149 36.92
      vertex 55.2 47.5 32.92
      vertex 55.2 47.5 36.92
    endloop
  endfacet
  facet normal 0.968584 0.248687 0
    outer loop
      vertex 40.3407 44.6654 36.92
      vertex 39.8607 46.5349 32.92
      vertex 39.8607 46.5349 36.92
    endloop
  endfacet
  facet normal 0.968584 0.248687 0
    outer loop
      vertex 39.8607 46.5349 32.92
      vertex 40.3407 44.6654 36.92
      vertex 40.3407 44.6654 32.92
    endloop
  endfacet
  facet normal 0.968584 -0.248687 0
    outer loop
      vertex 39.8607 48.4651 36.92
      vertex 40.3407 50.3346 32.92
      vertex 40.3407 50.3346 36.92
    endloop
  endfacet
  facet normal 0.968584 -0.248687 0
    outer loop
      vertex 40.3407 50.3346 32.92
      vertex 39.8607 48.4651 36.92
      vertex 39.8607 48.4651 32.92
    endloop
  endfacet
  facet normal -0.637418 -0.770518 0
    outer loop
      vertex 51.6259 54.0013 32.92
      vertex 53.1131 52.771 36.92
      vertex 51.6259 54.0013 36.92
    endloop
  endfacet
  facet normal -0.637418 -0.770518 -0
    outer loop
      vertex 53.1131 52.771 36.92
      vertex 51.6259 54.0013 32.92
      vertex 53.1131 52.771 32.92
    endloop
  endfacet
  facet normal -0.1874 -0.982284 0
    outer loop
      vertex 47.9835 55.1848 32.92
      vertex 49.8794 54.8231 36.92
      vertex 47.9835 55.1848 36.92
    endloop
  endfacet
  facet normal -0.1874 -0.982284 -0
    outer loop
      vertex 49.8794 54.8231 36.92
      vertex 47.9835 55.1848 32.92
      vertex 49.8794 54.8231 32.92
    endloop
  endfacet
  facet normal 0.535812 -0.844337 0
    outer loop
      vertex 42.5918 53.433 32.92
      vertex 44.2215 54.4672 36.92
      vertex 42.5918 53.433 36.92
    endloop
  endfacet
  facet normal 0.535812 -0.844337 0
    outer loop
      vertex 44.2215 54.4672 36.92
      vertex 42.5918 53.433 32.92
      vertex 44.2215 54.4672 32.92
    endloop
  endfacet
  facet normal 0.729009 -0.684504 0
    outer loop
      vertex 41.2706 52.0259 36.92
      vertex 42.5918 53.433 32.92
      vertex 42.5918 53.433 36.92
    endloop
  endfacet
  facet normal 0.729009 -0.684504 0
    outer loop
      vertex 42.5918 53.433 32.92
      vertex 41.2706 52.0259 36.92
      vertex 41.2706 52.0259 32.92
    endloop
  endfacet
  facet normal -0.425762 0.904835 0
    outer loop
      vertex 51.6259 40.9987 32.92
      vertex 49.8794 40.1769 36.92
      vertex 51.6259 40.9987 36.92
    endloop
  endfacet
  facet normal -0.425762 0.904835 0
    outer loop
      vertex 49.8794 40.1769 36.92
      vertex 51.6259 40.9987 32.92
      vertex 49.8794 40.1769 32.92
    endloop
  endfacet
  facet normal 0.0627944 -0.998026 0
    outer loop
      vertex 46.0572 55.0636 32.92
      vertex 47.9835 55.1848 36.92
      vertex 46.0572 55.0636 36.92
    endloop
  endfacet
  facet normal 0.0627944 -0.998026 0
    outer loop
      vertex 47.9835 55.1848 36.92
      vertex 46.0572 55.0636 32.92
      vertex 47.9835 55.1848 32.92
    endloop
  endfacet
  facet normal -0.425762 -0.904835 0
    outer loop
      vertex 49.8794 54.8231 32.92
      vertex 51.6259 54.0013 36.92
      vertex 49.8794 54.8231 36.92
    endloop
  endfacet
  facet normal -0.425762 -0.904835 -0
    outer loop
      vertex 51.6259 54.0013 36.92
      vertex 49.8794 54.8231 32.92
      vertex 51.6259 54.0013 32.92
    endloop
  endfacet
  facet normal 1 -0 0
    outer loop
      vertex 39.8607 46.5349 36.92
      vertex 39.8607 48.4651 32.92
      vertex 39.8607 48.4651 36.92
    endloop
  endfacet
  facet normal 1 0 0
    outer loop
      vertex 39.8607 48.4651 32.92
      vertex 39.8607 46.5349 36.92
      vertex 39.8607 46.5349 32.92
    endloop
  endfacet
  facet normal 0.876285 -0.481793 0
    outer loop
      vertex 40.3407 50.3346 36.92
      vertex 41.2706 52.0259 32.92
      vertex 41.2706 52.0259 36.92
    endloop
  endfacet
  facet normal 0.876285 -0.481793 0
    outer loop
      vertex 41.2706 52.0259 32.92
      vertex 40.3407 50.3346 36.92
      vertex 40.3407 50.3346 32.92
    endloop
  endfacet
  facet normal 0.308991 -0.951065 0
    outer loop
      vertex 44.2215 54.4672 32.92
      vertex 46.0572 55.0636 36.92
      vertex 44.2215 54.4672 36.92
    endloop
  endfacet
  facet normal 0.308991 -0.951065 0
    outer loop
      vertex 46.0572 55.0636 36.92
      vertex 44.2215 54.4672 32.92
      vertex 46.0572 55.0636 32.92
    endloop
  endfacet
  facet normal 0.535812 0.844337 -0
    outer loop
      vertex 44.2215 40.5328 32.92
      vertex 42.5918 41.567 36.92
      vertex 44.2215 40.5328 36.92
    endloop
  endfacet
  facet normal 0.535812 0.844337 0
    outer loop
      vertex 42.5918 41.567 36.92
      vertex 44.2215 40.5328 32.92
      vertex 42.5918 41.567 32.92
    endloop
  endfacet
  facet normal 0.876285 0.481793 0
    outer loop
      vertex 41.2706 42.9741 36.92
      vertex 40.3407 44.6654 32.92
      vertex 40.3407 44.6654 36.92
    endloop
  endfacet
  facet normal 0.876285 0.481793 0
    outer loop
      vertex 40.3407 44.6654 32.92
      vertex 41.2706 42.9741 36.92
      vertex 41.2706 42.9741 32.92
    endloop
  endfacet
  facet normal -0.809016 0.587787 0
    outer loop
      vertex 53.1131 42.229 32.92
      vertex 54.2476 43.7905 36.92
      vertex 54.2476 43.7905 32.92
    endloop
  endfacet
  facet normal -0.809016 0.587787 0
    outer loop
      vertex 54.2476 43.7905 36.92
      vertex 53.1131 42.229 32.92
      vertex 53.1131 42.229 36.92
    endloop
  endfacet
  facet normal -0.929782 -0.36811 0
    outer loop
      vertex 54.9581 49.4149 32.92
      vertex 54.2476 51.2095 36.92
      vertex 54.2476 51.2095 32.92
    endloop
  endfacet
  facet normal -0.929782 -0.36811 0
    outer loop
      vertex 54.2476 51.2095 36.92
      vertex 54.9581 49.4149 32.92
      vertex 54.9581 49.4149 36.92
    endloop
  endfacet
  facet normal -0.992115 0.125329 0
    outer loop
      vertex 54.9581 45.5851 32.92
      vertex 55.2 47.5 36.92
      vertex 55.2 47.5 32.92
    endloop
  endfacet
  facet normal -0.992115 0.125329 0
    outer loop
      vertex 55.2 47.5 36.92
      vertex 54.9581 45.5851 32.92
      vertex 54.9581 45.5851 36.92
    endloop
  endfacet
  facet normal 0 0 1
    outer loop
      vertex 54.9581 49.4149 32.92
      vertex 54.9581 45.5851 32.92
      vertex 55.2 47.5 32.92
    endloop
  endfacet
  facet normal 0 0 1
    outer loop
      vertex 54.2476 51.2095 32.92
      vertex 54.9581 45.5851 32.92
      vertex 54.9581 49.4149 32.92
    endloop
  endfacet
  facet normal 0 0 1
    outer loop
      vertex 54.2476 51.2095 32.92
      vertex 54.2476 43.7905 32.92
      vertex 54.9581 45.5851 32.92
    endloop
  endfacet
  facet normal 0 0 1
    outer loop
      vertex 53.1131 52.771 32.92
      vertex 54.2476 43.7905 32.92
      vertex 54.2476 51.2095 32.92
    endloop
  endfacet
  facet normal 0 0 1
    outer loop
      vertex 53.1131 52.771 32.92
      vertex 53.1131 42.229 32.92
      vertex 54.2476 43.7905 32.92
    endloop
  endfacet
  facet normal 0 0 1
    outer loop
      vertex 51.6259 54.0013 32.92
      vertex 53.1131 42.229 32.92
      vertex 53.1131 52.771 32.92
    endloop
  endfacet
  facet normal 0 0 1
    outer loop
      vertex 51.6259 54.0013 32.92
      vertex 51.6259 40.9987 32.92
      vertex 53.1131 42.229 32.92
    endloop
  endfacet
  facet normal 0 0 1
    outer loop
      vertex 49.8794 54.8231 32.92
      vertex 51.6259 40.9987 32.92
      vertex 51.6259 54.0013 32.92
    endloop
  endfacet
  facet normal 0 0 1
    outer loop
      vertex 49.8794 54.8231 32.92
      vertex 49.8794 40.1769 32.92
      vertex 51.6259 40.9987 32.92
    endloop
  endfacet
  facet normal 0 0 1
    outer loop
      vertex 47.9835 55.1848 32.92
      vertex 49.8794 40.1769 32.92
      vertex 49.8794 54.8231 32.92
    endloop
  endfacet
  facet normal 0 0 1
    outer loop
      vertex 47.9835 55.1848 32.92
      vertex 47.9835 39.8152 32.92
      vertex 49.8794 40.1769 32.92
    endloop
  endfacet
  facet normal -0 0 1
    outer loop
      vertex 46.0572 55.0636 32.92
      vertex 47.9835 39.8152 32.92
      vertex 47.9835 55.1848 32.92
    endloop
  endfacet
  facet normal 0 0 1
    outer loop
      vertex 46.0572 55.0636 32.92
      vertex 46.0572 39.9364 32.92
      vertex 47.9835 39.8152 32.92
    endloop
  endfacet
  facet normal -0 0 1
    outer loop
      vertex 44.2215 54.4672 32.92
      vertex 46.0572 39.9364 32.92
      vertex 46.0572 55.0636 32.92
    endloop
  endfacet
  facet normal 0 0 1
    outer loop
      vertex 44.2215 54.4672 32.92
      vertex 44.2215 40.5328 32.92
      vertex 46.0572 39.9364 32.92
    endloop
  endfacet
  facet normal -0 0 1
    outer loop
      vertex 42.5918 53.433 32.92
      vertex 44.2215 40.5328 32.92
      vertex 44.2215 54.4672 32.92
    endloop
  endfacet
  facet normal 0 0 1
    outer loop
      vertex 42.5918 53.433 32.92
      vertex 42.5918 41.567 32.92
      vertex 44.2215 40.5328 32.92
    endloop
  endfacet
  facet normal -0 0 1
    outer loop
      vertex 41.2706 52.0259 32.92
      vertex 42.5918 41.567 32.92
      vertex 42.5918 53.433 32.92
    endloop
  endfacet
  facet normal 0 0 1
    outer loop
      vertex 41.2706 52.0259 32.92
      vertex 41.2706 42.9741 32.92
      vertex 42.5918 41.567 32.92
    endloop
  endfacet
  facet normal -0 0 1
    outer loop
      vertex 40.3407 50.3346 32.92
      vertex 41.2706 42.9741 32.92
      vertex 41.2706 52.0259 32.92
    endloop
  endfacet
  facet normal 0 0 1
    outer loop
      vertex 40.3407 50.3346 32.92
      vertex 40.3407 44.6654 32.92
      vertex 41.2706 42.9741 32.92
    endloop
  endfacet
  facet normal -0 0 1
    outer loop
      vertex 39.8607 48.4651 32.92
      vertex 40.3407 44.6654 32.92
      vertex 40.3407 50.3346 32.92
    endloop
  endfacet
  facet normal 0 0 1
    outer loop
      vertex 40.3407 44.6654 32.92
      vertex 39.8607 48.4651 32.92
      vertex 39.8607 46.5349 32.92
    endloop
  endfacet
  facet normal 0.729009 0.684504 0
    outer loop
      vertex 42.5918 41.567 36.92
      vertex 41.2706 42.9741 32.92
      vertex 41.2706 42.9741 36.92
    endloop
  endfacet
  facet normal 0.729009 0.684504 0
    outer loop
      vertex 41.2706 42.9741 32.92
      vertex 42.5918 41.567 36.92
      vertex 42.5918 41.567 32.92
    endloop
  endfacet
  facet normal -0.637418 0.770518 0
    outer loop
      vertex 53.1131 42.229 32.92
      vertex 51.6259 40.9987 36.92
      vertex 53.1131 42.229 36.92
    endloop
  endfacet
  facet normal -0.637418 0.770518 0
    outer loop
      vertex 51.6259 40.9987 36.92
      vertex 53.1131 42.229 32.92
      vertex 51.6259 40.9987 32.92
    endloop
  endfacet
  facet normal -0.929782 0.36811 0
    outer loop
      vertex 54.2476 43.7905 32.92
      vertex 54.9581 45.5851 36.92
      vertex 54.9581 45.5851 32.92
    endloop
  endfacet
  facet normal -0.929782 0.36811 0
    outer loop
      vertex 54.9581 45.5851 36.92
      vertex 54.2476 43.7905 32.92
      vertex 54.2476 43.7905 36.92
    endloop
  endfacet
  facet normal -0.1874 0.982284 0
    outer loop
      vertex 49.8794 40.1769 32.92
      vertex 47.9835 39.8152 36.92
      vertex 49.8794 40.1769 36.92
    endloop
  endfacet
  facet normal -0.1874 0.982284 0
    outer loop
      vertex 47.9835 39.8152 36.92
      vertex 49.8794 40.1769 32.92
      vertex 47.9835 39.8152 32.92
    endloop
  endfacet
  facet normal 0.0627944 0.998026 -0
    outer loop
      vertex 47.9835 39.8152 32.92
      vertex 46.0572 39.9364 36.92
      vertex 47.9835 39.8152 36.92
    endloop
  endfacet
  facet normal 0.0627944 0.998026 0
    outer loop
      vertex 46.0572 39.9364 36.92
      vertex 47.9835 39.8152 32.92
      vertex 46.0572 39.9364 32.92
    endloop
  endfacet
  facet normal 0.308991 0.951065 -0
    outer loop
      vertex 46.0572 39.9364 32.92
      vertex 44.2215 40.5328 36.92
      vertex 46.0572 39.9364 36.92
    endloop
  endfacet
  facet normal 0.308991 0.951065 0
    outer loop
      vertex 44.2215 40.5328 36.92
      vertex 46.0572 39.9364 32.92
      vertex 44.2215 40.5328 32.92
    endloop
  endfacet
endsolid OpenSCAD_Model
