solid OpenSCAD_Model
  facet normal -1 0 0
    outer loop
      vertex 0 0 0
      vertex 0 45 8
      vertex 0 45 0
    endloop
  endfacet
  facet normal -1 -0 0
    outer loop
      vertex 0 45 8
      vertex 0 0 0
      vertex 0 0 8
    endloop
  endfacet
  facet normal -1 0 0
    outer loop
      vertex 0 70 0
      vertex 0 115 8
      vertex 0 115 0
    endloop
  endfacet
  facet normal -1 -0 0
    outer loop
      vertex 0 115 8
      vertex 0 70 0
      vertex 0 70 8
    endloop
  endfacet
  facet normal 0 0 1
    outer loop
      vertex 2 45 8
      vertex 0 45 8
      vertex 2 2 8
    endloop
  endfacet
  facet normal -0 0 1
    outer loop
      vertex 2 2 8
      vertex 26.6667 0 8
      vertex 26.6667 2 8
    endloop
  endfacet
  facet normal 0 0 1
    outer loop
      vertex 2 2 8
      vertex 0 0 8
      vertex 26.6667 0 8
    endloop
  endfacet
  facet normal 0 0 1
    outer loop
      vertex 0 0 8
      vertex 2 2 8
      vertex 0 45 8
    endloop
  endfacet
  facet normal 0 0 1
    outer loop
      vertex 76.3333 2 8
      vertex 78.3333 45 8
      vertex 76.3333 45 8
    endloop
  endfacet
  facet normal 0 0 1
    outer loop
      vertex 78.3333 45 8
      vertex 76.3333 2 8
      vertex 78.3333 0 8
    endloop
  endfacet
  facet normal 0 0 1
    outer loop
      vertex 51.6667 0 8
      vertex 76.3333 2 8
      vertex 51.6667 2 8
    endloop
  endfacet
  facet normal 0 0 1
    outer loop
      vertex 76.3333 2 8
      vertex 51.6667 0 8
      vertex 78.3333 0 8
    endloop
  endfacet
  facet normal 0 0 1
    outer loop
      vertex 78.3333 115 8
      vertex 76.3333 113 8
      vertex 78.3333 70 8
    endloop
  endfacet
  facet normal -0 0 1
    outer loop
      vertex 51.6667 115 8
      vertex 76.3333 113 8
      vertex 78.3333 115 8
    endloop
  endfacet
  facet normal 0 0 1
    outer loop
      vertex 76.3333 113 8
      vertex 51.6667 115 8
      vertex 51.6667 113 8
    endloop
  endfacet
  facet normal 0 0 1
    outer loop
      vertex 78.3333 70 8
      vertex 76.3333 113 8
      vertex 76.3333 70 8
    endloop
  endfacet
  facet normal 0 0 1
    outer loop
      vertex 26.6667 115 8
      vertex 2 113 8
      vertex 26.6667 113 8
    endloop
  endfacet
  facet normal -0 0 1
    outer loop
      vertex 0 115 8
      vertex 2 113 8
      vertex 26.6667 115 8
    endloop
  endfacet
  facet normal 0 0 1
    outer loop
      vertex 0 70 8
      vertex 2 113 8
      vertex 0 115 8
    endloop
  endfacet
  facet normal 0 0 1
    outer loop
      vertex 2 113 8
      vertex 0 70 8
      vertex 2 70 8
    endloop
  endfacet
  facet normal 1 -0 0
    outer loop
      vertex 78.3333 0 8
      vertex 78.3333 45 0
      vertex 78.3333 45 8
    endloop
  endfacet
  facet normal 1 0 0
    outer loop
      vertex 78.3333 45 0
      vertex 78.3333 0 8
      vertex 78.3333 0 0
    endloop
  endfacet
  facet normal 1 -0 0
    outer loop
      vertex 78.3333 70 8
      vertex 78.3333 115 0
      vertex 78.3333 115 8
    endloop
  endfacet
  facet normal 1 0 0
    outer loop
      vertex 78.3333 115 0
      vertex 78.3333 70 8
      vertex 78.3333 70 0
    endloop
  endfacet
  facet normal 0 0 -1
    outer loop
      vertex 78.3333 0 0
      vertex 76.3333 45 0
      vertex 78.3333 45 0
    endloop
  endfacet
  facet normal 0 0 -1
    outer loop
      vertex 78.3333 0 0
      vertex 51.6667 2 0
      vertex 76.3333 45 0
    endloop
  endfacet
  facet normal 0 0 -1
    outer loop
      vertex 51.6667 2 0
      vertex 78.3333 0 0
      vertex 51.6667 0 0
    endloop
  endfacet
  facet normal 0 0 -1
    outer loop
      vertex 76.3333 70 0
      vertex 78.3333 115 0
      vertex 78.3333 70 0
    endloop
  endfacet
  facet normal 0 0 -1
    outer loop
      vertex 2 45 0
      vertex 76.3333 45 0
      vertex 51.6667 2 0
    endloop
  endfacet
  facet normal 0 0 -1
    outer loop
      vertex 2 45 0
      vertex 51.6667 2 0
      vertex 26.6667 2 0
    endloop
  endfacet
  facet normal 0 0 -1
    outer loop
      vertex 76.3333 70 0
      vertex 51.6667 113 0
      vertex 78.3333 115 0
    endloop
  endfacet
  facet normal -0 0 -1
    outer loop
      vertex 78.3333 115 0
      vertex 51.6667 113 0
      vertex 51.6667 115 0
    endloop
  endfacet
  facet normal 0 0 -1
    outer loop
      vertex 0 0 0
      vertex 26.6667 2 0
      vertex 26.6667 0 0
    endloop
  endfacet
  facet normal 0 0 -1
    outer loop
      vertex 2 70 0
      vertex 76.3333 70 0
      vertex 2 45 0
    endloop
  endfacet
  facet normal 0 0 -1
    outer loop
      vertex 76.3333 70 0
      vertex 2 70 0
      vertex 26.6667 113 0
    endloop
  endfacet
  facet normal -0 0 -1
    outer loop
      vertex 26.6667 2 0
      vertex 0 0 0
      vertex 2 45 0
    endloop
  endfacet
  facet normal -0 0 -1
    outer loop
      vertex 2 45 0
      vertex 0 0 0
      vertex 0 45 0
    endloop
  endfacet
  facet normal 0 0 -1
    outer loop
      vertex 76.3333 45 0
      vertex 2 45 0
      vertex 76.3333 70 0
    endloop
  endfacet
  facet normal 0 0 -1
    outer loop
      vertex 76.3333 70 0
      vertex 26.6667 113 0
      vertex 51.6667 113 0
    endloop
  endfacet
  facet normal 0 0 -1
    outer loop
      vertex 0 115 0
      vertex 26.6667 113 0
      vertex 2 70 0
    endloop
  endfacet
  facet normal 0 0 -1
    outer loop
      vertex 0 115 0
      vertex 2 70 0
      vertex 0 70 0
    endloop
  endfacet
  facet normal 0 0 -1
    outer loop
      vertex 26.6667 113 0
      vertex 0 115 0
      vertex 26.6667 115 0
    endloop
  endfacet
  facet normal 0 -1 0
    outer loop
      vertex 0 0 0
      vertex 26.6667 0 8
      vertex 0 0 8
    endloop
  endfacet
  facet normal 0 -1 -0
    outer loop
      vertex 26.6667 0 8
      vertex 0 0 0
      vertex 26.6667 0 0
    endloop
  endfacet
  facet normal 0 -1 0
    outer loop
      vertex 51.6667 0 0
      vertex 78.3333 0 8
      vertex 51.6667 0 8
    endloop
  endfacet
  facet normal 0 -1 -0
    outer loop
      vertex 78.3333 0 8
      vertex 51.6667 0 0
      vertex 78.3333 0 0
    endloop
  endfacet
  facet normal 0 1 -0
    outer loop
      vertex 78.3333 115 0
      vertex 51.6667 115 8
      vertex 78.3333 115 8
    endloop
  endfacet
  facet normal 0 1 0
    outer loop
      vertex 51.6667 115 8
      vertex 78.3333 115 0
      vertex 51.6667 115 0
    endloop
  endfacet
  facet normal 0 1 -0
    outer loop
      vertex 26.6667 115 0
      vertex 0 115 8
      vertex 26.6667 115 8
    endloop
  endfacet
  facet normal 0 1 0
    outer loop
      vertex 0 115 8
      vertex 26.6667 115 0
      vertex 0 115 0
    endloop
  endfacet
  facet normal 1 -0 0
    outer loop
      vertex 2 2 8
      vertex 2 45 3
      vertex 2 45 8
    endloop
  endfacet
  facet normal 1 0 0
    outer loop
      vertex 2 45 3
      vertex 2 2 8
      vertex 2 2 3
    endloop
  endfacet
  facet normal 1 -0 0
    outer loop
      vertex 2 70 8
      vertex 2 113 3
      vertex 2 113 8
    endloop
  endfacet
  facet normal 1 0 0
    outer loop
      vertex 2 113 3
      vertex 2 70 8
      vertex 2 70 3
    endloop
  endfacet
  facet normal -1 0 0
    outer loop
      vertex 2 45 0
      vertex 2 70 3
      vertex 2 70 0
    endloop
  endfacet
  facet normal -1 -0 0
    outer loop
      vertex 2 70 3
      vertex 2 45 0
      vertex 2 45 3
    endloop
  endfacet
  facet normal -1 0 0
    outer loop
      vertex 76.3333 2 3
      vertex 76.3333 45 8
      vertex 76.3333 45 3
    endloop
  endfacet
  facet normal -1 -0 0
    outer loop
      vertex 76.3333 45 8
      vertex 76.3333 2 3
      vertex 76.3333 2 8
    endloop
  endfacet
  facet normal -1 0 0
    outer loop
      vertex 76.3333 70 3
      vertex 76.3333 113 8
      vertex 76.3333 113 3
    endloop
  endfacet
  facet normal -1 -0 0
    outer loop
      vertex 76.3333 113 8
      vertex 76.3333 70 3
      vertex 76.3333 70 8
    endloop
  endfacet
  facet normal 1 -0 0
    outer loop
      vertex 76.3333 45 3
      vertex 76.3333 70 0
      vertex 76.3333 70 3
    endloop
  endfacet
  facet normal 1 0 0
    outer loop
      vertex 76.3333 70 0
      vertex 76.3333 45 3
      vertex 76.3333 45 0
    endloop
  endfacet
  facet normal -0 0 1
    outer loop
      vertex 51.6667 113 3
      vertex 76.3333 70 3
      vertex 76.3333 113 3
    endloop
  endfacet
  facet normal 0 -0 1
    outer loop
      vertex 47.0556 59.4444 3
      vertex 76.3333 70 3
      vertex 46.361 61.2759 3
    endloop
  endfacet
  facet normal 0 0 1
    outer loop
      vertex 43.7822 64.1867 3
      vertex 76.3333 70 3
      vertex 51.6667 113 3
    endloop
  endfacet
  facet normal 0 0 1
    outer loop
      vertex 76.3333 70 3
      vertex 47.2917 57.5 3
      vertex 76.3333 45 3
    endloop
  endfacet
  facet normal -0 0 1
    outer loop
      vertex 46.361 53.7241 3
      vertex 76.3333 45 3
      vertex 47.0556 55.5556 3
    endloop
  endfacet
  facet normal -0 0 1
    outer loop
      vertex 47.0556 55.5556 3
      vertex 76.3333 45 3
      vertex 47.2917 57.5 3
    endloop
  endfacet
  facet normal 0 -0 1
    outer loop
      vertex 47.2917 57.5 3
      vertex 76.3333 70 3
      vertex 47.0556 59.4444 3
    endloop
  endfacet
  facet normal 0 0 1
    outer loop
      vertex 76.3333 70 3
      vertex 45.2483 62.8879 3
      vertex 46.361 61.2759 3
    endloop
  endfacet
  facet normal 0 0 1
    outer loop
      vertex 76.3333 70 3
      vertex 43.7822 64.1867 3
      vertex 45.2483 62.8879 3
    endloop
  endfacet
  facet normal 0 0 1
    outer loop
      vertex 51.6667 113 3
      vertex 42.0478 65.097 3
      vertex 43.7822 64.1867 3
    endloop
  endfacet
  facet normal 0 0 1
    outer loop
      vertex 51.6667 113 3
      vertex 40.146 65.5658 3
      vertex 42.0478 65.097 3
    endloop
  endfacet
  facet normal 0 0 1
    outer loop
      vertex 51.6667 113 3
      vertex 38.1873 65.5658 3
      vertex 40.146 65.5658 3
    endloop
  endfacet
  facet normal -0 0 1
    outer loop
      vertex 26.6667 113 3
      vertex 38.1873 65.5658 3
      vertex 51.6667 113 3
    endloop
  endfacet
  facet normal 0 0 1
    outer loop
      vertex 38.1873 65.5658 3
      vertex 26.6667 113 3
      vertex 36.2855 65.097 3
    endloop
  endfacet
  facet normal 0 0 1
    outer loop
      vertex 36.2855 65.097 3
      vertex 26.6667 113 3
      vertex 34.5511 64.1867 3
    endloop
  endfacet
  facet normal -0 0 1
    outer loop
      vertex 2 70 3
      vertex 34.5511 64.1867 3
      vertex 26.6667 113 3
    endloop
  endfacet
  facet normal 0 0 1
    outer loop
      vertex 31.9723 61.2759 3
      vertex 2 70 3
      vertex 31.2778 59.4444 3
    endloop
  endfacet
  facet normal 0 0 1
    outer loop
      vertex 33.085 62.8879 3
      vertex 2 70 3
      vertex 31.9723 61.2759 3
    endloop
  endfacet
  facet normal 0 0 1
    outer loop
      vertex 34.5511 64.1867 3
      vertex 2 70 3
      vertex 33.085 62.8879 3
    endloop
  endfacet
  facet normal -0 0 1
    outer loop
      vertex 45.2483 52.1121 3
      vertex 76.3333 45 3
      vertex 46.361 53.7241 3
    endloop
  endfacet
  facet normal -0 0 1
    outer loop
      vertex 43.7822 50.8133 3
      vertex 76.3333 45 3
      vertex 45.2483 52.1121 3
    endloop
  endfacet
  facet normal 0 0 1
    outer loop
      vertex 76.3333 45 3
      vertex 51.6667 2 3
      vertex 76.3333 2 3
    endloop
  endfacet
  facet normal 0 0 1
    outer loop
      vertex 76.3333 45 3
      vertex 43.7822 50.8133 3
      vertex 51.6667 2 3
    endloop
  endfacet
  facet normal -0 0 1
    outer loop
      vertex 42.0478 49.903 3
      vertex 51.6667 2 3
      vertex 43.7822 50.8133 3
    endloop
  endfacet
  facet normal -0 0 1
    outer loop
      vertex 40.146 49.4342 3
      vertex 51.6667 2 3
      vertex 42.0478 49.903 3
    endloop
  endfacet
  facet normal -0 0 1
    outer loop
      vertex 38.1873 49.4342 3
      vertex 51.6667 2 3
      vertex 40.146 49.4342 3
    endloop
  endfacet
  facet normal 0 0 1
    outer loop
      vertex 26.6667 2 3
      vertex 38.1873 49.4342 3
      vertex 36.2855 49.903 3
    endloop
  endfacet
  facet normal 0 0 1
    outer loop
      vertex 26.6667 2 3
      vertex 36.2855 49.903 3
      vertex 34.5511 50.8133 3
    endloop
  endfacet
  facet normal 0 0 1
    outer loop
      vertex 2 45 3
      vertex 34.5511 50.8133 3
      vertex 33.085 52.1121 3
    endloop
  endfacet
  facet normal 0 0 1
    outer loop
      vertex 2 45 3
      vertex 33.085 52.1121 3
      vertex 31.9723 53.7241 3
    endloop
  endfacet
  facet normal 0 0 1
    outer loop
      vertex 38.1873 49.4342 3
      vertex 26.6667 2 3
      vertex 51.6667 2 3
    endloop
  endfacet
  facet normal 0 0 1
    outer loop
      vertex 2 45 3
      vertex 31.9723 53.7241 3
      vertex 31.2778 55.5556 3
    endloop
  endfacet
  facet normal 0 0 1
    outer loop
      vertex 2 45 3
      vertex 31.2778 55.5556 3
      vertex 31.0417 57.5 3
    endloop
  endfacet
  facet normal 0 0 1
    outer loop
      vertex 31.2778 59.4444 3
      vertex 2 70 3
      vertex 31.0417 57.5 3
    endloop
  endfacet
  facet normal 0 0 1
    outer loop
      vertex 2 70 3
      vertex 26.6667 113 3
      vertex 2 113 3
    endloop
  endfacet
  facet normal 0 0 1
    outer loop
      vertex 2 45 3
      vertex 31.0417 57.5 3
      vertex 2 70 3
    endloop
  endfacet
  facet normal 0 0 1
    outer loop
      vertex 34.5511 50.8133 3
      vertex 2 45 3
      vertex 26.6667 2 3
    endloop
  endfacet
  facet normal 0 0 1
    outer loop
      vertex 26.6667 2 3
      vertex 2 45 3
      vertex 2 2 3
    endloop
  endfacet
  facet normal 0 1 -0
    outer loop
      vertex 26.6667 2 3
      vertex 2 2 8
      vertex 26.6667 2 8
    endloop
  endfacet
  facet normal 0 1 0
    outer loop
      vertex 2 2 8
      vertex 26.6667 2 3
      vertex 2 2 3
    endloop
  endfacet
  facet normal 0 1 -0
    outer loop
      vertex 76.3333 2 3
      vertex 51.6667 2 8
      vertex 76.3333 2 8
    endloop
  endfacet
  facet normal 0 1 0
    outer loop
      vertex 51.6667 2 8
      vertex 76.3333 2 3
      vertex 51.6667 2 3
    endloop
  endfacet
  facet normal 0 -1 0
    outer loop
      vertex 26.6667 2 0
      vertex 51.6667 2 3
      vertex 26.6667 2 3
    endloop
  endfacet
  facet normal 0 -1 -0
    outer loop
      vertex 51.6667 2 3
      vertex 26.6667 2 0
      vertex 51.6667 2 0
    endloop
  endfacet
  facet normal 0 -1 0
    outer loop
      vertex 51.6667 113 3
      vertex 76.3333 113 8
      vertex 51.6667 113 8
    endloop
  endfacet
  facet normal 0 -1 -0
    outer loop
      vertex 76.3333 113 8
      vertex 51.6667 113 3
      vertex 76.3333 113 3
    endloop
  endfacet
  facet normal 0 -1 0
    outer loop
      vertex 2 113 3
      vertex 26.6667 113 8
      vertex 2 113 8
    endloop
  endfacet
  facet normal 0 -1 -0
    outer loop
      vertex 26.6667 113 8
      vertex 2 113 3
      vertex 26.6667 113 3
    endloop
  endfacet
  facet normal 0 1 -0
    outer loop
      vertex 51.6667 113 0
      vertex 26.6667 113 3
      vertex 51.6667 113 3
    endloop
  endfacet
  facet normal 0 1 0
    outer loop
      vertex 26.6667 113 3
      vertex 51.6667 113 0
      vertex 26.6667 113 0
    endloop
  endfacet
  facet normal 1 -0 0
    outer loop
      vertex 26.6667 0 8
      vertex 26.6667 2 3
      vertex 26.6667 2 8
    endloop
  endfacet
  facet normal 1 0 0
    outer loop
      vertex 26.6667 0 0
      vertex 26.6667 2 3
      vertex 26.6667 0 8
    endloop
  endfacet
  facet normal 1 0 0
    outer loop
      vertex 26.6667 2 3
      vertex 26.6667 0 0
      vertex 26.6667 2 0
    endloop
  endfacet
  facet normal -1 0 0
    outer loop
      vertex 51.6667 0 0
      vertex 51.6667 2 3
      vertex 51.6667 2 0
    endloop
  endfacet
  facet normal -1 0 0
    outer loop
      vertex 51.6667 0 8
      vertex 51.6667 2 3
      vertex 51.6667 0 0
    endloop
  endfacet
  facet normal -1 0 0
    outer loop
      vertex 51.6667 2 3
      vertex 51.6667 0 8
      vertex 51.6667 2 8
    endloop
  endfacet
  facet normal 1 0 0
    outer loop
      vertex 26.6667 113 3
      vertex 26.6667 115 8
      vertex 26.6667 113 8
    endloop
  endfacet
  facet normal 1 0 0
    outer loop
      vertex 26.6667 115 8
      vertex 26.6667 113 3
      vertex 26.6667 115 0
    endloop
  endfacet
  facet normal 1 0 0
    outer loop
      vertex 26.6667 115 0
      vertex 26.6667 113 3
      vertex 26.6667 113 0
    endloop
  endfacet
  facet normal -1 0 0
    outer loop
      vertex 51.6667 113 3
      vertex 51.6667 115 0
      vertex 51.6667 113 0
    endloop
  endfacet
  facet normal -1 0 0
    outer loop
      vertex 51.6667 115 0
      vertex 51.6667 113 3
      vertex 51.6667 115 8
    endloop
  endfacet
  facet normal -1 -0 0
    outer loop
      vertex 51.6667 115 8
      vertex 51.6667 113 3
      vertex 51.6667 113 8
    endloop
  endfacet
  facet normal 0 -1 0
    outer loop
      vertex 0 70 8
      vertex 2 70 3
      vertex 2 70 8
    endloop
  endfacet
  facet normal 0 -1 0
    outer loop
      vertex 0 70 0
      vertex 2 70 3
      vertex 0 70 8
    endloop
  endfacet
  facet normal 0 -1 -0
    outer loop
      vertex 2 70 3
      vertex 0 70 0
      vertex 2 70 0
    endloop
  endfacet
  facet normal 0 1 -0
    outer loop
      vertex 2 45 3
      vertex 0 45 8
      vertex 2 45 8
    endloop
  endfacet
  facet normal 0 1 0
    outer loop
      vertex 0 45 0
      vertex 2 45 3
      vertex 2 45 0
    endloop
  endfacet
  facet normal 0 1 0
    outer loop
      vertex 2 45 3
      vertex 0 45 0
      vertex 0 45 8
    endloop
  endfacet
  facet normal 0 -1 0
    outer loop
      vertex 76.3333 70 3
      vertex 78.3333 70 8
      vertex 76.3333 70 8
    endloop
  endfacet
  facet normal 0 -1 0
    outer loop
      vertex 78.3333 70 0
      vertex 76.3333 70 3
      vertex 76.3333 70 0
    endloop
  endfacet
  facet normal 0 -1 0
    outer loop
      vertex 76.3333 70 3
      vertex 78.3333 70 0
      vertex 78.3333 70 8
    endloop
  endfacet
  facet normal 0 1 0
    outer loop
      vertex 78.3333 45 8
      vertex 76.3333 45 3
      vertex 76.3333 45 8
    endloop
  endfacet
  facet normal 0 1 -0
    outer loop
      vertex 78.3333 45 0
      vertex 76.3333 45 3
      vertex 78.3333 45 8
    endloop
  endfacet
  facet normal 0 1 0
    outer loop
      vertex 76.3333 45 3
      vertex 78.3333 45 0
      vertex 76.3333 45 0
    endloop
  endfacet
  facet normal -0.992709 -0.120536 0
    outer loop
      vertex 47.2917 57.5 1.6
      vertex 47.0556 59.4444 3
      vertex 47.0556 59.4444 1.6
    endloop
  endfacet
  facet normal -0.992709 -0.120536 0
    outer loop
      vertex 47.0556 59.4444 3
      vertex 47.2917 57.5 1.6
      vertex 47.2917 57.5 3
    endloop
  endfacet
  facet normal 0.992709 -0.120537 0
    outer loop
      vertex 31.0417 57.5 3
      vertex 31.2778 59.4444 1.6
      vertex 31.2778 59.4444 3
    endloop
  endfacet
  facet normal 0.992709 -0.120537 0
    outer loop
      vertex 31.2778 59.4444 1.6
      vertex 31.0417 57.5 3
      vertex 31.0417 57.5 1.6
    endloop
  endfacet
  facet normal 0 -1 0
    outer loop
      vertex 38.1873 65.5658 1.6
      vertex 40.146 65.5658 3
      vertex 38.1873 65.5658 3
    endloop
  endfacet
  facet normal 0 -1 -0
    outer loop
      vertex 40.146 65.5658 3
      vertex 38.1873 65.5658 1.6
      vertex 40.146 65.5658 1.6
    endloop
  endfacet
  facet normal 0 1 -0
    outer loop
      vertex 40.146 49.4342 1.6
      vertex 38.1873 49.4342 3
      vertex 40.146 49.4342 3
    endloop
  endfacet
  facet normal 0 1 0
    outer loop
      vertex 38.1873 49.4342 3
      vertex 40.146 49.4342 1.6
      vertex 38.1873 49.4342 1.6
    endloop
  endfacet
  facet normal -0.663124 -0.74851 0
    outer loop
      vertex 43.7822 64.1867 1.6
      vertex 45.2483 62.8879 3
      vertex 43.7822 64.1867 3
    endloop
  endfacet
  facet normal -0.663124 -0.74851 -0
    outer loop
      vertex 45.2483 62.8879 3
      vertex 43.7822 64.1867 1.6
      vertex 45.2483 62.8879 1.6
    endloop
  endfacet
  facet normal -0.935016 -0.354605 0
    outer loop
      vertex 47.0556 59.4444 1.6
      vertex 46.361 61.2759 3
      vertex 46.361 61.2759 1.6
    endloop
  endfacet
  facet normal -0.935016 -0.354605 0
    outer loop
      vertex 46.361 61.2759 3
      vertex 47.0556 59.4444 1.6
      vertex 47.0556 59.4444 3
    endloop
  endfacet
  facet normal -0.464723 -0.885456 0
    outer loop
      vertex 42.0478 65.097 1.6
      vertex 43.7822 64.1867 3
      vertex 42.0478 65.097 3
    endloop
  endfacet
  facet normal -0.464723 -0.885456 -0
    outer loop
      vertex 43.7822 64.1867 3
      vertex 42.0478 65.097 1.6
      vertex 43.7822 64.1867 1.6
    endloop
  endfacet
  facet normal 0.663123 -0.748511 0
    outer loop
      vertex 33.085 62.8879 1.6
      vertex 34.5511 64.1867 3
      vertex 33.085 62.8879 3
    endloop
  endfacet
  facet normal 0.663123 -0.748511 0
    outer loop
      vertex 34.5511 64.1867 3
      vertex 33.085 62.8879 1.6
      vertex 34.5511 64.1867 1.6
    endloop
  endfacet
  facet normal 0.822984 -0.568064 0
    outer loop
      vertex 31.9723 61.2759 3
      vertex 33.085 62.8879 1.6
      vertex 33.085 62.8879 3
    endloop
  endfacet
  facet normal 0.822984 -0.568064 0
    outer loop
      vertex 33.085 62.8879 1.6
      vertex 31.9723 61.2759 3
      vertex 31.9723 61.2759 1.6
    endloop
  endfacet
  facet normal 0.464724 -0.885456 0
    outer loop
      vertex 34.5511 64.1867 1.6
      vertex 36.2855 65.097 3
      vertex 34.5511 64.1867 3
    endloop
  endfacet
  facet normal 0.464724 -0.885456 0
    outer loop
      vertex 36.2855 65.097 3
      vertex 34.5511 64.1867 1.6
      vertex 36.2855 65.097 1.6
    endloop
  endfacet
  facet normal -0.935016 0.354605 0
    outer loop
      vertex 46.361 53.7241 1.6
      vertex 47.0556 55.5556 3
      vertex 47.0556 55.5556 1.6
    endloop
  endfacet
  facet normal -0.935016 0.354605 0
    outer loop
      vertex 47.0556 55.5556 3
      vertex 46.361 53.7241 1.6
      vertex 46.361 53.7241 3
    endloop
  endfacet
  facet normal -0.822983 -0.568065 0
    outer loop
      vertex 46.361 61.2759 1.6
      vertex 45.2483 62.8879 3
      vertex 45.2483 62.8879 1.6
    endloop
  endfacet
  facet normal -0.822983 -0.568065 0
    outer loop
      vertex 45.2483 62.8879 3
      vertex 46.361 61.2759 1.6
      vertex 46.361 61.2759 3
    endloop
  endfacet
  facet normal -0.239315 -0.970942 0
    outer loop
      vertex 40.146 65.5658 1.6
      vertex 42.0478 65.097 3
      vertex 40.146 65.5658 3
    endloop
  endfacet
  facet normal -0.239315 -0.970942 -0
    outer loop
      vertex 42.0478 65.097 3
      vertex 40.146 65.5658 1.6
      vertex 42.0478 65.097 1.6
    endloop
  endfacet
  facet normal 0.935016 -0.354605 0
    outer loop
      vertex 31.2778 59.4444 3
      vertex 31.9723 61.2759 1.6
      vertex 31.9723 61.2759 3
    endloop
  endfacet
  facet normal 0.935016 -0.354605 0
    outer loop
      vertex 31.9723 61.2759 1.6
      vertex 31.2778 59.4444 3
      vertex 31.2778 59.4444 1.6
    endloop
  endfacet
  facet normal 0.239314 -0.970942 0
    outer loop
      vertex 36.2855 65.097 1.6
      vertex 38.1873 65.5658 3
      vertex 36.2855 65.097 3
    endloop
  endfacet
  facet normal 0.239314 -0.970942 0
    outer loop
      vertex 38.1873 65.5658 3
      vertex 36.2855 65.097 1.6
      vertex 38.1873 65.5658 1.6
    endloop
  endfacet
  facet normal -0.992709 0.120536 0
    outer loop
      vertex 47.0556 55.5556 1.6
      vertex 47.2917 57.5 3
      vertex 47.2917 57.5 1.6
    endloop
  endfacet
  facet normal -0.992709 0.120536 0
    outer loop
      vertex 47.2917 57.5 3
      vertex 47.0556 55.5556 1.6
      vertex 47.0556 55.5556 3
    endloop
  endfacet
  facet normal 0 0 1
    outer loop
      vertex 47.0556 59.4444 1.6
      vertex 47.0556 55.5556 1.6
      vertex 47.2917 57.5 1.6
    endloop
  endfacet
  facet normal 0 0 1
    outer loop
      vertex 46.361 61.2759 1.6
      vertex 47.0556 55.5556 1.6
      vertex 47.0556 59.4444 1.6
    endloop
  endfacet
  facet normal 0 0 1
    outer loop
      vertex 46.361 61.2759 1.6
      vertex 46.361 53.7241 1.6
      vertex 47.0556 55.5556 1.6
    endloop
  endfacet
  facet normal 0 0 1
    outer loop
      vertex 45.2483 62.8879 1.6
      vertex 46.361 53.7241 1.6
      vertex 46.361 61.2759 1.6
    endloop
  endfacet
  facet normal 0 0 1
    outer loop
      vertex 45.2483 62.8879 1.6
      vertex 45.2483 52.1121 1.6
      vertex 46.361 53.7241 1.6
    endloop
  endfacet
  facet normal 0 0 1
    outer loop
      vertex 43.7822 64.1867 1.6
      vertex 45.2483 52.1121 1.6
      vertex 45.2483 62.8879 1.6
    endloop
  endfacet
  facet normal 0 0 1
    outer loop
      vertex 43.7822 64.1867 1.6
      vertex 43.7822 50.8133 1.6
      vertex 45.2483 52.1121 1.6
    endloop
  endfacet
  facet normal 0 0 1
    outer loop
      vertex 42.0478 65.097 1.6
      vertex 43.7822 50.8133 1.6
      vertex 43.7822 64.1867 1.6
    endloop
  endfacet
  facet normal 0 0 1
    outer loop
      vertex 42.0478 65.097 1.6
      vertex 42.0478 49.903 1.6
      vertex 43.7822 50.8133 1.6
    endloop
  endfacet
  facet normal 0 0 1
    outer loop
      vertex 40.146 65.5658 1.6
      vertex 42.0478 49.903 1.6
      vertex 42.0478 65.097 1.6
    endloop
  endfacet
  facet normal 0 0 1
    outer loop
      vertex 40.146 65.5658 1.6
      vertex 40.146 49.4342 1.6
      vertex 42.0478 49.903 1.6
    endloop
  endfacet
  facet normal -0 0 1
    outer loop
      vertex 38.1873 65.5658 1.6
      vertex 40.146 49.4342 1.6
      vertex 40.146 65.5658 1.6
    endloop
  endfacet
  facet normal 0 0 1
    outer loop
      vertex 38.1873 65.5658 1.6
      vertex 38.1873 49.4342 1.6
      vertex 40.146 49.4342 1.6
    endloop
  endfacet
  facet normal -0 0 1
    outer loop
      vertex 36.2855 65.097 1.6
      vertex 38.1873 49.4342 1.6
      vertex 38.1873 65.5658 1.6
    endloop
  endfacet
  facet normal 0 0 1
    outer loop
      vertex 36.2855 65.097 1.6
      vertex 36.2855 49.903 1.6
      vertex 38.1873 49.4342 1.6
    endloop
  endfacet
  facet normal -0 0 1
    outer loop
      vertex 34.5511 64.1867 1.6
      vertex 36.2855 49.903 1.6
      vertex 36.2855 65.097 1.6
    endloop
  endfacet
  facet normal 0 0 1
    outer loop
      vertex 34.5511 64.1867 1.6
      vertex 34.5511 50.8133 1.6
      vertex 36.2855 49.903 1.6
    endloop
  endfacet
  facet normal -0 0 1
    outer loop
      vertex 33.085 62.8879 1.6
      vertex 34.5511 50.8133 1.6
      vertex 34.5511 64.1867 1.6
    endloop
  endfacet
  facet normal 0 0 1
    outer loop
      vertex 33.085 62.8879 1.6
      vertex 33.085 52.1121 1.6
      vertex 34.5511 50.8133 1.6
    endloop
  endfacet
  facet normal -0 0 1
    outer loop
      vertex 31.9723 61.2759 1.6
      vertex 33.085 52.1121 1.6
      vertex 33.085 62.8879 1.6
    endloop
  endfacet
  facet normal 0 0 1
    outer loop
      vertex 31.9723 61.2759 1.6
      vertex 31.9723 53.7241 1.6
      vertex 33.085 52.1121 1.6
    endloop
  endfacet
  facet normal -0 0 1
    outer loop
      vertex 31.2778 59.4444 1.6
      vertex 31.9723 53.7241 1.6
      vertex 31.9723 61.2759 1.6
    endloop
  endfacet
  facet normal 0 0 1
    outer loop
      vertex 31.2778 59.4444 1.6
      vertex 31.2778 55.5556 1.6
      vertex 31.9723 53.7241 1.6
    endloop
  endfacet
  facet normal 0 -0 1
    outer loop
      vertex 31.2778 55.5556 1.6
      vertex 31.2778 59.4444 1.6
      vertex 31.0417 57.5 1.6
    endloop
  endfacet
  facet normal -0.239315 0.970942 0
    outer loop
      vertex 42.0478 49.903 1.6
      vertex 40.146 49.4342 3
      vertex 42.0478 49.903 3
    endloop
  endfacet
  facet normal -0.239315 0.970942 0
    outer loop
      vertex 40.146 49.4342 3
      vertex 42.0478 49.903 1.6
      vertex 40.146 49.4342 1.6
    endloop
  endfacet
  facet normal 0.464724 0.885456 -0
    outer loop
      vertex 36.2855 49.903 1.6
      vertex 34.5511 50.8133 3
      vertex 36.2855 49.903 3
    endloop
  endfacet
  facet normal 0.464724 0.885456 0
    outer loop
      vertex 34.5511 50.8133 3
      vertex 36.2855 49.903 1.6
      vertex 34.5511 50.8133 1.6
    endloop
  endfacet
  facet normal 0.822984 0.568064 0
    outer loop
      vertex 33.085 52.1121 3
      vertex 31.9723 53.7241 1.6
      vertex 31.9723 53.7241 3
    endloop
  endfacet
  facet normal 0.822984 0.568064 0
    outer loop
      vertex 31.9723 53.7241 1.6
      vertex 33.085 52.1121 3
      vertex 33.085 52.1121 1.6
    endloop
  endfacet
  facet normal -0.663124 0.74851 0
    outer loop
      vertex 45.2483 52.1121 1.6
      vertex 43.7822 50.8133 3
      vertex 45.2483 52.1121 3
    endloop
  endfacet
  facet normal -0.663124 0.74851 0
    outer loop
      vertex 43.7822 50.8133 3
      vertex 45.2483 52.1121 1.6
      vertex 43.7822 50.8133 1.6
    endloop
  endfacet
  facet normal -0.464723 0.885456 0
    outer loop
      vertex 43.7822 50.8133 1.6
      vertex 42.0478 49.903 3
      vertex 43.7822 50.8133 3
    endloop
  endfacet
  facet normal -0.464723 0.885456 0
    outer loop
      vertex 42.0478 49.903 3
      vertex 43.7822 50.8133 1.6
      vertex 42.0478 49.903 1.6
    endloop
  endfacet
  facet normal 0.239314 0.970942 -0
    outer loop
      vertex 38.1873 49.4342 1.6
      vertex 36.2855 49.903 3
      vertex 38.1873 49.4342 3
    endloop
  endfacet
  facet normal 0.239314 0.970942 0
    outer loop
      vertex 36.2855 49.903 3
      vertex 38.1873 49.4342 1.6
      vertex 36.2855 49.903 1.6
    endloop
  endfacet
  facet normal 0.663123 0.748511 -0
    outer loop
      vertex 34.5511 50.8133 1.6
      vertex 33.085 52.1121 3
      vertex 34.5511 50.8133 3
    endloop
  endfacet
  facet normal 0.663123 0.748511 0
    outer loop
      vertex 33.085 52.1121 3
      vertex 34.5511 50.8133 1.6
      vertex 33.085 52.1121 1.6
    endloop
  endfacet
  facet normal 0.935016 0.354605 0
    outer loop
      vertex 31.9723 53.7241 3
      vertex 31.2778 55.5556 1.6
      vertex 31.2778 55.5556 3
    endloop
  endfacet
  facet normal 0.935016 0.354605 0
    outer loop
      vertex 31.2778 55.5556 1.6
      vertex 31.9723 53.7241 3
      vertex 31.9723 53.7241 1.6
    endloop
  endfacet
  facet normal 0.992709 0.120537 0
    outer loop
      vertex 31.2778 55.5556 3
      vertex 31.0417 57.5 1.6
      vertex 31.0417 57.5 3
    endloop
  endfacet
  facet normal 0.992709 0.120537 0
    outer loop
      vertex 31.0417 57.5 1.6
      vertex 31.2778 55.5556 3
      vertex 31.2778 55.5556 1.6
    endloop
  endfacet
  facet normal -0.822983 0.568065 0
    outer loop
      vertex 45.2483 52.1121 1.6
      vertex 46.361 53.7241 3
      vertex 46.361 53.7241 1.6
    endloop
  endfacet
  facet normal -0.822983 0.568065 0
    outer loop
      vertex 46.361 53.7241 3
      vertex 45.2483 52.1121 1.6
      vertex 45.2483 52.1121 3
    endloop
  endfacet
endsolid OpenSCAD_Model
