solid OpenSCAD_Model
  facet normal -1 0 0
    outer loop
      vertex 0 0 0
      vertex 0 80 30
      vertex 0 80 0
    endloop
  endfacet
  facet normal -1 -0 0
    outer loop
      vertex 0 80 30
      vertex 0 0 0
      vertex 0 0 30
    endloop
  endfacet
  facet normal 0 0 1
    outer loop
      vertex 80 80 30
      vertex 78 78 30
      vertex 80 0 30
    endloop
  endfacet
  facet normal 0 0 1
    outer loop
      vertex 80 80 30
      vertex 2 78 30
      vertex 78 78 30
    endloop
  endfacet
  facet normal 0 0 1
    outer loop
      vertex 2 78 30
      vertex 0 80 30
      vertex 2 2 30
    endloop
  endfacet
  facet normal -0 0 1
    outer loop
      vertex 0 80 30
      vertex 2 78 30
      vertex 80 80 30
    endloop
  endfacet
  facet normal -0 0 1
    outer loop
      vertex 78 2 30
      vertex 80 0 30
      vertex 78 78 30
    endloop
  endfacet
  facet normal -0 0 1
    outer loop
      vertex 2 2 30
      vertex 80 0 30
      vertex 78 2 30
    endloop
  endfacet
  facet normal 0 0 1
    outer loop
      vertex 2 2 30
      vertex 0 0 30
      vertex 80 0 30
    endloop
  endfacet
  facet normal 0 0 1
    outer loop
      vertex 0 0 30
      vertex 2 2 30
      vertex 0 80 30
    endloop
  endfacet
  facet normal 1 -0 0
    outer loop
      vertex 80 0 30
      vertex 80 80 0
      vertex 80 80 30
    endloop
  endfacet
  facet normal 1 0 0
    outer loop
      vertex 80 80 0
      vertex 80 0 30
      vertex 80 0 0
    endloop
  endfacet
  facet normal 0 1 -0
    outer loop
      vertex 80 80 0
      vertex 0 80 30
      vertex 80 80 30
    endloop
  endfacet
  facet normal 0 1 0
    outer loop
      vertex 0 80 30
      vertex 80 80 0
      vertex 0 80 0
    endloop
  endfacet
  facet normal 0 0 -1
    outer loop
      vertex 0 0 0
      vertex 80 80 0
      vertex 80 0 0
    endloop
  endfacet
  facet normal -0 0 -1
    outer loop
      vertex 80 80 0
      vertex 0 0 0
      vertex 0 80 0
    endloop
  endfacet
  facet normal 0 -1 0
    outer loop
      vertex 0 0 0
      vertex 80 0 30
      vertex 0 0 30
    endloop
  endfacet
  facet normal 0 -1 -0
    outer loop
      vertex 80 0 30
      vertex 0 0 0
      vertex 80 0 0
    endloop
  endfacet
  facet normal 1 -0 0
    outer loop
      vertex 2 2 30
      vertex 2 78 3
      vertex 2 78 30
    endloop
  endfacet
  facet normal 1 0 0
    outer loop
      vertex 2 78 3
      vertex 2 2 30
      vertex 2 2 3
    endloop
  endfacet
  facet normal -1 0 0
    outer loop
      vertex 78 2 3
      vertex 78 78 30
      vertex 78 78 3
    endloop
  endfacet
  facet normal -1 -0 0
    outer loop
      vertex 78 78 30
      vertex 78 2 3
      vertex 78 2 30
    endloop
  endfacet
  facet normal 0 -1 0
    outer loop
      vertex 2 78 3
      vertex 78 78 30
      vertex 2 78 30
    endloop
  endfacet
  facet normal 0 -1 -0
    outer loop
      vertex 78 78 30
      vertex 2 78 3
      vertex 78 78 3
    endloop
  endfacet
  facet normal 0 0 1
    outer loop
      vertex 78 78 3
      vertex 47.55 40 3
      vertex 78 2 3
    endloop
  endfacet
  facet normal 0 0 1
    outer loop
      vertex 78 78 3
      vertex 47.2927 41.9541 3
      vertex 47.55 40 3
    endloop
  endfacet
  facet normal 0 0 1
    outer loop
      vertex 78 78 3
      vertex 46.5385 43.775 3
      vertex 47.2927 41.9541 3
    endloop
  endfacet
  facet normal 0 0 1
    outer loop
      vertex 78 78 3
      vertex 45.3387 45.3387 3
      vertex 46.5385 43.775 3
    endloop
  endfacet
  facet normal 0 0 1
    outer loop
      vertex 78 78 3
      vertex 43.775 46.5385 3
      vertex 45.3387 45.3387 3
    endloop
  endfacet
  facet normal 0 0 1
    outer loop
      vertex 78 78 3
      vertex 41.9541 47.2927 3
      vertex 43.775 46.5385 3
    endloop
  endfacet
  facet normal 0 0 1
    outer loop
      vertex 78 78 3
      vertex 40 47.55 3
      vertex 41.9541 47.2927 3
    endloop
  endfacet
  facet normal -0 0 1
    outer loop
      vertex 2 78 3
      vertex 40 47.55 3
      vertex 78 78 3
    endloop
  endfacet
  facet normal 0 0 1
    outer loop
      vertex 40 47.55 3
      vertex 2 78 3
      vertex 38.0459 47.2927 3
    endloop
  endfacet
  facet normal 0 0 1
    outer loop
      vertex 32.7073 41.9541 3
      vertex 2 78 3
      vertex 32.45 40 3
    endloop
  endfacet
  facet normal 0 0 1
    outer loop
      vertex 33.4615 43.775 3
      vertex 2 78 3
      vertex 32.7073 41.9541 3
    endloop
  endfacet
  facet normal 0 0 1
    outer loop
      vertex 34.6613 45.3387 3
      vertex 2 78 3
      vertex 33.4615 43.775 3
    endloop
  endfacet
  facet normal 0 0 1
    outer loop
      vertex 36.225 46.5385 3
      vertex 2 78 3
      vertex 34.6613 45.3387 3
    endloop
  endfacet
  facet normal 0 0 1
    outer loop
      vertex 38.0459 47.2927 3
      vertex 2 78 3
      vertex 36.225 46.5385 3
    endloop
  endfacet
  facet normal -0 0 1
    outer loop
      vertex 47.2927 38.0459 3
      vertex 78 2 3
      vertex 47.55 40 3
    endloop
  endfacet
  facet normal -0 0 1
    outer loop
      vertex 46.5385 36.225 3
      vertex 78 2 3
      vertex 47.2927 38.0459 3
    endloop
  endfacet
  facet normal -0 0 1
    outer loop
      vertex 45.3387 34.6613 3
      vertex 78 2 3
      vertex 46.5385 36.225 3
    endloop
  endfacet
  facet normal -0 0 1
    outer loop
      vertex 43.775 33.4615 3
      vertex 78 2 3
      vertex 45.3387 34.6613 3
    endloop
  endfacet
  facet normal -0 0 1
    outer loop
      vertex 41.9541 32.7073 3
      vertex 78 2 3
      vertex 43.775 33.4615 3
    endloop
  endfacet
  facet normal -0 0 1
    outer loop
      vertex 40 32.45 3
      vertex 78 2 3
      vertex 41.9541 32.7073 3
    endloop
  endfacet
  facet normal 0 0 1
    outer loop
      vertex 2 2 3
      vertex 40 32.45 3
      vertex 38.0459 32.7073 3
    endloop
  endfacet
  facet normal 0 0 1
    outer loop
      vertex 2 2 3
      vertex 38.0459 32.7073 3
      vertex 36.225 33.4615 3
    endloop
  endfacet
  facet normal 0 0 1
    outer loop
      vertex 2 2 3
      vertex 32.45 40 3
      vertex 2 78 3
    endloop
  endfacet
  facet normal 0 0 1
    outer loop
      vertex 32.45 40 3
      vertex 2 2 3
      vertex 32.7073 38.0459 3
    endloop
  endfacet
  facet normal 0 0 1
    outer loop
      vertex 40 32.45 3
      vertex 2 2 3
      vertex 78 2 3
    endloop
  endfacet
  facet normal 0 0 1
    outer loop
      vertex 34.6613 34.6613 3
      vertex 2 2 3
      vertex 36.225 33.4615 3
    endloop
  endfacet
  facet normal 0 0 1
    outer loop
      vertex 33.4615 36.225 3
      vertex 2 2 3
      vertex 34.6613 34.6613 3
    endloop
  endfacet
  facet normal 0 0 1
    outer loop
      vertex 32.7073 38.0459 3
      vertex 2 2 3
      vertex 33.4615 36.225 3
    endloop
  endfacet
  facet normal 0 1 -0
    outer loop
      vertex 78 2 3
      vertex 2 2 30
      vertex 78 2 30
    endloop
  endfacet
  facet normal 0 1 0
    outer loop
      vertex 2 2 30
      vertex 78 2 3
      vertex 2 2 3
    endloop
  endfacet
  facet normal 0.991445 0.130526 0
    outer loop
      vertex 47.55 40 30
      vertex 47.2927 41.9541 3
      vertex 47.2927 41.9541 30
    endloop
  endfacet
  facet normal 0.991445 0.130526 0
    outer loop
      vertex 47.2927 41.9541 3
      vertex 47.55 40 30
      vertex 47.55 40 3
    endloop
  endfacet
  facet normal -0.991445 -0.130526 0
    outer loop
      vertex 32.7073 38.0459 3
      vertex 32.45 40 30
      vertex 32.45 40 3
    endloop
  endfacet
  facet normal -0.991445 -0.130526 0
    outer loop
      vertex 32.45 40 30
      vertex 32.7073 38.0459 3
      vertex 32.7073 38.0459 30
    endloop
  endfacet
  facet normal -0.130526 0.991445 0
    outer loop
      vertex 40 47.55 3
      vertex 38.0459 47.2927 30
      vertex 40 47.55 30
    endloop
  endfacet
  facet normal -0.130526 0.991445 0
    outer loop
      vertex 38.0459 47.2927 30
      vertex 40 47.55 3
      vertex 38.0459 47.2927 3
    endloop
  endfacet
  facet normal 0.130526 -0.991445 0
    outer loop
      vertex 40 32.45 3
      vertex 41.9541 32.7073 30
      vertex 40 32.45 30
    endloop
  endfacet
  facet normal 0.130526 -0.991445 0
    outer loop
      vertex 41.9541 32.7073 30
      vertex 40 32.45 3
      vertex 41.9541 32.7073 3
    endloop
  endfacet
  facet normal -0.608761 -0.793354 0
    outer loop
      vertex 34.6613 34.6613 3
      vertex 36.225 33.4615 30
      vertex 34.6613 34.6613 30
    endloop
  endfacet
  facet normal -0.608761 -0.793354 -0
    outer loop
      vertex 36.225 33.4615 30
      vertex 34.6613 34.6613 3
      vertex 36.225 33.4615 3
    endloop
  endfacet
  facet normal 0.608763 0.793352 -0
    outer loop
      vertex 45.3387 45.3387 3
      vertex 43.775 46.5385 30
      vertex 45.3387 45.3387 30
    endloop
  endfacet
  facet normal 0.608763 0.793352 0
    outer loop
      vertex 43.775 46.5385 30
      vertex 45.3387 45.3387 3
      vertex 43.775 46.5385 3
    endloop
  endfacet
  facet normal 0.923879 0.382684 0
    outer loop
      vertex 47.2927 41.9541 30
      vertex 46.5385 43.775 3
      vertex 46.5385 43.775 30
    endloop
  endfacet
  facet normal 0.923879 0.382684 0
    outer loop
      vertex 46.5385 43.775 3
      vertex 47.2927 41.9541 30
      vertex 47.2927 41.9541 3
    endloop
  endfacet
  facet normal 0.382684 0.923879 -0
    outer loop
      vertex 43.775 46.5385 3
      vertex 41.9541 47.2927 30
      vertex 43.775 46.5385 30
    endloop
  endfacet
  facet normal 0.382684 0.923879 0
    outer loop
      vertex 41.9541 47.2927 30
      vertex 43.775 46.5385 3
      vertex 41.9541 47.2927 3
    endloop
  endfacet
  facet normal -0.793353 0.608762 0
    outer loop
      vertex 33.4615 43.775 3
      vertex 34.6613 45.3387 30
      vertex 34.6613 45.3387 3
    endloop
  endfacet
  facet normal -0.793353 0.608762 0
    outer loop
      vertex 34.6613 45.3387 30
      vertex 33.4615 43.775 3
      vertex 33.4615 43.775 30
    endloop
  endfacet
  facet normal -0.923879 0.382684 0
    outer loop
      vertex 32.7073 41.9541 3
      vertex 33.4615 43.775 30
      vertex 33.4615 43.775 3
    endloop
  endfacet
  facet normal -0.923879 0.382684 0
    outer loop
      vertex 33.4615 43.775 30
      vertex 32.7073 41.9541 3
      vertex 32.7073 41.9541 30
    endloop
  endfacet
  facet normal -0.382684 0.923879 0
    outer loop
      vertex 38.0459 47.2927 3
      vertex 36.225 46.5385 30
      vertex 38.0459 47.2927 30
    endloop
  endfacet
  facet normal -0.382684 0.923879 0
    outer loop
      vertex 36.225 46.5385 30
      vertex 38.0459 47.2927 3
      vertex 36.225 46.5385 3
    endloop
  endfacet
  facet normal 0.793353 -0.608762 0
    outer loop
      vertex 45.3387 34.6613 30
      vertex 46.5385 36.225 3
      vertex 46.5385 36.225 30
    endloop
  endfacet
  facet normal 0.793353 -0.608762 0
    outer loop
      vertex 46.5385 36.225 3
      vertex 45.3387 34.6613 30
      vertex 45.3387 34.6613 3
    endloop
  endfacet
  facet normal 0.382684 -0.923879 0
    outer loop
      vertex 41.9541 32.7073 3
      vertex 43.775 33.4615 30
      vertex 41.9541 32.7073 30
    endloop
  endfacet
  facet normal 0.382684 -0.923879 0
    outer loop
      vertex 43.775 33.4615 30
      vertex 41.9541 32.7073 3
      vertex 43.775 33.4615 3
    endloop
  endfacet
  facet normal 0.923879 -0.382684 0
    outer loop
      vertex 46.5385 36.225 30
      vertex 47.2927 38.0459 3
      vertex 47.2927 38.0459 30
    endloop
  endfacet
  facet normal 0.923879 -0.382684 0
    outer loop
      vertex 47.2927 38.0459 3
      vertex 46.5385 36.225 30
      vertex 46.5385 36.225 3
    endloop
  endfacet
  facet normal -0.382684 -0.923879 0
    outer loop
      vertex 36.225 33.4615 3
      vertex 38.0459 32.7073 30
      vertex 36.225 33.4615 30
    endloop
  endfacet
  facet normal -0.382684 -0.923879 -0
    outer loop
      vertex 38.0459 32.7073 30
      vertex 36.225 33.4615 3
      vertex 38.0459 32.7073 3
    endloop
  endfacet
  facet normal -0.923879 -0.382684 0
    outer loop
      vertex 33.4615 36.225 3
      vertex 32.7073 38.0459 30
      vertex 32.7073 38.0459 3
    endloop
  endfacet
  facet normal -0.923879 -0.382684 0
    outer loop
      vertex 32.7073 38.0459 30
      vertex 33.4615 36.225 3
      vertex 33.4615 36.225 30
    endloop
  endfacet
  facet normal 0.793352 0.608763 0
    outer loop
      vertex 46.5385 43.775 30
      vertex 45.3387 45.3387 3
      vertex 45.3387 45.3387 30
    endloop
  endfacet
  facet normal 0.793352 0.608763 0
    outer loop
      vertex 45.3387 45.3387 3
      vertex 46.5385 43.775 30
      vertex 46.5385 43.775 3
    endloop
  endfacet
  facet normal 0.130526 0.991445 -0
    outer loop
      vertex 41.9541 47.2927 3
      vertex 40 47.55 30
      vertex 41.9541 47.2927 30
    endloop
  endfacet
  facet normal 0.130526 0.991445 0
    outer loop
      vertex 40 47.55 30
      vertex 41.9541 47.2927 3
      vertex 40 47.55 3
    endloop
  endfacet
  facet normal -0.991445 0.130526 0
    outer loop
      vertex 32.45 40 3
      vertex 32.7073 41.9541 30
      vertex 32.7073 41.9541 3
    endloop
  endfacet
  facet normal -0.991445 0.130526 0
    outer loop
      vertex 32.7073 41.9541 30
      vertex 32.45 40 3
      vertex 32.45 40 30
    endloop
  endfacet
  facet normal 0 0 1
    outer loop
      vertex 46.55 40 30
      vertex 47.55 40 30
      vertex 47.2927 41.9541 30
    endloop
  endfacet
  facet normal 0 0 1
    outer loop
      vertex 47.55 40 30
      vertex 46.55 40 30
      vertex 47.2927 38.0459 30
    endloop
  endfacet
  facet normal 0 0 1
    outer loop
      vertex 46.259 41.9306 30
      vertex 47.2927 41.9541 30
      vertex 46.5385 43.775 30
    endloop
  endfacet
  facet normal 0 0 1
    outer loop
      vertex 47.2927 41.9541 30
      vertex 46.259 41.9306 30
      vertex 46.55 40 30
    endloop
  endfacet
  facet normal 0 0 1
    outer loop
      vertex 46.5385 43.775 30
      vertex 45.4119 43.6897 30
      vertex 46.259 41.9306 30
    endloop
  endfacet
  facet normal 0 0 1
    outer loop
      vertex 45.3387 45.3387 30
      vertex 45.4119 43.6897 30
      vertex 46.5385 43.775 30
    endloop
  endfacet
  facet normal 0 0 1
    outer loop
      vertex 45.3387 45.3387 30
      vertex 44.0839 45.121 30
      vertex 45.4119 43.6897 30
    endloop
  endfacet
  facet normal 0 0 1
    outer loop
      vertex 43.775 46.5385 30
      vertex 44.0839 45.121 30
      vertex 45.3387 45.3387 30
    endloop
  endfacet
  facet normal 0 0 1
    outer loop
      vertex 43.775 46.5385 30
      vertex 42.393 46.0972 30
      vertex 44.0839 45.121 30
    endloop
  endfacet
  facet normal 0 0 1
    outer loop
      vertex 41.9541 47.2927 30
      vertex 42.393 46.0972 30
      vertex 43.775 46.5385 30
    endloop
  endfacet
  facet normal 0 0 1
    outer loop
      vertex 41.9541 47.2927 30
      vertex 40.4895 46.5317 30
      vertex 42.393 46.0972 30
    endloop
  endfacet
  facet normal 0 0 1
    outer loop
      vertex 40 47.55 30
      vertex 40.4895 46.5317 30
      vertex 41.9541 47.2927 30
    endloop
  endfacet
  facet normal 0 0 1
    outer loop
      vertex 40 47.55 30
      vertex 38.5425 46.3858 30
      vertex 40.4895 46.5317 30
    endloop
  endfacet
  facet normal -0 0 1
    outer loop
      vertex 38.0459 47.2927 30
      vertex 38.5425 46.3858 30
      vertex 40 47.55 30
    endloop
  endfacet
  facet normal 0 0 1
    outer loop
      vertex 38.0459 47.2927 30
      vertex 36.725 45.6725 30
      vertex 38.5425 46.3858 30
    endloop
  endfacet
  facet normal -0 0 1
    outer loop
      vertex 36.225 46.5385 30
      vertex 36.725 45.6725 30
      vertex 38.0459 47.2927 30
    endloop
  endfacet
  facet normal 0 0 1
    outer loop
      vertex 34.6613 45.3387 30
      vertex 36.725 45.6725 30
      vertex 36.225 46.5385 30
    endloop
  endfacet
  facet normal 0 0 1
    outer loop
      vertex 36.725 45.6725 30
      vertex 34.6613 45.3387 30
      vertex 35.1985 44.4551 30
    endloop
  endfacet
  facet normal 0 0 1
    outer loop
      vertex 33.4615 43.775 30
      vertex 35.1985 44.4551 30
      vertex 34.6613 45.3387 30
    endloop
  endfacet
  facet normal 0 0 1
    outer loop
      vertex 35.1985 44.4551 30
      vertex 33.4615 43.775 30
      vertex 34.0987 42.8419 30
    endloop
  endfacet
  facet normal 0 0 1
    outer loop
      vertex 34.0987 42.8419 30
      vertex 32.7073 41.9541 30
      vertex 33.5232 40.9762 30
    endloop
  endfacet
  facet normal 0 0 1
    outer loop
      vertex 32.7073 41.9541 30
      vertex 34.0987 42.8419 30
      vertex 33.4615 43.775 30
    endloop
  endfacet
  facet normal -0 0 1
    outer loop
      vertex 46.259 38.0694 30
      vertex 47.2927 38.0459 30
      vertex 46.55 40 30
    endloop
  endfacet
  facet normal 0 0 1
    outer loop
      vertex 47.2927 38.0459 30
      vertex 46.259 38.0694 30
      vertex 46.5385 36.225 30
    endloop
  endfacet
  facet normal -0 0 1
    outer loop
      vertex 45.4119 36.3103 30
      vertex 46.5385 36.225 30
      vertex 46.259 38.0694 30
    endloop
  endfacet
  facet normal 0 0 1
    outer loop
      vertex 45.4119 36.3103 30
      vertex 45.3387 34.6613 30
      vertex 46.5385 36.225 30
    endloop
  endfacet
  facet normal -0 0 1
    outer loop
      vertex 44.0839 34.879 30
      vertex 45.3387 34.6613 30
      vertex 45.4119 36.3103 30
    endloop
  endfacet
  facet normal 0 0 1
    outer loop
      vertex 44.0839 34.879 30
      vertex 43.775 33.4615 30
      vertex 45.3387 34.6613 30
    endloop
  endfacet
  facet normal -0 0 1
    outer loop
      vertex 42.393 33.9028 30
      vertex 43.775 33.4615 30
      vertex 44.0839 34.879 30
    endloop
  endfacet
  facet normal 0 0 1
    outer loop
      vertex 42.393 33.9028 30
      vertex 41.9541 32.7073 30
      vertex 43.775 33.4615 30
    endloop
  endfacet
  facet normal -0 0 1
    outer loop
      vertex 40.4895 33.4683 30
      vertex 41.9541 32.7073 30
      vertex 42.393 33.9028 30
    endloop
  endfacet
  facet normal 0 0 1
    outer loop
      vertex 40.4895 33.4683 30
      vertex 40 32.45 30
      vertex 41.9541 32.7073 30
    endloop
  endfacet
  facet normal 0 0 1
    outer loop
      vertex 38.5425 33.6142 30
      vertex 40 32.45 30
      vertex 40.4895 33.4683 30
    endloop
  endfacet
  facet normal 0 0 1
    outer loop
      vertex 38.5425 33.6142 30
      vertex 38.0459 32.7073 30
      vertex 40 32.45 30
    endloop
  endfacet
  facet normal 0 0 1
    outer loop
      vertex 36.725 34.3275 30
      vertex 38.0459 32.7073 30
      vertex 38.5425 33.6142 30
    endloop
  endfacet
  facet normal 0 0 1
    outer loop
      vertex 36.725 34.3275 30
      vertex 36.225 33.4615 30
      vertex 38.0459 32.7073 30
    endloop
  endfacet
  facet normal -0 0 1
    outer loop
      vertex 34.6613 34.6613 30
      vertex 36.725 34.3275 30
      vertex 35.1985 35.5449 30
    endloop
  endfacet
  facet normal 0 0 1
    outer loop
      vertex 36.725 34.3275 30
      vertex 34.6613 34.6613 30
      vertex 36.225 33.4615 30
    endloop
  endfacet
  facet normal -0 0 1
    outer loop
      vertex 33.4615 36.225 30
      vertex 35.1985 35.5449 30
      vertex 34.0987 37.1581 30
    endloop
  endfacet
  facet normal -0 0 1
    outer loop
      vertex 32.7073 38.0459 30
      vertex 34.0987 37.1581 30
      vertex 33.5232 39.0238 30
    endloop
  endfacet
  facet normal 0 0 1
    outer loop
      vertex 35.1985 35.5449 30
      vertex 33.4615 36.225 30
      vertex 34.6613 34.6613 30
    endloop
  endfacet
  facet normal 0 0 1
    outer loop
      vertex 32.45 40 30
      vertex 33.5232 40.9762 30
      vertex 32.7073 41.9541 30
    endloop
  endfacet
  facet normal 0 0 1
    outer loop
      vertex 33.5232 40.9762 30
      vertex 32.45 40 30
      vertex 33.5232 39.0238 30
    endloop
  endfacet
  facet normal 0 0 1
    outer loop
      vertex 34.0987 37.1581 30
      vertex 32.7073 38.0459 30
      vertex 33.4615 36.225 30
    endloop
  endfacet
  facet normal 0 0 1
    outer loop
      vertex 33.5232 39.0238 30
      vertex 32.45 40 30
      vertex 32.7073 38.0459 30
    endloop
  endfacet
  facet normal -0.608762 0.793353 0
    outer loop
      vertex 36.225 46.5385 3
      vertex 34.6613 45.3387 30
      vertex 36.225 46.5385 30
    endloop
  endfacet
  facet normal -0.608762 0.793353 0
    outer loop
      vertex 34.6613 45.3387 30
      vertex 36.225 46.5385 3
      vertex 34.6613 45.3387 3
    endloop
  endfacet
  facet normal 0.991445 -0.130526 0
    outer loop
      vertex 47.2927 38.0459 30
      vertex 47.55 40 3
      vertex 47.55 40 30
    endloop
  endfacet
  facet normal 0.991445 -0.130526 0
    outer loop
      vertex 47.55 40 3
      vertex 47.2927 38.0459 30
      vertex 47.2927 38.0459 3
    endloop
  endfacet
  facet normal 0.608762 -0.793353 0
    outer loop
      vertex 43.775 33.4615 3
      vertex 45.3387 34.6613 30
      vertex 43.775 33.4615 30
    endloop
  endfacet
  facet normal 0.608762 -0.793353 0
    outer loop
      vertex 45.3387 34.6613 30
      vertex 43.775 33.4615 3
      vertex 45.3387 34.6613 3
    endloop
  endfacet
  facet normal -0.130526 -0.991445 0
    outer loop
      vertex 38.0459 32.7073 3
      vertex 40 32.45 30
      vertex 38.0459 32.7073 30
    endloop
  endfacet
  facet normal -0.130526 -0.991445 -0
    outer loop
      vertex 40 32.45 30
      vertex 38.0459 32.7073 3
      vertex 40 32.45 3
    endloop
  endfacet
  facet normal -0.793354 -0.608761 0
    outer loop
      vertex 34.6613 34.6613 3
      vertex 33.4615 36.225 30
      vertex 33.4615 36.225 3
    endloop
  endfacet
  facet normal -0.793354 -0.608761 0
    outer loop
      vertex 33.4615 36.225 30
      vertex 34.6613 34.6613 3
      vertex 34.6613 34.6613 30
    endloop
  endfacet
  facet normal -0.988831 -0.149042 0
    outer loop
      vertex 46.55 40 27.3
      vertex 46.259 41.9306 30
      vertex 46.259 41.9306 27.3
    endloop
  endfacet
  facet normal -0.988831 -0.149042 0
    outer loop
      vertex 46.259 41.9306 30
      vertex 46.55 40 27.3
      vertex 46.55 40 30
    endloop
  endfacet
  facet normal 1 -0 0
    outer loop
      vertex 33.5232 39.0238 30
      vertex 33.5232 40.9762 27.3
      vertex 33.5232 40.9762 30
    endloop
  endfacet
  facet normal 1 0 0
    outer loop
      vertex 33.5232 40.9762 27.3
      vertex 33.5232 39.0238 30
      vertex 33.5232 39.0238 27.3
    endloop
  endfacet
  facet normal 0.0747307 -0.997204 0
    outer loop
      vertex 38.5425 46.3858 27.3
      vertex 40.4895 46.5317 30
      vertex 38.5425 46.3858 30
    endloop
  endfacet
  facet normal 0.0747307 -0.997204 0
    outer loop
      vertex 40.4895 46.5317 30
      vertex 38.5425 46.3858 27.3
      vertex 40.4895 46.5317 27.3
    endloop
  endfacet
  facet normal -0.222522 0.974928 0
    outer loop
      vertex 42.393 33.9028 27.3
      vertex 40.4895 33.4683 30
      vertex 42.393 33.9028 30
    endloop
  endfacet
  facet normal -0.222522 0.974928 0
    outer loop
      vertex 40.4895 33.4683 30
      vertex 42.393 33.9028 27.3
      vertex 40.4895 33.4683 27.3
    endloop
  endfacet
  facet normal -0.5 -0.866026 0
    outer loop
      vertex 42.393 46.0972 27.3
      vertex 44.0839 45.121 30
      vertex 42.393 46.0972 30
    endloop
  endfacet
  facet normal -0.5 -0.866026 -0
    outer loop
      vertex 44.0839 45.121 30
      vertex 42.393 46.0972 27.3
      vertex 44.0839 45.121 27.3
    endloop
  endfacet
  facet normal -0.900969 -0.433883 0
    outer loop
      vertex 46.259 41.9306 27.3
      vertex 45.4119 43.6897 30
      vertex 45.4119 43.6897 27.3
    endloop
  endfacet
  facet normal -0.900969 -0.433883 0
    outer loop
      vertex 45.4119 43.6897 30
      vertex 46.259 41.9306 27.3
      vertex 46.259 41.9306 30
    endloop
  endfacet
  facet normal -0.222522 -0.974928 0
    outer loop
      vertex 40.4895 46.5317 27.3
      vertex 42.393 46.0972 30
      vertex 40.4895 46.5317 30
    endloop
  endfacet
  facet normal -0.222522 -0.974928 -0
    outer loop
      vertex 42.393 46.0972 30
      vertex 40.4895 46.5317 27.3
      vertex 42.393 46.0972 27.3
    endloop
  endfacet
  facet normal 0.82624 -0.563319 0
    outer loop
      vertex 34.0987 42.8419 30
      vertex 35.1985 44.4551 27.3
      vertex 35.1985 44.4551 30
    endloop
  endfacet
  facet normal 0.82624 -0.563319 0
    outer loop
      vertex 35.1985 44.4551 27.3
      vertex 34.0987 42.8419 30
      vertex 34.0987 42.8419 27.3
    endloop
  endfacet
  facet normal 0.955573 -0.294756 0
    outer loop
      vertex 33.5232 40.9762 30
      vertex 34.0987 42.8419 27.3
      vertex 34.0987 42.8419 30
    endloop
  endfacet
  facet normal 0.955573 -0.294756 0
    outer loop
      vertex 34.0987 42.8419 27.3
      vertex 33.5232 40.9762 30
      vertex 33.5232 40.9762 27.3
    endloop
  endfacet
  facet normal 0.36534 -0.930874 0
    outer loop
      vertex 36.725 45.6725 27.3
      vertex 38.5425 46.3858 30
      vertex 36.725 45.6725 30
    endloop
  endfacet
  facet normal 0.36534 -0.930874 0
    outer loop
      vertex 38.5425 46.3858 30
      vertex 36.725 45.6725 27.3
      vertex 38.5425 46.3858 27.3
    endloop
  endfacet
  facet normal -0.988831 0.149041 0
    outer loop
      vertex 46.259 38.0694 27.3
      vertex 46.55 40 30
      vertex 46.55 40 27.3
    endloop
  endfacet
  facet normal -0.988831 0.149041 0
    outer loop
      vertex 46.55 40 30
      vertex 46.259 38.0694 27.3
      vertex 46.259 38.0694 30
    endloop
  endfacet
  facet normal 0 0 1
    outer loop
      vertex 46.259 41.9306 27.3
      vertex 46.259 38.0694 27.3
      vertex 46.55 40 27.3
    endloop
  endfacet
  facet normal 0 0 1
    outer loop
      vertex 45.4119 43.6897 27.3
      vertex 46.259 38.0694 27.3
      vertex 46.259 41.9306 27.3
    endloop
  endfacet
  facet normal 0 0 1
    outer loop
      vertex 45.4119 43.6897 27.3
      vertex 45.4119 36.3103 27.3
      vertex 46.259 38.0694 27.3
    endloop
  endfacet
  facet normal 0 0 1
    outer loop
      vertex 44.0839 45.121 27.3
      vertex 45.4119 36.3103 27.3
      vertex 45.4119 43.6897 27.3
    endloop
  endfacet
  facet normal 0 0 1
    outer loop
      vertex 44.0839 45.121 27.3
      vertex 44.0839 34.879 27.3
      vertex 45.4119 36.3103 27.3
    endloop
  endfacet
  facet normal 0 0 1
    outer loop
      vertex 42.393 46.0972 27.3
      vertex 44.0839 34.879 27.3
      vertex 44.0839 45.121 27.3
    endloop
  endfacet
  facet normal 0 0 1
    outer loop
      vertex 42.393 46.0972 27.3
      vertex 42.393 33.9028 27.3
      vertex 44.0839 34.879 27.3
    endloop
  endfacet
  facet normal 0 0 1
    outer loop
      vertex 40.4895 46.5317 27.3
      vertex 42.393 33.9028 27.3
      vertex 42.393 46.0972 27.3
    endloop
  endfacet
  facet normal 0 0 1
    outer loop
      vertex 40.4895 46.5317 27.3
      vertex 40.4895 33.4683 27.3
      vertex 42.393 33.9028 27.3
    endloop
  endfacet
  facet normal -0 0 1
    outer loop
      vertex 38.5425 46.3858 27.3
      vertex 40.4895 33.4683 27.3
      vertex 40.4895 46.5317 27.3
    endloop
  endfacet
  facet normal 0 0 1
    outer loop
      vertex 38.5425 46.3858 27.3
      vertex 38.5425 33.6142 27.3
      vertex 40.4895 33.4683 27.3
    endloop
  endfacet
  facet normal -0 0 1
    outer loop
      vertex 36.725 45.6725 27.3
      vertex 38.5425 33.6142 27.3
      vertex 38.5425 46.3858 27.3
    endloop
  endfacet
  facet normal 0 0 1
    outer loop
      vertex 36.725 45.6725 27.3
      vertex 36.725 34.3275 27.3
      vertex 38.5425 33.6142 27.3
    endloop
  endfacet
  facet normal -0 0 1
    outer loop
      vertex 35.1985 44.4551 27.3
      vertex 36.725 34.3275 27.3
      vertex 36.725 45.6725 27.3
    endloop
  endfacet
  facet normal 0 0 1
    outer loop
      vertex 35.1985 44.4551 27.3
      vertex 35.1985 35.5449 27.3
      vertex 36.725 34.3275 27.3
    endloop
  endfacet
  facet normal -0 0 1
    outer loop
      vertex 34.0987 42.8419 27.3
      vertex 35.1985 35.5449 27.3
      vertex 35.1985 44.4551 27.3
    endloop
  endfacet
  facet normal 0 0 1
    outer loop
      vertex 34.0987 42.8419 27.3
      vertex 34.0987 37.1581 27.3
      vertex 35.1985 35.5449 27.3
    endloop
  endfacet
  facet normal -0 0 1
    outer loop
      vertex 33.5232 40.9762 27.3
      vertex 34.0987 37.1581 27.3
      vertex 34.0987 42.8419 27.3
    endloop
  endfacet
  facet normal 0 0 1
    outer loop
      vertex 34.0987 37.1581 27.3
      vertex 33.5232 40.9762 27.3
      vertex 33.5232 39.0238 27.3
    endloop
  endfacet
  facet normal -0.733051 -0.680174 0
    outer loop
      vertex 45.4119 43.6897 27.3
      vertex 44.0839 45.121 30
      vertex 44.0839 45.121 27.3
    endloop
  endfacet
  facet normal -0.733051 -0.680174 0
    outer loop
      vertex 44.0839 45.121 30
      vertex 45.4119 43.6897 27.3
      vertex 45.4119 43.6897 30
    endloop
  endfacet
  facet normal 0.62349 -0.781831 0
    outer loop
      vertex 35.1985 44.4551 27.3
      vertex 36.725 45.6725 30
      vertex 35.1985 44.4551 30
    endloop
  endfacet
  facet normal 0.62349 -0.781831 0
    outer loop
      vertex 36.725 45.6725 30
      vertex 35.1985 44.4551 27.3
      vertex 36.725 45.6725 27.3
    endloop
  endfacet
  facet normal -0.900969 0.433884 0
    outer loop
      vertex 45.4119 36.3103 27.3
      vertex 46.259 38.0694 30
      vertex 46.259 38.0694 27.3
    endloop
  endfacet
  facet normal -0.900969 0.433884 0
    outer loop
      vertex 46.259 38.0694 30
      vertex 45.4119 36.3103 27.3
      vertex 45.4119 36.3103 30
    endloop
  endfacet
  facet normal 0.365342 0.930873 -0
    outer loop
      vertex 38.5425 33.6142 27.3
      vertex 36.725 34.3275 30
      vertex 38.5425 33.6142 30
    endloop
  endfacet
  facet normal 0.365342 0.930873 0
    outer loop
      vertex 36.725 34.3275 30
      vertex 38.5425 33.6142 27.3
      vertex 36.725 34.3275 27.3
    endloop
  endfacet
  facet normal 0.82624 0.563319 0
    outer loop
      vertex 35.1985 35.5449 30
      vertex 34.0987 37.1581 27.3
      vertex 34.0987 37.1581 30
    endloop
  endfacet
  facet normal 0.82624 0.563319 0
    outer loop
      vertex 34.0987 37.1581 27.3
      vertex 35.1985 35.5449 30
      vertex 35.1985 35.5449 27.3
    endloop
  endfacet
  facet normal 0.955573 0.294756 0
    outer loop
      vertex 34.0987 37.1581 30
      vertex 33.5232 39.0238 27.3
      vertex 33.5232 39.0238 30
    endloop
  endfacet
  facet normal 0.955573 0.294756 0
    outer loop
      vertex 33.5232 39.0238 27.3
      vertex 34.0987 37.1581 30
      vertex 34.0987 37.1581 27.3
    endloop
  endfacet
  facet normal 0.62349 0.781831 -0
    outer loop
      vertex 36.725 34.3275 27.3
      vertex 35.1985 35.5449 30
      vertex 36.725 34.3275 30
    endloop
  endfacet
  facet normal 0.62349 0.781831 0
    outer loop
      vertex 35.1985 35.5449 30
      vertex 36.725 34.3275 27.3
      vertex 35.1985 35.5449 27.3
    endloop
  endfacet
  facet normal 0.0747288 0.997204 -0
    outer loop
      vertex 40.4895 33.4683 27.3
      vertex 38.5425 33.6142 30
      vertex 40.4895 33.4683 30
    endloop
  endfacet
  facet normal 0.0747288 0.997204 0
    outer loop
      vertex 38.5425 33.6142 30
      vertex 40.4895 33.4683 27.3
      vertex 38.5425 33.6142 27.3
    endloop
  endfacet
  facet normal -0.733051 0.680174 0
    outer loop
      vertex 44.0839 34.879 27.3
      vertex 45.4119 36.3103 30
      vertex 45.4119 36.3103 27.3
    endloop
  endfacet
  facet normal -0.733051 0.680174 0
    outer loop
      vertex 45.4119 36.3103 30
      vertex 44.0839 34.879 27.3
      vertex 44.0839 34.879 30
    endloop
  endfacet
  facet normal -0.5 0.866026 0
    outer loop
      vertex 44.0839 34.879 27.3
      vertex 42.393 33.9028 30
      vertex 44.0839 34.879 30
    endloop
  endfacet
  facet normal -0.5 0.866026 0
    outer loop
      vertex 42.393 33.9028 30
      vertex 44.0839 34.879 27.3
      vertex 42.393 33.9028 27.3
    endloop
  endfacet
endsolid OpenSCAD_Model
