solid OpenSCAD_Model
  facet normal -1 0 0
    outer loop
      vertex 0 0 0
      vertex 0 30 8
      vertex 0 30 0
    endloop
  endfacet
  facet normal -1 -0 0
    outer loop
      vertex 0 30 8
      vertex 0 0 0
      vertex 0 0 8
    endloop
  endfacet
  facet normal -1 0 0
    outer loop
      vertex 0 55 0
      vertex 0 85 8
      vertex 0 85 0
    endloop
  endfacet
  facet normal -1 -0 0
    outer loop
      vertex 0 85 8
      vertex 0 55 0
      vertex 0 55 8
    endloop
  endfacet
  facet normal 0 0 1
    outer loop
      vertex 2 30 8
      vertex 0 30 8
      vertex 2 2 8
    endloop
  endfacet
  facet normal -0 0 1
    outer loop
      vertex 2 2 8
      vertex 30 0 8
      vertex 30 2 8
    endloop
  endfacet
  facet normal 0 0 1
    outer loop
      vertex 2 2 8
      vertex 0 0 8
      vertex 30 0 8
    endloop
  endfacet
  facet normal 0 0 1
    outer loop
      vertex 0 0 8
      vertex 2 2 8
      vertex 0 30 8
    endloop
  endfacet
  facet normal 0 0 1
    outer loop
      vertex 83 2 8
      vertex 85 30 8
      vertex 83 30 8
    endloop
  endfacet
  facet normal 0 0 1
    outer loop
      vertex 85 30 8
      vertex 83 2 8
      vertex 85 0 8
    endloop
  endfacet
  facet normal 0 0 1
    outer loop
      vertex 55 0 8
      vertex 83 2 8
      vertex 55 2 8
    endloop
  endfacet
  facet normal 0 0 1
    outer loop
      vertex 83 2 8
      vertex 55 0 8
      vertex 85 0 8
    endloop
  endfacet
  facet normal 0 0 1
    outer loop
      vertex 85 85 8
      vertex 83 83 8
      vertex 85 55 8
    endloop
  endfacet
  facet normal -0 0 1
    outer loop
      vertex 55 85 8
      vertex 83 83 8
      vertex 85 85 8
    endloop
  endfacet
  facet normal 0 0 1
    outer loop
      vertex 83 83 8
      vertex 55 85 8
      vertex 55 83 8
    endloop
  endfacet
  facet normal 0 0 1
    outer loop
      vertex 85 55 8
      vertex 83 83 8
      vertex 83 55 8
    endloop
  endfacet
  facet normal 0 0 1
    outer loop
      vertex 30 85 8
      vertex 2 83 8
      vertex 30 83 8
    endloop
  endfacet
  facet normal -0 0 1
    outer loop
      vertex 0 85 8
      vertex 2 83 8
      vertex 30 85 8
    endloop
  endfacet
  facet normal 0 0 1
    outer loop
      vertex 0 55 8
      vertex 2 83 8
      vertex 0 85 8
    endloop
  endfacet
  facet normal 0 0 1
    outer loop
      vertex 2 83 8
      vertex 0 55 8
      vertex 2 55 8
    endloop
  endfacet
  facet normal 1 -0 0
    outer loop
      vertex 85 0 8
      vertex 85 30 0
      vertex 85 30 8
    endloop
  endfacet
  facet normal 1 0 0
    outer loop
      vertex 85 30 0
      vertex 85 0 8
      vertex 85 0 0
    endloop
  endfacet
  facet normal 1 -0 0
    outer loop
      vertex 85 55 8
      vertex 85 85 0
      vertex 85 85 8
    endloop
  endfacet
  facet normal 1 0 0
    outer loop
      vertex 85 85 0
      vertex 85 55 8
      vertex 85 55 0
    endloop
  endfacet
  facet normal 0 0 -1
    outer loop
      vertex 85 0 0
      vertex 83 30 0
      vertex 85 30 0
    endloop
  endfacet
  facet normal 0 0 -1
    outer loop
      vertex 85 0 0
      vertex 55 2 0
      vertex 83 30 0
    endloop
  endfacet
  facet normal 0 0 -1
    outer loop
      vertex 55 2 0
      vertex 85 0 0
      vertex 55 0 0
    endloop
  endfacet
  facet normal 0 0 -1
    outer loop
      vertex 83 55 0
      vertex 85 85 0
      vertex 85 55 0
    endloop
  endfacet
  facet normal -0 0 -1
    outer loop
      vertex 83 30 0
      vertex 55 2 0
      vertex 83 55 0
    endloop
  endfacet
  facet normal 0 0 -1
    outer loop
      vertex 55 83 0
      vertex 83 55 0
      vertex 55 2 0
    endloop
  endfacet
  facet normal 0 0 -1
    outer loop
      vertex 83 55 0
      vertex 55 83 0
      vertex 85 85 0
    endloop
  endfacet
  facet normal -0 0 -1
    outer loop
      vertex 85 85 0
      vertex 55 83 0
      vertex 55 85 0
    endloop
  endfacet
  facet normal 0 0 -1
    outer loop
      vertex 0 0 0
      vertex 30 2 0
      vertex 30 0 0
    endloop
  endfacet
  facet normal 0 0 -1
    outer loop
      vertex 30 2 0
      vertex 2 30 0
      vertex 30 83 0
    endloop
  endfacet
  facet normal 0 0 -1
    outer loop
      vertex 2 55 0
      vertex 30 83 0
      vertex 2 30 0
    endloop
  endfacet
  facet normal -0 0 -1
    outer loop
      vertex 30 2 0
      vertex 0 0 0
      vertex 2 30 0
    endloop
  endfacet
  facet normal -0 0 -1
    outer loop
      vertex 2 30 0
      vertex 0 0 0
      vertex 0 30 0
    endloop
  endfacet
  facet normal 0 0 -1
    outer loop
      vertex 30 2 0
      vertex 55 83 0
      vertex 55 2 0
    endloop
  endfacet
  facet normal -0 0 -1
    outer loop
      vertex 55 83 0
      vertex 30 2 0
      vertex 30 83 0
    endloop
  endfacet
  facet normal 0 0 -1
    outer loop
      vertex 0 85 0
      vertex 30 83 0
      vertex 2 55 0
    endloop
  endfacet
  facet normal 0 0 -1
    outer loop
      vertex 0 85 0
      vertex 2 55 0
      vertex 0 55 0
    endloop
  endfacet
  facet normal 0 0 -1
    outer loop
      vertex 30 83 0
      vertex 0 85 0
      vertex 30 85 0
    endloop
  endfacet
  facet normal 0 -1 0
    outer loop
      vertex 0 0 0
      vertex 30 0 8
      vertex 0 0 8
    endloop
  endfacet
  facet normal 0 -1 -0
    outer loop
      vertex 30 0 8
      vertex 0 0 0
      vertex 30 0 0
    endloop
  endfacet
  facet normal 0 -1 0
    outer loop
      vertex 55 0 0
      vertex 85 0 8
      vertex 55 0 8
    endloop
  endfacet
  facet normal 0 -1 -0
    outer loop
      vertex 85 0 8
      vertex 55 0 0
      vertex 85 0 0
    endloop
  endfacet
  facet normal 0 1 -0
    outer loop
      vertex 85 85 0
      vertex 55 85 8
      vertex 85 85 8
    endloop
  endfacet
  facet normal 0 1 0
    outer loop
      vertex 55 85 8
      vertex 85 85 0
      vertex 55 85 0
    endloop
  endfacet
  facet normal 0 1 -0
    outer loop
      vertex 30 85 0
      vertex 0 85 8
      vertex 30 85 8
    endloop
  endfacet
  facet normal 0 1 0
    outer loop
      vertex 0 85 8
      vertex 30 85 0
      vertex 0 85 0
    endloop
  endfacet
  facet normal 1 -0 0
    outer loop
      vertex 2 2 8
      vertex 2 30 3
      vertex 2 30 8
    endloop
  endfacet
  facet normal 1 0 0
    outer loop
      vertex 2 30 3
      vertex 2 2 8
      vertex 2 2 3
    endloop
  endfacet
  facet normal 1 -0 0
    outer loop
      vertex 2 55 8
      vertex 2 83 3
      vertex 2 83 8
    endloop
  endfacet
  facet normal 1 0 0
    outer loop
      vertex 2 83 3
      vertex 2 55 8
      vertex 2 55 3
    endloop
  endfacet
  facet normal -1 0 0
    outer loop
      vertex 2 30 0
      vertex 2 55 3
      vertex 2 55 0
    endloop
  endfacet
  facet normal -1 -0 0
    outer loop
      vertex 2 55 3
      vertex 2 30 0
      vertex 2 30 3
    endloop
  endfacet
  facet normal -1 0 0
    outer loop
      vertex 83 2 3
      vertex 83 30 8
      vertex 83 30 3
    endloop
  endfacet
  facet normal -1 -0 0
    outer loop
      vertex 83 30 8
      vertex 83 2 3
      vertex 83 2 8
    endloop
  endfacet
  facet normal -1 0 0
    outer loop
      vertex 83 55 3
      vertex 83 83 8
      vertex 83 83 3
    endloop
  endfacet
  facet normal -1 -0 0
    outer loop
      vertex 83 83 8
      vertex 83 55 3
      vertex 83 55 8
    endloop
  endfacet
  facet normal 1 -0 0
    outer loop
      vertex 83 30 3
      vertex 83 55 0
      vertex 83 55 3
    endloop
  endfacet
  facet normal 1 0 0
    outer loop
      vertex 83 55 0
      vertex 83 30 3
      vertex 83 30 0
    endloop
  endfacet
  facet normal 0 -1 0
    outer loop
      vertex 55 83 3
      vertex 83 83 8
      vertex 55 83 8
    endloop
  endfacet
  facet normal 0 -1 -0
    outer loop
      vertex 83 83 8
      vertex 55 83 3
      vertex 83 83 3
    endloop
  endfacet
  facet normal 0 -1 0
    outer loop
      vertex 2 83 3
      vertex 30 83 8
      vertex 2 83 8
    endloop
  endfacet
  facet normal 0 -1 -0
    outer loop
      vertex 30 83 8
      vertex 2 83 3
      vertex 30 83 3
    endloop
  endfacet
  facet normal 0 1 -0
    outer loop
      vertex 55 83 0
      vertex 30 83 3
      vertex 55 83 3
    endloop
  endfacet
  facet normal 0 1 0
    outer loop
      vertex 30 83 3
      vertex 55 83 0
      vertex 30 83 0
    endloop
  endfacet
  facet normal -0 0 1
    outer loop
      vertex 55 83 3
      vertex 83 55 3
      vertex 83 83 3
    endloop
  endfacet
  facet normal 0 -0 1
    outer loop
      vertex 50.3889 44.4444 3
      vertex 83 55 3
      vertex 49.6943 46.2759 3
    endloop
  endfacet
  facet normal 0 0 1
    outer loop
      vertex 83 55 3
      vertex 55 83 3
      vertex 48.5816 47.8879 3
    endloop
  endfacet
  facet normal 0 0 1
    outer loop
      vertex 83 55 3
      vertex 50.625 42.5 3
      vertex 83 30 3
    endloop
  endfacet
  facet normal -0 0 1
    outer loop
      vertex 49.6943 38.7241 3
      vertex 83 30 3
      vertex 50.3889 40.5556 3
    endloop
  endfacet
  facet normal -0 0 1
    outer loop
      vertex 50.3889 40.5556 3
      vertex 83 30 3
      vertex 50.625 42.5 3
    endloop
  endfacet
  facet normal 0 -0 1
    outer loop
      vertex 50.625 42.5 3
      vertex 83 55 3
      vertex 50.3889 44.4444 3
    endloop
  endfacet
  facet normal 0 0 1
    outer loop
      vertex 83 55 3
      vertex 48.5816 47.8879 3
      vertex 49.6943 46.2759 3
    endloop
  endfacet
  facet normal 0 0 1
    outer loop
      vertex 55 83 3
      vertex 47.1155 49.1867 3
      vertex 48.5816 47.8879 3
    endloop
  endfacet
  facet normal 0 0 1
    outer loop
      vertex 55 83 3
      vertex 45.3812 50.097 3
      vertex 47.1155 49.1867 3
    endloop
  endfacet
  facet normal 0 0 1
    outer loop
      vertex 55 83 3
      vertex 43.4794 50.5658 3
      vertex 45.3812 50.097 3
    endloop
  endfacet
  facet normal 0 0 1
    outer loop
      vertex 55 83 3
      vertex 41.5206 50.5658 3
      vertex 43.4794 50.5658 3
    endloop
  endfacet
  facet normal -0 0 1
    outer loop
      vertex 30 83 3
      vertex 41.5206 50.5658 3
      vertex 55 83 3
    endloop
  endfacet
  facet normal 0 0 1
    outer loop
      vertex 41.5206 50.5658 3
      vertex 30 83 3
      vertex 39.6188 50.097 3
    endloop
  endfacet
  facet normal 0 0 1
    outer loop
      vertex 39.6188 50.097 3
      vertex 30 83 3
      vertex 37.8845 49.1867 3
    endloop
  endfacet
  facet normal 0 0 1
    outer loop
      vertex 37.8845 49.1867 3
      vertex 30 83 3
      vertex 36.4184 47.8879 3
    endloop
  endfacet
  facet normal 0 0 1
    outer loop
      vertex 35.3057 46.2759 3
      vertex 2 55 3
      vertex 34.6111 44.4444 3
    endloop
  endfacet
  facet normal 0 0 1
    outer loop
      vertex 36.4184 47.8879 3
      vertex 2 55 3
      vertex 35.3057 46.2759 3
    endloop
  endfacet
  facet normal -0 0 1
    outer loop
      vertex 2 55 3
      vertex 36.4184 47.8879 3
      vertex 30 83 3
    endloop
  endfacet
  facet normal -0 0 1
    outer loop
      vertex 48.5816 37.1121 3
      vertex 83 30 3
      vertex 49.6943 38.7241 3
    endloop
  endfacet
  facet normal 0 -0 1
    outer loop
      vertex 55 2 3
      vertex 83 30 3
      vertex 48.5816 37.1121 3
    endloop
  endfacet
  facet normal 0 0 1
    outer loop
      vertex 83 30 3
      vertex 55 2 3
      vertex 83 2 3
    endloop
  endfacet
  facet normal -0 0 1
    outer loop
      vertex 47.1155 35.8133 3
      vertex 55 2 3
      vertex 48.5816 37.1121 3
    endloop
  endfacet
  facet normal -0 0 1
    outer loop
      vertex 45.3812 34.903 3
      vertex 55 2 3
      vertex 47.1155 35.8133 3
    endloop
  endfacet
  facet normal -0 0 1
    outer loop
      vertex 43.4794 34.4342 3
      vertex 55 2 3
      vertex 45.3812 34.903 3
    endloop
  endfacet
  facet normal -0 0 1
    outer loop
      vertex 41.5206 34.4342 3
      vertex 55 2 3
      vertex 43.4794 34.4342 3
    endloop
  endfacet
  facet normal 0 0 1
    outer loop
      vertex 30 2 3
      vertex 41.5206 34.4342 3
      vertex 39.6188 34.903 3
    endloop
  endfacet
  facet normal 0 0 1
    outer loop
      vertex 30 2 3
      vertex 39.6188 34.903 3
      vertex 37.8845 35.8133 3
    endloop
  endfacet
  facet normal 0 0 1
    outer loop
      vertex 30 2 3
      vertex 37.8845 35.8133 3
      vertex 36.4184 37.1121 3
    endloop
  endfacet
  facet normal 0 0 1
    outer loop
      vertex 2 30 3
      vertex 36.4184 37.1121 3
      vertex 35.3057 38.7241 3
    endloop
  endfacet
  facet normal 0 0 1
    outer loop
      vertex 41.5206 34.4342 3
      vertex 30 2 3
      vertex 55 2 3
    endloop
  endfacet
  facet normal 0 0 1
    outer loop
      vertex 2 30 3
      vertex 35.3057 38.7241 3
      vertex 34.6111 40.5556 3
    endloop
  endfacet
  facet normal 0 0 1
    outer loop
      vertex 2 30 3
      vertex 34.6111 40.5556 3
      vertex 34.375 42.5 3
    endloop
  endfacet
  facet normal 0 0 1
    outer loop
      vertex 34.6111 44.4444 3
      vertex 2 55 3
      vertex 34.375 42.5 3
    endloop
  endfacet
  facet normal 0 0 1
    outer loop
      vertex 2 55 3
      vertex 30 83 3
      vertex 2 83 3
    endloop
  endfacet
  facet normal 0 0 1
    outer loop
      vertex 2 30 3
      vertex 34.375 42.5 3
      vertex 2 55 3
    endloop
  endfacet
  facet normal 0 0 1
    outer loop
      vertex 36.4184 37.1121 3
      vertex 2 30 3
      vertex 30 2 3
    endloop
  endfacet
  facet normal 0 0 1
    outer loop
      vertex 30 2 3
      vertex 2 30 3
      vertex 2 2 3
    endloop
  endfacet
  facet normal 0 1 -0
    outer loop
      vertex 30 2 3
      vertex 2 2 8
      vertex 30 2 8
    endloop
  endfacet
  facet normal 0 1 0
    outer loop
      vertex 2 2 8
      vertex 30 2 3
      vertex 2 2 3
    endloop
  endfacet
  facet normal 0 1 -0
    outer loop
      vertex 83 2 3
      vertex 55 2 8
      vertex 83 2 8
    endloop
  endfacet
  facet normal 0 1 0
    outer loop
      vertex 55 2 8
      vertex 83 2 3
      vertex 55 2 3
    endloop
  endfacet
  facet normal 0 -1 0
    outer loop
      vertex 30 2 0
      vertex 55 2 3
      vertex 30 2 3
    endloop
  endfacet
  facet normal 0 -1 -0
    outer loop
      vertex 55 2 3
      vertex 30 2 0
      vertex 55 2 0
    endloop
  endfacet
  facet normal 1 -0 0
    outer loop
      vertex 30 0 8
      vertex 30 2 3
      vertex 30 2 8
    endloop
  endfacet
  facet normal 1 0 0
    outer loop
      vertex 30 0 0
      vertex 30 2 3
      vertex 30 0 8
    endloop
  endfacet
  facet normal 1 0 0
    outer loop
      vertex 30 2 3
      vertex 30 0 0
      vertex 30 2 0
    endloop
  endfacet
  facet normal -1 0 0
    outer loop
      vertex 55 0 0
      vertex 55 2 3
      vertex 55 2 0
    endloop
  endfacet
  facet normal -1 0 0
    outer loop
      vertex 55 0 8
      vertex 55 2 3
      vertex 55 0 0
    endloop
  endfacet
  facet normal -1 0 0
    outer loop
      vertex 55 2 3
      vertex 55 0 8
      vertex 55 2 8
    endloop
  endfacet
  facet normal 1 0 0
    outer loop
      vertex 30 83 3
      vertex 30 85 8
      vertex 30 83 8
    endloop
  endfacet
  facet normal 1 0 0
    outer loop
      vertex 30 85 8
      vertex 30 83 3
      vertex 30 85 0
    endloop
  endfacet
  facet normal 1 0 0
    outer loop
      vertex 30 85 0
      vertex 30 83 3
      vertex 30 83 0
    endloop
  endfacet
  facet normal -1 0 0
    outer loop
      vertex 55 83 3
      vertex 55 85 0
      vertex 55 83 0
    endloop
  endfacet
  facet normal -1 0 0
    outer loop
      vertex 55 85 0
      vertex 55 83 3
      vertex 55 85 8
    endloop
  endfacet
  facet normal -1 -0 0
    outer loop
      vertex 55 85 8
      vertex 55 83 3
      vertex 55 83 8
    endloop
  endfacet
  facet normal 0 -1 0
    outer loop
      vertex 0 55 8
      vertex 2 55 3
      vertex 2 55 8
    endloop
  endfacet
  facet normal 0 -1 0
    outer loop
      vertex 0 55 0
      vertex 2 55 3
      vertex 0 55 8
    endloop
  endfacet
  facet normal 0 -1 -0
    outer loop
      vertex 2 55 3
      vertex 0 55 0
      vertex 2 55 0
    endloop
  endfacet
  facet normal 0 1 -0
    outer loop
      vertex 2 30 3
      vertex 0 30 8
      vertex 2 30 8
    endloop
  endfacet
  facet normal 0 1 0
    outer loop
      vertex 0 30 0
      vertex 2 30 3
      vertex 2 30 0
    endloop
  endfacet
  facet normal 0 1 0
    outer loop
      vertex 2 30 3
      vertex 0 30 0
      vertex 0 30 8
    endloop
  endfacet
  facet normal 0 -1 0
    outer loop
      vertex 83 55 3
      vertex 85 55 8
      vertex 83 55 8
    endloop
  endfacet
  facet normal 0 -1 0
    outer loop
      vertex 85 55 0
      vertex 83 55 3
      vertex 83 55 0
    endloop
  endfacet
  facet normal 0 -1 0
    outer loop
      vertex 83 55 3
      vertex 85 55 0
      vertex 85 55 8
    endloop
  endfacet
  facet normal 0 1 0
    outer loop
      vertex 85 30 8
      vertex 83 30 3
      vertex 83 30 8
    endloop
  endfacet
  facet normal 0 1 -0
    outer loop
      vertex 85 30 0
      vertex 83 30 3
      vertex 85 30 8
    endloop
  endfacet
  facet normal 0 1 0
    outer loop
      vertex 83 30 3
      vertex 85 30 0
      vertex 83 30 0
    endloop
  endfacet
  facet normal -0.992709 -0.120537 0
    outer loop
      vertex 50.625 42.5 1.6
      vertex 50.3889 44.4444 3
      vertex 50.3889 44.4444 1.6
    endloop
  endfacet
  facet normal -0.992709 -0.120537 0
    outer loop
      vertex 50.3889 44.4444 3
      vertex 50.625 42.5 1.6
      vertex 50.625 42.5 3
    endloop
  endfacet
  facet normal 0.239315 -0.970942 0
    outer loop
      vertex 39.6188 50.097 1.6
      vertex 41.5206 50.5658 3
      vertex 39.6188 50.097 3
    endloop
  endfacet
  facet normal 0.239315 -0.970942 0
    outer loop
      vertex 41.5206 50.5658 3
      vertex 39.6188 50.097 1.6
      vertex 41.5206 50.5658 1.6
    endloop
  endfacet
  facet normal -0.239314 0.970942 0
    outer loop
      vertex 45.3812 34.903 1.6
      vertex 43.4794 34.4342 3
      vertex 45.3812 34.903 3
    endloop
  endfacet
  facet normal -0.239314 0.970942 0
    outer loop
      vertex 43.4794 34.4342 3
      vertex 45.3812 34.903 1.6
      vertex 43.4794 34.4342 1.6
    endloop
  endfacet
  facet normal -0.464724 -0.885456 0
    outer loop
      vertex 45.3812 50.097 1.6
      vertex 47.1155 49.1867 3
      vertex 45.3812 50.097 3
    endloop
  endfacet
  facet normal -0.464724 -0.885456 -0
    outer loop
      vertex 47.1155 49.1867 3
      vertex 45.3812 50.097 1.6
      vertex 47.1155 49.1867 1.6
    endloop
  endfacet
  facet normal -0.239314 -0.970942 0
    outer loop
      vertex 43.4794 50.5658 1.6
      vertex 45.3812 50.097 3
      vertex 43.4794 50.5658 3
    endloop
  endfacet
  facet normal -0.239314 -0.970942 -0
    outer loop
      vertex 45.3812 50.097 3
      vertex 43.4794 50.5658 1.6
      vertex 45.3812 50.097 1.6
    endloop
  endfacet
  facet normal 0.822984 -0.568064 0
    outer loop
      vertex 35.3057 46.2759 3
      vertex 36.4184 47.8879 1.6
      vertex 36.4184 47.8879 3
    endloop
  endfacet
  facet normal 0.822984 -0.568064 0
    outer loop
      vertex 36.4184 47.8879 1.6
      vertex 35.3057 46.2759 3
      vertex 35.3057 46.2759 1.6
    endloop
  endfacet
  facet normal 0.935016 -0.354605 0
    outer loop
      vertex 34.6111 44.4444 3
      vertex 35.3057 46.2759 1.6
      vertex 35.3057 46.2759 3
    endloop
  endfacet
  facet normal 0.935016 -0.354605 0
    outer loop
      vertex 35.3057 46.2759 1.6
      vertex 34.6111 44.4444 3
      vertex 34.6111 44.4444 1.6
    endloop
  endfacet
  facet normal 0.663123 -0.748511 0
    outer loop
      vertex 36.4184 47.8879 1.6
      vertex 37.8845 49.1867 3
      vertex 36.4184 47.8879 3
    endloop
  endfacet
  facet normal 0.663123 -0.748511 0
    outer loop
      vertex 37.8845 49.1867 3
      vertex 36.4184 47.8879 1.6
      vertex 37.8845 49.1867 1.6
    endloop
  endfacet
  facet normal -0.935016 0.354605 0
    outer loop
      vertex 49.6943 38.7241 1.6
      vertex 50.3889 40.5556 3
      vertex 50.3889 40.5556 1.6
    endloop
  endfacet
  facet normal -0.935016 0.354605 0
    outer loop
      vertex 50.3889 40.5556 3
      vertex 49.6943 38.7241 1.6
      vertex 49.6943 38.7241 3
    endloop
  endfacet
  facet normal -0.822984 -0.568064 0
    outer loop
      vertex 49.6943 46.2759 1.6
      vertex 48.5816 47.8879 3
      vertex 48.5816 47.8879 1.6
    endloop
  endfacet
  facet normal -0.822984 -0.568064 0
    outer loop
      vertex 48.5816 47.8879 3
      vertex 49.6943 46.2759 1.6
      vertex 49.6943 46.2759 3
    endloop
  endfacet
  facet normal -0.935016 -0.354605 0
    outer loop
      vertex 50.3889 44.4444 1.6
      vertex 49.6943 46.2759 3
      vertex 49.6943 46.2759 1.6
    endloop
  endfacet
  facet normal -0.935016 -0.354605 0
    outer loop
      vertex 49.6943 46.2759 3
      vertex 50.3889 44.4444 1.6
      vertex 50.3889 44.4444 3
    endloop
  endfacet
  facet normal -0.663123 -0.748511 0
    outer loop
      vertex 47.1155 49.1867 1.6
      vertex 48.5816 47.8879 3
      vertex 47.1155 49.1867 3
    endloop
  endfacet
  facet normal -0.663123 -0.748511 -0
    outer loop
      vertex 48.5816 47.8879 3
      vertex 47.1155 49.1867 1.6
      vertex 48.5816 47.8879 1.6
    endloop
  endfacet
  facet normal 0 -1 0
    outer loop
      vertex 41.5206 50.5658 1.6
      vertex 43.4794 50.5658 3
      vertex 41.5206 50.5658 3
    endloop
  endfacet
  facet normal 0 -1 -0
    outer loop
      vertex 43.4794 50.5658 3
      vertex 41.5206 50.5658 1.6
      vertex 43.4794 50.5658 1.6
    endloop
  endfacet
  facet normal 0 0 1
    outer loop
      vertex 50.3889 44.4444 1.6
      vertex 50.3889 40.5556 1.6
      vertex 50.625 42.5 1.6
    endloop
  endfacet
  facet normal 0 0 1
    outer loop
      vertex 49.6943 46.2759 1.6
      vertex 50.3889 40.5556 1.6
      vertex 50.3889 44.4444 1.6
    endloop
  endfacet
  facet normal 0 0 1
    outer loop
      vertex 49.6943 46.2759 1.6
      vertex 49.6943 38.7241 1.6
      vertex 50.3889 40.5556 1.6
    endloop
  endfacet
  facet normal 0 0 1
    outer loop
      vertex 48.5816 47.8879 1.6
      vertex 49.6943 38.7241 1.6
      vertex 49.6943 46.2759 1.6
    endloop
  endfacet
  facet normal 0 0 1
    outer loop
      vertex 48.5816 47.8879 1.6
      vertex 48.5816 37.1121 1.6
      vertex 49.6943 38.7241 1.6
    endloop
  endfacet
  facet normal 0 0 1
    outer loop
      vertex 47.1155 49.1867 1.6
      vertex 48.5816 37.1121 1.6
      vertex 48.5816 47.8879 1.6
    endloop
  endfacet
  facet normal 0 0 1
    outer loop
      vertex 47.1155 49.1867 1.6
      vertex 47.1155 35.8133 1.6
      vertex 48.5816 37.1121 1.6
    endloop
  endfacet
  facet normal 0 0 1
    outer loop
      vertex 45.3812 50.097 1.6
      vertex 47.1155 35.8133 1.6
      vertex 47.1155 49.1867 1.6
    endloop
  endfacet
  facet normal 0 0 1
    outer loop
      vertex 45.3812 50.097 1.6
      vertex 45.3812 34.903 1.6
      vertex 47.1155 35.8133 1.6
    endloop
  endfacet
  facet normal 0 0 1
    outer loop
      vertex 43.4794 50.5658 1.6
      vertex 45.3812 34.903 1.6
      vertex 45.3812 50.097 1.6
    endloop
  endfacet
  facet normal 0 0 1
    outer loop
      vertex 43.4794 50.5658 1.6
      vertex 43.4794 34.4342 1.6
      vertex 45.3812 34.903 1.6
    endloop
  endfacet
  facet normal -0 0 1
    outer loop
      vertex 41.5206 50.5658 1.6
      vertex 43.4794 34.4342 1.6
      vertex 43.4794 50.5658 1.6
    endloop
  endfacet
  facet normal 0 0 1
    outer loop
      vertex 41.5206 50.5658 1.6
      vertex 41.5206 34.4342 1.6
      vertex 43.4794 34.4342 1.6
    endloop
  endfacet
  facet normal -0 0 1
    outer loop
      vertex 39.6188 50.097 1.6
      vertex 41.5206 34.4342 1.6
      vertex 41.5206 50.5658 1.6
    endloop
  endfacet
  facet normal 0 0 1
    outer loop
      vertex 39.6188 50.097 1.6
      vertex 39.6188 34.903 1.6
      vertex 41.5206 34.4342 1.6
    endloop
  endfacet
  facet normal -0 0 1
    outer loop
      vertex 37.8845 49.1867 1.6
      vertex 39.6188 34.903 1.6
      vertex 39.6188 50.097 1.6
    endloop
  endfacet
  facet normal 0 0 1
    outer loop
      vertex 37.8845 49.1867 1.6
      vertex 37.8845 35.8133 1.6
      vertex 39.6188 34.903 1.6
    endloop
  endfacet
  facet normal -0 0 1
    outer loop
      vertex 36.4184 47.8879 1.6
      vertex 37.8845 35.8133 1.6
      vertex 37.8845 49.1867 1.6
    endloop
  endfacet
  facet normal 0 0 1
    outer loop
      vertex 36.4184 47.8879 1.6
      vertex 36.4184 37.1121 1.6
      vertex 37.8845 35.8133 1.6
    endloop
  endfacet
  facet normal -0 0 1
    outer loop
      vertex 35.3057 46.2759 1.6
      vertex 36.4184 37.1121 1.6
      vertex 36.4184 47.8879 1.6
    endloop
  endfacet
  facet normal 0 0 1
    outer loop
      vertex 35.3057 46.2759 1.6
      vertex 35.3057 38.7241 1.6
      vertex 36.4184 37.1121 1.6
    endloop
  endfacet
  facet normal -0 0 1
    outer loop
      vertex 34.6111 44.4444 1.6
      vertex 35.3057 38.7241 1.6
      vertex 35.3057 46.2759 1.6
    endloop
  endfacet
  facet normal 0 0 1
    outer loop
      vertex 34.6111 44.4444 1.6
      vertex 34.6111 40.5556 1.6
      vertex 35.3057 38.7241 1.6
    endloop
  endfacet
  facet normal 0 -0 1
    outer loop
      vertex 34.6111 40.5556 1.6
      vertex 34.6111 44.4444 1.6
      vertex 34.375 42.5 1.6
    endloop
  endfacet
  facet normal 0.992709 -0.120537 0
    outer loop
      vertex 34.375 42.5 3
      vertex 34.6111 44.4444 1.6
      vertex 34.6111 44.4444 3
    endloop
  endfacet
  facet normal 0.992709 -0.120537 0
    outer loop
      vertex 34.6111 44.4444 1.6
      vertex 34.375 42.5 3
      vertex 34.375 42.5 1.6
    endloop
  endfacet
  facet normal 0.464724 -0.885456 0
    outer loop
      vertex 37.8845 49.1867 1.6
      vertex 39.6188 50.097 3
      vertex 37.8845 49.1867 3
    endloop
  endfacet
  facet normal 0.464724 -0.885456 0
    outer loop
      vertex 39.6188 50.097 3
      vertex 37.8845 49.1867 1.6
      vertex 39.6188 50.097 1.6
    endloop
  endfacet
  facet normal -0.992709 0.120537 0
    outer loop
      vertex 50.3889 40.5556 1.6
      vertex 50.625 42.5 3
      vertex 50.625 42.5 1.6
    endloop
  endfacet
  facet normal -0.992709 0.120537 0
    outer loop
      vertex 50.625 42.5 3
      vertex 50.3889 40.5556 1.6
      vertex 50.3889 40.5556 3
    endloop
  endfacet
  facet normal -0.822984 0.568064 0
    outer loop
      vertex 48.5816 37.1121 1.6
      vertex 49.6943 38.7241 3
      vertex 49.6943 38.7241 1.6
    endloop
  endfacet
  facet normal -0.822984 0.568064 0
    outer loop
      vertex 49.6943 38.7241 3
      vertex 48.5816 37.1121 1.6
      vertex 48.5816 37.1121 3
    endloop
  endfacet
  facet normal 0.992709 0.120537 0
    outer loop
      vertex 34.6111 40.5556 3
      vertex 34.375 42.5 1.6
      vertex 34.375 42.5 3
    endloop
  endfacet
  facet normal 0.992709 0.120537 0
    outer loop
      vertex 34.375 42.5 1.6
      vertex 34.6111 40.5556 3
      vertex 34.6111 40.5556 1.6
    endloop
  endfacet
  facet normal 0.239315 0.970942 -0
    outer loop
      vertex 41.5206 34.4342 1.6
      vertex 39.6188 34.903 3
      vertex 41.5206 34.4342 3
    endloop
  endfacet
  facet normal 0.239315 0.970942 0
    outer loop
      vertex 39.6188 34.903 3
      vertex 41.5206 34.4342 1.6
      vertex 39.6188 34.903 1.6
    endloop
  endfacet
  facet normal 0.663123 0.748511 -0
    outer loop
      vertex 37.8845 35.8133 1.6
      vertex 36.4184 37.1121 3
      vertex 37.8845 35.8133 3
    endloop
  endfacet
  facet normal 0.663123 0.748511 0
    outer loop
      vertex 36.4184 37.1121 3
      vertex 37.8845 35.8133 1.6
      vertex 36.4184 37.1121 1.6
    endloop
  endfacet
  facet normal 0 1 -0
    outer loop
      vertex 43.4794 34.4342 1.6
      vertex 41.5206 34.4342 3
      vertex 43.4794 34.4342 3
    endloop
  endfacet
  facet normal 0 1 0
    outer loop
      vertex 41.5206 34.4342 3
      vertex 43.4794 34.4342 1.6
      vertex 41.5206 34.4342 1.6
    endloop
  endfacet
  facet normal 0.464724 0.885456 -0
    outer loop
      vertex 39.6188 34.903 1.6
      vertex 37.8845 35.8133 3
      vertex 39.6188 34.903 3
    endloop
  endfacet
  facet normal 0.464724 0.885456 0
    outer loop
      vertex 37.8845 35.8133 3
      vertex 39.6188 34.903 1.6
      vertex 37.8845 35.8133 1.6
    endloop
  endfacet
  facet normal 0.822984 0.568064 0
    outer loop
      vertex 36.4184 37.1121 3
      vertex 35.3057 38.7241 1.6
      vertex 35.3057 38.7241 3
    endloop
  endfacet
  facet normal 0.822984 0.568064 0
    outer loop
      vertex 35.3057 38.7241 1.6
      vertex 36.4184 37.1121 3
      vertex 36.4184 37.1121 1.6
    endloop
  endfacet
  facet normal 0.935016 0.354605 0
    outer loop
      vertex 35.3057 38.7241 3
      vertex 34.6111 40.5556 1.6
      vertex 34.6111 40.5556 3
    endloop
  endfacet
  facet normal 0.935016 0.354605 0
    outer loop
      vertex 34.6111 40.5556 1.6
      vertex 35.3057 38.7241 3
      vertex 35.3057 38.7241 1.6
    endloop
  endfacet
  facet normal -0.663123 0.748511 0
    outer loop
      vertex 48.5816 37.1121 1.6
      vertex 47.1155 35.8133 3
      vertex 48.5816 37.1121 3
    endloop
  endfacet
  facet normal -0.663123 0.748511 0
    outer loop
      vertex 47.1155 35.8133 3
      vertex 48.5816 37.1121 1.6
      vertex 47.1155 35.8133 1.6
    endloop
  endfacet
  facet normal -0.464724 0.885456 0
    outer loop
      vertex 47.1155 35.8133 1.6
      vertex 45.3812 34.903 3
      vertex 47.1155 35.8133 3
    endloop
  endfacet
  facet normal -0.464724 0.885456 0
    outer loop
      vertex 45.3812 34.903 3
      vertex 47.1155 35.8133 1.6
      vertex 45.3812 34.903 1.6
    endloop
  endfacet
endsolid OpenSCAD_Model
