solid OpenSCAD_Model
  facet normal -1 0 0
    outer loop
      vertex 0 0 0
      vertex 0 90 25
      vertex 0 90 0
    endloop
  endfacet
  facet normal -1 -0 0
    outer loop
      vertex 0 90 25
      vertex 0 0 0
      vertex 0 0 25
    endloop
  endfacet
  facet normal 0 0 1
    outer loop
      vertex 44.0357 37.0583 25
      vertex 43.9547 35.0548 25
      vertex 44 35.0548 25
    endloop
  endfacet
  facet normal 0 0 1
    outer loop
      vertex 41.9098 35.4894 25
      vertex 44.0357 37.0583 25
      vertex 42.1632 37.5199 25
    endloop
  endfacet
  facet normal 0 0 1
    outer loop
      vertex 44.0357 37.0583 25
      vertex 41.9098 35.4894 25
      vertex 43.9547 35.0548 25
    endloop
  endfacet
  facet normal 0 0 1
    outer loop
      vertex 40 36.3397 25
      vertex 42.1632 37.5199 25
      vertex 40.4555 38.4161 25
    endloop
  endfacet
  facet normal 0 0 1
    outer loop
      vertex 42.1632 37.5199 25
      vertex 40 36.3397 25
      vertex 41.9098 35.4894 25
    endloop
  endfacet
  facet normal 0 0 1
    outer loop
      vertex 38.3087 37.5686 25
      vertex 40.4555 38.4161 25
      vertex 39.0119 39.695 25
    endloop
  endfacet
  facet normal 0 0 1
    outer loop
      vertex 40.4555 38.4161 25
      vertex 38.3087 37.5686 25
      vertex 40 36.3397 25
    endloop
  endfacet
  facet normal 0 0 1
    outer loop
      vertex 36.9098 39.1221 25
      vertex 39.0119 39.695 25
      vertex 37.9164 41.2822 25
    endloop
  endfacet
  facet normal 0 0 1
    outer loop
      vertex 35.8645 40.9326 25
      vertex 37.9164 41.2822 25
      vertex 37.2325 43.0855 25
    endloop
  endfacet
  facet normal 0 0 1
    outer loop
      vertex 39.0119 39.695 25
      vertex 36.9098 39.1221 25
      vertex 38.3087 37.5686 25
    endloop
  endfacet
  facet normal -0 0 1
    outer loop
      vertex 35.1051 44 25
      vertex 37.2325 43.0855 25
      vertex 37 45 25
    endloop
  endfacet
  facet normal -0 0 1
    outer loop
      vertex 35.2185 47.0791 25
      vertex 37.2325 46.9145 25
      vertex 35.8645 49.0674 25
    endloop
  endfacet
  facet normal 0 0 1
    outer loop
      vertex 35.1051 46 25
      vertex 37.2325 46.9145 25
      vertex 35.2185 47.0791 25
    endloop
  endfacet
  facet normal 0 0 1
    outer loop
      vertex 35.1051 44 25
      vertex 37 45 25
      vertex 35.1051 46 25
    endloop
  endfacet
  facet normal 0 0 1
    outer loop
      vertex 37.2325 46.9145 25
      vertex 35.1051 46 25
      vertex 37 45 25
    endloop
  endfacet
  facet normal 0 0 1
    outer loop
      vertex 37.2325 43.0855 25
      vertex 35.1051 44 25
      vertex 35.2185 42.9209 25
    endloop
  endfacet
  facet normal 0 0 1
    outer loop
      vertex 37.9164 41.2822 25
      vertex 35.8645 40.9326 25
      vertex 36.9098 39.1221 25
    endloop
  endfacet
  facet normal 0 0 1
    outer loop
      vertex 37.2325 43.0855 25
      vertex 35.2185 42.9209 25
      vertex 35.8645 40.9326 25
    endloop
  endfacet
  facet normal -0 0 1
    outer loop
      vertex 2 46 25
      vertex 35.1051 44 25
      vertex 35.1051 46 25
    endloop
  endfacet
  facet normal 0 0 1
    outer loop
      vertex 35.1051 44 25
      vertex 2 46 25
      vertex 2 44 25
    endloop
  endfacet
  facet normal 0 0 1
    outer loop
      vertex 46 54.9452 25
      vertex 44 54.9452 25
      vertex 44.0357 52.9417 25
    endloop
  endfacet
  facet normal -0 0 1
    outer loop
      vertex 43.9547 54.9452 25
      vertex 44.0357 52.9417 25
      vertex 44 54.9452 25
    endloop
  endfacet
  facet normal -0 0 1
    outer loop
      vertex 41.9098 54.5106 25
      vertex 44.0357 52.9417 25
      vertex 43.9547 54.9452 25
    endloop
  endfacet
  facet normal 0 0 1
    outer loop
      vertex 44.0357 52.9417 25
      vertex 41.9098 54.5106 25
      vertex 42.1632 52.4801 25
    endloop
  endfacet
  facet normal -0 0 1
    outer loop
      vertex 40 53.6603 25
      vertex 42.1632 52.4801 25
      vertex 41.9098 54.5106 25
    endloop
  endfacet
  facet normal 0 0 1
    outer loop
      vertex 42.1632 52.4801 25
      vertex 40 53.6603 25
      vertex 40.4555 51.5839 25
    endloop
  endfacet
  facet normal -0 0 1
    outer loop
      vertex 38.3087 52.4314 25
      vertex 40.4555 51.5839 25
      vertex 40 53.6603 25
    endloop
  endfacet
  facet normal 0 0 1
    outer loop
      vertex 40.4555 51.5839 25
      vertex 38.3087 52.4314 25
      vertex 39.0119 50.305 25
    endloop
  endfacet
  facet normal -0 0 1
    outer loop
      vertex 36.9098 50.8779 25
      vertex 39.0119 50.305 25
      vertex 38.3087 52.4314 25
    endloop
  endfacet
  facet normal 0 0 1
    outer loop
      vertex 39.0119 50.305 25
      vertex 36.9098 50.8779 25
      vertex 37.9164 48.7178 25
    endloop
  endfacet
  facet normal 0 0 1
    outer loop
      vertex 37.9164 48.7178 25
      vertex 35.8645 49.0674 25
      vertex 37.2325 46.9145 25
    endloop
  endfacet
  facet normal -0 0 1
    outer loop
      vertex 35.8645 49.0674 25
      vertex 37.9164 48.7178 25
      vertex 36.9098 50.8779 25
    endloop
  endfacet
  facet normal -0 0 1
    outer loop
      vertex 54.8949 46 25
      vertex 88 44 25
      vertex 88 46 25
    endloop
  endfacet
  facet normal 0 0 1
    outer loop
      vertex 54.8949 46 25
      vertex 54.8949 44 25
      vertex 88 44 25
    endloop
  endfacet
  facet normal -0 0 1
    outer loop
      vertex 52.7675 46.9145 25
      vertex 54.8949 46 25
      vertex 54.7815 47.0791 25
    endloop
  endfacet
  facet normal 0 0 1
    outer loop
      vertex 54.8949 46 25
      vertex 53 45 25
      vertex 54.8949 44 25
    endloop
  endfacet
  facet normal 0 0 1
    outer loop
      vertex 52.7675 46.9145 25
      vertex 54.7815 47.0791 25
      vertex 54.1355 49.0674 25
    endloop
  endfacet
  facet normal 0 0 1
    outer loop
      vertex 52.7675 43.0855 25
      vertex 54.8949 44 25
      vertex 53 45 25
    endloop
  endfacet
  facet normal 0 0 1
    outer loop
      vertex 52.0836 48.7178 25
      vertex 54.1355 49.0674 25
      vertex 53.0902 50.8779 25
    endloop
  endfacet
  facet normal 0 0 1
    outer loop
      vertex 54.8949 44 25
      vertex 52.7675 43.0855 25
      vertex 54.7815 42.9209 25
    endloop
  endfacet
  facet normal 0 0 1
    outer loop
      vertex 54.7815 42.9209 25
      vertex 52.7675 43.0855 25
      vertex 54.1355 40.9326 25
    endloop
  endfacet
  facet normal 0 0 1
    outer loop
      vertex 54.8949 46 25
      vertex 52.7675 46.9145 25
      vertex 53 45 25
    endloop
  endfacet
  facet normal 0 0 1
    outer loop
      vertex 54.1355 49.0674 25
      vertex 52.0836 48.7178 25
      vertex 52.7675 46.9145 25
    endloop
  endfacet
  facet normal 0 0 1
    outer loop
      vertex 50.9881 50.305 25
      vertex 53.0902 50.8779 25
      vertex 51.6913 52.4314 25
    endloop
  endfacet
  facet normal 0 0 1
    outer loop
      vertex 53.0902 50.8779 25
      vertex 50.9881 50.305 25
      vertex 52.0836 48.7178 25
    endloop
  endfacet
  facet normal 0 0 1
    outer loop
      vertex 49.5445 51.5839 25
      vertex 51.6913 52.4314 25
      vertex 50 53.6603 25
    endloop
  endfacet
  facet normal 0 0 1
    outer loop
      vertex 51.6913 52.4314 25
      vertex 49.5445 51.5839 25
      vertex 50.9881 50.305 25
    endloop
  endfacet
  facet normal 0 0 1
    outer loop
      vertex 47.8368 52.4801 25
      vertex 50 53.6603 25
      vertex 48.0902 54.5106 25
    endloop
  endfacet
  facet normal 0 0 1
    outer loop
      vertex 50 53.6603 25
      vertex 47.8368 52.4801 25
      vertex 49.5445 51.5839 25
    endloop
  endfacet
  facet normal 0 0 1
    outer loop
      vertex 45.9643 52.9417 25
      vertex 48.0902 54.5106 25
      vertex 46.0453 54.9452 25
    endloop
  endfacet
  facet normal 0 0 1
    outer loop
      vertex 45.9643 52.9417 25
      vertex 46.0453 54.9452 25
      vertex 46 54.9452 25
    endloop
  endfacet
  facet normal 0 0 1
    outer loop
      vertex 48.0902 54.5106 25
      vertex 45.9643 52.9417 25
      vertex 47.8368 52.4801 25
    endloop
  endfacet
  facet normal 0 0 1
    outer loop
      vertex 88 46 25
      vertex 90 90 25
      vertex 88 88 25
    endloop
  endfacet
  facet normal 0 0 1
    outer loop
      vertex 90 90 25
      vertex 46 88 25
      vertex 88 88 25
    endloop
  endfacet
  facet normal -0 0 1
    outer loop
      vertex 44 88 25
      vertex 46 54.9452 25
      vertex 46 88 25
    endloop
  endfacet
  facet normal 0 0 1
    outer loop
      vertex 46 54.9452 25
      vertex 44.0357 52.9417 25
      vertex 45.9643 52.9417 25
    endloop
  endfacet
  facet normal 0 0 1
    outer loop
      vertex 44 54.9452 25
      vertex 46 54.9452 25
      vertex 44 88 25
    endloop
  endfacet
  facet normal 0 0 1
    outer loop
      vertex 90 90 25
      vertex 44 88 25
      vertex 46 88 25
    endloop
  endfacet
  facet normal -0 0 1
    outer loop
      vertex 0 90 25
      vertex 44 88 25
      vertex 90 90 25
    endloop
  endfacet
  facet normal 0 0 1
    outer loop
      vertex 0 90 25
      vertex 2 46 25
      vertex 2 88 25
    endloop
  endfacet
  facet normal 0 0 1
    outer loop
      vertex 2 46 25
      vertex 0 90 25
      vertex 2 44 25
    endloop
  endfacet
  facet normal 0 0 1
    outer loop
      vertex 0 0 25
      vertex 2 44 25
      vertex 0 90 25
    endloop
  endfacet
  facet normal 0 0 1
    outer loop
      vertex 44 88 25
      vertex 0 90 25
      vertex 2 88 25
    endloop
  endfacet
  facet normal 0 0 1
    outer loop
      vertex 90 90 25
      vertex 88 46 25
      vertex 90 0 25
    endloop
  endfacet
  facet normal -0 0 1
    outer loop
      vertex 88 44 25
      vertex 90 0 25
      vertex 88 46 25
    endloop
  endfacet
  facet normal -0 0 1
    outer loop
      vertex 88 2 25
      vertex 90 0 25
      vertex 88 44 25
    endloop
  endfacet
  facet normal -0 0 1
    outer loop
      vertex 46 2 25
      vertex 90 0 25
      vertex 88 2 25
    endloop
  endfacet
  facet normal 0 0 1
    outer loop
      vertex 44 35.0548 25
      vertex 46 35.0548 25
      vertex 44.0357 37.0583 25
    endloop
  endfacet
  facet normal 0 0 1
    outer loop
      vertex 46 35.0548 25
      vertex 44 35.0548 25
      vertex 46 2 25
    endloop
  endfacet
  facet normal 0 0 1
    outer loop
      vertex 44 2 25
      vertex 46 2 25
      vertex 44 35.0548 25
    endloop
  endfacet
  facet normal -0 0 1
    outer loop
      vertex 44 2 25
      vertex 90 0 25
      vertex 46 2 25
    endloop
  endfacet
  facet normal 0 0 1
    outer loop
      vertex 0 0 25
      vertex 44 2 25
      vertex 2 2 25
    endloop
  endfacet
  facet normal 0 0 1
    outer loop
      vertex 44 2 25
      vertex 0 0 25
      vertex 90 0 25
    endloop
  endfacet
  facet normal 0 0 1
    outer loop
      vertex 2 44 25
      vertex 0 0 25
      vertex 2 2 25
    endloop
  endfacet
  facet normal -0 0 1
    outer loop
      vertex 52.0836 41.2822 25
      vertex 54.1355 40.9326 25
      vertex 52.7675 43.0855 25
    endloop
  endfacet
  facet normal 0 0 1
    outer loop
      vertex 54.1355 40.9326 25
      vertex 52.0836 41.2822 25
      vertex 53.0902 39.1221 25
    endloop
  endfacet
  facet normal -0 0 1
    outer loop
      vertex 50.9881 39.695 25
      vertex 53.0902 39.1221 25
      vertex 52.0836 41.2822 25
    endloop
  endfacet
  facet normal 0 0 1
    outer loop
      vertex 53.0902 39.1221 25
      vertex 50.9881 39.695 25
      vertex 51.6913 37.5686 25
    endloop
  endfacet
  facet normal -0 0 1
    outer loop
      vertex 49.5445 38.4161 25
      vertex 51.6913 37.5686 25
      vertex 50.9881 39.695 25
    endloop
  endfacet
  facet normal 0 0 1
    outer loop
      vertex 51.6913 37.5686 25
      vertex 49.5445 38.4161 25
      vertex 50 36.3397 25
    endloop
  endfacet
  facet normal -0 0 1
    outer loop
      vertex 47.8368 37.5199 25
      vertex 50 36.3397 25
      vertex 49.5445 38.4161 25
    endloop
  endfacet
  facet normal 0 0 1
    outer loop
      vertex 50 36.3397 25
      vertex 47.8368 37.5199 25
      vertex 48.0902 35.4894 25
    endloop
  endfacet
  facet normal -0 0 1
    outer loop
      vertex 45.9643 37.0583 25
      vertex 48.0902 35.4894 25
      vertex 47.8368 37.5199 25
    endloop
  endfacet
  facet normal 0 0 1
    outer loop
      vertex 48.0902 35.4894 25
      vertex 45.9643 37.0583 25
      vertex 46.0453 35.0548 25
    endloop
  endfacet
  facet normal -0 0 1
    outer loop
      vertex 44.0357 37.0583 25
      vertex 46 35.0548 25
      vertex 45.9643 37.0583 25
    endloop
  endfacet
  facet normal 0 0 1
    outer loop
      vertex 46.0453 35.0548 25
      vertex 45.9643 37.0583 25
      vertex 46 35.0548 25
    endloop
  endfacet
  facet normal 1 -0 0
    outer loop
      vertex 90 0 25
      vertex 90 90 0
      vertex 90 90 25
    endloop
  endfacet
  facet normal 1 0 0
    outer loop
      vertex 90 90 0
      vertex 90 0 25
      vertex 90 0 0
    endloop
  endfacet
  facet normal 0 1 -0
    outer loop
      vertex 90 90 0
      vertex 0 90 25
      vertex 90 90 25
    endloop
  endfacet
  facet normal 0 1 0
    outer loop
      vertex 0 90 25
      vertex 90 90 0
      vertex 0 90 0
    endloop
  endfacet
  facet normal 0 0 -1
    outer loop
      vertex 0 0 0
      vertex 90 90 0
      vertex 90 0 0
    endloop
  endfacet
  facet normal -0 0 -1
    outer loop
      vertex 90 90 0
      vertex 0 0 0
      vertex 0 90 0
    endloop
  endfacet
  facet normal 0 -1 0
    outer loop
      vertex 0 0 0
      vertex 90 0 25
      vertex 0 0 25
    endloop
  endfacet
  facet normal 0 -1 -0
    outer loop
      vertex 90 0 25
      vertex 0 0 0
      vertex 90 0 0
    endloop
  endfacet
  facet normal 1 -0 0
    outer loop
      vertex 2 2 25
      vertex 2 44 3
      vertex 2 44 25
    endloop
  endfacet
  facet normal 1 0 0
    outer loop
      vertex 2 44 3
      vertex 2 2 25
      vertex 2 2 3
    endloop
  endfacet
  facet normal 1 -0 0
    outer loop
      vertex 2 46 25
      vertex 2 88 3
      vertex 2 88 25
    endloop
  endfacet
  facet normal 1 0 0
    outer loop
      vertex 2 88 3
      vertex 2 46 25
      vertex 2 46 3
    endloop
  endfacet
  facet normal -1 0 0
    outer loop
      vertex 88 2 3
      vertex 88 44 25
      vertex 88 44 3
    endloop
  endfacet
  facet normal -1 -0 0
    outer loop
      vertex 88 44 25
      vertex 88 2 3
      vertex 88 2 25
    endloop
  endfacet
  facet normal -1 0 0
    outer loop
      vertex 88 46 3
      vertex 88 88 25
      vertex 88 88 3
    endloop
  endfacet
  facet normal -1 -0 0
    outer loop
      vertex 88 88 25
      vertex 88 46 3
      vertex 88 46 25
    endloop
  endfacet
  facet normal 0 0 1
    outer loop
      vertex 44 88 3
      vertex 43.9547 54.9452 3
      vertex 44 54.9452 3
    endloop
  endfacet
  facet normal 0 0 1
    outer loop
      vertex 44 88 3
      vertex 41.9098 54.5106 3
      vertex 43.9547 54.9452 3
    endloop
  endfacet
  facet normal 0 0 1
    outer loop
      vertex 44 88 3
      vertex 40 53.6603 3
      vertex 41.9098 54.5106 3
    endloop
  endfacet
  facet normal 0 0 1
    outer loop
      vertex 44 88 3
      vertex 38.3087 52.4314 3
      vertex 40 53.6603 3
    endloop
  endfacet
  facet normal -0 0 1
    outer loop
      vertex 2 88 3
      vertex 38.3087 52.4314 3
      vertex 44 88 3
    endloop
  endfacet
  facet normal 0 0 1
    outer loop
      vertex 38.3087 52.4314 3
      vertex 2 88 3
      vertex 36.9098 50.8779 3
    endloop
  endfacet
  facet normal 0 0 1
    outer loop
      vertex 2 46 3
      vertex 36.9098 50.8779 3
      vertex 2 88 3
    endloop
  endfacet
  facet normal 0 0 1
    outer loop
      vertex 36.9098 50.8779 3
      vertex 2 46 3
      vertex 35.8645 49.0674 3
    endloop
  endfacet
  facet normal 0 0 1
    outer loop
      vertex 35.8645 49.0674 3
      vertex 2 46 3
      vertex 35.2185 47.0791 3
    endloop
  endfacet
  facet normal 0 0 1
    outer loop
      vertex 35.2185 47.0791 3
      vertex 2 46 3
      vertex 35.1051 46 3
    endloop
  endfacet
  facet normal -0 0 1
    outer loop
      vertex 43.9547 35.0548 3
      vertex 44 2 3
      vertex 44 35.0548 3
    endloop
  endfacet
  facet normal 0 0 1
    outer loop
      vertex 41.9098 35.4894 3
      vertex 44 2 3
      vertex 43.9547 35.0548 3
    endloop
  endfacet
  facet normal 0 0 1
    outer loop
      vertex 40 36.3397 3
      vertex 44 2 3
      vertex 41.9098 35.4894 3
    endloop
  endfacet
  facet normal 0 0 1
    outer loop
      vertex 38.3087 37.5686 3
      vertex 44 2 3
      vertex 40 36.3397 3
    endloop
  endfacet
  facet normal 0 0 1
    outer loop
      vertex 2 2 3
      vertex 38.3087 37.5686 3
      vertex 36.9098 39.1221 3
    endloop
  endfacet
  facet normal 0 0 1
    outer loop
      vertex 2 44 3
      vertex 36.9098 39.1221 3
      vertex 35.8645 40.9326 3
    endloop
  endfacet
  facet normal 0 0 1
    outer loop
      vertex 2 44 3
      vertex 35.8645 40.9326 3
      vertex 35.2185 42.9209 3
    endloop
  endfacet
  facet normal -0 0 1
    outer loop
      vertex 2 44 3
      vertex 35.2185 42.9209 3
      vertex 35.1051 44 3
    endloop
  endfacet
  facet normal 0 0 1
    outer loop
      vertex 36.9098 39.1221 3
      vertex 2 44 3
      vertex 2 2 3
    endloop
  endfacet
  facet normal 0 0 1
    outer loop
      vertex 38.3087 37.5686 3
      vertex 2 2 3
      vertex 44 2 3
    endloop
  endfacet
  facet normal 0 0 1
    outer loop
      vertex 54.7815 42.9209 3
      vertex 88 44 3
      vertex 54.8949 44 3
    endloop
  endfacet
  facet normal 0 0 1
    outer loop
      vertex 54.1355 40.9326 3
      vertex 88 44 3
      vertex 54.7815 42.9209 3
    endloop
  endfacet
  facet normal 0 0 1
    outer loop
      vertex 53.0902 39.1221 3
      vertex 88 44 3
      vertex 54.1355 40.9326 3
    endloop
  endfacet
  facet normal 0 0 1
    outer loop
      vertex 88 44 3
      vertex 53.0902 39.1221 3
      vertex 88 2 3
    endloop
  endfacet
  facet normal -0 0 1
    outer loop
      vertex 51.6913 37.5686 3
      vertex 88 2 3
      vertex 53.0902 39.1221 3
    endloop
  endfacet
  facet normal 0 0 1
    outer loop
      vertex 46 2 3
      vertex 51.6913 37.5686 3
      vertex 50 36.3397 3
    endloop
  endfacet
  facet normal 0 0 1
    outer loop
      vertex 46 2 3
      vertex 50 36.3397 3
      vertex 48.0902 35.4894 3
    endloop
  endfacet
  facet normal 0 0 1
    outer loop
      vertex 46 2 3
      vertex 48.0902 35.4894 3
      vertex 46.0453 35.0548 3
    endloop
  endfacet
  facet normal 0 0 1
    outer loop
      vertex 46 2 3
      vertex 46.0453 35.0548 3
      vertex 46 35.0548 3
    endloop
  endfacet
  facet normal 0 0 1
    outer loop
      vertex 51.6913 37.5686 3
      vertex 46 2 3
      vertex 88 2 3
    endloop
  endfacet
  facet normal -0 0 1
    outer loop
      vertex 53.0902 50.8779 3
      vertex 88 46 3
      vertex 88 88 3
    endloop
  endfacet
  facet normal 0 0 1
    outer loop
      vertex 88 46 3
      vertex 54.7815 47.0791 3
      vertex 54.8949 46 3
    endloop
  endfacet
  facet normal 0 0 1
    outer loop
      vertex 88 46 3
      vertex 54.1355 49.0674 3
      vertex 54.7815 47.0791 3
    endloop
  endfacet
  facet normal 0 0 1
    outer loop
      vertex 88 46 3
      vertex 53.0902 50.8779 3
      vertex 54.1355 49.0674 3
    endloop
  endfacet
  facet normal 0 0 1
    outer loop
      vertex 88 88 3
      vertex 51.6913 52.4314 3
      vertex 53.0902 50.8779 3
    endloop
  endfacet
  facet normal -0 0 1
    outer loop
      vertex 46 88 3
      vertex 51.6913 52.4314 3
      vertex 88 88 3
    endloop
  endfacet
  facet normal 0 0 1
    outer loop
      vertex 51.6913 52.4314 3
      vertex 46 88 3
      vertex 50 53.6603 3
    endloop
  endfacet
  facet normal 0 0 1
    outer loop
      vertex 50 53.6603 3
      vertex 46 88 3
      vertex 48.0902 54.5106 3
    endloop
  endfacet
  facet normal 0 0 1
    outer loop
      vertex 48.0902 54.5106 3
      vertex 46 88 3
      vertex 46.0453 54.9452 3
    endloop
  endfacet
  facet normal 0 0 1
    outer loop
      vertex 46.0453 54.9452 3
      vertex 46 88 3
      vertex 46 54.9452 3
    endloop
  endfacet
  facet normal 0 1 -0
    outer loop
      vertex 44 2 3
      vertex 2 2 25
      vertex 44 2 25
    endloop
  endfacet
  facet normal 0 1 0
    outer loop
      vertex 2 2 25
      vertex 44 2 3
      vertex 2 2 3
    endloop
  endfacet
  facet normal 0 1 -0
    outer loop
      vertex 88 2 3
      vertex 46 2 25
      vertex 88 2 25
    endloop
  endfacet
  facet normal 0 1 0
    outer loop
      vertex 46 2 25
      vertex 88 2 3
      vertex 46 2 3
    endloop
  endfacet
  facet normal 0 -1 0
    outer loop
      vertex 46 88 3
      vertex 88 88 25
      vertex 46 88 25
    endloop
  endfacet
  facet normal 0 -1 -0
    outer loop
      vertex 88 88 25
      vertex 46 88 3
      vertex 88 88 3
    endloop
  endfacet
  facet normal 0 -1 0
    outer loop
      vertex 2 88 3
      vertex 44 88 25
      vertex 2 88 25
    endloop
  endfacet
  facet normal 0 -1 -0
    outer loop
      vertex 44 88 25
      vertex 2 88 3
      vertex 44 88 3
    endloop
  endfacet
  facet normal 0 -1 0
    outer loop
      vertex 2 44 3
      vertex 35.1051 44 25
      vertex 2 44 25
    endloop
  endfacet
  facet normal 0 -1 -0
    outer loop
      vertex 35.1051 44 25
      vertex 2 44 3
      vertex 35.1051 44 3
    endloop
  endfacet
  facet normal 0 -1 0
    outer loop
      vertex 54.8949 44 3
      vertex 88 44 25
      vertex 54.8949 44 25
    endloop
  endfacet
  facet normal 0 -1 -0
    outer loop
      vertex 88 44 25
      vertex 54.8949 44 3
      vertex 88 44 3
    endloop
  endfacet
  facet normal 0 1 -0
    outer loop
      vertex 35.1051 46 3
      vertex 2 46 25
      vertex 35.1051 46 25
    endloop
  endfacet
  facet normal 0 1 0
    outer loop
      vertex 2 46 25
      vertex 35.1051 46 3
      vertex 2 46 3
    endloop
  endfacet
  facet normal 0 1 -0
    outer loop
      vertex 88 46 3
      vertex 54.8949 46 25
      vertex 88 46 25
    endloop
  endfacet
  facet normal 0 1 0
    outer loop
      vertex 54.8949 46 25
      vertex 88 46 3
      vertex 54.8949 46 3
    endloop
  endfacet
  facet normal -1 0 0
    outer loop
      vertex 44 2 3
      vertex 44 35.0548 25
      vertex 44 35.0548 3
    endloop
  endfacet
  facet normal -1 -0 0
    outer loop
      vertex 44 35.0548 25
      vertex 44 2 3
      vertex 44 2 25
    endloop
  endfacet
  facet normal -1 0 0
    outer loop
      vertex 44 54.9452 3
      vertex 44 88 25
      vertex 44 88 3
    endloop
  endfacet
  facet normal -1 -0 0
    outer loop
      vertex 44 88 25
      vertex 44 54.9452 3
      vertex 44 54.9452 25
    endloop
  endfacet
  facet normal 1 -0 0
    outer loop
      vertex 46 2 25
      vertex 46 35.0548 3
      vertex 46 35.0548 25
    endloop
  endfacet
  facet normal 1 0 0
    outer loop
      vertex 46 35.0548 3
      vertex 46 2 25
      vertex 46 2 3
    endloop
  endfacet
  facet normal 1 -0 0
    outer loop
      vertex 46 54.9452 25
      vertex 46 88 3
      vertex 46 88 25
    endloop
  endfacet
  facet normal 1 0 0
    outer loop
      vertex 46 88 3
      vertex 46 54.9452 25
      vertex 46 54.9452 3
    endloop
  endfacet
  facet normal 0.994522 0.104527 0
    outer loop
      vertex 54.8949 46 25
      vertex 54.7815 47.0791 3
      vertex 54.7815 47.0791 25
    endloop
  endfacet
  facet normal 0.994522 0.104527 0
    outer loop
      vertex 54.7815 47.0791 3
      vertex 54.8949 46 25
      vertex 54.8949 46 3
    endloop
  endfacet
  facet normal -0.20791 0.978148 0
    outer loop
      vertex 43.9547 54.9452 3
      vertex 41.9098 54.5106 25
      vertex 43.9547 54.9452 25
    endloop
  endfacet
  facet normal -0.20791 0.978148 0
    outer loop
      vertex 41.9098 54.5106 25
      vertex 43.9547 54.9452 3
      vertex 41.9098 54.5106 3
    endloop
  endfacet
  facet normal 0.207912 -0.978148 0
    outer loop
      vertex 46.0453 35.0548 3
      vertex 48.0902 35.4894 25
      vertex 46.0453 35.0548 25
    endloop
  endfacet
  facet normal 0.207912 -0.978148 0
    outer loop
      vertex 48.0902 35.4894 25
      vertex 46.0453 35.0548 3
      vertex 48.0902 35.4894 3
    endloop
  endfacet
  facet normal 0.406737 -0.913545 0
    outer loop
      vertex 48.0902 35.4894 3
      vertex 50 36.3397 25
      vertex 48.0902 35.4894 25
    endloop
  endfacet
  facet normal 0.406737 -0.913545 0
    outer loop
      vertex 50 36.3397 25
      vertex 48.0902 35.4894 3
      vertex 50 36.3397 3
    endloop
  endfacet
  facet normal 0.587785 0.809017 -0
    outer loop
      vertex 51.6913 52.4314 3
      vertex 50 53.6603 25
      vertex 51.6913 52.4314 25
    endloop
  endfacet
  facet normal 0.587785 0.809017 0
    outer loop
      vertex 50 53.6603 25
      vertex 51.6913 52.4314 3
      vertex 50 53.6603 3
    endloop
  endfacet
  facet normal -0.743145 0.669131 0
    outer loop
      vertex 36.9098 50.8779 3
      vertex 38.3087 52.4314 25
      vertex 38.3087 52.4314 3
    endloop
  endfacet
  facet normal -0.743145 0.669131 0
    outer loop
      vertex 38.3087 52.4314 25
      vertex 36.9098 50.8779 3
      vertex 36.9098 50.8779 25
    endloop
  endfacet
  facet normal -0.587785 0.809017 0
    outer loop
      vertex 40 53.6603 3
      vertex 38.3087 52.4314 25
      vertex 40 53.6603 25
    endloop
  endfacet
  facet normal -0.587785 0.809017 0
    outer loop
      vertex 38.3087 52.4314 25
      vertex 40 53.6603 3
      vertex 38.3087 52.4314 3
    endloop
  endfacet
  facet normal 0.866026 0.499999 0
    outer loop
      vertex 54.1355 49.0674 25
      vertex 53.0902 50.8779 3
      vertex 53.0902 50.8779 25
    endloop
  endfacet
  facet normal 0.866026 0.499999 0
    outer loop
      vertex 53.0902 50.8779 3
      vertex 54.1355 49.0674 25
      vertex 54.1355 49.0674 3
    endloop
  endfacet
  facet normal 0.951056 0.309017 0
    outer loop
      vertex 54.7815 47.0791 25
      vertex 54.1355 49.0674 3
      vertex 54.1355 49.0674 25
    endloop
  endfacet
  facet normal 0.951056 0.309017 0
    outer loop
      vertex 54.1355 49.0674 3
      vertex 54.7815 47.0791 25
      vertex 54.7815 47.0791 3
    endloop
  endfacet
  facet normal 0.743145 0.669131 0
    outer loop
      vertex 53.0902 50.8779 25
      vertex 51.6913 52.4314 3
      vertex 51.6913 52.4314 25
    endloop
  endfacet
  facet normal 0.743145 0.669131 0
    outer loop
      vertex 51.6913 52.4314 3
      vertex 53.0902 50.8779 25
      vertex 53.0902 50.8779 3
    endloop
  endfacet
  facet normal 0.20791 0.978148 -0
    outer loop
      vertex 48.0902 54.5106 3
      vertex 46.0453 54.9452 25
      vertex 48.0902 54.5106 25
    endloop
  endfacet
  facet normal 0.20791 0.978148 0
    outer loop
      vertex 46.0453 54.9452 25
      vertex 48.0902 54.5106 3
      vertex 46.0453 54.9452 3
    endloop
  endfacet
  facet normal 0 1 -0
    outer loop
      vertex 46.0453 54.9452 3
      vertex 46 54.9452 25
      vertex 46.0453 54.9452 25
    endloop
  endfacet
  facet normal 0 1 0
    outer loop
      vertex 46 54.9452 25
      vertex 46.0453 54.9452 3
      vertex 46 54.9452 3
    endloop
  endfacet
  facet normal 0 1 -0
    outer loop
      vertex 44 54.9452 3
      vertex 43.9547 54.9452 25
      vertex 44 54.9452 25
    endloop
  endfacet
  facet normal 0 1 0
    outer loop
      vertex 43.9547 54.9452 25
      vertex 44 54.9452 3
      vertex 43.9547 54.9452 3
    endloop
  endfacet
  facet normal 0.406737 0.913545 -0
    outer loop
      vertex 50 53.6603 3
      vertex 48.0902 54.5106 25
      vertex 50 53.6603 25
    endloop
  endfacet
  facet normal 0.406737 0.913545 0
    outer loop
      vertex 48.0902 54.5106 25
      vertex 50 53.6603 3
      vertex 48.0902 54.5106 3
    endloop
  endfacet
  facet normal -0.951057 0.309016 0
    outer loop
      vertex 35.2185 47.0791 3
      vertex 35.8645 49.0674 25
      vertex 35.8645 49.0674 3
    endloop
  endfacet
  facet normal -0.951057 0.309016 0
    outer loop
      vertex 35.8645 49.0674 25
      vertex 35.2185 47.0791 3
      vertex 35.2185 47.0791 25
    endloop
  endfacet
  facet normal -0.866025 0.5 0
    outer loop
      vertex 35.8645 49.0674 3
      vertex 36.9098 50.8779 25
      vertex 36.9098 50.8779 3
    endloop
  endfacet
  facet normal -0.866025 0.5 0
    outer loop
      vertex 36.9098 50.8779 25
      vertex 35.8645 49.0674 3
      vertex 35.8645 49.0674 25
    endloop
  endfacet
  facet normal -0.994522 0.104531 0
    outer loop
      vertex 35.1051 46 3
      vertex 35.2185 47.0791 25
      vertex 35.2185 47.0791 3
    endloop
  endfacet
  facet normal -0.994522 0.104531 0
    outer loop
      vertex 35.2185 47.0791 25
      vertex 35.1051 46 3
      vertex 35.1051 46 25
    endloop
  endfacet
  facet normal -0.406737 0.913545 0
    outer loop
      vertex 41.9098 54.5106 3
      vertex 40 53.6603 25
      vertex 41.9098 54.5106 25
    endloop
  endfacet
  facet normal -0.406737 0.913545 0
    outer loop
      vertex 40 53.6603 25
      vertex 41.9098 54.5106 3
      vertex 40 53.6603 3
    endloop
  endfacet
  facet normal 0.994522 -0.104527 0
    outer loop
      vertex 54.7815 42.9209 25
      vertex 54.8949 44 3
      vertex 54.8949 44 25
    endloop
  endfacet
  facet normal 0.994522 -0.104527 0
    outer loop
      vertex 54.8949 44 3
      vertex 54.7815 42.9209 25
      vertex 54.7815 42.9209 3
    endloop
  endfacet
  facet normal -0.994522 -0.104531 0
    outer loop
      vertex 35.2185 42.9209 3
      vertex 35.1051 44 25
      vertex 35.1051 44 3
    endloop
  endfacet
  facet normal -0.994522 -0.104531 0
    outer loop
      vertex 35.1051 44 25
      vertex 35.2185 42.9209 3
      vertex 35.2185 42.9209 25
    endloop
  endfacet
  facet normal 0.866026 -0.499999 0
    outer loop
      vertex 53.0902 39.1221 25
      vertex 54.1355 40.9326 3
      vertex 54.1355 40.9326 25
    endloop
  endfacet
  facet normal 0.866026 -0.499999 0
    outer loop
      vertex 54.1355 40.9326 3
      vertex 53.0902 39.1221 25
      vertex 53.0902 39.1221 3
    endloop
  endfacet
  facet normal -0.406737 -0.913545 0
    outer loop
      vertex 40 36.3397 3
      vertex 41.9098 35.4894 25
      vertex 40 36.3397 25
    endloop
  endfacet
  facet normal -0.406737 -0.913545 -0
    outer loop
      vertex 41.9098 35.4894 25
      vertex 40 36.3397 3
      vertex 41.9098 35.4894 3
    endloop
  endfacet
  facet normal -0.743145 -0.669131 0
    outer loop
      vertex 38.3087 37.5686 3
      vertex 36.9098 39.1221 25
      vertex 36.9098 39.1221 3
    endloop
  endfacet
  facet normal -0.743145 -0.669131 0
    outer loop
      vertex 36.9098 39.1221 25
      vertex 38.3087 37.5686 3
      vertex 38.3087 37.5686 25
    endloop
  endfacet
  facet normal 0.587785 -0.809017 0
    outer loop
      vertex 50 36.3397 3
      vertex 51.6913 37.5686 25
      vertex 50 36.3397 25
    endloop
  endfacet
  facet normal 0.587785 -0.809017 0
    outer loop
      vertex 51.6913 37.5686 25
      vertex 50 36.3397 3
      vertex 51.6913 37.5686 3
    endloop
  endfacet
  facet normal 0.951056 -0.309017 0
    outer loop
      vertex 54.1355 40.9326 25
      vertex 54.7815 42.9209 3
      vertex 54.7815 42.9209 25
    endloop
  endfacet
  facet normal 0.951056 -0.309017 0
    outer loop
      vertex 54.7815 42.9209 3
      vertex 54.1355 40.9326 25
      vertex 54.1355 40.9326 3
    endloop
  endfacet
  facet normal 0 -1 0
    outer loop
      vertex 46 35.0548 3
      vertex 46.0453 35.0548 25
      vertex 46 35.0548 25
    endloop
  endfacet
  facet normal 0 -1 -0
    outer loop
      vertex 46.0453 35.0548 25
      vertex 46 35.0548 3
      vertex 46.0453 35.0548 3
    endloop
  endfacet
  facet normal 0 -1 0
    outer loop
      vertex 43.9547 35.0548 3
      vertex 44 35.0548 25
      vertex 43.9547 35.0548 25
    endloop
  endfacet
  facet normal 0 -1 -0
    outer loop
      vertex 44 35.0548 25
      vertex 43.9547 35.0548 3
      vertex 44 35.0548 3
    endloop
  endfacet
  facet normal -0.207912 -0.978148 0
    outer loop
      vertex 41.9098 35.4894 3
      vertex 43.9547 35.0548 25
      vertex 41.9098 35.4894 25
    endloop
  endfacet
  facet normal -0.207912 -0.978148 -0
    outer loop
      vertex 43.9547 35.0548 25
      vertex 41.9098 35.4894 3
      vertex 43.9547 35.0548 3
    endloop
  endfacet
  facet normal -0.587785 -0.809017 0
    outer loop
      vertex 38.3087 37.5686 3
      vertex 40 36.3397 25
      vertex 38.3087 37.5686 25
    endloop
  endfacet
  facet normal -0.587785 -0.809017 -0
    outer loop
      vertex 40 36.3397 25
      vertex 38.3087 37.5686 3
      vertex 40 36.3397 3
    endloop
  endfacet
  facet normal -0.866025 -0.5 0
    outer loop
      vertex 36.9098 39.1221 3
      vertex 35.8645 40.9326 25
      vertex 35.8645 40.9326 3
    endloop
  endfacet
  facet normal -0.866025 -0.5 0
    outer loop
      vertex 35.8645 40.9326 25
      vertex 36.9098 39.1221 3
      vertex 36.9098 39.1221 25
    endloop
  endfacet
  facet normal -0.951057 -0.309016 0
    outer loop
      vertex 35.8645 40.9326 3
      vertex 35.2185 42.9209 25
      vertex 35.2185 42.9209 3
    endloop
  endfacet
  facet normal -0.951057 -0.309016 0
    outer loop
      vertex 35.2185 42.9209 25
      vertex 35.8645 40.9326 3
      vertex 35.8645 40.9326 25
    endloop
  endfacet
  facet normal 0.743145 -0.669131 0
    outer loop
      vertex 51.6913 37.5686 25
      vertex 53.0902 39.1221 3
      vertex 53.0902 39.1221 25
    endloop
  endfacet
  facet normal 0.743145 -0.669131 0
    outer loop
      vertex 53.0902 39.1221 3
      vertex 51.6913 37.5686 25
      vertex 51.6913 37.5686 3
    endloop
  endfacet
  facet normal -0.992709 -0.120538 0
    outer loop
      vertex 53 45 21.8
      vertex 52.7675 46.9145 25
      vertex 52.7675 46.9145 21.8
    endloop
  endfacet
  facet normal -0.992709 -0.120538 0
    outer loop
      vertex 52.7675 46.9145 25
      vertex 53 45 21.8
      vertex 53 45 25
    endloop
  endfacet
  facet normal 0.239316 -0.970942 0
    outer loop
      vertex 42.1632 52.4801 21.8
      vertex 44.0357 52.9417 25
      vertex 42.1632 52.4801 25
    endloop
  endfacet
  facet normal 0.239316 -0.970942 0
    outer loop
      vertex 44.0357 52.9417 25
      vertex 42.1632 52.4801 21.8
      vertex 44.0357 52.9417 21.8
    endloop
  endfacet
  facet normal -0.239317 0.970941 0
    outer loop
      vertex 47.8368 37.5199 21.8
      vertex 45.9643 37.0583 25
      vertex 47.8368 37.5199 25
    endloop
  endfacet
  facet normal -0.239317 0.970941 0
    outer loop
      vertex 45.9643 37.0583 25
      vertex 47.8368 37.5199 21.8
      vertex 45.9643 37.0583 21.8
    endloop
  endfacet
  facet normal -0.822984 0.568065 0
    outer loop
      vertex 50.9881 39.695 21.8
      vertex 52.0836 41.2822 25
      vertex 52.0836 41.2822 21.8
    endloop
  endfacet
  facet normal -0.822984 0.568065 0
    outer loop
      vertex 52.0836 41.2822 25
      vertex 50.9881 39.695 21.8
      vertex 50.9881 39.695 25
    endloop
  endfacet
  facet normal -0.663122 -0.748511 0
    outer loop
      vertex 49.5445 51.5839 21.8
      vertex 50.9881 50.305 25
      vertex 49.5445 51.5839 25
    endloop
  endfacet
  facet normal -0.663122 -0.748511 -0
    outer loop
      vertex 50.9881 50.305 25
      vertex 49.5445 51.5839 21.8
      vertex 50.9881 50.305 21.8
    endloop
  endfacet
  facet normal 0.822984 -0.568065 0
    outer loop
      vertex 37.9164 48.7178 25
      vertex 39.0119 50.305 21.8
      vertex 39.0119 50.305 25
    endloop
  endfacet
  facet normal 0.822984 -0.568065 0
    outer loop
      vertex 39.0119 50.305 21.8
      vertex 37.9164 48.7178 25
      vertex 37.9164 48.7178 21.8
    endloop
  endfacet
  facet normal 0.935016 -0.354605 0
    outer loop
      vertex 37.2325 46.9145 25
      vertex 37.9164 48.7178 21.8
      vertex 37.9164 48.7178 25
    endloop
  endfacet
  facet normal 0.935016 -0.354605 0
    outer loop
      vertex 37.9164 48.7178 21.8
      vertex 37.2325 46.9145 25
      vertex 37.2325 46.9145 21.8
    endloop
  endfacet
  facet normal 0.663122 -0.748511 0
    outer loop
      vertex 39.0119 50.305 21.8
      vertex 40.4555 51.5839 25
      vertex 39.0119 50.305 25
    endloop
  endfacet
  facet normal 0.663122 -0.748511 0
    outer loop
      vertex 40.4555 51.5839 25
      vertex 39.0119 50.305 21.8
      vertex 40.4555 51.5839 21.8
    endloop
  endfacet
  facet normal -0.935017 0.354604 0
    outer loop
      vertex 52.0836 41.2822 21.8
      vertex 52.7675 43.0855 25
      vertex 52.7675 43.0855 21.8
    endloop
  endfacet
  facet normal -0.935017 0.354604 0
    outer loop
      vertex 52.7675 43.0855 25
      vertex 52.0836 41.2822 21.8
      vertex 52.0836 41.2822 25
    endloop
  endfacet
  facet normal -0.822984 -0.568065 0
    outer loop
      vertex 52.0836 48.7178 21.8
      vertex 50.9881 50.305 25
      vertex 50.9881 50.305 21.8
    endloop
  endfacet
  facet normal -0.822984 -0.568065 0
    outer loop
      vertex 50.9881 50.305 25
      vertex 52.0836 48.7178 21.8
      vertex 52.0836 48.7178 25
    endloop
  endfacet
  facet normal -0.935017 -0.354604 0
    outer loop
      vertex 52.7675 46.9145 21.8
      vertex 52.0836 48.7178 25
      vertex 52.0836 48.7178 21.8
    endloop
  endfacet
  facet normal -0.935017 -0.354604 0
    outer loop
      vertex 52.0836 48.7178 25
      vertex 52.7675 46.9145 21.8
      vertex 52.7675 46.9145 25
    endloop
  endfacet
  facet normal -0.239316 -0.970942 0
    outer loop
      vertex 45.9643 52.9417 21.8
      vertex 47.8368 52.4801 25
      vertex 45.9643 52.9417 25
    endloop
  endfacet
  facet normal -0.239316 -0.970942 -0
    outer loop
      vertex 47.8368 52.4801 25
      vertex 45.9643 52.9417 21.8
      vertex 47.8368 52.4801 21.8
    endloop
  endfacet
  facet normal 0 -1 0
    outer loop
      vertex 44.0357 52.9417 21.8
      vertex 45.9643 52.9417 25
      vertex 44.0357 52.9417 25
    endloop
  endfacet
  facet normal 0 -1 -0
    outer loop
      vertex 45.9643 52.9417 25
      vertex 44.0357 52.9417 21.8
      vertex 45.9643 52.9417 21.8
    endloop
  endfacet
  facet normal -0.464723 -0.885456 0
    outer loop
      vertex 47.8368 52.4801 21.8
      vertex 49.5445 51.5839 25
      vertex 47.8368 52.4801 25
    endloop
  endfacet
  facet normal -0.464723 -0.885456 -0
    outer loop
      vertex 49.5445 51.5839 25
      vertex 47.8368 52.4801 21.8
      vertex 49.5445 51.5839 21.8
    endloop
  endfacet
  facet normal 0 0 1
    outer loop
      vertex 52.7675 46.9145 21.8
      vertex 52.7675 43.0855 21.8
      vertex 53 45 21.8
    endloop
  endfacet
  facet normal 0 0 1
    outer loop
      vertex 52.0836 48.7178 21.8
      vertex 52.7675 43.0855 21.8
      vertex 52.7675 46.9145 21.8
    endloop
  endfacet
  facet normal 0 0 1
    outer loop
      vertex 52.0836 48.7178 21.8
      vertex 52.0836 41.2822 21.8
      vertex 52.7675 43.0855 21.8
    endloop
  endfacet
  facet normal 0 0 1
    outer loop
      vertex 50.9881 50.305 21.8
      vertex 52.0836 41.2822 21.8
      vertex 52.0836 48.7178 21.8
    endloop
  endfacet
  facet normal 0 0 1
    outer loop
      vertex 50.9881 50.305 21.8
      vertex 50.9881 39.695 21.8
      vertex 52.0836 41.2822 21.8
    endloop
  endfacet
  facet normal 0 0 1
    outer loop
      vertex 49.5445 51.5839 21.8
      vertex 50.9881 39.695 21.8
      vertex 50.9881 50.305 21.8
    endloop
  endfacet
  facet normal 0 0 1
    outer loop
      vertex 49.5445 51.5839 21.8
      vertex 49.5445 38.4161 21.8
      vertex 50.9881 39.695 21.8
    endloop
  endfacet
  facet normal 0 0 1
    outer loop
      vertex 47.8368 52.4801 21.8
      vertex 49.5445 38.4161 21.8
      vertex 49.5445 51.5839 21.8
    endloop
  endfacet
  facet normal 0 0 1
    outer loop
      vertex 47.8368 52.4801 21.8
      vertex 47.8368 37.5199 21.8
      vertex 49.5445 38.4161 21.8
    endloop
  endfacet
  facet normal 0 0 1
    outer loop
      vertex 45.9643 52.9417 21.8
      vertex 47.8368 37.5199 21.8
      vertex 47.8368 52.4801 21.8
    endloop
  endfacet
  facet normal 0 0 1
    outer loop
      vertex 45.9643 52.9417 21.8
      vertex 45.9643 37.0583 21.8
      vertex 47.8368 37.5199 21.8
    endloop
  endfacet
  facet normal -0 0 1
    outer loop
      vertex 44.0357 52.9417 21.8
      vertex 45.9643 37.0583 21.8
      vertex 45.9643 52.9417 21.8
    endloop
  endfacet
  facet normal 0 0 1
    outer loop
      vertex 44.0357 52.9417 21.8
      vertex 44.0357 37.0583 21.8
      vertex 45.9643 37.0583 21.8
    endloop
  endfacet
  facet normal -0 0 1
    outer loop
      vertex 42.1632 52.4801 21.8
      vertex 44.0357 37.0583 21.8
      vertex 44.0357 52.9417 21.8
    endloop
  endfacet
  facet normal 0 0 1
    outer loop
      vertex 42.1632 52.4801 21.8
      vertex 42.1632 37.5199 21.8
      vertex 44.0357 37.0583 21.8
    endloop
  endfacet
  facet normal -0 0 1
    outer loop
      vertex 40.4555 51.5839 21.8
      vertex 42.1632 37.5199 21.8
      vertex 42.1632 52.4801 21.8
    endloop
  endfacet
  facet normal 0 0 1
    outer loop
      vertex 40.4555 51.5839 21.8
      vertex 40.4555 38.4161 21.8
      vertex 42.1632 37.5199 21.8
    endloop
  endfacet
  facet normal -0 0 1
    outer loop
      vertex 39.0119 50.305 21.8
      vertex 40.4555 38.4161 21.8
      vertex 40.4555 51.5839 21.8
    endloop
  endfacet
  facet normal 0 0 1
    outer loop
      vertex 39.0119 50.305 21.8
      vertex 39.0119 39.695 21.8
      vertex 40.4555 38.4161 21.8
    endloop
  endfacet
  facet normal -0 0 1
    outer loop
      vertex 37.9164 48.7178 21.8
      vertex 39.0119 39.695 21.8
      vertex 39.0119 50.305 21.8
    endloop
  endfacet
  facet normal 0 0 1
    outer loop
      vertex 37.9164 48.7178 21.8
      vertex 37.9164 41.2822 21.8
      vertex 39.0119 39.695 21.8
    endloop
  endfacet
  facet normal -0 0 1
    outer loop
      vertex 37.2325 46.9145 21.8
      vertex 37.9164 41.2822 21.8
      vertex 37.9164 48.7178 21.8
    endloop
  endfacet
  facet normal 0 0 1
    outer loop
      vertex 37.2325 46.9145 21.8
      vertex 37.2325 43.0855 21.8
      vertex 37.9164 41.2822 21.8
    endloop
  endfacet
  facet normal 0 -0 1
    outer loop
      vertex 37.2325 43.0855 21.8
      vertex 37.2325 46.9145 21.8
      vertex 37 45 21.8
    endloop
  endfacet
  facet normal 0.992709 -0.120536 0
    outer loop
      vertex 37 45 25
      vertex 37.2325 46.9145 21.8
      vertex 37.2325 46.9145 25
    endloop
  endfacet
  facet normal 0.992709 -0.120536 0
    outer loop
      vertex 37.2325 46.9145 21.8
      vertex 37 45 25
      vertex 37 45 21.8
    endloop
  endfacet
  facet normal 0.464723 -0.885456 0
    outer loop
      vertex 40.4555 51.5839 21.8
      vertex 42.1632 52.4801 25
      vertex 40.4555 51.5839 25
    endloop
  endfacet
  facet normal 0.464723 -0.885456 0
    outer loop
      vertex 42.1632 52.4801 25
      vertex 40.4555 51.5839 21.8
      vertex 42.1632 52.4801 21.8
    endloop
  endfacet
  facet normal -0.992709 0.120538 0
    outer loop
      vertex 52.7675 43.0855 21.8
      vertex 53 45 25
      vertex 53 45 21.8
    endloop
  endfacet
  facet normal -0.992709 0.120538 0
    outer loop
      vertex 53 45 25
      vertex 52.7675 43.0855 21.8
      vertex 52.7675 43.0855 25
    endloop
  endfacet
  facet normal -0.464723 0.885456 0
    outer loop
      vertex 49.5445 38.4161 21.8
      vertex 47.8368 37.5199 25
      vertex 49.5445 38.4161 25
    endloop
  endfacet
  facet normal -0.464723 0.885456 0
    outer loop
      vertex 47.8368 37.5199 25
      vertex 49.5445 38.4161 21.8
      vertex 47.8368 37.5199 21.8
    endloop
  endfacet
  facet normal 0.992709 0.120536 0
    outer loop
      vertex 37.2325 43.0855 25
      vertex 37 45 21.8
      vertex 37 45 25
    endloop
  endfacet
  facet normal 0.992709 0.120536 0
    outer loop
      vertex 37 45 21.8
      vertex 37.2325 43.0855 25
      vertex 37.2325 43.0855 21.8
    endloop
  endfacet
  facet normal 0.663122 0.748511 -0
    outer loop
      vertex 40.4555 38.4161 21.8
      vertex 39.0119 39.695 25
      vertex 40.4555 38.4161 25
    endloop
  endfacet
  facet normal 0.663122 0.748511 0
    outer loop
      vertex 39.0119 39.695 25
      vertex 40.4555 38.4161 21.8
      vertex 39.0119 39.695 21.8
    endloop
  endfacet
  facet normal 0.935016 0.354606 0
    outer loop
      vertex 37.9164 41.2822 25
      vertex 37.2325 43.0855 21.8
      vertex 37.2325 43.0855 25
    endloop
  endfacet
  facet normal 0.935016 0.354606 0
    outer loop
      vertex 37.2325 43.0855 21.8
      vertex 37.9164 41.2822 25
      vertex 37.9164 41.2822 21.8
    endloop
  endfacet
  facet normal -0.663122 0.748511 0
    outer loop
      vertex 50.9881 39.695 21.8
      vertex 49.5445 38.4161 25
      vertex 50.9881 39.695 25
    endloop
  endfacet
  facet normal -0.663122 0.748511 0
    outer loop
      vertex 49.5445 38.4161 25
      vertex 50.9881 39.695 21.8
      vertex 49.5445 38.4161 21.8
    endloop
  endfacet
  facet normal 0.464723 0.885456 -0
    outer loop
      vertex 42.1632 37.5199 21.8
      vertex 40.4555 38.4161 25
      vertex 42.1632 37.5199 25
    endloop
  endfacet
  facet normal 0.464723 0.885456 0
    outer loop
      vertex 40.4555 38.4161 25
      vertex 42.1632 37.5199 21.8
      vertex 40.4555 38.4161 21.8
    endloop
  endfacet
  facet normal 0 1 -0
    outer loop
      vertex 45.9643 37.0583 21.8
      vertex 44.0357 37.0583 25
      vertex 45.9643 37.0583 25
    endloop
  endfacet
  facet normal 0 1 0
    outer loop
      vertex 44.0357 37.0583 25
      vertex 45.9643 37.0583 21.8
      vertex 44.0357 37.0583 21.8
    endloop
  endfacet
  facet normal 0.822984 0.568065 0
    outer loop
      vertex 39.0119 39.695 25
      vertex 37.9164 41.2822 21.8
      vertex 37.9164 41.2822 25
    endloop
  endfacet
  facet normal 0.822984 0.568065 0
    outer loop
      vertex 37.9164 41.2822 21.8
      vertex 39.0119 39.695 25
      vertex 39.0119 39.695 21.8
    endloop
  endfacet
  facet normal 0.239317 0.970941 -0
    outer loop
      vertex 44.0357 37.0583 21.8
      vertex 42.1632 37.5199 25
      vertex 44.0357 37.0583 25
    endloop
  endfacet
  facet normal 0.239317 0.970941 0
    outer loop
      vertex 42.1632 37.5199 25
      vertex 44.0357 37.0583 21.8
      vertex 42.1632 37.5199 21.8
    endloop
  endfacet
endsolid OpenSCAD_Model
