solid OpenSCAD_Model
  facet normal -1 0 0
    outer loop
      vertex 0 0 0
      vertex 0 110 35
      vertex 0 110 0
    endloop
  endfacet
  facet normal -1 -0 0
    outer loop
      vertex 0 110 35
      vertex 0 0 0
      vertex 0 0 35
    endloop
  endfacet
  facet normal -0 0 1
    outer loop
      vertex 63.8912 37.6667 35
      vertex 108 35.6667 35
      vertex 108 37.6667 35
    endloop
  endfacet
  facet normal 0 0 1
    outer loop
      vertex 63.8912 37.6667 35
      vertex 63.8912 35.6667 35
      vertex 108 35.6667 35
    endloop
  endfacet
  facet normal -0 0 1
    outer loop
      vertex 62.4581 38.5816 35
      vertex 63.8912 37.6667 35
      vertex 63.7896 38.6014 35
    endloop
  endfacet
  facet normal 0 0 1
    outer loop
      vertex 63.8912 37.6667 35
      vertex 62.7 36.6667 35
      vertex 63.8912 35.6667 35
    endloop
  endfacet
  facet normal 0 0 1
    outer loop
      vertex 62.4581 38.5816 35
      vertex 63.7896 38.6014 35
      vertex 63.1682 40.4457 35
    endloop
  endfacet
  facet normal 0 0 1
    outer loop
      vertex 62.4581 34.7518 35
      vertex 63.8912 35.6667 35
      vertex 62.7 36.6667 35
    endloop
  endfacet
  facet normal 0 0 1
    outer loop
      vertex 63.8912 35.6667 35
      vertex 62.4581 34.7518 35
      vertex 63.7896 34.7319 35
    endloop
  endfacet
  facet normal 0 0 1
    outer loop
      vertex 63.8912 37.6667 35
      vertex 62.4581 38.5816 35
      vertex 62.7 36.6667 35
    endloop
  endfacet
  facet normal 0 0 1
    outer loop
      vertex 61.7476 40.3762 35
      vertex 63.1682 40.4457 35
      vertex 62.1648 42.1132 35
    endloop
  endfacet
  facet normal 0 0 1
    outer loop
      vertex 63.1682 40.4457 35
      vertex 61.7476 40.3762 35
      vertex 62.4581 38.5816 35
    endloop
  endfacet
  facet normal 0 0 1
    outer loop
      vertex 60.6131 41.9377 35
      vertex 62.1648 42.1132 35
      vertex 60.8265 43.5261 35
    endloop
  endfacet
  facet normal 0 0 1
    outer loop
      vertex 62.1648 42.1132 35
      vertex 60.6131 41.9377 35
      vertex 61.7476 40.3762 35
    endloop
  endfacet
  facet normal 0 0 1
    outer loop
      vertex 59.1259 43.168 35
      vertex 60.8265 43.5261 35
      vertex 59.2157 44.6183 35
    endloop
  endfacet
  facet normal 0 0 1
    outer loop
      vertex 60.8265 43.5261 35
      vertex 59.1259 43.168 35
      vertex 60.6131 41.9377 35
    endloop
  endfacet
  facet normal 0 0 1
    outer loop
      vertex 57.3794 43.9898 35
      vertex 59.2157 44.6183 35
      vertex 57.4078 45.3386 35
    endloop
  endfacet
  facet normal 0 0 1
    outer loop
      vertex 59.2157 44.6183 35
      vertex 57.3794 43.9898 35
      vertex 59.1259 43.168 35
    endloop
  endfacet
  facet normal 0 0 1
    outer loop
      vertex 55.4835 44.3515 35
      vertex 57.4078 45.3386 35
      vertex 55.4873 45.6535 35
    endloop
  endfacet
  facet normal 0 0 1
    outer loop
      vertex 57.4078 45.3386 35
      vertex 55.4835 44.3515 35
      vertex 57.3794 43.9898 35
    endloop
  endfacet
  facet normal -0 0 1
    outer loop
      vertex 53.544 45.5481 35
      vertex 55.4835 44.3515 35
      vertex 55.4873 45.6535 35
    endloop
  endfacet
  facet normal 0 0 1
    outer loop
      vertex 55.4835 44.3515 35
      vertex 53.544 45.5481 35
      vertex 53.5572 44.2303 35
    endloop
  endfacet
  facet normal -0 0 1
    outer loop
      vertex 51.6688 45.0275 35
      vertex 53.5572 44.2303 35
      vertex 53.544 45.5481 35
    endloop
  endfacet
  facet normal 0 0 1
    outer loop
      vertex 53.5572 44.2303 35
      vertex 51.6688 45.0275 35
      vertex 51.7215 43.6338 35
    endloop
  endfacet
  facet normal -0 0 1
    outer loop
      vertex 49.9493 44.1159 35
      vertex 51.7215 43.6338 35
      vertex 51.6688 45.0275 35
    endloop
  endfacet
  facet normal 0 0 1
    outer loop
      vertex 51.7215 43.6338 35
      vertex 49.9493 44.1159 35
      vertex 50.0918 42.5996 35
    endloop
  endfacet
  facet normal -0 0 1
    outer loop
      vertex 48.466 42.856 35
      vertex 50.0918 42.5996 35
      vertex 49.9493 44.1159 35
    endloop
  endfacet
  facet normal 0 0 1
    outer loop
      vertex 50.0918 42.5996 35
      vertex 48.466 42.856 35
      vertex 48.7706 41.1926 35
    endloop
  endfacet
  facet normal -0 0 1
    outer loop
      vertex 47.2883 41.3067 35
      vertex 48.7706 41.1926 35
      vertex 48.466 42.856 35
    endloop
  endfacet
  facet normal 0 0 1
    outer loop
      vertex 48.7706 41.1926 35
      vertex 47.2883 41.3067 35
      vertex 47.8407 39.5012 35
    endloop
  endfacet
  facet normal 0 0 1
    outer loop
      vertex 47.8407 39.5012 35
      vertex 46.4711 39.5404 35
      vertex 47.3607 37.6317 35
    endloop
  endfacet
  facet normal -0 0 1
    outer loop
      vertex 46.4711 39.5404 35
      vertex 47.8407 39.5012 35
      vertex 47.2883 41.3067 35
    endloop
  endfacet
  facet normal -0 0 1
    outer loop
      vertex 63.8912 74.3333 35
      vertex 108 72.3333 35
      vertex 108 74.3333 35
    endloop
  endfacet
  facet normal 0 0 1
    outer loop
      vertex 63.8912 74.3333 35
      vertex 63.8912 72.3333 35
      vertex 108 72.3333 35
    endloop
  endfacet
  facet normal -0 0 1
    outer loop
      vertex 62.4581 75.2482 35
      vertex 63.8912 74.3333 35
      vertex 63.7896 75.2681 35
    endloop
  endfacet
  facet normal 0 0 1
    outer loop
      vertex 63.8912 74.3333 35
      vertex 62.7 73.3333 35
      vertex 63.8912 72.3333 35
    endloop
  endfacet
  facet normal 0 0 1
    outer loop
      vertex 62.4581 75.2482 35
      vertex 63.7896 75.2681 35
      vertex 63.1682 77.1123 35
    endloop
  endfacet
  facet normal 0 0 1
    outer loop
      vertex 62.4581 71.4184 35
      vertex 63.8912 72.3333 35
      vertex 62.7 73.3333 35
    endloop
  endfacet
  facet normal 0 0 1
    outer loop
      vertex 63.8912 72.3333 35
      vertex 62.4581 71.4184 35
      vertex 63.7896 71.3986 35
    endloop
  endfacet
  facet normal 0 0 1
    outer loop
      vertex 63.8912 74.3333 35
      vertex 62.4581 75.2482 35
      vertex 62.7 73.3333 35
    endloop
  endfacet
  facet normal 0 0 1
    outer loop
      vertex 61.7476 77.0428 35
      vertex 63.1682 77.1123 35
      vertex 62.1648 78.7799 35
    endloop
  endfacet
  facet normal 0 0 1
    outer loop
      vertex 63.1682 77.1123 35
      vertex 61.7476 77.0428 35
      vertex 62.4581 75.2482 35
    endloop
  endfacet
  facet normal 0 0 1
    outer loop
      vertex 60.6131 78.6043 35
      vertex 62.1648 78.7799 35
      vertex 60.8265 80.1928 35
    endloop
  endfacet
  facet normal 0 0 1
    outer loop
      vertex 62.1648 78.7799 35
      vertex 60.6131 78.6043 35
      vertex 61.7476 77.0428 35
    endloop
  endfacet
  facet normal 0 0 1
    outer loop
      vertex 59.1259 79.8347 35
      vertex 60.8265 80.1928 35
      vertex 59.2157 81.2849 35
    endloop
  endfacet
  facet normal 0 0 1
    outer loop
      vertex 60.8265 80.1928 35
      vertex 59.1259 79.8347 35
      vertex 60.6131 78.6043 35
    endloop
  endfacet
  facet normal 0 0 1
    outer loop
      vertex 57.3794 80.6565 35
      vertex 59.2157 81.2849 35
      vertex 57.4078 82.0053 35
    endloop
  endfacet
  facet normal 0 0 1
    outer loop
      vertex 59.2157 81.2849 35
      vertex 57.3794 80.6565 35
      vertex 59.1259 79.8347 35
    endloop
  endfacet
  facet normal 0 0 1
    outer loop
      vertex 55.4835 81.0181 35
      vertex 57.4078 82.0053 35
      vertex 55.4873 82.3201 35
    endloop
  endfacet
  facet normal 0 0 1
    outer loop
      vertex 57.4078 82.0053 35
      vertex 55.4835 81.0181 35
      vertex 57.3794 80.6565 35
    endloop
  endfacet
  facet normal -0 0 1
    outer loop
      vertex 53.544 82.2148 35
      vertex 55.4835 81.0181 35
      vertex 55.4873 82.3201 35
    endloop
  endfacet
  facet normal 0 0 1
    outer loop
      vertex 55.4835 81.0181 35
      vertex 53.544 82.2148 35
      vertex 53.5572 80.8969 35
    endloop
  endfacet
  facet normal -0 0 1
    outer loop
      vertex 51.6688 81.6941 35
      vertex 53.5572 80.8969 35
      vertex 53.544 82.2148 35
    endloop
  endfacet
  facet normal 0 0 1
    outer loop
      vertex 53.5572 80.8969 35
      vertex 51.6688 81.6941 35
      vertex 51.7215 80.3005 35
    endloop
  endfacet
  facet normal -0 0 1
    outer loop
      vertex 49.9493 80.7825 35
      vertex 51.7215 80.3005 35
      vertex 51.6688 81.6941 35
    endloop
  endfacet
  facet normal 0 0 1
    outer loop
      vertex 51.7215 80.3005 35
      vertex 49.9493 80.7825 35
      vertex 50.0918 79.2663 35
    endloop
  endfacet
  facet normal -0 0 1
    outer loop
      vertex 48.466 79.5226 35
      vertex 50.0918 79.2663 35
      vertex 49.9493 80.7825 35
    endloop
  endfacet
  facet normal 0 0 1
    outer loop
      vertex 50.0918 79.2663 35
      vertex 48.466 79.5226 35
      vertex 48.7706 77.8593 35
    endloop
  endfacet
  facet normal -0 0 1
    outer loop
      vertex 47.2883 77.9733 35
      vertex 48.7706 77.8593 35
      vertex 48.466 79.5226 35
    endloop
  endfacet
  facet normal 0 0 1
    outer loop
      vertex 48.7706 77.8593 35
      vertex 47.2883 77.9733 35
      vertex 47.8407 76.1679 35
    endloop
  endfacet
  facet normal 0 0 1
    outer loop
      vertex 47.8407 76.1679 35
      vertex 46.4711 76.207 35
      vertex 47.3607 74.2984 35
    endloop
  endfacet
  facet normal -0 0 1
    outer loop
      vertex 46.4711 76.207 35
      vertex 47.8407 76.1679 35
      vertex 47.2883 77.9733 35
    endloop
  endfacet
  facet normal 0 0 1
    outer loop
      vertex 108 74.3333 35
      vertex 110 110 35
      vertex 108 108 35
    endloop
  endfacet
  facet normal 0 0 1
    outer loop
      vertex 110 110 35
      vertex 2 108 35
      vertex 108 108 35
    endloop
  endfacet
  facet normal 0 0 1
    outer loop
      vertex 0 110 35
      vertex 2 74.3333 35
      vertex 2 108 35
    endloop
  endfacet
  facet normal 0 0 1
    outer loop
      vertex 2 74.3333 35
      vertex 0 110 35
      vertex 2 72.3333 35
    endloop
  endfacet
  facet normal 0 0 1
    outer loop
      vertex 2 72.3333 35
      vertex 0 110 35
      vertex 2 37.6667 35
    endloop
  endfacet
  facet normal 0 0 1
    outer loop
      vertex 0 0 35
      vertex 2 37.6667 35
      vertex 0 110 35
    endloop
  endfacet
  facet normal 0 0 1
    outer loop
      vertex 2 37.6667 35
      vertex 0 0 35
      vertex 2 35.6667 35
    endloop
  endfacet
  facet normal -0 0 1
    outer loop
      vertex 0 110 35
      vertex 2 108 35
      vertex 110 110 35
    endloop
  endfacet
  facet normal 0 0 1
    outer loop
      vertex 108 72.3333 35
      vertex 110 110 35
      vertex 108 74.3333 35
    endloop
  endfacet
  facet normal 0 0 1
    outer loop
      vertex 110 110 35
      vertex 108 72.3333 35
      vertex 110 0 35
    endloop
  endfacet
  facet normal -0 0 1
    outer loop
      vertex 108 37.6667 35
      vertex 110 0 35
      vertex 108 72.3333 35
    endloop
  endfacet
  facet normal -0 0 1
    outer loop
      vertex 108 35.6667 35
      vertex 110 0 35
      vertex 108 37.6667 35
    endloop
  endfacet
  facet normal -0 0 1
    outer loop
      vertex 108 2 35
      vertex 110 0 35
      vertex 108 35.6667 35
    endloop
  endfacet
  facet normal -0 0 1
    outer loop
      vertex 2 2 35
      vertex 110 0 35
      vertex 108 2 35
    endloop
  endfacet
  facet normal 0 0 1
    outer loop
      vertex 2 2 35
      vertex 0 0 35
      vertex 110 0 35
    endloop
  endfacet
  facet normal 0 0 1
    outer loop
      vertex 2 35.6667 35
      vertex 0 0 35
      vertex 2 2 35
    endloop
  endfacet
  facet normal 0 0 1
    outer loop
      vertex 63.7896 71.3986 35
      vertex 62.4581 71.4184 35
      vertex 63.1682 69.5543 35
    endloop
  endfacet
  facet normal -0 0 1
    outer loop
      vertex 61.7476 69.6238 35
      vertex 63.1682 69.5543 35
      vertex 62.4581 71.4184 35
    endloop
  endfacet
  facet normal 0 0 1
    outer loop
      vertex 63.1682 69.5543 35
      vertex 61.7476 69.6238 35
      vertex 62.1648 67.8868 35
    endloop
  endfacet
  facet normal -0 0 1
    outer loop
      vertex 60.6131 68.0623 35
      vertex 62.1648 67.8868 35
      vertex 61.7476 69.6238 35
    endloop
  endfacet
  facet normal 0 0 1
    outer loop
      vertex 62.1648 67.8868 35
      vertex 60.6131 68.0623 35
      vertex 60.8265 66.4739 35
    endloop
  endfacet
  facet normal -0 0 1
    outer loop
      vertex 59.1259 66.832 35
      vertex 60.8265 66.4739 35
      vertex 60.6131 68.0623 35
    endloop
  endfacet
  facet normal 0 0 1
    outer loop
      vertex 60.8265 66.4739 35
      vertex 59.1259 66.832 35
      vertex 59.2157 65.3817 35
    endloop
  endfacet
  facet normal -0 0 1
    outer loop
      vertex 57.3794 66.0102 35
      vertex 59.2157 65.3817 35
      vertex 59.1259 66.832 35
    endloop
  endfacet
  facet normal 0 0 1
    outer loop
      vertex 59.2157 65.3817 35
      vertex 57.3794 66.0102 35
      vertex 57.4078 64.6614 35
    endloop
  endfacet
  facet normal -0 0 1
    outer loop
      vertex 55.4835 65.6485 35
      vertex 57.4078 64.6614 35
      vertex 57.3794 66.0102 35
    endloop
  endfacet
  facet normal 0 0 1
    outer loop
      vertex 57.4078 64.6614 35
      vertex 55.4835 65.6485 35
      vertex 55.4873 64.3465 35
    endloop
  endfacet
  facet normal 0 0 1
    outer loop
      vertex 53.544 64.4519 35
      vertex 55.4835 65.6485 35
      vertex 53.5572 65.7697 35
    endloop
  endfacet
  facet normal 0 0 1
    outer loop
      vertex 55.4835 65.6485 35
      vertex 53.544 64.4519 35
      vertex 55.4873 64.3465 35
    endloop
  endfacet
  facet normal 0 0 1
    outer loop
      vertex 51.6688 64.9725 35
      vertex 53.5572 65.7697 35
      vertex 51.7215 66.3662 35
    endloop
  endfacet
  facet normal 0 0 1
    outer loop
      vertex 53.5572 65.7697 35
      vertex 51.6688 64.9725 35
      vertex 53.544 64.4519 35
    endloop
  endfacet
  facet normal 0 0 1
    outer loop
      vertex 49.9493 65.8841 35
      vertex 51.7215 66.3662 35
      vertex 50.0918 67.4004 35
    endloop
  endfacet
  facet normal 0 0 1
    outer loop
      vertex 51.7215 66.3662 35
      vertex 49.9493 65.8841 35
      vertex 51.6688 64.9725 35
    endloop
  endfacet
  facet normal 0 0 1
    outer loop
      vertex 48.466 67.144 35
      vertex 50.0918 67.4004 35
      vertex 48.7706 68.8074 35
    endloop
  endfacet
  facet normal 0 0 1
    outer loop
      vertex 50.0918 67.4004 35
      vertex 48.466 67.144 35
      vertex 49.9493 65.8841 35
    endloop
  endfacet
  facet normal 0 0 1
    outer loop
      vertex 47.2883 68.6933 35
      vertex 48.7706 68.8074 35
      vertex 47.8407 70.4988 35
    endloop
  endfacet
  facet normal 0 0 1
    outer loop
      vertex 46.4711 70.4596 35
      vertex 47.8407 70.4988 35
      vertex 47.3607 72.3683 35
    endloop
  endfacet
  facet normal 0 0 1
    outer loop
      vertex 48.7706 68.8074 35
      vertex 47.2883 68.6933 35
      vertex 48.466 67.144 35
    endloop
  endfacet
  facet normal -0 0 1
    outer loop
      vertex 46.0587 74.3333 35
      vertex 47.3607 74.2984 35
      vertex 46.4711 76.207 35
    endloop
  endfacet
  facet normal 0 0 1
    outer loop
      vertex 47.3607 74.2984 35
      vertex 46.0587 74.3333 35
      vertex 47.3607 72.3683 35
    endloop
  endfacet
  facet normal 0 0 1
    outer loop
      vertex 47.8407 70.4988 35
      vertex 46.4711 70.4596 35
      vertex 47.2883 68.6933 35
    endloop
  endfacet
  facet normal 0 0 1
    outer loop
      vertex 46.0587 72.3333 35
      vertex 47.3607 72.3683 35
      vertex 46.0587 74.3333 35
    endloop
  endfacet
  facet normal 0 0 1
    outer loop
      vertex 47.3607 72.3683 35
      vertex 46.0587 72.3333 35
      vertex 46.4711 70.4596 35
    endloop
  endfacet
  facet normal -0 0 1
    outer loop
      vertex 2 74.3333 35
      vertex 46.0587 72.3333 35
      vertex 46.0587 74.3333 35
    endloop
  endfacet
  facet normal 0 0 1
    outer loop
      vertex 46.0587 72.3333 35
      vertex 2 74.3333 35
      vertex 2 72.3333 35
    endloop
  endfacet
  facet normal 0 0 1
    outer loop
      vertex 63.7896 34.7319 35
      vertex 62.4581 34.7518 35
      vertex 63.1682 32.8877 35
    endloop
  endfacet
  facet normal -0 0 1
    outer loop
      vertex 61.7476 32.9572 35
      vertex 63.1682 32.8877 35
      vertex 62.4581 34.7518 35
    endloop
  endfacet
  facet normal 0 0 1
    outer loop
      vertex 63.1682 32.8877 35
      vertex 61.7476 32.9572 35
      vertex 62.1648 31.2201 35
    endloop
  endfacet
  facet normal -0 0 1
    outer loop
      vertex 60.6131 31.3957 35
      vertex 62.1648 31.2201 35
      vertex 61.7476 32.9572 35
    endloop
  endfacet
  facet normal 0 0 1
    outer loop
      vertex 62.1648 31.2201 35
      vertex 60.6131 31.3957 35
      vertex 60.8265 29.8072 35
    endloop
  endfacet
  facet normal -0 0 1
    outer loop
      vertex 59.1259 30.1653 35
      vertex 60.8265 29.8072 35
      vertex 60.6131 31.3957 35
    endloop
  endfacet
  facet normal 0 0 1
    outer loop
      vertex 60.8265 29.8072 35
      vertex 59.1259 30.1653 35
      vertex 59.2157 28.7151 35
    endloop
  endfacet
  facet normal -0 0 1
    outer loop
      vertex 57.3794 29.3435 35
      vertex 59.2157 28.7151 35
      vertex 59.1259 30.1653 35
    endloop
  endfacet
  facet normal 0 0 1
    outer loop
      vertex 59.2157 28.7151 35
      vertex 57.3794 29.3435 35
      vertex 57.4078 27.9947 35
    endloop
  endfacet
  facet normal -0 0 1
    outer loop
      vertex 55.4835 28.9819 35
      vertex 57.4078 27.9947 35
      vertex 57.3794 29.3435 35
    endloop
  endfacet
  facet normal 0 0 1
    outer loop
      vertex 57.4078 27.9947 35
      vertex 55.4835 28.9819 35
      vertex 55.4873 27.6799 35
    endloop
  endfacet
  facet normal 0 0 1
    outer loop
      vertex 53.544 27.7852 35
      vertex 55.4835 28.9819 35
      vertex 53.5572 29.1031 35
    endloop
  endfacet
  facet normal 0 0 1
    outer loop
      vertex 55.4835 28.9819 35
      vertex 53.544 27.7852 35
      vertex 55.4873 27.6799 35
    endloop
  endfacet
  facet normal 0 0 1
    outer loop
      vertex 51.6688 28.3059 35
      vertex 53.5572 29.1031 35
      vertex 51.7215 29.6995 35
    endloop
  endfacet
  facet normal 0 0 1
    outer loop
      vertex 53.5572 29.1031 35
      vertex 51.6688 28.3059 35
      vertex 53.544 27.7852 35
    endloop
  endfacet
  facet normal 0 0 1
    outer loop
      vertex 49.9493 29.2175 35
      vertex 51.7215 29.6995 35
      vertex 50.0918 30.7337 35
    endloop
  endfacet
  facet normal 0 0 1
    outer loop
      vertex 51.7215 29.6995 35
      vertex 49.9493 29.2175 35
      vertex 51.6688 28.3059 35
    endloop
  endfacet
  facet normal 0 0 1
    outer loop
      vertex 48.466 30.4774 35
      vertex 50.0918 30.7337 35
      vertex 48.7706 32.1407 35
    endloop
  endfacet
  facet normal 0 0 1
    outer loop
      vertex 50.0918 30.7337 35
      vertex 48.466 30.4774 35
      vertex 49.9493 29.2175 35
    endloop
  endfacet
  facet normal 0 0 1
    outer loop
      vertex 47.2883 32.0267 35
      vertex 48.7706 32.1407 35
      vertex 47.8407 33.8321 35
    endloop
  endfacet
  facet normal 0 0 1
    outer loop
      vertex 46.4711 33.793 35
      vertex 47.8407 33.8321 35
      vertex 47.3607 35.7016 35
    endloop
  endfacet
  facet normal 0 0 1
    outer loop
      vertex 48.7706 32.1407 35
      vertex 47.2883 32.0267 35
      vertex 48.466 30.4774 35
    endloop
  endfacet
  facet normal -0 0 1
    outer loop
      vertex 46.0587 37.6667 35
      vertex 47.3607 37.6317 35
      vertex 46.4711 39.5404 35
    endloop
  endfacet
  facet normal 0 0 1
    outer loop
      vertex 47.3607 37.6317 35
      vertex 46.0587 37.6667 35
      vertex 47.3607 35.7016 35
    endloop
  endfacet
  facet normal 0 0 1
    outer loop
      vertex 47.8407 33.8321 35
      vertex 46.4711 33.793 35
      vertex 47.2883 32.0267 35
    endloop
  endfacet
  facet normal 0 0 1
    outer loop
      vertex 46.0587 35.6667 35
      vertex 47.3607 35.7016 35
      vertex 46.0587 37.6667 35
    endloop
  endfacet
  facet normal 0 0 1
    outer loop
      vertex 47.3607 35.7016 35
      vertex 46.0587 35.6667 35
      vertex 46.4711 33.793 35
    endloop
  endfacet
  facet normal -0 0 1
    outer loop
      vertex 2 37.6667 35
      vertex 46.0587 35.6667 35
      vertex 46.0587 37.6667 35
    endloop
  endfacet
  facet normal 0 0 1
    outer loop
      vertex 46.0587 35.6667 35
      vertex 2 37.6667 35
      vertex 2 35.6667 35
    endloop
  endfacet
  facet normal 1 -0 0
    outer loop
      vertex 110 0 35
      vertex 110 110 0
      vertex 110 110 35
    endloop
  endfacet
  facet normal 1 0 0
    outer loop
      vertex 110 110 0
      vertex 110 0 35
      vertex 110 0 0
    endloop
  endfacet
  facet normal 0 1 -0
    outer loop
      vertex 110 110 0
      vertex 0 110 35
      vertex 110 110 35
    endloop
  endfacet
  facet normal 0 1 0
    outer loop
      vertex 0 110 35
      vertex 110 110 0
      vertex 0 110 0
    endloop
  endfacet
  facet normal 0 0 -1
    outer loop
      vertex 0 0 0
      vertex 110 110 0
      vertex 110 0 0
    endloop
  endfacet
  facet normal -0 0 -1
    outer loop
      vertex 110 110 0
      vertex 0 0 0
      vertex 0 110 0
    endloop
  endfacet
  facet normal 0 -1 0
    outer loop
      vertex 0 0 0
      vertex 110 0 35
      vertex 0 0 35
    endloop
  endfacet
  facet normal 0 -1 -0
    outer loop
      vertex 110 0 35
      vertex 0 0 0
      vertex 110 0 0
    endloop
  endfacet
  facet normal 1 -0 0
    outer loop
      vertex 2 2 35
      vertex 2 35.6667 3
      vertex 2 35.6667 35
    endloop
  endfacet
  facet normal 1 0 0
    outer loop
      vertex 2 35.6667 3
      vertex 2 2 35
      vertex 2 2 3
    endloop
  endfacet
  facet normal 1 -0 0
    outer loop
      vertex 2 74.3333 35
      vertex 2 108 3
      vertex 2 108 35
    endloop
  endfacet
  facet normal 1 0 0
    outer loop
      vertex 2 108 3
      vertex 2 74.3333 35
      vertex 2 74.3333 3
    endloop
  endfacet
  facet normal 1 -0 0
    outer loop
      vertex 2 37.6667 35
      vertex 2 72.3333 3
      vertex 2 72.3333 35
    endloop
  endfacet
  facet normal 1 0 0
    outer loop
      vertex 2 72.3333 3
      vertex 2 37.6667 35
      vertex 2 37.6667 3
    endloop
  endfacet
  facet normal -1 0 0
    outer loop
      vertex 108 2 3
      vertex 108 35.6667 35
      vertex 108 35.6667 3
    endloop
  endfacet
  facet normal -1 -0 0
    outer loop
      vertex 108 35.6667 35
      vertex 108 2 3
      vertex 108 2 35
    endloop
  endfacet
  facet normal -1 0 0
    outer loop
      vertex 108 74.3333 3
      vertex 108 108 35
      vertex 108 108 3
    endloop
  endfacet
  facet normal -1 -0 0
    outer loop
      vertex 108 108 35
      vertex 108 74.3333 3
      vertex 108 74.3333 35
    endloop
  endfacet
  facet normal -1 0 0
    outer loop
      vertex 108 37.6667 3
      vertex 108 72.3333 35
      vertex 108 72.3333 3
    endloop
  endfacet
  facet normal -1 -0 0
    outer loop
      vertex 108 72.3333 35
      vertex 108 37.6667 3
      vertex 108 37.6667 35
    endloop
  endfacet
  facet normal -0 0 1
    outer loop
      vertex 63.1682 77.1123 3
      vertex 108 74.3333 3
      vertex 108 108 3
    endloop
  endfacet
  facet normal 0 0 1
    outer loop
      vertex 108 74.3333 3
      vertex 63.7896 75.2681 3
      vertex 63.8912 74.3333 3
    endloop
  endfacet
  facet normal 0 0 1
    outer loop
      vertex 108 74.3333 3
      vertex 63.1682 77.1123 3
      vertex 63.7896 75.2681 3
    endloop
  endfacet
  facet normal 0 0 1
    outer loop
      vertex 108 108 3
      vertex 62.1648 78.7799 3
      vertex 63.1682 77.1123 3
    endloop
  endfacet
  facet normal 0 0 1
    outer loop
      vertex 108 108 3
      vertex 60.8265 80.1928 3
      vertex 62.1648 78.7799 3
    endloop
  endfacet
  facet normal 0 0 1
    outer loop
      vertex 108 108 3
      vertex 59.2157 81.2849 3
      vertex 60.8265 80.1928 3
    endloop
  endfacet
  facet normal 0 0 1
    outer loop
      vertex 108 108 3
      vertex 57.4078 82.0053 3
      vertex 59.2157 81.2849 3
    endloop
  endfacet
  facet normal 0 0 1
    outer loop
      vertex 108 108 3
      vertex 55.4873 82.3201 3
      vertex 57.4078 82.0053 3
    endloop
  endfacet
  facet normal -0 0 1
    outer loop
      vertex 2 108 3
      vertex 55.4873 82.3201 3
      vertex 108 108 3
    endloop
  endfacet
  facet normal 0 0 1
    outer loop
      vertex 55.4873 82.3201 3
      vertex 2 108 3
      vertex 53.544 82.2148 3
    endloop
  endfacet
  facet normal 0 0 1
    outer loop
      vertex 53.544 82.2148 3
      vertex 2 108 3
      vertex 51.6688 81.6941 3
    endloop
  endfacet
  facet normal 0 0 1
    outer loop
      vertex 2 108 3
      vertex 49.9493 80.7825 3
      vertex 51.6688 81.6941 3
    endloop
  endfacet
  facet normal 0 0 1
    outer loop
      vertex 2 108 3
      vertex 48.466 79.5226 3
      vertex 49.9493 80.7825 3
    endloop
  endfacet
  facet normal 0 0 1
    outer loop
      vertex 2 108 3
      vertex 47.2883 77.9733 3
      vertex 48.466 79.5226 3
    endloop
  endfacet
  facet normal 0 0 1
    outer loop
      vertex 2 74.3333 3
      vertex 47.2883 77.9733 3
      vertex 2 108 3
    endloop
  endfacet
  facet normal 0 0 1
    outer loop
      vertex 47.2883 77.9733 3
      vertex 2 74.3333 3
      vertex 46.4711 76.207 3
    endloop
  endfacet
  facet normal 0 0 1
    outer loop
      vertex 46.4711 76.207 3
      vertex 2 74.3333 3
      vertex 46.0587 74.3333 3
    endloop
  endfacet
  facet normal 0 0 1
    outer loop
      vertex 63.7896 34.7319 3
      vertex 108 35.6667 3
      vertex 63.8912 35.6667 3
    endloop
  endfacet
  facet normal 0 0 1
    outer loop
      vertex 63.1682 32.8877 3
      vertex 108 35.6667 3
      vertex 63.7896 34.7319 3
    endloop
  endfacet
  facet normal 0 0 1
    outer loop
      vertex 108 35.6667 3
      vertex 63.1682 32.8877 3
      vertex 108 2 3
    endloop
  endfacet
  facet normal -0 0 1
    outer loop
      vertex 62.1648 31.2201 3
      vertex 108 2 3
      vertex 63.1682 32.8877 3
    endloop
  endfacet
  facet normal -0 0 1
    outer loop
      vertex 60.8265 29.8072 3
      vertex 108 2 3
      vertex 62.1648 31.2201 3
    endloop
  endfacet
  facet normal -0 0 1
    outer loop
      vertex 59.2157 28.7151 3
      vertex 108 2 3
      vertex 60.8265 29.8072 3
    endloop
  endfacet
  facet normal -0 0 1
    outer loop
      vertex 57.4078 27.9947 3
      vertex 108 2 3
      vertex 59.2157 28.7151 3
    endloop
  endfacet
  facet normal -0 0 1
    outer loop
      vertex 55.4873 27.6799 3
      vertex 108 2 3
      vertex 57.4078 27.9947 3
    endloop
  endfacet
  facet normal 0 0 1
    outer loop
      vertex 2 2 3
      vertex 55.4873 27.6799 3
      vertex 53.544 27.7852 3
    endloop
  endfacet
  facet normal 0 0 1
    outer loop
      vertex 2 2 3
      vertex 53.544 27.7852 3
      vertex 51.6688 28.3059 3
    endloop
  endfacet
  facet normal -0 0 1
    outer loop
      vertex 2 35.6667 3
      vertex 46.4711 33.793 3
      vertex 46.0587 35.6667 3
    endloop
  endfacet
  facet normal 0 0 1
    outer loop
      vertex 2 35.6667 3
      vertex 47.2883 32.0267 3
      vertex 46.4711 33.793 3
    endloop
  endfacet
  facet normal 0 0 1
    outer loop
      vertex 2 2 3
      vertex 47.2883 32.0267 3
      vertex 2 35.6667 3
    endloop
  endfacet
  facet normal 0 0 1
    outer loop
      vertex 47.2883 32.0267 3
      vertex 2 2 3
      vertex 48.466 30.4774 3
    endloop
  endfacet
  facet normal 0 0 1
    outer loop
      vertex 48.466 30.4774 3
      vertex 2 2 3
      vertex 49.9493 29.2175 3
    endloop
  endfacet
  facet normal 0 0 1
    outer loop
      vertex 49.9493 29.2175 3
      vertex 2 2 3
      vertex 51.6688 28.3059 3
    endloop
  endfacet
  facet normal 0 0 1
    outer loop
      vertex 55.4873 27.6799 3
      vertex 2 2 3
      vertex 108 2 3
    endloop
  endfacet
  facet normal 0 0 1
    outer loop
      vertex 63.7896 71.3986 3
      vertex 108 72.3333 3
      vertex 63.8912 72.3333 3
    endloop
  endfacet
  facet normal 0 0 1
    outer loop
      vertex 63.1682 69.5543 3
      vertex 108 72.3333 3
      vertex 63.7896 71.3986 3
    endloop
  endfacet
  facet normal 0 0 1
    outer loop
      vertex 108 72.3333 3
      vertex 63.1682 69.5543 3
      vertex 108 37.6667 3
    endloop
  endfacet
  facet normal 0 0 1
    outer loop
      vertex 108 37.6667 3
      vertex 63.7896 38.6014 3
      vertex 63.8912 37.6667 3
    endloop
  endfacet
  facet normal -0 0 1
    outer loop
      vertex 63.1682 40.4457 3
      vertex 108 37.6667 3
      vertex 63.1682 69.5543 3
    endloop
  endfacet
  facet normal 0 0 1
    outer loop
      vertex 108 37.6667 3
      vertex 63.1682 40.4457 3
      vertex 63.7896 38.6014 3
    endloop
  endfacet
  facet normal -0 0 1
    outer loop
      vertex 62.1648 67.8868 3
      vertex 63.1682 40.4457 3
      vertex 63.1682 69.5543 3
    endloop
  endfacet
  facet normal 0 0 1
    outer loop
      vertex 62.1648 67.8868 3
      vertex 62.1648 42.1132 3
      vertex 63.1682 40.4457 3
    endloop
  endfacet
  facet normal -0 0 1
    outer loop
      vertex 60.8265 66.4739 3
      vertex 62.1648 42.1132 3
      vertex 62.1648 67.8868 3
    endloop
  endfacet
  facet normal 0 0 1
    outer loop
      vertex 60.8265 66.4739 3
      vertex 60.8265 43.5261 3
      vertex 62.1648 42.1132 3
    endloop
  endfacet
  facet normal -0 0 1
    outer loop
      vertex 59.2157 65.3817 3
      vertex 60.8265 43.5261 3
      vertex 60.8265 66.4739 3
    endloop
  endfacet
  facet normal 0 0 1
    outer loop
      vertex 59.2157 65.3817 3
      vertex 59.2157 44.6183 3
      vertex 60.8265 43.5261 3
    endloop
  endfacet
  facet normal -0 0 1
    outer loop
      vertex 57.4078 64.6614 3
      vertex 59.2157 44.6183 3
      vertex 59.2157 65.3817 3
    endloop
  endfacet
  facet normal 0 0 1
    outer loop
      vertex 57.4078 64.6614 3
      vertex 57.4078 45.3386 3
      vertex 59.2157 44.6183 3
    endloop
  endfacet
  facet normal -0 0 1
    outer loop
      vertex 55.4873 64.3465 3
      vertex 57.4078 45.3386 3
      vertex 57.4078 64.6614 3
    endloop
  endfacet
  facet normal 0 0 1
    outer loop
      vertex 55.4873 64.3465 3
      vertex 55.4873 45.6535 3
      vertex 57.4078 45.3386 3
    endloop
  endfacet
  facet normal 0 0 1
    outer loop
      vertex 53.544 64.4519 3
      vertex 55.4873 45.6535 3
      vertex 55.4873 64.3465 3
    endloop
  endfacet
  facet normal 0 0 1
    outer loop
      vertex 53.544 64.4519 3
      vertex 53.544 45.5481 3
      vertex 55.4873 45.6535 3
    endloop
  endfacet
  facet normal 0 0 1
    outer loop
      vertex 51.6688 64.9725 3
      vertex 53.544 45.5481 3
      vertex 53.544 64.4519 3
    endloop
  endfacet
  facet normal 0 0 1
    outer loop
      vertex 51.6688 64.9725 3
      vertex 51.6688 45.0275 3
      vertex 53.544 45.5481 3
    endloop
  endfacet
  facet normal 0 0 1
    outer loop
      vertex 49.9493 65.8841 3
      vertex 51.6688 45.0275 3
      vertex 51.6688 64.9725 3
    endloop
  endfacet
  facet normal 0 0 1
    outer loop
      vertex 49.9493 65.8841 3
      vertex 49.9493 44.1159 3
      vertex 51.6688 45.0275 3
    endloop
  endfacet
  facet normal 0 0 1
    outer loop
      vertex 48.466 67.144 3
      vertex 49.9493 44.1159 3
      vertex 49.9493 65.8841 3
    endloop
  endfacet
  facet normal 0 0 1
    outer loop
      vertex 48.466 67.144 3
      vertex 48.466 42.856 3
      vertex 49.9493 44.1159 3
    endloop
  endfacet
  facet normal 0 0 1
    outer loop
      vertex 47.2883 68.6933 3
      vertex 48.466 42.856 3
      vertex 48.466 67.144 3
    endloop
  endfacet
  facet normal 0 0 1
    outer loop
      vertex 47.2883 68.6933 3
      vertex 47.2883 41.3067 3
      vertex 48.466 42.856 3
    endloop
  endfacet
  facet normal 0 0 1
    outer loop
      vertex 2 72.3333 3
      vertex 47.2883 68.6933 3
      vertex 46.4711 70.4596 3
    endloop
  endfacet
  facet normal 0 0 1
    outer loop
      vertex 47.2883 68.6933 3
      vertex 2 72.3333 3
      vertex 47.2883 41.3067 3
    endloop
  endfacet
  facet normal -0 0 1
    outer loop
      vertex 2 72.3333 3
      vertex 46.4711 70.4596 3
      vertex 46.0587 72.3333 3
    endloop
  endfacet
  facet normal 0 0 1
    outer loop
      vertex 2 37.6667 3
      vertex 47.2883 41.3067 3
      vertex 2 72.3333 3
    endloop
  endfacet
  facet normal 0 0 1
    outer loop
      vertex 47.2883 41.3067 3
      vertex 2 37.6667 3
      vertex 46.4711 39.5404 3
    endloop
  endfacet
  facet normal 0 0 1
    outer loop
      vertex 46.4711 39.5404 3
      vertex 2 37.6667 3
      vertex 46.0587 37.6667 3
    endloop
  endfacet
  facet normal 0 1 -0
    outer loop
      vertex 108 2 3
      vertex 2 2 35
      vertex 108 2 35
    endloop
  endfacet
  facet normal 0 1 0
    outer loop
      vertex 2 2 35
      vertex 108 2 3
      vertex 2 2 3
    endloop
  endfacet
  facet normal 0 -1 0
    outer loop
      vertex 2 108 3
      vertex 108 108 35
      vertex 2 108 35
    endloop
  endfacet
  facet normal 0 -1 -0
    outer loop
      vertex 108 108 35
      vertex 2 108 3
      vertex 108 108 3
    endloop
  endfacet
  facet normal 0 1 -0
    outer loop
      vertex 46.0587 37.6667 3
      vertex 2 37.6667 35
      vertex 46.0587 37.6667 35
    endloop
  endfacet
  facet normal 0 1 0
    outer loop
      vertex 2 37.6667 35
      vertex 46.0587 37.6667 3
      vertex 2 37.6667 3
    endloop
  endfacet
  facet normal 0 1 -0
    outer loop
      vertex 108 37.6667 3
      vertex 63.8912 37.6667 35
      vertex 108 37.6667 35
    endloop
  endfacet
  facet normal 0 1 0
    outer loop
      vertex 63.8912 37.6667 35
      vertex 108 37.6667 3
      vertex 63.8912 37.6667 3
    endloop
  endfacet
  facet normal 0 -1 0
    outer loop
      vertex 2 35.6667 3
      vertex 46.0587 35.6667 35
      vertex 2 35.6667 35
    endloop
  endfacet
  facet normal 0 -1 -0
    outer loop
      vertex 46.0587 35.6667 35
      vertex 2 35.6667 3
      vertex 46.0587 35.6667 3
    endloop
  endfacet
  facet normal 0 -1 0
    outer loop
      vertex 63.8912 35.6667 3
      vertex 108 35.6667 35
      vertex 63.8912 35.6667 35
    endloop
  endfacet
  facet normal 0 -1 -0
    outer loop
      vertex 108 35.6667 35
      vertex 63.8912 35.6667 3
      vertex 108 35.6667 3
    endloop
  endfacet
  facet normal 0 1 -0
    outer loop
      vertex 46.0587 74.3333 3
      vertex 2 74.3333 35
      vertex 46.0587 74.3333 35
    endloop
  endfacet
  facet normal 0 1 0
    outer loop
      vertex 2 74.3333 35
      vertex 46.0587 74.3333 3
      vertex 2 74.3333 3
    endloop
  endfacet
  facet normal 0 1 -0
    outer loop
      vertex 108 74.3333 3
      vertex 63.8912 74.3333 35
      vertex 108 74.3333 35
    endloop
  endfacet
  facet normal 0 1 0
    outer loop
      vertex 63.8912 74.3333 35
      vertex 108 74.3333 3
      vertex 63.8912 74.3333 3
    endloop
  endfacet
  facet normal 0 -1 0
    outer loop
      vertex 2 72.3333 3
      vertex 46.0587 72.3333 35
      vertex 2 72.3333 35
    endloop
  endfacet
  facet normal 0 -1 -0
    outer loop
      vertex 46.0587 72.3333 35
      vertex 2 72.3333 3
      vertex 46.0587 72.3333 3
    endloop
  endfacet
  facet normal 0 -1 0
    outer loop
      vertex 63.8912 72.3333 3
      vertex 108 72.3333 35
      vertex 63.8912 72.3333 35
    endloop
  endfacet
  facet normal 0 -1 -0
    outer loop
      vertex 108 72.3333 35
      vertex 63.8912 72.3333 3
      vertex 108 72.3333 3
    endloop
  endfacet
  facet normal 0.994138 0.108118 0
    outer loop
      vertex 63.8912 37.6667 35
      vertex 63.7896 38.6014 3
      vertex 63.7896 38.6014 35
    endloop
  endfacet
  facet normal 0.994138 0.108118 0
    outer loop
      vertex 63.7896 38.6014 3
      vertex 63.8912 37.6667 35
      vertex 63.8912 37.6667 3
    endloop
  endfacet
  facet normal -0.0541388 0.998533 0
    outer loop
      vertex 55.4873 45.6535 3
      vertex 53.544 45.5481 35
      vertex 55.4873 45.6535 35
    endloop
  endfacet
  facet normal -0.0541388 0.998533 0
    outer loop
      vertex 53.544 45.5481 35
      vertex 55.4873 45.6535 3
      vertex 53.544 45.5481 3
    endloop
  endfacet
  facet normal 0.161782 -0.986827 0
    outer loop
      vertex 55.4873 27.6799 3
      vertex 57.4078 27.9947 35
      vertex 55.4873 27.6799 35
    endloop
  endfacet
  facet normal 0.161782 -0.986827 0
    outer loop
      vertex 57.4078 27.9947 35
      vertex 55.4873 27.6799 3
      vertex 57.4078 27.9947 3
    endloop
  endfacet
  facet normal 0.725995 0.6877 0
    outer loop
      vertex 62.1648 42.1132 35
      vertex 60.8265 43.5261 3
      vertex 60.8265 43.5261 35
    endloop
  endfacet
  facet normal 0.725995 0.6877 0
    outer loop
      vertex 60.8265 43.5261 3
      vertex 62.1648 42.1132 35
      vertex 62.1648 42.1132 3
    endloop
  endfacet
  facet normal 0.947653 0.319302 0
    outer loop
      vertex 63.7896 38.6014 35
      vertex 63.1682 40.4457 3
      vertex 63.1682 40.4457 35
    endloop
  endfacet
  facet normal 0.947653 0.319302 0
    outer loop
      vertex 63.1682 40.4457 3
      vertex 63.7896 38.6014 35
      vertex 63.7896 38.6014 3
    endloop
  endfacet
  facet normal -0.647386 0.762162 0
    outer loop
      vertex 49.9493 44.1159 3
      vertex 48.466 42.856 35
      vertex 49.9493 44.1159 35
    endloop
  endfacet
  facet normal -0.647386 0.762162 0
    outer loop
      vertex 48.466 42.856 35
      vertex 49.9493 44.1159 3
      vertex 48.466 42.856 3
    endloop
  endfacet
  facet normal -0.46841 0.883511 0
    outer loop
      vertex 51.6688 45.0275 3
      vertex 49.9493 44.1159 35
      vertex 51.6688 45.0275 35
    endloop
  endfacet
  facet normal -0.46841 0.883511 0
    outer loop
      vertex 49.9493 44.1159 35
      vertex 51.6688 45.0275 3
      vertex 49.9493 44.1159 3
    endloop
  endfacet
  facet normal 0.856857 0.515554 0
    outer loop
      vertex 63.1682 40.4457 35
      vertex 62.1648 42.1132 3
      vertex 62.1648 42.1132 35
    endloop
  endfacet
  facet normal 0.856857 0.515554 0
    outer loop
      vertex 62.1648 42.1132 3
      vertex 63.1682 40.4457 35
      vertex 63.1682 40.4457 3
    endloop
  endfacet
  facet normal 0.370138 0.928977 -0
    outer loop
      vertex 59.2157 44.6183 3
      vertex 57.4078 45.3386 35
      vertex 59.2157 44.6183 35
    endloop
  endfacet
  facet normal 0.370138 0.928977 0
    outer loop
      vertex 57.4078 45.3386 35
      vertex 59.2157 44.6183 3
      vertex 57.4078 45.3386 3
    endloop
  endfacet
  facet normal 0.161782 0.986827 -0
    outer loop
      vertex 57.4078 45.3386 3
      vertex 55.4873 45.6535 35
      vertex 57.4078 45.3386 35
    endloop
  endfacet
  facet normal 0.161782 0.986827 0
    outer loop
      vertex 55.4873 45.6535 35
      vertex 57.4078 45.3386 3
      vertex 55.4873 45.6535 3
    endloop
  endfacet
  facet normal 0.561187 0.827689 -0
    outer loop
      vertex 60.8265 43.5261 3
      vertex 59.2157 44.6183 35
      vertex 60.8265 43.5261 35
    endloop
  endfacet
  facet normal 0.561187 0.827689 0
    outer loop
      vertex 59.2157 44.6183 35
      vertex 60.8265 43.5261 3
      vertex 59.2157 44.6183 3
    endloop
  endfacet
  facet normal -0.907576 0.419888 0
    outer loop
      vertex 46.4711 39.5404 3
      vertex 47.2883 41.3067 35
      vertex 47.2883 41.3067 3
    endloop
  endfacet
  facet normal -0.907576 0.419888 0
    outer loop
      vertex 47.2883 41.3067 35
      vertex 46.4711 39.5404 3
      vertex 46.4711 39.5404 35
    endloop
  endfacet
  facet normal -0.796092 0.605175 0
    outer loop
      vertex 47.2883 41.3067 3
      vertex 48.466 42.856 35
      vertex 48.466 42.856 3
    endloop
  endfacet
  facet normal -0.796092 0.605175 0
    outer loop
      vertex 48.466 42.856 35
      vertex 47.2883 41.3067 3
      vertex 47.2883 41.3067 35
    endloop
  endfacet
  facet normal -0.97662 0.214971 0
    outer loop
      vertex 46.0587 37.6667 3
      vertex 46.4711 39.5404 35
      vertex 46.4711 39.5404 3
    endloop
  endfacet
  facet normal -0.97662 0.214971 0
    outer loop
      vertex 46.4711 39.5404 35
      vertex 46.0587 37.6667 3
      vertex 46.0587 37.6667 35
    endloop
  endfacet
  facet normal -0.267527 0.96355 0
    outer loop
      vertex 53.544 45.5481 3
      vertex 51.6688 45.0275 35
      vertex 53.544 45.5481 35
    endloop
  endfacet
  facet normal -0.267527 0.96355 0
    outer loop
      vertex 51.6688 45.0275 35
      vertex 53.544 45.5481 3
      vertex 51.6688 45.0275 3
    endloop
  endfacet
  facet normal -0.97662 -0.214972 0
    outer loop
      vertex 46.4711 33.793 3
      vertex 46.0587 35.6667 35
      vertex 46.0587 35.6667 3
    endloop
  endfacet
  facet normal -0.97662 -0.214972 0
    outer loop
      vertex 46.0587 35.6667 35
      vertex 46.4711 33.793 3
      vertex 46.4711 33.793 35
    endloop
  endfacet
  facet normal 0.370138 -0.928977 0
    outer loop
      vertex 57.4078 27.9947 3
      vertex 59.2157 28.7151 35
      vertex 57.4078 27.9947 35
    endloop
  endfacet
  facet normal 0.370138 -0.928977 0
    outer loop
      vertex 59.2157 28.7151 35
      vertex 57.4078 27.9947 3
      vertex 59.2157 28.7151 3
    endloop
  endfacet
  facet normal 0.947653 -0.319302 0
    outer loop
      vertex 63.1682 32.8877 35
      vertex 63.7896 34.7319 3
      vertex 63.7896 34.7319 35
    endloop
  endfacet
  facet normal 0.947653 -0.319302 0
    outer loop
      vertex 63.7896 34.7319 3
      vertex 63.1682 32.8877 35
      vertex 63.1682 32.8877 3
    endloop
  endfacet
  facet normal 0.725996 -0.687699 0
    outer loop
      vertex 60.8265 29.8072 35
      vertex 62.1648 31.2201 3
      vertex 62.1648 31.2201 35
    endloop
  endfacet
  facet normal 0.725996 -0.687699 0
    outer loop
      vertex 62.1648 31.2201 3
      vertex 60.8265 29.8072 35
      vertex 60.8265 29.8072 3
    endloop
  endfacet
  facet normal 0.561187 -0.827689 0
    outer loop
      vertex 59.2157 28.7151 3
      vertex 60.8265 29.8072 35
      vertex 59.2157 28.7151 35
    endloop
  endfacet
  facet normal 0.561187 -0.827689 0
    outer loop
      vertex 60.8265 29.8072 35
      vertex 59.2157 28.7151 3
      vertex 60.8265 29.8072 3
    endloop
  endfacet
  facet normal 0.994138 -0.108119 0
    outer loop
      vertex 63.7896 34.7319 35
      vertex 63.8912 35.6667 3
      vertex 63.8912 35.6667 35
    endloop
  endfacet
  facet normal 0.994138 -0.108119 0
    outer loop
      vertex 63.8912 35.6667 3
      vertex 63.7896 34.7319 35
      vertex 63.7896 34.7319 3
    endloop
  endfacet
  facet normal -0.647386 -0.762162 0
    outer loop
      vertex 48.466 30.4774 3
      vertex 49.9493 29.2175 35
      vertex 48.466 30.4774 35
    endloop
  endfacet
  facet normal -0.647386 -0.762162 -0
    outer loop
      vertex 49.9493 29.2175 35
      vertex 48.466 30.4774 3
      vertex 49.9493 29.2175 3
    endloop
  endfacet
  facet normal -0.796092 -0.605175 0
    outer loop
      vertex 48.466 30.4774 3
      vertex 47.2883 32.0267 35
      vertex 47.2883 32.0267 3
    endloop
  endfacet
  facet normal -0.796092 -0.605175 0
    outer loop
      vertex 47.2883 32.0267 35
      vertex 48.466 30.4774 3
      vertex 48.466 30.4774 35
    endloop
  endfacet
  facet normal -0.907576 -0.419888 0
    outer loop
      vertex 47.2883 32.0267 3
      vertex 46.4711 33.793 35
      vertex 46.4711 33.793 3
    endloop
  endfacet
  facet normal -0.907576 -0.419888 0
    outer loop
      vertex 46.4711 33.793 35
      vertex 47.2883 32.0267 3
      vertex 47.2883 32.0267 35
    endloop
  endfacet
  facet normal 0.856857 -0.515554 0
    outer loop
      vertex 62.1648 31.2201 35
      vertex 63.1682 32.8877 3
      vertex 63.1682 32.8877 35
    endloop
  endfacet
  facet normal 0.856857 -0.515554 0
    outer loop
      vertex 63.1682 32.8877 3
      vertex 62.1648 31.2201 35
      vertex 62.1648 31.2201 3
    endloop
  endfacet
  facet normal -0.468409 -0.883512 0
    outer loop
      vertex 49.9493 29.2175 3
      vertex 51.6688 28.3059 35
      vertex 49.9493 29.2175 35
    endloop
  endfacet
  facet normal -0.468409 -0.883512 -0
    outer loop
      vertex 51.6688 28.3059 35
      vertex 49.9493 29.2175 3
      vertex 51.6688 28.3059 3
    endloop
  endfacet
  facet normal -0.267528 -0.96355 0
    outer loop
      vertex 51.6688 28.3059 3
      vertex 53.544 27.7852 35
      vertex 51.6688 28.3059 35
    endloop
  endfacet
  facet normal -0.267528 -0.96355 -0
    outer loop
      vertex 53.544 27.7852 35
      vertex 51.6688 28.3059 3
      vertex 53.544 27.7852 3
    endloop
  endfacet
  facet normal -0.0541388 -0.998533 0
    outer loop
      vertex 53.544 27.7852 3
      vertex 55.4873 27.6799 35
      vertex 53.544 27.7852 35
    endloop
  endfacet
  facet normal -0.0541388 -0.998533 -0
    outer loop
      vertex 55.4873 27.6799 35
      vertex 53.544 27.7852 3
      vertex 55.4873 27.6799 3
    endloop
  endfacet
  facet normal 0.994138 0.108119 0
    outer loop
      vertex 63.8912 74.3333 35
      vertex 63.7896 75.2681 3
      vertex 63.7896 75.2681 35
    endloop
  endfacet
  facet normal 0.994138 0.108119 0
    outer loop
      vertex 63.7896 75.2681 3
      vertex 63.8912 74.3333 35
      vertex 63.8912 74.3333 3
    endloop
  endfacet
  facet normal -0.0541388 0.998533 0
    outer loop
      vertex 55.4873 82.3201 3
      vertex 53.544 82.2148 35
      vertex 55.4873 82.3201 35
    endloop
  endfacet
  facet normal -0.0541388 0.998533 0
    outer loop
      vertex 53.544 82.2148 35
      vertex 55.4873 82.3201 3
      vertex 53.544 82.2148 3
    endloop
  endfacet
  facet normal 0.161782 -0.986827 0
    outer loop
      vertex 55.4873 64.3465 3
      vertex 57.4078 64.6614 35
      vertex 55.4873 64.3465 35
    endloop
  endfacet
  facet normal 0.161782 -0.986827 0
    outer loop
      vertex 57.4078 64.6614 35
      vertex 55.4873 64.3465 3
      vertex 57.4078 64.6614 3
    endloop
  endfacet
  facet normal 0.561186 0.82769 -0
    outer loop
      vertex 60.8265 80.1928 3
      vertex 59.2157 81.2849 35
      vertex 60.8265 80.1928 35
    endloop
  endfacet
  facet normal 0.561186 0.82769 0
    outer loop
      vertex 59.2157 81.2849 35
      vertex 60.8265 80.1928 3
      vertex 59.2157 81.2849 3
    endloop
  endfacet
  facet normal -0.647385 0.762163 0
    outer loop
      vertex 49.9493 80.7825 3
      vertex 48.466 79.5226 35
      vertex 49.9493 80.7825 35
    endloop
  endfacet
  facet normal -0.647385 0.762163 0
    outer loop
      vertex 48.466 79.5226 35
      vertex 49.9493 80.7825 3
      vertex 48.466 79.5226 3
    endloop
  endfacet
  facet normal -0.267527 0.96355 0
    outer loop
      vertex 53.544 82.2148 3
      vertex 51.6688 81.6941 35
      vertex 53.544 82.2148 35
    endloop
  endfacet
  facet normal -0.267527 0.96355 0
    outer loop
      vertex 51.6688 81.6941 35
      vertex 53.544 82.2148 3
      vertex 51.6688 81.6941 3
    endloop
  endfacet
  facet normal 0.856857 0.515554 0
    outer loop
      vertex 63.1682 77.1123 35
      vertex 62.1648 78.7799 3
      vertex 62.1648 78.7799 35
    endloop
  endfacet
  facet normal 0.856857 0.515554 0
    outer loop
      vertex 62.1648 78.7799 3
      vertex 63.1682 77.1123 35
      vertex 63.1682 77.1123 3
    endloop
  endfacet
  facet normal 0.947653 0.319302 0
    outer loop
      vertex 63.7896 75.2681 35
      vertex 63.1682 77.1123 3
      vertex 63.1682 77.1123 35
    endloop
  endfacet
  facet normal 0.947653 0.319302 0
    outer loop
      vertex 63.1682 77.1123 3
      vertex 63.7896 75.2681 35
      vertex 63.7896 75.2681 3
    endloop
  endfacet
  facet normal 0.725997 0.687698 0
    outer loop
      vertex 62.1648 78.7799 35
      vertex 60.8265 80.1928 3
      vertex 60.8265 80.1928 35
    endloop
  endfacet
  facet normal 0.725997 0.687698 0
    outer loop
      vertex 60.8265 80.1928 3
      vertex 62.1648 78.7799 35
      vertex 62.1648 78.7799 3
    endloop
  endfacet
  facet normal 0.161782 0.986827 -0
    outer loop
      vertex 57.4078 82.0053 3
      vertex 55.4873 82.3201 35
      vertex 57.4078 82.0053 35
    endloop
  endfacet
  facet normal 0.161782 0.986827 0
    outer loop
      vertex 55.4873 82.3201 35
      vertex 57.4078 82.0053 3
      vertex 55.4873 82.3201 3
    endloop
  endfacet
  facet normal 0.370136 0.928978 -0
    outer loop
      vertex 59.2157 81.2849 3
      vertex 57.4078 82.0053 35
      vertex 59.2157 81.2849 35
    endloop
  endfacet
  facet normal 0.370136 0.928978 0
    outer loop
      vertex 57.4078 82.0053 35
      vertex 59.2157 81.2849 3
      vertex 57.4078 82.0053 3
    endloop
  endfacet
  facet normal -0.907576 0.419888 0
    outer loop
      vertex 46.4711 76.207 3
      vertex 47.2883 77.9733 35
      vertex 47.2883 77.9733 3
    endloop
  endfacet
  facet normal -0.907576 0.419888 0
    outer loop
      vertex 47.2883 77.9733 35
      vertex 46.4711 76.207 3
      vertex 46.4711 76.207 35
    endloop
  endfacet
  facet normal -0.796092 0.605175 0
    outer loop
      vertex 47.2883 77.9733 3
      vertex 48.466 79.5226 35
      vertex 48.466 79.5226 3
    endloop
  endfacet
  facet normal -0.796092 0.605175 0
    outer loop
      vertex 48.466 79.5226 35
      vertex 47.2883 77.9733 3
      vertex 47.2883 77.9733 35
    endloop
  endfacet
  facet normal -0.97662 0.214972 0
    outer loop
      vertex 46.0587 74.3333 3
      vertex 46.4711 76.207 35
      vertex 46.4711 76.207 3
    endloop
  endfacet
  facet normal -0.97662 0.214972 0
    outer loop
      vertex 46.4711 76.207 35
      vertex 46.0587 74.3333 3
      vertex 46.0587 74.3333 35
    endloop
  endfacet
  facet normal -0.46841 0.883511 0
    outer loop
      vertex 51.6688 81.6941 3
      vertex 49.9493 80.7825 35
      vertex 51.6688 81.6941 35
    endloop
  endfacet
  facet normal -0.46841 0.883511 0
    outer loop
      vertex 49.9493 80.7825 35
      vertex 51.6688 81.6941 3
      vertex 49.9493 80.7825 3
    endloop
  endfacet
  facet normal 0.994138 -0.108118 0
    outer loop
      vertex 63.7896 71.3986 35
      vertex 63.8912 72.3333 3
      vertex 63.8912 72.3333 35
    endloop
  endfacet
  facet normal 0.994138 -0.108118 0
    outer loop
      vertex 63.8912 72.3333 3
      vertex 63.7896 71.3986 35
      vertex 63.7896 71.3986 3
    endloop
  endfacet
  facet normal 0.947653 -0.319302 0
    outer loop
      vertex 63.1682 69.5543 35
      vertex 63.7896 71.3986 3
      vertex 63.7896 71.3986 35
    endloop
  endfacet
  facet normal 0.947653 -0.319302 0
    outer loop
      vertex 63.7896 71.3986 3
      vertex 63.1682 69.5543 35
      vertex 63.1682 69.5543 3
    endloop
  endfacet
  facet normal -0.46841 -0.883511 0
    outer loop
      vertex 49.9493 65.8841 3
      vertex 51.6688 64.9725 35
      vertex 49.9493 65.8841 35
    endloop
  endfacet
  facet normal -0.46841 -0.883511 -0
    outer loop
      vertex 51.6688 64.9725 35
      vertex 49.9493 65.8841 3
      vertex 51.6688 64.9725 3
    endloop
  endfacet
  facet normal -0.796092 -0.605175 0
    outer loop
      vertex 48.466 67.144 3
      vertex 47.2883 68.6933 35
      vertex 47.2883 68.6933 3
    endloop
  endfacet
  facet normal -0.796092 -0.605175 0
    outer loop
      vertex 47.2883 68.6933 35
      vertex 48.466 67.144 3
      vertex 48.466 67.144 35
    endloop
  endfacet
  facet normal -0.647385 -0.762163 0
    outer loop
      vertex 48.466 67.144 3
      vertex 49.9493 65.8841 35
      vertex 48.466 67.144 35
    endloop
  endfacet
  facet normal -0.647385 -0.762163 -0
    outer loop
      vertex 49.9493 65.8841 35
      vertex 48.466 67.144 3
      vertex 49.9493 65.8841 3
    endloop
  endfacet
  facet normal -0.97662 -0.214971 0
    outer loop
      vertex 46.4711 70.4596 3
      vertex 46.0587 72.3333 35
      vertex 46.0587 72.3333 3
    endloop
  endfacet
  facet normal -0.97662 -0.214971 0
    outer loop
      vertex 46.0587 72.3333 35
      vertex 46.4711 70.4596 3
      vertex 46.4711 70.4596 35
    endloop
  endfacet
  facet normal 0.370136 -0.928978 0
    outer loop
      vertex 57.4078 64.6614 3
      vertex 59.2157 65.3817 35
      vertex 57.4078 64.6614 35
    endloop
  endfacet
  facet normal 0.370136 -0.928978 0
    outer loop
      vertex 59.2157 65.3817 35
      vertex 57.4078 64.6614 3
      vertex 59.2157 65.3817 3
    endloop
  endfacet
  facet normal 0.725995 -0.6877 0
    outer loop
      vertex 60.8265 66.4739 35
      vertex 62.1648 67.8868 3
      vertex 62.1648 67.8868 35
    endloop
  endfacet
  facet normal 0.725995 -0.6877 0
    outer loop
      vertex 62.1648 67.8868 3
      vertex 60.8265 66.4739 35
      vertex 60.8265 66.4739 3
    endloop
  endfacet
  facet normal -0.0541388 -0.998533 0
    outer loop
      vertex 53.544 64.4519 3
      vertex 55.4873 64.3465 35
      vertex 53.544 64.4519 35
    endloop
  endfacet
  facet normal -0.0541388 -0.998533 -0
    outer loop
      vertex 55.4873 64.3465 35
      vertex 53.544 64.4519 3
      vertex 55.4873 64.3465 3
    endloop
  endfacet
  facet normal -0.907576 -0.419888 0
    outer loop
      vertex 47.2883 68.6933 3
      vertex 46.4711 70.4596 35
      vertex 46.4711 70.4596 3
    endloop
  endfacet
  facet normal -0.907576 -0.419888 0
    outer loop
      vertex 46.4711 70.4596 35
      vertex 47.2883 68.6933 3
      vertex 47.2883 68.6933 35
    endloop
  endfacet
  facet normal 0.561189 -0.827688 0
    outer loop
      vertex 59.2157 65.3817 3
      vertex 60.8265 66.4739 35
      vertex 59.2157 65.3817 35
    endloop
  endfacet
  facet normal 0.561189 -0.827688 0
    outer loop
      vertex 60.8265 66.4739 35
      vertex 59.2157 65.3817 3
      vertex 60.8265 66.4739 3
    endloop
  endfacet
  facet normal 0.856857 -0.515554 0
    outer loop
      vertex 62.1648 67.8868 35
      vertex 63.1682 69.5543 3
      vertex 63.1682 69.5543 35
    endloop
  endfacet
  facet normal 0.856857 -0.515554 0
    outer loop
      vertex 63.1682 69.5543 3
      vertex 62.1648 67.8868 35
      vertex 62.1648 67.8868 3
    endloop
  endfacet
  facet normal -0.267527 -0.96355 0
    outer loop
      vertex 51.6688 64.9725 3
      vertex 53.544 64.4519 35
      vertex 51.6688 64.9725 35
    endloop
  endfacet
  facet normal -0.267527 -0.96355 -0
    outer loop
      vertex 53.544 64.4519 35
      vertex 51.6688 64.9725 3
      vertex 53.544 64.4519 3
    endloop
  endfacet
  facet normal -0.809019 -0.587783 0
    outer loop
      vertex 61.7476 40.3762 31
      vertex 60.6131 41.9377 35
      vertex 60.6131 41.9377 31
    endloop
  endfacet
  facet normal -0.809019 -0.587783 0
    outer loop
      vertex 60.6131 41.9377 35
      vertex 61.7476 40.3762 31
      vertex 61.7476 40.3762 35
    endloop
  endfacet
  facet normal -0.992115 -0.125333 0
    outer loop
      vertex 62.7 36.6667 31
      vertex 62.4581 38.5816 35
      vertex 62.4581 38.5816 31
    endloop
  endfacet
  facet normal -0.992115 -0.125333 0
    outer loop
      vertex 62.4581 38.5816 35
      vertex 62.7 36.6667 31
      vertex 62.7 36.6667 35
    endloop
  endfacet
  facet normal 0.968583 -0.24869 0
    outer loop
      vertex 47.3607 37.6317 35
      vertex 47.8407 39.5012 31
      vertex 47.8407 39.5012 35
    endloop
  endfacet
  facet normal 0.968583 -0.24869 0
    outer loop
      vertex 47.8407 39.5012 31
      vertex 47.3607 37.6317 35
      vertex 47.3607 37.6317 31
    endloop
  endfacet
  facet normal -0.637424 -0.770514 0
    outer loop
      vertex 59.1259 43.168 31
      vertex 60.6131 41.9377 35
      vertex 59.1259 43.168 35
    endloop
  endfacet
  facet normal -0.637424 -0.770514 -0
    outer loop
      vertex 60.6131 41.9377 35
      vertex 59.1259 43.168 31
      vertex 60.6131 41.9377 31
    endloop
  endfacet
  facet normal 0.309017 -0.951056 0
    outer loop
      vertex 51.7215 43.6338 31
      vertex 53.5572 44.2303 35
      vertex 51.7215 43.6338 35
    endloop
  endfacet
  facet normal 0.309017 -0.951056 0
    outer loop
      vertex 53.5572 44.2303 35
      vertex 51.7215 43.6338 31
      vertex 53.5572 44.2303 31
    endloop
  endfacet
  facet normal 0.876307 -0.481754 0
    outer loop
      vertex 47.8407 39.5012 35
      vertex 48.7706 41.1926 31
      vertex 48.7706 41.1926 35
    endloop
  endfacet
  facet normal 0.876307 -0.481754 0
    outer loop
      vertex 48.7706 41.1926 31
      vertex 47.8407 39.5012 35
      vertex 47.8407 39.5012 31
    endloop
  endfacet
  facet normal -0.42578 0.904827 0
    outer loop
      vertex 59.1259 30.1653 31
      vertex 57.3794 29.3435 35
      vertex 59.1259 30.1653 35
    endloop
  endfacet
  facet normal -0.42578 0.904827 0
    outer loop
      vertex 57.3794 29.3435 35
      vertex 59.1259 30.1653 31
      vertex 57.3794 29.3435 31
    endloop
  endfacet
  facet normal -0.929776 -0.368127 0
    outer loop
      vertex 62.4581 38.5816 31
      vertex 61.7476 40.3762 35
      vertex 61.7476 40.3762 31
    endloop
  endfacet
  facet normal -0.929776 -0.368127 0
    outer loop
      vertex 61.7476 40.3762 35
      vertex 62.4581 38.5816 31
      vertex 62.4581 38.5816 35
    endloop
  endfacet
  facet normal 0.06279 -0.998027 0
    outer loop
      vertex 53.5572 44.2303 31
      vertex 55.4835 44.3515 35
      vertex 53.5572 44.2303 35
    endloop
  endfacet
  facet normal 0.06279 -0.998027 0
    outer loop
      vertex 55.4835 44.3515 35
      vertex 53.5572 44.2303 31
      vertex 55.4835 44.3515 31
    endloop
  endfacet
  facet normal -0.425779 -0.904827 0
    outer loop
      vertex 57.3794 43.9898 31
      vertex 59.1259 43.168 35
      vertex 57.3794 43.9898 35
    endloop
  endfacet
  facet normal -0.425779 -0.904827 -0
    outer loop
      vertex 59.1259 43.168 35
      vertex 57.3794 43.9898 31
      vertex 59.1259 43.168 31
    endloop
  endfacet
  facet normal 1 -0 0
    outer loop
      vertex 47.3607 35.7016 35
      vertex 47.3607 37.6317 31
      vertex 47.3607 37.6317 35
    endloop
  endfacet
  facet normal 1 0 0
    outer loop
      vertex 47.3607 37.6317 31
      vertex 47.3607 35.7016 35
      vertex 47.3607 35.7016 31
    endloop
  endfacet
  facet normal 0.535827 -0.844328 0
    outer loop
      vertex 50.0918 42.5996 31
      vertex 51.7215 43.6338 35
      vertex 50.0918 42.5996 35
    endloop
  endfacet
  facet normal 0.535827 -0.844328 0
    outer loop
      vertex 51.7215 43.6338 35
      vertex 50.0918 42.5996 31
      vertex 51.7215 43.6338 31
    endloop
  endfacet
  facet normal 0.728969 -0.684547 0
    outer loop
      vertex 48.7706 41.1926 35
      vertex 50.0918 42.5996 31
      vertex 50.0918 42.5996 35
    endloop
  endfacet
  facet normal 0.728969 -0.684547 0
    outer loop
      vertex 50.0918 42.5996 31
      vertex 48.7706 41.1926 35
      vertex 48.7706 41.1926 31
    endloop
  endfacet
  facet normal 0.535827 0.844328 -0
    outer loop
      vertex 51.7215 29.6995 31
      vertex 50.0918 30.7337 35
      vertex 51.7215 29.6995 35
    endloop
  endfacet
  facet normal 0.535827 0.844328 0
    outer loop
      vertex 50.0918 30.7337 35
      vertex 51.7215 29.6995 31
      vertex 50.0918 30.7337 31
    endloop
  endfacet
  facet normal 0.728969 0.684547 0
    outer loop
      vertex 50.0918 30.7337 35
      vertex 48.7706 32.1407 31
      vertex 48.7706 32.1407 35
    endloop
  endfacet
  facet normal 0.728969 0.684547 0
    outer loop
      vertex 48.7706 32.1407 31
      vertex 50.0918 30.7337 35
      vertex 50.0918 30.7337 31
    endloop
  endfacet
  facet normal -0.809018 0.587784 0
    outer loop
      vertex 60.6131 31.3957 31
      vertex 61.7476 32.9572 35
      vertex 61.7476 32.9572 31
    endloop
  endfacet
  facet normal -0.809018 0.587784 0
    outer loop
      vertex 61.7476 32.9572 35
      vertex 60.6131 31.3957 31
      vertex 60.6131 31.3957 35
    endloop
  endfacet
  facet normal -0.187381 -0.982287 0
    outer loop
      vertex 55.4835 44.3515 31
      vertex 57.3794 43.9898 35
      vertex 55.4835 44.3515 35
    endloop
  endfacet
  facet normal -0.187381 -0.982287 -0
    outer loop
      vertex 57.3794 43.9898 35
      vertex 55.4835 44.3515 31
      vertex 57.3794 43.9898 31
    endloop
  endfacet
  facet normal -0.992115 0.125333 0
    outer loop
      vertex 62.4581 34.7518 31
      vertex 62.7 36.6667 35
      vertex 62.7 36.6667 31
    endloop
  endfacet
  facet normal -0.992115 0.125333 0
    outer loop
      vertex 62.7 36.6667 35
      vertex 62.4581 34.7518 31
      vertex 62.4581 34.7518 35
    endloop
  endfacet
  facet normal 0.968583 0.24869 0
    outer loop
      vertex 47.8407 33.8321 35
      vertex 47.3607 35.7016 31
      vertex 47.3607 35.7016 35
    endloop
  endfacet
  facet normal 0.968583 0.24869 0
    outer loop
      vertex 47.3607 35.7016 31
      vertex 47.8407 33.8321 35
      vertex 47.8407 33.8321 31
    endloop
  endfacet
  facet normal -0.637424 0.770514 0
    outer loop
      vertex 60.6131 31.3957 31
      vertex 59.1259 30.1653 35
      vertex 60.6131 31.3957 35
    endloop
  endfacet
  facet normal -0.637424 0.770514 0
    outer loop
      vertex 59.1259 30.1653 35
      vertex 60.6131 31.3957 31
      vertex 59.1259 30.1653 31
    endloop
  endfacet
  facet normal -0.929776 0.368126 0
    outer loop
      vertex 61.7476 32.9572 31
      vertex 62.4581 34.7518 35
      vertex 62.4581 34.7518 31
    endloop
  endfacet
  facet normal -0.929776 0.368126 0
    outer loop
      vertex 62.4581 34.7518 35
      vertex 61.7476 32.9572 31
      vertex 61.7476 32.9572 35
    endloop
  endfacet
  facet normal -0.187381 0.982287 0
    outer loop
      vertex 57.3794 29.3435 31
      vertex 55.4835 28.9819 35
      vertex 57.3794 29.3435 35
    endloop
  endfacet
  facet normal -0.187381 0.982287 0
    outer loop
      vertex 55.4835 28.9819 35
      vertex 57.3794 29.3435 31
      vertex 55.4835 28.9819 31
    endloop
  endfacet
  facet normal 0.06279 0.998027 -0
    outer loop
      vertex 55.4835 28.9819 31
      vertex 53.5572 29.1031 35
      vertex 55.4835 28.9819 35
    endloop
  endfacet
  facet normal 0.06279 0.998027 0
    outer loop
      vertex 53.5572 29.1031 35
      vertex 55.4835 28.9819 31
      vertex 53.5572 29.1031 31
    endloop
  endfacet
  facet normal 0 0 1
    outer loop
      vertex 62.4581 38.5816 31
      vertex 62.4581 34.7518 31
      vertex 62.7 36.6667 31
    endloop
  endfacet
  facet normal 0 0 1
    outer loop
      vertex 61.7476 40.3762 31
      vertex 62.4581 34.7518 31
      vertex 62.4581 38.5816 31
    endloop
  endfacet
  facet normal 0 0 1
    outer loop
      vertex 61.7476 40.3762 31
      vertex 61.7476 32.9572 31
      vertex 62.4581 34.7518 31
    endloop
  endfacet
  facet normal 0 0 1
    outer loop
      vertex 60.6131 41.9377 31
      vertex 61.7476 32.9572 31
      vertex 61.7476 40.3762 31
    endloop
  endfacet
  facet normal 0 0 1
    outer loop
      vertex 60.6131 41.9377 31
      vertex 60.6131 31.3957 31
      vertex 61.7476 32.9572 31
    endloop
  endfacet
  facet normal 0 0 1
    outer loop
      vertex 59.1259 43.168 31
      vertex 60.6131 31.3957 31
      vertex 60.6131 41.9377 31
    endloop
  endfacet
  facet normal 0 0 1
    outer loop
      vertex 59.1259 43.168 31
      vertex 59.1259 30.1653 31
      vertex 60.6131 31.3957 31
    endloop
  endfacet
  facet normal 0 0 1
    outer loop
      vertex 57.3794 43.9898 31
      vertex 59.1259 30.1653 31
      vertex 59.1259 43.168 31
    endloop
  endfacet
  facet normal 0 0 1
    outer loop
      vertex 57.3794 43.9898 31
      vertex 57.3794 29.3435 31
      vertex 59.1259 30.1653 31
    endloop
  endfacet
  facet normal 0 0 1
    outer loop
      vertex 55.4835 44.3515 31
      vertex 57.3794 29.3435 31
      vertex 57.3794 43.9898 31
    endloop
  endfacet
  facet normal 0 0 1
    outer loop
      vertex 55.4835 44.3515 31
      vertex 55.4835 28.9819 31
      vertex 57.3794 29.3435 31
    endloop
  endfacet
  facet normal -0 0 1
    outer loop
      vertex 53.5572 44.2303 31
      vertex 55.4835 28.9819 31
      vertex 55.4835 44.3515 31
    endloop
  endfacet
  facet normal 0 0 1
    outer loop
      vertex 53.5572 44.2303 31
      vertex 53.5572 29.1031 31
      vertex 55.4835 28.9819 31
    endloop
  endfacet
  facet normal -0 0 1
    outer loop
      vertex 51.7215 43.6338 31
      vertex 53.5572 29.1031 31
      vertex 53.5572 44.2303 31
    endloop
  endfacet
  facet normal 0 0 1
    outer loop
      vertex 51.7215 43.6338 31
      vertex 51.7215 29.6995 31
      vertex 53.5572 29.1031 31
    endloop
  endfacet
  facet normal -0 0 1
    outer loop
      vertex 50.0918 42.5996 31
      vertex 51.7215 29.6995 31
      vertex 51.7215 43.6338 31
    endloop
  endfacet
  facet normal 0 0 1
    outer loop
      vertex 50.0918 42.5996 31
      vertex 50.0918 30.7337 31
      vertex 51.7215 29.6995 31
    endloop
  endfacet
  facet normal -0 0 1
    outer loop
      vertex 48.7706 41.1926 31
      vertex 50.0918 30.7337 31
      vertex 50.0918 42.5996 31
    endloop
  endfacet
  facet normal 0 0 1
    outer loop
      vertex 48.7706 41.1926 31
      vertex 48.7706 32.1407 31
      vertex 50.0918 30.7337 31
    endloop
  endfacet
  facet normal -0 0 1
    outer loop
      vertex 47.8407 39.5012 31
      vertex 48.7706 32.1407 31
      vertex 48.7706 41.1926 31
    endloop
  endfacet
  facet normal 0 0 1
    outer loop
      vertex 47.8407 39.5012 31
      vertex 47.8407 33.8321 31
      vertex 48.7706 32.1407 31
    endloop
  endfacet
  facet normal -0 0 1
    outer loop
      vertex 47.3607 37.6317 31
      vertex 47.8407 33.8321 31
      vertex 47.8407 39.5012 31
    endloop
  endfacet
  facet normal 0 0 1
    outer loop
      vertex 47.8407 33.8321 31
      vertex 47.3607 37.6317 31
      vertex 47.3607 35.7016 31
    endloop
  endfacet
  facet normal 0.876307 0.481754 0
    outer loop
      vertex 48.7706 32.1407 35
      vertex 47.8407 33.8321 31
      vertex 47.8407 33.8321 35
    endloop
  endfacet
  facet normal 0.876307 0.481754 0
    outer loop
      vertex 47.8407 33.8321 31
      vertex 48.7706 32.1407 35
      vertex 48.7706 32.1407 31
    endloop
  endfacet
  facet normal 0.309017 0.951056 -0
    outer loop
      vertex 53.5572 29.1031 31
      vertex 51.7215 29.6995 35
      vertex 53.5572 29.1031 35
    endloop
  endfacet
  facet normal 0.309017 0.951056 0
    outer loop
      vertex 51.7215 29.6995 35
      vertex 53.5572 29.1031 31
      vertex 51.7215 29.6995 31
    endloop
  endfacet
  facet normal -0.809018 -0.587784 0
    outer loop
      vertex 61.7476 77.0428 31
      vertex 60.6131 78.6043 35
      vertex 60.6131 78.6043 31
    endloop
  endfacet
  facet normal -0.809018 -0.587784 0
    outer loop
      vertex 60.6131 78.6043 35
      vertex 61.7476 77.0428 31
      vertex 61.7476 77.0428 35
    endloop
  endfacet
  facet normal -0.992115 -0.125333 0
    outer loop
      vertex 62.7 73.3333 31
      vertex 62.4581 75.2482 35
      vertex 62.4581 75.2482 31
    endloop
  endfacet
  facet normal -0.992115 -0.125333 0
    outer loop
      vertex 62.4581 75.2482 35
      vertex 62.7 73.3333 31
      vertex 62.7 73.3333 35
    endloop
  endfacet
  facet normal 1 -0 0
    outer loop
      vertex 47.3607 72.3683 35
      vertex 47.3607 74.2984 31
      vertex 47.3607 74.2984 35
    endloop
  endfacet
  facet normal 1 0 0
    outer loop
      vertex 47.3607 74.2984 31
      vertex 47.3607 72.3683 35
      vertex 47.3607 72.3683 31
    endloop
  endfacet
  facet normal 0.968583 0.248689 0
    outer loop
      vertex 47.8407 70.4988 35
      vertex 47.3607 72.3683 31
      vertex 47.3607 72.3683 35
    endloop
  endfacet
  facet normal 0.968583 0.248689 0
    outer loop
      vertex 47.3607 72.3683 31
      vertex 47.8407 70.4988 35
      vertex 47.8407 70.4988 31
    endloop
  endfacet
  facet normal -0.637422 -0.770515 0
    outer loop
      vertex 59.1259 79.8347 31
      vertex 60.6131 78.6043 35
      vertex 59.1259 79.8347 35
    endloop
  endfacet
  facet normal -0.637422 -0.770515 -0
    outer loop
      vertex 60.6131 78.6043 35
      vertex 59.1259 79.8347 31
      vertex 60.6131 78.6043 31
    endloop
  endfacet
  facet normal -0.187381 -0.982287 0
    outer loop
      vertex 55.4835 81.0181 31
      vertex 57.3794 80.6565 35
      vertex 55.4835 81.0181 35
    endloop
  endfacet
  facet normal -0.187381 -0.982287 -0
    outer loop
      vertex 57.3794 80.6565 35
      vertex 55.4835 81.0181 31
      vertex 57.3794 80.6565 31
    endloop
  endfacet
  facet normal -0.425782 -0.904826 0
    outer loop
      vertex 57.3794 80.6565 31
      vertex 59.1259 79.8347 35
      vertex 57.3794 80.6565 35
    endloop
  endfacet
  facet normal -0.425782 -0.904826 -0
    outer loop
      vertex 59.1259 79.8347 35
      vertex 57.3794 80.6565 31
      vertex 59.1259 79.8347 31
    endloop
  endfacet
  facet normal 0.535827 -0.844328 0
    outer loop
      vertex 50.0918 79.2663 31
      vertex 51.7215 80.3005 35
      vertex 50.0918 79.2663 35
    endloop
  endfacet
  facet normal 0.535827 -0.844328 0
    outer loop
      vertex 51.7215 80.3005 35
      vertex 50.0918 79.2663 31
      vertex 51.7215 80.3005 31
    endloop
  endfacet
  facet normal 0.968583 -0.24869 0
    outer loop
      vertex 47.3607 74.2984 35
      vertex 47.8407 76.1679 31
      vertex 47.8407 76.1679 35
    endloop
  endfacet
  facet normal 0.968583 -0.24869 0
    outer loop
      vertex 47.8407 76.1679 31
      vertex 47.3607 74.2984 35
      vertex 47.3607 74.2984 31
    endloop
  endfacet
  facet normal 0.728967 -0.684549 0
    outer loop
      vertex 48.7706 77.8593 35
      vertex 50.0918 79.2663 31
      vertex 50.0918 79.2663 35
    endloop
  endfacet
  facet normal 0.728967 -0.684549 0
    outer loop
      vertex 50.0918 79.2663 31
      vertex 48.7706 77.8593 35
      vertex 48.7706 77.8593 31
    endloop
  endfacet
  facet normal -0.425779 0.904827 0
    outer loop
      vertex 59.1259 66.832 31
      vertex 57.3794 66.0102 35
      vertex 59.1259 66.832 35
    endloop
  endfacet
  facet normal -0.425779 0.904827 0
    outer loop
      vertex 57.3794 66.0102 35
      vertex 59.1259 66.832 31
      vertex 57.3794 66.0102 31
    endloop
  endfacet
  facet normal 0.0627939 -0.998027 0
    outer loop
      vertex 53.5572 80.8969 31
      vertex 55.4835 81.0181 35
      vertex 53.5572 80.8969 35
    endloop
  endfacet
  facet normal 0.0627939 -0.998027 0
    outer loop
      vertex 55.4835 81.0181 35
      vertex 53.5572 80.8969 31
      vertex 55.4835 81.0181 31
    endloop
  endfacet
  facet normal 0.876307 -0.481753 0
    outer loop
      vertex 47.8407 76.1679 35
      vertex 48.7706 77.8593 31
      vertex 48.7706 77.8593 35
    endloop
  endfacet
  facet normal 0.876307 -0.481753 0
    outer loop
      vertex 48.7706 77.8593 31
      vertex 47.8407 76.1679 35
      vertex 47.8407 76.1679 31
    endloop
  endfacet
  facet normal 0.309017 -0.951056 0
    outer loop
      vertex 51.7215 80.3005 31
      vertex 53.5572 80.8969 35
      vertex 51.7215 80.3005 35
    endloop
  endfacet
  facet normal 0.309017 -0.951056 0
    outer loop
      vertex 53.5572 80.8969 35
      vertex 51.7215 80.3005 31
      vertex 53.5572 80.8969 31
    endloop
  endfacet
  facet normal -0.809019 0.587782 0
    outer loop
      vertex 60.6131 68.0623 31
      vertex 61.7476 69.6238 35
      vertex 61.7476 69.6238 31
    endloop
  endfacet
  facet normal -0.809019 0.587782 0
    outer loop
      vertex 61.7476 69.6238 35
      vertex 60.6131 68.0623 31
      vertex 60.6131 68.0623 35
    endloop
  endfacet
  facet normal -0.929776 -0.368126 0
    outer loop
      vertex 62.4581 75.2482 31
      vertex 61.7476 77.0428 35
      vertex 61.7476 77.0428 31
    endloop
  endfacet
  facet normal -0.929776 -0.368126 0
    outer loop
      vertex 61.7476 77.0428 35
      vertex 62.4581 75.2482 31
      vertex 62.4581 75.2482 35
    endloop
  endfacet
  facet normal -0.992115 0.125333 0
    outer loop
      vertex 62.4581 71.4184 31
      vertex 62.7 73.3333 35
      vertex 62.7 73.3333 31
    endloop
  endfacet
  facet normal -0.992115 0.125333 0
    outer loop
      vertex 62.7 73.3333 35
      vertex 62.4581 71.4184 31
      vertex 62.4581 71.4184 35
    endloop
  endfacet
  facet normal -0.187381 0.982287 0
    outer loop
      vertex 57.3794 66.0102 31
      vertex 55.4835 65.6485 35
      vertex 57.3794 66.0102 35
    endloop
  endfacet
  facet normal -0.187381 0.982287 0
    outer loop
      vertex 55.4835 65.6485 35
      vertex 57.3794 66.0102 31
      vertex 55.4835 65.6485 31
    endloop
  endfacet
  facet normal -0.637422 0.770515 0
    outer loop
      vertex 60.6131 68.0623 31
      vertex 59.1259 66.832 35
      vertex 60.6131 68.0623 35
    endloop
  endfacet
  facet normal -0.637422 0.770515 0
    outer loop
      vertex 59.1259 66.832 35
      vertex 60.6131 68.0623 31
      vertex 59.1259 66.832 31
    endloop
  endfacet
  facet normal -0.929775 0.368127 0
    outer loop
      vertex 61.7476 69.6238 31
      vertex 62.4581 71.4184 35
      vertex 62.4581 71.4184 31
    endloop
  endfacet
  facet normal -0.929775 0.368127 0
    outer loop
      vertex 62.4581 71.4184 35
      vertex 61.7476 69.6238 31
      vertex 61.7476 69.6238 35
    endloop
  endfacet
  facet normal 0.309017 0.951056 -0
    outer loop
      vertex 53.5572 65.7697 31
      vertex 51.7215 66.3662 35
      vertex 53.5572 65.7697 35
    endloop
  endfacet
  facet normal 0.309017 0.951056 0
    outer loop
      vertex 51.7215 66.3662 35
      vertex 53.5572 65.7697 31
      vertex 51.7215 66.3662 31
    endloop
  endfacet
  facet normal 0.728969 0.684547 0
    outer loop
      vertex 50.0918 67.4004 35
      vertex 48.7706 68.8074 31
      vertex 48.7706 68.8074 35
    endloop
  endfacet
  facet normal 0.728969 0.684547 0
    outer loop
      vertex 48.7706 68.8074 31
      vertex 50.0918 67.4004 35
      vertex 50.0918 67.4004 31
    endloop
  endfacet
  facet normal 0 0 1
    outer loop
      vertex 62.4581 75.2482 31
      vertex 62.4581 71.4184 31
      vertex 62.7 73.3333 31
    endloop
  endfacet
  facet normal 0 0 1
    outer loop
      vertex 61.7476 77.0428 31
      vertex 62.4581 71.4184 31
      vertex 62.4581 75.2482 31
    endloop
  endfacet
  facet normal 0 0 1
    outer loop
      vertex 61.7476 77.0428 31
      vertex 61.7476 69.6238 31
      vertex 62.4581 71.4184 31
    endloop
  endfacet
  facet normal 0 0 1
    outer loop
      vertex 60.6131 78.6043 31
      vertex 61.7476 69.6238 31
      vertex 61.7476 77.0428 31
    endloop
  endfacet
  facet normal 0 0 1
    outer loop
      vertex 60.6131 78.6043 31
      vertex 60.6131 68.0623 31
      vertex 61.7476 69.6238 31
    endloop
  endfacet
  facet normal 0 0 1
    outer loop
      vertex 59.1259 79.8347 31
      vertex 60.6131 68.0623 31
      vertex 60.6131 78.6043 31
    endloop
  endfacet
  facet normal 0 0 1
    outer loop
      vertex 59.1259 79.8347 31
      vertex 59.1259 66.832 31
      vertex 60.6131 68.0623 31
    endloop
  endfacet
  facet normal 0 0 1
    outer loop
      vertex 57.3794 80.6565 31
      vertex 59.1259 66.832 31
      vertex 59.1259 79.8347 31
    endloop
  endfacet
  facet normal 0 0 1
    outer loop
      vertex 57.3794 80.6565 31
      vertex 57.3794 66.0102 31
      vertex 59.1259 66.832 31
    endloop
  endfacet
  facet normal 0 0 1
    outer loop
      vertex 55.4835 81.0181 31
      vertex 57.3794 66.0102 31
      vertex 57.3794 80.6565 31
    endloop
  endfacet
  facet normal 0 0 1
    outer loop
      vertex 55.4835 81.0181 31
      vertex 55.4835 65.6485 31
      vertex 57.3794 66.0102 31
    endloop
  endfacet
  facet normal -0 0 1
    outer loop
      vertex 53.5572 80.8969 31
      vertex 55.4835 65.6485 31
      vertex 55.4835 81.0181 31
    endloop
  endfacet
  facet normal 0 0 1
    outer loop
      vertex 53.5572 80.8969 31
      vertex 53.5572 65.7697 31
      vertex 55.4835 65.6485 31
    endloop
  endfacet
  facet normal -0 0 1
    outer loop
      vertex 51.7215 80.3005 31
      vertex 53.5572 65.7697 31
      vertex 53.5572 80.8969 31
    endloop
  endfacet
  facet normal 0 0 1
    outer loop
      vertex 51.7215 80.3005 31
      vertex 51.7215 66.3662 31
      vertex 53.5572 65.7697 31
    endloop
  endfacet
  facet normal -0 0 1
    outer loop
      vertex 50.0918 79.2663 31
      vertex 51.7215 66.3662 31
      vertex 51.7215 80.3005 31
    endloop
  endfacet
  facet normal 0 0 1
    outer loop
      vertex 50.0918 79.2663 31
      vertex 50.0918 67.4004 31
      vertex 51.7215 66.3662 31
    endloop
  endfacet
  facet normal -0 0 1
    outer loop
      vertex 48.7706 77.8593 31
      vertex 50.0918 67.4004 31
      vertex 50.0918 79.2663 31
    endloop
  endfacet
  facet normal 0 0 1
    outer loop
      vertex 48.7706 77.8593 31
      vertex 48.7706 68.8074 31
      vertex 50.0918 67.4004 31
    endloop
  endfacet
  facet normal -0 0 1
    outer loop
      vertex 47.8407 76.1679 31
      vertex 48.7706 68.8074 31
      vertex 48.7706 77.8593 31
    endloop
  endfacet
  facet normal 0 0 1
    outer loop
      vertex 47.8407 76.1679 31
      vertex 47.8407 70.4988 31
      vertex 48.7706 68.8074 31
    endloop
  endfacet
  facet normal -0 0 1
    outer loop
      vertex 47.3607 74.2984 31
      vertex 47.8407 70.4988 31
      vertex 47.8407 76.1679 31
    endloop
  endfacet
  facet normal 0 0 1
    outer loop
      vertex 47.8407 70.4988 31
      vertex 47.3607 74.2984 31
      vertex 47.3607 72.3683 31
    endloop
  endfacet
  facet normal 0.876306 0.481754 0
    outer loop
      vertex 48.7706 68.8074 35
      vertex 47.8407 70.4988 31
      vertex 47.8407 70.4988 35
    endloop
  endfacet
  facet normal 0.876306 0.481754 0
    outer loop
      vertex 47.8407 70.4988 31
      vertex 48.7706 68.8074 35
      vertex 48.7706 68.8074 31
    endloop
  endfacet
  facet normal 0.535827 0.844328 -0
    outer loop
      vertex 51.7215 66.3662 31
      vertex 50.0918 67.4004 35
      vertex 51.7215 66.3662 35
    endloop
  endfacet
  facet normal 0.535827 0.844328 0
    outer loop
      vertex 50.0918 67.4004 35
      vertex 51.7215 66.3662 31
      vertex 50.0918 67.4004 31
    endloop
  endfacet
  facet normal 0.06279 0.998027 -0
    outer loop
      vertex 55.4835 65.6485 31
      vertex 53.5572 65.7697 35
      vertex 55.4835 65.6485 35
    endloop
  endfacet
  facet normal 0.06279 0.998027 0
    outer loop
      vertex 53.5572 65.7697 35
      vertex 55.4835 65.6485 31
      vertex 53.5572 65.7697 31
    endloop
  endfacet
endsolid OpenSCAD_Model
