solid OpenSCAD_Model
  facet normal -1 0 0
    outer loop
      vertex 0 0 0
      vertex 0 37 8
      vertex 0 37 0
    endloop
  endfacet
  facet normal -1 -0 0
    outer loop
      vertex 0 37 8
      vertex 0 0 0
      vertex 0 0 8
    endloop
  endfacet
  facet normal -1 0 0
    outer loop
      vertex 0 62 0
      vertex 0 99 8
      vertex 0 99 0
    endloop
  endfacet
  facet normal -1 -0 0
    outer loop
      vertex 0 99 8
      vertex 0 62 0
      vertex 0 62 8
    endloop
  endfacet
  facet normal 0 0 1
    outer loop
      vertex 2 37 8
      vertex 0 37 8
      vertex 2 2 8
    endloop
  endfacet
  facet normal -0 0 1
    outer loop
      vertex 2 2 8
      vertex 27 0 8
      vertex 27 2 8
    endloop
  endfacet
  facet normal 0 0 1
    outer loop
      vertex 2 2 8
      vertex 0 0 8
      vertex 27 0 8
    endloop
  endfacet
  facet normal 0 0 1
    outer loop
      vertex 0 0 8
      vertex 2 2 8
      vertex 0 37 8
    endloop
  endfacet
  facet normal 0 0 1
    outer loop
      vertex 77 2 8
      vertex 79 37 8
      vertex 77 37 8
    endloop
  endfacet
  facet normal 0 0 1
    outer loop
      vertex 79 37 8
      vertex 77 2 8
      vertex 79 0 8
    endloop
  endfacet
  facet normal 0 0 1
    outer loop
      vertex 52 0 8
      vertex 77 2 8
      vertex 52 2 8
    endloop
  endfacet
  facet normal 0 0 1
    outer loop
      vertex 77 2 8
      vertex 52 0 8
      vertex 79 0 8
    endloop
  endfacet
  facet normal 0 0 1
    outer loop
      vertex 79 99 8
      vertex 77 97 8
      vertex 79 62 8
    endloop
  endfacet
  facet normal -0 0 1
    outer loop
      vertex 52 99 8
      vertex 77 97 8
      vertex 79 99 8
    endloop
  endfacet
  facet normal 0 0 1
    outer loop
      vertex 77 97 8
      vertex 52 99 8
      vertex 52 97 8
    endloop
  endfacet
  facet normal 0 0 1
    outer loop
      vertex 79 62 8
      vertex 77 97 8
      vertex 77 62 8
    endloop
  endfacet
  facet normal 0 0 1
    outer loop
      vertex 27 99 8
      vertex 2 97 8
      vertex 27 97 8
    endloop
  endfacet
  facet normal -0 0 1
    outer loop
      vertex 0 99 8
      vertex 2 97 8
      vertex 27 99 8
    endloop
  endfacet
  facet normal 0 0 1
    outer loop
      vertex 0 62 8
      vertex 2 97 8
      vertex 0 99 8
    endloop
  endfacet
  facet normal 0 0 1
    outer loop
      vertex 2 97 8
      vertex 0 62 8
      vertex 2 62 8
    endloop
  endfacet
  facet normal 1 -0 0
    outer loop
      vertex 79 0 8
      vertex 79 37 0
      vertex 79 37 8
    endloop
  endfacet
  facet normal 1 0 0
    outer loop
      vertex 79 37 0
      vertex 79 0 8
      vertex 79 0 0
    endloop
  endfacet
  facet normal 1 -0 0
    outer loop
      vertex 79 62 8
      vertex 79 99 0
      vertex 79 99 8
    endloop
  endfacet
  facet normal 1 0 0
    outer loop
      vertex 79 99 0
      vertex 79 62 8
      vertex 79 62 0
    endloop
  endfacet
  facet normal 0 0 -1
    outer loop
      vertex 79 0 0
      vertex 77 37 0
      vertex 79 37 0
    endloop
  endfacet
  facet normal 0 0 -1
    outer loop
      vertex 79 0 0
      vertex 52 2 0
      vertex 77 37 0
    endloop
  endfacet
  facet normal 0 0 -1
    outer loop
      vertex 52 2 0
      vertex 79 0 0
      vertex 52 0 0
    endloop
  endfacet
  facet normal 0 0 -1
    outer loop
      vertex 77 62 0
      vertex 79 99 0
      vertex 79 62 0
    endloop
  endfacet
  facet normal 0 0 -1
    outer loop
      vertex 2 37 0
      vertex 77 37 0
      vertex 52 2 0
    endloop
  endfacet
  facet normal 0 0 -1
    outer loop
      vertex 2 37 0
      vertex 52 2 0
      vertex 27 2 0
    endloop
  endfacet
  facet normal 0 0 -1
    outer loop
      vertex 77 62 0
      vertex 52 97 0
      vertex 79 99 0
    endloop
  endfacet
  facet normal -0 0 -1
    outer loop
      vertex 79 99 0
      vertex 52 97 0
      vertex 52 99 0
    endloop
  endfacet
  facet normal 0 0 -1
    outer loop
      vertex 0 0 0
      vertex 27 2 0
      vertex 27 0 0
    endloop
  endfacet
  facet normal 0 0 -1
    outer loop
      vertex 2 62 0
      vertex 77 62 0
      vertex 2 37 0
    endloop
  endfacet
  facet normal 0 0 -1
    outer loop
      vertex 77 62 0
      vertex 2 62 0
      vertex 27 97 0
    endloop
  endfacet
  facet normal -0 0 -1
    outer loop
      vertex 27 2 0
      vertex 0 0 0
      vertex 2 37 0
    endloop
  endfacet
  facet normal -0 0 -1
    outer loop
      vertex 2 37 0
      vertex 0 0 0
      vertex 0 37 0
    endloop
  endfacet
  facet normal 0 0 -1
    outer loop
      vertex 77 37 0
      vertex 2 37 0
      vertex 77 62 0
    endloop
  endfacet
  facet normal 0 0 -1
    outer loop
      vertex 77 62 0
      vertex 27 97 0
      vertex 52 97 0
    endloop
  endfacet
  facet normal 0 0 -1
    outer loop
      vertex 0 99 0
      vertex 27 97 0
      vertex 2 62 0
    endloop
  endfacet
  facet normal 0 0 -1
    outer loop
      vertex 0 99 0
      vertex 2 62 0
      vertex 0 62 0
    endloop
  endfacet
  facet normal 0 0 -1
    outer loop
      vertex 27 97 0
      vertex 0 99 0
      vertex 27 99 0
    endloop
  endfacet
  facet normal 0 -1 0
    outer loop
      vertex 0 0 0
      vertex 27 0 8
      vertex 0 0 8
    endloop
  endfacet
  facet normal 0 -1 -0
    outer loop
      vertex 27 0 8
      vertex 0 0 0
      vertex 27 0 0
    endloop
  endfacet
  facet normal 0 -1 0
    outer loop
      vertex 52 0 0
      vertex 79 0 8
      vertex 52 0 8
    endloop
  endfacet
  facet normal 0 -1 -0
    outer loop
      vertex 79 0 8
      vertex 52 0 0
      vertex 79 0 0
    endloop
  endfacet
  facet normal 0 1 -0
    outer loop
      vertex 79 99 0
      vertex 52 99 8
      vertex 79 99 8
    endloop
  endfacet
  facet normal 0 1 0
    outer loop
      vertex 52 99 8
      vertex 79 99 0
      vertex 52 99 0
    endloop
  endfacet
  facet normal 0 1 -0
    outer loop
      vertex 27 99 0
      vertex 0 99 8
      vertex 27 99 8
    endloop
  endfacet
  facet normal 0 1 0
    outer loop
      vertex 0 99 8
      vertex 27 99 0
      vertex 0 99 0
    endloop
  endfacet
  facet normal 1 -0 0
    outer loop
      vertex 2 2 8
      vertex 2 37 3
      vertex 2 37 8
    endloop
  endfacet
  facet normal 1 0 0
    outer loop
      vertex 2 37 3
      vertex 2 2 8
      vertex 2 2 3
    endloop
  endfacet
  facet normal 1 -0 0
    outer loop
      vertex 2 62 8
      vertex 2 97 3
      vertex 2 97 8
    endloop
  endfacet
  facet normal 1 0 0
    outer loop
      vertex 2 97 3
      vertex 2 62 8
      vertex 2 62 3
    endloop
  endfacet
  facet normal -1 0 0
    outer loop
      vertex 2 37 0
      vertex 2 62 3
      vertex 2 62 0
    endloop
  endfacet
  facet normal -1 -0 0
    outer loop
      vertex 2 62 3
      vertex 2 37 0
      vertex 2 37 3
    endloop
  endfacet
  facet normal -1 0 0
    outer loop
      vertex 77 2 3
      vertex 77 37 8
      vertex 77 37 3
    endloop
  endfacet
  facet normal -1 -0 0
    outer loop
      vertex 77 37 8
      vertex 77 2 3
      vertex 77 2 8
    endloop
  endfacet
  facet normal -1 0 0
    outer loop
      vertex 77 62 3
      vertex 77 97 8
      vertex 77 97 3
    endloop
  endfacet
  facet normal -1 -0 0
    outer loop
      vertex 77 97 8
      vertex 77 62 3
      vertex 77 62 8
    endloop
  endfacet
  facet normal 1 -0 0
    outer loop
      vertex 77 37 3
      vertex 77 62 0
      vertex 77 62 3
    endloop
  endfacet
  facet normal 1 0 0
    outer loop
      vertex 77 62 0
      vertex 77 37 3
      vertex 77 37 0
    endloop
  endfacet
  facet normal -0 0 1
    outer loop
      vertex 52 97 3
      vertex 77 62 3
      vertex 77 97 3
    endloop
  endfacet
  facet normal 0 -0 1
    outer loop
      vertex 47.3889 51.4444 3
      vertex 77 62 3
      vertex 46.6943 53.2759 3
    endloop
  endfacet
  facet normal 0 0 1
    outer loop
      vertex 44.1155 56.1867 3
      vertex 77 62 3
      vertex 52 97 3
    endloop
  endfacet
  facet normal 0 0 1
    outer loop
      vertex 77 62 3
      vertex 47.625 49.5 3
      vertex 77 37 3
    endloop
  endfacet
  facet normal -0 0 1
    outer loop
      vertex 46.6943 45.7241 3
      vertex 77 37 3
      vertex 47.3889 47.5556 3
    endloop
  endfacet
  facet normal -0 0 1
    outer loop
      vertex 47.3889 47.5556 3
      vertex 77 37 3
      vertex 47.625 49.5 3
    endloop
  endfacet
  facet normal 0 -0 1
    outer loop
      vertex 47.625 49.5 3
      vertex 77 62 3
      vertex 47.3889 51.4444 3
    endloop
  endfacet
  facet normal 0 0 1
    outer loop
      vertex 77 62 3
      vertex 45.5816 54.8879 3
      vertex 46.6943 53.2759 3
    endloop
  endfacet
  facet normal 0 0 1
    outer loop
      vertex 77 62 3
      vertex 44.1155 56.1867 3
      vertex 45.5816 54.8879 3
    endloop
  endfacet
  facet normal 0 0 1
    outer loop
      vertex 52 97 3
      vertex 42.3812 57.097 3
      vertex 44.1155 56.1867 3
    endloop
  endfacet
  facet normal 0 0 1
    outer loop
      vertex 52 97 3
      vertex 40.4794 57.5658 3
      vertex 42.3812 57.097 3
    endloop
  endfacet
  facet normal 0 0 1
    outer loop
      vertex 52 97 3
      vertex 38.5206 57.5658 3
      vertex 40.4794 57.5658 3
    endloop
  endfacet
  facet normal -0 0 1
    outer loop
      vertex 27 97 3
      vertex 38.5206 57.5658 3
      vertex 52 97 3
    endloop
  endfacet
  facet normal 0 0 1
    outer loop
      vertex 38.5206 57.5658 3
      vertex 27 97 3
      vertex 36.6188 57.097 3
    endloop
  endfacet
  facet normal 0 0 1
    outer loop
      vertex 36.6188 57.097 3
      vertex 27 97 3
      vertex 34.8845 56.1867 3
    endloop
  endfacet
  facet normal -0 0 1
    outer loop
      vertex 2 62 3
      vertex 34.8845 56.1867 3
      vertex 27 97 3
    endloop
  endfacet
  facet normal 0 0 1
    outer loop
      vertex 32.3057 53.2759 3
      vertex 2 62 3
      vertex 31.6111 51.4444 3
    endloop
  endfacet
  facet normal 0 0 1
    outer loop
      vertex 33.4184 54.8879 3
      vertex 2 62 3
      vertex 32.3057 53.2759 3
    endloop
  endfacet
  facet normal 0 0 1
    outer loop
      vertex 34.8845 56.1867 3
      vertex 2 62 3
      vertex 33.4184 54.8879 3
    endloop
  endfacet
  facet normal -0 0 1
    outer loop
      vertex 45.5816 44.1121 3
      vertex 77 37 3
      vertex 46.6943 45.7241 3
    endloop
  endfacet
  facet normal -0 0 1
    outer loop
      vertex 44.1155 42.8133 3
      vertex 77 37 3
      vertex 45.5816 44.1121 3
    endloop
  endfacet
  facet normal 0 0 1
    outer loop
      vertex 77 37 3
      vertex 52 2 3
      vertex 77 2 3
    endloop
  endfacet
  facet normal 0 0 1
    outer loop
      vertex 77 37 3
      vertex 44.1155 42.8133 3
      vertex 52 2 3
    endloop
  endfacet
  facet normal -0 0 1
    outer loop
      vertex 42.3812 41.903 3
      vertex 52 2 3
      vertex 44.1155 42.8133 3
    endloop
  endfacet
  facet normal -0 0 1
    outer loop
      vertex 40.4794 41.4342 3
      vertex 52 2 3
      vertex 42.3812 41.903 3
    endloop
  endfacet
  facet normal -0 0 1
    outer loop
      vertex 38.5206 41.4342 3
      vertex 52 2 3
      vertex 40.4794 41.4342 3
    endloop
  endfacet
  facet normal 0 0 1
    outer loop
      vertex 27 2 3
      vertex 38.5206 41.4342 3
      vertex 36.6188 41.903 3
    endloop
  endfacet
  facet normal 0 0 1
    outer loop
      vertex 27 2 3
      vertex 36.6188 41.903 3
      vertex 34.8845 42.8133 3
    endloop
  endfacet
  facet normal 0 0 1
    outer loop
      vertex 2 37 3
      vertex 34.8845 42.8133 3
      vertex 33.4184 44.1121 3
    endloop
  endfacet
  facet normal 0 0 1
    outer loop
      vertex 2 37 3
      vertex 33.4184 44.1121 3
      vertex 32.3057 45.7241 3
    endloop
  endfacet
  facet normal 0 0 1
    outer loop
      vertex 38.5206 41.4342 3
      vertex 27 2 3
      vertex 52 2 3
    endloop
  endfacet
  facet normal 0 0 1
    outer loop
      vertex 2 37 3
      vertex 32.3057 45.7241 3
      vertex 31.6111 47.5556 3
    endloop
  endfacet
  facet normal 0 0 1
    outer loop
      vertex 2 37 3
      vertex 31.6111 47.5556 3
      vertex 31.375 49.5 3
    endloop
  endfacet
  facet normal 0 0 1
    outer loop
      vertex 31.6111 51.4444 3
      vertex 2 62 3
      vertex 31.375 49.5 3
    endloop
  endfacet
  facet normal 0 0 1
    outer loop
      vertex 2 62 3
      vertex 27 97 3
      vertex 2 97 3
    endloop
  endfacet
  facet normal 0 0 1
    outer loop
      vertex 2 37 3
      vertex 31.375 49.5 3
      vertex 2 62 3
    endloop
  endfacet
  facet normal 0 0 1
    outer loop
      vertex 34.8845 42.8133 3
      vertex 2 37 3
      vertex 27 2 3
    endloop
  endfacet
  facet normal 0 0 1
    outer loop
      vertex 27 2 3
      vertex 2 37 3
      vertex 2 2 3
    endloop
  endfacet
  facet normal 0 1 -0
    outer loop
      vertex 27 2 3
      vertex 2 2 8
      vertex 27 2 8
    endloop
  endfacet
  facet normal 0 1 0
    outer loop
      vertex 2 2 8
      vertex 27 2 3
      vertex 2 2 3
    endloop
  endfacet
  facet normal 0 1 -0
    outer loop
      vertex 77 2 3
      vertex 52 2 8
      vertex 77 2 8
    endloop
  endfacet
  facet normal 0 1 0
    outer loop
      vertex 52 2 8
      vertex 77 2 3
      vertex 52 2 3
    endloop
  endfacet
  facet normal 0 -1 0
    outer loop
      vertex 27 2 0
      vertex 52 2 3
      vertex 27 2 3
    endloop
  endfacet
  facet normal 0 -1 -0
    outer loop
      vertex 52 2 3
      vertex 27 2 0
      vertex 52 2 0
    endloop
  endfacet
  facet normal 0 -1 0
    outer loop
      vertex 52 97 3
      vertex 77 97 8
      vertex 52 97 8
    endloop
  endfacet
  facet normal 0 -1 -0
    outer loop
      vertex 77 97 8
      vertex 52 97 3
      vertex 77 97 3
    endloop
  endfacet
  facet normal 0 -1 0
    outer loop
      vertex 2 97 3
      vertex 27 97 8
      vertex 2 97 8
    endloop
  endfacet
  facet normal 0 -1 -0
    outer loop
      vertex 27 97 8
      vertex 2 97 3
      vertex 27 97 3
    endloop
  endfacet
  facet normal 0 1 -0
    outer loop
      vertex 52 97 0
      vertex 27 97 3
      vertex 52 97 3
    endloop
  endfacet
  facet normal 0 1 0
    outer loop
      vertex 27 97 3
      vertex 52 97 0
      vertex 27 97 0
    endloop
  endfacet
  facet normal 1 -0 0
    outer loop
      vertex 27 0 8
      vertex 27 2 3
      vertex 27 2 8
    endloop
  endfacet
  facet normal 1 0 0
    outer loop
      vertex 27 0 0
      vertex 27 2 3
      vertex 27 0 8
    endloop
  endfacet
  facet normal 1 0 0
    outer loop
      vertex 27 2 3
      vertex 27 0 0
      vertex 27 2 0
    endloop
  endfacet
  facet normal -1 0 0
    outer loop
      vertex 52 0 0
      vertex 52 2 3
      vertex 52 2 0
    endloop
  endfacet
  facet normal -1 0 0
    outer loop
      vertex 52 0 8
      vertex 52 2 3
      vertex 52 0 0
    endloop
  endfacet
  facet normal -1 0 0
    outer loop
      vertex 52 2 3
      vertex 52 0 8
      vertex 52 2 8
    endloop
  endfacet
  facet normal 1 0 0
    outer loop
      vertex 27 97 3
      vertex 27 99 8
      vertex 27 97 8
    endloop
  endfacet
  facet normal 1 0 0
    outer loop
      vertex 27 99 8
      vertex 27 97 3
      vertex 27 99 0
    endloop
  endfacet
  facet normal 1 0 0
    outer loop
      vertex 27 99 0
      vertex 27 97 3
      vertex 27 97 0
    endloop
  endfacet
  facet normal -1 0 0
    outer loop
      vertex 52 97 3
      vertex 52 99 0
      vertex 52 97 0
    endloop
  endfacet
  facet normal -1 0 0
    outer loop
      vertex 52 99 0
      vertex 52 97 3
      vertex 52 99 8
    endloop
  endfacet
  facet normal -1 -0 0
    outer loop
      vertex 52 99 8
      vertex 52 97 3
      vertex 52 97 8
    endloop
  endfacet
  facet normal 0 -1 0
    outer loop
      vertex 0 62 8
      vertex 2 62 3
      vertex 2 62 8
    endloop
  endfacet
  facet normal 0 -1 0
    outer loop
      vertex 0 62 0
      vertex 2 62 3
      vertex 0 62 8
    endloop
  endfacet
  facet normal 0 -1 -0
    outer loop
      vertex 2 62 3
      vertex 0 62 0
      vertex 2 62 0
    endloop
  endfacet
  facet normal 0 1 -0
    outer loop
      vertex 2 37 3
      vertex 0 37 8
      vertex 2 37 8
    endloop
  endfacet
  facet normal 0 1 0
    outer loop
      vertex 0 37 0
      vertex 2 37 3
      vertex 2 37 0
    endloop
  endfacet
  facet normal 0 1 0
    outer loop
      vertex 2 37 3
      vertex 0 37 0
      vertex 0 37 8
    endloop
  endfacet
  facet normal 0 -1 0
    outer loop
      vertex 77 62 3
      vertex 79 62 8
      vertex 77 62 8
    endloop
  endfacet
  facet normal 0 -1 0
    outer loop
      vertex 79 62 0
      vertex 77 62 3
      vertex 77 62 0
    endloop
  endfacet
  facet normal 0 -1 0
    outer loop
      vertex 77 62 3
      vertex 79 62 0
      vertex 79 62 8
    endloop
  endfacet
  facet normal 0 1 0
    outer loop
      vertex 79 37 8
      vertex 77 37 3
      vertex 77 37 8
    endloop
  endfacet
  facet normal 0 1 -0
    outer loop
      vertex 79 37 0
      vertex 77 37 3
      vertex 79 37 8
    endloop
  endfacet
  facet normal 0 1 0
    outer loop
      vertex 77 37 3
      vertex 79 37 0
      vertex 77 37 0
    endloop
  endfacet
  facet normal -0.992709 -0.120537 0
    outer loop
      vertex 47.625 49.5 1.6
      vertex 47.3889 51.4444 3
      vertex 47.3889 51.4444 1.6
    endloop
  endfacet
  facet normal -0.992709 -0.120537 0
    outer loop
      vertex 47.3889 51.4444 3
      vertex 47.625 49.5 1.6
      vertex 47.625 49.5 3
    endloop
  endfacet
  facet normal 0.239315 -0.970942 0
    outer loop
      vertex 36.6188 57.097 1.6
      vertex 38.5206 57.5658 3
      vertex 36.6188 57.097 3
    endloop
  endfacet
  facet normal 0.239315 -0.970942 0
    outer loop
      vertex 38.5206 57.5658 3
      vertex 36.6188 57.097 1.6
      vertex 38.5206 57.5658 1.6
    endloop
  endfacet
  facet normal -0.239314 0.970942 0
    outer loop
      vertex 42.3812 41.903 1.6
      vertex 40.4794 41.4342 3
      vertex 42.3812 41.903 3
    endloop
  endfacet
  facet normal -0.239314 0.970942 0
    outer loop
      vertex 40.4794 41.4342 3
      vertex 42.3812 41.903 1.6
      vertex 40.4794 41.4342 1.6
    endloop
  endfacet
  facet normal -0.464724 -0.885456 0
    outer loop
      vertex 42.3812 57.097 1.6
      vertex 44.1155 56.1867 3
      vertex 42.3812 57.097 3
    endloop
  endfacet
  facet normal -0.464724 -0.885456 -0
    outer loop
      vertex 44.1155 56.1867 3
      vertex 42.3812 57.097 1.6
      vertex 44.1155 56.1867 1.6
    endloop
  endfacet
  facet normal -0.239314 -0.970942 0
    outer loop
      vertex 40.4794 57.5658 1.6
      vertex 42.3812 57.097 3
      vertex 40.4794 57.5658 3
    endloop
  endfacet
  facet normal -0.239314 -0.970942 -0
    outer loop
      vertex 42.3812 57.097 3
      vertex 40.4794 57.5658 1.6
      vertex 42.3812 57.097 1.6
    endloop
  endfacet
  facet normal 0.822984 -0.568064 0
    outer loop
      vertex 32.3057 53.2759 3
      vertex 33.4184 54.8879 1.6
      vertex 33.4184 54.8879 3
    endloop
  endfacet
  facet normal 0.822984 -0.568064 0
    outer loop
      vertex 33.4184 54.8879 1.6
      vertex 32.3057 53.2759 3
      vertex 32.3057 53.2759 1.6
    endloop
  endfacet
  facet normal 0.935016 -0.354606 0
    outer loop
      vertex 31.6111 51.4444 3
      vertex 32.3057 53.2759 1.6
      vertex 32.3057 53.2759 3
    endloop
  endfacet
  facet normal 0.935016 -0.354606 0
    outer loop
      vertex 32.3057 53.2759 1.6
      vertex 31.6111 51.4444 3
      vertex 31.6111 51.4444 1.6
    endloop
  endfacet
  facet normal 0.663123 -0.748511 0
    outer loop
      vertex 33.4184 54.8879 1.6
      vertex 34.8845 56.1867 3
      vertex 33.4184 54.8879 3
    endloop
  endfacet
  facet normal 0.663123 -0.748511 0
    outer loop
      vertex 34.8845 56.1867 3
      vertex 33.4184 54.8879 1.6
      vertex 34.8845 56.1867 1.6
    endloop
  endfacet
  facet normal -0.935016 0.354605 0
    outer loop
      vertex 46.6943 45.7241 1.6
      vertex 47.3889 47.5556 3
      vertex 47.3889 47.5556 1.6
    endloop
  endfacet
  facet normal -0.935016 0.354605 0
    outer loop
      vertex 47.3889 47.5556 3
      vertex 46.6943 45.7241 1.6
      vertex 46.6943 45.7241 3
    endloop
  endfacet
  facet normal -0.822984 -0.568064 0
    outer loop
      vertex 46.6943 53.2759 1.6
      vertex 45.5816 54.8879 3
      vertex 45.5816 54.8879 1.6
    endloop
  endfacet
  facet normal -0.822984 -0.568064 0
    outer loop
      vertex 45.5816 54.8879 3
      vertex 46.6943 53.2759 1.6
      vertex 46.6943 53.2759 3
    endloop
  endfacet
  facet normal -0.935016 -0.354605 0
    outer loop
      vertex 47.3889 51.4444 1.6
      vertex 46.6943 53.2759 3
      vertex 46.6943 53.2759 1.6
    endloop
  endfacet
  facet normal -0.935016 -0.354605 0
    outer loop
      vertex 46.6943 53.2759 3
      vertex 47.3889 51.4444 1.6
      vertex 47.3889 51.4444 3
    endloop
  endfacet
  facet normal -0.663123 -0.748511 0
    outer loop
      vertex 44.1155 56.1867 1.6
      vertex 45.5816 54.8879 3
      vertex 44.1155 56.1867 3
    endloop
  endfacet
  facet normal -0.663123 -0.748511 -0
    outer loop
      vertex 45.5816 54.8879 3
      vertex 44.1155 56.1867 1.6
      vertex 45.5816 54.8879 1.6
    endloop
  endfacet
  facet normal 0 -1 0
    outer loop
      vertex 38.5206 57.5658 1.6
      vertex 40.4794 57.5658 3
      vertex 38.5206 57.5658 3
    endloop
  endfacet
  facet normal 0 -1 -0
    outer loop
      vertex 40.4794 57.5658 3
      vertex 38.5206 57.5658 1.6
      vertex 40.4794 57.5658 1.6
    endloop
  endfacet
  facet normal 0 0 1
    outer loop
      vertex 47.3889 51.4444 1.6
      vertex 47.3889 47.5556 1.6
      vertex 47.625 49.5 1.6
    endloop
  endfacet
  facet normal 0 0 1
    outer loop
      vertex 46.6943 53.2759 1.6
      vertex 47.3889 47.5556 1.6
      vertex 47.3889 51.4444 1.6
    endloop
  endfacet
  facet normal 0 0 1
    outer loop
      vertex 46.6943 53.2759 1.6
      vertex 46.6943 45.7241 1.6
      vertex 47.3889 47.5556 1.6
    endloop
  endfacet
  facet normal 0 0 1
    outer loop
      vertex 45.5816 54.8879 1.6
      vertex 46.6943 45.7241 1.6
      vertex 46.6943 53.2759 1.6
    endloop
  endfacet
  facet normal 0 0 1
    outer loop
      vertex 45.5816 54.8879 1.6
      vertex 45.5816 44.1121 1.6
      vertex 46.6943 45.7241 1.6
    endloop
  endfacet
  facet normal 0 0 1
    outer loop
      vertex 44.1155 56.1867 1.6
      vertex 45.5816 44.1121 1.6
      vertex 45.5816 54.8879 1.6
    endloop
  endfacet
  facet normal 0 0 1
    outer loop
      vertex 44.1155 56.1867 1.6
      vertex 44.1155 42.8133 1.6
      vertex 45.5816 44.1121 1.6
    endloop
  endfacet
  facet normal 0 0 1
    outer loop
      vertex 42.3812 57.097 1.6
      vertex 44.1155 42.8133 1.6
      vertex 44.1155 56.1867 1.6
    endloop
  endfacet
  facet normal 0 0 1
    outer loop
      vertex 42.3812 57.097 1.6
      vertex 42.3812 41.903 1.6
      vertex 44.1155 42.8133 1.6
    endloop
  endfacet
  facet normal 0 0 1
    outer loop
      vertex 40.4794 57.5658 1.6
      vertex 42.3812 41.903 1.6
      vertex 42.3812 57.097 1.6
    endloop
  endfacet
  facet normal 0 0 1
    outer loop
      vertex 40.4794 57.5658 1.6
      vertex 40.4794 41.4342 1.6
      vertex 42.3812 41.903 1.6
    endloop
  endfacet
  facet normal -0 0 1
    outer loop
      vertex 38.5206 57.5658 1.6
      vertex 40.4794 41.4342 1.6
      vertex 40.4794 57.5658 1.6
    endloop
  endfacet
  facet normal 0 0 1
    outer loop
      vertex 38.5206 57.5658 1.6
      vertex 38.5206 41.4342 1.6
      vertex 40.4794 41.4342 1.6
    endloop
  endfacet
  facet normal -0 0 1
    outer loop
      vertex 36.6188 57.097 1.6
      vertex 38.5206 41.4342 1.6
      vertex 38.5206 57.5658 1.6
    endloop
  endfacet
  facet normal 0 0 1
    outer loop
      vertex 36.6188 57.097 1.6
      vertex 36.6188 41.903 1.6
      vertex 38.5206 41.4342 1.6
    endloop
  endfacet
  facet normal -0 0 1
    outer loop
      vertex 34.8845 56.1867 1.6
      vertex 36.6188 41.903 1.6
      vertex 36.6188 57.097 1.6
    endloop
  endfacet
  facet normal 0 0 1
    outer loop
      vertex 34.8845 56.1867 1.6
      vertex 34.8845 42.8133 1.6
      vertex 36.6188 41.903 1.6
    endloop
  endfacet
  facet normal -0 0 1
    outer loop
      vertex 33.4184 54.8879 1.6
      vertex 34.8845 42.8133 1.6
      vertex 34.8845 56.1867 1.6
    endloop
  endfacet
  facet normal 0 0 1
    outer loop
      vertex 33.4184 54.8879 1.6
      vertex 33.4184 44.1121 1.6
      vertex 34.8845 42.8133 1.6
    endloop
  endfacet
  facet normal -0 0 1
    outer loop
      vertex 32.3057 53.2759 1.6
      vertex 33.4184 44.1121 1.6
      vertex 33.4184 54.8879 1.6
    endloop
  endfacet
  facet normal 0 0 1
    outer loop
      vertex 32.3057 53.2759 1.6
      vertex 32.3057 45.7241 1.6
      vertex 33.4184 44.1121 1.6
    endloop
  endfacet
  facet normal -0 0 1
    outer loop
      vertex 31.6111 51.4444 1.6
      vertex 32.3057 45.7241 1.6
      vertex 32.3057 53.2759 1.6
    endloop
  endfacet
  facet normal 0 0 1
    outer loop
      vertex 31.6111 51.4444 1.6
      vertex 31.6111 47.5556 1.6
      vertex 32.3057 45.7241 1.6
    endloop
  endfacet
  facet normal 0 -0 1
    outer loop
      vertex 31.6111 47.5556 1.6
      vertex 31.6111 51.4444 1.6
      vertex 31.375 49.5 1.6
    endloop
  endfacet
  facet normal 0.992709 -0.120537 0
    outer loop
      vertex 31.375 49.5 3
      vertex 31.6111 51.4444 1.6
      vertex 31.6111 51.4444 3
    endloop
  endfacet
  facet normal 0.992709 -0.120537 0
    outer loop
      vertex 31.6111 51.4444 1.6
      vertex 31.375 49.5 3
      vertex 31.375 49.5 1.6
    endloop
  endfacet
  facet normal 0.464724 -0.885456 0
    outer loop
      vertex 34.8845 56.1867 1.6
      vertex 36.6188 57.097 3
      vertex 34.8845 56.1867 3
    endloop
  endfacet
  facet normal 0.464724 -0.885456 0
    outer loop
      vertex 36.6188 57.097 3
      vertex 34.8845 56.1867 1.6
      vertex 36.6188 57.097 1.6
    endloop
  endfacet
  facet normal -0.992709 0.120537 0
    outer loop
      vertex 47.3889 47.5556 1.6
      vertex 47.625 49.5 3
      vertex 47.625 49.5 1.6
    endloop
  endfacet
  facet normal -0.992709 0.120537 0
    outer loop
      vertex 47.625 49.5 3
      vertex 47.3889 47.5556 1.6
      vertex 47.3889 47.5556 3
    endloop
  endfacet
  facet normal -0.822984 0.568064 0
    outer loop
      vertex 45.5816 44.1121 1.6
      vertex 46.6943 45.7241 3
      vertex 46.6943 45.7241 1.6
    endloop
  endfacet
  facet normal -0.822984 0.568064 0
    outer loop
      vertex 46.6943 45.7241 3
      vertex 45.5816 44.1121 1.6
      vertex 45.5816 44.1121 3
    endloop
  endfacet
  facet normal 0.992709 0.120537 0
    outer loop
      vertex 31.6111 47.5556 3
      vertex 31.375 49.5 1.6
      vertex 31.375 49.5 3
    endloop
  endfacet
  facet normal 0.992709 0.120537 0
    outer loop
      vertex 31.375 49.5 1.6
      vertex 31.6111 47.5556 3
      vertex 31.6111 47.5556 1.6
    endloop
  endfacet
  facet normal 0.239315 0.970942 -0
    outer loop
      vertex 38.5206 41.4342 1.6
      vertex 36.6188 41.903 3
      vertex 38.5206 41.4342 3
    endloop
  endfacet
  facet normal 0.239315 0.970942 0
    outer loop
      vertex 36.6188 41.903 3
      vertex 38.5206 41.4342 1.6
      vertex 36.6188 41.903 1.6
    endloop
  endfacet
  facet normal 0.663123 0.748511 -0
    outer loop
      vertex 34.8845 42.8133 1.6
      vertex 33.4184 44.1121 3
      vertex 34.8845 42.8133 3
    endloop
  endfacet
  facet normal 0.663123 0.748511 0
    outer loop
      vertex 33.4184 44.1121 3
      vertex 34.8845 42.8133 1.6
      vertex 33.4184 44.1121 1.6
    endloop
  endfacet
  facet normal 0 1 -0
    outer loop
      vertex 40.4794 41.4342 1.6
      vertex 38.5206 41.4342 3
      vertex 40.4794 41.4342 3
    endloop
  endfacet
  facet normal 0 1 0
    outer loop
      vertex 38.5206 41.4342 3
      vertex 40.4794 41.4342 1.6
      vertex 38.5206 41.4342 1.6
    endloop
  endfacet
  facet normal 0.464724 0.885456 -0
    outer loop
      vertex 36.6188 41.903 1.6
      vertex 34.8845 42.8133 3
      vertex 36.6188 41.903 3
    endloop
  endfacet
  facet normal 0.464724 0.885456 0
    outer loop
      vertex 34.8845 42.8133 3
      vertex 36.6188 41.903 1.6
      vertex 34.8845 42.8133 1.6
    endloop
  endfacet
  facet normal 0.822984 0.568064 0
    outer loop
      vertex 33.4184 44.1121 3
      vertex 32.3057 45.7241 1.6
      vertex 32.3057 45.7241 3
    endloop
  endfacet
  facet normal 0.822984 0.568064 0
    outer loop
      vertex 32.3057 45.7241 1.6
      vertex 33.4184 44.1121 3
      vertex 33.4184 44.1121 1.6
    endloop
  endfacet
  facet normal 0.935016 0.354606 0
    outer loop
      vertex 32.3057 45.7241 3
      vertex 31.6111 47.5556 1.6
      vertex 31.6111 47.5556 3
    endloop
  endfacet
  facet normal 0.935016 0.354606 0
    outer loop
      vertex 31.6111 47.5556 1.6
      vertex 32.3057 45.7241 3
      vertex 32.3057 45.7241 1.6
    endloop
  endfacet
  facet normal -0.663123 0.748511 0
    outer loop
      vertex 45.5816 44.1121 1.6
      vertex 44.1155 42.8133 3
      vertex 45.5816 44.1121 3
    endloop
  endfacet
  facet normal -0.663123 0.748511 0
    outer loop
      vertex 44.1155 42.8133 3
      vertex 45.5816 44.1121 1.6
      vertex 44.1155 42.8133 1.6
    endloop
  endfacet
  facet normal -0.464724 0.885456 0
    outer loop
      vertex 44.1155 42.8133 1.6
      vertex 42.3812 41.903 3
      vertex 44.1155 42.8133 3
    endloop
  endfacet
  facet normal -0.464724 0.885456 0
    outer loop
      vertex 42.3812 41.903 3
      vertex 44.1155 42.8133 1.6
      vertex 42.3812 41.903 1.6
    endloop
  endfacet
endsolid OpenSCAD_Model
