solid OpenSCAD_Model
  facet normal -1 0 0
    outer loop
      vertex 0 0 0
      vertex 0 85 35
      vertex 0 85 0
    endloop
  endfacet
  facet normal -1 -0 0
    outer loop
      vertex 0 85 35
      vertex 0 0 0
      vertex 0 0 35
    endloop
  endfacet
  facet normal 0 0 1
    outer loop
      vertex 41.0572 34.9364 35
      vertex 41.5 33.5938 35
      vertex 42.9835 34.8152 35
    endloop
  endfacet
  facet normal 0 0 1
    outer loop
      vertex 41.0572 34.9364 35
      vertex 41.044 33.6186 35
      vertex 41.5 33.5938 35
    endloop
  endfacet
  facet normal 0 0 1
    outer loop
      vertex 39.1688 34.1392 35
      vertex 41.0572 34.9364 35
      vertex 39.2215 35.5328 35
    endloop
  endfacet
  facet normal 0 0 1
    outer loop
      vertex 41.0572 34.9364 35
      vertex 39.1688 34.1392 35
      vertex 41.044 33.6186 35
    endloop
  endfacet
  facet normal 0 0 1
    outer loop
      vertex 37.4493 35.0508 35
      vertex 39.2215 35.5328 35
      vertex 37.5918 36.567 35
    endloop
  endfacet
  facet normal 0 0 1
    outer loop
      vertex 39.2215 35.5328 35
      vertex 37.4493 35.0508 35
      vertex 39.1688 34.1392 35
    endloop
  endfacet
  facet normal 0 0 1
    outer loop
      vertex 35.966 36.3107 35
      vertex 37.5918 36.567 35
      vertex 36.2706 37.9741 35
    endloop
  endfacet
  facet normal 0 0 1
    outer loop
      vertex 37.5918 36.567 35
      vertex 35.966 36.3107 35
      vertex 37.4493 35.0508 35
    endloop
  endfacet
  facet normal 0 0 1
    outer loop
      vertex 34.7883 37.86 35
      vertex 36.2706 37.9741 35
      vertex 35.3407 39.6654 35
    endloop
  endfacet
  facet normal 0 0 1
    outer loop
      vertex 33.9711 39.6263 35
      vertex 35.3407 39.6654 35
      vertex 34.8607 41.5349 35
    endloop
  endfacet
  facet normal 0 0 1
    outer loop
      vertex 36.2706 37.9741 35
      vertex 34.7883 37.86 35
      vertex 35.966 36.3107 35
    endloop
  endfacet
  facet normal -0 0 1
    outer loop
      vertex 33.5587 43.5 35
      vertex 34.8607 43.4651 35
      vertex 33.9711 45.3737 35
    endloop
  endfacet
  facet normal 0 0 1
    outer loop
      vertex 34.8607 43.4651 35
      vertex 33.5587 43.5 35
      vertex 34.8607 41.5349 35
    endloop
  endfacet
  facet normal 0 0 1
    outer loop
      vertex 35.3407 39.6654 35
      vertex 33.9711 39.6263 35
      vertex 34.7883 37.86 35
    endloop
  endfacet
  facet normal 0 0 1
    outer loop
      vertex 33.5587 41.5 35
      vertex 34.8607 41.5349 35
      vertex 33.5587 43.5 35
    endloop
  endfacet
  facet normal 0 0 1
    outer loop
      vertex 34.8607 41.5349 35
      vertex 33.5587 41.5 35
      vertex 33.9711 39.6263 35
    endloop
  endfacet
  facet normal -0 0 1
    outer loop
      vertex 2 43.5 35
      vertex 33.5587 41.5 35
      vertex 33.5587 43.5 35
    endloop
  endfacet
  facet normal 0 0 1
    outer loop
      vertex 33.5587 41.5 35
      vertex 2 43.5 35
      vertex 2 41.5 35
    endloop
  endfacet
  facet normal -0 0 1
    outer loop
      vertex 52 43.5 35
      vertex 83 41.5 35
      vertex 83 43.5 35
    endloop
  endfacet
  facet normal 0 0 1
    outer loop
      vertex 83 41.5 35
      vertex 52 43.5 35
      vertex 51.3912 41.5 35
    endloop
  endfacet
  facet normal 0 0 1
    outer loop
      vertex 83 43.5 35
      vertex 85 85 35
      vertex 83 83 35
    endloop
  endfacet
  facet normal 0 0 1
    outer loop
      vertex 85 85 35
      vertex 52 83 35
      vertex 83 83 35
    endloop
  endfacet
  facet normal -0 0 1
    outer loop
      vertex 50 47.3895 35
      vertex 52 43.5 35
      vertex 52 83 35
    endloop
  endfacet
  facet normal -0 0 1
    outer loop
      vertex 49.9581 44.4149 35
      vertex 52 43.5 35
      vertex 50 47.3895 35
    endloop
  endfacet
  facet normal 0 -0 1
    outer loop
      vertex 50.2 42.5 35
      vertex 52 43.5 35
      vertex 49.9581 44.4149 35
    endloop
  endfacet
  facet normal 0 0 1
    outer loop
      vertex 52 43.5 35
      vertex 50.2 42.5 35
      vertex 51.3912 41.5 35
    endloop
  endfacet
  facet normal 0 0 1
    outer loop
      vertex 50 47.3895 35
      vertex 52 83 35
      vertex 50 83 35
    endloop
  endfacet
  facet normal 0 0 1
    outer loop
      vertex 85 85 35
      vertex 50 83 35
      vertex 52 83 35
    endloop
  endfacet
  facet normal -0 0 1
    outer loop
      vertex 0 85 35
      vertex 50 83 35
      vertex 85 85 35
    endloop
  endfacet
  facet normal 0 0 1
    outer loop
      vertex 0 85 35
      vertex 2 43.5 35
      vertex 2 83 35
    endloop
  endfacet
  facet normal 0 0 1
    outer loop
      vertex 2 43.5 35
      vertex 0 85 35
      vertex 2 41.5 35
    endloop
  endfacet
  facet normal 0 0 1
    outer loop
      vertex 0 0 35
      vertex 2 41.5 35
      vertex 0 85 35
    endloop
  endfacet
  facet normal 0 0 1
    outer loop
      vertex 50 83 35
      vertex 0 85 35
      vertex 2 83 35
    endloop
  endfacet
  facet normal 0 0 1
    outer loop
      vertex 85 85 35
      vertex 83 43.5 35
      vertex 85 0 35
    endloop
  endfacet
  facet normal -0 0 1
    outer loop
      vertex 83 41.5 35
      vertex 85 0 35
      vertex 83 43.5 35
    endloop
  endfacet
  facet normal -0 0 1
    outer loop
      vertex 83 2 35
      vertex 85 0 35
      vertex 83 41.5 35
    endloop
  endfacet
  facet normal -0 0 1
    outer loop
      vertex 43.5 2 35
      vertex 85 0 35
      vertex 83 2 35
    endloop
  endfacet
  facet normal 0 0 1
    outer loop
      vertex 43.5 33.5973 35
      vertex 41.5 33.5938 35
      vertex 43.5 2 35
    endloop
  endfacet
  facet normal 0 0 1
    outer loop
      vertex 41.5 2 35
      vertex 43.5 2 35
      vertex 41.5 33.5938 35
    endloop
  endfacet
  facet normal -0 0 1
    outer loop
      vertex 41.5 2 35
      vertex 85 0 35
      vertex 43.5 2 35
    endloop
  endfacet
  facet normal 0 0 1
    outer loop
      vertex 0 0 35
      vertex 41.5 2 35
      vertex 2 2 35
    endloop
  endfacet
  facet normal 0 0 1
    outer loop
      vertex 41.5 2 35
      vertex 0 0 35
      vertex 85 0 35
    endloop
  endfacet
  facet normal 0 0 1
    outer loop
      vertex 2 41.5 35
      vertex 0 0 35
      vertex 2 2 35
    endloop
  endfacet
  facet normal 0 0 1
    outer loop
      vertex 51.2896 40.5653 35
      vertex 49.9581 40.5851 35
      vertex 50.6682 38.721 35
    endloop
  endfacet
  facet normal -0 0 1
    outer loop
      vertex 49.2476 38.7905 35
      vertex 50.6682 38.721 35
      vertex 49.9581 40.5851 35
    endloop
  endfacet
  facet normal 0 0 1
    outer loop
      vertex 50.6682 38.721 35
      vertex 49.2476 38.7905 35
      vertex 49.6648 37.0534 35
    endloop
  endfacet
  facet normal -0 0 1
    outer loop
      vertex 48.1131 37.229 35
      vertex 49.6648 37.0534 35
      vertex 49.2476 38.7905 35
    endloop
  endfacet
  facet normal 0 0 1
    outer loop
      vertex 49.6648 37.0534 35
      vertex 48.1131 37.229 35
      vertex 48.3265 35.6405 35
    endloop
  endfacet
  facet normal -0 0 1
    outer loop
      vertex 46.6259 35.9987 35
      vertex 48.3265 35.6405 35
      vertex 48.1131 37.229 35
    endloop
  endfacet
  facet normal 0 0 1
    outer loop
      vertex 48.3265 35.6405 35
      vertex 46.6259 35.9987 35
      vertex 46.7157 34.5484 35
    endloop
  endfacet
  facet normal -0 0 1
    outer loop
      vertex 44.8794 35.1769 35
      vertex 46.7157 34.5484 35
      vertex 46.6259 35.9987 35
    endloop
  endfacet
  facet normal 0 0 1
    outer loop
      vertex 46.7157 34.5484 35
      vertex 44.8794 35.1769 35
      vertex 44.9078 33.828 35
    endloop
  endfacet
  facet normal 0 0 1
    outer loop
      vertex 44.8794 35.1769 35
      vertex 43.5 33.5973 35
      vertex 44.9078 33.828 35
    endloop
  endfacet
  facet normal 0 0 1
    outer loop
      vertex 41.5 33.5938 35
      vertex 43.5 33.5973 35
      vertex 42.9835 34.8152 35
    endloop
  endfacet
  facet normal -0 0 1
    outer loop
      vertex 42.9835 34.8152 35
      vertex 43.5 33.5973 35
      vertex 44.8794 35.1769 35
    endloop
  endfacet
  facet normal 0 0 1
    outer loop
      vertex 51.3912 41.5 35
      vertex 49.9581 40.5851 35
      vertex 51.2896 40.5653 35
    endloop
  endfacet
  facet normal 0 0 1
    outer loop
      vertex 49.9581 40.5851 35
      vertex 51.3912 41.5 35
      vertex 50.2 42.5 35
    endloop
  endfacet
  facet normal 0 0 1
    outer loop
      vertex 49.2476 46.2095 35
      vertex 50 47.3895 35
      vertex 49.6648 47.9466 35
    endloop
  endfacet
  facet normal 0 0 1
    outer loop
      vertex 50 47.3895 35
      vertex 49.2476 46.2095 35
      vertex 49.9581 44.4149 35
    endloop
  endfacet
  facet normal 0 0 1
    outer loop
      vertex 48.1131 47.771 35
      vertex 49.6648 47.9466 35
      vertex 48.3265 49.3595 35
    endloop
  endfacet
  facet normal 0 0 1
    outer loop
      vertex 49.6648 47.9466 35
      vertex 48.1131 47.771 35
      vertex 49.2476 46.2095 35
    endloop
  endfacet
  facet normal 0 0 1
    outer loop
      vertex 46.6259 49.0013 35
      vertex 48.3265 49.3595 35
      vertex 46.7157 50.4516 35
    endloop
  endfacet
  facet normal 0 0 1
    outer loop
      vertex 48.3265 49.3595 35
      vertex 46.6259 49.0013 35
      vertex 48.1131 47.771 35
    endloop
  endfacet
  facet normal 0 0 1
    outer loop
      vertex 44.8794 49.8231 35
      vertex 46.7157 50.4516 35
      vertex 44.9078 51.172 35
    endloop
  endfacet
  facet normal 0 0 1
    outer loop
      vertex 46.7157 50.4516 35
      vertex 44.8794 49.8231 35
      vertex 46.6259 49.0013 35
    endloop
  endfacet
  facet normal 0 0 1
    outer loop
      vertex 42.9835 50.1848 35
      vertex 44.9078 51.172 35
      vertex 42.9873 51.4868 35
    endloop
  endfacet
  facet normal 0 0 1
    outer loop
      vertex 44.9078 51.172 35
      vertex 42.9835 50.1848 35
      vertex 44.8794 49.8231 35
    endloop
  endfacet
  facet normal -0 0 1
    outer loop
      vertex 41.044 51.3814 35
      vertex 42.9835 50.1848 35
      vertex 42.9873 51.4868 35
    endloop
  endfacet
  facet normal 0 0 1
    outer loop
      vertex 42.9835 50.1848 35
      vertex 41.044 51.3814 35
      vertex 41.0572 50.0636 35
    endloop
  endfacet
  facet normal -0 0 1
    outer loop
      vertex 39.1688 50.8608 35
      vertex 41.0572 50.0636 35
      vertex 41.044 51.3814 35
    endloop
  endfacet
  facet normal 0 0 1
    outer loop
      vertex 41.0572 50.0636 35
      vertex 39.1688 50.8608 35
      vertex 39.2215 49.4672 35
    endloop
  endfacet
  facet normal -0 0 1
    outer loop
      vertex 37.4493 49.9492 35
      vertex 39.2215 49.4672 35
      vertex 39.1688 50.8608 35
    endloop
  endfacet
  facet normal 0 0 1
    outer loop
      vertex 39.2215 49.4672 35
      vertex 37.4493 49.9492 35
      vertex 37.5918 48.433 35
    endloop
  endfacet
  facet normal -0 0 1
    outer loop
      vertex 35.966 48.6893 35
      vertex 37.5918 48.433 35
      vertex 37.4493 49.9492 35
    endloop
  endfacet
  facet normal 0 0 1
    outer loop
      vertex 37.5918 48.433 35
      vertex 35.966 48.6893 35
      vertex 36.2706 47.0259 35
    endloop
  endfacet
  facet normal -0 0 1
    outer loop
      vertex 34.7883 47.14 35
      vertex 36.2706 47.0259 35
      vertex 35.966 48.6893 35
    endloop
  endfacet
  facet normal 0 0 1
    outer loop
      vertex 36.2706 47.0259 35
      vertex 34.7883 47.14 35
      vertex 35.3407 45.3346 35
    endloop
  endfacet
  facet normal 0 0 1
    outer loop
      vertex 35.3407 45.3346 35
      vertex 33.9711 45.3737 35
      vertex 34.8607 43.4651 35
    endloop
  endfacet
  facet normal -0 0 1
    outer loop
      vertex 33.9711 45.3737 35
      vertex 35.3407 45.3346 35
      vertex 34.7883 47.14 35
    endloop
  endfacet
  facet normal 1 -0 0
    outer loop
      vertex 85 0 35
      vertex 85 85 0
      vertex 85 85 35
    endloop
  endfacet
  facet normal 1 0 0
    outer loop
      vertex 85 85 0
      vertex 85 0 35
      vertex 85 0 0
    endloop
  endfacet
  facet normal 0 1 -0
    outer loop
      vertex 85 85 0
      vertex 0 85 35
      vertex 85 85 35
    endloop
  endfacet
  facet normal 0 1 0
    outer loop
      vertex 0 85 35
      vertex 85 85 0
      vertex 0 85 0
    endloop
  endfacet
  facet normal 0 0 -1
    outer loop
      vertex 0 0 0
      vertex 85 85 0
      vertex 85 0 0
    endloop
  endfacet
  facet normal -0 0 -1
    outer loop
      vertex 85 85 0
      vertex 0 0 0
      vertex 0 85 0
    endloop
  endfacet
  facet normal 0 -1 0
    outer loop
      vertex 0 0 0
      vertex 85 0 35
      vertex 0 0 35
    endloop
  endfacet
  facet normal 0 -1 -0
    outer loop
      vertex 85 0 35
      vertex 0 0 0
      vertex 85 0 0
    endloop
  endfacet
  facet normal 1 -0 0
    outer loop
      vertex 2 2 35
      vertex 2 41.5 3
      vertex 2 41.5 35
    endloop
  endfacet
  facet normal 1 0 0
    outer loop
      vertex 2 41.5 3
      vertex 2 2 35
      vertex 2 2 3
    endloop
  endfacet
  facet normal 1 -0 0
    outer loop
      vertex 2 43.5 35
      vertex 2 83 3
      vertex 2 83 35
    endloop
  endfacet
  facet normal 1 0 0
    outer loop
      vertex 2 83 3
      vertex 2 43.5 35
      vertex 2 43.5 3
    endloop
  endfacet
  facet normal -1 0 0
    outer loop
      vertex 83 2 3
      vertex 83 41.5 35
      vertex 83 41.5 3
    endloop
  endfacet
  facet normal -1 -0 0
    outer loop
      vertex 83 41.5 35
      vertex 83 2 3
      vertex 83 2 35
    endloop
  endfacet
  facet normal -1 0 0
    outer loop
      vertex 83 43.5 3
      vertex 83 83 35
      vertex 83 83 3
    endloop
  endfacet
  facet normal -1 -0 0
    outer loop
      vertex 83 83 35
      vertex 83 43.5 3
      vertex 83 43.5 35
    endloop
  endfacet
  facet normal 0 -1 0
    outer loop
      vertex 52 83 3
      vertex 83 83 35
      vertex 52 83 35
    endloop
  endfacet
  facet normal 0 -1 -0
    outer loop
      vertex 83 83 35
      vertex 52 83 3
      vertex 83 83 3
    endloop
  endfacet
  facet normal 0 -1 0
    outer loop
      vertex 2 83 3
      vertex 50 83 35
      vertex 2 83 35
    endloop
  endfacet
  facet normal 0 -1 -0
    outer loop
      vertex 50 83 35
      vertex 2 83 3
      vertex 50 83 3
    endloop
  endfacet
  facet normal 0 0 1
    outer loop
      vertex 50 83 3
      vertex 49.6648 47.9466 3
      vertex 50 47.3895 3
    endloop
  endfacet
  facet normal 0 0 1
    outer loop
      vertex 50 83 3
      vertex 48.3265 49.3595 3
      vertex 49.6648 47.9466 3
    endloop
  endfacet
  facet normal 0 0 1
    outer loop
      vertex 50 83 3
      vertex 46.7157 50.4516 3
      vertex 48.3265 49.3595 3
    endloop
  endfacet
  facet normal 0 0 1
    outer loop
      vertex 50 83 3
      vertex 44.9078 51.172 3
      vertex 46.7157 50.4516 3
    endloop
  endfacet
  facet normal 0 0 1
    outer loop
      vertex 50 83 3
      vertex 42.9873 51.4868 3
      vertex 44.9078 51.172 3
    endloop
  endfacet
  facet normal 0 0 1
    outer loop
      vertex 50 83 3
      vertex 41.044 51.3814 3
      vertex 42.9873 51.4868 3
    endloop
  endfacet
  facet normal 0 0 1
    outer loop
      vertex 50 83 3
      vertex 39.1688 50.8608 3
      vertex 41.044 51.3814 3
    endloop
  endfacet
  facet normal 0 0 1
    outer loop
      vertex 50 83 3
      vertex 37.4493 49.9492 3
      vertex 39.1688 50.8608 3
    endloop
  endfacet
  facet normal -0 0 1
    outer loop
      vertex 2 83 3
      vertex 37.4493 49.9492 3
      vertex 50 83 3
    endloop
  endfacet
  facet normal 0 0 1
    outer loop
      vertex 37.4493 49.9492 3
      vertex 2 83 3
      vertex 35.966 48.6893 3
    endloop
  endfacet
  facet normal 0 0 1
    outer loop
      vertex 2 43.5 3
      vertex 35.966 48.6893 3
      vertex 2 83 3
    endloop
  endfacet
  facet normal 0 0 1
    outer loop
      vertex 35.966 48.6893 3
      vertex 2 43.5 3
      vertex 34.7883 47.14 3
    endloop
  endfacet
  facet normal 0 0 1
    outer loop
      vertex 34.7883 47.14 3
      vertex 2 43.5 3
      vertex 33.9711 45.3737 3
    endloop
  endfacet
  facet normal 0 0 1
    outer loop
      vertex 33.9711 45.3737 3
      vertex 2 43.5 3
      vertex 33.5587 43.5 3
    endloop
  endfacet
  facet normal 0 0 1
    outer loop
      vertex 41.044 33.6186 3
      vertex 41.5 2 3
      vertex 41.5 33.5938 3
    endloop
  endfacet
  facet normal 0 0 1
    outer loop
      vertex 39.1688 34.1392 3
      vertex 41.5 2 3
      vertex 41.044 33.6186 3
    endloop
  endfacet
  facet normal 0 0 1
    outer loop
      vertex 37.4493 35.0508 3
      vertex 41.5 2 3
      vertex 39.1688 34.1392 3
    endloop
  endfacet
  facet normal 0 0 1
    outer loop
      vertex 2 2 3
      vertex 37.4493 35.0508 3
      vertex 35.966 36.3107 3
    endloop
  endfacet
  facet normal 0 0 1
    outer loop
      vertex 2 41.5 3
      vertex 35.966 36.3107 3
      vertex 34.7883 37.86 3
    endloop
  endfacet
  facet normal 0 0 1
    outer loop
      vertex 2 41.5 3
      vertex 34.7883 37.86 3
      vertex 33.9711 39.6263 3
    endloop
  endfacet
  facet normal -0 0 1
    outer loop
      vertex 2 41.5 3
      vertex 33.9711 39.6263 3
      vertex 33.5587 41.5 3
    endloop
  endfacet
  facet normal 0 0 1
    outer loop
      vertex 35.966 36.3107 3
      vertex 2 41.5 3
      vertex 2 2 3
    endloop
  endfacet
  facet normal 0 0 1
    outer loop
      vertex 37.4493 35.0508 3
      vertex 2 2 3
      vertex 41.5 2 3
    endloop
  endfacet
  facet normal 0 0 1
    outer loop
      vertex 51.2896 40.5653 3
      vertex 83 41.5 3
      vertex 51.3912 41.5 3
    endloop
  endfacet
  facet normal 0 0 1
    outer loop
      vertex 50.6682 38.721 3
      vertex 83 41.5 3
      vertex 51.2896 40.5653 3
    endloop
  endfacet
  facet normal 0 0 1
    outer loop
      vertex 49.6648 37.0534 3
      vertex 83 41.5 3
      vertex 50.6682 38.721 3
    endloop
  endfacet
  facet normal 0 0 1
    outer loop
      vertex 83 41.5 3
      vertex 49.6648 37.0534 3
      vertex 83 2 3
    endloop
  endfacet
  facet normal -0 0 1
    outer loop
      vertex 48.3265 35.6405 3
      vertex 83 2 3
      vertex 49.6648 37.0534 3
    endloop
  endfacet
  facet normal 0 0 1
    outer loop
      vertex 43.5 2 3
      vertex 48.3265 35.6405 3
      vertex 46.7157 34.5484 3
    endloop
  endfacet
  facet normal 0 0 1
    outer loop
      vertex 43.5 2 3
      vertex 46.7157 34.5484 3
      vertex 44.9078 33.828 3
    endloop
  endfacet
  facet normal 0 0 1
    outer loop
      vertex 43.5 2 3
      vertex 44.9078 33.828 3
      vertex 43.5 33.5973 3
    endloop
  endfacet
  facet normal 0 0 1
    outer loop
      vertex 48.3265 35.6405 3
      vertex 43.5 2 3
      vertex 83 2 3
    endloop
  endfacet
  facet normal -0 0 1
    outer loop
      vertex 52 83 3
      vertex 83 43.5 3
      vertex 83 83 3
    endloop
  endfacet
  facet normal 0 0 1
    outer loop
      vertex 83 43.5 3
      vertex 52 83 3
      vertex 52 43.5 3
    endloop
  endfacet
  facet normal 0 1 -0
    outer loop
      vertex 41.5 2 3
      vertex 2 2 35
      vertex 41.5 2 35
    endloop
  endfacet
  facet normal 0 1 0
    outer loop
      vertex 2 2 35
      vertex 41.5 2 3
      vertex 2 2 3
    endloop
  endfacet
  facet normal 0 1 -0
    outer loop
      vertex 83 2 3
      vertex 43.5 2 35
      vertex 83 2 35
    endloop
  endfacet
  facet normal 0 1 0
    outer loop
      vertex 43.5 2 35
      vertex 83 2 3
      vertex 43.5 2 3
    endloop
  endfacet
  facet normal 0 1 -0
    outer loop
      vertex 33.5587 43.5 3
      vertex 2 43.5 35
      vertex 33.5587 43.5 35
    endloop
  endfacet
  facet normal 0 1 0
    outer loop
      vertex 2 43.5 35
      vertex 33.5587 43.5 3
      vertex 2 43.5 3
    endloop
  endfacet
  facet normal 0 1 -0
    outer loop
      vertex 83 43.5 3
      vertex 52 43.5 35
      vertex 83 43.5 35
    endloop
  endfacet
  facet normal 0 1 0
    outer loop
      vertex 52 43.5 35
      vertex 83 43.5 3
      vertex 52 43.5 3
    endloop
  endfacet
  facet normal 0 -1 0
    outer loop
      vertex 2 41.5 3
      vertex 33.5587 41.5 35
      vertex 2 41.5 35
    endloop
  endfacet
  facet normal 0 -1 -0
    outer loop
      vertex 33.5587 41.5 35
      vertex 2 41.5 3
      vertex 33.5587 41.5 3
    endloop
  endfacet
  facet normal 0 -1 0
    outer loop
      vertex 51.3912 41.5 3
      vertex 83 41.5 35
      vertex 51.3912 41.5 35
    endloop
  endfacet
  facet normal 0 -1 -0
    outer loop
      vertex 83 41.5 35
      vertex 51.3912 41.5 3
      vertex 83 41.5 3
    endloop
  endfacet
  facet normal -1 0 0
    outer loop
      vertex 41.5 2 3
      vertex 41.5 33.5938 35
      vertex 41.5 33.5938 3
    endloop
  endfacet
  facet normal -1 -0 0
    outer loop
      vertex 41.5 33.5938 35
      vertex 41.5 2 3
      vertex 41.5 2 35
    endloop
  endfacet
  facet normal 1 -0 0
    outer loop
      vertex 43.5 2 35
      vertex 43.5 33.5973 3
      vertex 43.5 33.5973 35
    endloop
  endfacet
  facet normal 1 0 0
    outer loop
      vertex 43.5 33.5973 3
      vertex 43.5 2 35
      vertex 43.5 2 3
    endloop
  endfacet
  facet normal -1 0 0
    outer loop
      vertex 50 47.3895 3
      vertex 50 83 35
      vertex 50 83 3
    endloop
  endfacet
  facet normal -1 -0 0
    outer loop
      vertex 50 83 35
      vertex 50 47.3895 3
      vertex 50 47.3895 35
    endloop
  endfacet
  facet normal 1 -0 0
    outer loop
      vertex 52 43.5 35
      vertex 52 83 3
      vertex 52 83 35
    endloop
  endfacet
  facet normal 1 0 0
    outer loop
      vertex 52 83 3
      vertex 52 43.5 35
      vertex 52 43.5 3
    endloop
  endfacet
  facet normal -0.0541388 0.998533 0
    outer loop
      vertex 42.9873 51.4868 3
      vertex 41.044 51.3814 35
      vertex 42.9873 51.4868 35
    endloop
  endfacet
  facet normal -0.0541388 0.998533 0
    outer loop
      vertex 41.044 51.3814 35
      vertex 42.9873 51.4868 3
      vertex 41.044 51.3814 3
    endloop
  endfacet
  facet normal 0.161782 -0.986827 0
    outer loop
      vertex 43.5 33.5973 3
      vertex 44.9078 33.828 35
      vertex 43.5 33.5973 35
    endloop
  endfacet
  facet normal 0.161782 -0.986827 0
    outer loop
      vertex 44.9078 33.828 35
      vertex 43.5 33.5973 3
      vertex 44.9078 33.828 3
    endloop
  endfacet
  facet normal 0.725996 0.687699 0
    outer loop
      vertex 49.6648 47.9466 35
      vertex 48.3265 49.3595 3
      vertex 48.3265 49.3595 35
    endloop
  endfacet
  facet normal 0.725996 0.687699 0
    outer loop
      vertex 48.3265 49.3595 3
      vertex 49.6648 47.9466 35
      vertex 49.6648 47.9466 3
    endloop
  endfacet
  facet normal -0.647386 0.762162 0
    outer loop
      vertex 37.4493 49.9492 3
      vertex 35.966 48.6893 35
      vertex 37.4493 49.9492 35
    endloop
  endfacet
  facet normal -0.647386 0.762162 0
    outer loop
      vertex 35.966 48.6893 35
      vertex 37.4493 49.9492 3
      vertex 35.966 48.6893 3
    endloop
  endfacet
  facet normal -0.267529 0.96355 0
    outer loop
      vertex 41.044 51.3814 3
      vertex 39.1688 50.8608 35
      vertex 41.044 51.3814 35
    endloop
  endfacet
  facet normal -0.267529 0.96355 0
    outer loop
      vertex 39.1688 50.8608 35
      vertex 41.044 51.3814 3
      vertex 39.1688 50.8608 3
    endloop
  endfacet
  facet normal 0.856857 -0.515554 0
    outer loop
      vertex 49.6648 37.0534 35
      vertex 50.6682 38.721 3
      vertex 50.6682 38.721 35
    endloop
  endfacet
  facet normal 0.856857 -0.515554 0
    outer loop
      vertex 50.6682 38.721 3
      vertex 49.6648 37.0534 35
      vertex 49.6648 37.0534 3
    endloop
  endfacet
  facet normal 0.856857 0.515554 0
    outer loop
      vertex 50 47.3895 35
      vertex 49.6648 47.9466 3
      vertex 49.6648 47.9466 35
    endloop
  endfacet
  facet normal 0.856857 0.515554 0
    outer loop
      vertex 49.6648 47.9466 3
      vertex 50 47.3895 35
      vertex 50 47.3895 3
    endloop
  endfacet
  facet normal 0.370139 0.928976 -0
    outer loop
      vertex 46.7157 50.4516 3
      vertex 44.9078 51.172 35
      vertex 46.7157 50.4516 35
    endloop
  endfacet
  facet normal 0.370139 0.928976 0
    outer loop
      vertex 44.9078 51.172 35
      vertex 46.7157 50.4516 3
      vertex 44.9078 51.172 3
    endloop
  endfacet
  facet normal 0.161782 0.986827 -0
    outer loop
      vertex 44.9078 51.172 3
      vertex 42.9873 51.4868 35
      vertex 44.9078 51.172 35
    endloop
  endfacet
  facet normal 0.161782 0.986827 0
    outer loop
      vertex 42.9873 51.4868 35
      vertex 44.9078 51.172 3
      vertex 42.9873 51.4868 3
    endloop
  endfacet
  facet normal 0.561186 0.82769 -0
    outer loop
      vertex 48.3265 49.3595 3
      vertex 46.7157 50.4516 35
      vertex 48.3265 49.3595 35
    endloop
  endfacet
  facet normal 0.561186 0.82769 0
    outer loop
      vertex 46.7157 50.4516 35
      vertex 48.3265 49.3595 3
      vertex 46.7157 50.4516 3
    endloop
  endfacet
  facet normal -0.907576 0.419888 0
    outer loop
      vertex 33.9711 45.3737 3
      vertex 34.7883 47.14 35
      vertex 34.7883 47.14 3
    endloop
  endfacet
  facet normal -0.907576 0.419888 0
    outer loop
      vertex 34.7883 47.14 35
      vertex 33.9711 45.3737 3
      vertex 33.9711 45.3737 35
    endloop
  endfacet
  facet normal -0.796092 0.605175 0
    outer loop
      vertex 34.7883 47.14 3
      vertex 35.966 48.6893 35
      vertex 35.966 48.6893 3
    endloop
  endfacet
  facet normal -0.796092 0.605175 0
    outer loop
      vertex 35.966 48.6893 35
      vertex 34.7883 47.14 3
      vertex 34.7883 47.14 35
    endloop
  endfacet
  facet normal -0.97662 0.214971 0
    outer loop
      vertex 33.5587 43.5 3
      vertex 33.9711 45.3737 35
      vertex 33.9711 45.3737 3
    endloop
  endfacet
  facet normal -0.97662 0.214971 0
    outer loop
      vertex 33.9711 45.3737 35
      vertex 33.5587 43.5 3
      vertex 33.5587 43.5 35
    endloop
  endfacet
  facet normal -0.46841 0.883511 0
    outer loop
      vertex 39.1688 50.8608 3
      vertex 37.4493 49.9492 35
      vertex 39.1688 50.8608 35
    endloop
  endfacet
  facet normal -0.46841 0.883511 0
    outer loop
      vertex 37.4493 49.9492 35
      vertex 39.1688 50.8608 3
      vertex 37.4493 49.9492 3
    endloop
  endfacet
  facet normal 0.994138 -0.108118 0
    outer loop
      vertex 51.2896 40.5653 35
      vertex 51.3912 41.5 3
      vertex 51.3912 41.5 35
    endloop
  endfacet
  facet normal 0.994138 -0.108118 0
    outer loop
      vertex 51.3912 41.5 3
      vertex 51.2896 40.5653 35
      vertex 51.2896 40.5653 3
    endloop
  endfacet
  facet normal 0.947653 -0.319302 0
    outer loop
      vertex 50.6682 38.721 35
      vertex 51.2896 40.5653 3
      vertex 51.2896 40.5653 35
    endloop
  endfacet
  facet normal 0.947653 -0.319302 0
    outer loop
      vertex 51.2896 40.5653 3
      vertex 50.6682 38.721 35
      vertex 50.6682 38.721 3
    endloop
  endfacet
  facet normal -0.796093 -0.605174 0
    outer loop
      vertex 35.966 36.3107 3
      vertex 34.7883 37.86 35
      vertex 34.7883 37.86 3
    endloop
  endfacet
  facet normal -0.796093 -0.605174 0
    outer loop
      vertex 34.7883 37.86 35
      vertex 35.966 36.3107 3
      vertex 35.966 36.3107 35
    endloop
  endfacet
  facet normal 0.725996 -0.687699 0
    outer loop
      vertex 48.3265 35.6405 35
      vertex 49.6648 37.0534 3
      vertex 49.6648 37.0534 35
    endloop
  endfacet
  facet normal 0.725996 -0.687699 0
    outer loop
      vertex 49.6648 37.0534 3
      vertex 48.3265 35.6405 35
      vertex 48.3265 35.6405 3
    endloop
  endfacet
  facet normal -0.0541414 -0.998533 0
    outer loop
      vertex 41.044 33.6186 3
      vertex 41.5 33.5938 35
      vertex 41.044 33.6186 35
    endloop
  endfacet
  facet normal -0.0541414 -0.998533 -0
    outer loop
      vertex 41.5 33.5938 35
      vertex 41.044 33.6186 3
      vertex 41.5 33.5938 3
    endloop
  endfacet
  facet normal -0.647386 -0.762162 0
    outer loop
      vertex 35.966 36.3107 3
      vertex 37.4493 35.0508 35
      vertex 35.966 36.3107 35
    endloop
  endfacet
  facet normal -0.647386 -0.762162 -0
    outer loop
      vertex 37.4493 35.0508 35
      vertex 35.966 36.3107 3
      vertex 37.4493 35.0508 3
    endloop
  endfacet
  facet normal -0.907576 -0.419888 0
    outer loop
      vertex 34.7883 37.86 3
      vertex 33.9711 39.6263 35
      vertex 33.9711 39.6263 3
    endloop
  endfacet
  facet normal -0.907576 -0.419888 0
    outer loop
      vertex 33.9711 39.6263 35
      vertex 34.7883 37.86 3
      vertex 34.7883 37.86 35
    endloop
  endfacet
  facet normal -0.97662 -0.214971 0
    outer loop
      vertex 33.9711 39.6263 3
      vertex 33.5587 41.5 35
      vertex 33.5587 41.5 3
    endloop
  endfacet
  facet normal -0.97662 -0.214971 0
    outer loop
      vertex 33.5587 41.5 35
      vertex 33.9711 39.6263 3
      vertex 33.9711 39.6263 35
    endloop
  endfacet
  facet normal 0.561186 -0.82769 0
    outer loop
      vertex 46.7157 34.5484 3
      vertex 48.3265 35.6405 35
      vertex 46.7157 34.5484 35
    endloop
  endfacet
  facet normal 0.561186 -0.82769 0
    outer loop
      vertex 48.3265 35.6405 35
      vertex 46.7157 34.5484 3
      vertex 48.3265 35.6405 3
    endloop
  endfacet
  facet normal 0.370139 -0.928976 0
    outer loop
      vertex 44.9078 33.828 3
      vertex 46.7157 34.5484 35
      vertex 44.9078 33.828 35
    endloop
  endfacet
  facet normal 0.370139 -0.928976 0
    outer loop
      vertex 46.7157 34.5484 35
      vertex 44.9078 33.828 3
      vertex 46.7157 34.5484 3
    endloop
  endfacet
  facet normal -0.468408 -0.883512 0
    outer loop
      vertex 37.4493 35.0508 3
      vertex 39.1688 34.1392 35
      vertex 37.4493 35.0508 35
    endloop
  endfacet
  facet normal -0.468408 -0.883512 -0
    outer loop
      vertex 39.1688 34.1392 35
      vertex 37.4493 35.0508 3
      vertex 39.1688 34.1392 3
    endloop
  endfacet
  facet normal -0.267529 -0.96355 0
    outer loop
      vertex 39.1688 34.1392 3
      vertex 41.044 33.6186 35
      vertex 39.1688 34.1392 35
    endloop
  endfacet
  facet normal -0.267529 -0.96355 -0
    outer loop
      vertex 41.044 33.6186 35
      vertex 39.1688 34.1392 3
      vertex 41.044 33.6186 3
    endloop
  endfacet
  facet normal -0.992115 -0.125333 0
    outer loop
      vertex 50.2 42.5 31
      vertex 49.9581 44.4149 35
      vertex 49.9581 44.4149 31
    endloop
  endfacet
  facet normal -0.992115 -0.125333 0
    outer loop
      vertex 49.9581 44.4149 35
      vertex 50.2 42.5 31
      vertex 50.2 42.5 35
    endloop
  endfacet
  facet normal 1 -0 0
    outer loop
      vertex 34.8607 41.5349 35
      vertex 34.8607 43.4651 31
      vertex 34.8607 43.4651 35
    endloop
  endfacet
  facet normal 1 0 0
    outer loop
      vertex 34.8607 43.4651 31
      vertex 34.8607 41.5349 35
      vertex 34.8607 41.5349 31
    endloop
  endfacet
  facet normal 0.062792 -0.998027 0
    outer loop
      vertex 41.0572 50.0636 31
      vertex 42.9835 50.1848 35
      vertex 41.0572 50.0636 35
    endloop
  endfacet
  facet normal 0.062792 -0.998027 0
    outer loop
      vertex 42.9835 50.1848 35
      vertex 41.0572 50.0636 31
      vertex 42.9835 50.1848 31
    endloop
  endfacet
  facet normal -0.187381 0.982287 0
    outer loop
      vertex 44.8794 35.1769 31
      vertex 42.9835 34.8152 35
      vertex 44.8794 35.1769 35
    endloop
  endfacet
  facet normal -0.187381 0.982287 0
    outer loop
      vertex 42.9835 34.8152 35
      vertex 44.8794 35.1769 31
      vertex 42.9835 34.8152 31
    endloop
  endfacet
  facet normal -0.637424 -0.770514 0
    outer loop
      vertex 46.6259 49.0013 31
      vertex 48.1131 47.771 35
      vertex 46.6259 49.0013 35
    endloop
  endfacet
  facet normal -0.637424 -0.770514 -0
    outer loop
      vertex 48.1131 47.771 35
      vertex 46.6259 49.0013 31
      vertex 48.1131 47.771 31
    endloop
  endfacet
  facet normal -0.42578 -0.904827 0
    outer loop
      vertex 44.8794 49.8231 31
      vertex 46.6259 49.0013 35
      vertex 44.8794 49.8231 35
    endloop
  endfacet
  facet normal -0.42578 -0.904827 -0
    outer loop
      vertex 46.6259 49.0013 35
      vertex 44.8794 49.8231 31
      vertex 46.6259 49.0013 31
    endloop
  endfacet
  facet normal 0.728969 -0.684547 0
    outer loop
      vertex 36.2706 47.0259 35
      vertex 37.5918 48.433 31
      vertex 37.5918 48.433 35
    endloop
  endfacet
  facet normal 0.728969 -0.684547 0
    outer loop
      vertex 37.5918 48.433 31
      vertex 36.2706 47.0259 35
      vertex 36.2706 47.0259 31
    endloop
  endfacet
  facet normal 0.876307 -0.481753 0
    outer loop
      vertex 35.3407 45.3346 35
      vertex 36.2706 47.0259 31
      vertex 36.2706 47.0259 35
    endloop
  endfacet
  facet normal 0.876307 -0.481753 0
    outer loop
      vertex 36.2706 47.0259 31
      vertex 35.3407 45.3346 35
      vertex 35.3407 45.3346 31
    endloop
  endfacet
  facet normal 0.535826 -0.844329 0
    outer loop
      vertex 37.5918 48.433 31
      vertex 39.2215 49.4672 35
      vertex 37.5918 48.433 35
    endloop
  endfacet
  facet normal 0.535826 -0.844329 0
    outer loop
      vertex 39.2215 49.4672 35
      vertex 37.5918 48.433 31
      vertex 39.2215 49.4672 31
    endloop
  endfacet
  facet normal 0 0 1
    outer loop
      vertex 49.9581 44.4149 31
      vertex 49.9581 40.5851 31
      vertex 50.2 42.5 31
    endloop
  endfacet
  facet normal 0 0 1
    outer loop
      vertex 49.2476 46.2095 31
      vertex 49.9581 40.5851 31
      vertex 49.9581 44.4149 31
    endloop
  endfacet
  facet normal 0 0 1
    outer loop
      vertex 49.2476 46.2095 31
      vertex 49.2476 38.7905 31
      vertex 49.9581 40.5851 31
    endloop
  endfacet
  facet normal 0 0 1
    outer loop
      vertex 48.1131 47.771 31
      vertex 49.2476 38.7905 31
      vertex 49.2476 46.2095 31
    endloop
  endfacet
  facet normal 0 0 1
    outer loop
      vertex 48.1131 47.771 31
      vertex 48.1131 37.229 31
      vertex 49.2476 38.7905 31
    endloop
  endfacet
  facet normal 0 0 1
    outer loop
      vertex 46.6259 49.0013 31
      vertex 48.1131 37.229 31
      vertex 48.1131 47.771 31
    endloop
  endfacet
  facet normal 0 0 1
    outer loop
      vertex 46.6259 49.0013 31
      vertex 46.6259 35.9987 31
      vertex 48.1131 37.229 31
    endloop
  endfacet
  facet normal 0 0 1
    outer loop
      vertex 44.8794 49.8231 31
      vertex 46.6259 35.9987 31
      vertex 46.6259 49.0013 31
    endloop
  endfacet
  facet normal 0 0 1
    outer loop
      vertex 44.8794 49.8231 31
      vertex 44.8794 35.1769 31
      vertex 46.6259 35.9987 31
    endloop
  endfacet
  facet normal 0 0 1
    outer loop
      vertex 42.9835 50.1848 31
      vertex 44.8794 35.1769 31
      vertex 44.8794 49.8231 31
    endloop
  endfacet
  facet normal 0 0 1
    outer loop
      vertex 42.9835 50.1848 31
      vertex 42.9835 34.8152 31
      vertex 44.8794 35.1769 31
    endloop
  endfacet
  facet normal -0 0 1
    outer loop
      vertex 41.0572 50.0636 31
      vertex 42.9835 34.8152 31
      vertex 42.9835 50.1848 31
    endloop
  endfacet
  facet normal 0 0 1
    outer loop
      vertex 41.0572 50.0636 31
      vertex 41.0572 34.9364 31
      vertex 42.9835 34.8152 31
    endloop
  endfacet
  facet normal -0 0 1
    outer loop
      vertex 39.2215 49.4672 31
      vertex 41.0572 34.9364 31
      vertex 41.0572 50.0636 31
    endloop
  endfacet
  facet normal 0 0 1
    outer loop
      vertex 39.2215 49.4672 31
      vertex 39.2215 35.5328 31
      vertex 41.0572 34.9364 31
    endloop
  endfacet
  facet normal -0 0 1
    outer loop
      vertex 37.5918 48.433 31
      vertex 39.2215 35.5328 31
      vertex 39.2215 49.4672 31
    endloop
  endfacet
  facet normal 0 0 1
    outer loop
      vertex 37.5918 48.433 31
      vertex 37.5918 36.567 31
      vertex 39.2215 35.5328 31
    endloop
  endfacet
  facet normal -0 0 1
    outer loop
      vertex 36.2706 47.0259 31
      vertex 37.5918 36.567 31
      vertex 37.5918 48.433 31
    endloop
  endfacet
  facet normal 0 0 1
    outer loop
      vertex 36.2706 47.0259 31
      vertex 36.2706 37.9741 31
      vertex 37.5918 36.567 31
    endloop
  endfacet
  facet normal -0 0 1
    outer loop
      vertex 35.3407 45.3346 31
      vertex 36.2706 37.9741 31
      vertex 36.2706 47.0259 31
    endloop
  endfacet
  facet normal 0 0 1
    outer loop
      vertex 35.3407 45.3346 31
      vertex 35.3407 39.6654 31
      vertex 36.2706 37.9741 31
    endloop
  endfacet
  facet normal -0 0 1
    outer loop
      vertex 34.8607 43.4651 31
      vertex 35.3407 39.6654 31
      vertex 35.3407 45.3346 31
    endloop
  endfacet
  facet normal 0 0 1
    outer loop
      vertex 35.3407 39.6654 31
      vertex 34.8607 43.4651 31
      vertex 34.8607 41.5349 31
    endloop
  endfacet
  facet normal -0.929776 0.368127 0
    outer loop
      vertex 49.2476 38.7905 31
      vertex 49.9581 40.5851 35
      vertex 49.9581 40.5851 31
    endloop
  endfacet
  facet normal -0.929776 0.368127 0
    outer loop
      vertex 49.9581 40.5851 35
      vertex 49.2476 38.7905 31
      vertex 49.2476 38.7905 35
    endloop
  endfacet
  facet normal -0.809018 -0.587784 0
    outer loop
      vertex 49.2476 46.2095 31
      vertex 48.1131 47.771 35
      vertex 48.1131 47.771 31
    endloop
  endfacet
  facet normal -0.809018 -0.587784 0
    outer loop
      vertex 48.1131 47.771 35
      vertex 49.2476 46.2095 31
      vertex 49.2476 46.2095 35
    endloop
  endfacet
  facet normal -0.929776 -0.368126 0
    outer loop
      vertex 49.9581 44.4149 31
      vertex 49.2476 46.2095 35
      vertex 49.2476 46.2095 31
    endloop
  endfacet
  facet normal -0.929776 -0.368126 0
    outer loop
      vertex 49.2476 46.2095 35
      vertex 49.9581 44.4149 31
      vertex 49.9581 44.4149 35
    endloop
  endfacet
  facet normal -0.187381 -0.982287 0
    outer loop
      vertex 42.9835 50.1848 31
      vertex 44.8794 49.8231 35
      vertex 42.9835 50.1848 35
    endloop
  endfacet
  facet normal -0.187381 -0.982287 -0
    outer loop
      vertex 44.8794 49.8231 35
      vertex 42.9835 50.1848 31
      vertex 44.8794 49.8231 31
    endloop
  endfacet
  facet normal 0.968583 -0.24869 0
    outer loop
      vertex 34.8607 43.4651 35
      vertex 35.3407 45.3346 31
      vertex 35.3407 45.3346 35
    endloop
  endfacet
  facet normal 0.968583 -0.24869 0
    outer loop
      vertex 35.3407 45.3346 31
      vertex 34.8607 43.4651 35
      vertex 34.8607 43.4651 31
    endloop
  endfacet
  facet normal 0.309017 -0.951056 0
    outer loop
      vertex 39.2215 49.4672 31
      vertex 41.0572 50.0636 35
      vertex 39.2215 49.4672 35
    endloop
  endfacet
  facet normal 0.309017 -0.951056 0
    outer loop
      vertex 41.0572 50.0636 35
      vertex 39.2215 49.4672 31
      vertex 41.0572 50.0636 31
    endloop
  endfacet
  facet normal -0.992115 0.125333 0
    outer loop
      vertex 49.9581 40.5851 31
      vertex 50.2 42.5 35
      vertex 50.2 42.5 31
    endloop
  endfacet
  facet normal -0.992115 0.125333 0
    outer loop
      vertex 50.2 42.5 35
      vertex 49.9581 40.5851 31
      vertex 49.9581 40.5851 35
    endloop
  endfacet
  facet normal -0.809018 0.587784 0
    outer loop
      vertex 48.1131 37.229 31
      vertex 49.2476 38.7905 35
      vertex 49.2476 38.7905 31
    endloop
  endfacet
  facet normal -0.809018 0.587784 0
    outer loop
      vertex 49.2476 38.7905 35
      vertex 48.1131 37.229 31
      vertex 48.1131 37.229 35
    endloop
  endfacet
  facet normal 0.876307 0.481754 0
    outer loop
      vertex 36.2706 37.9741 35
      vertex 35.3407 39.6654 31
      vertex 35.3407 39.6654 35
    endloop
  endfacet
  facet normal 0.876307 0.481754 0
    outer loop
      vertex 35.3407 39.6654 31
      vertex 36.2706 37.9741 35
      vertex 36.2706 37.9741 31
    endloop
  endfacet
  facet normal 0.968583 0.248689 0
    outer loop
      vertex 35.3407 39.6654 35
      vertex 34.8607 41.5349 31
      vertex 34.8607 41.5349 35
    endloop
  endfacet
  facet normal 0.968583 0.248689 0
    outer loop
      vertex 34.8607 41.5349 31
      vertex 35.3407 39.6654 35
      vertex 35.3407 39.6654 31
    endloop
  endfacet
  facet normal 0.728969 0.684547 0
    outer loop
      vertex 37.5918 36.567 35
      vertex 36.2706 37.9741 31
      vertex 36.2706 37.9741 35
    endloop
  endfacet
  facet normal 0.728969 0.684547 0
    outer loop
      vertex 36.2706 37.9741 31
      vertex 37.5918 36.567 35
      vertex 37.5918 36.567 31
    endloop
  endfacet
  facet normal 0.06279 0.998027 -0
    outer loop
      vertex 42.9835 34.8152 31
      vertex 41.0572 34.9364 35
      vertex 42.9835 34.8152 35
    endloop
  endfacet
  facet normal 0.06279 0.998027 0
    outer loop
      vertex 41.0572 34.9364 35
      vertex 42.9835 34.8152 31
      vertex 41.0572 34.9364 31
    endloop
  endfacet
  facet normal 0.535827 0.844328 -0
    outer loop
      vertex 39.2215 35.5328 31
      vertex 37.5918 36.567 35
      vertex 39.2215 35.5328 35
    endloop
  endfacet
  facet normal 0.535827 0.844328 0
    outer loop
      vertex 37.5918 36.567 35
      vertex 39.2215 35.5328 31
      vertex 37.5918 36.567 31
    endloop
  endfacet
  facet normal 0.309017 0.951056 -0
    outer loop
      vertex 41.0572 34.9364 31
      vertex 39.2215 35.5328 35
      vertex 41.0572 34.9364 35
    endloop
  endfacet
  facet normal 0.309017 0.951056 0
    outer loop
      vertex 39.2215 35.5328 35
      vertex 41.0572 34.9364 31
      vertex 39.2215 35.5328 31
    endloop
  endfacet
  facet normal -0.637425 0.770513 0
    outer loop
      vertex 48.1131 37.229 31
      vertex 46.6259 35.9987 35
      vertex 48.1131 37.229 35
    endloop
  endfacet
  facet normal -0.637425 0.770513 0
    outer loop
      vertex 46.6259 35.9987 35
      vertex 48.1131 37.229 31
      vertex 46.6259 35.9987 31
    endloop
  endfacet
  facet normal -0.425779 0.904827 0
    outer loop
      vertex 46.6259 35.9987 31
      vertex 44.8794 35.1769 35
      vertex 46.6259 35.9987 35
    endloop
  endfacet
  facet normal -0.425779 0.904827 0
    outer loop
      vertex 44.8794 35.1769 35
      vertex 46.6259 35.9987 31
      vertex 44.8794 35.1769 31
    endloop
  endfacet
endsolid OpenSCAD_Model
