solid OpenSCAD_Model
  facet normal -1 0 0
    outer loop
      vertex 0 0 0
      vertex 0 40.25 8
      vertex 0 40.25 0
    endloop
  endfacet
  facet normal -1 -0 0
    outer loop
      vertex 0 40.25 8
      vertex 0 0 0
      vertex 0 0 8
    endloop
  endfacet
  facet normal -1 0 0
    outer loop
      vertex 0 65.25 0
      vertex 0 105.5 8
      vertex 0 105.5 0
    endloop
  endfacet
  facet normal -1 -0 0
    outer loop
      vertex 0 105.5 8
      vertex 0 65.25 0
      vertex 0 65.25 8
    endloop
  endfacet
  facet normal 0 0 1
    outer loop
      vertex 2 40.25 8
      vertex 0 40.25 8
      vertex 2 2 8
    endloop
  endfacet
  facet normal -0 0 1
    outer loop
      vertex 2 2 8
      vertex 40.25 0 8
      vertex 40.25 2 8
    endloop
  endfacet
  facet normal 0 0 1
    outer loop
      vertex 2 2 8
      vertex 0 0 8
      vertex 40.25 0 8
    endloop
  endfacet
  facet normal 0 0 1
    outer loop
      vertex 0 0 8
      vertex 2 2 8
      vertex 0 40.25 8
    endloop
  endfacet
  facet normal 0 0 1
    outer loop
      vertex 103.5 2 8
      vertex 105.5 40.25 8
      vertex 103.5 40.25 8
    endloop
  endfacet
  facet normal 0 0 1
    outer loop
      vertex 105.5 40.25 8
      vertex 103.5 2 8
      vertex 105.5 0 8
    endloop
  endfacet
  facet normal 0 0 1
    outer loop
      vertex 65.25 0 8
      vertex 103.5 2 8
      vertex 65.25 2 8
    endloop
  endfacet
  facet normal 0 0 1
    outer loop
      vertex 103.5 2 8
      vertex 65.25 0 8
      vertex 105.5 0 8
    endloop
  endfacet
  facet normal 0 0 1
    outer loop
      vertex 105.5 105.5 8
      vertex 103.5 103.5 8
      vertex 105.5 65.25 8
    endloop
  endfacet
  facet normal -0 0 1
    outer loop
      vertex 65.25 105.5 8
      vertex 103.5 103.5 8
      vertex 105.5 105.5 8
    endloop
  endfacet
  facet normal 0 0 1
    outer loop
      vertex 103.5 103.5 8
      vertex 65.25 105.5 8
      vertex 65.25 103.5 8
    endloop
  endfacet
  facet normal 0 0 1
    outer loop
      vertex 105.5 65.25 8
      vertex 103.5 103.5 8
      vertex 103.5 65.25 8
    endloop
  endfacet
  facet normal 0 0 1
    outer loop
      vertex 40.25 105.5 8
      vertex 2 103.5 8
      vertex 40.25 103.5 8
    endloop
  endfacet
  facet normal -0 0 1
    outer loop
      vertex 0 105.5 8
      vertex 2 103.5 8
      vertex 40.25 105.5 8
    endloop
  endfacet
  facet normal 0 0 1
    outer loop
      vertex 0 65.25 8
      vertex 2 103.5 8
      vertex 0 105.5 8
    endloop
  endfacet
  facet normal 0 0 1
    outer loop
      vertex 2 103.5 8
      vertex 0 65.25 8
      vertex 2 65.25 8
    endloop
  endfacet
  facet normal 1 -0 0
    outer loop
      vertex 105.5 0 8
      vertex 105.5 40.25 0
      vertex 105.5 40.25 8
    endloop
  endfacet
  facet normal 1 0 0
    outer loop
      vertex 105.5 40.25 0
      vertex 105.5 0 8
      vertex 105.5 0 0
    endloop
  endfacet
  facet normal 1 -0 0
    outer loop
      vertex 105.5 65.25 8
      vertex 105.5 105.5 0
      vertex 105.5 105.5 8
    endloop
  endfacet
  facet normal 1 0 0
    outer loop
      vertex 105.5 105.5 0
      vertex 105.5 65.25 8
      vertex 105.5 65.25 0
    endloop
  endfacet
  facet normal 0 1 -0
    outer loop
      vertex 105.5 105.5 0
      vertex 65.25 105.5 8
      vertex 105.5 105.5 8
    endloop
  endfacet
  facet normal 0 1 0
    outer loop
      vertex 65.25 105.5 8
      vertex 105.5 105.5 0
      vertex 65.25 105.5 0
    endloop
  endfacet
  facet normal 0 1 -0
    outer loop
      vertex 40.25 105.5 0
      vertex 0 105.5 8
      vertex 40.25 105.5 8
    endloop
  endfacet
  facet normal 0 1 0
    outer loop
      vertex 0 105.5 8
      vertex 40.25 105.5 0
      vertex 0 105.5 0
    endloop
  endfacet
  facet normal 0 0 -1
    outer loop
      vertex 105.5 0 0
      vertex 103.5 40.25 0
      vertex 105.5 40.25 0
    endloop
  endfacet
  facet normal 0 0 -1
    outer loop
      vertex 105.5 0 0
      vertex 65.25 2 0
      vertex 103.5 40.25 0
    endloop
  endfacet
  facet normal 0 0 -1
    outer loop
      vertex 65.25 2 0
      vertex 105.5 0 0
      vertex 65.25 0 0
    endloop
  endfacet
  facet normal 0 0 -1
    outer loop
      vertex 103.5 65.25 0
      vertex 105.5 105.5 0
      vertex 105.5 65.25 0
    endloop
  endfacet
  facet normal -0 0 -1
    outer loop
      vertex 103.5 40.25 0
      vertex 65.25 2 0
      vertex 103.5 65.25 0
    endloop
  endfacet
  facet normal 0 0 -1
    outer loop
      vertex 65.25 103.5 0
      vertex 103.5 65.25 0
      vertex 65.25 2 0
    endloop
  endfacet
  facet normal 0 0 -1
    outer loop
      vertex 103.5 65.25 0
      vertex 65.25 103.5 0
      vertex 105.5 105.5 0
    endloop
  endfacet
  facet normal -0 0 -1
    outer loop
      vertex 105.5 105.5 0
      vertex 65.25 103.5 0
      vertex 65.25 105.5 0
    endloop
  endfacet
  facet normal 0 0 -1
    outer loop
      vertex 0 0 0
      vertex 40.25 2 0
      vertex 40.25 0 0
    endloop
  endfacet
  facet normal 0 0 -1
    outer loop
      vertex 40.25 2 0
      vertex 2 40.25 0
      vertex 40.25 103.5 0
    endloop
  endfacet
  facet normal 0 0 -1
    outer loop
      vertex 2 65.25 0
      vertex 40.25 103.5 0
      vertex 2 40.25 0
    endloop
  endfacet
  facet normal -0 0 -1
    outer loop
      vertex 40.25 2 0
      vertex 0 0 0
      vertex 2 40.25 0
    endloop
  endfacet
  facet normal -0 0 -1
    outer loop
      vertex 2 40.25 0
      vertex 0 0 0
      vertex 0 40.25 0
    endloop
  endfacet
  facet normal 0 0 -1
    outer loop
      vertex 40.25 2 0
      vertex 65.25 103.5 0
      vertex 65.25 2 0
    endloop
  endfacet
  facet normal -0 0 -1
    outer loop
      vertex 65.25 103.5 0
      vertex 40.25 2 0
      vertex 40.25 103.5 0
    endloop
  endfacet
  facet normal 0 0 -1
    outer loop
      vertex 0 105.5 0
      vertex 40.25 103.5 0
      vertex 2 65.25 0
    endloop
  endfacet
  facet normal 0 0 -1
    outer loop
      vertex 0 105.5 0
      vertex 2 65.25 0
      vertex 0 65.25 0
    endloop
  endfacet
  facet normal 0 0 -1
    outer loop
      vertex 40.25 103.5 0
      vertex 0 105.5 0
      vertex 40.25 105.5 0
    endloop
  endfacet
  facet normal 0 -1 0
    outer loop
      vertex 0 0 0
      vertex 40.25 0 8
      vertex 0 0 8
    endloop
  endfacet
  facet normal 0 -1 -0
    outer loop
      vertex 40.25 0 8
      vertex 0 0 0
      vertex 40.25 0 0
    endloop
  endfacet
  facet normal 0 -1 0
    outer loop
      vertex 65.25 0 0
      vertex 105.5 0 8
      vertex 65.25 0 8
    endloop
  endfacet
  facet normal 0 -1 -0
    outer loop
      vertex 105.5 0 8
      vertex 65.25 0 0
      vertex 105.5 0 0
    endloop
  endfacet
  facet normal 1 -0 0
    outer loop
      vertex 2 2 8
      vertex 2 40.25 3
      vertex 2 40.25 8
    endloop
  endfacet
  facet normal 1 0 0
    outer loop
      vertex 2 40.25 3
      vertex 2 2 8
      vertex 2 2 3
    endloop
  endfacet
  facet normal 1 -0 0
    outer loop
      vertex 2 65.25 8
      vertex 2 103.5 3
      vertex 2 103.5 8
    endloop
  endfacet
  facet normal 1 0 0
    outer loop
      vertex 2 103.5 3
      vertex 2 65.25 8
      vertex 2 65.25 3
    endloop
  endfacet
  facet normal -1 0 0
    outer loop
      vertex 2 40.25 0
      vertex 2 65.25 3
      vertex 2 65.25 0
    endloop
  endfacet
  facet normal -1 -0 0
    outer loop
      vertex 2 65.25 3
      vertex 2 40.25 0
      vertex 2 40.25 3
    endloop
  endfacet
  facet normal -1 0 0
    outer loop
      vertex 103.5 2 3
      vertex 103.5 40.25 8
      vertex 103.5 40.25 3
    endloop
  endfacet
  facet normal -1 -0 0
    outer loop
      vertex 103.5 40.25 8
      vertex 103.5 2 3
      vertex 103.5 2 8
    endloop
  endfacet
  facet normal -1 0 0
    outer loop
      vertex 103.5 65.25 3
      vertex 103.5 103.5 8
      vertex 103.5 103.5 3
    endloop
  endfacet
  facet normal -1 -0 0
    outer loop
      vertex 103.5 103.5 8
      vertex 103.5 65.25 3
      vertex 103.5 65.25 8
    endloop
  endfacet
  facet normal 1 -0 0
    outer loop
      vertex 103.5 40.25 3
      vertex 103.5 65.25 0
      vertex 103.5 65.25 3
    endloop
  endfacet
  facet normal 1 0 0
    outer loop
      vertex 103.5 65.25 0
      vertex 103.5 40.25 3
      vertex 103.5 40.25 0
    endloop
  endfacet
  facet normal 0 -1 0
    outer loop
      vertex 65.25 103.5 3
      vertex 103.5 103.5 8
      vertex 65.25 103.5 8
    endloop
  endfacet
  facet normal 0 -1 -0
    outer loop
      vertex 103.5 103.5 8
      vertex 65.25 103.5 3
      vertex 103.5 103.5 3
    endloop
  endfacet
  facet normal 0 -1 0
    outer loop
      vertex 2 103.5 3
      vertex 40.25 103.5 8
      vertex 2 103.5 8
    endloop
  endfacet
  facet normal 0 -1 -0
    outer loop
      vertex 40.25 103.5 8
      vertex 2 103.5 3
      vertex 40.25 103.5 3
    endloop
  endfacet
  facet normal 0 1 -0
    outer loop
      vertex 65.25 103.5 0
      vertex 40.25 103.5 3
      vertex 65.25 103.5 3
    endloop
  endfacet
  facet normal 0 1 0
    outer loop
      vertex 40.25 103.5 3
      vertex 65.25 103.5 0
      vertex 40.25 103.5 0
    endloop
  endfacet
  facet normal -0 0 1
    outer loop
      vertex 65.25 103.5 3
      vertex 103.5 65.25 3
      vertex 103.5 103.5 3
    endloop
  endfacet
  facet normal 0 -0 1
    outer loop
      vertex 60.6389 54.6944 3
      vertex 103.5 65.25 3
      vertex 59.9443 56.5259 3
    endloop
  endfacet
  facet normal 0 0 1
    outer loop
      vertex 103.5 65.25 3
      vertex 65.25 103.5 3
      vertex 58.8316 58.1379 3
    endloop
  endfacet
  facet normal 0 0 1
    outer loop
      vertex 103.5 65.25 3
      vertex 60.875 52.75 3
      vertex 103.5 40.25 3
    endloop
  endfacet
  facet normal -0 0 1
    outer loop
      vertex 59.9443 48.9741 3
      vertex 103.5 40.25 3
      vertex 60.6389 50.8056 3
    endloop
  endfacet
  facet normal -0 0 1
    outer loop
      vertex 60.6389 50.8056 3
      vertex 103.5 40.25 3
      vertex 60.875 52.75 3
    endloop
  endfacet
  facet normal 0 -0 1
    outer loop
      vertex 60.875 52.75 3
      vertex 103.5 65.25 3
      vertex 60.6389 54.6944 3
    endloop
  endfacet
  facet normal 0 0 1
    outer loop
      vertex 103.5 65.25 3
      vertex 58.8316 58.1379 3
      vertex 59.9443 56.5259 3
    endloop
  endfacet
  facet normal 0 0 1
    outer loop
      vertex 65.25 103.5 3
      vertex 57.3655 59.4367 3
      vertex 58.8316 58.1379 3
    endloop
  endfacet
  facet normal 0 0 1
    outer loop
      vertex 65.25 103.5 3
      vertex 55.6312 60.347 3
      vertex 57.3655 59.4367 3
    endloop
  endfacet
  facet normal 0 0 1
    outer loop
      vertex 65.25 103.5 3
      vertex 53.7294 60.8158 3
      vertex 55.6312 60.347 3
    endloop
  endfacet
  facet normal 0 0 1
    outer loop
      vertex 65.25 103.5 3
      vertex 51.7706 60.8158 3
      vertex 53.7294 60.8158 3
    endloop
  endfacet
  facet normal -0 0 1
    outer loop
      vertex 40.25 103.5 3
      vertex 51.7706 60.8158 3
      vertex 65.25 103.5 3
    endloop
  endfacet
  facet normal 0 0 1
    outer loop
      vertex 51.7706 60.8158 3
      vertex 40.25 103.5 3
      vertex 49.8688 60.347 3
    endloop
  endfacet
  facet normal 0 0 1
    outer loop
      vertex 49.8688 60.347 3
      vertex 40.25 103.5 3
      vertex 48.1345 59.4367 3
    endloop
  endfacet
  facet normal 0 0 1
    outer loop
      vertex 48.1345 59.4367 3
      vertex 40.25 103.5 3
      vertex 46.6684 58.1379 3
    endloop
  endfacet
  facet normal 0 0 1
    outer loop
      vertex 45.5557 56.5259 3
      vertex 2 65.25 3
      vertex 44.8611 54.6944 3
    endloop
  endfacet
  facet normal 0 0 1
    outer loop
      vertex 46.6684 58.1379 3
      vertex 2 65.25 3
      vertex 45.5557 56.5259 3
    endloop
  endfacet
  facet normal -0 0 1
    outer loop
      vertex 2 65.25 3
      vertex 46.6684 58.1379 3
      vertex 40.25 103.5 3
    endloop
  endfacet
  facet normal -0 0 1
    outer loop
      vertex 58.8316 47.3621 3
      vertex 103.5 40.25 3
      vertex 59.9443 48.9741 3
    endloop
  endfacet
  facet normal 0 -0 1
    outer loop
      vertex 65.25 2 3
      vertex 103.5 40.25 3
      vertex 58.8316 47.3621 3
    endloop
  endfacet
  facet normal 0 0 1
    outer loop
      vertex 103.5 40.25 3
      vertex 65.25 2 3
      vertex 103.5 2 3
    endloop
  endfacet
  facet normal -0 0 1
    outer loop
      vertex 57.3655 46.0633 3
      vertex 65.25 2 3
      vertex 58.8316 47.3621 3
    endloop
  endfacet
  facet normal -0 0 1
    outer loop
      vertex 55.6312 45.153 3
      vertex 65.25 2 3
      vertex 57.3655 46.0633 3
    endloop
  endfacet
  facet normal -0 0 1
    outer loop
      vertex 53.7294 44.6842 3
      vertex 65.25 2 3
      vertex 55.6312 45.153 3
    endloop
  endfacet
  facet normal -0 0 1
    outer loop
      vertex 51.7706 44.6842 3
      vertex 65.25 2 3
      vertex 53.7294 44.6842 3
    endloop
  endfacet
  facet normal 0 0 1
    outer loop
      vertex 40.25 2 3
      vertex 51.7706 44.6842 3
      vertex 49.8688 45.153 3
    endloop
  endfacet
  facet normal 0 0 1
    outer loop
      vertex 40.25 2 3
      vertex 49.8688 45.153 3
      vertex 48.1345 46.0633 3
    endloop
  endfacet
  facet normal 0 0 1
    outer loop
      vertex 40.25 2 3
      vertex 48.1345 46.0633 3
      vertex 46.6684 47.3621 3
    endloop
  endfacet
  facet normal 0 0 1
    outer loop
      vertex 2 40.25 3
      vertex 46.6684 47.3621 3
      vertex 45.5557 48.9741 3
    endloop
  endfacet
  facet normal 0 0 1
    outer loop
      vertex 51.7706 44.6842 3
      vertex 40.25 2 3
      vertex 65.25 2 3
    endloop
  endfacet
  facet normal 0 0 1
    outer loop
      vertex 2 40.25 3
      vertex 45.5557 48.9741 3
      vertex 44.8611 50.8056 3
    endloop
  endfacet
  facet normal 0 0 1
    outer loop
      vertex 2 40.25 3
      vertex 44.8611 50.8056 3
      vertex 44.625 52.75 3
    endloop
  endfacet
  facet normal 0 0 1
    outer loop
      vertex 44.8611 54.6944 3
      vertex 2 65.25 3
      vertex 44.625 52.75 3
    endloop
  endfacet
  facet normal 0 0 1
    outer loop
      vertex 2 65.25 3
      vertex 40.25 103.5 3
      vertex 2 103.5 3
    endloop
  endfacet
  facet normal 0 0 1
    outer loop
      vertex 2 40.25 3
      vertex 44.625 52.75 3
      vertex 2 65.25 3
    endloop
  endfacet
  facet normal 0 0 1
    outer loop
      vertex 46.6684 47.3621 3
      vertex 2 40.25 3
      vertex 40.25 2 3
    endloop
  endfacet
  facet normal 0 0 1
    outer loop
      vertex 40.25 2 3
      vertex 2 40.25 3
      vertex 2 2 3
    endloop
  endfacet
  facet normal 0 1 -0
    outer loop
      vertex 40.25 2 3
      vertex 2 2 8
      vertex 40.25 2 8
    endloop
  endfacet
  facet normal 0 1 0
    outer loop
      vertex 2 2 8
      vertex 40.25 2 3
      vertex 2 2 3
    endloop
  endfacet
  facet normal 0 1 -0
    outer loop
      vertex 103.5 2 3
      vertex 65.25 2 8
      vertex 103.5 2 8
    endloop
  endfacet
  facet normal 0 1 0
    outer loop
      vertex 65.25 2 8
      vertex 103.5 2 3
      vertex 65.25 2 3
    endloop
  endfacet
  facet normal 0 -1 0
    outer loop
      vertex 40.25 2 0
      vertex 65.25 2 3
      vertex 40.25 2 3
    endloop
  endfacet
  facet normal 0 -1 -0
    outer loop
      vertex 65.25 2 3
      vertex 40.25 2 0
      vertex 65.25 2 0
    endloop
  endfacet
  facet normal 1 -0 0
    outer loop
      vertex 40.25 0 8
      vertex 40.25 2 3
      vertex 40.25 2 8
    endloop
  endfacet
  facet normal 1 0 0
    outer loop
      vertex 40.25 0 0
      vertex 40.25 2 3
      vertex 40.25 0 8
    endloop
  endfacet
  facet normal 1 0 0
    outer loop
      vertex 40.25 2 3
      vertex 40.25 0 0
      vertex 40.25 2 0
    endloop
  endfacet
  facet normal -1 0 0
    outer loop
      vertex 65.25 0 0
      vertex 65.25 2 3
      vertex 65.25 2 0
    endloop
  endfacet
  facet normal -1 0 0
    outer loop
      vertex 65.25 0 8
      vertex 65.25 2 3
      vertex 65.25 0 0
    endloop
  endfacet
  facet normal -1 0 0
    outer loop
      vertex 65.25 2 3
      vertex 65.25 0 8
      vertex 65.25 2 8
    endloop
  endfacet
  facet normal 1 0 0
    outer loop
      vertex 40.25 103.5 3
      vertex 40.25 105.5 8
      vertex 40.25 103.5 8
    endloop
  endfacet
  facet normal 1 0 0
    outer loop
      vertex 40.25 105.5 8
      vertex 40.25 103.5 3
      vertex 40.25 105.5 0
    endloop
  endfacet
  facet normal 1 0 0
    outer loop
      vertex 40.25 105.5 0
      vertex 40.25 103.5 3
      vertex 40.25 103.5 0
    endloop
  endfacet
  facet normal -1 0 0
    outer loop
      vertex 65.25 103.5 3
      vertex 65.25 105.5 0
      vertex 65.25 103.5 0
    endloop
  endfacet
  facet normal -1 0 0
    outer loop
      vertex 65.25 105.5 0
      vertex 65.25 103.5 3
      vertex 65.25 105.5 8
    endloop
  endfacet
  facet normal -1 -0 0
    outer loop
      vertex 65.25 105.5 8
      vertex 65.25 103.5 3
      vertex 65.25 103.5 8
    endloop
  endfacet
  facet normal 0 -1 0
    outer loop
      vertex 0 65.25 8
      vertex 2 65.25 3
      vertex 2 65.25 8
    endloop
  endfacet
  facet normal 0 -1 0
    outer loop
      vertex 0 65.25 0
      vertex 2 65.25 3
      vertex 0 65.25 8
    endloop
  endfacet
  facet normal 0 -1 -0
    outer loop
      vertex 2 65.25 3
      vertex 0 65.25 0
      vertex 2 65.25 0
    endloop
  endfacet
  facet normal 0 1 -0
    outer loop
      vertex 2 40.25 3
      vertex 0 40.25 8
      vertex 2 40.25 8
    endloop
  endfacet
  facet normal 0 1 0
    outer loop
      vertex 0 40.25 0
      vertex 2 40.25 3
      vertex 2 40.25 0
    endloop
  endfacet
  facet normal 0 1 0
    outer loop
      vertex 2 40.25 3
      vertex 0 40.25 0
      vertex 0 40.25 8
    endloop
  endfacet
  facet normal 0 -1 0
    outer loop
      vertex 103.5 65.25 3
      vertex 105.5 65.25 8
      vertex 103.5 65.25 8
    endloop
  endfacet
  facet normal 0 -1 0
    outer loop
      vertex 105.5 65.25 0
      vertex 103.5 65.25 3
      vertex 103.5 65.25 0
    endloop
  endfacet
  facet normal 0 -1 0
    outer loop
      vertex 103.5 65.25 3
      vertex 105.5 65.25 0
      vertex 105.5 65.25 8
    endloop
  endfacet
  facet normal 0 1 0
    outer loop
      vertex 105.5 40.25 8
      vertex 103.5 40.25 3
      vertex 103.5 40.25 8
    endloop
  endfacet
  facet normal 0 1 -0
    outer loop
      vertex 105.5 40.25 0
      vertex 103.5 40.25 3
      vertex 105.5 40.25 8
    endloop
  endfacet
  facet normal 0 1 0
    outer loop
      vertex 103.5 40.25 3
      vertex 105.5 40.25 0
      vertex 103.5 40.25 0
    endloop
  endfacet
  facet normal -0.992709 -0.120537 0
    outer loop
      vertex 60.875 52.75 1.6
      vertex 60.6389 54.6944 3
      vertex 60.6389 54.6944 1.6
    endloop
  endfacet
  facet normal -0.992709 -0.120537 0
    outer loop
      vertex 60.6389 54.6944 3
      vertex 60.875 52.75 1.6
      vertex 60.875 52.75 3
    endloop
  endfacet
  facet normal 0.239315 -0.970942 0
    outer loop
      vertex 49.8688 60.347 1.6
      vertex 51.7706 60.8158 3
      vertex 49.8688 60.347 3
    endloop
  endfacet
  facet normal 0.239315 -0.970942 0
    outer loop
      vertex 51.7706 60.8158 3
      vertex 49.8688 60.347 1.6
      vertex 51.7706 60.8158 1.6
    endloop
  endfacet
  facet normal -0.239314 0.970942 0
    outer loop
      vertex 55.6312 45.153 1.6
      vertex 53.7294 44.6842 3
      vertex 55.6312 45.153 3
    endloop
  endfacet
  facet normal -0.239314 0.970942 0
    outer loop
      vertex 53.7294 44.6842 3
      vertex 55.6312 45.153 1.6
      vertex 53.7294 44.6842 1.6
    endloop
  endfacet
  facet normal -0.464724 -0.885456 0
    outer loop
      vertex 55.6312 60.347 1.6
      vertex 57.3655 59.4367 3
      vertex 55.6312 60.347 3
    endloop
  endfacet
  facet normal -0.464724 -0.885456 -0
    outer loop
      vertex 57.3655 59.4367 3
      vertex 55.6312 60.347 1.6
      vertex 57.3655 59.4367 1.6
    endloop
  endfacet
  facet normal -0.239314 -0.970942 0
    outer loop
      vertex 53.7294 60.8158 1.6
      vertex 55.6312 60.347 3
      vertex 53.7294 60.8158 3
    endloop
  endfacet
  facet normal -0.239314 -0.970942 -0
    outer loop
      vertex 55.6312 60.347 3
      vertex 53.7294 60.8158 1.6
      vertex 55.6312 60.347 1.6
    endloop
  endfacet
  facet normal 0.822984 -0.568064 0
    outer loop
      vertex 45.5557 56.5259 3
      vertex 46.6684 58.1379 1.6
      vertex 46.6684 58.1379 3
    endloop
  endfacet
  facet normal 0.822984 -0.568064 0
    outer loop
      vertex 46.6684 58.1379 1.6
      vertex 45.5557 56.5259 3
      vertex 45.5557 56.5259 1.6
    endloop
  endfacet
  facet normal 0.935016 -0.354605 0
    outer loop
      vertex 44.8611 54.6944 3
      vertex 45.5557 56.5259 1.6
      vertex 45.5557 56.5259 3
    endloop
  endfacet
  facet normal 0.935016 -0.354605 0
    outer loop
      vertex 45.5557 56.5259 1.6
      vertex 44.8611 54.6944 3
      vertex 44.8611 54.6944 1.6
    endloop
  endfacet
  facet normal 0.663123 -0.748511 0
    outer loop
      vertex 46.6684 58.1379 1.6
      vertex 48.1345 59.4367 3
      vertex 46.6684 58.1379 3
    endloop
  endfacet
  facet normal 0.663123 -0.748511 0
    outer loop
      vertex 48.1345 59.4367 3
      vertex 46.6684 58.1379 1.6
      vertex 48.1345 59.4367 1.6
    endloop
  endfacet
  facet normal -0.935016 0.354605 0
    outer loop
      vertex 59.9443 48.9741 1.6
      vertex 60.6389 50.8056 3
      vertex 60.6389 50.8056 1.6
    endloop
  endfacet
  facet normal -0.935016 0.354605 0
    outer loop
      vertex 60.6389 50.8056 3
      vertex 59.9443 48.9741 1.6
      vertex 59.9443 48.9741 3
    endloop
  endfacet
  facet normal -0.822984 -0.568064 0
    outer loop
      vertex 59.9443 56.5259 1.6
      vertex 58.8316 58.1379 3
      vertex 58.8316 58.1379 1.6
    endloop
  endfacet
  facet normal -0.822984 -0.568064 0
    outer loop
      vertex 58.8316 58.1379 3
      vertex 59.9443 56.5259 1.6
      vertex 59.9443 56.5259 3
    endloop
  endfacet
  facet normal -0.935016 -0.354605 0
    outer loop
      vertex 60.6389 54.6944 1.6
      vertex 59.9443 56.5259 3
      vertex 59.9443 56.5259 1.6
    endloop
  endfacet
  facet normal -0.935016 -0.354605 0
    outer loop
      vertex 59.9443 56.5259 3
      vertex 60.6389 54.6944 1.6
      vertex 60.6389 54.6944 3
    endloop
  endfacet
  facet normal -0.663123 -0.748511 0
    outer loop
      vertex 57.3655 59.4367 1.6
      vertex 58.8316 58.1379 3
      vertex 57.3655 59.4367 3
    endloop
  endfacet
  facet normal -0.663123 -0.748511 -0
    outer loop
      vertex 58.8316 58.1379 3
      vertex 57.3655 59.4367 1.6
      vertex 58.8316 58.1379 1.6
    endloop
  endfacet
  facet normal 0 -1 0
    outer loop
      vertex 51.7706 60.8158 1.6
      vertex 53.7294 60.8158 3
      vertex 51.7706 60.8158 3
    endloop
  endfacet
  facet normal 0 -1 -0
    outer loop
      vertex 53.7294 60.8158 3
      vertex 51.7706 60.8158 1.6
      vertex 53.7294 60.8158 1.6
    endloop
  endfacet
  facet normal 0 0 1
    outer loop
      vertex 60.6389 54.6944 1.6
      vertex 60.6389 50.8056 1.6
      vertex 60.875 52.75 1.6
    endloop
  endfacet
  facet normal 0 0 1
    outer loop
      vertex 59.9443 56.5259 1.6
      vertex 60.6389 50.8056 1.6
      vertex 60.6389 54.6944 1.6
    endloop
  endfacet
  facet normal 0 0 1
    outer loop
      vertex 59.9443 56.5259 1.6
      vertex 59.9443 48.9741 1.6
      vertex 60.6389 50.8056 1.6
    endloop
  endfacet
  facet normal 0 0 1
    outer loop
      vertex 58.8316 58.1379 1.6
      vertex 59.9443 48.9741 1.6
      vertex 59.9443 56.5259 1.6
    endloop
  endfacet
  facet normal 0 0 1
    outer loop
      vertex 58.8316 58.1379 1.6
      vertex 58.8316 47.3621 1.6
      vertex 59.9443 48.9741 1.6
    endloop
  endfacet
  facet normal 0 0 1
    outer loop
      vertex 57.3655 59.4367 1.6
      vertex 58.8316 47.3621 1.6
      vertex 58.8316 58.1379 1.6
    endloop
  endfacet
  facet normal 0 0 1
    outer loop
      vertex 57.3655 59.4367 1.6
      vertex 57.3655 46.0633 1.6
      vertex 58.8316 47.3621 1.6
    endloop
  endfacet
  facet normal 0 0 1
    outer loop
      vertex 55.6312 60.347 1.6
      vertex 57.3655 46.0633 1.6
      vertex 57.3655 59.4367 1.6
    endloop
  endfacet
  facet normal 0 0 1
    outer loop
      vertex 55.6312 60.347 1.6
      vertex 55.6312 45.153 1.6
      vertex 57.3655 46.0633 1.6
    endloop
  endfacet
  facet normal 0 0 1
    outer loop
      vertex 53.7294 60.8158 1.6
      vertex 55.6312 45.153 1.6
      vertex 55.6312 60.347 1.6
    endloop
  endfacet
  facet normal 0 0 1
    outer loop
      vertex 53.7294 60.8158 1.6
      vertex 53.7294 44.6842 1.6
      vertex 55.6312 45.153 1.6
    endloop
  endfacet
  facet normal -0 0 1
    outer loop
      vertex 51.7706 60.8158 1.6
      vertex 53.7294 44.6842 1.6
      vertex 53.7294 60.8158 1.6
    endloop
  endfacet
  facet normal 0 0 1
    outer loop
      vertex 51.7706 60.8158 1.6
      vertex 51.7706 44.6842 1.6
      vertex 53.7294 44.6842 1.6
    endloop
  endfacet
  facet normal -0 0 1
    outer loop
      vertex 49.8688 60.347 1.6
      vertex 51.7706 44.6842 1.6
      vertex 51.7706 60.8158 1.6
    endloop
  endfacet
  facet normal 0 0 1
    outer loop
      vertex 49.8688 60.347 1.6
      vertex 49.8688 45.153 1.6
      vertex 51.7706 44.6842 1.6
    endloop
  endfacet
  facet normal -0 0 1
    outer loop
      vertex 48.1345 59.4367 1.6
      vertex 49.8688 45.153 1.6
      vertex 49.8688 60.347 1.6
    endloop
  endfacet
  facet normal 0 0 1
    outer loop
      vertex 48.1345 59.4367 1.6
      vertex 48.1345 46.0633 1.6
      vertex 49.8688 45.153 1.6
    endloop
  endfacet
  facet normal -0 0 1
    outer loop
      vertex 46.6684 58.1379 1.6
      vertex 48.1345 46.0633 1.6
      vertex 48.1345 59.4367 1.6
    endloop
  endfacet
  facet normal 0 0 1
    outer loop
      vertex 46.6684 58.1379 1.6
      vertex 46.6684 47.3621 1.6
      vertex 48.1345 46.0633 1.6
    endloop
  endfacet
  facet normal -0 0 1
    outer loop
      vertex 45.5557 56.5259 1.6
      vertex 46.6684 47.3621 1.6
      vertex 46.6684 58.1379 1.6
    endloop
  endfacet
  facet normal 0 0 1
    outer loop
      vertex 45.5557 56.5259 1.6
      vertex 45.5557 48.9741 1.6
      vertex 46.6684 47.3621 1.6
    endloop
  endfacet
  facet normal -0 0 1
    outer loop
      vertex 44.8611 54.6944 1.6
      vertex 45.5557 48.9741 1.6
      vertex 45.5557 56.5259 1.6
    endloop
  endfacet
  facet normal 0 0 1
    outer loop
      vertex 44.8611 54.6944 1.6
      vertex 44.8611 50.8056 1.6
      vertex 45.5557 48.9741 1.6
    endloop
  endfacet
  facet normal 0 -0 1
    outer loop
      vertex 44.8611 50.8056 1.6
      vertex 44.8611 54.6944 1.6
      vertex 44.625 52.75 1.6
    endloop
  endfacet
  facet normal 0.992709 -0.120537 0
    outer loop
      vertex 44.625 52.75 3
      vertex 44.8611 54.6944 1.6
      vertex 44.8611 54.6944 3
    endloop
  endfacet
  facet normal 0.992709 -0.120537 0
    outer loop
      vertex 44.8611 54.6944 1.6
      vertex 44.625 52.75 3
      vertex 44.625 52.75 1.6
    endloop
  endfacet
  facet normal 0.464724 -0.885456 0
    outer loop
      vertex 48.1345 59.4367 1.6
      vertex 49.8688 60.347 3
      vertex 48.1345 59.4367 3
    endloop
  endfacet
  facet normal 0.464724 -0.885456 0
    outer loop
      vertex 49.8688 60.347 3
      vertex 48.1345 59.4367 1.6
      vertex 49.8688 60.347 1.6
    endloop
  endfacet
  facet normal -0.822984 0.568064 0
    outer loop
      vertex 58.8316 47.3621 1.6
      vertex 59.9443 48.9741 3
      vertex 59.9443 48.9741 1.6
    endloop
  endfacet
  facet normal -0.822984 0.568064 0
    outer loop
      vertex 59.9443 48.9741 3
      vertex 58.8316 47.3621 1.6
      vertex 58.8316 47.3621 3
    endloop
  endfacet
  facet normal 0.992709 0.120537 0
    outer loop
      vertex 44.8611 50.8056 3
      vertex 44.625 52.75 1.6
      vertex 44.625 52.75 3
    endloop
  endfacet
  facet normal 0.992709 0.120537 0
    outer loop
      vertex 44.625 52.75 1.6
      vertex 44.8611 50.8056 3
      vertex 44.8611 50.8056 1.6
    endloop
  endfacet
  facet normal -0.992709 0.120537 0
    outer loop
      vertex 60.6389 50.8056 1.6
      vertex 60.875 52.75 3
      vertex 60.875 52.75 1.6
    endloop
  endfacet
  facet normal -0.992709 0.120537 0
    outer loop
      vertex 60.875 52.75 3
      vertex 60.6389 50.8056 1.6
      vertex 60.6389 50.8056 3
    endloop
  endfacet
  facet normal 0.239315 0.970942 -0
    outer loop
      vertex 51.7706 44.6842 1.6
      vertex 49.8688 45.153 3
      vertex 51.7706 44.6842 3
    endloop
  endfacet
  facet normal 0.239315 0.970942 0
    outer loop
      vertex 49.8688 45.153 3
      vertex 51.7706 44.6842 1.6
      vertex 49.8688 45.153 1.6
    endloop
  endfacet
  facet normal 0.663123 0.748511 -0
    outer loop
      vertex 48.1345 46.0633 1.6
      vertex 46.6684 47.3621 3
      vertex 48.1345 46.0633 3
    endloop
  endfacet
  facet normal 0.663123 0.748511 0
    outer loop
      vertex 46.6684 47.3621 3
      vertex 48.1345 46.0633 1.6
      vertex 46.6684 47.3621 1.6
    endloop
  endfacet
  facet normal 0.935016 0.354605 0
    outer loop
      vertex 45.5557 48.9741 3
      vertex 44.8611 50.8056 1.6
      vertex 44.8611 50.8056 3
    endloop
  endfacet
  facet normal 0.935016 0.354605 0
    outer loop
      vertex 44.8611 50.8056 1.6
      vertex 45.5557 48.9741 3
      vertex 45.5557 48.9741 1.6
    endloop
  endfacet
  facet normal -0.464724 0.885456 0
    outer loop
      vertex 57.3655 46.0633 1.6
      vertex 55.6312 45.153 3
      vertex 57.3655 46.0633 3
    endloop
  endfacet
  facet normal -0.464724 0.885456 0
    outer loop
      vertex 55.6312 45.153 3
      vertex 57.3655 46.0633 1.6
      vertex 55.6312 45.153 1.6
    endloop
  endfacet
  facet normal 0 1 -0
    outer loop
      vertex 53.7294 44.6842 1.6
      vertex 51.7706 44.6842 3
      vertex 53.7294 44.6842 3
    endloop
  endfacet
  facet normal 0 1 0
    outer loop
      vertex 51.7706 44.6842 3
      vertex 53.7294 44.6842 1.6
      vertex 51.7706 44.6842 1.6
    endloop
  endfacet
  facet normal 0.464724 0.885456 -0
    outer loop
      vertex 49.8688 45.153 1.6
      vertex 48.1345 46.0633 3
      vertex 49.8688 45.153 3
    endloop
  endfacet
  facet normal 0.464724 0.885456 0
    outer loop
      vertex 48.1345 46.0633 3
      vertex 49.8688 45.153 1.6
      vertex 48.1345 46.0633 1.6
    endloop
  endfacet
  facet normal 0.822984 0.568064 0
    outer loop
      vertex 46.6684 47.3621 3
      vertex 45.5557 48.9741 1.6
      vertex 45.5557 48.9741 3
    endloop
  endfacet
  facet normal 0.822984 0.568064 0
    outer loop
      vertex 45.5557 48.9741 1.6
      vertex 46.6684 47.3621 3
      vertex 46.6684 47.3621 1.6
    endloop
  endfacet
  facet normal -0.663123 0.748511 0
    outer loop
      vertex 58.8316 47.3621 1.6
      vertex 57.3655 46.0633 3
      vertex 58.8316 47.3621 3
    endloop
  endfacet
  facet normal -0.663123 0.748511 0
    outer loop
      vertex 57.3655 46.0633 3
      vertex 58.8316 47.3621 1.6
      vertex 57.3655 46.0633 1.6
    endloop
  endfacet
endsolid OpenSCAD_Model
