solid OpenSCAD_Model
  facet normal -1 0 0
    outer loop
      vertex 0 0 0
      vertex 0 97 4.5
      vertex 0 97 0
    endloop
  endfacet
  facet normal -1 -0 0
    outer loop
      vertex 0 97 4.5
      vertex 0 0 0
      vertex 0 0 4.5
    endloop
  endfacet
  facet normal 0 0 1
    outer loop
      vertex 94 97 4.5
      vertex 92 95 4.5
      vertex 94 0 4.5
    endloop
  endfacet
  facet normal 0 0 1
    outer loop
      vertex 94 97 4.5
      vertex 2 95 4.5
      vertex 92 95 4.5
    endloop
  endfacet
  facet normal 0 0 1
    outer loop
      vertex 2 95 4.5
      vertex 0 97 4.5
      vertex 2 2 4.5
    endloop
  endfacet
  facet normal -0 0 1
    outer loop
      vertex 0 97 4.5
      vertex 2 95 4.5
      vertex 94 97 4.5
    endloop
  endfacet
  facet normal -0 0 1
    outer loop
      vertex 92 2 4.5
      vertex 94 0 4.5
      vertex 92 95 4.5
    endloop
  endfacet
  facet normal -0 0 1
    outer loop
      vertex 2 2 4.5
      vertex 94 0 4.5
      vertex 92 2 4.5
    endloop
  endfacet
  facet normal 0 0 1
    outer loop
      vertex 2 2 4.5
      vertex 0 0 4.5
      vertex 94 0 4.5
    endloop
  endfacet
  facet normal 0 0 1
    outer loop
      vertex 0 0 4.5
      vertex 2 2 4.5
      vertex 0 97 4.5
    endloop
  endfacet
  facet normal 1 -0 0
    outer loop
      vertex 94 0 4.5
      vertex 94 97 0
      vertex 94 97 4.5
    endloop
  endfacet
  facet normal 1 0 0
    outer loop
      vertex 94 97 0
      vertex 94 0 4.5
      vertex 94 0 0
    endloop
  endfacet
  facet normal 0 1 -0
    outer loop
      vertex 94 97 0
      vertex 0 97 4.5
      vertex 94 97 4.5
    endloop
  endfacet
  facet normal 0 1 0
    outer loop
      vertex 0 97 4.5
      vertex 94 97 0
      vertex 0 97 0
    endloop
  endfacet
  facet normal 0 0 -1
    outer loop
      vertex 0 0 0
      vertex 94 97 0
      vertex 94 0 0
    endloop
  endfacet
  facet normal -0 0 -1
    outer loop
      vertex 94 97 0
      vertex 0 0 0
      vertex 0 97 0
    endloop
  endfacet
  facet normal 0 -1 0
    outer loop
      vertex 0 0 0
      vertex 94 0 4.5
      vertex 0 0 4.5
    endloop
  endfacet
  facet normal 0 -1 -0
    outer loop
      vertex 94 0 4.5
      vertex 0 0 0
      vertex 94 0 0
    endloop
  endfacet
  facet normal -0.822984 -0.568064 0
    outer loop
      vertex 54.1943 52.2759 1.6
      vertex 53.0816 53.8879 3
      vertex 53.0816 53.8879 1.6
    endloop
  endfacet
  facet normal -0.822984 -0.568064 0
    outer loop
      vertex 53.0816 53.8879 3
      vertex 54.1943 52.2759 1.6
      vertex 54.1943 52.2759 3
    endloop
  endfacet
  facet normal -0.992709 -0.120537 0
    outer loop
      vertex 55.125 48.5 1.6
      vertex 54.8889 50.4444 3
      vertex 54.8889 50.4444 1.6
    endloop
  endfacet
  facet normal -0.992709 -0.120537 0
    outer loop
      vertex 54.8889 50.4444 3
      vertex 55.125 48.5 1.6
      vertex 55.125 48.5 3
    endloop
  endfacet
  facet normal 0 0 1
    outer loop
      vertex 54.8889 50.4444 1.6
      vertex 54.8889 46.5556 1.6
      vertex 55.125 48.5 1.6
    endloop
  endfacet
  facet normal 0 0 1
    outer loop
      vertex 54.1943 52.2759 1.6
      vertex 54.8889 46.5556 1.6
      vertex 54.8889 50.4444 1.6
    endloop
  endfacet
  facet normal 0 0 1
    outer loop
      vertex 54.1943 52.2759 1.6
      vertex 54.1943 44.7241 1.6
      vertex 54.8889 46.5556 1.6
    endloop
  endfacet
  facet normal 0 0 1
    outer loop
      vertex 53.0816 53.8879 1.6
      vertex 54.1943 44.7241 1.6
      vertex 54.1943 52.2759 1.6
    endloop
  endfacet
  facet normal 0 0 1
    outer loop
      vertex 53.0816 53.8879 1.6
      vertex 53.0816 43.1121 1.6
      vertex 54.1943 44.7241 1.6
    endloop
  endfacet
  facet normal 0 0 1
    outer loop
      vertex 51.6155 55.1867 1.6
      vertex 53.0816 43.1121 1.6
      vertex 53.0816 53.8879 1.6
    endloop
  endfacet
  facet normal 0 0 1
    outer loop
      vertex 51.6155 55.1867 1.6
      vertex 51.6155 41.8133 1.6
      vertex 53.0816 43.1121 1.6
    endloop
  endfacet
  facet normal 0 0 1
    outer loop
      vertex 49.8812 56.097 1.6
      vertex 51.6155 41.8133 1.6
      vertex 51.6155 55.1867 1.6
    endloop
  endfacet
  facet normal 0 0 1
    outer loop
      vertex 49.8812 56.097 1.6
      vertex 49.8812 40.903 1.6
      vertex 51.6155 41.8133 1.6
    endloop
  endfacet
  facet normal 0 0 1
    outer loop
      vertex 47.9794 56.5658 1.6
      vertex 49.8812 40.903 1.6
      vertex 49.8812 56.097 1.6
    endloop
  endfacet
  facet normal 0 0 1
    outer loop
      vertex 47.9794 56.5658 1.6
      vertex 47.9794 40.4342 1.6
      vertex 49.8812 40.903 1.6
    endloop
  endfacet
  facet normal -0 0 1
    outer loop
      vertex 46.0206 56.5658 1.6
      vertex 47.9794 40.4342 1.6
      vertex 47.9794 56.5658 1.6
    endloop
  endfacet
  facet normal 0 0 1
    outer loop
      vertex 46.0206 56.5658 1.6
      vertex 46.0206 40.4342 1.6
      vertex 47.9794 40.4342 1.6
    endloop
  endfacet
  facet normal -0 0 1
    outer loop
      vertex 44.1188 56.097 1.6
      vertex 46.0206 40.4342 1.6
      vertex 46.0206 56.5658 1.6
    endloop
  endfacet
  facet normal 0 0 1
    outer loop
      vertex 44.1188 56.097 1.6
      vertex 44.1188 40.903 1.6
      vertex 46.0206 40.4342 1.6
    endloop
  endfacet
  facet normal -0 0 1
    outer loop
      vertex 42.3845 55.1867 1.6
      vertex 44.1188 40.903 1.6
      vertex 44.1188 56.097 1.6
    endloop
  endfacet
  facet normal 0 0 1
    outer loop
      vertex 42.3845 55.1867 1.6
      vertex 42.3845 41.8133 1.6
      vertex 44.1188 40.903 1.6
    endloop
  endfacet
  facet normal -0 0 1
    outer loop
      vertex 40.9184 53.8879 1.6
      vertex 42.3845 41.8133 1.6
      vertex 42.3845 55.1867 1.6
    endloop
  endfacet
  facet normal 0 0 1
    outer loop
      vertex 40.9184 53.8879 1.6
      vertex 40.9184 43.1121 1.6
      vertex 42.3845 41.8133 1.6
    endloop
  endfacet
  facet normal -0 0 1
    outer loop
      vertex 39.8057 52.2759 1.6
      vertex 40.9184 43.1121 1.6
      vertex 40.9184 53.8879 1.6
    endloop
  endfacet
  facet normal 0 0 1
    outer loop
      vertex 39.8057 52.2759 1.6
      vertex 39.8057 44.7241 1.6
      vertex 40.9184 43.1121 1.6
    endloop
  endfacet
  facet normal -0 0 1
    outer loop
      vertex 39.1111 50.4444 1.6
      vertex 39.8057 44.7241 1.6
      vertex 39.8057 52.2759 1.6
    endloop
  endfacet
  facet normal 0 0 1
    outer loop
      vertex 39.1111 50.4444 1.6
      vertex 39.1111 46.5556 1.6
      vertex 39.8057 44.7241 1.6
    endloop
  endfacet
  facet normal 0 -0 1
    outer loop
      vertex 39.1111 46.5556 1.6
      vertex 39.1111 50.4444 1.6
      vertex 38.875 48.5 1.6
    endloop
  endfacet
  facet normal -0.663123 -0.748511 0
    outer loop
      vertex 51.6155 55.1867 1.6
      vertex 53.0816 53.8879 3
      vertex 51.6155 55.1867 3
    endloop
  endfacet
  facet normal -0.663123 -0.748511 -0
    outer loop
      vertex 53.0816 53.8879 3
      vertex 51.6155 55.1867 1.6
      vertex 53.0816 53.8879 1.6
    endloop
  endfacet
  facet normal 0.663123 -0.748511 0
    outer loop
      vertex 40.9184 53.8879 1.6
      vertex 42.3845 55.1867 3
      vertex 40.9184 53.8879 3
    endloop
  endfacet
  facet normal 0.663123 -0.748511 0
    outer loop
      vertex 42.3845 55.1867 3
      vertex 40.9184 53.8879 1.6
      vertex 42.3845 55.1867 1.6
    endloop
  endfacet
  facet normal 0.822984 -0.568064 0
    outer loop
      vertex 39.8057 52.2759 3
      vertex 40.9184 53.8879 1.6
      vertex 40.9184 53.8879 3
    endloop
  endfacet
  facet normal 0.822984 -0.568064 0
    outer loop
      vertex 40.9184 53.8879 1.6
      vertex 39.8057 52.2759 3
      vertex 39.8057 52.2759 1.6
    endloop
  endfacet
  facet normal -0.464724 0.885456 0
    outer loop
      vertex 51.6155 41.8133 1.6
      vertex 49.8812 40.903 3
      vertex 51.6155 41.8133 3
    endloop
  endfacet
  facet normal -0.464724 0.885456 0
    outer loop
      vertex 49.8812 40.903 3
      vertex 51.6155 41.8133 1.6
      vertex 49.8812 40.903 1.6
    endloop
  endfacet
  facet normal -0.935016 -0.354605 0
    outer loop
      vertex 54.8889 50.4444 1.6
      vertex 54.1943 52.2759 3
      vertex 54.1943 52.2759 1.6
    endloop
  endfacet
  facet normal -0.935016 -0.354605 0
    outer loop
      vertex 54.1943 52.2759 3
      vertex 54.8889 50.4444 1.6
      vertex 54.8889 50.4444 3
    endloop
  endfacet
  facet normal -0.464724 -0.885456 0
    outer loop
      vertex 49.8812 56.097 1.6
      vertex 51.6155 55.1867 3
      vertex 49.8812 56.097 3
    endloop
  endfacet
  facet normal -0.464724 -0.885456 -0
    outer loop
      vertex 51.6155 55.1867 3
      vertex 49.8812 56.097 1.6
      vertex 51.6155 55.1867 1.6
    endloop
  endfacet
  facet normal 0.239315 -0.970942 0
    outer loop
      vertex 44.1188 56.097 1.6
      vertex 46.0206 56.5658 3
      vertex 44.1188 56.097 3
    endloop
  endfacet
  facet normal 0.239315 -0.970942 0
    outer loop
      vertex 46.0206 56.5658 3
      vertex 44.1188 56.097 1.6
      vertex 46.0206 56.5658 1.6
    endloop
  endfacet
  facet normal -0.239314 -0.970942 0
    outer loop
      vertex 47.9794 56.5658 1.6
      vertex 49.8812 56.097 3
      vertex 47.9794 56.5658 3
    endloop
  endfacet
  facet normal -0.239314 -0.970942 -0
    outer loop
      vertex 49.8812 56.097 3
      vertex 47.9794 56.5658 1.6
      vertex 49.8812 56.097 1.6
    endloop
  endfacet
  facet normal 0.992709 0.120537 0
    outer loop
      vertex 39.1111 46.5556 3
      vertex 38.875 48.5 1.6
      vertex 38.875 48.5 3
    endloop
  endfacet
  facet normal 0.992709 0.120537 0
    outer loop
      vertex 38.875 48.5 1.6
      vertex 39.1111 46.5556 3
      vertex 39.1111 46.5556 1.6
    endloop
  endfacet
  facet normal 0.935016 -0.354605 0
    outer loop
      vertex 39.1111 50.4444 3
      vertex 39.8057 52.2759 1.6
      vertex 39.8057 52.2759 3
    endloop
  endfacet
  facet normal 0.935016 -0.354605 0
    outer loop
      vertex 39.8057 52.2759 1.6
      vertex 39.1111 50.4444 3
      vertex 39.1111 50.4444 1.6
    endloop
  endfacet
  facet normal 0.464724 -0.885456 0
    outer loop
      vertex 42.3845 55.1867 1.6
      vertex 44.1188 56.097 3
      vertex 42.3845 55.1867 3
    endloop
  endfacet
  facet normal 0.464724 -0.885456 0
    outer loop
      vertex 44.1188 56.097 3
      vertex 42.3845 55.1867 1.6
      vertex 44.1188 56.097 1.6
    endloop
  endfacet
  facet normal 0.663123 0.748511 -0
    outer loop
      vertex 42.3845 41.8133 1.6
      vertex 40.9184 43.1121 3
      vertex 42.3845 41.8133 3
    endloop
  endfacet
  facet normal 0.663123 0.748511 0
    outer loop
      vertex 40.9184 43.1121 3
      vertex 42.3845 41.8133 1.6
      vertex 40.9184 43.1121 1.6
    endloop
  endfacet
  facet normal -0.822984 0.568064 0
    outer loop
      vertex 53.0816 43.1121 1.6
      vertex 54.1943 44.7241 3
      vertex 54.1943 44.7241 1.6
    endloop
  endfacet
  facet normal -0.822984 0.568064 0
    outer loop
      vertex 54.1943 44.7241 3
      vertex 53.0816 43.1121 1.6
      vertex 53.0816 43.1121 3
    endloop
  endfacet
  facet normal 0 -1 0
    outer loop
      vertex 46.0206 56.5658 1.6
      vertex 47.9794 56.5658 3
      vertex 46.0206 56.5658 3
    endloop
  endfacet
  facet normal 0 -1 -0
    outer loop
      vertex 47.9794 56.5658 3
      vertex 46.0206 56.5658 1.6
      vertex 47.9794 56.5658 1.6
    endloop
  endfacet
  facet normal 0 0 1
    outer loop
      vertex 92 95 3
      vertex 55.125 48.5 3
      vertex 92 2 3
    endloop
  endfacet
  facet normal 0 0 1
    outer loop
      vertex 92 95 3
      vertex 54.8889 50.4444 3
      vertex 55.125 48.5 3
    endloop
  endfacet
  facet normal 0 0 1
    outer loop
      vertex 92 95 3
      vertex 54.1943 52.2759 3
      vertex 54.8889 50.4444 3
    endloop
  endfacet
  facet normal 0 0 1
    outer loop
      vertex 92 95 3
      vertex 53.0816 53.8879 3
      vertex 54.1943 52.2759 3
    endloop
  endfacet
  facet normal 0 0 1
    outer loop
      vertex 92 95 3
      vertex 51.6155 55.1867 3
      vertex 53.0816 53.8879 3
    endloop
  endfacet
  facet normal 0 0 1
    outer loop
      vertex 92 95 3
      vertex 49.8812 56.097 3
      vertex 51.6155 55.1867 3
    endloop
  endfacet
  facet normal 0 0 1
    outer loop
      vertex 92 95 3
      vertex 47.9794 56.5658 3
      vertex 49.8812 56.097 3
    endloop
  endfacet
  facet normal 0 0 1
    outer loop
      vertex 92 95 3
      vertex 46.0206 56.5658 3
      vertex 47.9794 56.5658 3
    endloop
  endfacet
  facet normal -0 0 1
    outer loop
      vertex 2 95 3
      vertex 46.0206 56.5658 3
      vertex 92 95 3
    endloop
  endfacet
  facet normal 0 0 1
    outer loop
      vertex 46.0206 56.5658 3
      vertex 2 95 3
      vertex 44.1188 56.097 3
    endloop
  endfacet
  facet normal 0 0 1
    outer loop
      vertex 39.1111 50.4444 3
      vertex 2 95 3
      vertex 38.875 48.5 3
    endloop
  endfacet
  facet normal 0 0 1
    outer loop
      vertex 39.8057 52.2759 3
      vertex 2 95 3
      vertex 39.1111 50.4444 3
    endloop
  endfacet
  facet normal 0 0 1
    outer loop
      vertex 40.9184 53.8879 3
      vertex 2 95 3
      vertex 39.8057 52.2759 3
    endloop
  endfacet
  facet normal 0 0 1
    outer loop
      vertex 42.3845 55.1867 3
      vertex 2 95 3
      vertex 40.9184 53.8879 3
    endloop
  endfacet
  facet normal 0 0 1
    outer loop
      vertex 44.1188 56.097 3
      vertex 2 95 3
      vertex 42.3845 55.1867 3
    endloop
  endfacet
  facet normal -0 0 1
    outer loop
      vertex 54.8889 46.5556 3
      vertex 92 2 3
      vertex 55.125 48.5 3
    endloop
  endfacet
  facet normal -0 0 1
    outer loop
      vertex 54.1943 44.7241 3
      vertex 92 2 3
      vertex 54.8889 46.5556 3
    endloop
  endfacet
  facet normal -0 0 1
    outer loop
      vertex 53.0816 43.1121 3
      vertex 92 2 3
      vertex 54.1943 44.7241 3
    endloop
  endfacet
  facet normal -0 0 1
    outer loop
      vertex 51.6155 41.8133 3
      vertex 92 2 3
      vertex 53.0816 43.1121 3
    endloop
  endfacet
  facet normal -0 0 1
    outer loop
      vertex 49.8812 40.903 3
      vertex 92 2 3
      vertex 51.6155 41.8133 3
    endloop
  endfacet
  facet normal -0 0 1
    outer loop
      vertex 47.9794 40.4342 3
      vertex 92 2 3
      vertex 49.8812 40.903 3
    endloop
  endfacet
  facet normal -0 0 1
    outer loop
      vertex 46.0206 40.4342 3
      vertex 92 2 3
      vertex 47.9794 40.4342 3
    endloop
  endfacet
  facet normal 0 0 1
    outer loop
      vertex 2 2 3
      vertex 46.0206 40.4342 3
      vertex 44.1188 40.903 3
    endloop
  endfacet
  facet normal 0 0 1
    outer loop
      vertex 2 2 3
      vertex 44.1188 40.903 3
      vertex 42.3845 41.8133 3
    endloop
  endfacet
  facet normal 0 0 1
    outer loop
      vertex 2 2 3
      vertex 38.875 48.5 3
      vertex 2 95 3
    endloop
  endfacet
  facet normal 0 0 1
    outer loop
      vertex 38.875 48.5 3
      vertex 2 2 3
      vertex 39.1111 46.5556 3
    endloop
  endfacet
  facet normal 0 0 1
    outer loop
      vertex 39.1111 46.5556 3
      vertex 2 2 3
      vertex 39.8057 44.7241 3
    endloop
  endfacet
  facet normal 0 0 1
    outer loop
      vertex 46.0206 40.4342 3
      vertex 2 2 3
      vertex 92 2 3
    endloop
  endfacet
  facet normal 0 0 1
    outer loop
      vertex 40.9184 43.1121 3
      vertex 2 2 3
      vertex 42.3845 41.8133 3
    endloop
  endfacet
  facet normal 0 0 1
    outer loop
      vertex 39.8057 44.7241 3
      vertex 2 2 3
      vertex 40.9184 43.1121 3
    endloop
  endfacet
  facet normal 0.992709 -0.120537 0
    outer loop
      vertex 38.875 48.5 3
      vertex 39.1111 50.4444 1.6
      vertex 39.1111 50.4444 3
    endloop
  endfacet
  facet normal 0.992709 -0.120537 0
    outer loop
      vertex 39.1111 50.4444 1.6
      vertex 38.875 48.5 3
      vertex 38.875 48.5 1.6
    endloop
  endfacet
  facet normal -0.992709 0.120537 0
    outer loop
      vertex 54.8889 46.5556 1.6
      vertex 55.125 48.5 3
      vertex 55.125 48.5 1.6
    endloop
  endfacet
  facet normal -0.992709 0.120537 0
    outer loop
      vertex 55.125 48.5 3
      vertex 54.8889 46.5556 1.6
      vertex 54.8889 46.5556 3
    endloop
  endfacet
  facet normal 0.239315 0.970942 -0
    outer loop
      vertex 46.0206 40.4342 1.6
      vertex 44.1188 40.903 3
      vertex 46.0206 40.4342 3
    endloop
  endfacet
  facet normal 0.239315 0.970942 0
    outer loop
      vertex 44.1188 40.903 3
      vertex 46.0206 40.4342 1.6
      vertex 44.1188 40.903 1.6
    endloop
  endfacet
  facet normal 0 1 -0
    outer loop
      vertex 47.9794 40.4342 1.6
      vertex 46.0206 40.4342 3
      vertex 47.9794 40.4342 3
    endloop
  endfacet
  facet normal 0 1 0
    outer loop
      vertex 46.0206 40.4342 3
      vertex 47.9794 40.4342 1.6
      vertex 46.0206 40.4342 1.6
    endloop
  endfacet
  facet normal 0.935016 0.354605 0
    outer loop
      vertex 39.8057 44.7241 3
      vertex 39.1111 46.5556 1.6
      vertex 39.1111 46.5556 3
    endloop
  endfacet
  facet normal 0.935016 0.354605 0
    outer loop
      vertex 39.1111 46.5556 1.6
      vertex 39.8057 44.7241 3
      vertex 39.8057 44.7241 1.6
    endloop
  endfacet
  facet normal -0.663123 0.748511 0
    outer loop
      vertex 53.0816 43.1121 1.6
      vertex 51.6155 41.8133 3
      vertex 53.0816 43.1121 3
    endloop
  endfacet
  facet normal -0.663123 0.748511 0
    outer loop
      vertex 51.6155 41.8133 3
      vertex 53.0816 43.1121 1.6
      vertex 51.6155 41.8133 1.6
    endloop
  endfacet
  facet normal -0.935016 0.354605 0
    outer loop
      vertex 54.1943 44.7241 1.6
      vertex 54.8889 46.5556 3
      vertex 54.8889 46.5556 1.6
    endloop
  endfacet
  facet normal -0.935016 0.354605 0
    outer loop
      vertex 54.8889 46.5556 3
      vertex 54.1943 44.7241 1.6
      vertex 54.1943 44.7241 3
    endloop
  endfacet
  facet normal -0.239314 0.970942 0
    outer loop
      vertex 49.8812 40.903 1.6
      vertex 47.9794 40.4342 3
      vertex 49.8812 40.903 3
    endloop
  endfacet
  facet normal -0.239314 0.970942 0
    outer loop
      vertex 47.9794 40.4342 3
      vertex 49.8812 40.903 1.6
      vertex 47.9794 40.4342 1.6
    endloop
  endfacet
  facet normal 0.822984 0.568064 0
    outer loop
      vertex 40.9184 43.1121 3
      vertex 39.8057 44.7241 1.6
      vertex 39.8057 44.7241 3
    endloop
  endfacet
  facet normal 0.822984 0.568064 0
    outer loop
      vertex 39.8057 44.7241 1.6
      vertex 40.9184 43.1121 3
      vertex 40.9184 43.1121 1.6
    endloop
  endfacet
  facet normal 0.464724 0.885456 -0
    outer loop
      vertex 44.1188 40.903 1.6
      vertex 42.3845 41.8133 3
      vertex 44.1188 40.903 3
    endloop
  endfacet
  facet normal 0.464724 0.885456 0
    outer loop
      vertex 42.3845 41.8133 3
      vertex 44.1188 40.903 1.6
      vertex 42.3845 41.8133 1.6
    endloop
  endfacet
  facet normal 1 -0 0
    outer loop
      vertex 2 2 4.5
      vertex 2 95 3
      vertex 2 95 4.5
    endloop
  endfacet
  facet normal 1 0 0
    outer loop
      vertex 2 95 3
      vertex 2 2 4.5
      vertex 2 2 3
    endloop
  endfacet
  facet normal -1 0 0
    outer loop
      vertex 92 2 3
      vertex 92 95 4.5
      vertex 92 95 3
    endloop
  endfacet
  facet normal -1 -0 0
    outer loop
      vertex 92 95 4.5
      vertex 92 2 3
      vertex 92 2 4.5
    endloop
  endfacet
  facet normal 0 -1 0
    outer loop
      vertex 2 95 3
      vertex 92 95 4.5
      vertex 2 95 4.5
    endloop
  endfacet
  facet normal 0 -1 -0
    outer loop
      vertex 92 95 4.5
      vertex 2 95 3
      vertex 92 95 3
    endloop
  endfacet
  facet normal 0 1 -0
    outer loop
      vertex 92 2 3
      vertex 2 2 4.5
      vertex 92 2 4.5
    endloop
  endfacet
  facet normal 0 1 0
    outer loop
      vertex 2 2 4.5
      vertex 92 2 3
      vertex 2 2 3
    endloop
  endfacet
endsolid OpenSCAD_Model
