solid OpenSCAD_Model
  facet normal -1 0 0
    outer loop
      vertex 0 0 0
      vertex 0 60 25
      vertex 0 60 0
    endloop
  endfacet
  facet normal -1 -0 0
    outer loop
      vertex 0 60 25
      vertex 0 0 0
      vertex 0 0 25
    endloop
  endfacet
  facet normal 0 0 1
    outer loop
      vertex 38.5572 22.4364 25
      vertex 39 21.0938 25
      vertex 40.4835 22.3152 25
    endloop
  endfacet
  facet normal 0 0 1
    outer loop
      vertex 38.5572 22.4364 25
      vertex 38.544 21.1186 25
      vertex 39 21.0938 25
    endloop
  endfacet
  facet normal 0 0 1
    outer loop
      vertex 36.6688 21.6392 25
      vertex 38.5572 22.4364 25
      vertex 36.7215 23.0328 25
    endloop
  endfacet
  facet normal 0 0 1
    outer loop
      vertex 38.5572 22.4364 25
      vertex 36.6688 21.6392 25
      vertex 38.544 21.1186 25
    endloop
  endfacet
  facet normal 0 0 1
    outer loop
      vertex 34.9493 22.5508 25
      vertex 36.7215 23.0328 25
      vertex 35.0918 24.067 25
    endloop
  endfacet
  facet normal 0 0 1
    outer loop
      vertex 36.7215 23.0328 25
      vertex 34.9493 22.5508 25
      vertex 36.6688 21.6392 25
    endloop
  endfacet
  facet normal 0 0 1
    outer loop
      vertex 33.466 23.8107 25
      vertex 35.0918 24.067 25
      vertex 33.7706 25.4741 25
    endloop
  endfacet
  facet normal 0 0 1
    outer loop
      vertex 35.0918 24.067 25
      vertex 33.466 23.8107 25
      vertex 34.9493 22.5508 25
    endloop
  endfacet
  facet normal 0 0 1
    outer loop
      vertex 32.2883 25.36 25
      vertex 33.7706 25.4741 25
      vertex 32.8407 27.1654 25
    endloop
  endfacet
  facet normal 0 0 1
    outer loop
      vertex 31.4711 27.1263 25
      vertex 32.8407 27.1654 25
      vertex 32.3607 29.0349 25
    endloop
  endfacet
  facet normal 0 0 1
    outer loop
      vertex 33.7706 25.4741 25
      vertex 32.2883 25.36 25
      vertex 33.466 23.8107 25
    endloop
  endfacet
  facet normal -0 0 1
    outer loop
      vertex 31.0528 30.9731 25
      vertex 32.3607 30.9651 25
      vertex 31.4711 32.8737 25
    endloop
  endfacet
  facet normal 0 0 1
    outer loop
      vertex 32.3607 30.9651 25
      vertex 31.0528 30.9731 25
      vertex 32.3607 29.0349 25
    endloop
  endfacet
  facet normal 0 0 1
    outer loop
      vertex 32.8407 27.1654 25
      vertex 31.4711 27.1263 25
      vertex 32.2883 25.36 25
    endloop
  endfacet
  facet normal 0 0 1
    outer loop
      vertex 31.0528 29.0269 25
      vertex 32.3607 29.0349 25
      vertex 31.0528 30.9731 25
    endloop
  endfacet
  facet normal 0 0 1
    outer loop
      vertex 32.3607 29.0349 25
      vertex 31.0528 29.0269 25
      vertex 31.4711 27.1263 25
    endloop
  endfacet
  facet normal 0 0 1
    outer loop
      vertex 41 38.9027 25
      vertex 39 38.9062 25
      vertex 40.4835 37.6848 25
    endloop
  endfacet
  facet normal 0 0 1
    outer loop
      vertex 39 38.9062 25
      vertex 38.5572 37.5636 25
      vertex 40.4835 37.6848 25
    endloop
  endfacet
  facet normal -0 0 1
    outer loop
      vertex 38.544 38.8814 25
      vertex 38.5572 37.5636 25
      vertex 39 38.9062 25
    endloop
  endfacet
  facet normal -0 0 1
    outer loop
      vertex 36.6688 38.3608 25
      vertex 38.5572 37.5636 25
      vertex 38.544 38.8814 25
    endloop
  endfacet
  facet normal 0 0 1
    outer loop
      vertex 38.5572 37.5636 25
      vertex 36.6688 38.3608 25
      vertex 36.7215 36.9672 25
    endloop
  endfacet
  facet normal -0 0 1
    outer loop
      vertex 34.9493 37.4492 25
      vertex 36.7215 36.9672 25
      vertex 36.6688 38.3608 25
    endloop
  endfacet
  facet normal 0 0 1
    outer loop
      vertex 36.7215 36.9672 25
      vertex 34.9493 37.4492 25
      vertex 35.0918 35.933 25
    endloop
  endfacet
  facet normal -0 0 1
    outer loop
      vertex 33.466 36.1893 25
      vertex 35.0918 35.933 25
      vertex 34.9493 37.4492 25
    endloop
  endfacet
  facet normal 0 0 1
    outer loop
      vertex 35.0918 35.933 25
      vertex 33.466 36.1893 25
      vertex 33.7706 34.5259 25
    endloop
  endfacet
  facet normal -0 0 1
    outer loop
      vertex 32.2883 34.64 25
      vertex 33.7706 34.5259 25
      vertex 33.466 36.1893 25
    endloop
  endfacet
  facet normal 0 0 1
    outer loop
      vertex 33.7706 34.5259 25
      vertex 32.2883 34.64 25
      vertex 32.8407 32.8346 25
    endloop
  endfacet
  facet normal 0 0 1
    outer loop
      vertex 32.8407 32.8346 25
      vertex 31.4711 32.8737 25
      vertex 32.3607 30.9651 25
    endloop
  endfacet
  facet normal -0 0 1
    outer loop
      vertex 31.4711 32.8737 25
      vertex 32.8407 32.8346 25
      vertex 32.2883 34.64 25
    endloop
  endfacet
  facet normal 0 0 1
    outer loop
      vertex 80 60 25
      vertex 78 58 25
      vertex 80 0 25
    endloop
  endfacet
  facet normal 0 0 1
    outer loop
      vertex 80 60 25
      vertex 41 58 25
      vertex 78 58 25
    endloop
  endfacet
  facet normal -0 0 1
    outer loop
      vertex 39 58 25
      vertex 41 38.9027 25
      vertex 41 58 25
    endloop
  endfacet
  facet normal -0 0 1
    outer loop
      vertex 39 38.9062 25
      vertex 41 38.9027 25
      vertex 39 58 25
    endloop
  endfacet
  facet normal 0 0 1
    outer loop
      vertex 80 60 25
      vertex 39 58 25
      vertex 41 58 25
    endloop
  endfacet
  facet normal -0 0 1
    outer loop
      vertex 0 60 25
      vertex 39 58 25
      vertex 80 60 25
    endloop
  endfacet
  facet normal 0 0 1
    outer loop
      vertex 2 58 25
      vertex 0 60 25
      vertex 2 2 25
    endloop
  endfacet
  facet normal 0 0 1
    outer loop
      vertex 39 58 25
      vertex 0 60 25
      vertex 2 58 25
    endloop
  endfacet
  facet normal -0 0 1
    outer loop
      vertex 78 2 25
      vertex 80 0 25
      vertex 78 58 25
    endloop
  endfacet
  facet normal -0 0 1
    outer loop
      vertex 41 2 25
      vertex 80 0 25
      vertex 78 2 25
    endloop
  endfacet
  facet normal 0 0 1
    outer loop
      vertex 41 21.0973 25
      vertex 39 21.0938 25
      vertex 41 2 25
    endloop
  endfacet
  facet normal 0 0 1
    outer loop
      vertex 39 2 25
      vertex 41 2 25
      vertex 39 21.0938 25
    endloop
  endfacet
  facet normal -0 0 1
    outer loop
      vertex 39 2 25
      vertex 80 0 25
      vertex 41 2 25
    endloop
  endfacet
  facet normal 0 0 1
    outer loop
      vertex 0 0 25
      vertex 39 2 25
      vertex 2 2 25
    endloop
  endfacet
  facet normal 0 0 1
    outer loop
      vertex 39 2 25
      vertex 0 0 25
      vertex 80 0 25
    endloop
  endfacet
  facet normal 0 0 1
    outer loop
      vertex 0 0 25
      vertex 2 2 25
      vertex 0 60 25
    endloop
  endfacet
  facet normal 0 0 1
    outer loop
      vertex 47.7 30 25
      vertex 49 30 25
      vertex 48.7896 31.9347 25
    endloop
  endfacet
  facet normal 0 0 1
    outer loop
      vertex 47.4581 31.9149 25
      vertex 48.7896 31.9347 25
      vertex 48.1682 33.779 25
    endloop
  endfacet
  facet normal 0 0 1
    outer loop
      vertex 49 30 25
      vertex 47.7 30 25
      vertex 48.7896 28.0653 25
    endloop
  endfacet
  facet normal -0 0 1
    outer loop
      vertex 47.4581 28.0851 25
      vertex 48.7896 28.0653 25
      vertex 47.7 30 25
    endloop
  endfacet
  facet normal 0 0 1
    outer loop
      vertex 48.7896 31.9347 25
      vertex 47.4581 31.9149 25
      vertex 47.7 30 25
    endloop
  endfacet
  facet normal 0 0 1
    outer loop
      vertex 46.7476 33.7095 25
      vertex 48.1682 33.779 25
      vertex 47.1648 35.4466 25
    endloop
  endfacet
  facet normal 0 0 1
    outer loop
      vertex 48.1682 33.779 25
      vertex 46.7476 33.7095 25
      vertex 47.4581 31.9149 25
    endloop
  endfacet
  facet normal 0 0 1
    outer loop
      vertex 45.6131 35.271 25
      vertex 47.1648 35.4466 25
      vertex 45.8265 36.8595 25
    endloop
  endfacet
  facet normal 0 0 1
    outer loop
      vertex 47.1648 35.4466 25
      vertex 45.6131 35.271 25
      vertex 46.7476 33.7095 25
    endloop
  endfacet
  facet normal 0 0 1
    outer loop
      vertex 44.1259 36.5013 25
      vertex 45.8265 36.8595 25
      vertex 44.2157 37.9516 25
    endloop
  endfacet
  facet normal 0 0 1
    outer loop
      vertex 45.8265 36.8595 25
      vertex 44.1259 36.5013 25
      vertex 45.6131 35.271 25
    endloop
  endfacet
  facet normal 0 0 1
    outer loop
      vertex 42.3794 37.3231 25
      vertex 44.2157 37.9516 25
      vertex 42.4078 38.672 25
    endloop
  endfacet
  facet normal 0 0 1
    outer loop
      vertex 44.2157 37.9516 25
      vertex 42.3794 37.3231 25
      vertex 44.1259 36.5013 25
    endloop
  endfacet
  facet normal 0 0 1
    outer loop
      vertex 41 38.9027 25
      vertex 42.3794 37.3231 25
      vertex 42.4078 38.672 25
    endloop
  endfacet
  facet normal 0 0 1
    outer loop
      vertex 42.3794 37.3231 25
      vertex 41 38.9027 25
      vertex 40.4835 37.6848 25
    endloop
  endfacet
  facet normal 0 0 1
    outer loop
      vertex 48.7896 28.0653 25
      vertex 47.4581 28.0851 25
      vertex 48.1682 26.221 25
    endloop
  endfacet
  facet normal -0 0 1
    outer loop
      vertex 46.7476 26.2905 25
      vertex 48.1682 26.221 25
      vertex 47.4581 28.0851 25
    endloop
  endfacet
  facet normal 0 0 1
    outer loop
      vertex 48.1682 26.221 25
      vertex 46.7476 26.2905 25
      vertex 47.1648 24.5534 25
    endloop
  endfacet
  facet normal -0 0 1
    outer loop
      vertex 45.6131 24.729 25
      vertex 47.1648 24.5534 25
      vertex 46.7476 26.2905 25
    endloop
  endfacet
  facet normal 0 0 1
    outer loop
      vertex 47.1648 24.5534 25
      vertex 45.6131 24.729 25
      vertex 45.8265 23.1405 25
    endloop
  endfacet
  facet normal -0 0 1
    outer loop
      vertex 44.1259 23.4987 25
      vertex 45.8265 23.1405 25
      vertex 45.6131 24.729 25
    endloop
  endfacet
  facet normal 0 0 1
    outer loop
      vertex 45.8265 23.1405 25
      vertex 44.1259 23.4987 25
      vertex 44.2157 22.0484 25
    endloop
  endfacet
  facet normal -0 0 1
    outer loop
      vertex 42.3794 22.6769 25
      vertex 44.2157 22.0484 25
      vertex 44.1259 23.4987 25
    endloop
  endfacet
  facet normal 0 0 1
    outer loop
      vertex 44.2157 22.0484 25
      vertex 42.3794 22.6769 25
      vertex 42.4078 21.328 25
    endloop
  endfacet
  facet normal 0 0 1
    outer loop
      vertex 42.3794 22.6769 25
      vertex 41 21.0973 25
      vertex 42.4078 21.328 25
    endloop
  endfacet
  facet normal 0 0 1
    outer loop
      vertex 39 21.0938 25
      vertex 41 21.0973 25
      vertex 40.4835 22.3152 25
    endloop
  endfacet
  facet normal -0 0 1
    outer loop
      vertex 40.4835 22.3152 25
      vertex 41 21.0973 25
      vertex 42.3794 22.6769 25
    endloop
  endfacet
  facet normal 1 -0 0
    outer loop
      vertex 80 0 25
      vertex 80 60 0
      vertex 80 60 25
    endloop
  endfacet
  facet normal 1 0 0
    outer loop
      vertex 80 60 0
      vertex 80 0 25
      vertex 80 0 0
    endloop
  endfacet
  facet normal 0 1 -0
    outer loop
      vertex 80 60 0
      vertex 0 60 25
      vertex 80 60 25
    endloop
  endfacet
  facet normal 0 1 0
    outer loop
      vertex 0 60 25
      vertex 80 60 0
      vertex 0 60 0
    endloop
  endfacet
  facet normal 0 0 -1
    outer loop
      vertex 0 0 0
      vertex 80 60 0
      vertex 80 0 0
    endloop
  endfacet
  facet normal -0 0 -1
    outer loop
      vertex 80 60 0
      vertex 0 0 0
      vertex 0 60 0
    endloop
  endfacet
  facet normal 0 -1 0
    outer loop
      vertex 0 0 0
      vertex 80 0 25
      vertex 0 0 25
    endloop
  endfacet
  facet normal 0 -1 -0
    outer loop
      vertex 80 0 25
      vertex 0 0 0
      vertex 80 0 0
    endloop
  endfacet
  facet normal 1 -0 0
    outer loop
      vertex 2 2 25
      vertex 2 58 3
      vertex 2 58 25
    endloop
  endfacet
  facet normal 1 0 0
    outer loop
      vertex 2 58 3
      vertex 2 2 25
      vertex 2 2 3
    endloop
  endfacet
  facet normal -1 0 0
    outer loop
      vertex 78 2 3
      vertex 78 58 25
      vertex 78 58 3
    endloop
  endfacet
  facet normal -1 -0 0
    outer loop
      vertex 78 58 25
      vertex 78 2 3
      vertex 78 2 25
    endloop
  endfacet
  facet normal 0 0 1
    outer loop
      vertex 39 58 3
      vertex 38.544 38.8814 3
      vertex 39 38.9062 3
    endloop
  endfacet
  facet normal 0 0 1
    outer loop
      vertex 39 58 3
      vertex 36.6688 38.3608 3
      vertex 38.544 38.8814 3
    endloop
  endfacet
  facet normal 0 0 1
    outer loop
      vertex 39 58 3
      vertex 34.9493 37.4492 3
      vertex 36.6688 38.3608 3
    endloop
  endfacet
  facet normal 0 0 1
    outer loop
      vertex 39 58 3
      vertex 33.466 36.1893 3
      vertex 34.9493 37.4492 3
    endloop
  endfacet
  facet normal -0 0 1
    outer loop
      vertex 2 58 3
      vertex 33.466 36.1893 3
      vertex 39 58 3
    endloop
  endfacet
  facet normal 0 0 1
    outer loop
      vertex 33.466 36.1893 3
      vertex 2 58 3
      vertex 32.2883 34.64 3
    endloop
  endfacet
  facet normal 0 0 1
    outer loop
      vertex 31.0528 30.9731 3
      vertex 2 58 3
      vertex 31.0528 29.0269 3
    endloop
  endfacet
  facet normal 0 0 1
    outer loop
      vertex 31.4711 32.8737 3
      vertex 2 58 3
      vertex 31.0528 30.9731 3
    endloop
  endfacet
  facet normal 0 0 1
    outer loop
      vertex 32.2883 34.64 3
      vertex 2 58 3
      vertex 31.4711 32.8737 3
    endloop
  endfacet
  facet normal 0 0 1
    outer loop
      vertex 38.544 21.1186 3
      vertex 39 2 3
      vertex 39 21.0938 3
    endloop
  endfacet
  facet normal 0 0 1
    outer loop
      vertex 36.6688 21.6392 3
      vertex 39 2 3
      vertex 38.544 21.1186 3
    endloop
  endfacet
  facet normal 0 0 1
    outer loop
      vertex 34.9493 22.5508 3
      vertex 39 2 3
      vertex 36.6688 21.6392 3
    endloop
  endfacet
  facet normal 0 0 1
    outer loop
      vertex 33.466 23.8107 3
      vertex 39 2 3
      vertex 34.9493 22.5508 3
    endloop
  endfacet
  facet normal 0 0 1
    outer loop
      vertex 2 2 3
      vertex 33.466 23.8107 3
      vertex 32.2883 25.36 3
    endloop
  endfacet
  facet normal 0 0 1
    outer loop
      vertex 2 2 3
      vertex 32.2883 25.36 3
      vertex 31.4711 27.1263 3
    endloop
  endfacet
  facet normal 0 0 1
    outer loop
      vertex 2 2 3
      vertex 31.0528 29.0269 3
      vertex 2 58 3
    endloop
  endfacet
  facet normal 0 0 1
    outer loop
      vertex 31.0528 29.0269 3
      vertex 2 2 3
      vertex 31.4711 27.1263 3
    endloop
  endfacet
  facet normal 0 0 1
    outer loop
      vertex 33.466 23.8107 3
      vertex 2 2 3
      vertex 39 2 3
    endloop
  endfacet
  facet normal 0 0 1
    outer loop
      vertex 78 58 3
      vertex 49 30 3
      vertex 78 2 3
    endloop
  endfacet
  facet normal 0 0 1
    outer loop
      vertex 78 58 3
      vertex 48.7896 31.9347 3
      vertex 49 30 3
    endloop
  endfacet
  facet normal 0 0 1
    outer loop
      vertex 78 58 3
      vertex 48.1682 33.779 3
      vertex 48.7896 31.9347 3
    endloop
  endfacet
  facet normal 0 0 1
    outer loop
      vertex 78 58 3
      vertex 47.1648 35.4466 3
      vertex 48.1682 33.779 3
    endloop
  endfacet
  facet normal 0 0 1
    outer loop
      vertex 78 58 3
      vertex 45.8265 36.8595 3
      vertex 47.1648 35.4466 3
    endloop
  endfacet
  facet normal -0 0 1
    outer loop
      vertex 41 58 3
      vertex 45.8265 36.8595 3
      vertex 78 58 3
    endloop
  endfacet
  facet normal 0 0 1
    outer loop
      vertex 45.8265 36.8595 3
      vertex 41 58 3
      vertex 44.2157 37.9516 3
    endloop
  endfacet
  facet normal 0 0 1
    outer loop
      vertex 44.2157 37.9516 3
      vertex 41 58 3
      vertex 42.4078 38.672 3
    endloop
  endfacet
  facet normal 0 0 1
    outer loop
      vertex 42.4078 38.672 3
      vertex 41 58 3
      vertex 41 38.9027 3
    endloop
  endfacet
  facet normal -0 0 1
    outer loop
      vertex 48.7896 28.0653 3
      vertex 78 2 3
      vertex 49 30 3
    endloop
  endfacet
  facet normal -0 0 1
    outer loop
      vertex 48.1682 26.221 3
      vertex 78 2 3
      vertex 48.7896 28.0653 3
    endloop
  endfacet
  facet normal -0 0 1
    outer loop
      vertex 47.1648 24.5534 3
      vertex 78 2 3
      vertex 48.1682 26.221 3
    endloop
  endfacet
  facet normal -0 0 1
    outer loop
      vertex 45.8265 23.1405 3
      vertex 78 2 3
      vertex 47.1648 24.5534 3
    endloop
  endfacet
  facet normal 0 0 1
    outer loop
      vertex 41 2 3
      vertex 45.8265 23.1405 3
      vertex 44.2157 22.0484 3
    endloop
  endfacet
  facet normal 0 0 1
    outer loop
      vertex 41 2 3
      vertex 44.2157 22.0484 3
      vertex 42.4078 21.328 3
    endloop
  endfacet
  facet normal 0 0 1
    outer loop
      vertex 41 2 3
      vertex 42.4078 21.328 3
      vertex 41 21.0973 3
    endloop
  endfacet
  facet normal 0 0 1
    outer loop
      vertex 45.8265 23.1405 3
      vertex 41 2 3
      vertex 78 2 3
    endloop
  endfacet
  facet normal 0 1 -0
    outer loop
      vertex 39 2 3
      vertex 2 2 25
      vertex 39 2 25
    endloop
  endfacet
  facet normal 0 1 0
    outer loop
      vertex 2 2 25
      vertex 39 2 3
      vertex 2 2 3
    endloop
  endfacet
  facet normal 0 1 -0
    outer loop
      vertex 78 2 3
      vertex 41 2 25
      vertex 78 2 25
    endloop
  endfacet
  facet normal 0 1 0
    outer loop
      vertex 41 2 25
      vertex 78 2 3
      vertex 41 2 3
    endloop
  endfacet
  facet normal 0 -1 0
    outer loop
      vertex 41 58 3
      vertex 78 58 25
      vertex 41 58 25
    endloop
  endfacet
  facet normal 0 -1 -0
    outer loop
      vertex 78 58 25
      vertex 41 58 3
      vertex 78 58 3
    endloop
  endfacet
  facet normal 0 -1 0
    outer loop
      vertex 2 58 3
      vertex 39 58 25
      vertex 2 58 25
    endloop
  endfacet
  facet normal 0 -1 -0
    outer loop
      vertex 39 58 25
      vertex 2 58 3
      vertex 39 58 3
    endloop
  endfacet
  facet normal -1 0 0
    outer loop
      vertex 39 2 3
      vertex 39 21.0938 25
      vertex 39 21.0938 3
    endloop
  endfacet
  facet normal -1 -0 0
    outer loop
      vertex 39 21.0938 25
      vertex 39 2 3
      vertex 39 2 25
    endloop
  endfacet
  facet normal -1 0 0
    outer loop
      vertex 39 38.9062 3
      vertex 39 58 25
      vertex 39 58 3
    endloop
  endfacet
  facet normal -1 -0 0
    outer loop
      vertex 39 58 25
      vertex 39 38.9062 3
      vertex 39 38.9062 25
    endloop
  endfacet
  facet normal 1 -0 0
    outer loop
      vertex 41 2 25
      vertex 41 21.0973 3
      vertex 41 21.0973 25
    endloop
  endfacet
  facet normal 1 0 0
    outer loop
      vertex 41 21.0973 3
      vertex 41 2 25
      vertex 41 2 3
    endloop
  endfacet
  facet normal 1 -0 0
    outer loop
      vertex 41 38.9027 25
      vertex 41 58 3
      vertex 41 58 25
    endloop
  endfacet
  facet normal 1 0 0
    outer loop
      vertex 41 58 3
      vertex 41 38.9027 25
      vertex 41 38.9027 3
    endloop
  endfacet
  facet normal 0.994138 0.108119 0
    outer loop
      vertex 49 30 25
      vertex 48.7896 31.9347 3
      vertex 48.7896 31.9347 25
    endloop
  endfacet
  facet normal 0.994138 0.108119 0
    outer loop
      vertex 48.7896 31.9347 3
      vertex 49 30 25
      vertex 49 30 3
    endloop
  endfacet
  facet normal -1 0 0
    outer loop
      vertex 31.0528 29.0269 3
      vertex 31.0528 30.9731 25
      vertex 31.0528 30.9731 3
    endloop
  endfacet
  facet normal -1 -0 0
    outer loop
      vertex 31.0528 30.9731 25
      vertex 31.0528 29.0269 3
      vertex 31.0528 29.0269 25
    endloop
  endfacet
  facet normal -0.054133 0.998534 0
    outer loop
      vertex 39 38.9062 3
      vertex 38.544 38.8814 25
      vertex 39 38.9062 25
    endloop
  endfacet
  facet normal -0.054133 0.998534 0
    outer loop
      vertex 38.544 38.8814 25
      vertex 39 38.9062 3
      vertex 38.544 38.8814 3
    endloop
  endfacet
  facet normal 0.161782 -0.986827 0
    outer loop
      vertex 41 21.0973 3
      vertex 42.4078 21.328 25
      vertex 41 21.0973 25
    endloop
  endfacet
  facet normal 0.161782 -0.986827 0
    outer loop
      vertex 42.4078 21.328 25
      vertex 41 21.0973 3
      vertex 42.4078 21.328 3
    endloop
  endfacet
  facet normal 0.725996 0.687699 0
    outer loop
      vertex 47.1648 35.4466 25
      vertex 45.8265 36.8595 3
      vertex 45.8265 36.8595 25
    endloop
  endfacet
  facet normal 0.725996 0.687699 0
    outer loop
      vertex 45.8265 36.8595 3
      vertex 47.1648 35.4466 25
      vertex 47.1648 35.4466 3
    endloop
  endfacet
  facet normal 0.947653 0.319302 0
    outer loop
      vertex 48.7896 31.9347 25
      vertex 48.1682 33.779 3
      vertex 48.1682 33.779 25
    endloop
  endfacet
  facet normal 0.947653 0.319302 0
    outer loop
      vertex 48.1682 33.779 3
      vertex 48.7896 31.9347 25
      vertex 48.7896 31.9347 3
    endloop
  endfacet
  facet normal -0.647386 0.762162 0
    outer loop
      vertex 34.9493 37.4492 3
      vertex 33.466 36.1893 25
      vertex 34.9493 37.4492 25
    endloop
  endfacet
  facet normal -0.647386 0.762162 0
    outer loop
      vertex 33.466 36.1893 25
      vertex 34.9493 37.4492 3
      vertex 33.466 36.1893 3
    endloop
  endfacet
  facet normal -0.267529 0.96355 0
    outer loop
      vertex 38.544 38.8814 3
      vertex 36.6688 38.3608 25
      vertex 38.544 38.8814 25
    endloop
  endfacet
  facet normal -0.267529 0.96355 0
    outer loop
      vertex 36.6688 38.3608 25
      vertex 38.544 38.8814 3
      vertex 36.6688 38.3608 3
    endloop
  endfacet
  facet normal 0.856857 0.515554 0
    outer loop
      vertex 48.1682 33.779 25
      vertex 47.1648 35.4466 3
      vertex 47.1648 35.4466 25
    endloop
  endfacet
  facet normal 0.856857 0.515554 0
    outer loop
      vertex 47.1648 35.4466 3
      vertex 48.1682 33.779 25
      vertex 48.1682 33.779 3
    endloop
  endfacet
  facet normal 0.370139 0.928976 -0
    outer loop
      vertex 44.2157 37.9516 3
      vertex 42.4078 38.672 25
      vertex 44.2157 37.9516 25
    endloop
  endfacet
  facet normal 0.370139 0.928976 0
    outer loop
      vertex 42.4078 38.672 25
      vertex 44.2157 37.9516 3
      vertex 42.4078 38.672 3
    endloop
  endfacet
  facet normal 0.161782 0.986827 -0
    outer loop
      vertex 42.4078 38.672 3
      vertex 41 38.9027 25
      vertex 42.4078 38.672 25
    endloop
  endfacet
  facet normal 0.161782 0.986827 0
    outer loop
      vertex 41 38.9027 25
      vertex 42.4078 38.672 3
      vertex 41 38.9027 3
    endloop
  endfacet
  facet normal 0.561186 0.82769 -0
    outer loop
      vertex 45.8265 36.8595 3
      vertex 44.2157 37.9516 25
      vertex 45.8265 36.8595 25
    endloop
  endfacet
  facet normal 0.561186 0.82769 0
    outer loop
      vertex 44.2157 37.9516 25
      vertex 45.8265 36.8595 3
      vertex 44.2157 37.9516 3
    endloop
  endfacet
  facet normal -0.907575 0.419889 0
    outer loop
      vertex 31.4711 32.8737 3
      vertex 32.2883 34.64 25
      vertex 32.2883 34.64 3
    endloop
  endfacet
  facet normal -0.907575 0.419889 0
    outer loop
      vertex 32.2883 34.64 25
      vertex 31.4711 32.8737 3
      vertex 31.4711 32.8737 25
    endloop
  endfacet
  facet normal -0.796092 0.605175 0
    outer loop
      vertex 32.2883 34.64 3
      vertex 33.466 36.1893 25
      vertex 33.466 36.1893 3
    endloop
  endfacet
  facet normal -0.796092 0.605175 0
    outer loop
      vertex 33.466 36.1893 25
      vertex 32.2883 34.64 3
      vertex 32.2883 34.64 25
    endloop
  endfacet
  facet normal -0.97662 0.214971 0
    outer loop
      vertex 31.0528 30.9731 3
      vertex 31.4711 32.8737 25
      vertex 31.4711 32.8737 3
    endloop
  endfacet
  facet normal -0.97662 0.214971 0
    outer loop
      vertex 31.4711 32.8737 25
      vertex 31.0528 30.9731 3
      vertex 31.0528 30.9731 25
    endloop
  endfacet
  facet normal -0.46841 0.883511 0
    outer loop
      vertex 36.6688 38.3608 3
      vertex 34.9493 37.4492 25
      vertex 36.6688 38.3608 25
    endloop
  endfacet
  facet normal -0.46841 0.883511 0
    outer loop
      vertex 34.9493 37.4492 25
      vertex 36.6688 38.3608 3
      vertex 34.9493 37.4492 3
    endloop
  endfacet
  facet normal 0.994138 -0.108119 0
    outer loop
      vertex 48.7896 28.0653 25
      vertex 49 30 3
      vertex 49 30 25
    endloop
  endfacet
  facet normal 0.994138 -0.108119 0
    outer loop
      vertex 49 30 3
      vertex 48.7896 28.0653 25
      vertex 48.7896 28.0653 3
    endloop
  endfacet
  facet normal 0.947653 -0.319302 0
    outer loop
      vertex 48.1682 26.221 25
      vertex 48.7896 28.0653 3
      vertex 48.7896 28.0653 25
    endloop
  endfacet
  facet normal 0.947653 -0.319302 0
    outer loop
      vertex 48.7896 28.0653 3
      vertex 48.1682 26.221 25
      vertex 48.1682 26.221 3
    endloop
  endfacet
  facet normal 0.725996 -0.687699 0
    outer loop
      vertex 45.8265 23.1405 25
      vertex 47.1648 24.5534 3
      vertex 47.1648 24.5534 25
    endloop
  endfacet
  facet normal 0.725996 -0.687699 0
    outer loop
      vertex 47.1648 24.5534 3
      vertex 45.8265 23.1405 25
      vertex 45.8265 23.1405 3
    endloop
  endfacet
  facet normal -0.0541372 -0.998534 0
    outer loop
      vertex 38.544 21.1186 3
      vertex 39 21.0938 25
      vertex 38.544 21.1186 25
    endloop
  endfacet
  facet normal -0.0541372 -0.998534 -0
    outer loop
      vertex 39 21.0938 25
      vertex 38.544 21.1186 3
      vertex 39 21.0938 3
    endloop
  endfacet
  facet normal -0.647386 -0.762162 0
    outer loop
      vertex 33.466 23.8107 3
      vertex 34.9493 22.5508 25
      vertex 33.466 23.8107 25
    endloop
  endfacet
  facet normal -0.647386 -0.762162 -0
    outer loop
      vertex 34.9493 22.5508 25
      vertex 33.466 23.8107 3
      vertex 34.9493 22.5508 3
    endloop
  endfacet
  facet normal -0.796093 -0.605174 0
    outer loop
      vertex 33.466 23.8107 3
      vertex 32.2883 25.36 25
      vertex 32.2883 25.36 3
    endloop
  endfacet
  facet normal -0.796093 -0.605174 0
    outer loop
      vertex 32.2883 25.36 25
      vertex 33.466 23.8107 3
      vertex 33.466 23.8107 25
    endloop
  endfacet
  facet normal -0.907575 -0.419889 0
    outer loop
      vertex 32.2883 25.36 3
      vertex 31.4711 27.1263 25
      vertex 31.4711 27.1263 3
    endloop
  endfacet
  facet normal -0.907575 -0.419889 0
    outer loop
      vertex 31.4711 27.1263 25
      vertex 32.2883 25.36 3
      vertex 32.2883 25.36 25
    endloop
  endfacet
  facet normal -0.97662 -0.214971 0
    outer loop
      vertex 31.4711 27.1263 3
      vertex 31.0528 29.0269 25
      vertex 31.0528 29.0269 3
    endloop
  endfacet
  facet normal -0.97662 -0.214971 0
    outer loop
      vertex 31.0528 29.0269 25
      vertex 31.4711 27.1263 3
      vertex 31.4711 27.1263 25
    endloop
  endfacet
  facet normal 0.561187 -0.827689 0
    outer loop
      vertex 44.2157 22.0484 3
      vertex 45.8265 23.1405 25
      vertex 44.2157 22.0484 25
    endloop
  endfacet
  facet normal 0.561187 -0.827689 0
    outer loop
      vertex 45.8265 23.1405 25
      vertex 44.2157 22.0484 3
      vertex 45.8265 23.1405 3
    endloop
  endfacet
  facet normal 0.370138 -0.928977 0
    outer loop
      vertex 42.4078 21.328 3
      vertex 44.2157 22.0484 25
      vertex 42.4078 21.328 25
    endloop
  endfacet
  facet normal 0.370138 -0.928977 0
    outer loop
      vertex 44.2157 22.0484 25
      vertex 42.4078 21.328 3
      vertex 44.2157 22.0484 3
    endloop
  endfacet
  facet normal 0.856857 -0.515554 0
    outer loop
      vertex 47.1648 24.5534 25
      vertex 48.1682 26.221 3
      vertex 48.1682 26.221 25
    endloop
  endfacet
  facet normal 0.856857 -0.515554 0
    outer loop
      vertex 48.1682 26.221 3
      vertex 47.1648 24.5534 25
      vertex 47.1648 24.5534 3
    endloop
  endfacet
  facet normal -0.267529 -0.96355 0
    outer loop
      vertex 36.6688 21.6392 3
      vertex 38.544 21.1186 25
      vertex 36.6688 21.6392 25
    endloop
  endfacet
  facet normal -0.267529 -0.96355 -0
    outer loop
      vertex 38.544 21.1186 25
      vertex 36.6688 21.6392 3
      vertex 38.544 21.1186 3
    endloop
  endfacet
  facet normal -0.468409 -0.883512 0
    outer loop
      vertex 34.9493 22.5508 3
      vertex 36.6688 21.6392 25
      vertex 34.9493 22.5508 25
    endloop
  endfacet
  facet normal -0.468409 -0.883512 -0
    outer loop
      vertex 36.6688 21.6392 25
      vertex 34.9493 22.5508 3
      vertex 36.6688 21.6392 3
    endloop
  endfacet
  facet normal -0.992115 -0.125333 0
    outer loop
      vertex 47.7 30 21
      vertex 47.4581 31.9149 25
      vertex 47.4581 31.9149 21
    endloop
  endfacet
  facet normal -0.992115 -0.125333 0
    outer loop
      vertex 47.4581 31.9149 25
      vertex 47.7 30 21
      vertex 47.7 30 25
    endloop
  endfacet
  facet normal 1 -0 0
    outer loop
      vertex 32.3607 29.0349 25
      vertex 32.3607 30.9651 21
      vertex 32.3607 30.9651 25
    endloop
  endfacet
  facet normal 1 0 0
    outer loop
      vertex 32.3607 30.9651 21
      vertex 32.3607 29.0349 25
      vertex 32.3607 29.0349 21
    endloop
  endfacet
  facet normal 0.062792 -0.998027 0
    outer loop
      vertex 38.5572 37.5636 21
      vertex 40.4835 37.6848 25
      vertex 38.5572 37.5636 25
    endloop
  endfacet
  facet normal 0.062792 -0.998027 0
    outer loop
      vertex 40.4835 37.6848 25
      vertex 38.5572 37.5636 21
      vertex 40.4835 37.6848 21
    endloop
  endfacet
  facet normal -0.187381 0.982287 0
    outer loop
      vertex 42.3794 22.6769 21
      vertex 40.4835 22.3152 25
      vertex 42.3794 22.6769 25
    endloop
  endfacet
  facet normal -0.187381 0.982287 0
    outer loop
      vertex 40.4835 22.3152 25
      vertex 42.3794 22.6769 21
      vertex 40.4835 22.3152 21
    endloop
  endfacet
  facet normal -0.637424 -0.770514 0
    outer loop
      vertex 44.1259 36.5013 21
      vertex 45.6131 35.271 25
      vertex 44.1259 36.5013 25
    endloop
  endfacet
  facet normal -0.637424 -0.770514 -0
    outer loop
      vertex 45.6131 35.271 25
      vertex 44.1259 36.5013 21
      vertex 45.6131 35.271 21
    endloop
  endfacet
  facet normal -0.42578 -0.904827 0
    outer loop
      vertex 42.3794 37.3231 21
      vertex 44.1259 36.5013 25
      vertex 42.3794 37.3231 25
    endloop
  endfacet
  facet normal -0.42578 -0.904827 -0
    outer loop
      vertex 44.1259 36.5013 25
      vertex 42.3794 37.3231 21
      vertex 44.1259 36.5013 21
    endloop
  endfacet
  facet normal 0.728969 -0.684547 0
    outer loop
      vertex 33.7706 34.5259 25
      vertex 35.0918 35.933 21
      vertex 35.0918 35.933 25
    endloop
  endfacet
  facet normal 0.728969 -0.684547 0
    outer loop
      vertex 35.0918 35.933 21
      vertex 33.7706 34.5259 25
      vertex 33.7706 34.5259 21
    endloop
  endfacet
  facet normal 0.876307 -0.481753 0
    outer loop
      vertex 32.8407 32.8346 25
      vertex 33.7706 34.5259 21
      vertex 33.7706 34.5259 25
    endloop
  endfacet
  facet normal 0.876307 -0.481753 0
    outer loop
      vertex 33.7706 34.5259 21
      vertex 32.8407 32.8346 25
      vertex 32.8407 32.8346 21
    endloop
  endfacet
  facet normal 0.535826 -0.844329 0
    outer loop
      vertex 35.0918 35.933 21
      vertex 36.7215 36.9672 25
      vertex 35.0918 35.933 25
    endloop
  endfacet
  facet normal 0.535826 -0.844329 0
    outer loop
      vertex 36.7215 36.9672 25
      vertex 35.0918 35.933 21
      vertex 36.7215 36.9672 21
    endloop
  endfacet
  facet normal 0 0 1
    outer loop
      vertex 47.4581 31.9149 21
      vertex 47.4581 28.0851 21
      vertex 47.7 30 21
    endloop
  endfacet
  facet normal 0 0 1
    outer loop
      vertex 46.7476 33.7095 21
      vertex 47.4581 28.0851 21
      vertex 47.4581 31.9149 21
    endloop
  endfacet
  facet normal 0 0 1
    outer loop
      vertex 46.7476 33.7095 21
      vertex 46.7476 26.2905 21
      vertex 47.4581 28.0851 21
    endloop
  endfacet
  facet normal 0 0 1
    outer loop
      vertex 45.6131 35.271 21
      vertex 46.7476 26.2905 21
      vertex 46.7476 33.7095 21
    endloop
  endfacet
  facet normal 0 0 1
    outer loop
      vertex 45.6131 35.271 21
      vertex 45.6131 24.729 21
      vertex 46.7476 26.2905 21
    endloop
  endfacet
  facet normal 0 0 1
    outer loop
      vertex 44.1259 36.5013 21
      vertex 45.6131 24.729 21
      vertex 45.6131 35.271 21
    endloop
  endfacet
  facet normal 0 0 1
    outer loop
      vertex 44.1259 36.5013 21
      vertex 44.1259 23.4987 21
      vertex 45.6131 24.729 21
    endloop
  endfacet
  facet normal 0 0 1
    outer loop
      vertex 42.3794 37.3231 21
      vertex 44.1259 23.4987 21
      vertex 44.1259 36.5013 21
    endloop
  endfacet
  facet normal 0 0 1
    outer loop
      vertex 42.3794 37.3231 21
      vertex 42.3794 22.6769 21
      vertex 44.1259 23.4987 21
    endloop
  endfacet
  facet normal 0 0 1
    outer loop
      vertex 40.4835 37.6848 21
      vertex 42.3794 22.6769 21
      vertex 42.3794 37.3231 21
    endloop
  endfacet
  facet normal 0 0 1
    outer loop
      vertex 40.4835 37.6848 21
      vertex 40.4835 22.3152 21
      vertex 42.3794 22.6769 21
    endloop
  endfacet
  facet normal -0 0 1
    outer loop
      vertex 38.5572 37.5636 21
      vertex 40.4835 22.3152 21
      vertex 40.4835 37.6848 21
    endloop
  endfacet
  facet normal 0 0 1
    outer loop
      vertex 38.5572 37.5636 21
      vertex 38.5572 22.4364 21
      vertex 40.4835 22.3152 21
    endloop
  endfacet
  facet normal -0 0 1
    outer loop
      vertex 36.7215 36.9672 21
      vertex 38.5572 22.4364 21
      vertex 38.5572 37.5636 21
    endloop
  endfacet
  facet normal 0 0 1
    outer loop
      vertex 36.7215 36.9672 21
      vertex 36.7215 23.0328 21
      vertex 38.5572 22.4364 21
    endloop
  endfacet
  facet normal -0 0 1
    outer loop
      vertex 35.0918 35.933 21
      vertex 36.7215 23.0328 21
      vertex 36.7215 36.9672 21
    endloop
  endfacet
  facet normal 0 0 1
    outer loop
      vertex 35.0918 35.933 21
      vertex 35.0918 24.067 21
      vertex 36.7215 23.0328 21
    endloop
  endfacet
  facet normal -0 0 1
    outer loop
      vertex 33.7706 34.5259 21
      vertex 35.0918 24.067 21
      vertex 35.0918 35.933 21
    endloop
  endfacet
  facet normal 0 0 1
    outer loop
      vertex 33.7706 34.5259 21
      vertex 33.7706 25.4741 21
      vertex 35.0918 24.067 21
    endloop
  endfacet
  facet normal -0 0 1
    outer loop
      vertex 32.8407 32.8346 21
      vertex 33.7706 25.4741 21
      vertex 33.7706 34.5259 21
    endloop
  endfacet
  facet normal 0 0 1
    outer loop
      vertex 32.8407 32.8346 21
      vertex 32.8407 27.1654 21
      vertex 33.7706 25.4741 21
    endloop
  endfacet
  facet normal -0 0 1
    outer loop
      vertex 32.3607 30.9651 21
      vertex 32.8407 27.1654 21
      vertex 32.8407 32.8346 21
    endloop
  endfacet
  facet normal 0 0 1
    outer loop
      vertex 32.8407 27.1654 21
      vertex 32.3607 30.9651 21
      vertex 32.3607 29.0349 21
    endloop
  endfacet
  facet normal -0.929776 0.368127 0
    outer loop
      vertex 46.7476 26.2905 21
      vertex 47.4581 28.0851 25
      vertex 47.4581 28.0851 21
    endloop
  endfacet
  facet normal -0.929776 0.368127 0
    outer loop
      vertex 47.4581 28.0851 25
      vertex 46.7476 26.2905 21
      vertex 46.7476 26.2905 25
    endloop
  endfacet
  facet normal -0.809018 -0.587784 0
    outer loop
      vertex 46.7476 33.7095 21
      vertex 45.6131 35.271 25
      vertex 45.6131 35.271 21
    endloop
  endfacet
  facet normal -0.809018 -0.587784 0
    outer loop
      vertex 45.6131 35.271 25
      vertex 46.7476 33.7095 21
      vertex 46.7476 33.7095 25
    endloop
  endfacet
  facet normal -0.929776 -0.368126 0
    outer loop
      vertex 47.4581 31.9149 21
      vertex 46.7476 33.7095 25
      vertex 46.7476 33.7095 21
    endloop
  endfacet
  facet normal -0.929776 -0.368126 0
    outer loop
      vertex 46.7476 33.7095 25
      vertex 47.4581 31.9149 21
      vertex 47.4581 31.9149 25
    endloop
  endfacet
  facet normal -0.187381 -0.982287 0
    outer loop
      vertex 40.4835 37.6848 21
      vertex 42.3794 37.3231 25
      vertex 40.4835 37.6848 25
    endloop
  endfacet
  facet normal -0.187381 -0.982287 -0
    outer loop
      vertex 42.3794 37.3231 25
      vertex 40.4835 37.6848 21
      vertex 42.3794 37.3231 21
    endloop
  endfacet
  facet normal 0.968583 -0.24869 0
    outer loop
      vertex 32.3607 30.9651 25
      vertex 32.8407 32.8346 21
      vertex 32.8407 32.8346 25
    endloop
  endfacet
  facet normal 0.968583 -0.24869 0
    outer loop
      vertex 32.8407 32.8346 21
      vertex 32.3607 30.9651 25
      vertex 32.3607 30.9651 21
    endloop
  endfacet
  facet normal 0.309017 -0.951056 0
    outer loop
      vertex 36.7215 36.9672 21
      vertex 38.5572 37.5636 25
      vertex 36.7215 36.9672 25
    endloop
  endfacet
  facet normal 0.309017 -0.951056 0
    outer loop
      vertex 38.5572 37.5636 25
      vertex 36.7215 36.9672 21
      vertex 38.5572 37.5636 21
    endloop
  endfacet
  facet normal 0.968583 0.248689 0
    outer loop
      vertex 32.8407 27.1654 25
      vertex 32.3607 29.0349 21
      vertex 32.3607 29.0349 25
    endloop
  endfacet
  facet normal 0.968583 0.248689 0
    outer loop
      vertex 32.3607 29.0349 21
      vertex 32.8407 27.1654 25
      vertex 32.8407 27.1654 21
    endloop
  endfacet
  facet normal -0.809018 0.587784 0
    outer loop
      vertex 45.6131 24.729 21
      vertex 46.7476 26.2905 25
      vertex 46.7476 26.2905 21
    endloop
  endfacet
  facet normal -0.809018 0.587784 0
    outer loop
      vertex 46.7476 26.2905 25
      vertex 45.6131 24.729 21
      vertex 45.6131 24.729 25
    endloop
  endfacet
  facet normal -0.992115 0.125333 0
    outer loop
      vertex 47.4581 28.0851 21
      vertex 47.7 30 25
      vertex 47.7 30 21
    endloop
  endfacet
  facet normal -0.992115 0.125333 0
    outer loop
      vertex 47.7 30 25
      vertex 47.4581 28.0851 21
      vertex 47.4581 28.0851 25
    endloop
  endfacet
  facet normal 0.876307 0.481754 0
    outer loop
      vertex 33.7706 25.4741 25
      vertex 32.8407 27.1654 21
      vertex 32.8407 27.1654 25
    endloop
  endfacet
  facet normal 0.876307 0.481754 0
    outer loop
      vertex 32.8407 27.1654 21
      vertex 33.7706 25.4741 25
      vertex 33.7706 25.4741 21
    endloop
  endfacet
  facet normal 0.728969 0.684547 0
    outer loop
      vertex 35.0918 24.067 25
      vertex 33.7706 25.4741 21
      vertex 33.7706 25.4741 25
    endloop
  endfacet
  facet normal 0.728969 0.684547 0
    outer loop
      vertex 33.7706 25.4741 21
      vertex 35.0918 24.067 25
      vertex 35.0918 24.067 21
    endloop
  endfacet
  facet normal -0.42578 0.904827 0
    outer loop
      vertex 44.1259 23.4987 21
      vertex 42.3794 22.6769 25
      vertex 44.1259 23.4987 25
    endloop
  endfacet
  facet normal -0.42578 0.904827 0
    outer loop
      vertex 42.3794 22.6769 25
      vertex 44.1259 23.4987 21
      vertex 42.3794 22.6769 21
    endloop
  endfacet
  facet normal 0.535826 0.844328 -0
    outer loop
      vertex 36.7215 23.0328 21
      vertex 35.0918 24.067 25
      vertex 36.7215 23.0328 25
    endloop
  endfacet
  facet normal 0.535826 0.844328 0
    outer loop
      vertex 35.0918 24.067 25
      vertex 36.7215 23.0328 21
      vertex 35.0918 24.067 21
    endloop
  endfacet
  facet normal 0.062791 0.998027 -0
    outer loop
      vertex 40.4835 22.3152 21
      vertex 38.5572 22.4364 25
      vertex 40.4835 22.3152 25
    endloop
  endfacet
  facet normal 0.062791 0.998027 0
    outer loop
      vertex 38.5572 22.4364 25
      vertex 40.4835 22.3152 21
      vertex 38.5572 22.4364 21
    endloop
  endfacet
  facet normal -0.637424 0.770514 0
    outer loop
      vertex 45.6131 24.729 21
      vertex 44.1259 23.4987 25
      vertex 45.6131 24.729 25
    endloop
  endfacet
  facet normal -0.637424 0.770514 0
    outer loop
      vertex 44.1259 23.4987 25
      vertex 45.6131 24.729 21
      vertex 44.1259 23.4987 21
    endloop
  endfacet
  facet normal 0.309017 0.951056 -0
    outer loop
      vertex 38.5572 22.4364 21
      vertex 36.7215 23.0328 25
      vertex 38.5572 22.4364 25
    endloop
  endfacet
  facet normal 0.309017 0.951056 0
    outer loop
      vertex 36.7215 23.0328 25
      vertex 38.5572 22.4364 21
      vertex 36.7215 23.0328 21
    endloop
  endfacet
endsolid OpenSCAD_Model
