solid OpenSCAD_Model
  facet normal -1 0 0
    outer loop
      vertex 0 0 0
      vertex 0 20 8
      vertex 0 20 0
    endloop
  endfacet
  facet normal -1 -0 0
    outer loop
      vertex 0 20 8
      vertex 0 0 0
      vertex 0 0 8
    endloop
  endfacet
  facet normal -1 0 0
    outer loop
      vertex 0 45 0
      vertex 0 65 8
      vertex 0 65 0
    endloop
  endfacet
  facet normal -1 -0 0
    outer loop
      vertex 0 65 8
      vertex 0 45 0
      vertex 0 45 8
    endloop
  endfacet
  facet normal 0 0 1
    outer loop
      vertex 2 20 8
      vertex 0 20 8
      vertex 2 2 8
    endloop
  endfacet
  facet normal -0 0 1
    outer loop
      vertex 2 2 8
      vertex 40 0 8
      vertex 40 2 8
    endloop
  endfacet
  facet normal 0 0 1
    outer loop
      vertex 2 2 8
      vertex 0 0 8
      vertex 40 0 8
    endloop
  endfacet
  facet normal 0 0 1
    outer loop
      vertex 0 0 8
      vertex 2 2 8
      vertex 0 20 8
    endloop
  endfacet
  facet normal 0 0 1
    outer loop
      vertex 103 2 8
      vertex 105 20 8
      vertex 103 20 8
    endloop
  endfacet
  facet normal 0 0 1
    outer loop
      vertex 105 20 8
      vertex 103 2 8
      vertex 105 0 8
    endloop
  endfacet
  facet normal 0 0 1
    outer loop
      vertex 65 0 8
      vertex 103 2 8
      vertex 65 2 8
    endloop
  endfacet
  facet normal 0 0 1
    outer loop
      vertex 103 2 8
      vertex 65 0 8
      vertex 105 0 8
    endloop
  endfacet
  facet normal 0 0 1
    outer loop
      vertex 105 65 8
      vertex 103 63 8
      vertex 105 45 8
    endloop
  endfacet
  facet normal -0 0 1
    outer loop
      vertex 65 65 8
      vertex 103 63 8
      vertex 105 65 8
    endloop
  endfacet
  facet normal 0 0 1
    outer loop
      vertex 103 63 8
      vertex 65 65 8
      vertex 65 63 8
    endloop
  endfacet
  facet normal 0 0 1
    outer loop
      vertex 105 45 8
      vertex 103 63 8
      vertex 103 45 8
    endloop
  endfacet
  facet normal 0 0 1
    outer loop
      vertex 40 65 8
      vertex 2 63 8
      vertex 40 63 8
    endloop
  endfacet
  facet normal -0 0 1
    outer loop
      vertex 0 65 8
      vertex 2 63 8
      vertex 40 65 8
    endloop
  endfacet
  facet normal 0 0 1
    outer loop
      vertex 0 45 8
      vertex 2 63 8
      vertex 0 65 8
    endloop
  endfacet
  facet normal 0 0 1
    outer loop
      vertex 2 63 8
      vertex 0 45 8
      vertex 2 45 8
    endloop
  endfacet
  facet normal 1 -0 0
    outer loop
      vertex 105 0 8
      vertex 105 20 0
      vertex 105 20 8
    endloop
  endfacet
  facet normal 1 0 0
    outer loop
      vertex 105 20 0
      vertex 105 0 8
      vertex 105 0 0
    endloop
  endfacet
  facet normal 1 -0 0
    outer loop
      vertex 105 45 8
      vertex 105 65 0
      vertex 105 65 8
    endloop
  endfacet
  facet normal 1 0 0
    outer loop
      vertex 105 65 0
      vertex 105 45 8
      vertex 105 45 0
    endloop
  endfacet
  facet normal 0 0 -1
    outer loop
      vertex 105 0 0
      vertex 103 20 0
      vertex 105 20 0
    endloop
  endfacet
  facet normal 0 0 -1
    outer loop
      vertex 105 0 0
      vertex 65 2 0
      vertex 103 20 0
    endloop
  endfacet
  facet normal 0 0 -1
    outer loop
      vertex 65 2 0
      vertex 105 0 0
      vertex 65 0 0
    endloop
  endfacet
  facet normal 0 0 -1
    outer loop
      vertex 103 45 0
      vertex 105 65 0
      vertex 105 45 0
    endloop
  endfacet
  facet normal -0 0 -1
    outer loop
      vertex 103 20 0
      vertex 65 2 0
      vertex 103 45 0
    endloop
  endfacet
  facet normal 0 0 -1
    outer loop
      vertex 65 63 0
      vertex 103 45 0
      vertex 65 2 0
    endloop
  endfacet
  facet normal 0 0 -1
    outer loop
      vertex 103 45 0
      vertex 65 63 0
      vertex 105 65 0
    endloop
  endfacet
  facet normal -0 0 -1
    outer loop
      vertex 105 65 0
      vertex 65 63 0
      vertex 65 65 0
    endloop
  endfacet
  facet normal 0 0 -1
    outer loop
      vertex 0 0 0
      vertex 40 2 0
      vertex 40 0 0
    endloop
  endfacet
  facet normal 0 0 -1
    outer loop
      vertex 40 2 0
      vertex 2 20 0
      vertex 40 63 0
    endloop
  endfacet
  facet normal 0 0 -1
    outer loop
      vertex 2 45 0
      vertex 40 63 0
      vertex 2 20 0
    endloop
  endfacet
  facet normal -0 0 -1
    outer loop
      vertex 40 2 0
      vertex 0 0 0
      vertex 2 20 0
    endloop
  endfacet
  facet normal -0 0 -1
    outer loop
      vertex 2 20 0
      vertex 0 0 0
      vertex 0 20 0
    endloop
  endfacet
  facet normal 0 0 -1
    outer loop
      vertex 40 2 0
      vertex 65 63 0
      vertex 65 2 0
    endloop
  endfacet
  facet normal -0 0 -1
    outer loop
      vertex 65 63 0
      vertex 40 2 0
      vertex 40 63 0
    endloop
  endfacet
  facet normal 0 0 -1
    outer loop
      vertex 0 65 0
      vertex 40 63 0
      vertex 2 45 0
    endloop
  endfacet
  facet normal 0 0 -1
    outer loop
      vertex 0 65 0
      vertex 2 45 0
      vertex 0 45 0
    endloop
  endfacet
  facet normal 0 0 -1
    outer loop
      vertex 40 63 0
      vertex 0 65 0
      vertex 40 65 0
    endloop
  endfacet
  facet normal 0 -1 0
    outer loop
      vertex 0 0 0
      vertex 40 0 8
      vertex 0 0 8
    endloop
  endfacet
  facet normal 0 -1 -0
    outer loop
      vertex 40 0 8
      vertex 0 0 0
      vertex 40 0 0
    endloop
  endfacet
  facet normal 0 -1 0
    outer loop
      vertex 65 0 0
      vertex 105 0 8
      vertex 65 0 8
    endloop
  endfacet
  facet normal 0 -1 -0
    outer loop
      vertex 105 0 8
      vertex 65 0 0
      vertex 105 0 0
    endloop
  endfacet
  facet normal 0 1 -0
    outer loop
      vertex 105 65 0
      vertex 65 65 8
      vertex 105 65 8
    endloop
  endfacet
  facet normal 0 1 0
    outer loop
      vertex 65 65 8
      vertex 105 65 0
      vertex 65 65 0
    endloop
  endfacet
  facet normal 0 1 -0
    outer loop
      vertex 40 65 0
      vertex 0 65 8
      vertex 40 65 8
    endloop
  endfacet
  facet normal 0 1 0
    outer loop
      vertex 0 65 8
      vertex 40 65 0
      vertex 0 65 0
    endloop
  endfacet
  facet normal 1 -0 0
    outer loop
      vertex 2 2 8
      vertex 2 20 3
      vertex 2 20 8
    endloop
  endfacet
  facet normal 1 0 0
    outer loop
      vertex 2 20 3
      vertex 2 2 8
      vertex 2 2 3
    endloop
  endfacet
  facet normal 1 -0 0
    outer loop
      vertex 2 45 8
      vertex 2 63 3
      vertex 2 63 8
    endloop
  endfacet
  facet normal 1 0 0
    outer loop
      vertex 2 63 3
      vertex 2 45 8
      vertex 2 45 3
    endloop
  endfacet
  facet normal -1 0 0
    outer loop
      vertex 2 20 0
      vertex 2 45 3
      vertex 2 45 0
    endloop
  endfacet
  facet normal -1 -0 0
    outer loop
      vertex 2 45 3
      vertex 2 20 0
      vertex 2 20 3
    endloop
  endfacet
  facet normal -1 0 0
    outer loop
      vertex 103 2 3
      vertex 103 20 8
      vertex 103 20 3
    endloop
  endfacet
  facet normal -1 -0 0
    outer loop
      vertex 103 20 8
      vertex 103 2 3
      vertex 103 2 8
    endloop
  endfacet
  facet normal -1 0 0
    outer loop
      vertex 103 45 3
      vertex 103 63 8
      vertex 103 63 3
    endloop
  endfacet
  facet normal -1 -0 0
    outer loop
      vertex 103 63 8
      vertex 103 45 3
      vertex 103 45 8
    endloop
  endfacet
  facet normal 1 -0 0
    outer loop
      vertex 103 20 3
      vertex 103 45 0
      vertex 103 45 3
    endloop
  endfacet
  facet normal 1 0 0
    outer loop
      vertex 103 45 0
      vertex 103 20 3
      vertex 103 20 0
    endloop
  endfacet
  facet normal 0 -1 0
    outer loop
      vertex 65 63 3
      vertex 103 63 8
      vertex 65 63 8
    endloop
  endfacet
  facet normal 0 -1 -0
    outer loop
      vertex 103 63 8
      vertex 65 63 3
      vertex 103 63 3
    endloop
  endfacet
  facet normal 0 -1 0
    outer loop
      vertex 2 63 3
      vertex 40 63 8
      vertex 2 63 8
    endloop
  endfacet
  facet normal 0 -1 -0
    outer loop
      vertex 40 63 8
      vertex 2 63 3
      vertex 40 63 3
    endloop
  endfacet
  facet normal 0 1 -0
    outer loop
      vertex 65 63 0
      vertex 40 63 3
      vertex 65 63 3
    endloop
  endfacet
  facet normal 0 1 0
    outer loop
      vertex 40 63 3
      vertex 65 63 0
      vertex 40 63 0
    endloop
  endfacet
  facet normal -0 0 1
    outer loop
      vertex 65 63 3
      vertex 103 45 3
      vertex 103 63 3
    endloop
  endfacet
  facet normal 0 -0 1
    outer loop
      vertex 60.625 32.5 3
      vertex 103 45 3
      vertex 60.3889 34.4444 3
    endloop
  endfacet
  facet normal 0 0 1
    outer loop
      vertex 103 45 3
      vertex 65 63 3
      vertex 59.6943 36.2759 3
    endloop
  endfacet
  facet normal 0 0 1
    outer loop
      vertex 103 45 3
      vertex 60.625 32.5 3
      vertex 103 20 3
    endloop
  endfacet
  facet normal -0 0 1
    outer loop
      vertex 59.6943 28.7241 3
      vertex 103 20 3
      vertex 60.3889 30.5556 3
    endloop
  endfacet
  facet normal -0 0 1
    outer loop
      vertex 60.3889 30.5556 3
      vertex 103 20 3
      vertex 60.625 32.5 3
    endloop
  endfacet
  facet normal 0 0 1
    outer loop
      vertex 103 45 3
      vertex 59.6943 36.2759 3
      vertex 60.3889 34.4444 3
    endloop
  endfacet
  facet normal 0 0 1
    outer loop
      vertex 65 63 3
      vertex 58.5816 37.8879 3
      vertex 59.6943 36.2759 3
    endloop
  endfacet
  facet normal 0 0 1
    outer loop
      vertex 65 63 3
      vertex 57.1155 39.1867 3
      vertex 58.5816 37.8879 3
    endloop
  endfacet
  facet normal 0 0 1
    outer loop
      vertex 65 63 3
      vertex 55.3812 40.097 3
      vertex 57.1155 39.1867 3
    endloop
  endfacet
  facet normal 0 0 1
    outer loop
      vertex 65 63 3
      vertex 53.4794 40.5658 3
      vertex 55.3812 40.097 3
    endloop
  endfacet
  facet normal 0 0 1
    outer loop
      vertex 65 63 3
      vertex 51.5206 40.5658 3
      vertex 53.4794 40.5658 3
    endloop
  endfacet
  facet normal -0 0 1
    outer loop
      vertex 40 63 3
      vertex 51.5206 40.5658 3
      vertex 65 63 3
    endloop
  endfacet
  facet normal 0 0 1
    outer loop
      vertex 51.5206 40.5658 3
      vertex 40 63 3
      vertex 49.6188 40.097 3
    endloop
  endfacet
  facet normal 0 0 1
    outer loop
      vertex 49.6188 40.097 3
      vertex 40 63 3
      vertex 47.8845 39.1867 3
    endloop
  endfacet
  facet normal 0 0 1
    outer loop
      vertex 45.3057 36.2759 3
      vertex 2 45 3
      vertex 44.6111 34.4444 3
    endloop
  endfacet
  facet normal -0 0 1
    outer loop
      vertex 2 45 3
      vertex 45.3057 36.2759 3
      vertex 40 63 3
    endloop
  endfacet
  facet normal 0 0 1
    outer loop
      vertex 46.4184 37.8879 3
      vertex 40 63 3
      vertex 45.3057 36.2759 3
    endloop
  endfacet
  facet normal 0 0 1
    outer loop
      vertex 47.8845 39.1867 3
      vertex 40 63 3
      vertex 46.4184 37.8879 3
    endloop
  endfacet
  facet normal 0 -0 1
    outer loop
      vertex 65 2 3
      vertex 103 20 3
      vertex 59.6943 28.7241 3
    endloop
  endfacet
  facet normal 0 0 1
    outer loop
      vertex 103 20 3
      vertex 65 2 3
      vertex 103 2 3
    endloop
  endfacet
  facet normal -0 0 1
    outer loop
      vertex 58.5816 27.1121 3
      vertex 65 2 3
      vertex 59.6943 28.7241 3
    endloop
  endfacet
  facet normal -0 0 1
    outer loop
      vertex 57.1155 25.8133 3
      vertex 65 2 3
      vertex 58.5816 27.1121 3
    endloop
  endfacet
  facet normal -0 0 1
    outer loop
      vertex 55.3812 24.903 3
      vertex 65 2 3
      vertex 57.1155 25.8133 3
    endloop
  endfacet
  facet normal -0 0 1
    outer loop
      vertex 53.4794 24.4342 3
      vertex 65 2 3
      vertex 55.3812 24.903 3
    endloop
  endfacet
  facet normal -0 0 1
    outer loop
      vertex 51.5206 24.4342 3
      vertex 65 2 3
      vertex 53.4794 24.4342 3
    endloop
  endfacet
  facet normal 0 0 1
    outer loop
      vertex 40 2 3
      vertex 51.5206 24.4342 3
      vertex 49.6188 24.903 3
    endloop
  endfacet
  facet normal 0 0 1
    outer loop
      vertex 40 2 3
      vertex 49.6188 24.903 3
      vertex 47.8845 25.8133 3
    endloop
  endfacet
  facet normal 0 0 1
    outer loop
      vertex 40 2 3
      vertex 47.8845 25.8133 3
      vertex 46.4184 27.1121 3
    endloop
  endfacet
  facet normal 0 0 1
    outer loop
      vertex 44.6111 34.4444 3
      vertex 2 45 3
      vertex 44.375 32.5 3
    endloop
  endfacet
  facet normal 0 0 1
    outer loop
      vertex 51.5206 24.4342 3
      vertex 40 2 3
      vertex 65 2 3
    endloop
  endfacet
  facet normal 0 0 1
    outer loop
      vertex 45.3057 28.7241 3
      vertex 40 2 3
      vertex 46.4184 27.1121 3
    endloop
  endfacet
  facet normal 0 0 1
    outer loop
      vertex 2 20 3
      vertex 45.3057 28.7241 3
      vertex 44.6111 30.5556 3
    endloop
  endfacet
  facet normal 0 0 1
    outer loop
      vertex 2 20 3
      vertex 44.375 32.5 3
      vertex 2 45 3
    endloop
  endfacet
  facet normal 0 0 1
    outer loop
      vertex 2 45 3
      vertex 40 63 3
      vertex 2 63 3
    endloop
  endfacet
  facet normal 0 0 1
    outer loop
      vertex 44.375 32.5 3
      vertex 2 20 3
      vertex 44.6111 30.5556 3
    endloop
  endfacet
  facet normal 0 0 1
    outer loop
      vertex 45.3057 28.7241 3
      vertex 2 20 3
      vertex 40 2 3
    endloop
  endfacet
  facet normal 0 0 1
    outer loop
      vertex 40 2 3
      vertex 2 20 3
      vertex 2 2 3
    endloop
  endfacet
  facet normal 0 1 -0
    outer loop
      vertex 40 2 3
      vertex 2 2 8
      vertex 40 2 8
    endloop
  endfacet
  facet normal 0 1 0
    outer loop
      vertex 2 2 8
      vertex 40 2 3
      vertex 2 2 3
    endloop
  endfacet
  facet normal 0 1 -0
    outer loop
      vertex 103 2 3
      vertex 65 2 8
      vertex 103 2 8
    endloop
  endfacet
  facet normal 0 1 0
    outer loop
      vertex 65 2 8
      vertex 103 2 3
      vertex 65 2 3
    endloop
  endfacet
  facet normal 0 -1 0
    outer loop
      vertex 40 2 0
      vertex 65 2 3
      vertex 40 2 3
    endloop
  endfacet
  facet normal 0 -1 -0
    outer loop
      vertex 65 2 3
      vertex 40 2 0
      vertex 65 2 0
    endloop
  endfacet
  facet normal 1 -0 0
    outer loop
      vertex 40 0 8
      vertex 40 2 3
      vertex 40 2 8
    endloop
  endfacet
  facet normal 1 0 0
    outer loop
      vertex 40 0 0
      vertex 40 2 3
      vertex 40 0 8
    endloop
  endfacet
  facet normal 1 0 0
    outer loop
      vertex 40 2 3
      vertex 40 0 0
      vertex 40 2 0
    endloop
  endfacet
  facet normal -1 0 0
    outer loop
      vertex 65 0 0
      vertex 65 2 3
      vertex 65 2 0
    endloop
  endfacet
  facet normal -1 0 0
    outer loop
      vertex 65 0 8
      vertex 65 2 3
      vertex 65 0 0
    endloop
  endfacet
  facet normal -1 0 0
    outer loop
      vertex 65 2 3
      vertex 65 0 8
      vertex 65 2 8
    endloop
  endfacet
  facet normal 1 0 0
    outer loop
      vertex 40 63 3
      vertex 40 65 8
      vertex 40 63 8
    endloop
  endfacet
  facet normal 1 0 0
    outer loop
      vertex 40 65 8
      vertex 40 63 3
      vertex 40 65 0
    endloop
  endfacet
  facet normal 1 0 0
    outer loop
      vertex 40 65 0
      vertex 40 63 3
      vertex 40 63 0
    endloop
  endfacet
  facet normal -1 0 0
    outer loop
      vertex 65 63 3
      vertex 65 65 0
      vertex 65 63 0
    endloop
  endfacet
  facet normal -1 0 0
    outer loop
      vertex 65 65 0
      vertex 65 63 3
      vertex 65 65 8
    endloop
  endfacet
  facet normal -1 -0 0
    outer loop
      vertex 65 65 8
      vertex 65 63 3
      vertex 65 63 8
    endloop
  endfacet
  facet normal 0 -1 0
    outer loop
      vertex 0 45 8
      vertex 2 45 3
      vertex 2 45 8
    endloop
  endfacet
  facet normal 0 -1 0
    outer loop
      vertex 0 45 0
      vertex 2 45 3
      vertex 0 45 8
    endloop
  endfacet
  facet normal 0 -1 -0
    outer loop
      vertex 2 45 3
      vertex 0 45 0
      vertex 2 45 0
    endloop
  endfacet
  facet normal 0 1 -0
    outer loop
      vertex 2 20 3
      vertex 0 20 8
      vertex 2 20 8
    endloop
  endfacet
  facet normal 0 1 0
    outer loop
      vertex 0 20 0
      vertex 2 20 3
      vertex 2 20 0
    endloop
  endfacet
  facet normal 0 1 0
    outer loop
      vertex 2 20 3
      vertex 0 20 0
      vertex 0 20 8
    endloop
  endfacet
  facet normal 0 1 0
    outer loop
      vertex 105 20 8
      vertex 103 20 3
      vertex 103 20 8
    endloop
  endfacet
  facet normal 0 1 -0
    outer loop
      vertex 105 20 0
      vertex 103 20 3
      vertex 105 20 8
    endloop
  endfacet
  facet normal 0 1 0
    outer loop
      vertex 103 20 3
      vertex 105 20 0
      vertex 103 20 0
    endloop
  endfacet
  facet normal 0 -1 0
    outer loop
      vertex 103 45 3
      vertex 105 45 8
      vertex 103 45 8
    endloop
  endfacet
  facet normal 0 -1 0
    outer loop
      vertex 105 45 0
      vertex 103 45 3
      vertex 103 45 0
    endloop
  endfacet
  facet normal 0 -1 0
    outer loop
      vertex 103 45 3
      vertex 105 45 0
      vertex 105 45 8
    endloop
  endfacet
  facet normal -0.992709 -0.120537 0
    outer loop
      vertex 60.625 32.5 1.6
      vertex 60.3889 34.4444 3
      vertex 60.3889 34.4444 1.6
    endloop
  endfacet
  facet normal -0.992709 -0.120537 0
    outer loop
      vertex 60.3889 34.4444 3
      vertex 60.625 32.5 1.6
      vertex 60.625 32.5 3
    endloop
  endfacet
  facet normal 0.239315 -0.970942 0
    outer loop
      vertex 49.6188 40.097 1.6
      vertex 51.5206 40.5658 3
      vertex 49.6188 40.097 3
    endloop
  endfacet
  facet normal 0.239315 -0.970942 0
    outer loop
      vertex 51.5206 40.5658 3
      vertex 49.6188 40.097 1.6
      vertex 51.5206 40.5658 1.6
    endloop
  endfacet
  facet normal -0.239315 0.970942 0
    outer loop
      vertex 55.3812 24.903 1.6
      vertex 53.4794 24.4342 3
      vertex 55.3812 24.903 3
    endloop
  endfacet
  facet normal -0.239315 0.970942 0
    outer loop
      vertex 53.4794 24.4342 3
      vertex 55.3812 24.903 1.6
      vertex 53.4794 24.4342 1.6
    endloop
  endfacet
  facet normal -0.464724 -0.885456 0
    outer loop
      vertex 55.3812 40.097 1.6
      vertex 57.1155 39.1867 3
      vertex 55.3812 40.097 3
    endloop
  endfacet
  facet normal -0.464724 -0.885456 -0
    outer loop
      vertex 57.1155 39.1867 3
      vertex 55.3812 40.097 1.6
      vertex 57.1155 39.1867 1.6
    endloop
  endfacet
  facet normal -0.239314 -0.970942 0
    outer loop
      vertex 53.4794 40.5658 1.6
      vertex 55.3812 40.097 3
      vertex 53.4794 40.5658 3
    endloop
  endfacet
  facet normal -0.239314 -0.970942 -0
    outer loop
      vertex 55.3812 40.097 3
      vertex 53.4794 40.5658 1.6
      vertex 55.3812 40.097 1.6
    endloop
  endfacet
  facet normal 0.822984 -0.568064 0
    outer loop
      vertex 45.3057 36.2759 3
      vertex 46.4184 37.8879 1.6
      vertex 46.4184 37.8879 3
    endloop
  endfacet
  facet normal 0.822984 -0.568064 0
    outer loop
      vertex 46.4184 37.8879 1.6
      vertex 45.3057 36.2759 3
      vertex 45.3057 36.2759 1.6
    endloop
  endfacet
  facet normal 0.935016 -0.354605 0
    outer loop
      vertex 44.6111 34.4444 3
      vertex 45.3057 36.2759 1.6
      vertex 45.3057 36.2759 3
    endloop
  endfacet
  facet normal 0.935016 -0.354605 0
    outer loop
      vertex 45.3057 36.2759 1.6
      vertex 44.6111 34.4444 3
      vertex 44.6111 34.4444 1.6
    endloop
  endfacet
  facet normal 0.663123 -0.748511 0
    outer loop
      vertex 46.4184 37.8879 1.6
      vertex 47.8845 39.1867 3
      vertex 46.4184 37.8879 3
    endloop
  endfacet
  facet normal 0.663123 -0.748511 0
    outer loop
      vertex 47.8845 39.1867 3
      vertex 46.4184 37.8879 1.6
      vertex 47.8845 39.1867 1.6
    endloop
  endfacet
  facet normal -0.935016 0.354605 0
    outer loop
      vertex 59.6943 28.7241 1.6
      vertex 60.3889 30.5556 3
      vertex 60.3889 30.5556 1.6
    endloop
  endfacet
  facet normal -0.935016 0.354605 0
    outer loop
      vertex 60.3889 30.5556 3
      vertex 59.6943 28.7241 1.6
      vertex 59.6943 28.7241 3
    endloop
  endfacet
  facet normal -0.822984 -0.568064 0
    outer loop
      vertex 59.6943 36.2759 1.6
      vertex 58.5816 37.8879 3
      vertex 58.5816 37.8879 1.6
    endloop
  endfacet
  facet normal -0.822984 -0.568064 0
    outer loop
      vertex 58.5816 37.8879 3
      vertex 59.6943 36.2759 1.6
      vertex 59.6943 36.2759 3
    endloop
  endfacet
  facet normal -0.935016 -0.354605 0
    outer loop
      vertex 60.3889 34.4444 1.6
      vertex 59.6943 36.2759 3
      vertex 59.6943 36.2759 1.6
    endloop
  endfacet
  facet normal -0.935016 -0.354605 0
    outer loop
      vertex 59.6943 36.2759 3
      vertex 60.3889 34.4444 1.6
      vertex 60.3889 34.4444 3
    endloop
  endfacet
  facet normal -0.663123 -0.748511 0
    outer loop
      vertex 57.1155 39.1867 1.6
      vertex 58.5816 37.8879 3
      vertex 57.1155 39.1867 3
    endloop
  endfacet
  facet normal -0.663123 -0.748511 -0
    outer loop
      vertex 58.5816 37.8879 3
      vertex 57.1155 39.1867 1.6
      vertex 58.5816 37.8879 1.6
    endloop
  endfacet
  facet normal 0 -1 0
    outer loop
      vertex 51.5206 40.5658 1.6
      vertex 53.4794 40.5658 3
      vertex 51.5206 40.5658 3
    endloop
  endfacet
  facet normal 0 -1 -0
    outer loop
      vertex 53.4794 40.5658 3
      vertex 51.5206 40.5658 1.6
      vertex 53.4794 40.5658 1.6
    endloop
  endfacet
  facet normal 0 0 1
    outer loop
      vertex 60.3889 34.4444 1.6
      vertex 60.3889 30.5556 1.6
      vertex 60.625 32.5 1.6
    endloop
  endfacet
  facet normal 0 0 1
    outer loop
      vertex 59.6943 36.2759 1.6
      vertex 60.3889 30.5556 1.6
      vertex 60.3889 34.4444 1.6
    endloop
  endfacet
  facet normal 0 0 1
    outer loop
      vertex 59.6943 36.2759 1.6
      vertex 59.6943 28.7241 1.6
      vertex 60.3889 30.5556 1.6
    endloop
  endfacet
  facet normal 0 0 1
    outer loop
      vertex 58.5816 37.8879 1.6
      vertex 59.6943 28.7241 1.6
      vertex 59.6943 36.2759 1.6
    endloop
  endfacet
  facet normal 0 0 1
    outer loop
      vertex 58.5816 37.8879 1.6
      vertex 58.5816 27.1121 1.6
      vertex 59.6943 28.7241 1.6
    endloop
  endfacet
  facet normal 0 0 1
    outer loop
      vertex 57.1155 39.1867 1.6
      vertex 58.5816 27.1121 1.6
      vertex 58.5816 37.8879 1.6
    endloop
  endfacet
  facet normal 0 0 1
    outer loop
      vertex 57.1155 39.1867 1.6
      vertex 57.1155 25.8133 1.6
      vertex 58.5816 27.1121 1.6
    endloop
  endfacet
  facet normal 0 0 1
    outer loop
      vertex 55.3812 40.097 1.6
      vertex 57.1155 25.8133 1.6
      vertex 57.1155 39.1867 1.6
    endloop
  endfacet
  facet normal 0 0 1
    outer loop
      vertex 55.3812 40.097 1.6
      vertex 55.3812 24.903 1.6
      vertex 57.1155 25.8133 1.6
    endloop
  endfacet
  facet normal 0 0 1
    outer loop
      vertex 53.4794 40.5658 1.6
      vertex 55.3812 24.903 1.6
      vertex 55.3812 40.097 1.6
    endloop
  endfacet
  facet normal 0 0 1
    outer loop
      vertex 53.4794 40.5658 1.6
      vertex 53.4794 24.4342 1.6
      vertex 55.3812 24.903 1.6
    endloop
  endfacet
  facet normal -0 0 1
    outer loop
      vertex 51.5206 40.5658 1.6
      vertex 53.4794 24.4342 1.6
      vertex 53.4794 40.5658 1.6
    endloop
  endfacet
  facet normal 0 0 1
    outer loop
      vertex 51.5206 40.5658 1.6
      vertex 51.5206 24.4342 1.6
      vertex 53.4794 24.4342 1.6
    endloop
  endfacet
  facet normal -0 0 1
    outer loop
      vertex 49.6188 40.097 1.6
      vertex 51.5206 24.4342 1.6
      vertex 51.5206 40.5658 1.6
    endloop
  endfacet
  facet normal 0 0 1
    outer loop
      vertex 49.6188 40.097 1.6
      vertex 49.6188 24.903 1.6
      vertex 51.5206 24.4342 1.6
    endloop
  endfacet
  facet normal -0 0 1
    outer loop
      vertex 47.8845 39.1867 1.6
      vertex 49.6188 24.903 1.6
      vertex 49.6188 40.097 1.6
    endloop
  endfacet
  facet normal 0 0 1
    outer loop
      vertex 47.8845 39.1867 1.6
      vertex 47.8845 25.8133 1.6
      vertex 49.6188 24.903 1.6
    endloop
  endfacet
  facet normal -0 0 1
    outer loop
      vertex 46.4184 37.8879 1.6
      vertex 47.8845 25.8133 1.6
      vertex 47.8845 39.1867 1.6
    endloop
  endfacet
  facet normal 0 0 1
    outer loop
      vertex 46.4184 37.8879 1.6
      vertex 46.4184 27.1121 1.6
      vertex 47.8845 25.8133 1.6
    endloop
  endfacet
  facet normal -0 0 1
    outer loop
      vertex 45.3057 36.2759 1.6
      vertex 46.4184 27.1121 1.6
      vertex 46.4184 37.8879 1.6
    endloop
  endfacet
  facet normal 0 0 1
    outer loop
      vertex 45.3057 36.2759 1.6
      vertex 45.3057 28.7241 1.6
      vertex 46.4184 27.1121 1.6
    endloop
  endfacet
  facet normal -0 0 1
    outer loop
      vertex 44.6111 34.4444 1.6
      vertex 45.3057 28.7241 1.6
      vertex 45.3057 36.2759 1.6
    endloop
  endfacet
  facet normal 0 0 1
    outer loop
      vertex 44.6111 34.4444 1.6
      vertex 44.6111 30.5556 1.6
      vertex 45.3057 28.7241 1.6
    endloop
  endfacet
  facet normal 0 -0 1
    outer loop
      vertex 44.6111 30.5556 1.6
      vertex 44.6111 34.4444 1.6
      vertex 44.375 32.5 1.6
    endloop
  endfacet
  facet normal 0.992709 -0.120537 0
    outer loop
      vertex 44.375 32.5 3
      vertex 44.6111 34.4444 1.6
      vertex 44.6111 34.4444 3
    endloop
  endfacet
  facet normal 0.992709 -0.120537 0
    outer loop
      vertex 44.6111 34.4444 1.6
      vertex 44.375 32.5 3
      vertex 44.375 32.5 1.6
    endloop
  endfacet
  facet normal 0.464724 -0.885456 0
    outer loop
      vertex 47.8845 39.1867 1.6
      vertex 49.6188 40.097 3
      vertex 47.8845 39.1867 3
    endloop
  endfacet
  facet normal 0.464724 -0.885456 0
    outer loop
      vertex 49.6188 40.097 3
      vertex 47.8845 39.1867 1.6
      vertex 49.6188 40.097 1.6
    endloop
  endfacet
  facet normal -0.992709 0.120537 0
    outer loop
      vertex 60.3889 30.5556 1.6
      vertex 60.625 32.5 3
      vertex 60.625 32.5 1.6
    endloop
  endfacet
  facet normal -0.992709 0.120537 0
    outer loop
      vertex 60.625 32.5 3
      vertex 60.3889 30.5556 1.6
      vertex 60.3889 30.5556 3
    endloop
  endfacet
  facet normal -0.822984 0.568064 0
    outer loop
      vertex 58.5816 27.1121 1.6
      vertex 59.6943 28.7241 3
      vertex 59.6943 28.7241 1.6
    endloop
  endfacet
  facet normal -0.822984 0.568064 0
    outer loop
      vertex 59.6943 28.7241 3
      vertex 58.5816 27.1121 1.6
      vertex 58.5816 27.1121 3
    endloop
  endfacet
  facet normal 0.992709 0.120537 0
    outer loop
      vertex 44.6111 30.5556 3
      vertex 44.375 32.5 1.6
      vertex 44.375 32.5 3
    endloop
  endfacet
  facet normal 0.992709 0.120537 0
    outer loop
      vertex 44.375 32.5 1.6
      vertex 44.6111 30.5556 3
      vertex 44.6111 30.5556 1.6
    endloop
  endfacet
  facet normal 0.239316 0.970942 -0
    outer loop
      vertex 51.5206 24.4342 1.6
      vertex 49.6188 24.903 3
      vertex 51.5206 24.4342 3
    endloop
  endfacet
  facet normal 0.239316 0.970942 0
    outer loop
      vertex 49.6188 24.903 3
      vertex 51.5206 24.4342 1.6
      vertex 49.6188 24.903 1.6
    endloop
  endfacet
  facet normal 0.663123 0.748511 -0
    outer loop
      vertex 47.8845 25.8133 1.6
      vertex 46.4184 27.1121 3
      vertex 47.8845 25.8133 3
    endloop
  endfacet
  facet normal 0.663123 0.748511 0
    outer loop
      vertex 46.4184 27.1121 3
      vertex 47.8845 25.8133 1.6
      vertex 46.4184 27.1121 1.6
    endloop
  endfacet
  facet normal 0.935016 0.354605 0
    outer loop
      vertex 45.3057 28.7241 3
      vertex 44.6111 30.5556 1.6
      vertex 44.6111 30.5556 3
    endloop
  endfacet
  facet normal 0.935016 0.354605 0
    outer loop
      vertex 44.6111 30.5556 1.6
      vertex 45.3057 28.7241 3
      vertex 45.3057 28.7241 1.6
    endloop
  endfacet
  facet normal -0.464724 0.885456 0
    outer loop
      vertex 57.1155 25.8133 1.6
      vertex 55.3812 24.903 3
      vertex 57.1155 25.8133 3
    endloop
  endfacet
  facet normal -0.464724 0.885456 0
    outer loop
      vertex 55.3812 24.903 3
      vertex 57.1155 25.8133 1.6
      vertex 55.3812 24.903 1.6
    endloop
  endfacet
  facet normal 0 1 -0
    outer loop
      vertex 53.4794 24.4342 1.6
      vertex 51.5206 24.4342 3
      vertex 53.4794 24.4342 3
    endloop
  endfacet
  facet normal 0 1 0
    outer loop
      vertex 51.5206 24.4342 3
      vertex 53.4794 24.4342 1.6
      vertex 51.5206 24.4342 1.6
    endloop
  endfacet
  facet normal 0.464724 0.885456 -0
    outer loop
      vertex 49.6188 24.903 1.6
      vertex 47.8845 25.8133 3
      vertex 49.6188 24.903 3
    endloop
  endfacet
  facet normal 0.464724 0.885456 0
    outer loop
      vertex 47.8845 25.8133 3
      vertex 49.6188 24.903 1.6
      vertex 47.8845 25.8133 1.6
    endloop
  endfacet
  facet normal 0.822984 0.568064 0
    outer loop
      vertex 46.4184 27.1121 3
      vertex 45.3057 28.7241 1.6
      vertex 45.3057 28.7241 3
    endloop
  endfacet
  facet normal 0.822984 0.568064 0
    outer loop
      vertex 45.3057 28.7241 1.6
      vertex 46.4184 27.1121 3
      vertex 46.4184 27.1121 1.6
    endloop
  endfacet
  facet normal -0.663123 0.748511 0
    outer loop
      vertex 58.5816 27.1121 1.6
      vertex 57.1155 25.8133 3
      vertex 58.5816 27.1121 3
    endloop
  endfacet
  facet normal -0.663123 0.748511 0
    outer loop
      vertex 57.1155 25.8133 3
      vertex 58.5816 27.1121 1.6
      vertex 57.1155 25.8133 1.6
    endloop
  endfacet
endsolid OpenSCAD_Model
