solid OpenSCAD_Model
  facet normal 0 0 1
    outer loop
      vertex 78 2 35
      vertex 80 70 35
      vertex 78 68 35
    endloop
  endfacet
  facet normal 0 0 1
    outer loop
      vertex 80 70 35
      vertex 54.3333 68 35
      vertex 78 68 35
    endloop
  endfacet
  facet normal 0 0 1
    outer loop
      vertex 54.3333 68 35
      vertex 52.3333 68 35
      vertex 54.3333 2 35
    endloop
  endfacet
  facet normal 0 0 1
    outer loop
      vertex 80 70 35
      vertex 52.3333 68 35
      vertex 54.3333 68 35
    endloop
  endfacet
  facet normal 0 0 1
    outer loop
      vertex 80 70 35
      vertex 27.6667 68 35
      vertex 52.3333 68 35
    endloop
  endfacet
  facet normal 0 0 1
    outer loop
      vertex 27.6667 68 35
      vertex 25.6667 68 35
      vertex 27.6667 2 35
    endloop
  endfacet
  facet normal -0 0 1
    outer loop
      vertex -1 70 35
      vertex 27.6667 68 35
      vertex 80 70 35
    endloop
  endfacet
  facet normal 0 0 1
    outer loop
      vertex 27.6667 68 35
      vertex -1 70 35
      vertex 25.6667 68 35
    endloop
  endfacet
  facet normal 0 0 1
    outer loop
      vertex -1 0 35
      vertex 2 2 35
      vertex 2 68 35
    endloop
  endfacet
  facet normal 0 0 1
    outer loop
      vertex 25.6667 68 35
      vertex -1 70 35
      vertex 2 68 35
    endloop
  endfacet
  facet normal 0 0 1
    outer loop
      vertex -1 0 35
      vertex 2 68 35
      vertex -1 70 35
    endloop
  endfacet
  facet normal 0 0 1
    outer loop
      vertex 2 2 35
      vertex -1 0 35
      vertex 0 0 35
    endloop
  endfacet
  facet normal 0 0 1
    outer loop
      vertex 80 70 35
      vertex 78 2 35
      vertex 80 -1 35
    endloop
  endfacet
  facet normal -0 0 1
    outer loop
      vertex 54.3333 2 35
      vertex 80 -1 35
      vertex 78 2 35
    endloop
  endfacet
  facet normal 0 0 1
    outer loop
      vertex 52.3333 2 35
      vertex 54.3333 2 35
      vertex 52.3333 68 35
    endloop
  endfacet
  facet normal -0 0 1
    outer loop
      vertex 52.3333 2 35
      vertex 80 -1 35
      vertex 54.3333 2 35
    endloop
  endfacet
  facet normal -0 0 1
    outer loop
      vertex 27.6667 2 35
      vertex 80 -1 35
      vertex 52.3333 2 35
    endloop
  endfacet
  facet normal 0 0 1
    outer loop
      vertex 25.6667 2 35
      vertex 27.6667 2 35
      vertex 25.6667 68 35
    endloop
  endfacet
  facet normal 0 0 1
    outer loop
      vertex 0 -1 35
      vertex 27.6667 2 35
      vertex 25.6667 2 35
    endloop
  endfacet
  facet normal 0 0 1
    outer loop
      vertex 0 -1 35
      vertex 25.6667 2 35
      vertex 2 2 35
    endloop
  endfacet
  facet normal 0 0 1
    outer loop
      vertex 0 -1 35
      vertex 2 2 35
      vertex 0 0 35
    endloop
  endfacet
  facet normal 0 0 1
    outer loop
      vertex 27.6667 2 35
      vertex 0 -1 35
      vertex 80 -1 35
    endloop
  endfacet
  facet normal 1 -0 0
    outer loop
      vertex 80 -1 35
      vertex 80 70 0
      vertex 80 70 35
    endloop
  endfacet
  facet normal 1 0 0
    outer loop
      vertex 80 70 0
      vertex 80 -1 35
      vertex 80 -1 0
    endloop
  endfacet
  facet normal 0 1 -0
    outer loop
      vertex 80 70 0
      vertex -1 70 35
      vertex 80 70 35
    endloop
  endfacet
  facet normal 0 1 0
    outer loop
      vertex -1 70 35
      vertex 80 70 0
      vertex -1 70 0
    endloop
  endfacet
  facet normal 0 0 -1
    outer loop
      vertex 0 0 0
      vertex 80 -1 0
      vertex 0 -1 0
    endloop
  endfacet
  facet normal 0 0 -1
    outer loop
      vertex 80 -1 0
      vertex 0 0 0
      vertex 80 70 0
    endloop
  endfacet
  facet normal 0 0 -1
    outer loop
      vertex -1 70 0
      vertex 0 0 0
      vertex -1 0 0
    endloop
  endfacet
  facet normal 0 0 -1
    outer loop
      vertex 0 0 0
      vertex -1 70 0
      vertex 80 70 0
    endloop
  endfacet
  facet normal 1 -0 0
    outer loop
      vertex 2 2 35
      vertex 2 68 3
      vertex 2 68 35
    endloop
  endfacet
  facet normal 1 0 0
    outer loop
      vertex 2 68 3
      vertex 2 2 35
      vertex 2 2 3
    endloop
  endfacet
  facet normal -1 0 0
    outer loop
      vertex 78 2 3
      vertex 78 68 35
      vertex 78 68 3
    endloop
  endfacet
  facet normal -1 -0 0
    outer loop
      vertex 78 68 35
      vertex 78 2 3
      vertex 78 2 35
    endloop
  endfacet
  facet normal 0 -1 0
    outer loop
      vertex 54.3333 68 3
      vertex 78 68 35
      vertex 54.3333 68 35
    endloop
  endfacet
  facet normal 0 -1 -0
    outer loop
      vertex 78 68 35
      vertex 54.3333 68 3
      vertex 78 68 3
    endloop
  endfacet
  facet normal 0 -1 0
    outer loop
      vertex 2 68 3
      vertex 25.6667 68 35
      vertex 2 68 35
    endloop
  endfacet
  facet normal 0 -1 -0
    outer loop
      vertex 25.6667 68 35
      vertex 2 68 3
      vertex 25.6667 68 3
    endloop
  endfacet
  facet normal 0 -1 0
    outer loop
      vertex 27.6667 68 3
      vertex 52.3333 68 35
      vertex 27.6667 68 35
    endloop
  endfacet
  facet normal 0 -1 -0
    outer loop
      vertex 52.3333 68 35
      vertex 27.6667 68 3
      vertex 52.3333 68 3
    endloop
  endfacet
  facet normal -0 0 1
    outer loop
      vertex 2 68 3
      vertex 25.6667 2 3
      vertex 25.6667 68 3
    endloop
  endfacet
  facet normal 0 0 1
    outer loop
      vertex 25.6667 2 3
      vertex 2 68 3
      vertex 2 2 3
    endloop
  endfacet
  facet normal -0 0 1
    outer loop
      vertex 54.3333 68 3
      vertex 78 2 3
      vertex 78 68 3
    endloop
  endfacet
  facet normal 0 0 1
    outer loop
      vertex 78 2 3
      vertex 54.3333 68 3
      vertex 54.3333 2 3
    endloop
  endfacet
  facet normal 0 0 1
    outer loop
      vertex 52.3333 68 3
      vertex 50 35 3
      vertex 52.3333 2 3
    endloop
  endfacet
  facet normal 0 0 1
    outer loop
      vertex 52.3333 68 3
      vertex 49.7815 37.0791 3
      vertex 50 35 3
    endloop
  endfacet
  facet normal 0 0 1
    outer loop
      vertex 52.3333 68 3
      vertex 49.1355 39.0674 3
      vertex 49.7815 37.0791 3
    endloop
  endfacet
  facet normal 0 0 1
    outer loop
      vertex 52.3333 68 3
      vertex 48.0902 40.8779 3
      vertex 49.1355 39.0674 3
    endloop
  endfacet
  facet normal 0 0 1
    outer loop
      vertex 52.3333 68 3
      vertex 46.6913 42.4314 3
      vertex 48.0902 40.8779 3
    endloop
  endfacet
  facet normal 0 0 1
    outer loop
      vertex 52.3333 68 3
      vertex 45 43.6603 3
      vertex 46.6913 42.4314 3
    endloop
  endfacet
  facet normal 0 0 1
    outer loop
      vertex 52.3333 68 3
      vertex 43.0902 44.5106 3
      vertex 45 43.6603 3
    endloop
  endfacet
  facet normal 0 0 1
    outer loop
      vertex 52.3333 68 3
      vertex 41.0453 44.9452 3
      vertex 43.0902 44.5106 3
    endloop
  endfacet
  facet normal 0 0 1
    outer loop
      vertex 52.3333 68 3
      vertex 38.9547 44.9452 3
      vertex 41.0453 44.9452 3
    endloop
  endfacet
  facet normal -0 0 1
    outer loop
      vertex 27.6667 68 3
      vertex 38.9547 44.9452 3
      vertex 52.3333 68 3
    endloop
  endfacet
  facet normal 0 0 1
    outer loop
      vertex 38.9547 44.9452 3
      vertex 27.6667 68 3
      vertex 36.9098 44.5106 3
    endloop
  endfacet
  facet normal 0 0 1
    outer loop
      vertex 36.9098 44.5106 3
      vertex 27.6667 68 3
      vertex 35 43.6603 3
    endloop
  endfacet
  facet normal 0 0 1
    outer loop
      vertex 35 43.6603 3
      vertex 27.6667 68 3
      vertex 33.3087 42.4314 3
    endloop
  endfacet
  facet normal 0 0 1
    outer loop
      vertex 30.2185 37.0791 3
      vertex 27.6667 68 3
      vertex 30 35 3
    endloop
  endfacet
  facet normal 0 0 1
    outer loop
      vertex 30.8645 39.0674 3
      vertex 27.6667 68 3
      vertex 30.2185 37.0791 3
    endloop
  endfacet
  facet normal 0 0 1
    outer loop
      vertex 31.9098 40.8779 3
      vertex 27.6667 68 3
      vertex 30.8645 39.0674 3
    endloop
  endfacet
  facet normal 0 0 1
    outer loop
      vertex 33.3087 42.4314 3
      vertex 27.6667 68 3
      vertex 31.9098 40.8779 3
    endloop
  endfacet
  facet normal -0 0 1
    outer loop
      vertex 49.7815 32.9209 3
      vertex 52.3333 2 3
      vertex 50 35 3
    endloop
  endfacet
  facet normal -0 0 1
    outer loop
      vertex 49.1355 30.9326 3
      vertex 52.3333 2 3
      vertex 49.7815 32.9209 3
    endloop
  endfacet
  facet normal -0 0 1
    outer loop
      vertex 48.0902 29.1221 3
      vertex 52.3333 2 3
      vertex 49.1355 30.9326 3
    endloop
  endfacet
  facet normal -0 0 1
    outer loop
      vertex 46.6913 27.5686 3
      vertex 52.3333 2 3
      vertex 48.0902 29.1221 3
    endloop
  endfacet
  facet normal -0 0 1
    outer loop
      vertex 45 26.3397 3
      vertex 52.3333 2 3
      vertex 46.6913 27.5686 3
    endloop
  endfacet
  facet normal -0 0 1
    outer loop
      vertex 43.0902 25.4894 3
      vertex 52.3333 2 3
      vertex 45 26.3397 3
    endloop
  endfacet
  facet normal -0 0 1
    outer loop
      vertex 41.0453 25.0548 3
      vertex 52.3333 2 3
      vertex 43.0902 25.4894 3
    endloop
  endfacet
  facet normal -0 0 1
    outer loop
      vertex 38.9547 25.0548 3
      vertex 52.3333 2 3
      vertex 41.0453 25.0548 3
    endloop
  endfacet
  facet normal 0 0 1
    outer loop
      vertex 27.6667 2 3
      vertex 38.9547 25.0548 3
      vertex 36.9098 25.4894 3
    endloop
  endfacet
  facet normal 0 0 1
    outer loop
      vertex 27.6667 2 3
      vertex 36.9098 25.4894 3
      vertex 35 26.3397 3
    endloop
  endfacet
  facet normal 0 0 1
    outer loop
      vertex 27.6667 2 3
      vertex 35 26.3397 3
      vertex 33.3087 27.5686 3
    endloop
  endfacet
  facet normal 0 0 1
    outer loop
      vertex 27.6667 2 3
      vertex 33.3087 27.5686 3
      vertex 31.9098 29.1221 3
    endloop
  endfacet
  facet normal 0 0 1
    outer loop
      vertex 38.9547 25.0548 3
      vertex 27.6667 2 3
      vertex 52.3333 2 3
    endloop
  endfacet
  facet normal 0 0 1
    outer loop
      vertex 30.8645 30.9326 3
      vertex 27.6667 2 3
      vertex 31.9098 29.1221 3
    endloop
  endfacet
  facet normal 0 0 1
    outer loop
      vertex 30.2185 32.9209 3
      vertex 27.6667 2 3
      vertex 30.8645 30.9326 3
    endloop
  endfacet
  facet normal 0 0 1
    outer loop
      vertex 30 35 3
      vertex 27.6667 2 3
      vertex 30.2185 32.9209 3
    endloop
  endfacet
  facet normal 0 0 1
    outer loop
      vertex 27.6667 2 3
      vertex 30 35 3
      vertex 27.6667 68 3
    endloop
  endfacet
  facet normal 0 1 -0
    outer loop
      vertex 25.6667 2 3
      vertex 2 2 35
      vertex 25.6667 2 35
    endloop
  endfacet
  facet normal 0 1 0
    outer loop
      vertex 2 2 35
      vertex 25.6667 2 3
      vertex 2 2 3
    endloop
  endfacet
  facet normal 0 1 -0
    outer loop
      vertex 78 2 3
      vertex 54.3333 2 35
      vertex 78 2 35
    endloop
  endfacet
  facet normal 0 1 0
    outer loop
      vertex 54.3333 2 35
      vertex 78 2 3
      vertex 54.3333 2 3
    endloop
  endfacet
  facet normal 0 1 -0
    outer loop
      vertex 52.3333 2 3
      vertex 27.6667 2 35
      vertex 52.3333 2 35
    endloop
  endfacet
  facet normal 0 1 0
    outer loop
      vertex 27.6667 2 35
      vertex 52.3333 2 3
      vertex 27.6667 2 3
    endloop
  endfacet
  facet normal -1 0 0
    outer loop
      vertex -1 0 0
      vertex -1 70 35
      vertex -1 70 0
    endloop
  endfacet
  facet normal -1 -0 0
    outer loop
      vertex -1 70 35
      vertex -1 0 0
      vertex -1 0 35
    endloop
  endfacet
  facet normal 0 -1 0
    outer loop
      vertex -1 0 0
      vertex 0 0 35
      vertex -1 0 35
    endloop
  endfacet
  facet normal 0 -1 -0
    outer loop
      vertex 0 0 35
      vertex -1 0 0
      vertex 0 0 0
    endloop
  endfacet
  facet normal -1 0 0
    outer loop
      vertex 25.6667 2 3
      vertex 25.6667 68 35
      vertex 25.6667 68 3
    endloop
  endfacet
  facet normal -1 -0 0
    outer loop
      vertex 25.6667 68 35
      vertex 25.6667 2 3
      vertex 25.6667 2 35
    endloop
  endfacet
  facet normal 1 -0 0
    outer loop
      vertex 27.6667 2 35
      vertex 27.6667 68 3
      vertex 27.6667 68 35
    endloop
  endfacet
  facet normal 1 0 0
    outer loop
      vertex 27.6667 68 3
      vertex 27.6667 2 35
      vertex 27.6667 2 3
    endloop
  endfacet
  facet normal -1 0 0
    outer loop
      vertex 52.3333 2 3
      vertex 52.3333 68 35
      vertex 52.3333 68 3
    endloop
  endfacet
  facet normal -1 -0 0
    outer loop
      vertex 52.3333 68 35
      vertex 52.3333 2 3
      vertex 52.3333 2 35
    endloop
  endfacet
  facet normal 1 -0 0
    outer loop
      vertex 54.3333 2 35
      vertex 54.3333 68 3
      vertex 54.3333 68 35
    endloop
  endfacet
  facet normal 1 0 0
    outer loop
      vertex 54.3333 68 3
      vertex 54.3333 2 35
      vertex 54.3333 2 3
    endloop
  endfacet
  facet normal -1 0 0
    outer loop
      vertex 0 -1 0
      vertex 0 0 35
      vertex 0 0 0
    endloop
  endfacet
  facet normal -1 -0 0
    outer loop
      vertex 0 0 35
      vertex 0 -1 0
      vertex 0 -1 35
    endloop
  endfacet
  facet normal 0 -1 0
    outer loop
      vertex 0 -1 0
      vertex 80 -1 35
      vertex 0 -1 35
    endloop
  endfacet
  facet normal 0 -1 -0
    outer loop
      vertex 80 -1 35
      vertex 0 -1 0
      vertex 80 -1 0
    endloop
  endfacet
  facet normal 0.994522 0.104529 0
    outer loop
      vertex 50 35 35
      vertex 49.7815 37.0791 3
      vertex 49.7815 37.0791 35
    endloop
  endfacet
  facet normal 0.994522 0.104529 0
    outer loop
      vertex 49.7815 37.0791 3
      vertex 50 35 35
      vertex 50 35 3
    endloop
  endfacet
  facet normal -0.20791 0.978148 0
    outer loop
      vertex 38.9547 44.9452 3
      vertex 36.9098 44.5106 35
      vertex 38.9547 44.9452 35
    endloop
  endfacet
  facet normal -0.20791 0.978148 0
    outer loop
      vertex 36.9098 44.5106 35
      vertex 38.9547 44.9452 3
      vertex 36.9098 44.5106 3
    endloop
  endfacet
  facet normal 0.207911 -0.978148 0
    outer loop
      vertex 41.0453 25.0548 3
      vertex 43.0902 25.4894 35
      vertex 41.0453 25.0548 35
    endloop
  endfacet
  facet normal 0.207911 -0.978148 0
    outer loop
      vertex 43.0902 25.4894 35
      vertex 41.0453 25.0548 3
      vertex 43.0902 25.4894 3
    endloop
  endfacet
  facet normal 0.406737 -0.913545 0
    outer loop
      vertex 43.0902 25.4894 3
      vertex 45 26.3397 35
      vertex 43.0902 25.4894 35
    endloop
  endfacet
  facet normal 0.406737 -0.913545 0
    outer loop
      vertex 45 26.3397 35
      vertex 43.0902 25.4894 3
      vertex 45 26.3397 3
    endloop
  endfacet
  facet normal 0.587785 0.809017 -0
    outer loop
      vertex 46.6913 42.4314 3
      vertex 45 43.6603 35
      vertex 46.6913 42.4314 35
    endloop
  endfacet
  facet normal 0.587785 0.809017 0
    outer loop
      vertex 45 43.6603 35
      vertex 46.6913 42.4314 3
      vertex 45 43.6603 3
    endloop
  endfacet
  facet normal -0.743145 0.669131 0
    outer loop
      vertex 31.9098 40.8779 3
      vertex 33.3087 42.4314 35
      vertex 33.3087 42.4314 3
    endloop
  endfacet
  facet normal -0.743145 0.669131 0
    outer loop
      vertex 33.3087 42.4314 35
      vertex 31.9098 40.8779 3
      vertex 31.9098 40.8779 35
    endloop
  endfacet
  facet normal -0.587785 0.809017 0
    outer loop
      vertex 35 43.6603 3
      vertex 33.3087 42.4314 35
      vertex 35 43.6603 35
    endloop
  endfacet
  facet normal -0.587785 0.809017 0
    outer loop
      vertex 33.3087 42.4314 35
      vertex 35 43.6603 3
      vertex 33.3087 42.4314 3
    endloop
  endfacet
  facet normal 0.951056 -0.309017 0
    outer loop
      vertex 49.1355 30.9326 35
      vertex 49.7815 32.9209 3
      vertex 49.7815 32.9209 35
    endloop
  endfacet
  facet normal 0.951056 -0.309017 0
    outer loop
      vertex 49.7815 32.9209 3
      vertex 49.1355 30.9326 35
      vertex 49.1355 30.9326 3
    endloop
  endfacet
  facet normal 0.866026 0.499999 0
    outer loop
      vertex 49.1355 39.0674 35
      vertex 48.0902 40.8779 3
      vertex 48.0902 40.8779 35
    endloop
  endfacet
  facet normal 0.866026 0.499999 0
    outer loop
      vertex 48.0902 40.8779 3
      vertex 49.1355 39.0674 35
      vertex 49.1355 39.0674 3
    endloop
  endfacet
  facet normal 0.951056 0.309017 0
    outer loop
      vertex 49.7815 37.0791 35
      vertex 49.1355 39.0674 3
      vertex 49.1355 39.0674 35
    endloop
  endfacet
  facet normal 0.951056 0.309017 0
    outer loop
      vertex 49.1355 39.0674 3
      vertex 49.7815 37.0791 35
      vertex 49.7815 37.0791 3
    endloop
  endfacet
  facet normal 0.743145 0.669131 0
    outer loop
      vertex 48.0902 40.8779 35
      vertex 46.6913 42.4314 3
      vertex 46.6913 42.4314 35
    endloop
  endfacet
  facet normal 0.743145 0.669131 0
    outer loop
      vertex 46.6913 42.4314 3
      vertex 48.0902 40.8779 35
      vertex 48.0902 40.8779 3
    endloop
  endfacet
  facet normal 0.20791 0.978148 -0
    outer loop
      vertex 43.0902 44.5106 3
      vertex 41.0453 44.9452 35
      vertex 43.0902 44.5106 35
    endloop
  endfacet
  facet normal 0.20791 0.978148 0
    outer loop
      vertex 41.0453 44.9452 35
      vertex 43.0902 44.5106 3
      vertex 41.0453 44.9452 3
    endloop
  endfacet
  facet normal 0 1 -0
    outer loop
      vertex 41.0453 44.9452 3
      vertex 38.9547 44.9452 35
      vertex 41.0453 44.9452 35
    endloop
  endfacet
  facet normal 0 1 0
    outer loop
      vertex 38.9547 44.9452 35
      vertex 41.0453 44.9452 3
      vertex 38.9547 44.9452 3
    endloop
  endfacet
  facet normal 0.406737 0.913545 -0
    outer loop
      vertex 45 43.6603 3
      vertex 43.0902 44.5106 35
      vertex 45 43.6603 35
    endloop
  endfacet
  facet normal 0.406737 0.913545 0
    outer loop
      vertex 43.0902 44.5106 35
      vertex 45 43.6603 3
      vertex 43.0902 44.5106 3
    endloop
  endfacet
  facet normal -0.951057 0.309016 0
    outer loop
      vertex 30.2185 37.0791 3
      vertex 30.8645 39.0674 35
      vertex 30.8645 39.0674 3
    endloop
  endfacet
  facet normal -0.951057 0.309016 0
    outer loop
      vertex 30.8645 39.0674 35
      vertex 30.2185 37.0791 3
      vertex 30.2185 37.0791 35
    endloop
  endfacet
  facet normal -0.866025 0.5 0
    outer loop
      vertex 30.8645 39.0674 3
      vertex 31.9098 40.8779 35
      vertex 31.9098 40.8779 3
    endloop
  endfacet
  facet normal -0.866025 0.5 0
    outer loop
      vertex 31.9098 40.8779 35
      vertex 30.8645 39.0674 3
      vertex 30.8645 39.0674 35
    endloop
  endfacet
  facet normal -0.994522 0.104529 0
    outer loop
      vertex 30 35 3
      vertex 30.2185 37.0791 35
      vertex 30.2185 37.0791 3
    endloop
  endfacet
  facet normal -0.994522 0.104529 0
    outer loop
      vertex 30.2185 37.0791 35
      vertex 30 35 3
      vertex 30 35 35
    endloop
  endfacet
  facet normal 0 0 1
    outer loop
      vertex 48 35 35
      vertex 50 35 35
      vertex 49.7815 37.0791 35
    endloop
  endfacet
  facet normal 0 0 1
    outer loop
      vertex 47.7675 36.9145 35
      vertex 49.7815 37.0791 35
      vertex 49.1355 39.0674 35
    endloop
  endfacet
  facet normal 0 0 1
    outer loop
      vertex 50 35 35
      vertex 48 35 35
      vertex 49.7815 32.9209 35
    endloop
  endfacet
  facet normal 0 0 1
    outer loop
      vertex 47.0836 38.7178 35
      vertex 49.1355 39.0674 35
      vertex 48.0902 40.8779 35
    endloop
  endfacet
  facet normal -0 0 1
    outer loop
      vertex 47.7675 33.0855 35
      vertex 49.7815 32.9209 35
      vertex 48 35 35
    endloop
  endfacet
  facet normal 0 0 1
    outer loop
      vertex 49.7815 32.9209 35
      vertex 47.7675 33.0855 35
      vertex 49.1355 30.9326 35
    endloop
  endfacet
  facet normal 0 0 1
    outer loop
      vertex 49.7815 37.0791 35
      vertex 47.7675 36.9145 35
      vertex 48 35 35
    endloop
  endfacet
  facet normal 0 0 1
    outer loop
      vertex 49.1355 39.0674 35
      vertex 47.0836 38.7178 35
      vertex 47.7675 36.9145 35
    endloop
  endfacet
  facet normal 0 0 1
    outer loop
      vertex 45.9881 40.305 35
      vertex 48.0902 40.8779 35
      vertex 46.6913 42.4314 35
    endloop
  endfacet
  facet normal 0 0 1
    outer loop
      vertex 48.0902 40.8779 35
      vertex 45.9881 40.305 35
      vertex 47.0836 38.7178 35
    endloop
  endfacet
  facet normal 0 0 1
    outer loop
      vertex 44.5445 41.5839 35
      vertex 46.6913 42.4314 35
      vertex 45 43.6603 35
    endloop
  endfacet
  facet normal 0 0 1
    outer loop
      vertex 46.6913 42.4314 35
      vertex 44.5445 41.5839 35
      vertex 45.9881 40.305 35
    endloop
  endfacet
  facet normal 0 0 1
    outer loop
      vertex 42.8368 42.4801 35
      vertex 45 43.6603 35
      vertex 43.0902 44.5106 35
    endloop
  endfacet
  facet normal 0 0 1
    outer loop
      vertex 45 43.6603 35
      vertex 42.8368 42.4801 35
      vertex 44.5445 41.5839 35
    endloop
  endfacet
  facet normal 0 0 1
    outer loop
      vertex 40.9643 42.9417 35
      vertex 43.0902 44.5106 35
      vertex 41.0453 44.9452 35
    endloop
  endfacet
  facet normal 0 0 1
    outer loop
      vertex 43.0902 44.5106 35
      vertex 40.9643 42.9417 35
      vertex 42.8368 42.4801 35
    endloop
  endfacet
  facet normal 0 0 1
    outer loop
      vertex 41.0453 44.9452 35
      vertex 39.0357 42.9417 35
      vertex 40.9643 42.9417 35
    endloop
  endfacet
  facet normal -0 0 1
    outer loop
      vertex 38.9547 44.9452 35
      vertex 39.0357 42.9417 35
      vertex 41.0453 44.9452 35
    endloop
  endfacet
  facet normal -0 0 1
    outer loop
      vertex 36.9098 44.5106 35
      vertex 39.0357 42.9417 35
      vertex 38.9547 44.9452 35
    endloop
  endfacet
  facet normal 0 0 1
    outer loop
      vertex 39.0357 42.9417 35
      vertex 36.9098 44.5106 35
      vertex 37.1632 42.4801 35
    endloop
  endfacet
  facet normal -0 0 1
    outer loop
      vertex 35 43.6603 35
      vertex 37.1632 42.4801 35
      vertex 36.9098 44.5106 35
    endloop
  endfacet
  facet normal 0 0 1
    outer loop
      vertex 37.1632 42.4801 35
      vertex 35 43.6603 35
      vertex 35.4555 41.5839 35
    endloop
  endfacet
  facet normal -0 0 1
    outer loop
      vertex 33.3087 42.4314 35
      vertex 35.4555 41.5839 35
      vertex 35 43.6603 35
    endloop
  endfacet
  facet normal 0 0 1
    outer loop
      vertex 35.4555 41.5839 35
      vertex 33.3087 42.4314 35
      vertex 34.0119 40.305 35
    endloop
  endfacet
  facet normal -0 0 1
    outer loop
      vertex 31.9098 40.8779 35
      vertex 34.0119 40.305 35
      vertex 33.3087 42.4314 35
    endloop
  endfacet
  facet normal 0 0 1
    outer loop
      vertex 34.0119 40.305 35
      vertex 31.9098 40.8779 35
      vertex 32.9164 38.7178 35
    endloop
  endfacet
  facet normal 0 0 1
    outer loop
      vertex 32.9164 38.7178 35
      vertex 30.8645 39.0674 35
      vertex 32.2325 36.9145 35
    endloop
  endfacet
  facet normal -0 0 1
    outer loop
      vertex 30.8645 39.0674 35
      vertex 32.9164 38.7178 35
      vertex 31.9098 40.8779 35
    endloop
  endfacet
  facet normal -0 0 1
    outer loop
      vertex 47.0836 31.2822 35
      vertex 49.1355 30.9326 35
      vertex 47.7675 33.0855 35
    endloop
  endfacet
  facet normal 0 0 1
    outer loop
      vertex 49.1355 30.9326 35
      vertex 47.0836 31.2822 35
      vertex 48.0902 29.1221 35
    endloop
  endfacet
  facet normal -0 0 1
    outer loop
      vertex 45.9881 29.695 35
      vertex 48.0902 29.1221 35
      vertex 47.0836 31.2822 35
    endloop
  endfacet
  facet normal 0 0 1
    outer loop
      vertex 48.0902 29.1221 35
      vertex 45.9881 29.695 35
      vertex 46.6913 27.5686 35
    endloop
  endfacet
  facet normal -0 0 1
    outer loop
      vertex 44.5445 28.4161 35
      vertex 46.6913 27.5686 35
      vertex 45.9881 29.695 35
    endloop
  endfacet
  facet normal 0 0 1
    outer loop
      vertex 46.6913 27.5686 35
      vertex 44.5445 28.4161 35
      vertex 45 26.3397 35
    endloop
  endfacet
  facet normal -0 0 1
    outer loop
      vertex 42.8368 27.5199 35
      vertex 45 26.3397 35
      vertex 44.5445 28.4161 35
    endloop
  endfacet
  facet normal 0 0 1
    outer loop
      vertex 45 26.3397 35
      vertex 42.8368 27.5199 35
      vertex 43.0902 25.4894 35
    endloop
  endfacet
  facet normal -0 0 1
    outer loop
      vertex 40.9643 27.0583 35
      vertex 43.0902 25.4894 35
      vertex 42.8368 27.5199 35
    endloop
  endfacet
  facet normal 0 0 1
    outer loop
      vertex 43.0902 25.4894 35
      vertex 40.9643 27.0583 35
      vertex 41.0453 25.0548 35
    endloop
  endfacet
  facet normal -0 0 1
    outer loop
      vertex 39.0357 27.0583 35
      vertex 41.0453 25.0548 35
      vertex 40.9643 27.0583 35
    endloop
  endfacet
  facet normal 0 0 1
    outer loop
      vertex 39.0357 27.0583 35
      vertex 38.9547 25.0548 35
      vertex 41.0453 25.0548 35
    endloop
  endfacet
  facet normal 0 0 1
    outer loop
      vertex 36.9098 25.4894 35
      vertex 39.0357 27.0583 35
      vertex 37.1632 27.5199 35
    endloop
  endfacet
  facet normal 0 0 1
    outer loop
      vertex 39.0357 27.0583 35
      vertex 36.9098 25.4894 35
      vertex 38.9547 25.0548 35
    endloop
  endfacet
  facet normal 0 0 1
    outer loop
      vertex 35 26.3397 35
      vertex 37.1632 27.5199 35
      vertex 35.4555 28.4161 35
    endloop
  endfacet
  facet normal 0 0 1
    outer loop
      vertex 37.1632 27.5199 35
      vertex 35 26.3397 35
      vertex 36.9098 25.4894 35
    endloop
  endfacet
  facet normal 0 0 1
    outer loop
      vertex 33.3087 27.5686 35
      vertex 35.4555 28.4161 35
      vertex 34.0119 29.695 35
    endloop
  endfacet
  facet normal 0 0 1
    outer loop
      vertex 35.4555 28.4161 35
      vertex 33.3087 27.5686 35
      vertex 35 26.3397 35
    endloop
  endfacet
  facet normal 0 0 1
    outer loop
      vertex 31.9098 29.1221 35
      vertex 34.0119 29.695 35
      vertex 32.9164 31.2822 35
    endloop
  endfacet
  facet normal 0 0 1
    outer loop
      vertex 30.8645 30.9326 35
      vertex 32.9164 31.2822 35
      vertex 32.2325 33.0855 35
    endloop
  endfacet
  facet normal 0 0 1
    outer loop
      vertex 34.0119 29.695 35
      vertex 31.9098 29.1221 35
      vertex 33.3087 27.5686 35
    endloop
  endfacet
  facet normal 0 0 1
    outer loop
      vertex 30.2185 32.9209 35
      vertex 32.2325 33.0855 35
      vertex 32 35 35
    endloop
  endfacet
  facet normal -0 0 1
    outer loop
      vertex 30.2185 37.0791 35
      vertex 32.2325 36.9145 35
      vertex 30.8645 39.0674 35
    endloop
  endfacet
  facet normal 0 0 1
    outer loop
      vertex 32.2325 36.9145 35
      vertex 30.2185 37.0791 35
      vertex 32 35 35
    endloop
  endfacet
  facet normal 0 0 1
    outer loop
      vertex 32.9164 31.2822 35
      vertex 30.8645 30.9326 35
      vertex 31.9098 29.1221 35
    endloop
  endfacet
  facet normal 0 0 1
    outer loop
      vertex 30 35 35
      vertex 32 35 35
      vertex 30.2185 37.0791 35
    endloop
  endfacet
  facet normal 0 0 1
    outer loop
      vertex 32.2325 33.0855 35
      vertex 30.2185 32.9209 35
      vertex 30.8645 30.9326 35
    endloop
  endfacet
  facet normal 0 0 1
    outer loop
      vertex 32 35 35
      vertex 30 35 35
      vertex 30.2185 32.9209 35
    endloop
  endfacet
  facet normal -0.406737 0.913545 0
    outer loop
      vertex 36.9098 44.5106 3
      vertex 35 43.6603 35
      vertex 36.9098 44.5106 35
    endloop
  endfacet
  facet normal -0.406737 0.913545 0
    outer loop
      vertex 35 43.6603 35
      vertex 36.9098 44.5106 3
      vertex 35 43.6603 3
    endloop
  endfacet
  facet normal 0.994522 -0.104529 0
    outer loop
      vertex 49.7815 32.9209 35
      vertex 50 35 3
      vertex 50 35 35
    endloop
  endfacet
  facet normal 0.994522 -0.104529 0
    outer loop
      vertex 50 35 3
      vertex 49.7815 32.9209 35
      vertex 49.7815 32.9209 3
    endloop
  endfacet
  facet normal -0.994522 -0.104529 0
    outer loop
      vertex 30.2185 32.9209 3
      vertex 30 35 35
      vertex 30 35 3
    endloop
  endfacet
  facet normal -0.994522 -0.104529 0
    outer loop
      vertex 30 35 35
      vertex 30.2185 32.9209 3
      vertex 30.2185 32.9209 35
    endloop
  endfacet
  facet normal 0.866026 -0.499999 0
    outer loop
      vertex 48.0902 29.1221 35
      vertex 49.1355 30.9326 3
      vertex 49.1355 30.9326 35
    endloop
  endfacet
  facet normal 0.866026 -0.499999 0
    outer loop
      vertex 49.1355 30.9326 3
      vertex 48.0902 29.1221 35
      vertex 48.0902 29.1221 3
    endloop
  endfacet
  facet normal -0.743145 -0.669131 0
    outer loop
      vertex 33.3087 27.5686 3
      vertex 31.9098 29.1221 35
      vertex 31.9098 29.1221 3
    endloop
  endfacet
  facet normal -0.743145 -0.669131 0
    outer loop
      vertex 31.9098 29.1221 35
      vertex 33.3087 27.5686 3
      vertex 33.3087 27.5686 35
    endloop
  endfacet
  facet normal -0.587785 -0.809017 0
    outer loop
      vertex 33.3087 27.5686 3
      vertex 35 26.3397 35
      vertex 33.3087 27.5686 35
    endloop
  endfacet
  facet normal -0.587785 -0.809017 -0
    outer loop
      vertex 35 26.3397 35
      vertex 33.3087 27.5686 3
      vertex 35 26.3397 3
    endloop
  endfacet
  facet normal 0.587785 -0.809017 0
    outer loop
      vertex 45 26.3397 3
      vertex 46.6913 27.5686 35
      vertex 45 26.3397 35
    endloop
  endfacet
  facet normal 0.587785 -0.809017 0
    outer loop
      vertex 46.6913 27.5686 35
      vertex 45 26.3397 3
      vertex 46.6913 27.5686 3
    endloop
  endfacet
  facet normal 0 -1 0
    outer loop
      vertex 38.9547 25.0548 3
      vertex 41.0453 25.0548 35
      vertex 38.9547 25.0548 35
    endloop
  endfacet
  facet normal 0 -1 -0
    outer loop
      vertex 41.0453 25.0548 35
      vertex 38.9547 25.0548 3
      vertex 41.0453 25.0548 3
    endloop
  endfacet
  facet normal -0.866025 -0.5 0
    outer loop
      vertex 31.9098 29.1221 3
      vertex 30.8645 30.9326 35
      vertex 30.8645 30.9326 3
    endloop
  endfacet
  facet normal -0.866025 -0.5 0
    outer loop
      vertex 30.8645 30.9326 35
      vertex 31.9098 29.1221 3
      vertex 31.9098 29.1221 35
    endloop
  endfacet
  facet normal -0.951057 -0.309016 0
    outer loop
      vertex 30.8645 30.9326 3
      vertex 30.2185 32.9209 35
      vertex 30.2185 32.9209 3
    endloop
  endfacet
  facet normal -0.951057 -0.309016 0
    outer loop
      vertex 30.2185 32.9209 35
      vertex 30.8645 30.9326 3
      vertex 30.8645 30.9326 35
    endloop
  endfacet
  facet normal 0.743145 -0.669131 0
    outer loop
      vertex 46.6913 27.5686 35
      vertex 48.0902 29.1221 3
      vertex 48.0902 29.1221 35
    endloop
  endfacet
  facet normal 0.743145 -0.669131 0
    outer loop
      vertex 48.0902 29.1221 3
      vertex 46.6913 27.5686 35
      vertex 46.6913 27.5686 3
    endloop
  endfacet
  facet normal -0.207911 -0.978148 0
    outer loop
      vertex 36.9098 25.4894 3
      vertex 38.9547 25.0548 35
      vertex 36.9098 25.4894 35
    endloop
  endfacet
  facet normal -0.207911 -0.978148 -0
    outer loop
      vertex 38.9547 25.0548 35
      vertex 36.9098 25.4894 3
      vertex 38.9547 25.0548 3
    endloop
  endfacet
  facet normal -0.406737 -0.913545 0
    outer loop
      vertex 35 26.3397 3
      vertex 36.9098 25.4894 35
      vertex 35 26.3397 35
    endloop
  endfacet
  facet normal -0.406737 -0.913545 -0
    outer loop
      vertex 36.9098 25.4894 35
      vertex 35 26.3397 3
      vertex 36.9098 25.4894 3
    endloop
  endfacet
  facet normal -0.992709 -0.120538 0
    outer loop
      vertex 48 35 31.8
      vertex 47.7675 36.9145 35
      vertex 47.7675 36.9145 31.8
    endloop
  endfacet
  facet normal -0.992709 -0.120538 0
    outer loop
      vertex 47.7675 36.9145 35
      vertex 48 35 31.8
      vertex 48 35 35
    endloop
  endfacet
  facet normal 0.239316 -0.970942 0
    outer loop
      vertex 37.1632 42.4801 31.8
      vertex 39.0357 42.9417 35
      vertex 37.1632 42.4801 35
    endloop
  endfacet
  facet normal 0.239316 -0.970942 0
    outer loop
      vertex 39.0357 42.9417 35
      vertex 37.1632 42.4801 31.8
      vertex 39.0357 42.9417 31.8
    endloop
  endfacet
  facet normal -0.239316 0.970942 0
    outer loop
      vertex 42.8368 27.5199 31.8
      vertex 40.9643 27.0583 35
      vertex 42.8368 27.5199 35
    endloop
  endfacet
  facet normal -0.239316 0.970942 0
    outer loop
      vertex 40.9643 27.0583 35
      vertex 42.8368 27.5199 31.8
      vertex 40.9643 27.0583 31.8
    endloop
  endfacet
  facet normal -0.822984 0.568065 0
    outer loop
      vertex 45.9881 29.695 31.8
      vertex 47.0836 31.2822 35
      vertex 47.0836 31.2822 31.8
    endloop
  endfacet
  facet normal -0.822984 0.568065 0
    outer loop
      vertex 47.0836 31.2822 35
      vertex 45.9881 29.695 31.8
      vertex 45.9881 29.695 35
    endloop
  endfacet
  facet normal -0.663122 -0.748511 0
    outer loop
      vertex 44.5445 41.5839 31.8
      vertex 45.9881 40.305 35
      vertex 44.5445 41.5839 35
    endloop
  endfacet
  facet normal -0.663122 -0.748511 -0
    outer loop
      vertex 45.9881 40.305 35
      vertex 44.5445 41.5839 31.8
      vertex 45.9881 40.305 31.8
    endloop
  endfacet
  facet normal 0.822984 -0.568065 0
    outer loop
      vertex 32.9164 38.7178 35
      vertex 34.0119 40.305 31.8
      vertex 34.0119 40.305 35
    endloop
  endfacet
  facet normal 0.822984 -0.568065 0
    outer loop
      vertex 34.0119 40.305 31.8
      vertex 32.9164 38.7178 35
      vertex 32.9164 38.7178 31.8
    endloop
  endfacet
  facet normal 0.935016 -0.354605 0
    outer loop
      vertex 32.2325 36.9145 35
      vertex 32.9164 38.7178 31.8
      vertex 32.9164 38.7178 35
    endloop
  endfacet
  facet normal 0.935016 -0.354605 0
    outer loop
      vertex 32.9164 38.7178 31.8
      vertex 32.2325 36.9145 35
      vertex 32.2325 36.9145 31.8
    endloop
  endfacet
  facet normal 0.663122 -0.748511 0
    outer loop
      vertex 34.0119 40.305 31.8
      vertex 35.4555 41.5839 35
      vertex 34.0119 40.305 35
    endloop
  endfacet
  facet normal 0.663122 -0.748511 0
    outer loop
      vertex 35.4555 41.5839 35
      vertex 34.0119 40.305 31.8
      vertex 35.4555 41.5839 31.8
    endloop
  endfacet
  facet normal -0.935017 0.354604 0
    outer loop
      vertex 47.0836 31.2822 31.8
      vertex 47.7675 33.0855 35
      vertex 47.7675 33.0855 31.8
    endloop
  endfacet
  facet normal -0.935017 0.354604 0
    outer loop
      vertex 47.7675 33.0855 35
      vertex 47.0836 31.2822 31.8
      vertex 47.0836 31.2822 35
    endloop
  endfacet
  facet normal -0.822984 -0.568065 0
    outer loop
      vertex 47.0836 38.7178 31.8
      vertex 45.9881 40.305 35
      vertex 45.9881 40.305 31.8
    endloop
  endfacet
  facet normal -0.822984 -0.568065 0
    outer loop
      vertex 45.9881 40.305 35
      vertex 47.0836 38.7178 31.8
      vertex 47.0836 38.7178 35
    endloop
  endfacet
  facet normal -0.935017 -0.354604 0
    outer loop
      vertex 47.7675 36.9145 31.8
      vertex 47.0836 38.7178 35
      vertex 47.0836 38.7178 31.8
    endloop
  endfacet
  facet normal -0.935017 -0.354604 0
    outer loop
      vertex 47.0836 38.7178 35
      vertex 47.7675 36.9145 31.8
      vertex 47.7675 36.9145 35
    endloop
  endfacet
  facet normal -0.239316 -0.970942 0
    outer loop
      vertex 40.9643 42.9417 31.8
      vertex 42.8368 42.4801 35
      vertex 40.9643 42.9417 35
    endloop
  endfacet
  facet normal -0.239316 -0.970942 -0
    outer loop
      vertex 42.8368 42.4801 35
      vertex 40.9643 42.9417 31.8
      vertex 42.8368 42.4801 31.8
    endloop
  endfacet
  facet normal 0 -1 0
    outer loop
      vertex 39.0357 42.9417 31.8
      vertex 40.9643 42.9417 35
      vertex 39.0357 42.9417 35
    endloop
  endfacet
  facet normal 0 -1 -0
    outer loop
      vertex 40.9643 42.9417 35
      vertex 39.0357 42.9417 31.8
      vertex 40.9643 42.9417 31.8
    endloop
  endfacet
  facet normal -0.464723 -0.885456 0
    outer loop
      vertex 42.8368 42.4801 31.8
      vertex 44.5445 41.5839 35
      vertex 42.8368 42.4801 35
    endloop
  endfacet
  facet normal -0.464723 -0.885456 -0
    outer loop
      vertex 44.5445 41.5839 35
      vertex 42.8368 42.4801 31.8
      vertex 44.5445 41.5839 31.8
    endloop
  endfacet
  facet normal 0 0 1
    outer loop
      vertex 47.7675 36.9145 31.8
      vertex 47.7675 33.0855 31.8
      vertex 48 35 31.8
    endloop
  endfacet
  facet normal 0 0 1
    outer loop
      vertex 47.0836 38.7178 31.8
      vertex 47.7675 33.0855 31.8
      vertex 47.7675 36.9145 31.8
    endloop
  endfacet
  facet normal 0 0 1
    outer loop
      vertex 47.0836 38.7178 31.8
      vertex 47.0836 31.2822 31.8
      vertex 47.7675 33.0855 31.8
    endloop
  endfacet
  facet normal 0 0 1
    outer loop
      vertex 45.9881 40.305 31.8
      vertex 47.0836 31.2822 31.8
      vertex 47.0836 38.7178 31.8
    endloop
  endfacet
  facet normal 0 0 1
    outer loop
      vertex 45.9881 40.305 31.8
      vertex 45.9881 29.695 31.8
      vertex 47.0836 31.2822 31.8
    endloop
  endfacet
  facet normal 0 0 1
    outer loop
      vertex 44.5445 41.5839 31.8
      vertex 45.9881 29.695 31.8
      vertex 45.9881 40.305 31.8
    endloop
  endfacet
  facet normal 0 0 1
    outer loop
      vertex 44.5445 41.5839 31.8
      vertex 44.5445 28.4161 31.8
      vertex 45.9881 29.695 31.8
    endloop
  endfacet
  facet normal 0 0 1
    outer loop
      vertex 42.8368 42.4801 31.8
      vertex 44.5445 28.4161 31.8
      vertex 44.5445 41.5839 31.8
    endloop
  endfacet
  facet normal 0 0 1
    outer loop
      vertex 42.8368 42.4801 31.8
      vertex 42.8368 27.5199 31.8
      vertex 44.5445 28.4161 31.8
    endloop
  endfacet
  facet normal 0 0 1
    outer loop
      vertex 40.9643 42.9417 31.8
      vertex 42.8368 27.5199 31.8
      vertex 42.8368 42.4801 31.8
    endloop
  endfacet
  facet normal 0 0 1
    outer loop
      vertex 40.9643 42.9417 31.8
      vertex 40.9643 27.0583 31.8
      vertex 42.8368 27.5199 31.8
    endloop
  endfacet
  facet normal -0 0 1
    outer loop
      vertex 39.0357 42.9417 31.8
      vertex 40.9643 27.0583 31.8
      vertex 40.9643 42.9417 31.8
    endloop
  endfacet
  facet normal 0 0 1
    outer loop
      vertex 39.0357 42.9417 31.8
      vertex 39.0357 27.0583 31.8
      vertex 40.9643 27.0583 31.8
    endloop
  endfacet
  facet normal -0 0 1
    outer loop
      vertex 37.1632 42.4801 31.8
      vertex 39.0357 27.0583 31.8
      vertex 39.0357 42.9417 31.8
    endloop
  endfacet
  facet normal 0 0 1
    outer loop
      vertex 37.1632 42.4801 31.8
      vertex 37.1632 27.5199 31.8
      vertex 39.0357 27.0583 31.8
    endloop
  endfacet
  facet normal -0 0 1
    outer loop
      vertex 35.4555 41.5839 31.8
      vertex 37.1632 27.5199 31.8
      vertex 37.1632 42.4801 31.8
    endloop
  endfacet
  facet normal 0 0 1
    outer loop
      vertex 35.4555 41.5839 31.8
      vertex 35.4555 28.4161 31.8
      vertex 37.1632 27.5199 31.8
    endloop
  endfacet
  facet normal -0 0 1
    outer loop
      vertex 34.0119 40.305 31.8
      vertex 35.4555 28.4161 31.8
      vertex 35.4555 41.5839 31.8
    endloop
  endfacet
  facet normal 0 0 1
    outer loop
      vertex 34.0119 40.305 31.8
      vertex 34.0119 29.695 31.8
      vertex 35.4555 28.4161 31.8
    endloop
  endfacet
  facet normal -0 0 1
    outer loop
      vertex 32.9164 38.7178 31.8
      vertex 34.0119 29.695 31.8
      vertex 34.0119 40.305 31.8
    endloop
  endfacet
  facet normal 0 0 1
    outer loop
      vertex 32.9164 38.7178 31.8
      vertex 32.9164 31.2822 31.8
      vertex 34.0119 29.695 31.8
    endloop
  endfacet
  facet normal -0 0 1
    outer loop
      vertex 32.2325 36.9145 31.8
      vertex 32.9164 31.2822 31.8
      vertex 32.9164 38.7178 31.8
    endloop
  endfacet
  facet normal 0 0 1
    outer loop
      vertex 32.2325 36.9145 31.8
      vertex 32.2325 33.0855 31.8
      vertex 32.9164 31.2822 31.8
    endloop
  endfacet
  facet normal 0 -0 1
    outer loop
      vertex 32.2325 33.0855 31.8
      vertex 32.2325 36.9145 31.8
      vertex 32 35 31.8
    endloop
  endfacet
  facet normal 0.992709 -0.120536 0
    outer loop
      vertex 32 35 35
      vertex 32.2325 36.9145 31.8
      vertex 32.2325 36.9145 35
    endloop
  endfacet
  facet normal 0.992709 -0.120536 0
    outer loop
      vertex 32.2325 36.9145 31.8
      vertex 32 35 35
      vertex 32 35 31.8
    endloop
  endfacet
  facet normal 0.464723 -0.885456 0
    outer loop
      vertex 35.4555 41.5839 31.8
      vertex 37.1632 42.4801 35
      vertex 35.4555 41.5839 35
    endloop
  endfacet
  facet normal 0.464723 -0.885456 0
    outer loop
      vertex 37.1632 42.4801 35
      vertex 35.4555 41.5839 31.8
      vertex 37.1632 42.4801 31.8
    endloop
  endfacet
  facet normal -0.992709 0.120538 0
    outer loop
      vertex 47.7675 33.0855 31.8
      vertex 48 35 35
      vertex 48 35 31.8
    endloop
  endfacet
  facet normal -0.992709 0.120538 0
    outer loop
      vertex 48 35 35
      vertex 47.7675 33.0855 31.8
      vertex 47.7675 33.0855 35
    endloop
  endfacet
  facet normal -0.464722 0.885456 0
    outer loop
      vertex 44.5445 28.4161 31.8
      vertex 42.8368 27.5199 35
      vertex 44.5445 28.4161 35
    endloop
  endfacet
  facet normal -0.464722 0.885456 0
    outer loop
      vertex 42.8368 27.5199 35
      vertex 44.5445 28.4161 31.8
      vertex 42.8368 27.5199 31.8
    endloop
  endfacet
  facet normal 0.992709 0.120536 0
    outer loop
      vertex 32.2325 33.0855 35
      vertex 32 35 31.8
      vertex 32 35 35
    endloop
  endfacet
  facet normal 0.992709 0.120536 0
    outer loop
      vertex 32 35 31.8
      vertex 32.2325 33.0855 35
      vertex 32.2325 33.0855 31.8
    endloop
  endfacet
  facet normal 0.663123 0.748511 -0
    outer loop
      vertex 35.4555 28.4161 31.8
      vertex 34.0119 29.695 35
      vertex 35.4555 28.4161 35
    endloop
  endfacet
  facet normal 0.663123 0.748511 0
    outer loop
      vertex 34.0119 29.695 35
      vertex 35.4555 28.4161 31.8
      vertex 34.0119 29.695 31.8
    endloop
  endfacet
  facet normal -0.663123 0.748511 0
    outer loop
      vertex 45.9881 29.695 31.8
      vertex 44.5445 28.4161 35
      vertex 45.9881 29.695 35
    endloop
  endfacet
  facet normal -0.663123 0.748511 0
    outer loop
      vertex 44.5445 28.4161 35
      vertex 45.9881 29.695 31.8
      vertex 44.5445 28.4161 31.8
    endloop
  endfacet
  facet normal 0 1 -0
    outer loop
      vertex 40.9643 27.0583 31.8
      vertex 39.0357 27.0583 35
      vertex 40.9643 27.0583 35
    endloop
  endfacet
  facet normal 0 1 0
    outer loop
      vertex 39.0357 27.0583 35
      vertex 40.9643 27.0583 31.8
      vertex 39.0357 27.0583 31.8
    endloop
  endfacet
  facet normal 0.464722 0.885456 -0
    outer loop
      vertex 37.1632 27.5199 31.8
      vertex 35.4555 28.4161 35
      vertex 37.1632 27.5199 35
    endloop
  endfacet
  facet normal 0.464722 0.885456 0
    outer loop
      vertex 35.4555 28.4161 35
      vertex 37.1632 27.5199 31.8
      vertex 35.4555 28.4161 31.8
    endloop
  endfacet
  facet normal 0.239316 0.970942 -0
    outer loop
      vertex 39.0357 27.0583 31.8
      vertex 37.1632 27.5199 35
      vertex 39.0357 27.0583 35
    endloop
  endfacet
  facet normal 0.239316 0.970942 0
    outer loop
      vertex 37.1632 27.5199 35
      vertex 39.0357 27.0583 31.8
      vertex 37.1632 27.5199 31.8
    endloop
  endfacet
  facet normal 0.822984 0.568065 0
    outer loop
      vertex 34.0119 29.695 35
      vertex 32.9164 31.2822 31.8
      vertex 32.9164 31.2822 35
    endloop
  endfacet
  facet normal 0.822984 0.568065 0
    outer loop
      vertex 32.9164 31.2822 31.8
      vertex 34.0119 29.695 35
      vertex 34.0119 29.695 31.8
    endloop
  endfacet
  facet normal 0.935016 0.354606 0
    outer loop
      vertex 32.9164 31.2822 35
      vertex 32.2325 33.0855 31.8
      vertex 32.2325 33.0855 35
    endloop
  endfacet
  facet normal 0.935016 0.354606 0
    outer loop
      vertex 32.2325 33.0855 31.8
      vertex 32.9164 31.2822 35
      vertex 32.9164 31.2822 31.8
    endloop
  endfacet
endsolid OpenSCAD_Model
