solid OpenSCAD_Model
  facet normal -1 0 0
    outer loop
      vertex 0 0 0
      vertex 0 85 35
      vertex 0 85 0
    endloop
  endfacet
  facet normal -1 -0 0
    outer loop
      vertex 0 85 35
      vertex 0 0 0
      vertex 0 0 35
    endloop
  endfacet
  facet normal -0 0 1
    outer loop
      vertex 49.9183 29.3333 35
      vertex 83 27.3333 35
      vertex 83 29.3333 35
    endloop
  endfacet
  facet normal 0 0 1
    outer loop
      vertex 49.9183 29.3333 35
      vertex 49.9183 27.3333 35
      vertex 83 27.3333 35
    endloop
  endfacet
  facet normal -0 0 1
    outer loop
      vertex 48.759 30.264 35
      vertex 49.9183 29.3333 35
      vertex 49.7927 30.2874 35
    endloop
  endfacet
  facet normal 0 0 1
    outer loop
      vertex 49.9183 29.3333 35
      vertex 49.05 28.3333 35
      vertex 49.9183 27.3333 35
    endloop
  endfacet
  facet normal 0 0 1
    outer loop
      vertex 48.759 26.4027 35
      vertex 49.9183 27.3333 35
      vertex 49.05 28.3333 35
    endloop
  endfacet
  facet normal 0 0 1
    outer loop
      vertex 48.759 30.264 35
      vertex 49.7927 30.2874 35
      vertex 49.0385 32.1083 35
    endloop
  endfacet
  facet normal 0 0 1
    outer loop
      vertex 49.9183 29.3333 35
      vertex 48.759 30.264 35
      vertex 49.05 28.3333 35
    endloop
  endfacet
  facet normal 0 0 1
    outer loop
      vertex 49.0385 32.1083 35
      vertex 47.9119 32.0231 35
      vertex 48.759 30.264 35
    endloop
  endfacet
  facet normal 0 0 1
    outer loop
      vertex 47.8387 33.672 35
      vertex 47.9119 32.0231 35
      vertex 49.0385 32.1083 35
    endloop
  endfacet
  facet normal 0 0 1
    outer loop
      vertex 47.8387 33.672 35
      vertex 46.5839 33.4543 35
      vertex 47.9119 32.0231 35
    endloop
  endfacet
  facet normal 0 0 1
    outer loop
      vertex 46.275 34.8718 35
      vertex 46.5839 33.4543 35
      vertex 47.8387 33.672 35
    endloop
  endfacet
  facet normal 0 0 1
    outer loop
      vertex 46.275 34.8718 35
      vertex 44.893 34.4306 35
      vertex 46.5839 33.4543 35
    endloop
  endfacet
  facet normal 0 0 1
    outer loop
      vertex 44.4541 35.6261 35
      vertex 44.893 34.4306 35
      vertex 46.275 34.8718 35
    endloop
  endfacet
  facet normal 0 0 1
    outer loop
      vertex 44.4541 35.6261 35
      vertex 42.9895 34.865 35
      vertex 44.893 34.4306 35
    endloop
  endfacet
  facet normal 0 0 1
    outer loop
      vertex 42.5 35.8833 35
      vertex 42.9895 34.865 35
      vertex 44.4541 35.6261 35
    endloop
  endfacet
  facet normal 0 0 1
    outer loop
      vertex 42.5 35.8833 35
      vertex 41.0425 34.7191 35
      vertex 42.9895 34.865 35
    endloop
  endfacet
  facet normal -0 0 1
    outer loop
      vertex 40.5459 35.6261 35
      vertex 41.0425 34.7191 35
      vertex 42.5 35.8833 35
    endloop
  endfacet
  facet normal 0 0 1
    outer loop
      vertex 40.5459 35.6261 35
      vertex 39.225 34.0058 35
      vertex 41.0425 34.7191 35
    endloop
  endfacet
  facet normal -0 0 1
    outer loop
      vertex 38.725 34.8718 35
      vertex 39.225 34.0058 35
      vertex 40.5459 35.6261 35
    endloop
  endfacet
  facet normal 0 0 1
    outer loop
      vertex 37.1613 33.672 35
      vertex 39.225 34.0058 35
      vertex 38.725 34.8718 35
    endloop
  endfacet
  facet normal 0 0 1
    outer loop
      vertex 39.225 34.0058 35
      vertex 37.1613 33.672 35
      vertex 37.6985 32.7885 35
    endloop
  endfacet
  facet normal 0 0 1
    outer loop
      vertex 35.9615 32.1083 35
      vertex 37.6985 32.7885 35
      vertex 37.1613 33.672 35
    endloop
  endfacet
  facet normal 0 0 1
    outer loop
      vertex 37.6985 32.7885 35
      vertex 35.9615 32.1083 35
      vertex 36.5987 31.1753 35
    endloop
  endfacet
  facet normal 0 0 1
    outer loop
      vertex 36.5987 31.1753 35
      vertex 35.2073 30.2874 35
      vertex 36.0232 29.3096 35
    endloop
  endfacet
  facet normal 0 0 1
    outer loop
      vertex 35.2073 30.2874 35
      vertex 36.5987 31.1753 35
      vertex 35.9615 32.1083 35
    endloop
  endfacet
  facet normal -0 0 1
    outer loop
      vertex 49.9183 57.6667 35
      vertex 83 55.6667 35
      vertex 83 57.6667 35
    endloop
  endfacet
  facet normal 0 0 1
    outer loop
      vertex 49.9183 57.6667 35
      vertex 49.9183 55.6667 35
      vertex 83 55.6667 35
    endloop
  endfacet
  facet normal -0 0 1
    outer loop
      vertex 48.759 58.5973 35
      vertex 49.9183 57.6667 35
      vertex 49.7927 58.6208 35
    endloop
  endfacet
  facet normal 0 0 1
    outer loop
      vertex 49.9183 57.6667 35
      vertex 49.05 56.6667 35
      vertex 49.9183 55.6667 35
    endloop
  endfacet
  facet normal 0 0 1
    outer loop
      vertex 48.759 54.736 35
      vertex 49.9183 55.6667 35
      vertex 49.05 56.6667 35
    endloop
  endfacet
  facet normal 0 0 1
    outer loop
      vertex 48.759 58.5973 35
      vertex 49.7927 58.6208 35
      vertex 49.0385 60.4417 35
    endloop
  endfacet
  facet normal 0 0 1
    outer loop
      vertex 49.9183 57.6667 35
      vertex 48.759 58.5973 35
      vertex 49.05 56.6667 35
    endloop
  endfacet
  facet normal 0 0 1
    outer loop
      vertex 49.0385 60.4417 35
      vertex 47.9119 60.3564 35
      vertex 48.759 58.5973 35
    endloop
  endfacet
  facet normal 0 0 1
    outer loop
      vertex 47.8387 62.0053 35
      vertex 47.9119 60.3564 35
      vertex 49.0385 60.4417 35
    endloop
  endfacet
  facet normal 0 0 1
    outer loop
      vertex 47.8387 62.0053 35
      vertex 46.5839 61.7877 35
      vertex 47.9119 60.3564 35
    endloop
  endfacet
  facet normal 0 0 1
    outer loop
      vertex 46.275 63.2052 35
      vertex 46.5839 61.7877 35
      vertex 47.8387 62.0053 35
    endloop
  endfacet
  facet normal 0 0 1
    outer loop
      vertex 46.275 63.2052 35
      vertex 44.893 62.7639 35
      vertex 46.5839 61.7877 35
    endloop
  endfacet
  facet normal 0 0 1
    outer loop
      vertex 44.4541 63.9594 35
      vertex 44.893 62.7639 35
      vertex 46.275 63.2052 35
    endloop
  endfacet
  facet normal 0 0 1
    outer loop
      vertex 44.4541 63.9594 35
      vertex 42.9895 63.1983 35
      vertex 44.893 62.7639 35
    endloop
  endfacet
  facet normal 0 0 1
    outer loop
      vertex 42.5 64.2167 35
      vertex 42.9895 63.1983 35
      vertex 44.4541 63.9594 35
    endloop
  endfacet
  facet normal 0 0 1
    outer loop
      vertex 42.5 64.2167 35
      vertex 41.0425 63.0524 35
      vertex 42.9895 63.1983 35
    endloop
  endfacet
  facet normal -0 0 1
    outer loop
      vertex 40.5459 63.9594 35
      vertex 41.0425 63.0524 35
      vertex 42.5 64.2167 35
    endloop
  endfacet
  facet normal 0 0 1
    outer loop
      vertex 40.5459 63.9594 35
      vertex 39.225 62.3391 35
      vertex 41.0425 63.0524 35
    endloop
  endfacet
  facet normal -0 0 1
    outer loop
      vertex 38.725 63.2052 35
      vertex 39.225 62.3391 35
      vertex 40.5459 63.9594 35
    endloop
  endfacet
  facet normal 0 0 1
    outer loop
      vertex 37.1613 62.0053 35
      vertex 39.225 62.3391 35
      vertex 38.725 63.2052 35
    endloop
  endfacet
  facet normal 0 0 1
    outer loop
      vertex 39.225 62.3391 35
      vertex 37.1613 62.0053 35
      vertex 37.6985 61.1218 35
    endloop
  endfacet
  facet normal 0 0 1
    outer loop
      vertex 35.9615 60.4417 35
      vertex 37.6985 61.1218 35
      vertex 37.1613 62.0053 35
    endloop
  endfacet
  facet normal 0 0 1
    outer loop
      vertex 37.6985 61.1218 35
      vertex 35.9615 60.4417 35
      vertex 36.5987 59.5086 35
    endloop
  endfacet
  facet normal 0 0 1
    outer loop
      vertex 36.5987 59.5086 35
      vertex 35.2073 58.6208 35
      vertex 36.0232 57.6429 35
    endloop
  endfacet
  facet normal 0 0 1
    outer loop
      vertex 35.2073 58.6208 35
      vertex 36.5987 59.5086 35
      vertex 35.9615 60.4417 35
    endloop
  endfacet
  facet normal 0 0 1
    outer loop
      vertex 83 57.6667 35
      vertex 85 85 35
      vertex 83 83 35
    endloop
  endfacet
  facet normal 0 0 1
    outer loop
      vertex 85 85 35
      vertex 2 83 35
      vertex 83 83 35
    endloop
  endfacet
  facet normal 0 0 1
    outer loop
      vertex 0 85 35
      vertex 2 57.6667 35
      vertex 2 83 35
    endloop
  endfacet
  facet normal 0 0 1
    outer loop
      vertex 2 57.6667 35
      vertex 0 85 35
      vertex 2 55.6667 35
    endloop
  endfacet
  facet normal 0 0 1
    outer loop
      vertex 2 55.6667 35
      vertex 0 85 35
      vertex 2 29.3333 35
    endloop
  endfacet
  facet normal 0 0 1
    outer loop
      vertex 0 0 35
      vertex 2 29.3333 35
      vertex 0 85 35
    endloop
  endfacet
  facet normal 0 0 1
    outer loop
      vertex 2 29.3333 35
      vertex 0 0 35
      vertex 2 27.3333 35
    endloop
  endfacet
  facet normal -0 0 1
    outer loop
      vertex 0 85 35
      vertex 2 83 35
      vertex 85 85 35
    endloop
  endfacet
  facet normal 0 0 1
    outer loop
      vertex 83 55.6667 35
      vertex 85 85 35
      vertex 83 57.6667 35
    endloop
  endfacet
  facet normal 0 0 1
    outer loop
      vertex 85 85 35
      vertex 83 55.6667 35
      vertex 85 0 35
    endloop
  endfacet
  facet normal -0 0 1
    outer loop
      vertex 83 29.3333 35
      vertex 85 0 35
      vertex 83 55.6667 35
    endloop
  endfacet
  facet normal -0 0 1
    outer loop
      vertex 83 27.3333 35
      vertex 85 0 35
      vertex 83 29.3333 35
    endloop
  endfacet
  facet normal -0 0 1
    outer loop
      vertex 83 2 35
      vertex 85 0 35
      vertex 83 27.3333 35
    endloop
  endfacet
  facet normal -0 0 1
    outer loop
      vertex 2 2 35
      vertex 85 0 35
      vertex 83 2 35
    endloop
  endfacet
  facet normal 0 0 1
    outer loop
      vertex 2 2 35
      vertex 0 0 35
      vertex 85 0 35
    endloop
  endfacet
  facet normal 0 0 1
    outer loop
      vertex 2 27.3333 35
      vertex 0 0 35
      vertex 2 2 35
    endloop
  endfacet
  facet normal 0 0 1
    outer loop
      vertex 49.9183 55.6667 35
      vertex 48.759 54.736 35
      vertex 49.7927 54.7126 35
    endloop
  endfacet
  facet normal 0 0 1
    outer loop
      vertex 49.7927 54.7126 35
      vertex 48.759 54.736 35
      vertex 49.0385 52.8917 35
    endloop
  endfacet
  facet normal -0 0 1
    outer loop
      vertex 47.9119 52.9769 35
      vertex 49.0385 52.8917 35
      vertex 48.759 54.736 35
    endloop
  endfacet
  facet normal 0 0 1
    outer loop
      vertex 47.9119 52.9769 35
      vertex 47.8387 51.328 35
      vertex 49.0385 52.8917 35
    endloop
  endfacet
  facet normal -0 0 1
    outer loop
      vertex 46.5839 51.5457 35
      vertex 47.8387 51.328 35
      vertex 47.9119 52.9769 35
    endloop
  endfacet
  facet normal 0 0 1
    outer loop
      vertex 46.5839 51.5457 35
      vertex 46.275 50.1282 35
      vertex 47.8387 51.328 35
    endloop
  endfacet
  facet normal -0 0 1
    outer loop
      vertex 44.893 50.5694 35
      vertex 46.275 50.1282 35
      vertex 46.5839 51.5457 35
    endloop
  endfacet
  facet normal 0 0 1
    outer loop
      vertex 44.893 50.5694 35
      vertex 44.4541 49.3739 35
      vertex 46.275 50.1282 35
    endloop
  endfacet
  facet normal -0 0 1
    outer loop
      vertex 42.9895 50.135 35
      vertex 44.4541 49.3739 35
      vertex 44.893 50.5694 35
    endloop
  endfacet
  facet normal 0 0 1
    outer loop
      vertex 42.9895 50.135 35
      vertex 42.5 49.1167 35
      vertex 44.4541 49.3739 35
    endloop
  endfacet
  facet normal 0 0 1
    outer loop
      vertex 41.0425 50.2809 35
      vertex 42.5 49.1167 35
      vertex 42.9895 50.135 35
    endloop
  endfacet
  facet normal 0 0 1
    outer loop
      vertex 41.0425 50.2809 35
      vertex 40.5459 49.3739 35
      vertex 42.5 49.1167 35
    endloop
  endfacet
  facet normal 0 0 1
    outer loop
      vertex 39.225 50.9942 35
      vertex 40.5459 49.3739 35
      vertex 41.0425 50.2809 35
    endloop
  endfacet
  facet normal 0 0 1
    outer loop
      vertex 39.225 50.9942 35
      vertex 38.725 50.1282 35
      vertex 40.5459 49.3739 35
    endloop
  endfacet
  facet normal -0 0 1
    outer loop
      vertex 37.1613 51.328 35
      vertex 39.225 50.9942 35
      vertex 37.6985 52.2115 35
    endloop
  endfacet
  facet normal 0 0 1
    outer loop
      vertex 39.225 50.9942 35
      vertex 37.1613 51.328 35
      vertex 38.725 50.1282 35
    endloop
  endfacet
  facet normal -0 0 1
    outer loop
      vertex 35.9615 52.8917 35
      vertex 37.6985 52.2115 35
      vertex 36.5987 53.8247 35
    endloop
  endfacet
  facet normal -0 0 1
    outer loop
      vertex 35.2073 54.7126 35
      vertex 36.5987 53.8247 35
      vertex 36.0232 55.6904 35
    endloop
  endfacet
  facet normal 0 0 1
    outer loop
      vertex 37.6985 52.2115 35
      vertex 35.9615 52.8917 35
      vertex 37.1613 51.328 35
    endloop
  endfacet
  facet normal -0 0 1
    outer loop
      vertex 35.0817 57.6667 35
      vertex 36.0232 57.6429 35
      vertex 35.2073 58.6208 35
    endloop
  endfacet
  facet normal 0 0 1
    outer loop
      vertex 36.0232 57.6429 35
      vertex 35.0817 57.6667 35
      vertex 36.0232 55.6904 35
    endloop
  endfacet
  facet normal 0 0 1
    outer loop
      vertex 35.0817 55.6667 35
      vertex 36.0232 55.6904 35
      vertex 35.0817 57.6667 35
    endloop
  endfacet
  facet normal 0 -0 1
    outer loop
      vertex 35.2073 54.7126 35
      vertex 36.0232 55.6904 35
      vertex 35.0817 55.6667 35
    endloop
  endfacet
  facet normal 0 0 1
    outer loop
      vertex 36.5987 53.8247 35
      vertex 35.2073 54.7126 35
      vertex 35.9615 52.8917 35
    endloop
  endfacet
  facet normal -0 0 1
    outer loop
      vertex 2 57.6667 35
      vertex 35.0817 55.6667 35
      vertex 35.0817 57.6667 35
    endloop
  endfacet
  facet normal 0 0 1
    outer loop
      vertex 35.0817 55.6667 35
      vertex 2 57.6667 35
      vertex 2 55.6667 35
    endloop
  endfacet
  facet normal 0 0 1
    outer loop
      vertex 49.9183 27.3333 35
      vertex 48.759 26.4027 35
      vertex 49.7927 26.3792 35
    endloop
  endfacet
  facet normal 0 0 1
    outer loop
      vertex 49.7927 26.3792 35
      vertex 48.759 26.4027 35
      vertex 49.0385 24.5583 35
    endloop
  endfacet
  facet normal -0 0 1
    outer loop
      vertex 47.9119 24.6436 35
      vertex 49.0385 24.5583 35
      vertex 48.759 26.4027 35
    endloop
  endfacet
  facet normal 0 0 1
    outer loop
      vertex 47.9119 24.6436 35
      vertex 47.8387 22.9947 35
      vertex 49.0385 24.5583 35
    endloop
  endfacet
  facet normal -0 0 1
    outer loop
      vertex 46.5839 23.2123 35
      vertex 47.8387 22.9947 35
      vertex 47.9119 24.6436 35
    endloop
  endfacet
  facet normal 0 0 1
    outer loop
      vertex 46.5839 23.2123 35
      vertex 46.275 21.7948 35
      vertex 47.8387 22.9947 35
    endloop
  endfacet
  facet normal -0 0 1
    outer loop
      vertex 44.893 22.2361 35
      vertex 46.275 21.7948 35
      vertex 46.5839 23.2123 35
    endloop
  endfacet
  facet normal 0 0 1
    outer loop
      vertex 44.893 22.2361 35
      vertex 44.4541 21.0406 35
      vertex 46.275 21.7948 35
    endloop
  endfacet
  facet normal -0 0 1
    outer loop
      vertex 42.9895 21.8016 35
      vertex 44.4541 21.0406 35
      vertex 44.893 22.2361 35
    endloop
  endfacet
  facet normal 0 0 1
    outer loop
      vertex 42.9895 21.8016 35
      vertex 42.5 20.7833 35
      vertex 44.4541 21.0406 35
    endloop
  endfacet
  facet normal 0 0 1
    outer loop
      vertex 41.0425 21.9476 35
      vertex 42.5 20.7833 35
      vertex 42.9895 21.8016 35
    endloop
  endfacet
  facet normal 0 0 1
    outer loop
      vertex 41.0425 21.9476 35
      vertex 40.5459 21.0406 35
      vertex 42.5 20.7833 35
    endloop
  endfacet
  facet normal 0 0 1
    outer loop
      vertex 39.225 22.6609 35
      vertex 40.5459 21.0406 35
      vertex 41.0425 21.9476 35
    endloop
  endfacet
  facet normal 0 0 1
    outer loop
      vertex 39.225 22.6609 35
      vertex 38.725 21.7948 35
      vertex 40.5459 21.0406 35
    endloop
  endfacet
  facet normal -0 0 1
    outer loop
      vertex 37.1613 22.9947 35
      vertex 39.225 22.6609 35
      vertex 37.6985 23.8782 35
    endloop
  endfacet
  facet normal 0 0 1
    outer loop
      vertex 39.225 22.6609 35
      vertex 37.1613 22.9947 35
      vertex 38.725 21.7948 35
    endloop
  endfacet
  facet normal -0 0 1
    outer loop
      vertex 35.9615 24.5583 35
      vertex 37.6985 23.8782 35
      vertex 36.5987 25.4914 35
    endloop
  endfacet
  facet normal -0 0 1
    outer loop
      vertex 35.2073 26.3792 35
      vertex 36.5987 25.4914 35
      vertex 36.0232 27.3571 35
    endloop
  endfacet
  facet normal 0 0 1
    outer loop
      vertex 37.6985 23.8782 35
      vertex 35.9615 24.5583 35
      vertex 37.1613 22.9947 35
    endloop
  endfacet
  facet normal -0 0 1
    outer loop
      vertex 35.0817 29.3333 35
      vertex 36.0232 29.3096 35
      vertex 35.2073 30.2874 35
    endloop
  endfacet
  facet normal 0 0 1
    outer loop
      vertex 36.0232 29.3096 35
      vertex 35.0817 29.3333 35
      vertex 36.0232 27.3571 35
    endloop
  endfacet
  facet normal 0 0 1
    outer loop
      vertex 35.0817 27.3333 35
      vertex 36.0232 27.3571 35
      vertex 35.0817 29.3333 35
    endloop
  endfacet
  facet normal 0 -0 1
    outer loop
      vertex 35.2073 26.3792 35
      vertex 36.0232 27.3571 35
      vertex 35.0817 27.3333 35
    endloop
  endfacet
  facet normal 0 0 1
    outer loop
      vertex 36.5987 25.4914 35
      vertex 35.2073 26.3792 35
      vertex 35.9615 24.5583 35
    endloop
  endfacet
  facet normal -0 0 1
    outer loop
      vertex 2 29.3333 35
      vertex 35.0817 27.3333 35
      vertex 35.0817 29.3333 35
    endloop
  endfacet
  facet normal 0 0 1
    outer loop
      vertex 35.0817 27.3333 35
      vertex 2 29.3333 35
      vertex 2 27.3333 35
    endloop
  endfacet
  facet normal 1 -0 0
    outer loop
      vertex 85 0 35
      vertex 85 85 0
      vertex 85 85 35
    endloop
  endfacet
  facet normal 1 0 0
    outer loop
      vertex 85 85 0
      vertex 85 0 35
      vertex 85 0 0
    endloop
  endfacet
  facet normal 0 0 -1
    outer loop
      vertex 0 0 0
      vertex 85 85 0
      vertex 85 0 0
    endloop
  endfacet
  facet normal -0 0 -1
    outer loop
      vertex 85 85 0
      vertex 0 0 0
      vertex 0 85 0
    endloop
  endfacet
  facet normal 0 -1 0
    outer loop
      vertex 0 0 0
      vertex 85 0 35
      vertex 0 0 35
    endloop
  endfacet
  facet normal 0 -1 -0
    outer loop
      vertex 85 0 35
      vertex 0 0 0
      vertex 85 0 0
    endloop
  endfacet
  facet normal 0 1 -0
    outer loop
      vertex 85 85 0
      vertex 0 85 35
      vertex 85 85 35
    endloop
  endfacet
  facet normal 0 1 0
    outer loop
      vertex 0 85 35
      vertex 85 85 0
      vertex 0 85 0
    endloop
  endfacet
  facet normal 1 -0 0
    outer loop
      vertex 2 2 35
      vertex 2 27.3333 3
      vertex 2 27.3333 35
    endloop
  endfacet
  facet normal 1 0 0
    outer loop
      vertex 2 27.3333 3
      vertex 2 2 35
      vertex 2 2 3
    endloop
  endfacet
  facet normal 1 -0 0
    outer loop
      vertex 2 57.6667 35
      vertex 2 83 3
      vertex 2 83 35
    endloop
  endfacet
  facet normal 1 0 0
    outer loop
      vertex 2 83 3
      vertex 2 57.6667 35
      vertex 2 57.6667 3
    endloop
  endfacet
  facet normal 1 -0 0
    outer loop
      vertex 2 29.3333 35
      vertex 2 55.6667 3
      vertex 2 55.6667 35
    endloop
  endfacet
  facet normal 1 0 0
    outer loop
      vertex 2 55.6667 3
      vertex 2 29.3333 35
      vertex 2 29.3333 3
    endloop
  endfacet
  facet normal -1 0 0
    outer loop
      vertex 83 2 3
      vertex 83 27.3333 35
      vertex 83 27.3333 3
    endloop
  endfacet
  facet normal -1 -0 0
    outer loop
      vertex 83 27.3333 35
      vertex 83 2 3
      vertex 83 2 35
    endloop
  endfacet
  facet normal -1 0 0
    outer loop
      vertex 83 57.6667 3
      vertex 83 83 35
      vertex 83 83 3
    endloop
  endfacet
  facet normal -1 -0 0
    outer loop
      vertex 83 83 35
      vertex 83 57.6667 3
      vertex 83 57.6667 35
    endloop
  endfacet
  facet normal -1 0 0
    outer loop
      vertex 83 29.3333 3
      vertex 83 55.6667 35
      vertex 83 55.6667 3
    endloop
  endfacet
  facet normal -1 -0 0
    outer loop
      vertex 83 55.6667 35
      vertex 83 29.3333 3
      vertex 83 29.3333 35
    endloop
  endfacet
  facet normal 0 -1 0
    outer loop
      vertex 2 83 3
      vertex 83 83 35
      vertex 2 83 35
    endloop
  endfacet
  facet normal 0 -1 -0
    outer loop
      vertex 83 83 35
      vertex 2 83 3
      vertex 83 83 3
    endloop
  endfacet
  facet normal -0 0 1
    outer loop
      vertex 49.0385 60.4417 3
      vertex 83 57.6667 3
      vertex 83 83 3
    endloop
  endfacet
  facet normal 0 0 1
    outer loop
      vertex 83 57.6667 3
      vertex 49.7927 58.6208 3
      vertex 49.9183 57.6667 3
    endloop
  endfacet
  facet normal 0 0 1
    outer loop
      vertex 83 57.6667 3
      vertex 49.0385 60.4417 3
      vertex 49.7927 58.6208 3
    endloop
  endfacet
  facet normal 0 0 1
    outer loop
      vertex 83 83 3
      vertex 47.8387 62.0053 3
      vertex 49.0385 60.4417 3
    endloop
  endfacet
  facet normal 0 0 1
    outer loop
      vertex 83 83 3
      vertex 46.275 63.2052 3
      vertex 47.8387 62.0053 3
    endloop
  endfacet
  facet normal 0 0 1
    outer loop
      vertex 83 83 3
      vertex 44.4541 63.9594 3
      vertex 46.275 63.2052 3
    endloop
  endfacet
  facet normal 0 0 1
    outer loop
      vertex 83 83 3
      vertex 42.5 64.2167 3
      vertex 44.4541 63.9594 3
    endloop
  endfacet
  facet normal -0 0 1
    outer loop
      vertex 2 83 3
      vertex 42.5 64.2167 3
      vertex 83 83 3
    endloop
  endfacet
  facet normal 0 0 1
    outer loop
      vertex 42.5 64.2167 3
      vertex 2 83 3
      vertex 40.5459 63.9594 3
    endloop
  endfacet
  facet normal 0 0 1
    outer loop
      vertex 40.5459 63.9594 3
      vertex 2 83 3
      vertex 38.725 63.2052 3
    endloop
  endfacet
  facet normal 0 0 1
    outer loop
      vertex 2 83 3
      vertex 37.1613 62.0053 3
      vertex 38.725 63.2052 3
    endloop
  endfacet
  facet normal 0 0 1
    outer loop
      vertex 2 83 3
      vertex 35.9615 60.4417 3
      vertex 37.1613 62.0053 3
    endloop
  endfacet
  facet normal 0 0 1
    outer loop
      vertex 2 57.6667 3
      vertex 35.9615 60.4417 3
      vertex 2 83 3
    endloop
  endfacet
  facet normal 0 0 1
    outer loop
      vertex 35.9615 60.4417 3
      vertex 2 57.6667 3
      vertex 35.2073 58.6208 3
    endloop
  endfacet
  facet normal 0 0 1
    outer loop
      vertex 35.2073 58.6208 3
      vertex 2 57.6667 3
      vertex 35.0817 57.6667 3
    endloop
  endfacet
  facet normal 0 0 1
    outer loop
      vertex 49.7927 26.3792 3
      vertex 83 27.3333 3
      vertex 49.9183 27.3333 3
    endloop
  endfacet
  facet normal 0 0 1
    outer loop
      vertex 49.0385 24.5583 3
      vertex 83 27.3333 3
      vertex 49.7927 26.3792 3
    endloop
  endfacet
  facet normal 0 0 1
    outer loop
      vertex 83 27.3333 3
      vertex 49.0385 24.5583 3
      vertex 83 2 3
    endloop
  endfacet
  facet normal -0 0 1
    outer loop
      vertex 47.8387 22.9947 3
      vertex 83 2 3
      vertex 49.0385 24.5583 3
    endloop
  endfacet
  facet normal -0 0 1
    outer loop
      vertex 46.275 21.7948 3
      vertex 83 2 3
      vertex 47.8387 22.9947 3
    endloop
  endfacet
  facet normal -0 0 1
    outer loop
      vertex 44.4541 21.0406 3
      vertex 83 2 3
      vertex 46.275 21.7948 3
    endloop
  endfacet
  facet normal -0 0 1
    outer loop
      vertex 42.5 20.7833 3
      vertex 83 2 3
      vertex 44.4541 21.0406 3
    endloop
  endfacet
  facet normal 0 0 1
    outer loop
      vertex 2 2 3
      vertex 42.5 20.7833 3
      vertex 40.5459 21.0406 3
    endloop
  endfacet
  facet normal 0 0 1
    outer loop
      vertex 2 2 3
      vertex 40.5459 21.0406 3
      vertex 38.725 21.7948 3
    endloop
  endfacet
  facet normal -0 0 1
    outer loop
      vertex 2 27.3333 3
      vertex 35.2073 26.3792 3
      vertex 35.0817 27.3333 3
    endloop
  endfacet
  facet normal 0 0 1
    outer loop
      vertex 2 27.3333 3
      vertex 35.9615 24.5583 3
      vertex 35.2073 26.3792 3
    endloop
  endfacet
  facet normal 0 0 1
    outer loop
      vertex 2 2 3
      vertex 35.9615 24.5583 3
      vertex 2 27.3333 3
    endloop
  endfacet
  facet normal 0 0 1
    outer loop
      vertex 35.9615 24.5583 3
      vertex 2 2 3
      vertex 37.1613 22.9947 3
    endloop
  endfacet
  facet normal 0 0 1
    outer loop
      vertex 37.1613 22.9947 3
      vertex 2 2 3
      vertex 38.725 21.7948 3
    endloop
  endfacet
  facet normal 0 0 1
    outer loop
      vertex 42.5 20.7833 3
      vertex 2 2 3
      vertex 83 2 3
    endloop
  endfacet
  facet normal 0 0 1
    outer loop
      vertex 49.7927 54.7126 3
      vertex 83 55.6667 3
      vertex 49.9183 55.6667 3
    endloop
  endfacet
  facet normal 0 0 1
    outer loop
      vertex 49.0385 52.8917 3
      vertex 83 55.6667 3
      vertex 49.7927 54.7126 3
    endloop
  endfacet
  facet normal 0 0 1
    outer loop
      vertex 83 55.6667 3
      vertex 49.0385 52.8917 3
      vertex 83 29.3333 3
    endloop
  endfacet
  facet normal 0 0 1
    outer loop
      vertex 83 29.3333 3
      vertex 49.7927 30.2874 3
      vertex 49.9183 29.3333 3
    endloop
  endfacet
  facet normal -0 0 1
    outer loop
      vertex 49.0385 32.1083 3
      vertex 83 29.3333 3
      vertex 49.0385 52.8917 3
    endloop
  endfacet
  facet normal 0 0 1
    outer loop
      vertex 83 29.3333 3
      vertex 49.0385 32.1083 3
      vertex 49.7927 30.2874 3
    endloop
  endfacet
  facet normal -0 0 1
    outer loop
      vertex 47.8387 51.328 3
      vertex 49.0385 32.1083 3
      vertex 49.0385 52.8917 3
    endloop
  endfacet
  facet normal 0 0 1
    outer loop
      vertex 47.8387 51.328 3
      vertex 47.8387 33.672 3
      vertex 49.0385 32.1083 3
    endloop
  endfacet
  facet normal -0 0 1
    outer loop
      vertex 46.275 50.1282 3
      vertex 47.8387 33.672 3
      vertex 47.8387 51.328 3
    endloop
  endfacet
  facet normal 0 0 1
    outer loop
      vertex 46.275 50.1282 3
      vertex 46.275 34.8718 3
      vertex 47.8387 33.672 3
    endloop
  endfacet
  facet normal -0 0 1
    outer loop
      vertex 44.4541 49.3739 3
      vertex 46.275 34.8718 3
      vertex 46.275 50.1282 3
    endloop
  endfacet
  facet normal 0 0 1
    outer loop
      vertex 44.4541 49.3739 3
      vertex 44.4541 35.6261 3
      vertex 46.275 34.8718 3
    endloop
  endfacet
  facet normal -0 0 1
    outer loop
      vertex 42.5 49.1167 3
      vertex 44.4541 35.6261 3
      vertex 44.4541 49.3739 3
    endloop
  endfacet
  facet normal 0 0 1
    outer loop
      vertex 42.5 49.1167 3
      vertex 42.5 35.8833 3
      vertex 44.4541 35.6261 3
    endloop
  endfacet
  facet normal 0 0 1
    outer loop
      vertex 40.5459 49.3739 3
      vertex 42.5 35.8833 3
      vertex 42.5 49.1167 3
    endloop
  endfacet
  facet normal 0 0 1
    outer loop
      vertex 40.5459 49.3739 3
      vertex 40.5459 35.6261 3
      vertex 42.5 35.8833 3
    endloop
  endfacet
  facet normal 0 0 1
    outer loop
      vertex 38.725 50.1282 3
      vertex 40.5459 35.6261 3
      vertex 40.5459 49.3739 3
    endloop
  endfacet
  facet normal 0 0 1
    outer loop
      vertex 38.725 50.1282 3
      vertex 38.725 34.8718 3
      vertex 40.5459 35.6261 3
    endloop
  endfacet
  facet normal 0 0 1
    outer loop
      vertex 37.1613 51.328 3
      vertex 38.725 34.8718 3
      vertex 38.725 50.1282 3
    endloop
  endfacet
  facet normal 0 0 1
    outer loop
      vertex 37.1613 51.328 3
      vertex 37.1613 33.672 3
      vertex 38.725 34.8718 3
    endloop
  endfacet
  facet normal 0 0 1
    outer loop
      vertex 35.9615 52.8917 3
      vertex 37.1613 33.672 3
      vertex 37.1613 51.328 3
    endloop
  endfacet
  facet normal 0 0 1
    outer loop
      vertex 35.9615 52.8917 3
      vertex 35.9615 32.1083 3
      vertex 37.1613 33.672 3
    endloop
  endfacet
  facet normal 0 0 1
    outer loop
      vertex 2 55.6667 3
      vertex 35.9615 52.8917 3
      vertex 35.2073 54.7126 3
    endloop
  endfacet
  facet normal 0 0 1
    outer loop
      vertex 35.9615 52.8917 3
      vertex 2 55.6667 3
      vertex 35.9615 32.1083 3
    endloop
  endfacet
  facet normal -0 0 1
    outer loop
      vertex 2 55.6667 3
      vertex 35.2073 54.7126 3
      vertex 35.0817 55.6667 3
    endloop
  endfacet
  facet normal 0 0 1
    outer loop
      vertex 2 29.3333 3
      vertex 35.9615 32.1083 3
      vertex 2 55.6667 3
    endloop
  endfacet
  facet normal 0 0 1
    outer loop
      vertex 35.9615 32.1083 3
      vertex 2 29.3333 3
      vertex 35.2073 30.2874 3
    endloop
  endfacet
  facet normal 0 0 1
    outer loop
      vertex 35.2073 30.2874 3
      vertex 2 29.3333 3
      vertex 35.0817 29.3333 3
    endloop
  endfacet
  facet normal 0 1 -0
    outer loop
      vertex 83 2 3
      vertex 2 2 35
      vertex 83 2 35
    endloop
  endfacet
  facet normal 0 1 0
    outer loop
      vertex 2 2 35
      vertex 83 2 3
      vertex 2 2 3
    endloop
  endfacet
  facet normal 0 -1 0
    outer loop
      vertex 2 27.3333 3
      vertex 35.0817 27.3333 35
      vertex 2 27.3333 35
    endloop
  endfacet
  facet normal 0 -1 -0
    outer loop
      vertex 35.0817 27.3333 35
      vertex 2 27.3333 3
      vertex 35.0817 27.3333 3
    endloop
  endfacet
  facet normal 0 -1 0
    outer loop
      vertex 49.9183 27.3333 3
      vertex 83 27.3333 35
      vertex 49.9183 27.3333 35
    endloop
  endfacet
  facet normal 0 -1 -0
    outer loop
      vertex 83 27.3333 35
      vertex 49.9183 27.3333 3
      vertex 83 27.3333 3
    endloop
  endfacet
  facet normal 0 1 -0
    outer loop
      vertex 35.0817 29.3333 3
      vertex 2 29.3333 35
      vertex 35.0817 29.3333 35
    endloop
  endfacet
  facet normal 0 1 0
    outer loop
      vertex 2 29.3333 35
      vertex 35.0817 29.3333 3
      vertex 2 29.3333 3
    endloop
  endfacet
  facet normal 0 1 -0
    outer loop
      vertex 83 29.3333 3
      vertex 49.9183 29.3333 35
      vertex 83 29.3333 35
    endloop
  endfacet
  facet normal 0 1 0
    outer loop
      vertex 49.9183 29.3333 35
      vertex 83 29.3333 3
      vertex 49.9183 29.3333 3
    endloop
  endfacet
  facet normal 0 1 -0
    outer loop
      vertex 35.0817 57.6667 3
      vertex 2 57.6667 35
      vertex 35.0817 57.6667 35
    endloop
  endfacet
  facet normal 0 1 0
    outer loop
      vertex 2 57.6667 35
      vertex 35.0817 57.6667 3
      vertex 2 57.6667 3
    endloop
  endfacet
  facet normal 0 1 -0
    outer loop
      vertex 83 57.6667 3
      vertex 49.9183 57.6667 35
      vertex 83 57.6667 35
    endloop
  endfacet
  facet normal 0 1 0
    outer loop
      vertex 49.9183 57.6667 35
      vertex 83 57.6667 3
      vertex 49.9183 57.6667 3
    endloop
  endfacet
  facet normal 0 -1 0
    outer loop
      vertex 2 55.6667 3
      vertex 35.0817 55.6667 35
      vertex 2 55.6667 35
    endloop
  endfacet
  facet normal 0 -1 -0
    outer loop
      vertex 35.0817 55.6667 35
      vertex 2 55.6667 3
      vertex 35.0817 55.6667 3
    endloop
  endfacet
  facet normal 0 -1 0
    outer loop
      vertex 49.9183 55.6667 3
      vertex 83 55.6667 35
      vertex 49.9183 55.6667 35
    endloop
  endfacet
  facet normal 0 -1 -0
    outer loop
      vertex 83 55.6667 35
      vertex 49.9183 55.6667 3
      vertex 83 55.6667 3
    endloop
  endfacet
  facet normal 0.793353 0.608762 0
    outer loop
      vertex 49.0385 32.1083 35
      vertex 47.8387 33.672 3
      vertex 47.8387 33.672 35
    endloop
  endfacet
  facet normal 0.793353 0.608762 0
    outer loop
      vertex 47.8387 33.672 3
      vertex 49.0385 32.1083 35
      vertex 49.0385 32.1083 3
    endloop
  endfacet
  facet normal -0.923879 -0.382684 0
    outer loop
      vertex 35.9615 24.5583 3
      vertex 35.2073 26.3792 35
      vertex 35.2073 26.3792 3
    endloop
  endfacet
  facet normal -0.923879 -0.382684 0
    outer loop
      vertex 35.2073 26.3792 35
      vertex 35.9615 24.5583 3
      vertex 35.9615 24.5583 35
    endloop
  endfacet
  facet normal -0.130526 0.991445 0
    outer loop
      vertex 42.5 35.8833 3
      vertex 40.5459 35.6261 35
      vertex 42.5 35.8833 35
    endloop
  endfacet
  facet normal -0.130526 0.991445 0
    outer loop
      vertex 40.5459 35.6261 35
      vertex 42.5 35.8833 3
      vertex 40.5459 35.6261 3
    endloop
  endfacet
  facet normal -0.991445 0.130525 0
    outer loop
      vertex 35.0817 29.3333 3
      vertex 35.2073 30.2874 35
      vertex 35.2073 30.2874 3
    endloop
  endfacet
  facet normal -0.991445 0.130525 0
    outer loop
      vertex 35.2073 30.2874 35
      vertex 35.0817 29.3333 3
      vertex 35.0817 29.3333 35
    endloop
  endfacet
  facet normal 0.608763 0.793352 -0
    outer loop
      vertex 47.8387 33.672 3
      vertex 46.275 34.8718 35
      vertex 47.8387 33.672 35
    endloop
  endfacet
  facet normal 0.608763 0.793352 0
    outer loop
      vertex 46.275 34.8718 35
      vertex 47.8387 33.672 3
      vertex 46.275 34.8718 3
    endloop
  endfacet
  facet normal 0.130526 0.991445 -0
    outer loop
      vertex 44.4541 35.6261 3
      vertex 42.5 35.8833 35
      vertex 44.4541 35.6261 35
    endloop
  endfacet
  facet normal 0.130526 0.991445 0
    outer loop
      vertex 42.5 35.8833 35
      vertex 44.4541 35.6261 3
      vertex 42.5 35.8833 3
    endloop
  endfacet
  facet normal -0.608762 0.793353 0
    outer loop
      vertex 38.725 34.8718 3
      vertex 37.1613 33.672 35
      vertex 38.725 34.8718 35
    endloop
  endfacet
  facet normal -0.608762 0.793353 0
    outer loop
      vertex 37.1613 33.672 35
      vertex 38.725 34.8718 3
      vertex 37.1613 33.672 3
    endloop
  endfacet
  facet normal -0.793354 0.608761 0
    outer loop
      vertex 35.9615 32.1083 3
      vertex 37.1613 33.672 35
      vertex 37.1613 33.672 3
    endloop
  endfacet
  facet normal -0.793354 0.608761 0
    outer loop
      vertex 37.1613 33.672 35
      vertex 35.9615 32.1083 3
      vertex 35.9615 32.1083 35
    endloop
  endfacet
  facet normal 0.991445 -0.130525 0
    outer loop
      vertex 49.7927 26.3792 35
      vertex 49.9183 27.3333 3
      vertex 49.9183 27.3333 35
    endloop
  endfacet
  facet normal 0.991445 -0.130525 0
    outer loop
      vertex 49.9183 27.3333 3
      vertex 49.7927 26.3792 35
      vertex 49.7927 26.3792 3
    endloop
  endfacet
  facet normal 0.923879 0.382684 0
    outer loop
      vertex 49.7927 30.2874 35
      vertex 49.0385 32.1083 3
      vertex 49.0385 32.1083 35
    endloop
  endfacet
  facet normal 0.923879 0.382684 0
    outer loop
      vertex 49.0385 32.1083 3
      vertex 49.7927 30.2874 35
      vertex 49.7927 30.2874 3
    endloop
  endfacet
  facet normal 0.382682 0.92388 -0
    outer loop
      vertex 46.275 34.8718 3
      vertex 44.4541 35.6261 35
      vertex 46.275 34.8718 35
    endloop
  endfacet
  facet normal 0.382682 0.92388 0
    outer loop
      vertex 44.4541 35.6261 35
      vertex 46.275 34.8718 3
      vertex 44.4541 35.6261 3
    endloop
  endfacet
  facet normal -0.991445 -0.130525 0
    outer loop
      vertex 35.2073 26.3792 3
      vertex 35.0817 27.3333 35
      vertex 35.0817 27.3333 3
    endloop
  endfacet
  facet normal -0.991445 -0.130525 0
    outer loop
      vertex 35.0817 27.3333 35
      vertex 35.2073 26.3792 3
      vertex 35.2073 26.3792 35
    endloop
  endfacet
  facet normal -0.923879 0.382684 0
    outer loop
      vertex 35.2073 30.2874 3
      vertex 35.9615 32.1083 35
      vertex 35.9615 32.1083 3
    endloop
  endfacet
  facet normal -0.923879 0.382684 0
    outer loop
      vertex 35.9615 32.1083 35
      vertex 35.2073 30.2874 3
      vertex 35.2073 30.2874 35
    endloop
  endfacet
  facet normal -0.382683 0.92388 0
    outer loop
      vertex 40.5459 35.6261 3
      vertex 38.725 34.8718 35
      vertex 40.5459 35.6261 35
    endloop
  endfacet
  facet normal -0.382683 0.92388 0
    outer loop
      vertex 38.725 34.8718 35
      vertex 40.5459 35.6261 3
      vertex 38.725 34.8718 3
    endloop
  endfacet
  facet normal 0.991445 0.130525 0
    outer loop
      vertex 49.9183 29.3333 35
      vertex 49.7927 30.2874 3
      vertex 49.7927 30.2874 35
    endloop
  endfacet
  facet normal 0.991445 0.130525 0
    outer loop
      vertex 49.7927 30.2874 3
      vertex 49.9183 29.3333 35
      vertex 49.9183 29.3333 3
    endloop
  endfacet
  facet normal -0.382684 -0.923879 0
    outer loop
      vertex 38.725 21.7948 3
      vertex 40.5459 21.0406 35
      vertex 38.725 21.7948 35
    endloop
  endfacet
  facet normal -0.382684 -0.923879 -0
    outer loop
      vertex 40.5459 21.0406 35
      vertex 38.725 21.7948 3
      vertex 40.5459 21.0406 3
    endloop
  endfacet
  facet normal -0.793354 -0.608761 0
    outer loop
      vertex 37.1613 22.9947 3
      vertex 35.9615 24.5583 35
      vertex 35.9615 24.5583 3
    endloop
  endfacet
  facet normal -0.793354 -0.608761 0
    outer loop
      vertex 35.9615 24.5583 35
      vertex 37.1613 22.9947 3
      vertex 37.1613 22.9947 35
    endloop
  endfacet
  facet normal 0.382684 -0.923879 0
    outer loop
      vertex 44.4541 21.0406 3
      vertex 46.275 21.7948 35
      vertex 44.4541 21.0406 35
    endloop
  endfacet
  facet normal 0.382684 -0.923879 0
    outer loop
      vertex 46.275 21.7948 35
      vertex 44.4541 21.0406 3
      vertex 46.275 21.7948 3
    endloop
  endfacet
  facet normal 0.608762 -0.793353 0
    outer loop
      vertex 46.275 21.7948 3
      vertex 47.8387 22.9947 35
      vertex 46.275 21.7948 35
    endloop
  endfacet
  facet normal 0.608762 -0.793353 0
    outer loop
      vertex 47.8387 22.9947 35
      vertex 46.275 21.7948 3
      vertex 47.8387 22.9947 3
    endloop
  endfacet
  facet normal 0.923879 -0.382684 0
    outer loop
      vertex 49.0385 24.5583 35
      vertex 49.7927 26.3792 3
      vertex 49.7927 26.3792 35
    endloop
  endfacet
  facet normal 0.923879 -0.382684 0
    outer loop
      vertex 49.7927 26.3792 3
      vertex 49.0385 24.5583 35
      vertex 49.0385 24.5583 3
    endloop
  endfacet
  facet normal 0.130526 -0.991445 0
    outer loop
      vertex 42.5 20.7833 3
      vertex 44.4541 21.0406 35
      vertex 42.5 20.7833 35
    endloop
  endfacet
  facet normal 0.130526 -0.991445 0
    outer loop
      vertex 44.4541 21.0406 35
      vertex 42.5 20.7833 3
      vertex 44.4541 21.0406 3
    endloop
  endfacet
  facet normal -0.608761 -0.793353 0
    outer loop
      vertex 37.1613 22.9947 3
      vertex 38.725 21.7948 35
      vertex 37.1613 22.9947 35
    endloop
  endfacet
  facet normal -0.608761 -0.793353 -0
    outer loop
      vertex 38.725 21.7948 35
      vertex 37.1613 22.9947 3
      vertex 38.725 21.7948 3
    endloop
  endfacet
  facet normal -0.130526 -0.991445 0
    outer loop
      vertex 40.5459 21.0406 3
      vertex 42.5 20.7833 35
      vertex 40.5459 21.0406 35
    endloop
  endfacet
  facet normal -0.130526 -0.991445 -0
    outer loop
      vertex 42.5 20.7833 35
      vertex 40.5459 21.0406 3
      vertex 42.5 20.7833 3
    endloop
  endfacet
  facet normal 0.793353 -0.608762 0
    outer loop
      vertex 47.8387 22.9947 35
      vertex 49.0385 24.5583 3
      vertex 49.0385 24.5583 35
    endloop
  endfacet
  facet normal 0.793353 -0.608762 0
    outer loop
      vertex 49.0385 24.5583 3
      vertex 47.8387 22.9947 35
      vertex 47.8387 22.9947 3
    endloop
  endfacet
  facet normal -0.991445 0.130525 0
    outer loop
      vertex 35.0817 57.6667 3
      vertex 35.2073 58.6208 35
      vertex 35.2073 58.6208 3
    endloop
  endfacet
  facet normal -0.991445 0.130525 0
    outer loop
      vertex 35.2073 58.6208 35
      vertex 35.0817 57.6667 3
      vertex 35.0817 57.6667 35
    endloop
  endfacet
  facet normal 0.382682 0.92388 -0
    outer loop
      vertex 46.275 63.2052 3
      vertex 44.4541 63.9594 35
      vertex 46.275 63.2052 35
    endloop
  endfacet
  facet normal 0.382682 0.92388 0
    outer loop
      vertex 44.4541 63.9594 35
      vertex 46.275 63.2052 3
      vertex 44.4541 63.9594 3
    endloop
  endfacet
  facet normal 0.130526 -0.991445 0
    outer loop
      vertex 42.5 49.1167 3
      vertex 44.4541 49.3739 35
      vertex 42.5 49.1167 35
    endloop
  endfacet
  facet normal 0.130526 -0.991445 0
    outer loop
      vertex 44.4541 49.3739 35
      vertex 42.5 49.1167 3
      vertex 44.4541 49.3739 3
    endloop
  endfacet
  facet normal -0.130526 -0.991445 0
    outer loop
      vertex 40.5459 49.3739 3
      vertex 42.5 49.1167 35
      vertex 40.5459 49.3739 35
    endloop
  endfacet
  facet normal -0.130526 -0.991445 -0
    outer loop
      vertex 42.5 49.1167 35
      vertex 40.5459 49.3739 3
      vertex 42.5 49.1167 3
    endloop
  endfacet
  facet normal 0.923879 0.382684 0
    outer loop
      vertex 49.7927 58.6208 35
      vertex 49.0385 60.4417 3
      vertex 49.0385 60.4417 35
    endloop
  endfacet
  facet normal 0.923879 0.382684 0
    outer loop
      vertex 49.0385 60.4417 3
      vertex 49.7927 58.6208 35
      vertex 49.7927 58.6208 3
    endloop
  endfacet
  facet normal 0.130528 0.991445 -0
    outer loop
      vertex 44.4541 63.9594 3
      vertex 42.5 64.2167 35
      vertex 44.4541 63.9594 35
    endloop
  endfacet
  facet normal 0.130528 0.991445 0
    outer loop
      vertex 42.5 64.2167 35
      vertex 44.4541 63.9594 3
      vertex 42.5 64.2167 3
    endloop
  endfacet
  facet normal -0.382683 0.92388 0
    outer loop
      vertex 40.5459 63.9594 3
      vertex 38.725 63.2052 35
      vertex 40.5459 63.9594 35
    endloop
  endfacet
  facet normal -0.382683 0.92388 0
    outer loop
      vertex 38.725 63.2052 35
      vertex 40.5459 63.9594 3
      vertex 38.725 63.2052 3
    endloop
  endfacet
  facet normal -0.923879 0.382684 0
    outer loop
      vertex 35.2073 58.6208 3
      vertex 35.9615 60.4417 35
      vertex 35.9615 60.4417 3
    endloop
  endfacet
  facet normal -0.923879 0.382684 0
    outer loop
      vertex 35.9615 60.4417 35
      vertex 35.2073 58.6208 3
      vertex 35.2073 58.6208 35
    endloop
  endfacet
  facet normal -0.608762 0.793353 0
    outer loop
      vertex 38.725 63.2052 3
      vertex 37.1613 62.0053 35
      vertex 38.725 63.2052 35
    endloop
  endfacet
  facet normal -0.608762 0.793353 0
    outer loop
      vertex 37.1613 62.0053 35
      vertex 38.725 63.2052 3
      vertex 37.1613 62.0053 3
    endloop
  endfacet
  facet normal 0.991445 -0.130525 0
    outer loop
      vertex 49.7927 54.7126 35
      vertex 49.9183 55.6667 3
      vertex 49.9183 55.6667 35
    endloop
  endfacet
  facet normal 0.991445 -0.130525 0
    outer loop
      vertex 49.9183 55.6667 3
      vertex 49.7927 54.7126 35
      vertex 49.7927 54.7126 3
    endloop
  endfacet
  facet normal -0.991445 -0.130525 0
    outer loop
      vertex 35.2073 54.7126 3
      vertex 35.0817 55.6667 35
      vertex 35.0817 55.6667 3
    endloop
  endfacet
  facet normal -0.991445 -0.130525 0
    outer loop
      vertex 35.0817 55.6667 35
      vertex 35.2073 54.7126 3
      vertex 35.2073 54.7126 35
    endloop
  endfacet
  facet normal 0.793353 0.608762 0
    outer loop
      vertex 49.0385 60.4417 35
      vertex 47.8387 62.0053 3
      vertex 47.8387 62.0053 35
    endloop
  endfacet
  facet normal 0.793353 0.608762 0
    outer loop
      vertex 47.8387 62.0053 3
      vertex 49.0385 60.4417 35
      vertex 49.0385 60.4417 3
    endloop
  endfacet
  facet normal 0.608763 0.793352 -0
    outer loop
      vertex 47.8387 62.0053 3
      vertex 46.275 63.2052 35
      vertex 47.8387 62.0053 35
    endloop
  endfacet
  facet normal 0.608763 0.793352 0
    outer loop
      vertex 46.275 63.2052 35
      vertex 47.8387 62.0053 3
      vertex 46.275 63.2052 3
    endloop
  endfacet
  facet normal -0.793354 0.608761 0
    outer loop
      vertex 35.9615 60.4417 3
      vertex 37.1613 62.0053 35
      vertex 37.1613 62.0053 3
    endloop
  endfacet
  facet normal -0.793354 0.608761 0
    outer loop
      vertex 37.1613 62.0053 35
      vertex 35.9615 60.4417 3
      vertex 35.9615 60.4417 35
    endloop
  endfacet
  facet normal -0.130528 0.991445 0
    outer loop
      vertex 42.5 64.2167 3
      vertex 40.5459 63.9594 35
      vertex 42.5 64.2167 35
    endloop
  endfacet
  facet normal -0.130528 0.991445 0
    outer loop
      vertex 40.5459 63.9594 35
      vertex 42.5 64.2167 3
      vertex 40.5459 63.9594 3
    endloop
  endfacet
  facet normal 0.991445 0.130525 0
    outer loop
      vertex 49.9183 57.6667 35
      vertex 49.7927 58.6208 3
      vertex 49.7927 58.6208 35
    endloop
  endfacet
  facet normal 0.991445 0.130525 0
    outer loop
      vertex 49.7927 58.6208 3
      vertex 49.9183 57.6667 35
      vertex 49.9183 57.6667 3
    endloop
  endfacet
  facet normal 0.923879 -0.382684 0
    outer loop
      vertex 49.0385 52.8917 35
      vertex 49.7927 54.7126 3
      vertex 49.7927 54.7126 35
    endloop
  endfacet
  facet normal 0.923879 -0.382684 0
    outer loop
      vertex 49.7927 54.7126 3
      vertex 49.0385 52.8917 35
      vertex 49.0385 52.8917 3
    endloop
  endfacet
  facet normal 0.382684 -0.923879 0
    outer loop
      vertex 44.4541 49.3739 3
      vertex 46.275 50.1282 35
      vertex 44.4541 49.3739 35
    endloop
  endfacet
  facet normal 0.382684 -0.923879 0
    outer loop
      vertex 46.275 50.1282 35
      vertex 44.4541 49.3739 3
      vertex 46.275 50.1282 3
    endloop
  endfacet
  facet normal -0.608762 -0.793353 0
    outer loop
      vertex 37.1613 51.328 3
      vertex 38.725 50.1282 35
      vertex 37.1613 51.328 35
    endloop
  endfacet
  facet normal -0.608762 -0.793353 -0
    outer loop
      vertex 38.725 50.1282 35
      vertex 37.1613 51.328 3
      vertex 38.725 50.1282 3
    endloop
  endfacet
  facet normal -0.923879 -0.382684 0
    outer loop
      vertex 35.9615 52.8917 3
      vertex 35.2073 54.7126 35
      vertex 35.2073 54.7126 3
    endloop
  endfacet
  facet normal -0.923879 -0.382684 0
    outer loop
      vertex 35.2073 54.7126 35
      vertex 35.9615 52.8917 3
      vertex 35.9615 52.8917 35
    endloop
  endfacet
  facet normal 0.793353 -0.608762 0
    outer loop
      vertex 47.8387 51.328 35
      vertex 49.0385 52.8917 3
      vertex 49.0385 52.8917 35
    endloop
  endfacet
  facet normal 0.793353 -0.608762 0
    outer loop
      vertex 49.0385 52.8917 3
      vertex 47.8387 51.328 35
      vertex 47.8387 51.328 3
    endloop
  endfacet
  facet normal -0.382684 -0.923879 0
    outer loop
      vertex 38.725 50.1282 3
      vertex 40.5459 49.3739 35
      vertex 38.725 50.1282 35
    endloop
  endfacet
  facet normal -0.382684 -0.923879 -0
    outer loop
      vertex 40.5459 49.3739 35
      vertex 38.725 50.1282 3
      vertex 40.5459 49.3739 3
    endloop
  endfacet
  facet normal -0.793354 -0.608761 0
    outer loop
      vertex 37.1613 51.328 3
      vertex 35.9615 52.8917 35
      vertex 35.9615 52.8917 3
    endloop
  endfacet
  facet normal -0.793354 -0.608761 0
    outer loop
      vertex 35.9615 52.8917 35
      vertex 37.1613 51.328 3
      vertex 37.1613 51.328 35
    endloop
  endfacet
  facet normal 0.608763 -0.793352 0
    outer loop
      vertex 46.275 50.1282 3
      vertex 47.8387 51.328 35
      vertex 46.275 50.1282 35
    endloop
  endfacet
  facet normal 0.608763 -0.793352 0
    outer loop
      vertex 47.8387 51.328 35
      vertex 46.275 50.1282 3
      vertex 47.8387 51.328 3
    endloop
  endfacet
  facet normal -0.733052 -0.680173 0
    outer loop
      vertex 47.9119 32.0231 32.3
      vertex 46.5839 33.4543 35
      vertex 46.5839 33.4543 32.3
    endloop
  endfacet
  facet normal -0.733052 -0.680173 0
    outer loop
      vertex 46.5839 33.4543 35
      vertex 47.9119 32.0231 32.3
      vertex 47.9119 32.0231 35
    endloop
  endfacet
  facet normal -0.988831 -0.149041 0
    outer loop
      vertex 49.05 28.3333 32.3
      vertex 48.759 30.264 35
      vertex 48.759 30.264 32.3
    endloop
  endfacet
  facet normal -0.988831 -0.149041 0
    outer loop
      vertex 48.759 30.264 35
      vertex 49.05 28.3333 32.3
      vertex 49.05 28.3333 35
    endloop
  endfacet
  facet normal 1 -0 0
    outer loop
      vertex 36.0232 27.3571 35
      vertex 36.0232 29.3096 32.3
      vertex 36.0232 29.3096 35
    endloop
  endfacet
  facet normal 1 0 0
    outer loop
      vertex 36.0232 29.3096 32.3
      vertex 36.0232 27.3571 35
      vertex 36.0232 27.3571 32.3
    endloop
  endfacet
  facet normal 0.955573 0.294756 0
    outer loop
      vertex 36.5987 25.4914 35
      vertex 36.0232 27.3571 32.3
      vertex 36.0232 27.3571 35
    endloop
  endfacet
  facet normal 0.955573 0.294756 0
    outer loop
      vertex 36.0232 27.3571 32.3
      vertex 36.5987 25.4914 35
      vertex 36.5987 25.4914 32.3
    endloop
  endfacet
  facet normal 0.0747307 -0.997204 0
    outer loop
      vertex 41.0425 34.7191 32.3
      vertex 42.9895 34.865 35
      vertex 41.0425 34.7191 35
    endloop
  endfacet
  facet normal 0.0747307 -0.997204 0
    outer loop
      vertex 42.9895 34.865 35
      vertex 41.0425 34.7191 32.3
      vertex 42.9895 34.865 32.3
    endloop
  endfacet
  facet normal -0.5 -0.866026 0
    outer loop
      vertex 44.893 34.4306 32.3
      vertex 46.5839 33.4543 35
      vertex 44.893 34.4306 35
    endloop
  endfacet
  facet normal -0.5 -0.866026 -0
    outer loop
      vertex 46.5839 33.4543 35
      vertex 44.893 34.4306 32.3
      vertex 46.5839 33.4543 32.3
    endloop
  endfacet
  facet normal 0.36534 -0.930874 0
    outer loop
      vertex 39.225 34.0058 32.3
      vertex 41.0425 34.7191 35
      vertex 39.225 34.0058 35
    endloop
  endfacet
  facet normal 0.36534 -0.930874 0
    outer loop
      vertex 41.0425 34.7191 35
      vertex 39.225 34.0058 32.3
      vertex 41.0425 34.7191 32.3
    endloop
  endfacet
  facet normal 0.955573 -0.294756 0
    outer loop
      vertex 36.0232 29.3096 35
      vertex 36.5987 31.1753 32.3
      vertex 36.5987 31.1753 35
    endloop
  endfacet
  facet normal 0.955573 -0.294756 0
    outer loop
      vertex 36.5987 31.1753 32.3
      vertex 36.0232 29.3096 35
      vertex 36.0232 29.3096 32.3
    endloop
  endfacet
  facet normal 0.62349 -0.781831 0
    outer loop
      vertex 37.6985 32.7885 32.3
      vertex 39.225 34.0058 35
      vertex 37.6985 32.7885 35
    endloop
  endfacet
  facet normal 0.62349 -0.781831 0
    outer loop
      vertex 39.225 34.0058 35
      vertex 37.6985 32.7885 32.3
      vertex 39.225 34.0058 32.3
    endloop
  endfacet
  facet normal -0.5 0.866026 0
    outer loop
      vertex 46.5839 23.2123 32.3
      vertex 44.893 22.2361 35
      vertex 46.5839 23.2123 35
    endloop
  endfacet
  facet normal -0.5 0.866026 0
    outer loop
      vertex 44.893 22.2361 35
      vertex 46.5839 23.2123 32.3
      vertex 44.893 22.2361 32.3
    endloop
  endfacet
  facet normal -0.900969 -0.433884 0
    outer loop
      vertex 48.759 30.264 32.3
      vertex 47.9119 32.0231 35
      vertex 47.9119 32.0231 32.3
    endloop
  endfacet
  facet normal -0.900969 -0.433884 0
    outer loop
      vertex 47.9119 32.0231 35
      vertex 48.759 30.264 32.3
      vertex 48.759 30.264 35
    endloop
  endfacet
  facet normal -0.22252 -0.974928 0
    outer loop
      vertex 42.9895 34.865 32.3
      vertex 44.893 34.4306 35
      vertex 42.9895 34.865 35
    endloop
  endfacet
  facet normal -0.22252 -0.974928 -0
    outer loop
      vertex 44.893 34.4306 35
      vertex 42.9895 34.865 32.3
      vertex 44.893 34.4306 32.3
    endloop
  endfacet
  facet normal 0.82624 -0.563319 0
    outer loop
      vertex 36.5987 31.1753 35
      vertex 37.6985 32.7885 32.3
      vertex 37.6985 32.7885 35
    endloop
  endfacet
  facet normal 0.82624 -0.563319 0
    outer loop
      vertex 37.6985 32.7885 32.3
      vertex 36.5987 31.1753 35
      vertex 36.5987 31.1753 32.3
    endloop
  endfacet
  facet normal 0.36534 0.930874 -0
    outer loop
      vertex 41.0425 21.9476 32.3
      vertex 39.225 22.6609 35
      vertex 41.0425 21.9476 35
    endloop
  endfacet
  facet normal 0.36534 0.930874 0
    outer loop
      vertex 39.225 22.6609 35
      vertex 41.0425 21.9476 32.3
      vertex 39.225 22.6609 32.3
    endloop
  endfacet
  facet normal 0.82624 0.563319 0
    outer loop
      vertex 37.6985 23.8782 35
      vertex 36.5987 25.4914 32.3
      vertex 36.5987 25.4914 35
    endloop
  endfacet
  facet normal 0.82624 0.563319 0
    outer loop
      vertex 36.5987 25.4914 32.3
      vertex 37.6985 23.8782 35
      vertex 37.6985 23.8782 32.3
    endloop
  endfacet
  facet normal -0.900969 0.433883 0
    outer loop
      vertex 47.9119 24.6436 32.3
      vertex 48.759 26.4027 35
      vertex 48.759 26.4027 32.3
    endloop
  endfacet
  facet normal -0.900969 0.433883 0
    outer loop
      vertex 48.759 26.4027 35
      vertex 47.9119 24.6436 32.3
      vertex 47.9119 24.6436 35
    endloop
  endfacet
  facet normal -0.988831 0.149042 0
    outer loop
      vertex 48.759 26.4027 32.3
      vertex 49.05 28.3333 35
      vertex 49.05 28.3333 32.3
    endloop
  endfacet
  facet normal -0.988831 0.149042 0
    outer loop
      vertex 49.05 28.3333 35
      vertex 48.759 26.4027 32.3
      vertex 48.759 26.4027 35
    endloop
  endfacet
  facet normal 0 0 1
    outer loop
      vertex 48.759 30.264 32.3
      vertex 48.759 26.4027 32.3
      vertex 49.05 28.3333 32.3
    endloop
  endfacet
  facet normal 0 0 1
    outer loop
      vertex 47.9119 32.0231 32.3
      vertex 48.759 26.4027 32.3
      vertex 48.759 30.264 32.3
    endloop
  endfacet
  facet normal 0 0 1
    outer loop
      vertex 47.9119 32.0231 32.3
      vertex 47.9119 24.6436 32.3
      vertex 48.759 26.4027 32.3
    endloop
  endfacet
  facet normal 0 0 1
    outer loop
      vertex 46.5839 33.4543 32.3
      vertex 47.9119 24.6436 32.3
      vertex 47.9119 32.0231 32.3
    endloop
  endfacet
  facet normal 0 0 1
    outer loop
      vertex 46.5839 33.4543 32.3
      vertex 46.5839 23.2123 32.3
      vertex 47.9119 24.6436 32.3
    endloop
  endfacet
  facet normal 0 0 1
    outer loop
      vertex 44.893 34.4306 32.3
      vertex 46.5839 23.2123 32.3
      vertex 46.5839 33.4543 32.3
    endloop
  endfacet
  facet normal 0 0 1
    outer loop
      vertex 44.893 34.4306 32.3
      vertex 44.893 22.2361 32.3
      vertex 46.5839 23.2123 32.3
    endloop
  endfacet
  facet normal 0 0 1
    outer loop
      vertex 42.9895 34.865 32.3
      vertex 44.893 22.2361 32.3
      vertex 44.893 34.4306 32.3
    endloop
  endfacet
  facet normal 0 0 1
    outer loop
      vertex 42.9895 34.865 32.3
      vertex 42.9895 21.8016 32.3
      vertex 44.893 22.2361 32.3
    endloop
  endfacet
  facet normal -0 0 1
    outer loop
      vertex 41.0425 34.7191 32.3
      vertex 42.9895 21.8016 32.3
      vertex 42.9895 34.865 32.3
    endloop
  endfacet
  facet normal 0 0 1
    outer loop
      vertex 41.0425 34.7191 32.3
      vertex 41.0425 21.9476 32.3
      vertex 42.9895 21.8016 32.3
    endloop
  endfacet
  facet normal -0 0 1
    outer loop
      vertex 39.225 34.0058 32.3
      vertex 41.0425 21.9476 32.3
      vertex 41.0425 34.7191 32.3
    endloop
  endfacet
  facet normal 0 0 1
    outer loop
      vertex 39.225 34.0058 32.3
      vertex 39.225 22.6609 32.3
      vertex 41.0425 21.9476 32.3
    endloop
  endfacet
  facet normal -0 0 1
    outer loop
      vertex 37.6985 32.7885 32.3
      vertex 39.225 22.6609 32.3
      vertex 39.225 34.0058 32.3
    endloop
  endfacet
  facet normal 0 0 1
    outer loop
      vertex 37.6985 32.7885 32.3
      vertex 37.6985 23.8782 32.3
      vertex 39.225 22.6609 32.3
    endloop
  endfacet
  facet normal -0 0 1
    outer loop
      vertex 36.5987 31.1753 32.3
      vertex 37.6985 23.8782 32.3
      vertex 37.6985 32.7885 32.3
    endloop
  endfacet
  facet normal 0 0 1
    outer loop
      vertex 36.5987 31.1753 32.3
      vertex 36.5987 25.4914 32.3
      vertex 37.6985 23.8782 32.3
    endloop
  endfacet
  facet normal -0 0 1
    outer loop
      vertex 36.0232 29.3096 32.3
      vertex 36.5987 25.4914 32.3
      vertex 36.5987 31.1753 32.3
    endloop
  endfacet
  facet normal 0 0 1
    outer loop
      vertex 36.5987 25.4914 32.3
      vertex 36.0232 29.3096 32.3
      vertex 36.0232 27.3571 32.3
    endloop
  endfacet
  facet normal 0.62349 0.781831 -0
    outer loop
      vertex 39.225 22.6609 32.3
      vertex 37.6985 23.8782 35
      vertex 39.225 22.6609 35
    endloop
  endfacet
  facet normal 0.62349 0.781831 0
    outer loop
      vertex 37.6985 23.8782 35
      vertex 39.225 22.6609 32.3
      vertex 37.6985 23.8782 32.3
    endloop
  endfacet
  facet normal -0.733051 0.680174 0
    outer loop
      vertex 46.5839 23.2123 32.3
      vertex 47.9119 24.6436 35
      vertex 47.9119 24.6436 32.3
    endloop
  endfacet
  facet normal -0.733051 0.680174 0
    outer loop
      vertex 47.9119 24.6436 35
      vertex 46.5839 23.2123 32.3
      vertex 46.5839 23.2123 35
    endloop
  endfacet
  facet normal -0.222522 0.974928 0
    outer loop
      vertex 44.893 22.2361 32.3
      vertex 42.9895 21.8016 35
      vertex 44.893 22.2361 35
    endloop
  endfacet
  facet normal -0.222522 0.974928 0
    outer loop
      vertex 42.9895 21.8016 35
      vertex 44.893 22.2361 32.3
      vertex 42.9895 21.8016 32.3
    endloop
  endfacet
  facet normal 0.0747307 0.997204 -0
    outer loop
      vertex 42.9895 21.8016 32.3
      vertex 41.0425 21.9476 35
      vertex 42.9895 21.8016 35
    endloop
  endfacet
  facet normal 0.0747307 0.997204 0
    outer loop
      vertex 41.0425 21.9476 35
      vertex 42.9895 21.8016 32.3
      vertex 41.0425 21.9476 32.3
    endloop
  endfacet
  facet normal -0.988831 -0.149041 0
    outer loop
      vertex 49.05 56.6667 32.3
      vertex 48.759 58.5973 35
      vertex 48.759 58.5973 32.3
    endloop
  endfacet
  facet normal -0.988831 -0.149041 0
    outer loop
      vertex 48.759 58.5973 35
      vertex 49.05 56.6667 32.3
      vertex 49.05 56.6667 35
    endloop
  endfacet
  facet normal 1 -0 0
    outer loop
      vertex 36.0232 55.6904 35
      vertex 36.0232 57.6429 32.3
      vertex 36.0232 57.6429 35
    endloop
  endfacet
  facet normal 1 0 0
    outer loop
      vertex 36.0232 57.6429 32.3
      vertex 36.0232 55.6904 35
      vertex 36.0232 55.6904 32.3
    endloop
  endfacet
  facet normal 0.0747288 -0.997204 0
    outer loop
      vertex 41.0425 63.0524 32.3
      vertex 42.9895 63.1983 35
      vertex 41.0425 63.0524 35
    endloop
  endfacet
  facet normal 0.0747288 -0.997204 0
    outer loop
      vertex 42.9895 63.1983 35
      vertex 41.0425 63.0524 32.3
      vertex 42.9895 63.1983 32.3
    endloop
  endfacet
  facet normal -0.733051 -0.680174 0
    outer loop
      vertex 47.9119 60.3564 32.3
      vertex 46.5839 61.7877 35
      vertex 46.5839 61.7877 32.3
    endloop
  endfacet
  facet normal -0.733051 -0.680174 0
    outer loop
      vertex 46.5839 61.7877 35
      vertex 47.9119 60.3564 32.3
      vertex 47.9119 60.3564 35
    endloop
  endfacet
  facet normal -0.900969 -0.433883 0
    outer loop
      vertex 48.759 58.5973 32.3
      vertex 47.9119 60.3564 35
      vertex 47.9119 60.3564 32.3
    endloop
  endfacet
  facet normal -0.900969 -0.433883 0
    outer loop
      vertex 47.9119 60.3564 35
      vertex 48.759 58.5973 32.3
      vertex 48.759 58.5973 35
    endloop
  endfacet
  facet normal 0.623491 -0.78183 0
    outer loop
      vertex 37.6985 61.1218 32.3
      vertex 39.225 62.3391 35
      vertex 37.6985 61.1218 35
    endloop
  endfacet
  facet normal 0.623491 -0.78183 0
    outer loop
      vertex 39.225 62.3391 35
      vertex 37.6985 61.1218 32.3
      vertex 39.225 62.3391 32.3
    endloop
  endfacet
  facet normal 0.826239 -0.56332 0
    outer loop
      vertex 36.5987 59.5086 35
      vertex 37.6985 61.1218 32.3
      vertex 37.6985 61.1218 35
    endloop
  endfacet
  facet normal 0.826239 -0.56332 0
    outer loop
      vertex 37.6985 61.1218 32.3
      vertex 36.5987 59.5086 35
      vertex 36.5987 59.5086 32.3
    endloop
  endfacet
  facet normal -0.5 -0.866026 0
    outer loop
      vertex 44.893 62.7639 32.3
      vertex 46.5839 61.7877 35
      vertex 44.893 62.7639 35
    endloop
  endfacet
  facet normal -0.5 -0.866026 -0
    outer loop
      vertex 46.5839 61.7877 35
      vertex 44.893 62.7639 32.3
      vertex 46.5839 61.7877 32.3
    endloop
  endfacet
  facet normal -0.22252 -0.974928 0
    outer loop
      vertex 42.9895 63.1983 32.3
      vertex 44.893 62.7639 35
      vertex 42.9895 63.1983 35
    endloop
  endfacet
  facet normal -0.22252 -0.974928 -0
    outer loop
      vertex 44.893 62.7639 35
      vertex 42.9895 63.1983 32.3
      vertex 44.893 62.7639 32.3
    endloop
  endfacet
  facet normal 0.955573 -0.294755 0
    outer loop
      vertex 36.0232 57.6429 35
      vertex 36.5987 59.5086 32.3
      vertex 36.5987 59.5086 35
    endloop
  endfacet
  facet normal 0.955573 -0.294755 0
    outer loop
      vertex 36.5987 59.5086 32.3
      vertex 36.0232 57.6429 35
      vertex 36.0232 57.6429 32.3
    endloop
  endfacet
  facet normal 0.36534 -0.930874 0
    outer loop
      vertex 39.225 62.3391 32.3
      vertex 41.0425 63.0524 35
      vertex 39.225 62.3391 35
    endloop
  endfacet
  facet normal 0.36534 -0.930874 0
    outer loop
      vertex 41.0425 63.0524 35
      vertex 39.225 62.3391 32.3
      vertex 41.0425 63.0524 32.3
    endloop
  endfacet
  facet normal -0.5 0.866026 0
    outer loop
      vertex 46.5839 51.5457 32.3
      vertex 44.893 50.5694 35
      vertex 46.5839 51.5457 35
    endloop
  endfacet
  facet normal -0.5 0.866026 0
    outer loop
      vertex 44.893 50.5694 35
      vertex 46.5839 51.5457 32.3
      vertex 44.893 50.5694 32.3
    endloop
  endfacet
  facet normal -0.733052 0.680173 0
    outer loop
      vertex 46.5839 51.5457 32.3
      vertex 47.9119 52.9769 35
      vertex 47.9119 52.9769 32.3
    endloop
  endfacet
  facet normal -0.733052 0.680173 0
    outer loop
      vertex 47.9119 52.9769 35
      vertex 46.5839 51.5457 32.3
      vertex 46.5839 51.5457 35
    endloop
  endfacet
  facet normal -0.988831 0.149042 0
    outer loop
      vertex 48.759 54.736 32.3
      vertex 49.05 56.6667 35
      vertex 49.05 56.6667 32.3
    endloop
  endfacet
  facet normal -0.988831 0.149042 0
    outer loop
      vertex 49.05 56.6667 35
      vertex 48.759 54.736 32.3
      vertex 48.759 54.736 35
    endloop
  endfacet
  facet normal 0.623489 0.781832 -0
    outer loop
      vertex 39.225 50.9942 32.3
      vertex 37.6985 52.2115 35
      vertex 39.225 50.9942 35
    endloop
  endfacet
  facet normal 0.623489 0.781832 0
    outer loop
      vertex 37.6985 52.2115 35
      vertex 39.225 50.9942 32.3
      vertex 37.6985 52.2115 32.3
    endloop
  endfacet
  facet normal -0.222522 0.974928 0
    outer loop
      vertex 44.893 50.5694 32.3
      vertex 42.9895 50.135 35
      vertex 44.893 50.5694 35
    endloop
  endfacet
  facet normal -0.222522 0.974928 0
    outer loop
      vertex 42.9895 50.135 35
      vertex 44.893 50.5694 32.3
      vertex 42.9895 50.135 32.3
    endloop
  endfacet
  facet normal 0.955572 0.294756 0
    outer loop
      vertex 36.5987 53.8247 35
      vertex 36.0232 55.6904 32.3
      vertex 36.0232 55.6904 35
    endloop
  endfacet
  facet normal 0.955572 0.294756 0
    outer loop
      vertex 36.0232 55.6904 32.3
      vertex 36.5987 53.8247 35
      vertex 36.5987 53.8247 32.3
    endloop
  endfacet
  facet normal -0.900969 0.433884 0
    outer loop
      vertex 47.9119 52.9769 32.3
      vertex 48.759 54.736 35
      vertex 48.759 54.736 32.3
    endloop
  endfacet
  facet normal -0.900969 0.433884 0
    outer loop
      vertex 48.759 54.736 35
      vertex 47.9119 52.9769 32.3
      vertex 47.9119 52.9769 35
    endloop
  endfacet
  facet normal 0.0747307 0.997204 -0
    outer loop
      vertex 42.9895 50.135 32.3
      vertex 41.0425 50.2809 35
      vertex 42.9895 50.135 35
    endloop
  endfacet
  facet normal 0.0747307 0.997204 0
    outer loop
      vertex 41.0425 50.2809 35
      vertex 42.9895 50.135 32.3
      vertex 41.0425 50.2809 32.3
    endloop
  endfacet
  facet normal 0.365342 0.930873 -0
    outer loop
      vertex 41.0425 50.2809 32.3
      vertex 39.225 50.9942 35
      vertex 41.0425 50.2809 35
    endloop
  endfacet
  facet normal 0.365342 0.930873 0
    outer loop
      vertex 39.225 50.9942 35
      vertex 41.0425 50.2809 32.3
      vertex 39.225 50.9942 32.3
    endloop
  endfacet
  facet normal 0 0 1
    outer loop
      vertex 48.759 58.5973 32.3
      vertex 48.759 54.736 32.3
      vertex 49.05 56.6667 32.3
    endloop
  endfacet
  facet normal 0 0 1
    outer loop
      vertex 47.9119 60.3564 32.3
      vertex 48.759 54.736 32.3
      vertex 48.759 58.5973 32.3
    endloop
  endfacet
  facet normal 0 0 1
    outer loop
      vertex 47.9119 60.3564 32.3
      vertex 47.9119 52.9769 32.3
      vertex 48.759 54.736 32.3
    endloop
  endfacet
  facet normal 0 0 1
    outer loop
      vertex 46.5839 61.7877 32.3
      vertex 47.9119 52.9769 32.3
      vertex 47.9119 60.3564 32.3
    endloop
  endfacet
  facet normal 0 0 1
    outer loop
      vertex 46.5839 61.7877 32.3
      vertex 46.5839 51.5457 32.3
      vertex 47.9119 52.9769 32.3
    endloop
  endfacet
  facet normal 0 0 1
    outer loop
      vertex 44.893 62.7639 32.3
      vertex 46.5839 51.5457 32.3
      vertex 46.5839 61.7877 32.3
    endloop
  endfacet
  facet normal 0 0 1
    outer loop
      vertex 44.893 62.7639 32.3
      vertex 44.893 50.5694 32.3
      vertex 46.5839 51.5457 32.3
    endloop
  endfacet
  facet normal 0 0 1
    outer loop
      vertex 42.9895 63.1983 32.3
      vertex 44.893 50.5694 32.3
      vertex 44.893 62.7639 32.3
    endloop
  endfacet
  facet normal 0 0 1
    outer loop
      vertex 42.9895 63.1983 32.3
      vertex 42.9895 50.135 32.3
      vertex 44.893 50.5694 32.3
    endloop
  endfacet
  facet normal -0 0 1
    outer loop
      vertex 41.0425 63.0524 32.3
      vertex 42.9895 50.135 32.3
      vertex 42.9895 63.1983 32.3
    endloop
  endfacet
  facet normal 0 0 1
    outer loop
      vertex 41.0425 63.0524 32.3
      vertex 41.0425 50.2809 32.3
      vertex 42.9895 50.135 32.3
    endloop
  endfacet
  facet normal -0 0 1
    outer loop
      vertex 39.225 62.3391 32.3
      vertex 41.0425 50.2809 32.3
      vertex 41.0425 63.0524 32.3
    endloop
  endfacet
  facet normal 0 0 1
    outer loop
      vertex 39.225 62.3391 32.3
      vertex 39.225 50.9942 32.3
      vertex 41.0425 50.2809 32.3
    endloop
  endfacet
  facet normal -0 0 1
    outer loop
      vertex 37.6985 61.1218 32.3
      vertex 39.225 50.9942 32.3
      vertex 39.225 62.3391 32.3
    endloop
  endfacet
  facet normal 0 0 1
    outer loop
      vertex 37.6985 61.1218 32.3
      vertex 37.6985 52.2115 32.3
      vertex 39.225 50.9942 32.3
    endloop
  endfacet
  facet normal -0 0 1
    outer loop
      vertex 36.5987 59.5086 32.3
      vertex 37.6985 52.2115 32.3
      vertex 37.6985 61.1218 32.3
    endloop
  endfacet
  facet normal 0 0 1
    outer loop
      vertex 36.5987 59.5086 32.3
      vertex 36.5987 53.8247 32.3
      vertex 37.6985 52.2115 32.3
    endloop
  endfacet
  facet normal -0 0 1
    outer loop
      vertex 36.0232 57.6429 32.3
      vertex 36.5987 53.8247 32.3
      vertex 36.5987 59.5086 32.3
    endloop
  endfacet
  facet normal 0 0 1
    outer loop
      vertex 36.5987 53.8247 32.3
      vertex 36.0232 57.6429 32.3
      vertex 36.0232 55.6904 32.3
    endloop
  endfacet
  facet normal 0.82624 0.563318 0
    outer loop
      vertex 37.6985 52.2115 35
      vertex 36.5987 53.8247 32.3
      vertex 36.5987 53.8247 35
    endloop
  endfacet
  facet normal 0.82624 0.563318 0
    outer loop
      vertex 36.5987 53.8247 32.3
      vertex 37.6985 52.2115 35
      vertex 37.6985 52.2115 32.3
    endloop
  endfacet
endsolid OpenSCAD_Model
