solid OpenSCAD_Model
  facet normal -1 0 0
    outer loop
      vertex 0 41 0
      vertex 0 3.88229 14.5088
      vertex 0 41 4.54946
    endloop
  endfacet
  facet normal -1 0 -0
    outer loop
      vertex 0 3.88229 14.5088
      vertex 0 41 0
      vertex 0 0 0
    endloop
  endfacet
  facet normal -1 0 0
    outer loop
      vertex 0 3.88229 14.5088
      vertex 0 0 35
      vertex 0 9.36537 35
    endloop
  endfacet
  facet normal -1 0 0
    outer loop
      vertex 0 0 35
      vertex 0 3.88229 14.5088
      vertex 0 0 0
    endloop
  endfacet
  facet normal -1 0 0
    outer loop
      vertex 0 100 0
      vertex 0 98.6031 14.5349
      vertex 0 100 35
    endloop
  endfacet
  facet normal -1 0 0
    outer loop
      vertex 0 59 3.90868
      vertex 0 100 0
      vertex 0 59 0
    endloop
  endfacet
  facet normal -1 0 0
    outer loop
      vertex 0 100 0
      vertex 0 59 3.90868
      vertex 0 98.6031 14.5349
    endloop
  endfacet
  facet normal -1 -0 0
    outer loop
      vertex 0 100 35
      vertex 0 98.6031 14.5349
      vertex 0 93.127 35
    endloop
  endfacet
  facet normal 0 0 1
    outer loop
      vertex 109.318 73.5201 35
      vertex 112 100 35
      vertex 109.318 94.66 35
    endloop
  endfacet
  facet normal -0 0 1
    outer loop
      vertex 0 100 35
      vertex 109.318 94.66 35
      vertex 112 100 35
    endloop
  endfacet
  facet normal 0 0 1
    outer loop
      vertex 109.318 94.66 35
      vertex 0 100 35
      vertex 0 93.127 35
    endloop
  endfacet
  facet normal 0 0 1
    outer loop
      vertex 109.318 57.2349 35
      vertex 112 100 35
      vertex 109.318 73.5201 35
    endloop
  endfacet
  facet normal 0 0 1
    outer loop
      vertex 112 100 35
      vertex 109.318 57.2349 35
      vertex 112 0 35
    endloop
  endfacet
  facet normal -0 0 1
    outer loop
      vertex 109.318 7.83236 35
      vertex 112 0 35
      vertex 109.318 57.2349 35
    endloop
  endfacet
  facet normal 0 0 1
    outer loop
      vertex 0 0 35
      vertex 109.318 7.83236 35
      vertex 0 9.36537 35
    endloop
  endfacet
  facet normal 0 0 1
    outer loop
      vertex 109.318 7.83236 35
      vertex 0 0 35
      vertex 112 0 35
    endloop
  endfacet
  facet normal 1 -0 0
    outer loop
      vertex 112 0 35
      vertex 112 100 0
      vertex 112 100 35
    endloop
  endfacet
  facet normal 1 0 0
    outer loop
      vertex 112 100 0
      vertex 112 0 35
      vertex 112 0 0
    endloop
  endfacet
  facet normal 0 1 -0
    outer loop
      vertex 112 100 0
      vertex 0 100 35
      vertex 112 100 35
    endloop
  endfacet
  facet normal 0 1 0
    outer loop
      vertex 0 100 35
      vertex 112 100 0
      vertex 0 100 0
    endloop
  endfacet
  facet normal 0 0 -1
    outer loop
      vertex 112 0 0
      vertex 109 41 0
      vertex 112 100 0
    endloop
  endfacet
  facet normal 0 0 -1
    outer loop
      vertex 0 0 0
      vertex 109 41 0
      vertex 112 0 0
    endloop
  endfacet
  facet normal -0 0 -1
    outer loop
      vertex 109 41 0
      vertex 0 0 0
      vertex 0 41 0
    endloop
  endfacet
  facet normal 0 0 -1
    outer loop
      vertex 109 59 0
      vertex 112 100 0
      vertex 109 41 0
    endloop
  endfacet
  facet normal 0 0 -1
    outer loop
      vertex 0 100 0
      vertex 109 59 0
      vertex 0 59 0
    endloop
  endfacet
  facet normal 0 0 -1
    outer loop
      vertex 109 59 0
      vertex 0 100 0
      vertex 112 100 0
    endloop
  endfacet
  facet normal 0 -1 0
    outer loop
      vertex 0 0 0
      vertex 112 0 35
      vertex 0 0 35
    endloop
  endfacet
  facet normal 0 -1 -0
    outer loop
      vertex 112 0 35
      vertex 0 0 0
      vertex 112 0 0
    endloop
  endfacet
  facet normal -0.998605 7.27254e-05 -0.0527971
    outer loop
      vertex 110.767 52.1786 7.3551
      vertex 110.753 51.1941 7.61854
      vertex 110.737 52.3309 7.92273
    endloop
  endfacet
  facet normal -0.998627 -1.43478e-05 -0.0523812
    outer loop
      vertex 110.09 3.88229 20.2783
      vertex 109.789 45.3096 26.0054
      vertex 110.739 50.1695 7.89269
    endloop
  endfacet
  facet normal -0.998628 -1.68527e-05 -0.0523631
    outer loop
      vertex 109.789 45.3096 26.0054
      vertex 110.09 3.88229 20.2783
      vertex 109.318 7.83236 35
    endloop
  endfacet
  facet normal -0.998632 -0 -0.0522931
    outer loop
      vertex 109.318 57.2349 35
      vertex 109.789 45.3096 26.0054
      vertex 109.318 7.83236 35
    endloop
  endfacet
  facet normal -0.0505527 0.25882 0.964602
    outer loop
      vertex 0 3.88229 14.5088
      vertex 25.4189 41 5.88161
      vertex 0 41 4.54946
    endloop
  endfacet
  facet normal -0.050552 0.258819 0.964602
    outer loop
      vertex 25.4189 41 5.88161
      vertex 0 3.88229 14.5088
      vertex 110.09 3.88229 20.2783
    endloop
  endfacet
  facet normal 0.0135456 0.965926 -0.258463
    outer loop
      vertex 110.09 3.88229 20.2783
      vertex 0 9.36537 35
      vertex 109.318 7.83236 35
    endloop
  endfacet
  facet normal 0.0135454 0.965926 -0.258465
    outer loop
      vertex 0 9.36537 35
      vertex 110.09 3.88229 20.2783
      vertex 0 3.88229 14.5088
    endloop
  endfacet
  facet normal -0.0505445 0.258833 0.964599
    outer loop
      vertex 109 52.1786 7.26251
      vertex 110.753 51.1941 7.61854
      vertex 110.767 52.1786 7.3551
    endloop
  endfacet
  facet normal -0.0505522 0.258821 0.964602
    outer loop
      vertex 110.753 51.1941 7.61854
      vertex 109 52.1786 7.26251
      vertex 109 51.1941 7.52667
    endloop
  endfacet
  facet normal -0.0505383 0.258818 0.964603
    outer loop
      vertex 109 41 10.2619
      vertex 110.739 50.1695 7.89269
      vertex 109.059 50.1695 7.80467
    endloop
  endfacet
  facet normal -0.0506822 0.258817 0.964596
    outer loop
      vertex 109 41 10.2619
      vertex 109.059 50.1695 7.80467
      vertex 109 50.1695 7.80157
    endloop
  endfacet
  facet normal -0.0505414 0.258819 0.964603
    outer loop
      vertex 110.739 50.1695 7.89269
      vertex 109 41 10.2619
      vertex 110.09 3.88229 20.2783
    endloop
  endfacet
  facet normal -0.0505525 0.258818 0.964602
    outer loop
      vertex 110.09 3.88229 20.2783
      vertex 109 41 10.2619
      vertex 25.4189 41 5.88161
    endloop
  endfacet
  facet normal -0.013546 -0.965929 0.258451
    outer loop
      vertex 109 52.3309 7.83169
      vertex 110.767 52.1786 7.3551
      vertex 110.737 52.3309 7.92273
    endloop
  endfacet
  facet normal -0.0135432 -0.965927 0.258461
    outer loop
      vertex 110.767 52.1786 7.3551
      vertex 109 52.3309 7.83169
      vertex 109 52.1786 7.26251
    endloop
  endfacet
  facet normal -0.0135449 0.96591 0.258525
    outer loop
      vertex 110.739 50.1695 7.89269
      vertex 110.766 50.3068 7.38112
      vertex 109.059 50.1695 7.80467
    endloop
  endfacet
  facet normal -0.215738 0.945866 0.242474
    outer loop
      vertex 110.739 50.1695 7.89269
      vertex 109.789 45.3096 26.0054
      vertex 110.766 50.3068 7.38112
    endloop
  endfacet
  facet normal -0.998628 0 -0.052356
    outer loop
      vertex 110.766 50.3068 7.38112
      vertex 109.318 57.2349 35
      vertex 109.318 73.5201 35
    endloop
  endfacet
  facet normal -0.998628 5.86666e-05 -0.0523707
    outer loop
      vertex 109.318 57.2349 35
      vertex 110.766 50.3068 7.38112
      vertex 109.789 45.3096 26.0054
    endloop
  endfacet
  facet normal 0.0135455 -0.965926 -0.258464
    outer loop
      vertex 0 93.127 35
      vertex 110.088 98.6031 20.3043
      vertex 109.318 94.66 35
    endloop
  endfacet
  facet normal 0.0135454 -0.965926 -0.258465
    outer loop
      vertex 110.088 98.6031 20.3043
      vertex 0 93.127 35
      vertex 0 98.6031 14.5349
    endloop
  endfacet
  facet normal -0.99863 0 -0.0523245
    outer loop
      vertex 110.088 98.6031 20.3043
      vertex 109.318 73.5201 35
      vertex 109.318 94.66 35
    endloop
  endfacet
  facet normal -0.998629 -1.23981e-05 -0.0523456
    outer loop
      vertex 109.318 73.5201 35
      vertex 110.088 98.6031 20.3043
      vertex 110.766 50.3068 7.38112
    endloop
  endfacet
  facet normal -0.0505521 -0.258818 0.964602
    outer loop
      vertex 0 98.6031 14.5349
      vertex 109 59 9.62113
      vertex 110.088 98.6031 20.3043
    endloop
  endfacet
  facet normal -0.0505527 -0.25882 0.964602
    outer loop
      vertex 109 59 9.62113
      vertex 0 98.6031 14.5349
      vertex 0 59 3.90868
    endloop
  endfacet
  facet normal -0.00846204 -0.258589 0.96595
    outer loop
      vertex 110.088 98.6031 20.3043
      vertex 110.753 51.1941 7.61854
      vertex 110.766 50.3068 7.38112
    endloop
  endfacet
  facet normal 0.0643856 -0.257108 0.964235
    outer loop
      vertex 110.088 98.6031 20.3043
      vertex 110.737 52.3309 7.92273
      vertex 110.753 51.1941 7.61854
    endloop
  endfacet
  facet normal -0.05055 -0.258818 0.964602
    outer loop
      vertex 109 59 9.62113
      vertex 110.737 52.3309 7.92273
      vertex 110.088 98.6031 20.3043
    endloop
  endfacet
  facet normal -0.0505569 -0.25882 0.964602
    outer loop
      vertex 110.737 52.3309 7.92273
      vertex 109 59 9.62113
      vertex 109 52.3309 7.83169
    endloop
  endfacet
  facet normal -0.0505522 -0.258821 0.964601
    outer loop
      vertex 109 50.3068 7.28859
      vertex 110.753 51.1941 7.61854
      vertex 109 51.1941 7.52667
    endloop
  endfacet
  facet normal -0.0505403 -0.258843 0.964596
    outer loop
      vertex 110.753 51.1941 7.61854
      vertex 109 50.3068 7.28859
      vertex 110.766 50.3068 7.38112
    endloop
  endfacet
  facet normal -0.0135454 0.96591 0.258523
    outer loop
      vertex 109 50.3068 7.28859
      vertex 109.059 50.1695 7.80467
      vertex 110.766 50.3068 7.38112
    endloop
  endfacet
  facet normal -0.0135836 0.965908 0.258527
    outer loop
      vertex 109.059 50.1695 7.80467
      vertex 109 50.3068 7.28859
      vertex 109 50.1695 7.80157
    endloop
  endfacet
  facet normal -1 0 0
    outer loop
      vertex 109 52.1786 7.26251
      vertex 109 59 9.62113
      vertex 109 59 0
    endloop
  endfacet
  facet normal -1 0 0
    outer loop
      vertex 109 59 9.62113
      vertex 109 52.1786 7.26251
      vertex 109 52.3309 7.83169
    endloop
  endfacet
  facet normal -1 0 0
    outer loop
      vertex 109 50.3068 7.28859
      vertex 109 52.1786 7.26251
      vertex 109 59 0
    endloop
  endfacet
  facet normal -1 0 0
    outer loop
      vertex 109 52.1786 7.26251
      vertex 109 50.3068 7.28859
      vertex 109 51.1941 7.52667
    endloop
  endfacet
  facet normal -1 0 0
    outer loop
      vertex 109 41 0
      vertex 109 50.3068 7.28859
      vertex 109 59 0
    endloop
  endfacet
  facet normal -1 0 0
    outer loop
      vertex 109 41 10.2619
      vertex 109 50.3068 7.28859
      vertex 109 41 0
    endloop
  endfacet
  facet normal -1 0 0
    outer loop
      vertex 109 50.3068 7.28859
      vertex 109 41 10.2619
      vertex 109 50.1695 7.80157
    endloop
  endfacet
  facet normal 0 -1 0
    outer loop
      vertex 109 59 0
      vertex 0 59 3.90868
      vertex 0 59 0
    endloop
  endfacet
  facet normal 0 -1 0
    outer loop
      vertex 0 59 3.90868
      vertex 109 59 0
      vertex 109 59 9.62113
    endloop
  endfacet
  facet normal 0 1 -0
    outer loop
      vertex 109 41 0
      vertex 25.4189 41 5.88161
      vertex 109 41 10.2619
    endloop
  endfacet
  facet normal 0 1 0
    outer loop
      vertex 0 41 0
      vertex 25.4189 41 5.88161
      vertex 109 41 0
    endloop
  endfacet
  facet normal 0 1 0
    outer loop
      vertex 25.4189 41 5.88161
      vertex 0 41 0
      vertex 0 41 4.54946
    endloop
  endfacet
endsolid OpenSCAD_Model
