solid OpenSCAD_Model
  facet normal -1 0 0
    outer loop
      vertex 0 0 0
      vertex 0 105 15
      vertex 0 105 0
    endloop
  endfacet
  facet normal -1 -0 0
    outer loop
      vertex 0 105 15
      vertex 0 0 0
      vertex 0 0 15
    endloop
  endfacet
  facet normal 0 0 1
    outer loop
      vertex 8.64 105 15
      vertex 2 103 15
      vertex 8.64 103 15
    endloop
  endfacet
  facet normal 0 0 1
    outer loop
      vertex 0 105 15
      vertex 2 73.75 15
      vertex 2 103 15
    endloop
  endfacet
  facet normal 0 0 1
    outer loop
      vertex 2 73.75 15
      vertex 0 105 15
      vertex 2 32.76 15
    endloop
  endfacet
  facet normal 0 0 1
    outer loop
      vertex 0 0 15
      vertex 2 32.76 15
      vertex 0 105 15
    endloop
  endfacet
  facet normal -0 0 1
    outer loop
      vertex 0 105 15
      vertex 2 103 15
      vertex 8.64 105 15
    endloop
  endfacet
  facet normal -0 0 1
    outer loop
      vertex 2 2 15
      vertex 8.46 0 15
      vertex 8.46 2 15
    endloop
  endfacet
  facet normal 0 0 1
    outer loop
      vertex 2 2 15
      vertex 0 0 15
      vertex 8.46 0 15
    endloop
  endfacet
  facet normal 0 0 1
    outer loop
      vertex 2 32.76 15
      vertex 0 0 15
      vertex 2 2 15
    endloop
  endfacet
  facet normal 0 0 1
    outer loop
      vertex 44.36 105 15
      vertex 37.72 103 15
      vertex 44.36 103 15
    endloop
  endfacet
  facet normal 0 0 1
    outer loop
      vertex 37.72 103 15
      vertex 25.28 103 15
      vertex 37.72 73.75 15
    endloop
  endfacet
  facet normal 0 0 1
    outer loop
      vertex 44.36 105 15
      vertex 25.28 103 15
      vertex 37.72 103 15
    endloop
  endfacet
  facet normal -0 0 1
    outer loop
      vertex 18.64 105 15
      vertex 25.28 103 15
      vertex 44.36 105 15
    endloop
  endfacet
  facet normal 0 0 1
    outer loop
      vertex 25.28 103 15
      vertex 18.64 105 15
      vertex 18.64 103 15
    endloop
  endfacet
  facet normal 0 0 1
    outer loop
      vertex 61 73.75 15
      vertex 41 47.01 15
      vertex 61 32.76 15
    endloop
  endfacet
  facet normal 0 0 1
    outer loop
      vertex 41 47.01 15
      vertex 36.08 32.76 15
      vertex 61 32.76 15
    endloop
  endfacet
  facet normal 0 0 1
    outer loop
      vertex 36.08 32.76 15
      vertex 26.92 32.76 15
      vertex 36.08 2 15
    endloop
  endfacet
  facet normal 0 0 1
    outer loop
      vertex 41 47.01 15
      vertex 26.92 32.76 15
      vertex 36.08 32.76 15
    endloop
  endfacet
  facet normal -0 0 1
    outer loop
      vertex 22 47.01 15
      vertex 26.92 32.76 15
      vertex 41 47.01 15
    endloop
  endfacet
  facet normal 0 0 1
    outer loop
      vertex 2 32.76 15
      vertex 22 47.01 15
      vertex 2 73.75 15
    endloop
  endfacet
  facet normal 0 0 1
    outer loop
      vertex 22 47.01 15
      vertex 2 32.76 15
      vertex 26.92 32.76 15
    endloop
  endfacet
  facet normal 0 0 1
    outer loop
      vertex 41 47.01 15
      vertex 61 73.75 15
      vertex 41 66.01 15
    endloop
  endfacet
  facet normal -0 0 1
    outer loop
      vertex 37.72 73.75 15
      vertex 41 66.01 15
      vertex 61 73.75 15
    endloop
  endfacet
  facet normal 0 0 1
    outer loop
      vertex 25.28 73.75 15
      vertex 37.72 73.75 15
      vertex 25.28 103 15
    endloop
  endfacet
  facet normal 0 0 1
    outer loop
      vertex 37.72 73.75 15
      vertex 25.28 73.75 15
      vertex 41 66.01 15
    endloop
  endfacet
  facet normal 0 0 1
    outer loop
      vertex 25.28 73.75 15
      vertex 22 66.01 15
      vertex 41 66.01 15
    endloop
  endfacet
  facet normal 0 0 1
    outer loop
      vertex 22 66.01 15
      vertex 2 73.75 15
      vertex 22 47.01 15
    endloop
  endfacet
  facet normal -0 0 1
    outer loop
      vertex 2 73.75 15
      vertex 22 66.01 15
      vertex 25.28 73.75 15
    endloop
  endfacet
  facet normal 0 0 1
    outer loop
      vertex 61 73.75 15
      vertex 63 105 15
      vertex 61 103 15
    endloop
  endfacet
  facet normal -0 0 1
    outer loop
      vertex 54.36 105 15
      vertex 61 103 15
      vertex 63 105 15
    endloop
  endfacet
  facet normal 0 0 1
    outer loop
      vertex 61 103 15
      vertex 54.36 105 15
      vertex 54.36 103 15
    endloop
  endfacet
  facet normal 0 0 1
    outer loop
      vertex 63 105 15
      vertex 61 73.75 15
      vertex 63 0 15
    endloop
  endfacet
  facet normal -0 0 1
    outer loop
      vertex 61 32.76 15
      vertex 63 0 15
      vertex 61 73.75 15
    endloop
  endfacet
  facet normal -0 0 1
    outer loop
      vertex 61 2 15
      vertex 63 0 15
      vertex 61 32.76 15
    endloop
  endfacet
  facet normal 0 0 1
    outer loop
      vertex 54.54 0 15
      vertex 61 2 15
      vertex 54.54 2 15
    endloop
  endfacet
  facet normal 0 0 1
    outer loop
      vertex 61 2 15
      vertex 54.54 0 15
      vertex 63 0 15
    endloop
  endfacet
  facet normal -0 0 1
    outer loop
      vertex 36.08 2 15
      vertex 42.54 0 15
      vertex 42.54 2 15
    endloop
  endfacet
  facet normal 0 0 1
    outer loop
      vertex 26.92 2 15
      vertex 36.08 2 15
      vertex 26.92 32.76 15
    endloop
  endfacet
  facet normal -0 0 1
    outer loop
      vertex 26.92 2 15
      vertex 42.54 0 15
      vertex 36.08 2 15
    endloop
  endfacet
  facet normal 0 0 1
    outer loop
      vertex 20.46 0 15
      vertex 26.92 2 15
      vertex 20.46 2 15
    endloop
  endfacet
  facet normal 0 0 1
    outer loop
      vertex 26.92 2 15
      vertex 20.46 0 15
      vertex 42.54 0 15
    endloop
  endfacet
  facet normal 1 -0 0
    outer loop
      vertex 63 0 15
      vertex 63 105 0
      vertex 63 105 15
    endloop
  endfacet
  facet normal 1 0 0
    outer loop
      vertex 63 105 0
      vertex 63 0 15
      vertex 63 0 0
    endloop
  endfacet
  facet normal 0 1 -0
    outer loop
      vertex 63 105 0
      vertex 54.36 105 15
      vertex 63 105 15
    endloop
  endfacet
  facet normal 0 1 0
    outer loop
      vertex 54.36 105 15
      vertex 63 105 0
      vertex 54.36 105 0
    endloop
  endfacet
  facet normal 0 1 -0
    outer loop
      vertex 8.64 105 0
      vertex 0 105 15
      vertex 8.64 105 15
    endloop
  endfacet
  facet normal 0 1 0
    outer loop
      vertex 0 105 15
      vertex 8.64 105 0
      vertex 0 105 0
    endloop
  endfacet
  facet normal 0 1 -0
    outer loop
      vertex 44.36 105 0
      vertex 18.64 105 15
      vertex 44.36 105 15
    endloop
  endfacet
  facet normal 0 1 0
    outer loop
      vertex 18.64 105 15
      vertex 44.36 105 0
      vertex 18.64 105 0
    endloop
  endfacet
  facet normal 0 0 -1
    outer loop
      vertex 8.46 0 0
      vertex 0 0 0
      vertex 8.46 26.76 0
    endloop
  endfacet
  facet normal 0 0 -1
    outer loop
      vertex 22 66.01 0
      vertex 8.64 79.75 0
      vertex 18.64 79.75 0
    endloop
  endfacet
  facet normal -0 0 -1
    outer loop
      vertex 22 47.01 0
      vertex 8.46 26.76 0
      vertex 8.64 79.75 0
    endloop
  endfacet
  facet normal 0 0 -1
    outer loop
      vertex 0 105 0
      vertex 8.64 79.75 0
      vertex 8.46 26.76 0
    endloop
  endfacet
  facet normal 0 0 -1
    outer loop
      vertex 0 105 0
      vertex 8.46 26.76 0
      vertex 0 0 0
    endloop
  endfacet
  facet normal 0 0 -1
    outer loop
      vertex 8.64 79.75 0
      vertex 0 105 0
      vertex 8.64 105 0
    endloop
  endfacet
  facet normal 0 0 -1
    outer loop
      vertex 20.46 26.76 0
      vertex 42.54 26.76 0
      vertex 42.54 0 0
    endloop
  endfacet
  facet normal 0 0 -1
    outer loop
      vertex 42.54 26.76 0
      vertex 20.46 26.76 0
      vertex 41 47.01 0
    endloop
  endfacet
  facet normal -0 0 -1
    outer loop
      vertex 41 47.01 0
      vertex 20.46 26.76 0
      vertex 22 47.01 0
    endloop
  endfacet
  facet normal 0 0 -1
    outer loop
      vertex 20.46 26.76 0
      vertex 42.54 0 0
      vertex 20.46 0 0
    endloop
  endfacet
  facet normal 0 0 -1
    outer loop
      vertex 41 47.01 0
      vertex 54.36 79.75 0
      vertex 54.54 26.76 0
    endloop
  endfacet
  facet normal 0 0 -1
    outer loop
      vertex 41 47.01 0
      vertex 54.54 26.76 0
      vertex 42.54 26.76 0
    endloop
  endfacet
  facet normal 0 0 -1
    outer loop
      vertex 54.36 79.75 0
      vertex 41 47.01 0
      vertex 41 66.01 0
    endloop
  endfacet
  facet normal -0 0 -1
    outer loop
      vertex 54.36 79.75 0
      vertex 41 66.01 0
      vertex 44.36 79.75 0
    endloop
  endfacet
  facet normal 0 0 -1
    outer loop
      vertex 18.64 79.75 0
      vertex 44.36 79.75 0
      vertex 41 66.01 0
    endloop
  endfacet
  facet normal 0 0 -1
    outer loop
      vertex 18.64 79.75 0
      vertex 41 66.01 0
      vertex 22 66.01 0
    endloop
  endfacet
  facet normal 0 0 -1
    outer loop
      vertex 8.46 26.76 0
      vertex 22 47.01 0
      vertex 20.46 26.76 0
    endloop
  endfacet
  facet normal 0 0 -1
    outer loop
      vertex 8.64 79.75 0
      vertex 22 66.01 0
      vertex 22 47.01 0
    endloop
  endfacet
  facet normal 0 0 -1
    outer loop
      vertex 44.36 79.75 0
      vertex 18.64 79.75 0
      vertex 44.36 105 0
    endloop
  endfacet
  facet normal -0 0 -1
    outer loop
      vertex 44.36 105 0
      vertex 18.64 79.75 0
      vertex 18.64 105 0
    endloop
  endfacet
  facet normal 0 0 -1
    outer loop
      vertex 54.54 26.76 0
      vertex 63 0 0
      vertex 54.54 0 0
    endloop
  endfacet
  facet normal 0 0 -1
    outer loop
      vertex 63 0 0
      vertex 54.54 26.76 0
      vertex 63 105 0
    endloop
  endfacet
  facet normal 0 0 -1
    outer loop
      vertex 54.36 79.75 0
      vertex 63 105 0
      vertex 54.54 26.76 0
    endloop
  endfacet
  facet normal -0 0 -1
    outer loop
      vertex 63 105 0
      vertex 54.36 79.75 0
      vertex 54.36 105 0
    endloop
  endfacet
  facet normal 0 -1 0
    outer loop
      vertex 0 0 0
      vertex 8.46 0 15
      vertex 0 0 15
    endloop
  endfacet
  facet normal 0 -1 -0
    outer loop
      vertex 8.46 0 15
      vertex 0 0 0
      vertex 8.46 0 0
    endloop
  endfacet
  facet normal 0 -1 0
    outer loop
      vertex 54.54 0 0
      vertex 63 0 15
      vertex 54.54 0 15
    endloop
  endfacet
  facet normal 0 -1 -0
    outer loop
      vertex 63 0 15
      vertex 54.54 0 0
      vertex 63 0 0
    endloop
  endfacet
  facet normal 0 -1 0
    outer loop
      vertex 20.46 0 0
      vertex 42.54 0 15
      vertex 20.46 0 15
    endloop
  endfacet
  facet normal 0 -1 -0
    outer loop
      vertex 42.54 0 15
      vertex 20.46 0 0
      vertex 42.54 0 0
    endloop
  endfacet
  facet normal 1 -0 0
    outer loop
      vertex 2 2 15
      vertex 2 32.76 4.5
      vertex 2 32.76 15
    endloop
  endfacet
  facet normal 1 0 0
    outer loop
      vertex 2 32.76 4.5
      vertex 2 2 15
      vertex 2 2 4.5
    endloop
  endfacet
  facet normal -1 0 0
    outer loop
      vertex 26.92 2 4.5
      vertex 26.92 32.76 15
      vertex 26.92 32.76 4.5
    endloop
  endfacet
  facet normal -1 -0 0
    outer loop
      vertex 26.92 32.76 15
      vertex 26.92 2 4.5
      vertex 26.92 2 15
    endloop
  endfacet
  facet normal 0 0 1
    outer loop
      vertex 26.92 32.76 4.5
      vertex 20.46 26.76 4.5
      vertex 26.92 2 4.5
    endloop
  endfacet
  facet normal 0 0 1
    outer loop
      vertex 26.92 32.76 4.5
      vertex 8.46 26.76 4.5
      vertex 20.46 26.76 4.5
    endloop
  endfacet
  facet normal -0 0 1
    outer loop
      vertex 2 32.76 4.5
      vertex 8.46 26.76 4.5
      vertex 26.92 32.76 4.5
    endloop
  endfacet
  facet normal 0 0 1
    outer loop
      vertex 2 2 4.5
      vertex 8.46 26.76 4.5
      vertex 2 32.76 4.5
    endloop
  endfacet
  facet normal 0 0 1
    outer loop
      vertex 8.46 26.76 4.5
      vertex 2 2 4.5
      vertex 8.46 2 4.5
    endloop
  endfacet
  facet normal 0 0 1
    outer loop
      vertex 26.92 2 4.5
      vertex 20.46 26.76 4.5
      vertex 20.46 2 4.5
    endloop
  endfacet
  facet normal 0 1 -0
    outer loop
      vertex 8.46 2 4.5
      vertex 2 2 15
      vertex 8.46 2 15
    endloop
  endfacet
  facet normal 0 1 0
    outer loop
      vertex 2 2 15
      vertex 8.46 2 4.5
      vertex 2 2 4.5
    endloop
  endfacet
  facet normal 0 1 -0
    outer loop
      vertex 26.92 2 4.5
      vertex 20.46 2 15
      vertex 26.92 2 15
    endloop
  endfacet
  facet normal 0 1 0
    outer loop
      vertex 20.46 2 15
      vertex 26.92 2 4.5
      vertex 20.46 2 4.5
    endloop
  endfacet
  facet normal 0 -1 0
    outer loop
      vertex 2 32.76 4.5
      vertex 26.92 32.76 15
      vertex 2 32.76 15
    endloop
  endfacet
  facet normal 0 -1 -0
    outer loop
      vertex 26.92 32.76 15
      vertex 2 32.76 4.5
      vertex 26.92 32.76 4.5
    endloop
  endfacet
  facet normal 1 0 0
    outer loop
      vertex 8.46 2 15
      vertex 8.46 0 15
      vertex 8.46 2 4.5
    endloop
  endfacet
  facet normal 1 -0 0
    outer loop
      vertex 8.46 2 4.5
      vertex 8.46 26.76 0
      vertex 8.46 26.76 4.5
    endloop
  endfacet
  facet normal 1 0 0
    outer loop
      vertex 8.46 2 4.5
      vertex 8.46 0 0
      vertex 8.46 26.76 0
    endloop
  endfacet
  facet normal 1 0 0
    outer loop
      vertex 8.46 0 0
      vertex 8.46 2 4.5
      vertex 8.46 0 15
    endloop
  endfacet
  facet normal -1 0 0
    outer loop
      vertex 20.46 26.76 0
      vertex 20.46 2 4.5
      vertex 20.46 26.76 4.5
    endloop
  endfacet
  facet normal -1 0 0
    outer loop
      vertex 20.46 0 0
      vertex 20.46 2 4.5
      vertex 20.46 26.76 0
    endloop
  endfacet
  facet normal -1 0 0
    outer loop
      vertex 20.46 0 15
      vertex 20.46 2 4.5
      vertex 20.46 0 0
    endloop
  endfacet
  facet normal -1 0 0
    outer loop
      vertex 20.46 2 4.5
      vertex 20.46 0 15
      vertex 20.46 2 15
    endloop
  endfacet
  facet normal 0 -1 0
    outer loop
      vertex 8.46 26.76 0
      vertex 20.46 26.76 4.5
      vertex 8.46 26.76 4.5
    endloop
  endfacet
  facet normal 0 -1 -0
    outer loop
      vertex 20.46 26.76 4.5
      vertex 8.46 26.76 0
      vertex 20.46 26.76 0
    endloop
  endfacet
  facet normal 1 -0 0
    outer loop
      vertex 36.08 2 15
      vertex 36.08 32.76 4.5
      vertex 36.08 32.76 15
    endloop
  endfacet
  facet normal 1 0 0
    outer loop
      vertex 36.08 32.76 4.5
      vertex 36.08 2 15
      vertex 36.08 2 4.5
    endloop
  endfacet
  facet normal -1 0 0
    outer loop
      vertex 61 2 4.5
      vertex 61 32.76 15
      vertex 61 32.76 4.5
    endloop
  endfacet
  facet normal -1 -0 0
    outer loop
      vertex 61 32.76 15
      vertex 61 2 4.5
      vertex 61 2 15
    endloop
  endfacet
  facet normal 0 -1 0
    outer loop
      vertex 36.08 32.76 4.5
      vertex 61 32.76 15
      vertex 36.08 32.76 15
    endloop
  endfacet
  facet normal 0 -1 -0
    outer loop
      vertex 61 32.76 15
      vertex 36.08 32.76 4.5
      vertex 61 32.76 4.5
    endloop
  endfacet
  facet normal 0 0 1
    outer loop
      vertex 61 32.76 4.5
      vertex 54.54 26.76 4.5
      vertex 61 2 4.5
    endloop
  endfacet
  facet normal 0 0 1
    outer loop
      vertex 61 32.76 4.5
      vertex 42.54 26.76 4.5
      vertex 54.54 26.76 4.5
    endloop
  endfacet
  facet normal -0 0 1
    outer loop
      vertex 36.08 32.76 4.5
      vertex 42.54 26.76 4.5
      vertex 61 32.76 4.5
    endloop
  endfacet
  facet normal 0 0 1
    outer loop
      vertex 36.08 2 4.5
      vertex 42.54 26.76 4.5
      vertex 36.08 32.76 4.5
    endloop
  endfacet
  facet normal 0 0 1
    outer loop
      vertex 42.54 26.76 4.5
      vertex 36.08 2 4.5
      vertex 42.54 2 4.5
    endloop
  endfacet
  facet normal 0 0 1
    outer loop
      vertex 61 2 4.5
      vertex 54.54 26.76 4.5
      vertex 54.54 2 4.5
    endloop
  endfacet
  facet normal 0 1 -0
    outer loop
      vertex 42.54 2 4.5
      vertex 36.08 2 15
      vertex 42.54 2 15
    endloop
  endfacet
  facet normal 0 1 0
    outer loop
      vertex 36.08 2 15
      vertex 42.54 2 4.5
      vertex 36.08 2 4.5
    endloop
  endfacet
  facet normal 0 1 -0
    outer loop
      vertex 61 2 4.5
      vertex 54.54 2 15
      vertex 61 2 15
    endloop
  endfacet
  facet normal 0 1 0
    outer loop
      vertex 54.54 2 15
      vertex 61 2 4.5
      vertex 54.54 2 4.5
    endloop
  endfacet
  facet normal 1 0 0
    outer loop
      vertex 42.54 2 15
      vertex 42.54 0 15
      vertex 42.54 2 4.5
    endloop
  endfacet
  facet normal 1 -0 0
    outer loop
      vertex 42.54 2 4.5
      vertex 42.54 26.76 0
      vertex 42.54 26.76 4.5
    endloop
  endfacet
  facet normal 1 0 0
    outer loop
      vertex 42.54 2 4.5
      vertex 42.54 0 0
      vertex 42.54 26.76 0
    endloop
  endfacet
  facet normal 1 0 0
    outer loop
      vertex 42.54 0 0
      vertex 42.54 2 4.5
      vertex 42.54 0 15
    endloop
  endfacet
  facet normal -1 0 0
    outer loop
      vertex 54.54 26.76 0
      vertex 54.54 2 4.5
      vertex 54.54 26.76 4.5
    endloop
  endfacet
  facet normal -1 0 0
    outer loop
      vertex 54.54 0 0
      vertex 54.54 2 4.5
      vertex 54.54 26.76 0
    endloop
  endfacet
  facet normal -1 0 0
    outer loop
      vertex 54.54 0 15
      vertex 54.54 2 4.5
      vertex 54.54 0 0
    endloop
  endfacet
  facet normal -1 0 0
    outer loop
      vertex 54.54 2 4.5
      vertex 54.54 0 15
      vertex 54.54 2 15
    endloop
  endfacet
  facet normal 0 -1 0
    outer loop
      vertex 42.54 26.76 0
      vertex 54.54 26.76 4.5
      vertex 42.54 26.76 4.5
    endloop
  endfacet
  facet normal 0 -1 -0
    outer loop
      vertex 54.54 26.76 4.5
      vertex 42.54 26.76 0
      vertex 54.54 26.76 0
    endloop
  endfacet
  facet normal 1 -0 0
    outer loop
      vertex 2 73.75 15
      vertex 2 103 4.5
      vertex 2 103 15
    endloop
  endfacet
  facet normal 1 0 0
    outer loop
      vertex 2 103 4.5
      vertex 2 73.75 15
      vertex 2 73.75 4.5
    endloop
  endfacet
  facet normal -1 0 0
    outer loop
      vertex 25.28 73.75 4.5
      vertex 25.28 103 15
      vertex 25.28 103 4.5
    endloop
  endfacet
  facet normal -1 -0 0
    outer loop
      vertex 25.28 103 15
      vertex 25.28 73.75 4.5
      vertex 25.28 73.75 15
    endloop
  endfacet
  facet normal 0 -1 0
    outer loop
      vertex 18.64 103 4.5
      vertex 25.28 103 15
      vertex 18.64 103 15
    endloop
  endfacet
  facet normal 0 -1 -0
    outer loop
      vertex 25.28 103 15
      vertex 18.64 103 4.5
      vertex 25.28 103 4.5
    endloop
  endfacet
  facet normal 0 -1 0
    outer loop
      vertex 2 103 4.5
      vertex 8.64 103 15
      vertex 2 103 15
    endloop
  endfacet
  facet normal 0 -1 -0
    outer loop
      vertex 8.64 103 15
      vertex 2 103 4.5
      vertex 8.64 103 4.5
    endloop
  endfacet
  facet normal 0 0 1
    outer loop
      vertex 8.64 103 4.5
      vertex 2 103 4.5
      vertex 8.64 79.75 4.5
    endloop
  endfacet
  facet normal 0 0 1
    outer loop
      vertex 18.64 79.75 4.5
      vertex 25.28 103 4.5
      vertex 18.64 103 4.5
    endloop
  endfacet
  facet normal 0 0 1
    outer loop
      vertex 25.28 103 4.5
      vertex 18.64 79.75 4.5
      vertex 25.28 73.75 4.5
    endloop
  endfacet
  facet normal -0 0 1
    outer loop
      vertex 8.64 79.75 4.5
      vertex 25.28 73.75 4.5
      vertex 18.64 79.75 4.5
    endloop
  endfacet
  facet normal 0 0 1
    outer loop
      vertex 8.64 79.75 4.5
      vertex 2 73.75 4.5
      vertex 25.28 73.75 4.5
    endloop
  endfacet
  facet normal 0 0 1
    outer loop
      vertex 2 73.75 4.5
      vertex 8.64 79.75 4.5
      vertex 2 103 4.5
    endloop
  endfacet
  facet normal 0 1 -0
    outer loop
      vertex 25.28 73.75 4.5
      vertex 2 73.75 15
      vertex 25.28 73.75 15
    endloop
  endfacet
  facet normal 0 1 0
    outer loop
      vertex 2 73.75 15
      vertex 25.28 73.75 4.5
      vertex 2 73.75 4.5
    endloop
  endfacet
  facet normal 1 0 0
    outer loop
      vertex 8.64 103 4.5
      vertex 8.64 105 15
      vertex 8.64 103 15
    endloop
  endfacet
  facet normal 1 0 0
    outer loop
      vertex 8.64 105 15
      vertex 8.64 103 4.5
      vertex 8.64 105 0
    endloop
  endfacet
  facet normal 1 0 0
    outer loop
      vertex 8.64 79.75 0
      vertex 8.64 103 4.5
      vertex 8.64 79.75 4.5
    endloop
  endfacet
  facet normal 1 0 0
    outer loop
      vertex 8.64 103 4.5
      vertex 8.64 79.75 0
      vertex 8.64 105 0
    endloop
  endfacet
  facet normal -1 0 0
    outer loop
      vertex 18.64 105 0
      vertex 18.64 103 4.5
      vertex 18.64 105 15
    endloop
  endfacet
  facet normal -1 0 0
    outer loop
      vertex 18.64 79.75 0
      vertex 18.64 103 4.5
      vertex 18.64 105 0
    endloop
  endfacet
  facet normal -1 -0 0
    outer loop
      vertex 18.64 103 4.5
      vertex 18.64 79.75 0
      vertex 18.64 79.75 4.5
    endloop
  endfacet
  facet normal -1 -0 0
    outer loop
      vertex 18.64 105 15
      vertex 18.64 103 4.5
      vertex 18.64 103 15
    endloop
  endfacet
  facet normal 0 1 -0
    outer loop
      vertex 18.64 79.75 0
      vertex 8.64 79.75 4.5
      vertex 18.64 79.75 4.5
    endloop
  endfacet
  facet normal 0 1 0
    outer loop
      vertex 8.64 79.75 4.5
      vertex 18.64 79.75 0
      vertex 8.64 79.75 0
    endloop
  endfacet
  facet normal 1 -0 0
    outer loop
      vertex 37.72 73.75 15
      vertex 37.72 103 4.5
      vertex 37.72 103 15
    endloop
  endfacet
  facet normal 1 0 0
    outer loop
      vertex 37.72 103 4.5
      vertex 37.72 73.75 15
      vertex 37.72 73.75 4.5
    endloop
  endfacet
  facet normal -1 0 0
    outer loop
      vertex 61 73.75 4.5
      vertex 61 103 15
      vertex 61 103 4.5
    endloop
  endfacet
  facet normal -1 -0 0
    outer loop
      vertex 61 103 15
      vertex 61 73.75 4.5
      vertex 61 73.75 15
    endloop
  endfacet
  facet normal 0 0 1
    outer loop
      vertex 44.36 103 4.5
      vertex 37.72 103 4.5
      vertex 44.36 79.75 4.5
    endloop
  endfacet
  facet normal 0 0 1
    outer loop
      vertex 54.36 79.75 4.5
      vertex 61 103 4.5
      vertex 54.36 103 4.5
    endloop
  endfacet
  facet normal 0 0 1
    outer loop
      vertex 61 103 4.5
      vertex 54.36 79.75 4.5
      vertex 61 73.75 4.5
    endloop
  endfacet
  facet normal -0 0 1
    outer loop
      vertex 44.36 79.75 4.5
      vertex 61 73.75 4.5
      vertex 54.36 79.75 4.5
    endloop
  endfacet
  facet normal 0 0 1
    outer loop
      vertex 44.36 79.75 4.5
      vertex 37.72 73.75 4.5
      vertex 61 73.75 4.5
    endloop
  endfacet
  facet normal 0 0 1
    outer loop
      vertex 37.72 73.75 4.5
      vertex 44.36 79.75 4.5
      vertex 37.72 103 4.5
    endloop
  endfacet
  facet normal 0 1 -0
    outer loop
      vertex 61 73.75 4.5
      vertex 37.72 73.75 15
      vertex 61 73.75 15
    endloop
  endfacet
  facet normal 0 1 0
    outer loop
      vertex 37.72 73.75 15
      vertex 61 73.75 4.5
      vertex 37.72 73.75 4.5
    endloop
  endfacet
  facet normal 0 -1 0
    outer loop
      vertex 54.36 103 4.5
      vertex 61 103 15
      vertex 54.36 103 15
    endloop
  endfacet
  facet normal 0 -1 -0
    outer loop
      vertex 61 103 15
      vertex 54.36 103 4.5
      vertex 61 103 4.5
    endloop
  endfacet
  facet normal 0 -1 0
    outer loop
      vertex 37.72 103 4.5
      vertex 44.36 103 15
      vertex 37.72 103 15
    endloop
  endfacet
  facet normal 0 -1 -0
    outer loop
      vertex 44.36 103 15
      vertex 37.72 103 4.5
      vertex 44.36 103 4.5
    endloop
  endfacet
  facet normal 1 0 0
    outer loop
      vertex 44.36 103 4.5
      vertex 44.36 105 15
      vertex 44.36 103 15
    endloop
  endfacet
  facet normal 1 0 0
    outer loop
      vertex 44.36 105 15
      vertex 44.36 103 4.5
      vertex 44.36 105 0
    endloop
  endfacet
  facet normal 1 0 0
    outer loop
      vertex 44.36 79.75 0
      vertex 44.36 103 4.5
      vertex 44.36 79.75 4.5
    endloop
  endfacet
  facet normal 1 0 0
    outer loop
      vertex 44.36 103 4.5
      vertex 44.36 79.75 0
      vertex 44.36 105 0
    endloop
  endfacet
  facet normal -1 0 0
    outer loop
      vertex 54.36 105 0
      vertex 54.36 103 4.5
      vertex 54.36 105 15
    endloop
  endfacet
  facet normal -1 0 0
    outer loop
      vertex 54.36 79.75 0
      vertex 54.36 103 4.5
      vertex 54.36 105 0
    endloop
  endfacet
  facet normal -1 -0 0
    outer loop
      vertex 54.36 103 4.5
      vertex 54.36 79.75 0
      vertex 54.36 79.75 4.5
    endloop
  endfacet
  facet normal -1 -0 0
    outer loop
      vertex 54.36 105 15
      vertex 54.36 103 4.5
      vertex 54.36 103 15
    endloop
  endfacet
  facet normal 0 1 -0
    outer loop
      vertex 54.36 79.75 0
      vertex 44.36 79.75 4.5
      vertex 54.36 79.75 4.5
    endloop
  endfacet
  facet normal 0 1 0
    outer loop
      vertex 44.36 79.75 4.5
      vertex 54.36 79.75 0
      vertex 44.36 79.75 0
    endloop
  endfacet
  facet normal 1 -0 0
    outer loop
      vertex 22 47.01 15
      vertex 22 66.01 0
      vertex 22 66.01 15
    endloop
  endfacet
  facet normal 1 0 0
    outer loop
      vertex 22 66.01 0
      vertex 22 47.01 15
      vertex 22 47.01 0
    endloop
  endfacet
  facet normal -1 0 0
    outer loop
      vertex 41 47.01 0
      vertex 41 66.01 15
      vertex 41 66.01 0
    endloop
  endfacet
  facet normal -1 -0 0
    outer loop
      vertex 41 66.01 15
      vertex 41 47.01 0
      vertex 41 47.01 15
    endloop
  endfacet
  facet normal 0 1 -0
    outer loop
      vertex 41 47.01 0
      vertex 22 47.01 15
      vertex 41 47.01 15
    endloop
  endfacet
  facet normal 0 1 0
    outer loop
      vertex 22 47.01 15
      vertex 41 47.01 0
      vertex 22 47.01 0
    endloop
  endfacet
  facet normal 0 -1 0
    outer loop
      vertex 22 66.01 0
      vertex 41 66.01 15
      vertex 22 66.01 15
    endloop
  endfacet
  facet normal 0 -1 -0
    outer loop
      vertex 41 66.01 15
      vertex 22 66.01 0
      vertex 41 66.01 0
    endloop
  endfacet
endsolid OpenSCAD_Model
