solid OpenSCAD_Model
  facet normal -1 0 0
    outer loop
      vertex 0 0 0
      vertex 0 110 5
      vertex 0 110 0
    endloop
  endfacet
  facet normal -1 -0 0
    outer loop
      vertex 0 110 5
      vertex 0 0 0
      vertex 0 0 5
    endloop
  endfacet
  facet normal 0 0 1
    outer loop
      vertex 10.065 110 5
      vertex 2 108 5
      vertex 10.065 108 5
    endloop
  endfacet
  facet normal 0 0 1
    outer loop
      vertex 0 110 5
      vertex 2 63.96 5
      vertex 2 108 5
    endloop
  endfacet
  facet normal 0 0 1
    outer loop
      vertex 2 63.96 5
      vertex 0 110 5
      vertex 2 62.83 5
    endloop
  endfacet
  facet normal 0 0 1
    outer loop
      vertex 0 0 5
      vertex 2 62.83 5
      vertex 0 110 5
    endloop
  endfacet
  facet normal -0 0 1
    outer loop
      vertex 0 110 5
      vertex 2 108 5
      vertex 10.065 110 5
    endloop
  endfacet
  facet normal 0 0 1
    outer loop
      vertex 80.75 110 5
      vertex 68.5 108 5
      vertex 80.75 108 5
    endloop
  endfacet
  facet normal 0 0 1
    outer loop
      vertex 64.5 89 5
      vertex 68.5 108 5
      vertex 64.5 108 5
    endloop
  endfacet
  facet normal 0 0 1
    outer loop
      vertex 80.75 110 5
      vertex 64.5 108 5
      vertex 68.5 108 5
    endloop
  endfacet
  facet normal 0 0 1
    outer loop
      vertex 80.75 110 5
      vertex 45.5 108 5
      vertex 64.5 108 5
    endloop
  endfacet
  facet normal -0 0 1
    outer loop
      vertex 33.13 108 5
      vertex 45.5 89 5
      vertex 45.5 108 5
    endloop
  endfacet
  facet normal 0 0 1
    outer loop
      vertex 45.5 89 5
      vertex 33.13 108 5
      vertex 33.13 63.96 5
    endloop
  endfacet
  facet normal -0 0 1
    outer loop
      vertex 25.065 110 5
      vertex 45.5 108 5
      vertex 80.75 110 5
    endloop
  endfacet
  facet normal 0 0 1
    outer loop
      vertex 45.5 108 5
      vertex 25.065 110 5
      vertex 33.13 108 5
    endloop
  endfacet
  facet normal 0 0 1
    outer loop
      vertex 33.13 108 5
      vertex 25.065 110 5
      vertex 25.065 108 5
    endloop
  endfacet
  facet normal 0 0 1
    outer loop
      vertex 108 53.76 5
      vertex 77.92 47.03 5
      vertex 108 47.03 5
    endloop
  endfacet
  facet normal 0 0 1
    outer loop
      vertex 45.17 2 5
      vertex 77.92 47.03 5
      vertex 68.5 53.76 5
    endloop
  endfacet
  facet normal -0 0 1
    outer loop
      vertex 68.5 53.76 5
      vertex 77.92 47.03 5
      vertex 108 53.76 5
    endloop
  endfacet
  facet normal 0 0 1
    outer loop
      vertex 108 53.76 5
      vertex 110 110 5
      vertex 108 108 5
    endloop
  endfacet
  facet normal -0 0 1
    outer loop
      vertex 95.75 110 5
      vertex 108 108 5
      vertex 110 110 5
    endloop
  endfacet
  facet normal 0 0 1
    outer loop
      vertex 108 108 5
      vertex 95.75 110 5
      vertex 95.75 108 5
    endloop
  endfacet
  facet normal 0 0 1
    outer loop
      vertex 110 110 5
      vertex 108 53.76 5
      vertex 110 0 5
    endloop
  endfacet
  facet normal -0 0 1
    outer loop
      vertex 108 47.03 5
      vertex 110 0 5
      vertex 108 53.76 5
    endloop
  endfacet
  facet normal -0 0 1
    outer loop
      vertex 108 2 5
      vertex 110 0 5
      vertex 108 47.03 5
    endloop
  endfacet
  facet normal 0 0 1
    outer loop
      vertex 100.46 0 5
      vertex 108 2 5
      vertex 100.46 2 5
    endloop
  endfacet
  facet normal 0 0 1
    outer loop
      vertex 108 2 5
      vertex 100.46 0 5
      vertex 110 0 5
    endloop
  endfacet
  facet normal -0 0 1
    outer loop
      vertex 77.92 2 5
      vertex 85.46 0 5
      vertex 85.46 2 5
    endloop
  endfacet
  facet normal 0 0 1
    outer loop
      vertex 68.5 108 5
      vertex 64.5 89 5
      vertex 68.5 53.76 5
    endloop
  endfacet
  facet normal 0 0 1
    outer loop
      vertex 45.17 62.83 5
      vertex 64.5 89 5
      vertex 45.5 89 5
    endloop
  endfacet
  facet normal 0 0 1
    outer loop
      vertex 64.5 89 5
      vertex 45.17 62.83 5
      vertex 68.5 53.76 5
    endloop
  endfacet
  facet normal 0 0 1
    outer loop
      vertex 45.17 2 5
      vertex 68.5 53.76 5
      vertex 45.17 62.83 5
    endloop
  endfacet
  facet normal 0 0 1
    outer loop
      vertex 77.92 47.03 5
      vertex 45.17 2 5
      vertex 77.92 2 5
    endloop
  endfacet
  facet normal -0 0 1
    outer loop
      vertex 45.17 2 5
      vertex 85.46 0 5
      vertex 77.92 2 5
    endloop
  endfacet
  facet normal 0 0 1
    outer loop
      vertex 31.085 0 5
      vertex 45.17 2 5
      vertex 31.085 2 5
    endloop
  endfacet
  facet normal 0 0 1
    outer loop
      vertex 45.17 2 5
      vertex 31.085 0 5
      vertex 85.46 0 5
    endloop
  endfacet
  facet normal 0 0 1
    outer loop
      vertex 45.5 89 5
      vertex 33.13 63.96 5
      vertex 45.17 62.83 5
    endloop
  endfacet
  facet normal 0 0 1
    outer loop
      vertex 2 62.83 5
      vertex 33.13 63.96 5
      vertex 2 63.96 5
    endloop
  endfacet
  facet normal 0 0 1
    outer loop
      vertex 33.13 63.96 5
      vertex 2 62.83 5
      vertex 45.17 62.83 5
    endloop
  endfacet
  facet normal -0 0 1
    outer loop
      vertex 2 2 5
      vertex 16.085 0 5
      vertex 16.085 2 5
    endloop
  endfacet
  facet normal 0 0 1
    outer loop
      vertex 2 2 5
      vertex 0 0 5
      vertex 16.085 0 5
    endloop
  endfacet
  facet normal 0 0 1
    outer loop
      vertex 2 62.83 5
      vertex 0 0 5
      vertex 2 2 5
    endloop
  endfacet
  facet normal 1 -0 0
    outer loop
      vertex 110 0 5
      vertex 110 110 0
      vertex 110 110 5
    endloop
  endfacet
  facet normal 1 0 0
    outer loop
      vertex 110 110 0
      vertex 110 0 5
      vertex 110 0 0
    endloop
  endfacet
  facet normal 0 1 -0
    outer loop
      vertex 110 110 0
      vertex 95.75 110 5
      vertex 110 110 5
    endloop
  endfacet
  facet normal 0 1 0
    outer loop
      vertex 95.75 110 5
      vertex 110 110 0
      vertex 95.75 110 0
    endloop
  endfacet
  facet normal 0 1 -0
    outer loop
      vertex 10.065 110 0
      vertex 0 110 5
      vertex 10.065 110 5
    endloop
  endfacet
  facet normal 0 1 0
    outer loop
      vertex 0 110 5
      vertex 10.065 110 0
      vertex 0 110 0
    endloop
  endfacet
  facet normal 0 1 -0
    outer loop
      vertex 80.75 110 0
      vertex 25.065 110 5
      vertex 80.75 110 5
    endloop
  endfacet
  facet normal 0 1 0
    outer loop
      vertex 25.065 110 5
      vertex 80.75 110 0
      vertex 25.065 110 0
    endloop
  endfacet
  facet normal 0 0 -1
    outer loop
      vertex 0 0 0
      vertex 16.085 56.83 0
      vertex 16.085 0 0
    endloop
  endfacet
  facet normal -0 0 -1
    outer loop
      vertex 16.085 56.83 0
      vertex 0 0 0
      vertex 10.065 69.96 0
    endloop
  endfacet
  facet normal 0 0 -1
    outer loop
      vertex 0 110 0
      vertex 10.065 69.96 0
      vertex 0 0 0
    endloop
  endfacet
  facet normal 0 0 -1
    outer loop
      vertex 10.065 69.96 0
      vertex 0 110 0
      vertex 10.065 110 0
    endloop
  endfacet
  facet normal 0 0 -1
    outer loop
      vertex 16.085 56.83 0
      vertex 25.065 69.96 0
      vertex 31.085 56.83 0
    endloop
  endfacet
  facet normal -0 0 -1
    outer loop
      vertex 25.065 69.96 0
      vertex 16.085 56.83 0
      vertex 10.065 69.96 0
    endloop
  endfacet
  facet normal 0 0 -1
    outer loop
      vertex 31.085 0 0
      vertex 85.46 41.03 0
      vertex 85.46 0 0
    endloop
  endfacet
  facet normal 0 0 -1
    outer loop
      vertex 80.75 59.76 0
      vertex 64.5 89 0
      vertex 80.75 110 0
    endloop
  endfacet
  facet normal 0 0 -1
    outer loop
      vertex 31.085 56.83 0
      vertex 85.46 41.03 0
      vertex 31.085 0 0
    endloop
  endfacet
  facet normal -0 0 -1
    outer loop
      vertex 80.75 59.76 0
      vertex 31.085 56.83 0
      vertex 64.5 89 0
    endloop
  endfacet
  facet normal -0 0 -1
    outer loop
      vertex 64.5 89 0
      vertex 31.085 56.83 0
      vertex 45.5 89 0
    endloop
  endfacet
  facet normal 0 0 -1
    outer loop
      vertex 85.46 41.03 0
      vertex 31.085 56.83 0
      vertex 80.75 59.76 0
    endloop
  endfacet
  facet normal 0 0 -1
    outer loop
      vertex 85.46 41.03 0
      vertex 95.75 59.76 0
      vertex 100.46 41.03 0
    endloop
  endfacet
  facet normal -0 0 -1
    outer loop
      vertex 95.75 59.76 0
      vertex 85.46 41.03 0
      vertex 80.75 59.76 0
    endloop
  endfacet
  facet normal 0 0 -1
    outer loop
      vertex 100.46 41.03 0
      vertex 110 0 0
      vertex 100.46 0 0
    endloop
  endfacet
  facet normal 0 0 -1
    outer loop
      vertex 110 0 0
      vertex 100.46 41.03 0
      vertex 110 110 0
    endloop
  endfacet
  facet normal 0 0 -1
    outer loop
      vertex 95.75 59.76 0
      vertex 110 110 0
      vertex 100.46 41.03 0
    endloop
  endfacet
  facet normal -0 0 -1
    outer loop
      vertex 110 110 0
      vertex 95.75 59.76 0
      vertex 95.75 110 0
    endloop
  endfacet
  facet normal 0 0 -1
    outer loop
      vertex 64.5 108 0
      vertex 80.75 110 0
      vertex 64.5 89 0
    endloop
  endfacet
  facet normal 0 0 -1
    outer loop
      vertex 45.5 108 0
      vertex 80.75 110 0
      vertex 64.5 108 0
    endloop
  endfacet
  facet normal 0 0 -1
    outer loop
      vertex 25.065 69.96 0
      vertex 45.5 89 0
      vertex 31.085 56.83 0
    endloop
  endfacet
  facet normal 0 0 -1
    outer loop
      vertex 25.065 110 0
      vertex 45.5 89 0
      vertex 25.065 69.96 0
    endloop
  endfacet
  facet normal 0 0 -1
    outer loop
      vertex 45.5 108 0
      vertex 25.065 110 0
      vertex 80.75 110 0
    endloop
  endfacet
  facet normal 0 0 -1
    outer loop
      vertex 45.5 89 0
      vertex 25.065 110 0
      vertex 45.5 108 0
    endloop
  endfacet
  facet normal 0 -1 0
    outer loop
      vertex 0 0 0
      vertex 16.085 0 5
      vertex 0 0 5
    endloop
  endfacet
  facet normal 0 -1 -0
    outer loop
      vertex 16.085 0 5
      vertex 0 0 0
      vertex 16.085 0 0
    endloop
  endfacet
  facet normal 0 -1 0
    outer loop
      vertex 100.46 0 0
      vertex 110 0 5
      vertex 100.46 0 5
    endloop
  endfacet
  facet normal 0 -1 -0
    outer loop
      vertex 110 0 5
      vertex 100.46 0 0
      vertex 110 0 0
    endloop
  endfacet
  facet normal 0 -1 0
    outer loop
      vertex 31.085 0 0
      vertex 85.46 0 5
      vertex 31.085 0 5
    endloop
  endfacet
  facet normal 0 -1 -0
    outer loop
      vertex 85.46 0 5
      vertex 31.085 0 0
      vertex 85.46 0 0
    endloop
  endfacet
  facet normal 1 -0 0
    outer loop
      vertex 2 2 5
      vertex 2 62.83 2.5
      vertex 2 62.83 5
    endloop
  endfacet
  facet normal 1 0 0
    outer loop
      vertex 2 62.83 2.5
      vertex 2 2 5
      vertex 2 2 2.5
    endloop
  endfacet
  facet normal -1 0 0
    outer loop
      vertex 45.17 2 2.5
      vertex 45.17 62.83 5
      vertex 45.17 62.83 2.5
    endloop
  endfacet
  facet normal -1 -0 0
    outer loop
      vertex 45.17 62.83 5
      vertex 45.17 2 2.5
      vertex 45.17 2 5
    endloop
  endfacet
  facet normal 0 -1 0
    outer loop
      vertex 2 62.83 2.5
      vertex 45.17 62.83 5
      vertex 2 62.83 5
    endloop
  endfacet
  facet normal 0 -1 -0
    outer loop
      vertex 45.17 62.83 5
      vertex 2 62.83 2.5
      vertex 45.17 62.83 2.5
    endloop
  endfacet
  facet normal 0 0 1
    outer loop
      vertex 45.17 62.83 2.5
      vertex 31.085 56.83 2.5
      vertex 45.17 2 2.5
    endloop
  endfacet
  facet normal 0 0 1
    outer loop
      vertex 45.17 62.83 2.5
      vertex 16.085 56.83 2.5
      vertex 31.085 56.83 2.5
    endloop
  endfacet
  facet normal -0 0 1
    outer loop
      vertex 2 62.83 2.5
      vertex 16.085 56.83 2.5
      vertex 45.17 62.83 2.5
    endloop
  endfacet
  facet normal 0 0 1
    outer loop
      vertex 2 2 2.5
      vertex 16.085 56.83 2.5
      vertex 2 62.83 2.5
    endloop
  endfacet
  facet normal 0 0 1
    outer loop
      vertex 16.085 56.83 2.5
      vertex 2 2 2.5
      vertex 16.085 2 2.5
    endloop
  endfacet
  facet normal 0 0 1
    outer loop
      vertex 45.17 2 2.5
      vertex 31.085 56.83 2.5
      vertex 31.085 2 2.5
    endloop
  endfacet
  facet normal 0 1 -0
    outer loop
      vertex 16.085 2 2.5
      vertex 2 2 5
      vertex 16.085 2 5
    endloop
  endfacet
  facet normal 0 1 0
    outer loop
      vertex 2 2 5
      vertex 16.085 2 2.5
      vertex 2 2 2.5
    endloop
  endfacet
  facet normal 0 1 -0
    outer loop
      vertex 45.17 2 2.5
      vertex 31.085 2 5
      vertex 45.17 2 5
    endloop
  endfacet
  facet normal 0 1 0
    outer loop
      vertex 31.085 2 5
      vertex 45.17 2 2.5
      vertex 31.085 2 2.5
    endloop
  endfacet
  facet normal 1 0 0
    outer loop
      vertex 16.085 2 5
      vertex 16.085 0 5
      vertex 16.085 2 2.5
    endloop
  endfacet
  facet normal 1 -0 0
    outer loop
      vertex 16.085 2 2.5
      vertex 16.085 56.83 0
      vertex 16.085 56.83 2.5
    endloop
  endfacet
  facet normal 1 0 0
    outer loop
      vertex 16.085 2 2.5
      vertex 16.085 0 0
      vertex 16.085 56.83 0
    endloop
  endfacet
  facet normal 1 0 0
    outer loop
      vertex 16.085 0 0
      vertex 16.085 2 2.5
      vertex 16.085 0 5
    endloop
  endfacet
  facet normal -1 0 0
    outer loop
      vertex 31.085 56.83 0
      vertex 31.085 2 2.5
      vertex 31.085 56.83 2.5
    endloop
  endfacet
  facet normal -1 0 0
    outer loop
      vertex 31.085 0 0
      vertex 31.085 2 2.5
      vertex 31.085 56.83 0
    endloop
  endfacet
  facet normal -1 0 0
    outer loop
      vertex 31.085 0 5
      vertex 31.085 2 2.5
      vertex 31.085 0 0
    endloop
  endfacet
  facet normal -1 0 0
    outer loop
      vertex 31.085 2 2.5
      vertex 31.085 0 5
      vertex 31.085 2 5
    endloop
  endfacet
  facet normal 0 -1 0
    outer loop
      vertex 16.085 56.83 0
      vertex 31.085 56.83 2.5
      vertex 16.085 56.83 2.5
    endloop
  endfacet
  facet normal 0 -1 -0
    outer loop
      vertex 31.085 56.83 2.5
      vertex 16.085 56.83 0
      vertex 31.085 56.83 0
    endloop
  endfacet
  facet normal 1 -0 0
    outer loop
      vertex 77.92 2 5
      vertex 77.92 47.03 2.5
      vertex 77.92 47.03 5
    endloop
  endfacet
  facet normal 1 0 0
    outer loop
      vertex 77.92 47.03 2.5
      vertex 77.92 2 5
      vertex 77.92 2 2.5
    endloop
  endfacet
  facet normal -1 0 0
    outer loop
      vertex 108 2 2.5
      vertex 108 47.03 5
      vertex 108 47.03 2.5
    endloop
  endfacet
  facet normal -1 -0 0
    outer loop
      vertex 108 47.03 5
      vertex 108 2 2.5
      vertex 108 2 5
    endloop
  endfacet
  facet normal 0 -1 0
    outer loop
      vertex 77.92 47.03 2.5
      vertex 108 47.03 5
      vertex 77.92 47.03 5
    endloop
  endfacet
  facet normal 0 -1 -0
    outer loop
      vertex 108 47.03 5
      vertex 77.92 47.03 2.5
      vertex 108 47.03 2.5
    endloop
  endfacet
  facet normal 0 0 1
    outer loop
      vertex 108 47.03 2.5
      vertex 100.46 41.03 2.5
      vertex 108 2 2.5
    endloop
  endfacet
  facet normal 0 0 1
    outer loop
      vertex 108 47.03 2.5
      vertex 85.46 41.03 2.5
      vertex 100.46 41.03 2.5
    endloop
  endfacet
  facet normal -0 0 1
    outer loop
      vertex 77.92 47.03 2.5
      vertex 85.46 41.03 2.5
      vertex 108 47.03 2.5
    endloop
  endfacet
  facet normal 0 0 1
    outer loop
      vertex 77.92 2 2.5
      vertex 85.46 41.03 2.5
      vertex 77.92 47.03 2.5
    endloop
  endfacet
  facet normal 0 0 1
    outer loop
      vertex 85.46 41.03 2.5
      vertex 77.92 2 2.5
      vertex 85.46 2 2.5
    endloop
  endfacet
  facet normal 0 0 1
    outer loop
      vertex 108 2 2.5
      vertex 100.46 41.03 2.5
      vertex 100.46 2 2.5
    endloop
  endfacet
  facet normal 0 1 -0
    outer loop
      vertex 85.46 2 2.5
      vertex 77.92 2 5
      vertex 85.46 2 5
    endloop
  endfacet
  facet normal 0 1 0
    outer loop
      vertex 77.92 2 5
      vertex 85.46 2 2.5
      vertex 77.92 2 2.5
    endloop
  endfacet
  facet normal 0 1 -0
    outer loop
      vertex 108 2 2.5
      vertex 100.46 2 5
      vertex 108 2 5
    endloop
  endfacet
  facet normal 0 1 0
    outer loop
      vertex 100.46 2 5
      vertex 108 2 2.5
      vertex 100.46 2 2.5
    endloop
  endfacet
  facet normal 1 0 0
    outer loop
      vertex 85.46 2 5
      vertex 85.46 0 5
      vertex 85.46 2 2.5
    endloop
  endfacet
  facet normal 1 -0 0
    outer loop
      vertex 85.46 2 2.5
      vertex 85.46 41.03 0
      vertex 85.46 41.03 2.5
    endloop
  endfacet
  facet normal 1 0 0
    outer loop
      vertex 85.46 2 2.5
      vertex 85.46 0 0
      vertex 85.46 41.03 0
    endloop
  endfacet
  facet normal 1 0 0
    outer loop
      vertex 85.46 0 0
      vertex 85.46 2 2.5
      vertex 85.46 0 5
    endloop
  endfacet
  facet normal -1 0 0
    outer loop
      vertex 100.46 41.03 0
      vertex 100.46 2 2.5
      vertex 100.46 41.03 2.5
    endloop
  endfacet
  facet normal -1 0 0
    outer loop
      vertex 100.46 0 0
      vertex 100.46 2 2.5
      vertex 100.46 41.03 0
    endloop
  endfacet
  facet normal -1 0 0
    outer loop
      vertex 100.46 0 5
      vertex 100.46 2 2.5
      vertex 100.46 0 0
    endloop
  endfacet
  facet normal -1 0 0
    outer loop
      vertex 100.46 2 2.5
      vertex 100.46 0 5
      vertex 100.46 2 5
    endloop
  endfacet
  facet normal 0 -1 0
    outer loop
      vertex 85.46 41.03 0
      vertex 100.46 41.03 2.5
      vertex 85.46 41.03 2.5
    endloop
  endfacet
  facet normal 0 -1 -0
    outer loop
      vertex 100.46 41.03 2.5
      vertex 85.46 41.03 0
      vertex 100.46 41.03 0
    endloop
  endfacet
  facet normal 1 -0 0
    outer loop
      vertex 2 63.96 5
      vertex 2 108 2.5
      vertex 2 108 5
    endloop
  endfacet
  facet normal 1 0 0
    outer loop
      vertex 2 108 2.5
      vertex 2 63.96 5
      vertex 2 63.96 2.5
    endloop
  endfacet
  facet normal -1 0 0
    outer loop
      vertex 33.13 63.96 2.5
      vertex 33.13 108 5
      vertex 33.13 108 2.5
    endloop
  endfacet
  facet normal -1 -0 0
    outer loop
      vertex 33.13 108 5
      vertex 33.13 63.96 2.5
      vertex 33.13 63.96 5
    endloop
  endfacet
  facet normal 0 -1 0
    outer loop
      vertex 25.065 108 2.5
      vertex 33.13 108 5
      vertex 25.065 108 5
    endloop
  endfacet
  facet normal 0 -1 -0
    outer loop
      vertex 33.13 108 5
      vertex 25.065 108 2.5
      vertex 33.13 108 2.5
    endloop
  endfacet
  facet normal 0 -1 0
    outer loop
      vertex 2 108 2.5
      vertex 10.065 108 5
      vertex 2 108 5
    endloop
  endfacet
  facet normal 0 -1 -0
    outer loop
      vertex 10.065 108 5
      vertex 2 108 2.5
      vertex 10.065 108 2.5
    endloop
  endfacet
  facet normal 0 0 1
    outer loop
      vertex 10.065 108 2.5
      vertex 2 108 2.5
      vertex 10.065 69.96 2.5
    endloop
  endfacet
  facet normal 0 0 1
    outer loop
      vertex 25.065 69.96 2.5
      vertex 33.13 108 2.5
      vertex 25.065 108 2.5
    endloop
  endfacet
  facet normal 0 0 1
    outer loop
      vertex 33.13 108 2.5
      vertex 25.065 69.96 2.5
      vertex 33.13 63.96 2.5
    endloop
  endfacet
  facet normal -0 0 1
    outer loop
      vertex 10.065 69.96 2.5
      vertex 33.13 63.96 2.5
      vertex 25.065 69.96 2.5
    endloop
  endfacet
  facet normal 0 0 1
    outer loop
      vertex 10.065 69.96 2.5
      vertex 2 63.96 2.5
      vertex 33.13 63.96 2.5
    endloop
  endfacet
  facet normal 0 0 1
    outer loop
      vertex 2 63.96 2.5
      vertex 10.065 69.96 2.5
      vertex 2 108 2.5
    endloop
  endfacet
  facet normal 0 1 -0
    outer loop
      vertex 33.13 63.96 2.5
      vertex 2 63.96 5
      vertex 33.13 63.96 5
    endloop
  endfacet
  facet normal 0 1 0
    outer loop
      vertex 2 63.96 5
      vertex 33.13 63.96 2.5
      vertex 2 63.96 2.5
    endloop
  endfacet
  facet normal 1 0 0
    outer loop
      vertex 10.065 108 2.5
      vertex 10.065 110 5
      vertex 10.065 108 5
    endloop
  endfacet
  facet normal 1 0 0
    outer loop
      vertex 10.065 110 5
      vertex 10.065 108 2.5
      vertex 10.065 110 0
    endloop
  endfacet
  facet normal 1 0 0
    outer loop
      vertex 10.065 69.96 0
      vertex 10.065 108 2.5
      vertex 10.065 69.96 2.5
    endloop
  endfacet
  facet normal 1 0 0
    outer loop
      vertex 10.065 108 2.5
      vertex 10.065 69.96 0
      vertex 10.065 110 0
    endloop
  endfacet
  facet normal -1 0 0
    outer loop
      vertex 25.065 110 0
      vertex 25.065 108 2.5
      vertex 25.065 110 5
    endloop
  endfacet
  facet normal -1 0 0
    outer loop
      vertex 25.065 69.96 0
      vertex 25.065 108 2.5
      vertex 25.065 110 0
    endloop
  endfacet
  facet normal -1 -0 0
    outer loop
      vertex 25.065 108 2.5
      vertex 25.065 69.96 0
      vertex 25.065 69.96 2.5
    endloop
  endfacet
  facet normal -1 -0 0
    outer loop
      vertex 25.065 110 5
      vertex 25.065 108 2.5
      vertex 25.065 108 5
    endloop
  endfacet
  facet normal 0 1 -0
    outer loop
      vertex 25.065 69.96 0
      vertex 10.065 69.96 2.5
      vertex 25.065 69.96 2.5
    endloop
  endfacet
  facet normal 0 1 0
    outer loop
      vertex 10.065 69.96 2.5
      vertex 25.065 69.96 0
      vertex 10.065 69.96 0
    endloop
  endfacet
  facet normal 1 -0 0
    outer loop
      vertex 68.5 53.76 5
      vertex 68.5 108 2.5
      vertex 68.5 108 5
    endloop
  endfacet
  facet normal 1 0 0
    outer loop
      vertex 68.5 108 2.5
      vertex 68.5 53.76 5
      vertex 68.5 53.76 2.5
    endloop
  endfacet
  facet normal -1 0 0
    outer loop
      vertex 108 53.76 2.5
      vertex 108 108 5
      vertex 108 108 2.5
    endloop
  endfacet
  facet normal -1 -0 0
    outer loop
      vertex 108 108 5
      vertex 108 53.76 2.5
      vertex 108 53.76 5
    endloop
  endfacet
  facet normal 0 -1 0
    outer loop
      vertex 95.75 108 2.5
      vertex 108 108 5
      vertex 95.75 108 5
    endloop
  endfacet
  facet normal 0 -1 -0
    outer loop
      vertex 108 108 5
      vertex 95.75 108 2.5
      vertex 108 108 2.5
    endloop
  endfacet
  facet normal 0 -1 0
    outer loop
      vertex 68.5 108 2.5
      vertex 80.75 108 5
      vertex 68.5 108 5
    endloop
  endfacet
  facet normal 0 -1 -0
    outer loop
      vertex 80.75 108 5
      vertex 68.5 108 2.5
      vertex 80.75 108 2.5
    endloop
  endfacet
  facet normal 0 0 1
    outer loop
      vertex 80.75 108 2.5
      vertex 68.5 108 2.5
      vertex 80.75 59.76 2.5
    endloop
  endfacet
  facet normal 0 0 1
    outer loop
      vertex 95.75 59.76 2.5
      vertex 108 108 2.5
      vertex 95.75 108 2.5
    endloop
  endfacet
  facet normal 0 0 1
    outer loop
      vertex 108 108 2.5
      vertex 95.75 59.76 2.5
      vertex 108 53.76 2.5
    endloop
  endfacet
  facet normal -0 0 1
    outer loop
      vertex 80.75 59.76 2.5
      vertex 108 53.76 2.5
      vertex 95.75 59.76 2.5
    endloop
  endfacet
  facet normal 0 0 1
    outer loop
      vertex 80.75 59.76 2.5
      vertex 68.5 53.76 2.5
      vertex 108 53.76 2.5
    endloop
  endfacet
  facet normal 0 0 1
    outer loop
      vertex 68.5 53.76 2.5
      vertex 80.75 59.76 2.5
      vertex 68.5 108 2.5
    endloop
  endfacet
  facet normal 0 1 -0
    outer loop
      vertex 108 53.76 2.5
      vertex 68.5 53.76 5
      vertex 108 53.76 5
    endloop
  endfacet
  facet normal 0 1 0
    outer loop
      vertex 68.5 53.76 5
      vertex 108 53.76 2.5
      vertex 68.5 53.76 2.5
    endloop
  endfacet
  facet normal 1 0 0
    outer loop
      vertex 80.75 108 2.5
      vertex 80.75 110 5
      vertex 80.75 108 5
    endloop
  endfacet
  facet normal 1 0 0
    outer loop
      vertex 80.75 110 5
      vertex 80.75 108 2.5
      vertex 80.75 110 0
    endloop
  endfacet
  facet normal 1 0 0
    outer loop
      vertex 80.75 59.76 0
      vertex 80.75 108 2.5
      vertex 80.75 59.76 2.5
    endloop
  endfacet
  facet normal 1 0 0
    outer loop
      vertex 80.75 108 2.5
      vertex 80.75 59.76 0
      vertex 80.75 110 0
    endloop
  endfacet
  facet normal -1 0 0
    outer loop
      vertex 95.75 110 0
      vertex 95.75 108 2.5
      vertex 95.75 110 5
    endloop
  endfacet
  facet normal -1 0 0
    outer loop
      vertex 95.75 59.76 0
      vertex 95.75 108 2.5
      vertex 95.75 110 0
    endloop
  endfacet
  facet normal -1 -0 0
    outer loop
      vertex 95.75 108 2.5
      vertex 95.75 59.76 0
      vertex 95.75 59.76 2.5
    endloop
  endfacet
  facet normal -1 -0 0
    outer loop
      vertex 95.75 110 5
      vertex 95.75 108 2.5
      vertex 95.75 108 5
    endloop
  endfacet
  facet normal 0 1 -0
    outer loop
      vertex 95.75 59.76 0
      vertex 80.75 59.76 2.5
      vertex 95.75 59.76 2.5
    endloop
  endfacet
  facet normal 0 1 0
    outer loop
      vertex 80.75 59.76 2.5
      vertex 95.75 59.76 0
      vertex 80.75 59.76 0
    endloop
  endfacet
  facet normal 1 -0 0
    outer loop
      vertex 45.5 89 5
      vertex 45.5 108 0
      vertex 45.5 108 5
    endloop
  endfacet
  facet normal 1 0 0
    outer loop
      vertex 45.5 108 0
      vertex 45.5 89 5
      vertex 45.5 89 0
    endloop
  endfacet
  facet normal -1 0 0
    outer loop
      vertex 64.5 89 0
      vertex 64.5 108 5
      vertex 64.5 108 0
    endloop
  endfacet
  facet normal -1 -0 0
    outer loop
      vertex 64.5 108 5
      vertex 64.5 89 0
      vertex 64.5 89 5
    endloop
  endfacet
  facet normal 0 1 -0
    outer loop
      vertex 64.5 89 0
      vertex 45.5 89 5
      vertex 64.5 89 5
    endloop
  endfacet
  facet normal 0 1 0
    outer loop
      vertex 45.5 89 5
      vertex 64.5 89 0
      vertex 45.5 89 0
    endloop
  endfacet
  facet normal 0 -1 0
    outer loop
      vertex 45.5 108 0
      vertex 64.5 108 5
      vertex 45.5 108 5
    endloop
  endfacet
  facet normal 0 -1 -0
    outer loop
      vertex 64.5 108 5
      vertex 45.5 108 0
      vertex 64.5 108 0
    endloop
  endfacet
endsolid OpenSCAD_Model
