solid OpenSCAD_Model
  facet normal -1 0 0
    outer loop
      vertex 0 0 0
      vertex 0 105 3
      vertex 0 105 0
    endloop
  endfacet
  facet normal -1 -0 0
    outer loop
      vertex 0 105 3
      vertex 0 0 0
      vertex 0 0 3
    endloop
  endfacet
  facet normal 0 0 1
    outer loop
      vertex 40.5 47.51 3
      vertex 63 105 3
      vertex 40.5 65.51 3
    endloop
  endfacet
  facet normal 0 0 1
    outer loop
      vertex 63 105 3
      vertex 22.5 65.51 3
      vertex 40.5 65.51 3
    endloop
  endfacet
  facet normal 0 0 1
    outer loop
      vertex 22.5 65.51 3
      vertex 0 105 3
      vertex 22.5 47.51 3
    endloop
  endfacet
  facet normal -0 0 1
    outer loop
      vertex 0 105 3
      vertex 22.5 65.51 3
      vertex 63 105 3
    endloop
  endfacet
  facet normal 0 0 1
    outer loop
      vertex 63 105 3
      vertex 40.5 47.51 3
      vertex 63 0 3
    endloop
  endfacet
  facet normal -0 0 1
    outer loop
      vertex 22.5 47.51 3
      vertex 63 0 3
      vertex 40.5 47.51 3
    endloop
  endfacet
  facet normal 0 0 1
    outer loop
      vertex 22.5 47.51 3
      vertex 0 0 3
      vertex 63 0 3
    endloop
  endfacet
  facet normal 0 0 1
    outer loop
      vertex 0 0 3
      vertex 22.5 47.51 3
      vertex 0 105 3
    endloop
  endfacet
  facet normal 1 -0 0
    outer loop
      vertex 63 0 3
      vertex 63 105 0
      vertex 63 105 3
    endloop
  endfacet
  facet normal 1 0 0
    outer loop
      vertex 63 105 0
      vertex 63 0 3
      vertex 63 0 0
    endloop
  endfacet
  facet normal 0 1 -0
    outer loop
      vertex 63 105 0
      vertex 0 105 3
      vertex 63 105 3
    endloop
  endfacet
  facet normal 0 1 0
    outer loop
      vertex 0 105 3
      vertex 63 105 0
      vertex 0 105 0
    endloop
  endfacet
  facet normal 0 0 -1
    outer loop
      vertex 0 0 0
      vertex 63 105 0
      vertex 63 0 0
    endloop
  endfacet
  facet normal -0 0 -1
    outer loop
      vertex 63 105 0
      vertex 0 0 0
      vertex 0 105 0
    endloop
  endfacet
  facet normal 0 -1 0
    outer loop
      vertex 0 0 0
      vertex 63 0 3
      vertex 0 0 3
    endloop
  endfacet
  facet normal 0 -1 -0
    outer loop
      vertex 63 0 3
      vertex 0 0 0
      vertex 63 0 0
    endloop
  endfacet
  facet normal -1 0 0
    outer loop
      vertex 22.5 47.51 3
      vertex 22.5 65.51 48.5
      vertex 22.5 65.51 3
    endloop
  endfacet
  facet normal -1 -0 0
    outer loop
      vertex 22.5 65.51 48.5
      vertex 22.5 47.51 3
      vertex 22.5 47.51 48.5
    endloop
  endfacet
  facet normal 0 0 1
    outer loop
      vertex 40.5 65.51 48.5
      vertex 39.2 56.51 48.5
      vertex 40.5 47.51 48.5
    endloop
  endfacet
  facet normal 0 0 1
    outer loop
      vertex 40.5 65.51 48.5
      vertex 38.9581 58.4249 48.5
      vertex 39.2 56.51 48.5
    endloop
  endfacet
  facet normal 0 0 1
    outer loop
      vertex 40.5 65.51 48.5
      vertex 38.2476 60.2195 48.5
      vertex 38.9581 58.4249 48.5
    endloop
  endfacet
  facet normal 0 0 1
    outer loop
      vertex 40.5 65.51 48.5
      vertex 37.1131 61.781 48.5
      vertex 38.2476 60.2195 48.5
    endloop
  endfacet
  facet normal 0 0 1
    outer loop
      vertex 40.5 65.51 48.5
      vertex 35.6259 63.0113 48.5
      vertex 37.1131 61.781 48.5
    endloop
  endfacet
  facet normal 0 0 1
    outer loop
      vertex 40.5 65.51 48.5
      vertex 33.8794 63.8331 48.5
      vertex 35.6259 63.0113 48.5
    endloop
  endfacet
  facet normal 0 0 1
    outer loop
      vertex 40.5 65.51 48.5
      vertex 31.9835 64.1948 48.5
      vertex 33.8794 63.8331 48.5
    endloop
  endfacet
  facet normal -0 0 1
    outer loop
      vertex 22.5 65.51 48.5
      vertex 31.9835 64.1948 48.5
      vertex 40.5 65.51 48.5
    endloop
  endfacet
  facet normal 0 0 1
    outer loop
      vertex 23.8607 57.4751 48.5
      vertex 22.5 65.51 48.5
      vertex 23.8607 55.5449 48.5
    endloop
  endfacet
  facet normal 0 0 1
    outer loop
      vertex 24.3407 59.3446 48.5
      vertex 22.5 65.51 48.5
      vertex 23.8607 57.4751 48.5
    endloop
  endfacet
  facet normal 0 0 1
    outer loop
      vertex 25.2706 61.0359 48.5
      vertex 22.5 65.51 48.5
      vertex 24.3407 59.3446 48.5
    endloop
  endfacet
  facet normal 0 0 1
    outer loop
      vertex 26.5918 62.443 48.5
      vertex 22.5 65.51 48.5
      vertex 25.2706 61.0359 48.5
    endloop
  endfacet
  facet normal 0 0 1
    outer loop
      vertex 28.2215 63.4772 48.5
      vertex 22.5 65.51 48.5
      vertex 26.5918 62.443 48.5
    endloop
  endfacet
  facet normal 0 0 1
    outer loop
      vertex 30.0572 64.0736 48.5
      vertex 22.5 65.51 48.5
      vertex 28.2215 63.4772 48.5
    endloop
  endfacet
  facet normal 0 0 1
    outer loop
      vertex 31.9835 64.1948 48.5
      vertex 22.5 65.51 48.5
      vertex 30.0572 64.0736 48.5
    endloop
  endfacet
  facet normal -0 0 1
    outer loop
      vertex 38.9581 54.5951 48.5
      vertex 40.5 47.51 48.5
      vertex 39.2 56.51 48.5
    endloop
  endfacet
  facet normal -0 0 1
    outer loop
      vertex 38.2476 52.8005 48.5
      vertex 40.5 47.51 48.5
      vertex 38.9581 54.5951 48.5
    endloop
  endfacet
  facet normal -0 0 1
    outer loop
      vertex 37.1131 51.239 48.5
      vertex 40.5 47.51 48.5
      vertex 38.2476 52.8005 48.5
    endloop
  endfacet
  facet normal -0 0 1
    outer loop
      vertex 35.6259 50.0087 48.5
      vertex 40.5 47.51 48.5
      vertex 37.1131 51.239 48.5
    endloop
  endfacet
  facet normal -0 0 1
    outer loop
      vertex 33.8794 49.1869 48.5
      vertex 40.5 47.51 48.5
      vertex 35.6259 50.0087 48.5
    endloop
  endfacet
  facet normal -0 0 1
    outer loop
      vertex 31.9835 48.8252 48.5
      vertex 40.5 47.51 48.5
      vertex 33.8794 49.1869 48.5
    endloop
  endfacet
  facet normal 0 0 1
    outer loop
      vertex 22.5 47.51 48.5
      vertex 31.9835 48.8252 48.5
      vertex 30.0572 48.9464 48.5
    endloop
  endfacet
  facet normal 0 0 1
    outer loop
      vertex 31.9835 48.8252 48.5
      vertex 22.5 47.51 48.5
      vertex 40.5 47.51 48.5
    endloop
  endfacet
  facet normal 0 0 1
    outer loop
      vertex 28.2215 49.5428 48.5
      vertex 22.5 47.51 48.5
      vertex 30.0572 48.9464 48.5
    endloop
  endfacet
  facet normal 0 0 1
    outer loop
      vertex 26.5918 50.577 48.5
      vertex 22.5 47.51 48.5
      vertex 28.2215 49.5428 48.5
    endloop
  endfacet
  facet normal 0 0 1
    outer loop
      vertex 25.2706 51.9841 48.5
      vertex 22.5 47.51 48.5
      vertex 26.5918 50.577 48.5
    endloop
  endfacet
  facet normal 0 0 1
    outer loop
      vertex 24.3407 53.6754 48.5
      vertex 22.5 47.51 48.5
      vertex 25.2706 51.9841 48.5
    endloop
  endfacet
  facet normal 0 0 1
    outer loop
      vertex 23.8607 55.5449 48.5
      vertex 22.5 47.51 48.5
      vertex 24.3407 53.6754 48.5
    endloop
  endfacet
  facet normal 0 0 1
    outer loop
      vertex 22.5 47.51 48.5
      vertex 23.8607 55.5449 48.5
      vertex 22.5 65.51 48.5
    endloop
  endfacet
  facet normal 1 -0 0
    outer loop
      vertex 40.5 47.51 48.5
      vertex 40.5 65.51 3
      vertex 40.5 65.51 48.5
    endloop
  endfacet
  facet normal 1 0 0
    outer loop
      vertex 40.5 65.51 3
      vertex 40.5 47.51 48.5
      vertex 40.5 47.51 3
    endloop
  endfacet
  facet normal 0 1 -0
    outer loop
      vertex 40.5 65.51 3
      vertex 22.5 65.51 48.5
      vertex 40.5 65.51 48.5
    endloop
  endfacet
  facet normal 0 1 0
    outer loop
      vertex 22.5 65.51 48.5
      vertex 40.5 65.51 3
      vertex 22.5 65.51 3
    endloop
  endfacet
  facet normal 0 -1 0
    outer loop
      vertex 22.5 47.51 3
      vertex 40.5 47.51 48.5
      vertex 22.5 47.51 48.5
    endloop
  endfacet
  facet normal 0 -1 -0
    outer loop
      vertex 40.5 47.51 48.5
      vertex 22.5 47.51 3
      vertex 40.5 47.51 3
    endloop
  endfacet
  facet normal -0.992115 -0.125333 0
    outer loop
      vertex 39.2 56.51 44.5
      vertex 38.9581 58.4249 48.5
      vertex 38.9581 58.4249 44.5
    endloop
  endfacet
  facet normal -0.992115 -0.125333 0
    outer loop
      vertex 38.9581 58.4249 48.5
      vertex 39.2 56.51 44.5
      vertex 39.2 56.51 48.5
    endloop
  endfacet
  facet normal 1 -0 0
    outer loop
      vertex 23.8607 55.5449 48.5
      vertex 23.8607 57.4751 44.5
      vertex 23.8607 57.4751 48.5
    endloop
  endfacet
  facet normal 1 0 0
    outer loop
      vertex 23.8607 57.4751 44.5
      vertex 23.8607 55.5449 48.5
      vertex 23.8607 55.5449 44.5
    endloop
  endfacet
  facet normal 0.0627939 -0.998027 0
    outer loop
      vertex 30.0572 64.0736 44.5
      vertex 31.9835 64.1948 48.5
      vertex 30.0572 64.0736 48.5
    endloop
  endfacet
  facet normal 0.0627939 -0.998027 0
    outer loop
      vertex 31.9835 64.1948 48.5
      vertex 30.0572 64.0736 44.5
      vertex 31.9835 64.1948 44.5
    endloop
  endfacet
  facet normal -0.18738 0.982288 0
    outer loop
      vertex 33.8794 49.1869 44.5
      vertex 31.9835 48.8252 48.5
      vertex 33.8794 49.1869 48.5
    endloop
  endfacet
  facet normal -0.18738 0.982288 0
    outer loop
      vertex 31.9835 48.8252 48.5
      vertex 33.8794 49.1869 44.5
      vertex 31.9835 48.8252 44.5
    endloop
  endfacet
  facet normal -0.637424 -0.770514 0
    outer loop
      vertex 35.6259 63.0113 44.5
      vertex 37.1131 61.781 48.5
      vertex 35.6259 63.0113 48.5
    endloop
  endfacet
  facet normal -0.637424 -0.770514 -0
    outer loop
      vertex 37.1131 61.781 48.5
      vertex 35.6259 63.0113 44.5
      vertex 37.1131 61.781 44.5
    endloop
  endfacet
  facet normal -0.425779 -0.904827 0
    outer loop
      vertex 33.8794 63.8331 44.5
      vertex 35.6259 63.0113 48.5
      vertex 33.8794 63.8331 48.5
    endloop
  endfacet
  facet normal -0.425779 -0.904827 -0
    outer loop
      vertex 35.6259 63.0113 48.5
      vertex 33.8794 63.8331 44.5
      vertex 35.6259 63.0113 44.5
    endloop
  endfacet
  facet normal 0.728969 -0.684547 0
    outer loop
      vertex 25.2706 61.0359 48.5
      vertex 26.5918 62.443 44.5
      vertex 26.5918 62.443 48.5
    endloop
  endfacet
  facet normal 0.728969 -0.684547 0
    outer loop
      vertex 26.5918 62.443 44.5
      vertex 25.2706 61.0359 48.5
      vertex 25.2706 61.0359 44.5
    endloop
  endfacet
  facet normal 0.876307 -0.481754 0
    outer loop
      vertex 24.3407 59.3446 48.5
      vertex 25.2706 61.0359 44.5
      vertex 25.2706 61.0359 48.5
    endloop
  endfacet
  facet normal 0.876307 -0.481754 0
    outer loop
      vertex 25.2706 61.0359 44.5
      vertex 24.3407 59.3446 48.5
      vertex 24.3407 59.3446 44.5
    endloop
  endfacet
  facet normal 0.309015 -0.951057 0
    outer loop
      vertex 28.2215 63.4772 44.5
      vertex 30.0572 64.0736 48.5
      vertex 28.2215 63.4772 48.5
    endloop
  endfacet
  facet normal 0.309015 -0.951057 0
    outer loop
      vertex 30.0572 64.0736 48.5
      vertex 28.2215 63.4772 44.5
      vertex 30.0572 64.0736 44.5
    endloop
  endfacet
  facet normal -0.929776 0.368127 0
    outer loop
      vertex 38.2476 52.8005 44.5
      vertex 38.9581 54.5951 48.5
      vertex 38.9581 54.5951 44.5
    endloop
  endfacet
  facet normal -0.929776 0.368127 0
    outer loop
      vertex 38.9581 54.5951 48.5
      vertex 38.2476 52.8005 44.5
      vertex 38.2476 52.8005 48.5
    endloop
  endfacet
  facet normal -0.809019 -0.587783 0
    outer loop
      vertex 38.2476 60.2195 44.5
      vertex 37.1131 61.781 48.5
      vertex 37.1131 61.781 44.5
    endloop
  endfacet
  facet normal -0.809019 -0.587783 0
    outer loop
      vertex 37.1131 61.781 48.5
      vertex 38.2476 60.2195 44.5
      vertex 38.2476 60.2195 48.5
    endloop
  endfacet
  facet normal -0.929776 -0.368127 0
    outer loop
      vertex 38.9581 58.4249 44.5
      vertex 38.2476 60.2195 48.5
      vertex 38.2476 60.2195 44.5
    endloop
  endfacet
  facet normal -0.929776 -0.368127 0
    outer loop
      vertex 38.2476 60.2195 48.5
      vertex 38.9581 58.4249 44.5
      vertex 38.9581 58.4249 48.5
    endloop
  endfacet
  facet normal -0.187383 -0.982287 0
    outer loop
      vertex 31.9835 64.1948 44.5
      vertex 33.8794 63.8331 48.5
      vertex 31.9835 64.1948 48.5
    endloop
  endfacet
  facet normal -0.187383 -0.982287 -0
    outer loop
      vertex 33.8794 63.8331 48.5
      vertex 31.9835 64.1948 44.5
      vertex 33.8794 63.8331 44.5
    endloop
  endfacet
  facet normal 0.968583 -0.248691 0
    outer loop
      vertex 23.8607 57.4751 48.5
      vertex 24.3407 59.3446 44.5
      vertex 24.3407 59.3446 48.5
    endloop
  endfacet
  facet normal 0.968583 -0.248691 0
    outer loop
      vertex 24.3407 59.3446 44.5
      vertex 23.8607 57.4751 48.5
      vertex 23.8607 57.4751 44.5
    endloop
  endfacet
  facet normal 0.535827 -0.844328 0
    outer loop
      vertex 26.5918 62.443 44.5
      vertex 28.2215 63.4772 48.5
      vertex 26.5918 62.443 48.5
    endloop
  endfacet
  facet normal 0.535827 -0.844328 0
    outer loop
      vertex 28.2215 63.4772 48.5
      vertex 26.5918 62.443 44.5
      vertex 28.2215 63.4772 44.5
    endloop
  endfacet
  facet normal -0.992115 0.125333 0
    outer loop
      vertex 38.9581 54.5951 44.5
      vertex 39.2 56.51 48.5
      vertex 39.2 56.51 44.5
    endloop
  endfacet
  facet normal -0.992115 0.125333 0
    outer loop
      vertex 39.2 56.51 48.5
      vertex 38.9581 54.5951 44.5
      vertex 38.9581 54.5951 48.5
    endloop
  endfacet
  facet normal 0 0 1
    outer loop
      vertex 38.9581 58.4249 44.5
      vertex 38.9581 54.5951 44.5
      vertex 39.2 56.51 44.5
    endloop
  endfacet
  facet normal 0 0 1
    outer loop
      vertex 38.2476 60.2195 44.5
      vertex 38.9581 54.5951 44.5
      vertex 38.9581 58.4249 44.5
    endloop
  endfacet
  facet normal 0 0 1
    outer loop
      vertex 38.2476 60.2195 44.5
      vertex 38.2476 52.8005 44.5
      vertex 38.9581 54.5951 44.5
    endloop
  endfacet
  facet normal 0 0 1
    outer loop
      vertex 37.1131 61.781 44.5
      vertex 38.2476 52.8005 44.5
      vertex 38.2476 60.2195 44.5
    endloop
  endfacet
  facet normal 0 0 1
    outer loop
      vertex 37.1131 61.781 44.5
      vertex 37.1131 51.239 44.5
      vertex 38.2476 52.8005 44.5
    endloop
  endfacet
  facet normal 0 0 1
    outer loop
      vertex 35.6259 63.0113 44.5
      vertex 37.1131 51.239 44.5
      vertex 37.1131 61.781 44.5
    endloop
  endfacet
  facet normal 0 0 1
    outer loop
      vertex 35.6259 63.0113 44.5
      vertex 35.6259 50.0087 44.5
      vertex 37.1131 51.239 44.5
    endloop
  endfacet
  facet normal 0 0 1
    outer loop
      vertex 33.8794 63.8331 44.5
      vertex 35.6259 50.0087 44.5
      vertex 35.6259 63.0113 44.5
    endloop
  endfacet
  facet normal 0 0 1
    outer loop
      vertex 33.8794 63.8331 44.5
      vertex 33.8794 49.1869 44.5
      vertex 35.6259 50.0087 44.5
    endloop
  endfacet
  facet normal 0 0 1
    outer loop
      vertex 31.9835 64.1948 44.5
      vertex 33.8794 49.1869 44.5
      vertex 33.8794 63.8331 44.5
    endloop
  endfacet
  facet normal 0 0 1
    outer loop
      vertex 31.9835 64.1948 44.5
      vertex 31.9835 48.8252 44.5
      vertex 33.8794 49.1869 44.5
    endloop
  endfacet
  facet normal -0 0 1
    outer loop
      vertex 30.0572 64.0736 44.5
      vertex 31.9835 48.8252 44.5
      vertex 31.9835 64.1948 44.5
    endloop
  endfacet
  facet normal 0 0 1
    outer loop
      vertex 30.0572 64.0736 44.5
      vertex 30.0572 48.9464 44.5
      vertex 31.9835 48.8252 44.5
    endloop
  endfacet
  facet normal -0 0 1
    outer loop
      vertex 28.2215 63.4772 44.5
      vertex 30.0572 48.9464 44.5
      vertex 30.0572 64.0736 44.5
    endloop
  endfacet
  facet normal 0 0 1
    outer loop
      vertex 28.2215 63.4772 44.5
      vertex 28.2215 49.5428 44.5
      vertex 30.0572 48.9464 44.5
    endloop
  endfacet
  facet normal -0 0 1
    outer loop
      vertex 26.5918 62.443 44.5
      vertex 28.2215 49.5428 44.5
      vertex 28.2215 63.4772 44.5
    endloop
  endfacet
  facet normal 0 0 1
    outer loop
      vertex 26.5918 62.443 44.5
      vertex 26.5918 50.577 44.5
      vertex 28.2215 49.5428 44.5
    endloop
  endfacet
  facet normal -0 0 1
    outer loop
      vertex 25.2706 61.0359 44.5
      vertex 26.5918 50.577 44.5
      vertex 26.5918 62.443 44.5
    endloop
  endfacet
  facet normal 0 0 1
    outer loop
      vertex 25.2706 61.0359 44.5
      vertex 25.2706 51.9841 44.5
      vertex 26.5918 50.577 44.5
    endloop
  endfacet
  facet normal -0 0 1
    outer loop
      vertex 24.3407 59.3446 44.5
      vertex 25.2706 51.9841 44.5
      vertex 25.2706 61.0359 44.5
    endloop
  endfacet
  facet normal 0 0 1
    outer loop
      vertex 24.3407 59.3446 44.5
      vertex 24.3407 53.6754 44.5
      vertex 25.2706 51.9841 44.5
    endloop
  endfacet
  facet normal -0 0 1
    outer loop
      vertex 23.8607 57.4751 44.5
      vertex 24.3407 53.6754 44.5
      vertex 24.3407 59.3446 44.5
    endloop
  endfacet
  facet normal 0 0 1
    outer loop
      vertex 24.3407 53.6754 44.5
      vertex 23.8607 57.4751 44.5
      vertex 23.8607 55.5449 44.5
    endloop
  endfacet
  facet normal -0.809018 0.587784 0
    outer loop
      vertex 37.1131 51.239 44.5
      vertex 38.2476 52.8005 48.5
      vertex 38.2476 52.8005 44.5
    endloop
  endfacet
  facet normal -0.809018 0.587784 0
    outer loop
      vertex 38.2476 52.8005 48.5
      vertex 37.1131 51.239 44.5
      vertex 37.1131 51.239 48.5
    endloop
  endfacet
  facet normal 0.535827 0.844328 -0
    outer loop
      vertex 28.2215 49.5428 44.5
      vertex 26.5918 50.577 48.5
      vertex 28.2215 49.5428 48.5
    endloop
  endfacet
  facet normal 0.535827 0.844328 0
    outer loop
      vertex 26.5918 50.577 48.5
      vertex 28.2215 49.5428 44.5
      vertex 26.5918 50.577 44.5
    endloop
  endfacet
  facet normal 0.728969 0.684547 0
    outer loop
      vertex 26.5918 50.577 48.5
      vertex 25.2706 51.9841 44.5
      vertex 25.2706 51.9841 48.5
    endloop
  endfacet
  facet normal 0.728969 0.684547 0
    outer loop
      vertex 25.2706 51.9841 44.5
      vertex 26.5918 50.577 48.5
      vertex 26.5918 50.577 44.5
    endloop
  endfacet
  facet normal 0.06279 0.998027 -0
    outer loop
      vertex 31.9835 48.8252 44.5
      vertex 30.0572 48.9464 48.5
      vertex 31.9835 48.8252 48.5
    endloop
  endfacet
  facet normal 0.06279 0.998027 0
    outer loop
      vertex 30.0572 48.9464 48.5
      vertex 31.9835 48.8252 44.5
      vertex 30.0572 48.9464 44.5
    endloop
  endfacet
  facet normal 0.876307 0.481754 0
    outer loop
      vertex 25.2706 51.9841 48.5
      vertex 24.3407 53.6754 44.5
      vertex 24.3407 53.6754 48.5
    endloop
  endfacet
  facet normal 0.876307 0.481754 0
    outer loop
      vertex 24.3407 53.6754 44.5
      vertex 25.2706 51.9841 48.5
      vertex 25.2706 51.9841 44.5
    endloop
  endfacet
  facet normal 0.968583 0.248691 0
    outer loop
      vertex 24.3407 53.6754 48.5
      vertex 23.8607 55.5449 44.5
      vertex 23.8607 55.5449 48.5
    endloop
  endfacet
  facet normal 0.968583 0.248691 0
    outer loop
      vertex 23.8607 55.5449 44.5
      vertex 24.3407 53.6754 48.5
      vertex 24.3407 53.6754 44.5
    endloop
  endfacet
  facet normal -0.637424 0.770514 0
    outer loop
      vertex 37.1131 51.239 44.5
      vertex 35.6259 50.0087 48.5
      vertex 37.1131 51.239 48.5
    endloop
  endfacet
  facet normal -0.637424 0.770514 0
    outer loop
      vertex 35.6259 50.0087 48.5
      vertex 37.1131 51.239 44.5
      vertex 35.6259 50.0087 44.5
    endloop
  endfacet
  facet normal -0.42578 0.904827 0
    outer loop
      vertex 35.6259 50.0087 44.5
      vertex 33.8794 49.1869 48.5
      vertex 35.6259 50.0087 48.5
    endloop
  endfacet
  facet normal -0.42578 0.904827 0
    outer loop
      vertex 33.8794 49.1869 48.5
      vertex 35.6259 50.0087 44.5
      vertex 33.8794 49.1869 44.5
    endloop
  endfacet
  facet normal 0.309017 0.951056 -0
    outer loop
      vertex 30.0572 48.9464 44.5
      vertex 28.2215 49.5428 48.5
      vertex 30.0572 48.9464 48.5
    endloop
  endfacet
  facet normal 0.309017 0.951056 0
    outer loop
      vertex 28.2215 49.5428 48.5
      vertex 30.0572 48.9464 44.5
      vertex 28.2215 49.5428 44.5
    endloop
  endfacet
endsolid OpenSCAD_Model
