solid OpenSCAD_Model
  facet normal 1 -0 0
    outer loop
      vertex 3.86725 4.90549 15
      vertex 3.86725 5.895 2.06
      vertex 3.86725 5.895 15
    endloop
  endfacet
  facet normal 1 0 0
    outer loop
      vertex 3.86725 5.895 2.06
      vertex 3.86725 4.90549 15
      vertex 3.86725 4.90549 2.06
    endloop
  endfacet
  facet normal 0 0 1
    outer loop
      vertex 4 62 15
      vertex 2 60 15
      vertex 4 60 15
    endloop
  endfacet
  facet normal 0 0 1
    outer loop
      vertex 0 62 15
      vertex 2 40.02 15
      vertex 2 60 15
    endloop
  endfacet
  facet normal 0 0 1
    outer loop
      vertex 2 40.02 15
      vertex 0 62 15
      vertex 2 23.845 15
    endloop
  endfacet
  facet normal 0 0 1
    outer loop
      vertex 0 0 15
      vertex 2 23.845 15
      vertex 0 62 15
    endloop
  endfacet
  facet normal -0 0 1
    outer loop
      vertex 0 62 15
      vertex 2 60 15
      vertex 4 62 15
    endloop
  endfacet
  facet normal 0 0 1
    outer loop
      vertex 25.205 15.045 15
      vertex 23.4 15.045 15
      vertex 25.205 5.895 15
    endloop
  endfacet
  facet normal 0 0 1
    outer loop
      vertex 25.2673 5.895 15
      vertex 25.205 5.895 15
      vertex 25.2673 4.90549 15
    endloop
  endfacet
  facet normal 0 0 1
    outer loop
      vertex 57.56 62 15
      vertex 55.56 60 15
      vertex 57.56 60 15
    endloop
  endfacet
  facet normal 0 0 1
    outer loop
      vertex 54.44 40.02 15
      vertex 55.56 40.02 15
      vertex 55.56 60 15
    endloop
  endfacet
  facet normal 0 0 1
    outer loop
      vertex 54.44 40.02 15
      vertex 55.56 60 15
      vertex 54.44 60 15
    endloop
  endfacet
  facet normal 0 0 1
    outer loop
      vertex 57.56 62 15
      vertex 54.44 60 15
      vertex 55.56 60 15
    endloop
  endfacet
  facet normal -0 0 1
    outer loop
      vertex 52.44 62 15
      vertex 54.44 60 15
      vertex 57.56 62 15
    endloop
  endfacet
  facet normal 0 0 1
    outer loop
      vertex 54.44 60 15
      vertex 52.44 62 15
      vertex 52.44 60 15
    endloop
  endfacet
  facet normal 0 0 1
    outer loop
      vertex 108 40.02 15
      vertex 88.7 21.3 15
      vertex 108 21.3 15
    endloop
  endfacet
  facet normal 0 0 1
    outer loop
      vertex 88.7 21.3 15
      vertex 86.7 21.3 15
      vertex 88.7 2 15
    endloop
  endfacet
  facet normal 0 0 1
    outer loop
      vertex 108 40.02 15
      vertex 86.7 21.3 15
      vertex 88.7 21.3 15
    endloop
  endfacet
  facet normal -0 0 1
    outer loop
      vertex 61.7476 34.7095 15
      vertex 86.7 21.3 15
      vertex 108 40.02 15
    endloop
  endfacet
  facet normal -0 0 1
    outer loop
      vertex 62.4581 29.0851 15
      vertex 67.4 21.3 15
      vertex 62.7 31 15
    endloop
  endfacet
  facet normal -0 -0 1
    outer loop
      vertex 62.7 31 15
      vertex 86.7 21.3 15
      vertex 62.4581 32.9149 15
    endloop
  endfacet
  facet normal 0 0 1
    outer loop
      vertex 86.7 21.3 15
      vertex 62.7 31 15
      vertex 67.4 21.3 15
    endloop
  endfacet
  facet normal 0 0 1
    outer loop
      vertex 86.7 21.3 15
      vertex 61.7476 34.7095 15
      vertex 62.4581 32.9149 15
    endloop
  endfacet
  facet normal 0 0 1
    outer loop
      vertex 108 40.02 15
      vertex 60.6131 36.271 15
      vertex 61.7476 34.7095 15
    endloop
  endfacet
  facet normal 0 0 1
    outer loop
      vertex 108 40.02 15
      vertex 59.1259 37.5013 15
      vertex 60.6131 36.271 15
    endloop
  endfacet
  facet normal -0 0 1
    outer loop
      vertex 55.56 40.02 15
      vertex 59.1259 37.5013 15
      vertex 108 40.02 15
    endloop
  endfacet
  facet normal 0 0 1
    outer loop
      vertex 59.1259 37.5013 15
      vertex 55.56 40.02 15
      vertex 57.3794 38.3231 15
    endloop
  endfacet
  facet normal 0 0 1
    outer loop
      vertex 57.3794 38.3231 15
      vertex 55.56 40.02 15
      vertex 55.4835 38.6848 15
    endloop
  endfacet
  facet normal 0 0 1
    outer loop
      vertex 108 40.02 15
      vertex 110 62 15
      vertex 108 60 15
    endloop
  endfacet
  facet normal -0 0 1
    outer loop
      vertex 106 62 15
      vertex 108 60 15
      vertex 110 62 15
    endloop
  endfacet
  facet normal 0 0 1
    outer loop
      vertex 108 60 15
      vertex 106 62 15
      vertex 106 60 15
    endloop
  endfacet
  facet normal 0 0 1
    outer loop
      vertex 110 62 15
      vertex 108 40.02 15
      vertex 110 0 15
    endloop
  endfacet
  facet normal -0 0 1
    outer loop
      vertex 108 21.3 15
      vertex 110 0 15
      vertex 108 40.02 15
    endloop
  endfacet
  facet normal -0 0 1
    outer loop
      vertex 108 2 15
      vertex 110 0 15
      vertex 108 21.3 15
    endloop
  endfacet
  facet normal 0 0 1
    outer loop
      vertex 106 0 15
      vertex 108 2 15
      vertex 106 2 15
    endloop
  endfacet
  facet normal 0 0 1
    outer loop
      vertex 108 2 15
      vertex 106 0 15
      vertex 110 0 15
    endloop
  endfacet
  facet normal -0 0 1
    outer loop
      vertex 88.7 2 15
      vertex 90.7 0 15
      vertex 90.7 2 15
    endloop
  endfacet
  facet normal 0 0 1
    outer loop
      vertex 86.7 2 15
      vertex 88.7 2 15
      vertex 86.7 21.3 15
    endloop
  endfacet
  facet normal -0 0 1
    outer loop
      vertex 86.7 2 15
      vertex 90.7 0 15
      vertex 88.7 2 15
    endloop
  endfacet
  facet normal 0 0 1
    outer loop
      vertex 84.7 0 15
      vertex 86.7 2 15
      vertex 84.7 2 15
    endloop
  endfacet
  facet normal 0 0 1
    outer loop
      vertex 86.7 2 15
      vertex 84.7 0 15
      vertex 90.7 0 15
    endloop
  endfacet
  facet normal -0 0 1
    outer loop
      vertex 67.4 2 15
      vertex 69.4 0 15
      vertex 69.4 2 15
    endloop
  endfacet
  facet normal -0 0 1
    outer loop
      vertex 61.7476 27.2905 15
      vertex 67.4 21.3 15
      vertex 62.4581 29.0851 15
    endloop
  endfacet
  facet normal -0 0 1
    outer loop
      vertex 60.6131 25.729 15
      vertex 67.4 21.3 15
      vertex 61.7476 27.2905 15
    endloop
  endfacet
  facet normal -0 0 1
    outer loop
      vertex 59.1259 24.4987 15
      vertex 67.4 21.3 15
      vertex 60.6131 25.729 15
    endloop
  endfacet
  facet normal -0 0 1
    outer loop
      vertex 57.3794 23.6769 15
      vertex 67.4 21.3 15
      vertex 59.1259 24.4987 15
    endloop
  endfacet
  facet normal 0 0 1
    outer loop
      vertex 67.4 21.3 15
      vertex 57.3794 23.6769 15
      vertex 67.4 2 15
    endloop
  endfacet
  facet normal -0 0 1
    outer loop
      vertex 55.4835 23.3152 15
      vertex 67.4 2 15
      vertex 57.3794 23.6769 15
    endloop
  endfacet
  facet normal 0 0 1
    outer loop
      vertex 42.8 15.045 15
      vertex 55.4835 23.3152 15
      vertex 53.5572 23.4364 15
    endloop
  endfacet
  facet normal 0 0 1
    outer loop
      vertex 42.8 15.045 15
      vertex 53.5572 23.4364 15
      vertex 51.7215 24.0328 15
    endloop
  endfacet
  facet normal 0 0 1
    outer loop
      vertex 42.8 15.045 15
      vertex 51.7215 24.0328 15
      vertex 50.0918 25.067 15
    endloop
  endfacet
  facet normal 0 0 1
    outer loop
      vertex 42.8 23.845 15
      vertex 50.0918 25.067 15
      vertex 48.7706 26.4741 15
    endloop
  endfacet
  facet normal 0 0 1
    outer loop
      vertex 42.8 23.845 15
      vertex 47.8407 28.1654 15
      vertex 47.3607 30.0349 15
    endloop
  endfacet
  facet normal 0 0 1
    outer loop
      vertex 42.8 23.845 15
      vertex 48.7706 26.4741 15
      vertex 47.8407 28.1654 15
    endloop
  endfacet
  facet normal 0 0 1
    outer loop
      vertex 50.0918 25.067 15
      vertex 42.8 23.845 15
      vertex 42.8 15.045 15
    endloop
  endfacet
  facet normal 0 0 1
    outer loop
      vertex 55.4835 23.3152 15
      vertex 42.8 15.045 15
      vertex 67.4 2 15
    endloop
  endfacet
  facet normal -0 0 1
    outer loop
      vertex 40.995 5.895 15
      vertex 67.4 2 15
      vertex 42.8 15.045 15
    endloop
  endfacet
  facet normal 0 0 1
    outer loop
      vertex 40.995 5.895 15
      vertex 42.8 15.045 15
      vertex 40.995 15.045 15
    endloop
  endfacet
  facet normal -0 0 1
    outer loop
      vertex 40.747 3.93159 15
      vertex 67.4 2 15
      vertex 40.995 5.895 15
    endloop
  endfacet
  facet normal -0 0 1
    outer loop
      vertex 40.0184 2.09155 15
      vertex 67.4 2 15
      vertex 40.747 3.93159 15
    endloop
  endfacet
  facet normal 0 0 1
    outer loop
      vertex 38.8552 0.4905 15
      vertex 67.4 2 15
      vertex 40.0184 2.09155 15
    endloop
  endfacet
  facet normal 0 0 1
    outer loop
      vertex 67.4 2 15
      vertex 38.8552 0.4905 15
      vertex 69.4 0 15
    endloop
  endfacet
  facet normal 0 0 1
    outer loop
      vertex 69.4 0 15
      vertex 38.8552 0.4905 15
      vertex 38.2623 0 15
    endloop
  endfacet
  facet normal 0 0 1
    outer loop
      vertex 55.56 40.02 15
      vertex 54.44 40.02 15
      vertex 55.4835 38.6848 15
    endloop
  endfacet
  facet normal 0 0 1
    outer loop
      vertex 54.44 40.02 15
      vertex 53.5572 38.5636 15
      vertex 55.4835 38.6848 15
    endloop
  endfacet
  facet normal 0 0 1
    outer loop
      vertex 54.44 40.02 15
      vertex 51.7215 37.9672 15
      vertex 53.5572 38.5636 15
    endloop
  endfacet
  facet normal 0 0 1
    outer loop
      vertex 54.44 40.02 15
      vertex 50.0918 36.933 15
      vertex 51.7215 37.9672 15
    endloop
  endfacet
  facet normal 0 0 1
    outer loop
      vertex 47.3607 31.9651 15
      vertex 42.8 23.845 15
      vertex 47.3607 30.0349 15
    endloop
  endfacet
  facet normal 0 0 1
    outer loop
      vertex 23.4 23.845 15
      vertex 47.3607 31.9651 15
      vertex 47.8407 33.8346 15
    endloop
  endfacet
  facet normal 0 0 1
    outer loop
      vertex 47.3607 31.9651 15
      vertex 23.4 23.845 15
      vertex 42.8 23.845 15
    endloop
  endfacet
  facet normal 0 0 1
    outer loop
      vertex 48.7706 35.5259 15
      vertex 23.4 23.845 15
      vertex 47.8407 33.8346 15
    endloop
  endfacet
  facet normal 0 0 1
    outer loop
      vertex 2 40.02 15
      vertex 48.7706 35.5259 15
      vertex 50.0918 36.933 15
    endloop
  endfacet
  facet normal -0 0 1
    outer loop
      vertex 2 40.02 15
      vertex 50.0918 36.933 15
      vertex 54.44 40.02 15
    endloop
  endfacet
  facet normal 0 0 1
    outer loop
      vertex 23.4 23.845 15
      vertex 21.4 23.845 15
      vertex 23.4 15.045 15
    endloop
  endfacet
  facet normal 0 0 1
    outer loop
      vertex 48.7706 35.5259 15
      vertex 2 40.02 15
      vertex 23.4 23.845 15
    endloop
  endfacet
  facet normal 0 0 1
    outer loop
      vertex 23.4 23.845 15
      vertex 2 40.02 15
      vertex 21.4 23.845 15
    endloop
  endfacet
  facet normal 0 0 1
    outer loop
      vertex 21.4 23.845 15
      vertex 2 40.02 15
      vertex 2 23.845 15
    endloop
  endfacet
  facet normal 0 0 1
    outer loop
      vertex 19.595 5.895 15
      vertex 25.205 5.895 15
      vertex 23.4 15.045 15
    endloop
  endfacet
  facet normal 0 0 1
    outer loop
      vertex 21.4 15.045 15
      vertex 23.4 15.045 15
      vertex 21.4 23.845 15
    endloop
  endfacet
  facet normal 0 0 1
    outer loop
      vertex 19.595 5.895 15
      vertex 23.4 15.045 15
      vertex 21.4 15.045 15
    endloop
  endfacet
  facet normal 0 0 1
    outer loop
      vertex 25.205 5.895 15
      vertex 19.595 5.895 15
      vertex 25.2673 4.90549 15
    endloop
  endfacet
  facet normal 0 0 1
    outer loop
      vertex 19.595 5.895 15
      vertex 21.4 15.045 15
      vertex 19.595 15.045 15
    endloop
  endfacet
  facet normal 0 0 1
    outer loop
      vertex 19.347 3.93159 15
      vertex 25.2673 4.90549 15
      vertex 19.595 5.895 15
    endloop
  endfacet
  facet normal 0 0 1
    outer loop
      vertex 25.2673 4.90549 15
      vertex 19.347 3.93159 15
      vertex 25.7594 2.98866 15
    endloop
  endfacet
  facet normal 0 0 1
    outer loop
      vertex 18.6184 2.09155 15
      vertex 25.7594 2.98866 15
      vertex 19.347 3.93159 15
    endloop
  endfacet
  facet normal 0 0 1
    outer loop
      vertex 25.7594 2.98866 15
      vertex 18.6184 2.09155 15
      vertex 26.7128 1.25443 15
    endloop
  endfacet
  facet normal 0 0 1
    outer loop
      vertex 17.4552 0.4905 15
      vertex 26.7128 1.25443 15
      vertex 18.6184 2.09155 15
    endloop
  endfacet
  facet normal 0 0 1
    outer loop
      vertex 26.7128 1.25443 15
      vertex 17.4552 0.4905 15
      vertex 27.8908 0 15
    endloop
  endfacet
  facet normal 0 0 1
    outer loop
      vertex 27.8908 0 15
      vertex 17.4552 0.4905 15
      vertex 16.8623 0 15
    endloop
  endfacet
  facet normal 0 0 1
    outer loop
      vertex 3.805 15.045 15
      vertex 2 15.045 15
      vertex 3.805 5.895 15
    endloop
  endfacet
  facet normal 0 0 1
    outer loop
      vertex 3.86725 5.895 15
      vertex 3.805 5.895 15
      vertex 3.86725 4.90549 15
    endloop
  endfacet
  facet normal 0 0 1
    outer loop
      vertex 0 0 15
      vertex 3.805 5.895 15
      vertex 2 15.045 15
    endloop
  endfacet
  facet normal 0 0 1
    outer loop
      vertex 5.31281 1.25443 15
      vertex 0 0 15
      vertex 6.4908 0 15
    endloop
  endfacet
  facet normal 0 0 1
    outer loop
      vertex 4.35941 2.98866 15
      vertex 0 0 15
      vertex 5.31281 1.25443 15
    endloop
  endfacet
  facet normal 0 0 1
    outer loop
      vertex 3.86725 4.90549 15
      vertex 0 0 15
      vertex 4.35941 2.98866 15
    endloop
  endfacet
  facet normal 0 0 1
    outer loop
      vertex 3.805 5.895 15
      vertex 0 0 15
      vertex 3.86725 4.90549 15
    endloop
  endfacet
  facet normal 0 0 1
    outer loop
      vertex 2 23.845 15
      vertex 0 0 15
      vertex 2 15.045 15
    endloop
  endfacet
  facet normal -0.992115 0.125333 0
    outer loop
      vertex 19.347 3.93159 2.06
      vertex 19.595 5.895 15
      vertex 19.595 5.895 2.06
    endloop
  endfacet
  facet normal -0.992115 0.125333 0
    outer loop
      vertex 19.595 5.895 15
      vertex 19.347 3.93159 2.06
      vertex 19.347 3.93159 15
    endloop
  endfacet
  facet normal 0 0 1
    outer loop
      vertex 21.4 23.845 2.06
      vertex 19.595 15.045 2.06
      vertex 21.4 15.045 2.06
    endloop
  endfacet
  facet normal 0 0 1
    outer loop
      vertex 3.86725 5.895 2.06
      vertex 19.595 5.895 2.06
      vertex 19.595 15.045 2.06
    endloop
  endfacet
  facet normal 0 -0 1
    outer loop
      vertex 16.8623 0 2.06
      vertex 19.595 5.895 2.06
      vertex 3.86725 5.895 2.06
    endloop
  endfacet
  facet normal 0 0 1
    outer loop
      vertex 19.595 5.895 2.06
      vertex 16.8623 0 2.06
      vertex 19.347 3.93159 2.06
    endloop
  endfacet
  facet normal 0 0 1
    outer loop
      vertex 19.347 3.93159 2.06
      vertex 16.8623 0 2.06
      vertex 18.6184 2.09155 2.06
    endloop
  endfacet
  facet normal 0 0 1
    outer loop
      vertex 18.6184 2.09155 2.06
      vertex 16.8623 0 2.06
      vertex 17.4552 0.4905 2.06
    endloop
  endfacet
  facet normal 0 0 1
    outer loop
      vertex 3.805 15.045 2.06
      vertex 19.595 15.045 2.06
      vertex 21.4 23.845 2.06
    endloop
  endfacet
  facet normal 0 0 1
    outer loop
      vertex 16.8623 0 2.06
      vertex 3.86725 5.895 2.06
      vertex 6.4908 0 2.06
    endloop
  endfacet
  facet normal 0 0 1
    outer loop
      vertex 6.4908 0 2.06
      vertex 3.86725 5.895 2.06
      vertex 5.31281 1.25443 2.06
    endloop
  endfacet
  facet normal 0 0 1
    outer loop
      vertex 5.31281 1.25443 2.06
      vertex 3.86725 5.895 2.06
      vertex 4.35941 2.98866 2.06
    endloop
  endfacet
  facet normal 0 0 1
    outer loop
      vertex 19.595 15.045 2.06
      vertex 3.805 15.045 2.06
      vertex 3.86725 5.895 2.06
    endloop
  endfacet
  facet normal -0 0 1
    outer loop
      vertex 2 23.845 2.06
      vertex 3.805 15.045 2.06
      vertex 21.4 23.845 2.06
    endloop
  endfacet
  facet normal 0 0 1
    outer loop
      vertex 3.805 15.045 2.06
      vertex 2 23.845 2.06
      vertex 2 15.045 2.06
    endloop
  endfacet
  facet normal 0 0 1
    outer loop
      vertex 4.35941 2.98866 2.06
      vertex 3.86725 5.895 2.06
      vertex 3.86725 4.90549 2.06
    endloop
  endfacet
  facet normal 0 0 1
    outer loop
      vertex 3.86725 5.895 2.06
      vertex 3.805 15.045 2.06
      vertex 3.805 5.895 2.06
    endloop
  endfacet
  facet normal -0.809017 0.587785 0
    outer loop
      vertex 17.4552 0.4905 2.06
      vertex 18.6184 2.09155 15
      vertex 18.6184 2.09155 2.06
    endloop
  endfacet
  facet normal -0.809017 0.587785 0
    outer loop
      vertex 18.6184 2.09155 15
      vertex 17.4552 0.4905 2.06
      vertex 17.4552 0.4905 15
    endloop
  endfacet
  facet normal -0.929776 0.368125 0
    outer loop
      vertex 18.6184 2.09155 2.06
      vertex 19.347 3.93159 15
      vertex 19.347 3.93159 2.06
    endloop
  endfacet
  facet normal -0.929776 0.368125 0
    outer loop
      vertex 19.347 3.93159 15
      vertex 18.6184 2.09155 2.06
      vertex 18.6184 2.09155 15
    endloop
  endfacet
  facet normal 0.728968 0.684547 0
    outer loop
      vertex 6.4908 0 15
      vertex 5.31281 1.25443 2.06
      vertex 5.31281 1.25443 15
    endloop
  endfacet
  facet normal 0.728968 0.684547 0
    outer loop
      vertex 5.31281 1.25443 2.06
      vertex 6.4908 0 15
      vertex 6.4908 0 2.06
    endloop
  endfacet
  facet normal 0.876307 0.481753 0
    outer loop
      vertex 5.31281 1.25443 15
      vertex 4.35941 2.98866 2.06
      vertex 4.35941 2.98866 15
    endloop
  endfacet
  facet normal 0.876307 0.481753 0
    outer loop
      vertex 4.35941 2.98866 2.06
      vertex 5.31281 1.25443 15
      vertex 5.31281 1.25443 2.06
    endloop
  endfacet
  facet normal 0.968583 0.24869 0
    outer loop
      vertex 4.35941 2.98866 15
      vertex 3.86725 4.90549 2.06
      vertex 3.86725 4.90549 15
    endloop
  endfacet
  facet normal 0.968583 0.24869 0
    outer loop
      vertex 3.86725 4.90549 2.06
      vertex 4.35941 2.98866 15
      vertex 4.35941 2.98866 2.06
    endloop
  endfacet
  facet normal -0.637423 0.770514 0
    outer loop
      vertex 17.4552 0.4905 2.06
      vertex 16.8623 0 15
      vertex 17.4552 0.4905 15
    endloop
  endfacet
  facet normal -0.637423 0.770514 0
    outer loop
      vertex 16.8623 0 15
      vertex 17.4552 0.4905 2.06
      vertex 16.8623 0 2.06
    endloop
  endfacet
  facet normal 1 -0 0
    outer loop
      vertex 3.805 5.895 15
      vertex 3.805 15.045 2.06
      vertex 3.805 15.045 15
    endloop
  endfacet
  facet normal 1 0 0
    outer loop
      vertex 3.805 15.045 2.06
      vertex 3.805 5.895 15
      vertex 3.805 5.895 2.06
    endloop
  endfacet
  facet normal -1 0 0
    outer loop
      vertex 19.595 5.895 2.06
      vertex 19.595 15.045 15
      vertex 19.595 15.045 2.06
    endloop
  endfacet
  facet normal -1 -0 0
    outer loop
      vertex 19.595 15.045 15
      vertex 19.595 5.895 2.06
      vertex 19.595 5.895 15
    endloop
  endfacet
  facet normal 0 1 -0
    outer loop
      vertex 3.805 15.045 2.06
      vertex 2 15.045 15
      vertex 3.805 15.045 15
    endloop
  endfacet
  facet normal 0 1 0
    outer loop
      vertex 2 15.045 15
      vertex 3.805 15.045 2.06
      vertex 2 15.045 2.06
    endloop
  endfacet
  facet normal 0 1 -0
    outer loop
      vertex 21.4 15.045 2.06
      vertex 19.595 15.045 15
      vertex 21.4 15.045 15
    endloop
  endfacet
  facet normal 0 1 0
    outer loop
      vertex 19.595 15.045 15
      vertex 21.4 15.045 2.06
      vertex 19.595 15.045 2.06
    endloop
  endfacet
  facet normal 0 1 -0
    outer loop
      vertex 3.86725 5.895 2.06
      vertex 3.805 5.895 15
      vertex 3.86725 5.895 15
    endloop
  endfacet
  facet normal 0 1 0
    outer loop
      vertex 3.805 5.895 15
      vertex 3.86725 5.895 2.06
      vertex 3.805 5.895 2.06
    endloop
  endfacet
  facet normal 1 -0 0
    outer loop
      vertex 2 15.045 15
      vertex 2 23.845 2.06
      vertex 2 23.845 15
    endloop
  endfacet
  facet normal 1 0 0
    outer loop
      vertex 2 23.845 2.06
      vertex 2 15.045 15
      vertex 2 15.045 2.06
    endloop
  endfacet
  facet normal -1 0 0
    outer loop
      vertex 21.4 15.045 2.06
      vertex 21.4 23.845 15
      vertex 21.4 23.845 2.06
    endloop
  endfacet
  facet normal -1 -0 0
    outer loop
      vertex 21.4 23.845 15
      vertex 21.4 15.045 2.06
      vertex 21.4 15.045 15
    endloop
  endfacet
  facet normal 0 -1 0
    outer loop
      vertex 2 23.845 2.06
      vertex 21.4 23.845 15
      vertex 2 23.845 15
    endloop
  endfacet
  facet normal 0 -1 -0
    outer loop
      vertex 21.4 23.845 15
      vertex 2 23.845 2.06
      vertex 21.4 23.845 2.06
    endloop
  endfacet
  facet normal 1 -0 0
    outer loop
      vertex 25.2673 4.90549 15
      vertex 25.2673 5.895 2.06
      vertex 25.2673 5.895 15
    endloop
  endfacet
  facet normal 1 0 0
    outer loop
      vertex 25.2673 5.895 2.06
      vertex 25.2673 4.90549 15
      vertex 25.2673 4.90549 2.06
    endloop
  endfacet
  facet normal -0.992115 0.125333 0
    outer loop
      vertex 40.747 3.93159 2.06
      vertex 40.995 5.895 15
      vertex 40.995 5.895 2.06
    endloop
  endfacet
  facet normal -0.992115 0.125333 0
    outer loop
      vertex 40.995 5.895 15
      vertex 40.747 3.93159 2.06
      vertex 40.747 3.93159 15
    endloop
  endfacet
  facet normal 0 0 1
    outer loop
      vertex 42.8 23.845 2.06
      vertex 40.995 15.045 2.06
      vertex 42.8 15.045 2.06
    endloop
  endfacet
  facet normal 0 0 1
    outer loop
      vertex 25.2673 5.895 2.06
      vertex 40.995 5.895 2.06
      vertex 40.995 15.045 2.06
    endloop
  endfacet
  facet normal 0 -0 1
    outer loop
      vertex 38.2623 0 2.06
      vertex 40.995 5.895 2.06
      vertex 25.2673 5.895 2.06
    endloop
  endfacet
  facet normal 0 0 1
    outer loop
      vertex 40.995 5.895 2.06
      vertex 38.2623 0 2.06
      vertex 40.747 3.93159 2.06
    endloop
  endfacet
  facet normal 0 0 1
    outer loop
      vertex 40.747 3.93159 2.06
      vertex 38.2623 0 2.06
      vertex 40.0184 2.09155 2.06
    endloop
  endfacet
  facet normal 0 0 1
    outer loop
      vertex 40.0184 2.09155 2.06
      vertex 38.2623 0 2.06
      vertex 38.8552 0.4905 2.06
    endloop
  endfacet
  facet normal 0 0 1
    outer loop
      vertex 25.205 15.045 2.06
      vertex 40.995 15.045 2.06
      vertex 42.8 23.845 2.06
    endloop
  endfacet
  facet normal 0 0 1
    outer loop
      vertex 38.2623 0 2.06
      vertex 25.2673 5.895 2.06
      vertex 27.8908 0 2.06
    endloop
  endfacet
  facet normal 0 0 1
    outer loop
      vertex 27.8908 0 2.06
      vertex 25.2673 5.895 2.06
      vertex 26.7128 1.25443 2.06
    endloop
  endfacet
  facet normal 0 0 1
    outer loop
      vertex 26.7128 1.25443 2.06
      vertex 25.2673 5.895 2.06
      vertex 25.7594 2.98866 2.06
    endloop
  endfacet
  facet normal 0 0 1
    outer loop
      vertex 40.995 15.045 2.06
      vertex 25.205 15.045 2.06
      vertex 25.2673 5.895 2.06
    endloop
  endfacet
  facet normal -0 0 1
    outer loop
      vertex 23.4 23.845 2.06
      vertex 25.205 15.045 2.06
      vertex 42.8 23.845 2.06
    endloop
  endfacet
  facet normal 0 0 1
    outer loop
      vertex 25.205 15.045 2.06
      vertex 23.4 23.845 2.06
      vertex 23.4 15.045 2.06
    endloop
  endfacet
  facet normal 0 0 1
    outer loop
      vertex 25.7594 2.98866 2.06
      vertex 25.2673 5.895 2.06
      vertex 25.2673 4.90549 2.06
    endloop
  endfacet
  facet normal 0 0 1
    outer loop
      vertex 25.2673 5.895 2.06
      vertex 25.205 15.045 2.06
      vertex 25.205 5.895 2.06
    endloop
  endfacet
  facet normal -0.809017 0.587786 0
    outer loop
      vertex 38.8552 0.4905 2.06
      vertex 40.0184 2.09155 15
      vertex 40.0184 2.09155 2.06
    endloop
  endfacet
  facet normal -0.809017 0.587786 0
    outer loop
      vertex 40.0184 2.09155 15
      vertex 38.8552 0.4905 2.06
      vertex 38.8552 0.4905 15
    endloop
  endfacet
  facet normal -0.929776 0.368125 0
    outer loop
      vertex 40.0184 2.09155 2.06
      vertex 40.747 3.93159 15
      vertex 40.747 3.93159 2.06
    endloop
  endfacet
  facet normal -0.929776 0.368125 0
    outer loop
      vertex 40.747 3.93159 15
      vertex 40.0184 2.09155 2.06
      vertex 40.0184 2.09155 15
    endloop
  endfacet
  facet normal 0.728969 0.684547 0
    outer loop
      vertex 27.8908 0 15
      vertex 26.7128 1.25443 2.06
      vertex 26.7128 1.25443 15
    endloop
  endfacet
  facet normal 0.728969 0.684547 0
    outer loop
      vertex 26.7128 1.25443 2.06
      vertex 27.8908 0 15
      vertex 27.8908 0 2.06
    endloop
  endfacet
  facet normal 0.876307 0.481753 0
    outer loop
      vertex 26.7128 1.25443 15
      vertex 25.7594 2.98866 2.06
      vertex 25.7594 2.98866 15
    endloop
  endfacet
  facet normal 0.876307 0.481753 0
    outer loop
      vertex 25.7594 2.98866 2.06
      vertex 26.7128 1.25443 15
      vertex 26.7128 1.25443 2.06
    endloop
  endfacet
  facet normal 0.968583 0.24869 0
    outer loop
      vertex 25.7594 2.98866 15
      vertex 25.2673 4.90549 2.06
      vertex 25.2673 4.90549 15
    endloop
  endfacet
  facet normal 0.968583 0.24869 0
    outer loop
      vertex 25.2673 4.90549 2.06
      vertex 25.7594 2.98866 15
      vertex 25.7594 2.98866 2.06
    endloop
  endfacet
  facet normal -0.637426 0.770512 0
    outer loop
      vertex 38.8552 0.4905 2.06
      vertex 38.2623 0 15
      vertex 38.8552 0.4905 15
    endloop
  endfacet
  facet normal -0.637426 0.770512 0
    outer loop
      vertex 38.2623 0 15
      vertex 38.8552 0.4905 2.06
      vertex 38.2623 0 2.06
    endloop
  endfacet
  facet normal 1 -0 0
    outer loop
      vertex 25.205 5.895 15
      vertex 25.205 15.045 2.06
      vertex 25.205 15.045 15
    endloop
  endfacet
  facet normal 1 0 0
    outer loop
      vertex 25.205 15.045 2.06
      vertex 25.205 5.895 15
      vertex 25.205 5.895 2.06
    endloop
  endfacet
  facet normal -1 0 0
    outer loop
      vertex 40.995 5.895 2.06
      vertex 40.995 15.045 15
      vertex 40.995 15.045 2.06
    endloop
  endfacet
  facet normal -1 -0 0
    outer loop
      vertex 40.995 15.045 15
      vertex 40.995 5.895 2.06
      vertex 40.995 5.895 15
    endloop
  endfacet
  facet normal 0 1 -0
    outer loop
      vertex 25.205 15.045 2.06
      vertex 23.4 15.045 15
      vertex 25.205 15.045 15
    endloop
  endfacet
  facet normal 0 1 0
    outer loop
      vertex 23.4 15.045 15
      vertex 25.205 15.045 2.06
      vertex 23.4 15.045 2.06
    endloop
  endfacet
  facet normal 0 1 -0
    outer loop
      vertex 42.8 15.045 2.06
      vertex 40.995 15.045 15
      vertex 42.8 15.045 15
    endloop
  endfacet
  facet normal 0 1 0
    outer loop
      vertex 40.995 15.045 15
      vertex 42.8 15.045 2.06
      vertex 40.995 15.045 2.06
    endloop
  endfacet
  facet normal 0 1 -0
    outer loop
      vertex 25.2673 5.895 2.06
      vertex 25.205 5.895 15
      vertex 25.2673 5.895 15
    endloop
  endfacet
  facet normal 0 1 0
    outer loop
      vertex 25.205 5.895 15
      vertex 25.2673 5.895 2.06
      vertex 25.205 5.895 2.06
    endloop
  endfacet
  facet normal 1 -0 0
    outer loop
      vertex 23.4 15.045 15
      vertex 23.4 23.845 2.06
      vertex 23.4 23.845 15
    endloop
  endfacet
  facet normal 1 0 0
    outer loop
      vertex 23.4 23.845 2.06
      vertex 23.4 15.045 15
      vertex 23.4 15.045 2.06
    endloop
  endfacet
  facet normal -1 0 0
    outer loop
      vertex 42.8 15.045 2.06
      vertex 42.8 23.845 15
      vertex 42.8 23.845 2.06
    endloop
  endfacet
  facet normal -1 -0 0
    outer loop
      vertex 42.8 23.845 15
      vertex 42.8 15.045 2.06
      vertex 42.8 15.045 15
    endloop
  endfacet
  facet normal 0 -1 0
    outer loop
      vertex 23.4 23.845 2.06
      vertex 42.8 23.845 15
      vertex 23.4 23.845 15
    endloop
  endfacet
  facet normal 0 -1 -0
    outer loop
      vertex 42.8 23.845 15
      vertex 23.4 23.845 2.06
      vertex 42.8 23.845 2.06
    endloop
  endfacet
  facet normal -1 0 0
    outer loop
      vertex 0 0 0
      vertex 0 62 15
      vertex 0 62 0
    endloop
  endfacet
  facet normal -1 -0 0
    outer loop
      vertex 0 62 15
      vertex 0 0 0
      vertex 0 0 15
    endloop
  endfacet
  facet normal 1 -0 0
    outer loop
      vertex 110 0 15
      vertex 110 62 0
      vertex 110 62 15
    endloop
  endfacet
  facet normal 1 0 0
    outer loop
      vertex 110 62 0
      vertex 110 0 15
      vertex 110 0 0
    endloop
  endfacet
  facet normal 0 1 -0
    outer loop
      vertex 110 62 0
      vertex 106 62 15
      vertex 110 62 15
    endloop
  endfacet
  facet normal 0 1 0
    outer loop
      vertex 106 62 15
      vertex 110 62 0
      vertex 106 62 0
    endloop
  endfacet
  facet normal 0 1 -0
    outer loop
      vertex 4 62 0
      vertex 0 62 15
      vertex 4 62 15
    endloop
  endfacet
  facet normal 0 1 0
    outer loop
      vertex 0 62 15
      vertex 4 62 0
      vertex 0 62 0
    endloop
  endfacet
  facet normal 0 1 -0
    outer loop
      vertex 57.56 62 0
      vertex 52.44 62 15
      vertex 57.56 62 15
    endloop
  endfacet
  facet normal 0 1 0
    outer loop
      vertex 52.44 62 15
      vertex 57.56 62 0
      vertex 52.44 62 0
    endloop
  endfacet
  facet normal 0 0 -1
    outer loop
      vertex 90.7 0 0
      vertex 84.7 0 0
      vertex 90.7 15.3 0
    endloop
  endfacet
  facet normal 0 0 -1
    outer loop
      vertex 90.7 15.3 0
      vertex 106 46.02 0
      vertex 106 15.3 0
    endloop
  endfacet
  facet normal 0 0 -1
    outer loop
      vertex 84.7 15.3 0
      vertex 90.7 15.3 0
      vertex 84.7 0 0
    endloop
  endfacet
  facet normal 0 0 -1
    outer loop
      vertex 84.7 15.3 0
      vertex 106 46.02 0
      vertex 90.7 15.3 0
    endloop
  endfacet
  facet normal 0 0 -1
    outer loop
      vertex 57.56 46.02 0
      vertex 84.7 15.3 0
      vertex 69.4 15.3 0
    endloop
  endfacet
  facet normal 0 0 -1
    outer loop
      vertex 84.7 15.3 0
      vertex 57.56 46.02 0
      vertex 106 46.02 0
    endloop
  endfacet
  facet normal 0 0 -1
    outer loop
      vertex 106 15.3 0
      vertex 110 0 0
      vertex 106 0 0
    endloop
  endfacet
  facet normal 0 0 -1
    outer loop
      vertex 106 46.02 0
      vertex 110 0 0
      vertex 106 15.3 0
    endloop
  endfacet
  facet normal 0 0 -1
    outer loop
      vertex 110 0 0
      vertex 106 46.02 0
      vertex 110 62 0
    endloop
  endfacet
  facet normal -0 0 -1
    outer loop
      vertex 110 62 0
      vertex 106 46.02 0
      vertex 106 62 0
    endloop
  endfacet
  facet normal 0 0 -1
    outer loop
      vertex 0 0 0
      vertex 69.4 15.3 0
      vertex 69.4 0 0
    endloop
  endfacet
  facet normal 0 0 -1
    outer loop
      vertex 57.56 46.02 0
      vertex 52.44 46.02 0
      vertex 57.56 62 0
    endloop
  endfacet
  facet normal 0 0 -1
    outer loop
      vertex 69.4 15.3 0
      vertex 52.44 46.02 0
      vertex 57.56 46.02 0
    endloop
  endfacet
  facet normal -0 0 -1
    outer loop
      vertex 69.4 15.3 0
      vertex 0 0 0
      vertex 52.44 46.02 0
    endloop
  endfacet
  facet normal -0 0 -1
    outer loop
      vertex 52.44 46.02 0
      vertex 0 0 0
      vertex 4 46.02 0
    endloop
  endfacet
  facet normal 0 0 -1
    outer loop
      vertex 0 62 0
      vertex 4 46.02 0
      vertex 0 0 0
    endloop
  endfacet
  facet normal 0 0 -1
    outer loop
      vertex 4 46.02 0
      vertex 0 62 0
      vertex 4 62 0
    endloop
  endfacet
  facet normal -0 0 -1
    outer loop
      vertex 57.56 62 0
      vertex 52.44 46.02 0
      vertex 52.44 62 0
    endloop
  endfacet
  facet normal 0 -1 0
    outer loop
      vertex 0 0 15
      vertex 6.4908 0 2.06
      vertex 6.4908 0 15
    endloop
  endfacet
  facet normal 0 -1 0
    outer loop
      vertex 0 0 0
      vertex 16.8623 0 2.06
      vertex 6.4908 0 2.06
    endloop
  endfacet
  facet normal 0 -1 -0
    outer loop
      vertex 16.8623 0 2.06
      vertex 0 0 0
      vertex 27.8908 0 2.06
    endloop
  endfacet
  facet normal 0 -1 -0
    outer loop
      vertex 27.8908 0 2.06
      vertex 0 0 0
      vertex 38.2623 0 2.06
    endloop
  endfacet
  facet normal 0 -1 0
    outer loop
      vertex 0 0 0
      vertex 6.4908 0 2.06
      vertex 0 0 15
    endloop
  endfacet
  facet normal 0 -1 0
    outer loop
      vertex 16.8623 0 2.06
      vertex 27.8908 0 15
      vertex 16.8623 0 15
    endloop
  endfacet
  facet normal 0 -1 -0
    outer loop
      vertex 27.8908 0 15
      vertex 16.8623 0 2.06
      vertex 27.8908 0 2.06
    endloop
  endfacet
  facet normal 0 -1 0
    outer loop
      vertex 38.2623 0 2.06
      vertex 69.4 0 15
      vertex 38.2623 0 15
    endloop
  endfacet
  facet normal 0 -1 0
    outer loop
      vertex 38.2623 0 2.06
      vertex 69.4 0 0
      vertex 69.4 0 15
    endloop
  endfacet
  facet normal 0 -1 0
    outer loop
      vertex 69.4 0 0
      vertex 38.2623 0 2.06
      vertex 0 0 0
    endloop
  endfacet
  facet normal 0 -1 0
    outer loop
      vertex 106 0 0
      vertex 110 0 15
      vertex 106 0 15
    endloop
  endfacet
  facet normal 0 -1 -0
    outer loop
      vertex 110 0 15
      vertex 106 0 0
      vertex 110 0 0
    endloop
  endfacet
  facet normal 0 -1 0
    outer loop
      vertex 84.7 0 0
      vertex 90.7 0 15
      vertex 84.7 0 15
    endloop
  endfacet
  facet normal 0 -1 -0
    outer loop
      vertex 90.7 0 15
      vertex 84.7 0 0
      vertex 90.7 0 0
    endloop
  endfacet
  facet normal 1 -0 0
    outer loop
      vertex 88.7 2 15
      vertex 88.7 21.3 3.72
      vertex 88.7 21.3 15
    endloop
  endfacet
  facet normal 1 0 0
    outer loop
      vertex 88.7 21.3 3.72
      vertex 88.7 2 15
      vertex 88.7 2 3.72
    endloop
  endfacet
  facet normal -1 0 0
    outer loop
      vertex 108 2 3.72
      vertex 108 21.3 15
      vertex 108 21.3 3.72
    endloop
  endfacet
  facet normal -1 -0 0
    outer loop
      vertex 108 21.3 15
      vertex 108 2 3.72
      vertex 108 2 15
    endloop
  endfacet
  facet normal 0 -1 0
    outer loop
      vertex 88.7 21.3 3.72
      vertex 108 21.3 15
      vertex 88.7 21.3 15
    endloop
  endfacet
  facet normal 0 -1 -0
    outer loop
      vertex 108 21.3 15
      vertex 88.7 21.3 3.72
      vertex 108 21.3 3.72
    endloop
  endfacet
  facet normal 0 0 1
    outer loop
      vertex 108 21.3 3.72
      vertex 106 15.3 3.72
      vertex 108 2 3.72
    endloop
  endfacet
  facet normal 0 0 1
    outer loop
      vertex 108 21.3 3.72
      vertex 90.7 15.3 3.72
      vertex 106 15.3 3.72
    endloop
  endfacet
  facet normal -0 0 1
    outer loop
      vertex 88.7 21.3 3.72
      vertex 90.7 15.3 3.72
      vertex 108 21.3 3.72
    endloop
  endfacet
  facet normal 0 0 1
    outer loop
      vertex 88.7 2 3.72
      vertex 90.7 15.3 3.72
      vertex 88.7 21.3 3.72
    endloop
  endfacet
  facet normal 0 0 1
    outer loop
      vertex 90.7 15.3 3.72
      vertex 88.7 2 3.72
      vertex 90.7 2 3.72
    endloop
  endfacet
  facet normal 0 0 1
    outer loop
      vertex 108 2 3.72
      vertex 106 15.3 3.72
      vertex 106 2 3.72
    endloop
  endfacet
  facet normal 0 1 -0
    outer loop
      vertex 90.7 2 3.72
      vertex 88.7 2 15
      vertex 90.7 2 15
    endloop
  endfacet
  facet normal 0 1 0
    outer loop
      vertex 88.7 2 15
      vertex 90.7 2 3.72
      vertex 88.7 2 3.72
    endloop
  endfacet
  facet normal 0 1 -0
    outer loop
      vertex 108 2 3.72
      vertex 106 2 15
      vertex 108 2 15
    endloop
  endfacet
  facet normal 0 1 0
    outer loop
      vertex 106 2 15
      vertex 108 2 3.72
      vertex 106 2 3.72
    endloop
  endfacet
  facet normal 1 0 0
    outer loop
      vertex 90.7 2 15
      vertex 90.7 0 15
      vertex 90.7 2 3.72
    endloop
  endfacet
  facet normal 1 -0 0
    outer loop
      vertex 90.7 2 3.72
      vertex 90.7 15.3 0
      vertex 90.7 15.3 3.72
    endloop
  endfacet
  facet normal 1 0 0
    outer loop
      vertex 90.7 2 3.72
      vertex 90.7 0 0
      vertex 90.7 15.3 0
    endloop
  endfacet
  facet normal 1 0 0
    outer loop
      vertex 90.7 0 0
      vertex 90.7 2 3.72
      vertex 90.7 0 15
    endloop
  endfacet
  facet normal -1 0 0
    outer loop
      vertex 106 15.3 0
      vertex 106 2 3.72
      vertex 106 15.3 3.72
    endloop
  endfacet
  facet normal -1 0 0
    outer loop
      vertex 106 0 0
      vertex 106 2 3.72
      vertex 106 15.3 0
    endloop
  endfacet
  facet normal -1 0 0
    outer loop
      vertex 106 0 15
      vertex 106 2 3.72
      vertex 106 0 0
    endloop
  endfacet
  facet normal -1 0 0
    outer loop
      vertex 106 2 3.72
      vertex 106 0 15
      vertex 106 2 15
    endloop
  endfacet
  facet normal 0 -1 0
    outer loop
      vertex 90.7 15.3 0
      vertex 106 15.3 3.72
      vertex 90.7 15.3 3.72
    endloop
  endfacet
  facet normal 0 -1 -0
    outer loop
      vertex 106 15.3 3.72
      vertex 90.7 15.3 0
      vertex 106 15.3 0
    endloop
  endfacet
  facet normal 1 -0 0
    outer loop
      vertex 67.4 2 15
      vertex 67.4 21.3 1.56
      vertex 67.4 21.3 15
    endloop
  endfacet
  facet normal 1 0 0
    outer loop
      vertex 67.4 21.3 1.56
      vertex 67.4 2 15
      vertex 67.4 2 1.56
    endloop
  endfacet
  facet normal -1 0 0
    outer loop
      vertex 86.7 2 1.56
      vertex 86.7 21.3 15
      vertex 86.7 21.3 1.56
    endloop
  endfacet
  facet normal -1 -0 0
    outer loop
      vertex 86.7 21.3 15
      vertex 86.7 2 1.56
      vertex 86.7 2 15
    endloop
  endfacet
  facet normal 0 -1 0
    outer loop
      vertex 67.4 21.3 1.56
      vertex 86.7 21.3 15
      vertex 67.4 21.3 15
    endloop
  endfacet
  facet normal 0 -1 -0
    outer loop
      vertex 86.7 21.3 15
      vertex 67.4 21.3 1.56
      vertex 86.7 21.3 1.56
    endloop
  endfacet
  facet normal 0 0 1
    outer loop
      vertex 86.7 21.3 1.56
      vertex 84.7 15.3 1.56
      vertex 86.7 2 1.56
    endloop
  endfacet
  facet normal 0 0 1
    outer loop
      vertex 86.7 21.3 1.56
      vertex 69.4 15.3 1.56
      vertex 84.7 15.3 1.56
    endloop
  endfacet
  facet normal -0 0 1
    outer loop
      vertex 67.4 21.3 1.56
      vertex 69.4 15.3 1.56
      vertex 86.7 21.3 1.56
    endloop
  endfacet
  facet normal 0 0 1
    outer loop
      vertex 67.4 2 1.56
      vertex 69.4 15.3 1.56
      vertex 67.4 21.3 1.56
    endloop
  endfacet
  facet normal 0 0 1
    outer loop
      vertex 69.4 15.3 1.56
      vertex 67.4 2 1.56
      vertex 69.4 2 1.56
    endloop
  endfacet
  facet normal 0 0 1
    outer loop
      vertex 86.7 2 1.56
      vertex 84.7 15.3 1.56
      vertex 84.7 2 1.56
    endloop
  endfacet
  facet normal 0 1 -0
    outer loop
      vertex 69.4 2 1.56
      vertex 67.4 2 15
      vertex 69.4 2 15
    endloop
  endfacet
  facet normal 0 1 0
    outer loop
      vertex 67.4 2 15
      vertex 69.4 2 1.56
      vertex 67.4 2 1.56
    endloop
  endfacet
  facet normal 0 1 -0
    outer loop
      vertex 86.7 2 1.56
      vertex 84.7 2 15
      vertex 86.7 2 15
    endloop
  endfacet
  facet normal 0 1 0
    outer loop
      vertex 84.7 2 15
      vertex 86.7 2 1.56
      vertex 84.7 2 1.56
    endloop
  endfacet
  facet normal 1 0 0
    outer loop
      vertex 69.4 2 15
      vertex 69.4 0 15
      vertex 69.4 2 1.56
    endloop
  endfacet
  facet normal 1 -0 0
    outer loop
      vertex 69.4 2 1.56
      vertex 69.4 15.3 0
      vertex 69.4 15.3 1.56
    endloop
  endfacet
  facet normal 1 0 0
    outer loop
      vertex 69.4 2 1.56
      vertex 69.4 0 0
      vertex 69.4 15.3 0
    endloop
  endfacet
  facet normal 1 0 0
    outer loop
      vertex 69.4 0 0
      vertex 69.4 2 1.56
      vertex 69.4 0 15
    endloop
  endfacet
  facet normal -1 0 0
    outer loop
      vertex 84.7 15.3 0
      vertex 84.7 2 1.56
      vertex 84.7 15.3 1.56
    endloop
  endfacet
  facet normal -1 0 0
    outer loop
      vertex 84.7 0 0
      vertex 84.7 2 1.56
      vertex 84.7 15.3 0
    endloop
  endfacet
  facet normal -1 0 0
    outer loop
      vertex 84.7 0 15
      vertex 84.7 2 1.56
      vertex 84.7 0 0
    endloop
  endfacet
  facet normal -1 0 0
    outer loop
      vertex 84.7 2 1.56
      vertex 84.7 0 15
      vertex 84.7 2 15
    endloop
  endfacet
  facet normal 0 -1 0
    outer loop
      vertex 69.4 15.3 0
      vertex 84.7 15.3 1.56
      vertex 69.4 15.3 1.56
    endloop
  endfacet
  facet normal 0 -1 -0
    outer loop
      vertex 84.7 15.3 1.56
      vertex 69.4 15.3 0
      vertex 84.7 15.3 0
    endloop
  endfacet
  facet normal 1 -0 0
    outer loop
      vertex 2 40.02 15
      vertex 2 60 3.69
      vertex 2 60 15
    endloop
  endfacet
  facet normal 1 0 0
    outer loop
      vertex 2 60 3.69
      vertex 2 40.02 15
      vertex 2 40.02 3.69
    endloop
  endfacet
  facet normal -1 0 0
    outer loop
      vertex 54.44 40.02 3.69
      vertex 54.44 60 15
      vertex 54.44 60 3.69
    endloop
  endfacet
  facet normal -1 -0 0
    outer loop
      vertex 54.44 60 15
      vertex 54.44 40.02 3.69
      vertex 54.44 40.02 15
    endloop
  endfacet
  facet normal 0 -1 0
    outer loop
      vertex 52.44 60 3.69
      vertex 54.44 60 15
      vertex 52.44 60 15
    endloop
  endfacet
  facet normal 0 -1 -0
    outer loop
      vertex 54.44 60 15
      vertex 52.44 60 3.69
      vertex 54.44 60 3.69
    endloop
  endfacet
  facet normal 0 -1 0
    outer loop
      vertex 2 60 3.69
      vertex 4 60 15
      vertex 2 60 15
    endloop
  endfacet
  facet normal 0 -1 -0
    outer loop
      vertex 4 60 15
      vertex 2 60 3.69
      vertex 4 60 3.69
    endloop
  endfacet
  facet normal 0 0 1
    outer loop
      vertex 4 60 3.69
      vertex 2 60 3.69
      vertex 4 46.02 3.69
    endloop
  endfacet
  facet normal 0 0 1
    outer loop
      vertex 52.44 46.02 3.69
      vertex 54.44 60 3.69
      vertex 52.44 60 3.69
    endloop
  endfacet
  facet normal 0 0 1
    outer loop
      vertex 54.44 60 3.69
      vertex 52.44 46.02 3.69
      vertex 54.44 40.02 3.69
    endloop
  endfacet
  facet normal -0 0 1
    outer loop
      vertex 4 46.02 3.69
      vertex 54.44 40.02 3.69
      vertex 52.44 46.02 3.69
    endloop
  endfacet
  facet normal 0 0 1
    outer loop
      vertex 4 46.02 3.69
      vertex 2 40.02 3.69
      vertex 54.44 40.02 3.69
    endloop
  endfacet
  facet normal 0 0 1
    outer loop
      vertex 2 40.02 3.69
      vertex 4 46.02 3.69
      vertex 2 60 3.69
    endloop
  endfacet
  facet normal 0 1 -0
    outer loop
      vertex 54.44 40.02 3.69
      vertex 2 40.02 15
      vertex 54.44 40.02 15
    endloop
  endfacet
  facet normal 0 1 0
    outer loop
      vertex 2 40.02 15
      vertex 54.44 40.02 3.69
      vertex 2 40.02 3.69
    endloop
  endfacet
  facet normal 1 0 0
    outer loop
      vertex 4 60 3.69
      vertex 4 62 15
      vertex 4 60 15
    endloop
  endfacet
  facet normal 1 0 0
    outer loop
      vertex 4 62 15
      vertex 4 60 3.69
      vertex 4 62 0
    endloop
  endfacet
  facet normal 1 0 0
    outer loop
      vertex 4 46.02 0
      vertex 4 60 3.69
      vertex 4 46.02 3.69
    endloop
  endfacet
  facet normal 1 0 0
    outer loop
      vertex 4 60 3.69
      vertex 4 46.02 0
      vertex 4 62 0
    endloop
  endfacet
  facet normal -1 0 0
    outer loop
      vertex 52.44 62 0
      vertex 52.44 60 3.69
      vertex 52.44 62 15
    endloop
  endfacet
  facet normal -1 0 0
    outer loop
      vertex 52.44 46.02 0
      vertex 52.44 60 3.69
      vertex 52.44 62 0
    endloop
  endfacet
  facet normal -1 -0 0
    outer loop
      vertex 52.44 60 3.69
      vertex 52.44 46.02 0
      vertex 52.44 46.02 3.69
    endloop
  endfacet
  facet normal -1 -0 0
    outer loop
      vertex 52.44 62 15
      vertex 52.44 60 3.69
      vertex 52.44 60 15
    endloop
  endfacet
  facet normal 0 1 -0
    outer loop
      vertex 52.44 46.02 0
      vertex 4 46.02 3.69
      vertex 52.44 46.02 3.69
    endloop
  endfacet
  facet normal 0 1 0
    outer loop
      vertex 4 46.02 3.69
      vertex 52.44 46.02 0
      vertex 4 46.02 0
    endloop
  endfacet
  facet normal 1 -0 0
    outer loop
      vertex 55.56 40.02 15
      vertex 55.56 60 3.69
      vertex 55.56 60 15
    endloop
  endfacet
  facet normal 1 0 0
    outer loop
      vertex 55.56 60 3.69
      vertex 55.56 40.02 15
      vertex 55.56 40.02 3.69
    endloop
  endfacet
  facet normal -1 0 0
    outer loop
      vertex 108 40.02 3.69
      vertex 108 60 15
      vertex 108 60 3.69
    endloop
  endfacet
  facet normal -1 -0 0
    outer loop
      vertex 108 60 15
      vertex 108 40.02 3.69
      vertex 108 40.02 15
    endloop
  endfacet
  facet normal 0 -1 0
    outer loop
      vertex 106 60 3.69
      vertex 108 60 15
      vertex 106 60 15
    endloop
  endfacet
  facet normal 0 -1 -0
    outer loop
      vertex 108 60 15
      vertex 106 60 3.69
      vertex 108 60 3.69
    endloop
  endfacet
  facet normal 0 -1 0
    outer loop
      vertex 55.56 60 3.69
      vertex 57.56 60 15
      vertex 55.56 60 15
    endloop
  endfacet
  facet normal 0 -1 -0
    outer loop
      vertex 57.56 60 15
      vertex 55.56 60 3.69
      vertex 57.56 60 3.69
    endloop
  endfacet
  facet normal 0 0 1
    outer loop
      vertex 57.56 60 3.69
      vertex 55.56 60 3.69
      vertex 57.56 46.02 3.69
    endloop
  endfacet
  facet normal 0 0 1
    outer loop
      vertex 106 46.02 3.69
      vertex 108 60 3.69
      vertex 106 60 3.69
    endloop
  endfacet
  facet normal 0 0 1
    outer loop
      vertex 108 60 3.69
      vertex 106 46.02 3.69
      vertex 108 40.02 3.69
    endloop
  endfacet
  facet normal -0 0 1
    outer loop
      vertex 57.56 46.02 3.69
      vertex 108 40.02 3.69
      vertex 106 46.02 3.69
    endloop
  endfacet
  facet normal 0 0 1
    outer loop
      vertex 57.56 46.02 3.69
      vertex 55.56 40.02 3.69
      vertex 108 40.02 3.69
    endloop
  endfacet
  facet normal 0 0 1
    outer loop
      vertex 55.56 40.02 3.69
      vertex 57.56 46.02 3.69
      vertex 55.56 60 3.69
    endloop
  endfacet
  facet normal 0 1 -0
    outer loop
      vertex 108 40.02 3.69
      vertex 55.56 40.02 15
      vertex 108 40.02 15
    endloop
  endfacet
  facet normal 0 1 0
    outer loop
      vertex 55.56 40.02 15
      vertex 108 40.02 3.69
      vertex 55.56 40.02 3.69
    endloop
  endfacet
  facet normal 1 0 0
    outer loop
      vertex 57.56 60 3.69
      vertex 57.56 62 15
      vertex 57.56 60 15
    endloop
  endfacet
  facet normal 1 0 0
    outer loop
      vertex 57.56 62 15
      vertex 57.56 60 3.69
      vertex 57.56 62 0
    endloop
  endfacet
  facet normal 1 0 0
    outer loop
      vertex 57.56 46.02 0
      vertex 57.56 60 3.69
      vertex 57.56 46.02 3.69
    endloop
  endfacet
  facet normal 1 0 0
    outer loop
      vertex 57.56 60 3.69
      vertex 57.56 46.02 0
      vertex 57.56 62 0
    endloop
  endfacet
  facet normal -1 0 0
    outer loop
      vertex 106 62 0
      vertex 106 60 3.69
      vertex 106 62 15
    endloop
  endfacet
  facet normal -1 0 0
    outer loop
      vertex 106 46.02 0
      vertex 106 60 3.69
      vertex 106 62 0
    endloop
  endfacet
  facet normal -1 -0 0
    outer loop
      vertex 106 60 3.69
      vertex 106 46.02 0
      vertex 106 46.02 3.69
    endloop
  endfacet
  facet normal -1 -0 0
    outer loop
      vertex 106 62 15
      vertex 106 60 3.69
      vertex 106 60 15
    endloop
  endfacet
  facet normal 0 1 -0
    outer loop
      vertex 106 46.02 0
      vertex 57.56 46.02 3.69
      vertex 106 46.02 3.69
    endloop
  endfacet
  facet normal 0 1 0
    outer loop
      vertex 57.56 46.02 3.69
      vertex 106 46.02 0
      vertex 57.56 46.02 0
    endloop
  endfacet
  facet normal -0.809018 -0.587784 0
    outer loop
      vertex 61.7476 34.7095 11
      vertex 60.6131 36.271 15
      vertex 60.6131 36.271 11
    endloop
  endfacet
  facet normal -0.809018 -0.587784 0
    outer loop
      vertex 60.6131 36.271 15
      vertex 61.7476 34.7095 11
      vertex 61.7476 34.7095 15
    endloop
  endfacet
  facet normal -0.992115 -0.125333 0
    outer loop
      vertex 62.7 31 11
      vertex 62.4581 32.9149 15
      vertex 62.4581 32.9149 11
    endloop
  endfacet
  facet normal -0.992115 -0.125333 0
    outer loop
      vertex 62.4581 32.9149 15
      vertex 62.7 31 11
      vertex 62.7 31 15
    endloop
  endfacet
  facet normal 0.968583 0.248689 0
    outer loop
      vertex 47.8407 28.1654 15
      vertex 47.3607 30.0349 11
      vertex 47.3607 30.0349 15
    endloop
  endfacet
  facet normal 0.968583 0.248689 0
    outer loop
      vertex 47.3607 30.0349 11
      vertex 47.8407 28.1654 15
      vertex 47.8407 28.1654 11
    endloop
  endfacet
  facet normal -0.637424 -0.770514 0
    outer loop
      vertex 59.1259 37.5013 11
      vertex 60.6131 36.271 15
      vertex 59.1259 37.5013 15
    endloop
  endfacet
  facet normal -0.637424 -0.770514 -0
    outer loop
      vertex 60.6131 36.271 15
      vertex 59.1259 37.5013 11
      vertex 60.6131 36.271 11
    endloop
  endfacet
  facet normal 0.535826 -0.844329 0
    outer loop
      vertex 50.0918 36.933 11
      vertex 51.7215 37.9672 15
      vertex 50.0918 36.933 15
    endloop
  endfacet
  facet normal 0.535826 -0.844329 0
    outer loop
      vertex 51.7215 37.9672 15
      vertex 50.0918 36.933 11
      vertex 51.7215 37.9672 11
    endloop
  endfacet
  facet normal 0.728969 -0.684547 0
    outer loop
      vertex 48.7706 35.5259 15
      vertex 50.0918 36.933 11
      vertex 50.0918 36.933 15
    endloop
  endfacet
  facet normal 0.728969 -0.684547 0
    outer loop
      vertex 50.0918 36.933 11
      vertex 48.7706 35.5259 15
      vertex 48.7706 35.5259 11
    endloop
  endfacet
  facet normal -0.42578 0.904827 0
    outer loop
      vertex 59.1259 24.4987 11
      vertex 57.3794 23.6769 15
      vertex 59.1259 24.4987 15
    endloop
  endfacet
  facet normal -0.42578 0.904827 0
    outer loop
      vertex 57.3794 23.6769 15
      vertex 59.1259 24.4987 11
      vertex 57.3794 23.6769 11
    endloop
  endfacet
  facet normal -0.929776 -0.368126 0
    outer loop
      vertex 62.4581 32.9149 11
      vertex 61.7476 34.7095 15
      vertex 61.7476 34.7095 11
    endloop
  endfacet
  facet normal -0.929776 -0.368126 0
    outer loop
      vertex 61.7476 34.7095 15
      vertex 62.4581 32.9149 11
      vertex 62.4581 32.9149 15
    endloop
  endfacet
  facet normal 0.062792 -0.998027 0
    outer loop
      vertex 53.5572 38.5636 11
      vertex 55.4835 38.6848 15
      vertex 53.5572 38.5636 15
    endloop
  endfacet
  facet normal 0.062792 -0.998027 0
    outer loop
      vertex 55.4835 38.6848 15
      vertex 53.5572 38.5636 11
      vertex 55.4835 38.6848 11
    endloop
  endfacet
  facet normal -0.42578 -0.904827 0
    outer loop
      vertex 57.3794 38.3231 11
      vertex 59.1259 37.5013 15
      vertex 57.3794 38.3231 15
    endloop
  endfacet
  facet normal -0.42578 -0.904827 -0
    outer loop
      vertex 59.1259 37.5013 15
      vertex 57.3794 38.3231 11
      vertex 59.1259 37.5013 11
    endloop
  endfacet
  facet normal 1 -0 0
    outer loop
      vertex 47.3607 30.0349 15
      vertex 47.3607 31.9651 11
      vertex 47.3607 31.9651 15
    endloop
  endfacet
  facet normal 1 0 0
    outer loop
      vertex 47.3607 31.9651 11
      vertex 47.3607 30.0349 15
      vertex 47.3607 30.0349 11
    endloop
  endfacet
  facet normal 0.876307 -0.481753 0
    outer loop
      vertex 47.8407 33.8346 15
      vertex 48.7706 35.5259 11
      vertex 48.7706 35.5259 15
    endloop
  endfacet
  facet normal 0.876307 -0.481753 0
    outer loop
      vertex 48.7706 35.5259 11
      vertex 47.8407 33.8346 15
      vertex 47.8407 33.8346 11
    endloop
  endfacet
  facet normal 0.309017 -0.951056 0
    outer loop
      vertex 51.7215 37.9672 11
      vertex 53.5572 38.5636 15
      vertex 51.7215 37.9672 15
    endloop
  endfacet
  facet normal 0.309017 -0.951056 0
    outer loop
      vertex 53.5572 38.5636 15
      vertex 51.7215 37.9672 11
      vertex 53.5572 38.5636 11
    endloop
  endfacet
  facet normal 0.535826 0.844328 -0
    outer loop
      vertex 51.7215 24.0328 11
      vertex 50.0918 25.067 15
      vertex 51.7215 24.0328 15
    endloop
  endfacet
  facet normal 0.535826 0.844328 0
    outer loop
      vertex 50.0918 25.067 15
      vertex 51.7215 24.0328 11
      vertex 50.0918 25.067 11
    endloop
  endfacet
  facet normal 0.876307 0.481754 0
    outer loop
      vertex 48.7706 26.4741 15
      vertex 47.8407 28.1654 11
      vertex 47.8407 28.1654 15
    endloop
  endfacet
  facet normal 0.876307 0.481754 0
    outer loop
      vertex 47.8407 28.1654 11
      vertex 48.7706 26.4741 15
      vertex 48.7706 26.4741 11
    endloop
  endfacet
  facet normal -0.809018 0.587784 0
    outer loop
      vertex 60.6131 25.729 11
      vertex 61.7476 27.2905 15
      vertex 61.7476 27.2905 11
    endloop
  endfacet
  facet normal -0.809018 0.587784 0
    outer loop
      vertex 61.7476 27.2905 15
      vertex 60.6131 25.729 11
      vertex 60.6131 25.729 15
    endloop
  endfacet
  facet normal -0.187381 -0.982287 0
    outer loop
      vertex 55.4835 38.6848 11
      vertex 57.3794 38.3231 15
      vertex 55.4835 38.6848 15
    endloop
  endfacet
  facet normal -0.187381 -0.982287 -0
    outer loop
      vertex 57.3794 38.3231 15
      vertex 55.4835 38.6848 11
      vertex 57.3794 38.3231 11
    endloop
  endfacet
  facet normal 0.968583 -0.24869 0
    outer loop
      vertex 47.3607 31.9651 15
      vertex 47.8407 33.8346 11
      vertex 47.8407 33.8346 15
    endloop
  endfacet
  facet normal 0.968583 -0.24869 0
    outer loop
      vertex 47.8407 33.8346 11
      vertex 47.3607 31.9651 15
      vertex 47.3607 31.9651 11
    endloop
  endfacet
  facet normal -0.992115 0.125333 0
    outer loop
      vertex 62.4581 29.0851 11
      vertex 62.7 31 15
      vertex 62.7 31 11
    endloop
  endfacet
  facet normal -0.992115 0.125333 0
    outer loop
      vertex 62.7 31 15
      vertex 62.4581 29.0851 11
      vertex 62.4581 29.0851 15
    endloop
  endfacet
  facet normal 0 0 1
    outer loop
      vertex 62.4581 32.9149 11
      vertex 62.4581 29.0851 11
      vertex 62.7 31 11
    endloop
  endfacet
  facet normal 0 0 1
    outer loop
      vertex 61.7476 34.7095 11
      vertex 62.4581 29.0851 11
      vertex 62.4581 32.9149 11
    endloop
  endfacet
  facet normal 0 0 1
    outer loop
      vertex 61.7476 34.7095 11
      vertex 61.7476 27.2905 11
      vertex 62.4581 29.0851 11
    endloop
  endfacet
  facet normal 0 0 1
    outer loop
      vertex 60.6131 36.271 11
      vertex 61.7476 27.2905 11
      vertex 61.7476 34.7095 11
    endloop
  endfacet
  facet normal 0 0 1
    outer loop
      vertex 60.6131 36.271 11
      vertex 60.6131 25.729 11
      vertex 61.7476 27.2905 11
    endloop
  endfacet
  facet normal 0 0 1
    outer loop
      vertex 59.1259 37.5013 11
      vertex 60.6131 25.729 11
      vertex 60.6131 36.271 11
    endloop
  endfacet
  facet normal 0 0 1
    outer loop
      vertex 59.1259 37.5013 11
      vertex 59.1259 24.4987 11
      vertex 60.6131 25.729 11
    endloop
  endfacet
  facet normal 0 0 1
    outer loop
      vertex 57.3794 38.3231 11
      vertex 59.1259 24.4987 11
      vertex 59.1259 37.5013 11
    endloop
  endfacet
  facet normal 0 0 1
    outer loop
      vertex 57.3794 38.3231 11
      vertex 57.3794 23.6769 11
      vertex 59.1259 24.4987 11
    endloop
  endfacet
  facet normal 0 0 1
    outer loop
      vertex 55.4835 38.6848 11
      vertex 57.3794 23.6769 11
      vertex 57.3794 38.3231 11
    endloop
  endfacet
  facet normal 0 0 1
    outer loop
      vertex 55.4835 38.6848 11
      vertex 55.4835 23.3152 11
      vertex 57.3794 23.6769 11
    endloop
  endfacet
  facet normal -0 0 1
    outer loop
      vertex 53.5572 38.5636 11
      vertex 55.4835 23.3152 11
      vertex 55.4835 38.6848 11
    endloop
  endfacet
  facet normal 0 0 1
    outer loop
      vertex 53.5572 38.5636 11
      vertex 53.5572 23.4364 11
      vertex 55.4835 23.3152 11
    endloop
  endfacet
  facet normal -0 0 1
    outer loop
      vertex 51.7215 37.9672 11
      vertex 53.5572 23.4364 11
      vertex 53.5572 38.5636 11
    endloop
  endfacet
  facet normal 0 0 1
    outer loop
      vertex 51.7215 37.9672 11
      vertex 51.7215 24.0328 11
      vertex 53.5572 23.4364 11
    endloop
  endfacet
  facet normal -0 0 1
    outer loop
      vertex 50.0918 36.933 11
      vertex 51.7215 24.0328 11
      vertex 51.7215 37.9672 11
    endloop
  endfacet
  facet normal 0 0 1
    outer loop
      vertex 50.0918 36.933 11
      vertex 50.0918 25.067 11
      vertex 51.7215 24.0328 11
    endloop
  endfacet
  facet normal -0 0 1
    outer loop
      vertex 48.7706 35.5259 11
      vertex 50.0918 25.067 11
      vertex 50.0918 36.933 11
    endloop
  endfacet
  facet normal 0 0 1
    outer loop
      vertex 48.7706 35.5259 11
      vertex 48.7706 26.4741 11
      vertex 50.0918 25.067 11
    endloop
  endfacet
  facet normal -0 0 1
    outer loop
      vertex 47.8407 33.8346 11
      vertex 48.7706 26.4741 11
      vertex 48.7706 35.5259 11
    endloop
  endfacet
  facet normal 0 0 1
    outer loop
      vertex 47.8407 33.8346 11
      vertex 47.8407 28.1654 11
      vertex 48.7706 26.4741 11
    endloop
  endfacet
  facet normal -0 0 1
    outer loop
      vertex 47.3607 31.9651 11
      vertex 47.8407 28.1654 11
      vertex 47.8407 33.8346 11
    endloop
  endfacet
  facet normal 0 0 1
    outer loop
      vertex 47.8407 28.1654 11
      vertex 47.3607 31.9651 11
      vertex 47.3607 30.0349 11
    endloop
  endfacet
  facet normal 0.728969 0.684547 0
    outer loop
      vertex 50.0918 25.067 15
      vertex 48.7706 26.4741 11
      vertex 48.7706 26.4741 15
    endloop
  endfacet
  facet normal 0.728969 0.684547 0
    outer loop
      vertex 48.7706 26.4741 11
      vertex 50.0918 25.067 15
      vertex 50.0918 25.067 11
    endloop
  endfacet
  facet normal -0.637424 0.770514 0
    outer loop
      vertex 60.6131 25.729 11
      vertex 59.1259 24.4987 15
      vertex 60.6131 25.729 15
    endloop
  endfacet
  facet normal -0.637424 0.770514 0
    outer loop
      vertex 59.1259 24.4987 15
      vertex 60.6131 25.729 11
      vertex 59.1259 24.4987 11
    endloop
  endfacet
  facet normal -0.929776 0.368127 0
    outer loop
      vertex 61.7476 27.2905 11
      vertex 62.4581 29.0851 15
      vertex 62.4581 29.0851 11
    endloop
  endfacet
  facet normal -0.929776 0.368127 0
    outer loop
      vertex 62.4581 29.0851 15
      vertex 61.7476 27.2905 11
      vertex 61.7476 27.2905 15
    endloop
  endfacet
  facet normal -0.187381 0.982287 0
    outer loop
      vertex 57.3794 23.6769 11
      vertex 55.4835 23.3152 15
      vertex 57.3794 23.6769 15
    endloop
  endfacet
  facet normal -0.187381 0.982287 0
    outer loop
      vertex 55.4835 23.3152 15
      vertex 57.3794 23.6769 11
      vertex 55.4835 23.3152 11
    endloop
  endfacet
  facet normal 0.062791 0.998027 -0
    outer loop
      vertex 55.4835 23.3152 11
      vertex 53.5572 23.4364 15
      vertex 55.4835 23.3152 15
    endloop
  endfacet
  facet normal 0.062791 0.998027 0
    outer loop
      vertex 53.5572 23.4364 15
      vertex 55.4835 23.3152 11
      vertex 53.5572 23.4364 11
    endloop
  endfacet
  facet normal 0.309017 0.951056 -0
    outer loop
      vertex 53.5572 23.4364 11
      vertex 51.7215 24.0328 15
      vertex 53.5572 23.4364 15
    endloop
  endfacet
  facet normal 0.309017 0.951056 0
    outer loop
      vertex 51.7215 24.0328 15
      vertex 53.5572 23.4364 11
      vertex 51.7215 24.0328 11
    endloop
  endfacet
endsolid OpenSCAD_Model
