solid OpenSCAD_Model
  facet normal -0.42578 -0.904827 0
    outer loop
      vertex 17.1397 1.61359 2
      vertex 18.9304 0.770968 7
      vertex 17.1397 1.61359 7
    endloop
  endfacet
  facet normal -0.42578 -0.904827 -0
    outer loop
      vertex 18.9304 0.770968 7
      vertex 17.1397 1.61359 2
      vertex 18.9304 0.770968 2
    endloop
  endfacet
  facet normal 0.535827 -0.844328 0
    outer loop
      vertex 9.66754 0.188202 2
      vertex 11.3385 1.24861 7
      vertex 9.66754 0.188202 7
    endloop
  endfacet
  facet normal 0.535827 -0.844328 0
    outer loop
      vertex 11.3385 1.24861 7
      vertex 9.66754 0.188202 2
      vertex 11.3385 1.24861 2
    endloop
  endfacet
  facet normal 0.728968 -0.684547 0
    outer loop
      vertex 8.31281 -1.25443 7
      vertex 9.66754 0.188202 2
      vertex 9.66754 0.188202 7
    endloop
  endfacet
  facet normal 0.728968 -0.684547 0
    outer loop
      vertex 9.66754 0.188202 2
      vertex 8.31281 -1.25443 7
      vertex 8.31281 -1.25443 2
    endloop
  endfacet
  facet normal -0.809017 -0.587785 0
    outer loop
      vertex 21.5519 -2 2
      vertex 20.4552 -0.4905 7
      vertex 20.4552 -0.4905 2
    endloop
  endfacet
  facet normal -0.809017 -0.587785 0
    outer loop
      vertex 20.4552 -0.4905 7
      vertex 21.5519 -2 2
      vertex 21.5519 -2 7
    endloop
  endfacet
  facet normal 0 0 1
    outer loop
      vertex 115 0 7
      vertex 113 -2 7
      vertex 115 -67 7
    endloop
  endfacet
  facet normal -0 0 1
    outer loop
      vertex 45.9519 0 7
      vertex 113 -2 7
      vertex 115 0 7
    endloop
  endfacet
  facet normal 0 0 1
    outer loop
      vertex 45.9519 0 7
      vertex 45.9519 -2 7
      vertex 113 -2 7
    endloop
  endfacet
  facet normal 0 0 1
    outer loop
      vertex 44.8552 -0.4905 7
      vertex 45.9519 0 7
      vertex 44.8552 1.5095 7
    endloop
  endfacet
  facet normal 0 0 1
    outer loop
      vertex 45.9519 0 7
      vertex 44.8552 -0.4905 7
      vertex 45.9519 -2 7
    endloop
  endfacet
  facet normal 0 0 1
    outer loop
      vertex 43.3304 0.770968 7
      vertex 44.8552 1.5095 7
      vertex 43.3304 2.77097 7
    endloop
  endfacet
  facet normal 0 0 1
    outer loop
      vertex 44.8552 1.5095 7
      vertex 43.3304 0.770968 7
      vertex 44.8552 -0.4905 7
    endloop
  endfacet
  facet normal 0 0 1
    outer loop
      vertex 41.5397 1.61359 7
      vertex 43.3304 2.77097 7
      vertex 41.5397 3.61359 7
    endloop
  endfacet
  facet normal 0 0 1
    outer loop
      vertex 43.3304 2.77097 7
      vertex 41.5397 1.61359 7
      vertex 43.3304 0.770968 7
    endloop
  endfacet
  facet normal 0 0 1
    outer loop
      vertex 39.5957 1.98442 7
      vertex 41.5397 3.61359 7
      vertex 39.5957 3.98442 7
    endloop
  endfacet
  facet normal 0 0 1
    outer loop
      vertex 41.5397 3.61359 7
      vertex 39.5957 1.98442 7
      vertex 41.5397 1.61359 7
    endloop
  endfacet
  facet normal -0 0 1
    outer loop
      vertex 37.6206 3.86016 7
      vertex 39.5957 1.98442 7
      vertex 39.5957 3.98442 7
    endloop
  endfacet
  facet normal 0 0 1
    outer loop
      vertex 37.6206 3.86016 7
      vertex 37.6206 1.86016 7
      vertex 39.5957 1.98442 7
    endloop
  endfacet
  facet normal -0 0 1
    outer loop
      vertex 35.7385 3.24861 7
      vertex 37.6206 1.86016 7
      vertex 37.6206 3.86016 7
    endloop
  endfacet
  facet normal 0 0 1
    outer loop
      vertex 35.7385 3.24861 7
      vertex 35.7385 1.24861 7
      vertex 37.6206 1.86016 7
    endloop
  endfacet
  facet normal -0 0 1
    outer loop
      vertex 34.0675 2.1882 7
      vertex 35.7385 1.24861 7
      vertex 35.7385 3.24861 7
    endloop
  endfacet
  facet normal 0 0 1
    outer loop
      vertex 34.0675 2.1882 7
      vertex 34.0675 0.188202 7
      vertex 35.7385 1.24861 7
    endloop
  endfacet
  facet normal -0 0 1
    outer loop
      vertex 32.7128 0.745565 7
      vertex 34.0675 0.188202 7
      vertex 34.0675 2.1882 7
    endloop
  endfacet
  facet normal 0 0 1
    outer loop
      vertex 32.3029 0 7
      vertex 34.0675 0.188202 7
      vertex 32.7128 0.745565 7
    endloop
  endfacet
  facet normal 0 0 1
    outer loop
      vertex 34.0675 0.188202 7
      vertex 32.3029 0 7
      vertex 32.7128 -1.25443 7
    endloop
  endfacet
  facet normal 0 0 1
    outer loop
      vertex 32.3029 0 7
      vertex 32.3029 -2 7
      vertex 32.7128 -1.25443 7
    endloop
  endfacet
  facet normal -0 0 1
    outer loop
      vertex 21.5519 0 7
      vertex 32.3029 -2 7
      vertex 32.3029 0 7
    endloop
  endfacet
  facet normal 0 0 1
    outer loop
      vertex 21.5519 0 7
      vertex 21.5519 -2 7
      vertex 32.3029 -2 7
    endloop
  endfacet
  facet normal 0 0 1
    outer loop
      vertex 20.4552 -0.4905 7
      vertex 21.5519 0 7
      vertex 20.4552 1.5095 7
    endloop
  endfacet
  facet normal 0 0 1
    outer loop
      vertex 21.5519 0 7
      vertex 20.4552 -0.4905 7
      vertex 21.5519 -2 7
    endloop
  endfacet
  facet normal 0 0 1
    outer loop
      vertex 18.9304 0.770968 7
      vertex 20.4552 1.5095 7
      vertex 18.9304 2.77097 7
    endloop
  endfacet
  facet normal 0 0 1
    outer loop
      vertex 20.4552 1.5095 7
      vertex 18.9304 0.770968 7
      vertex 20.4552 -0.4905 7
    endloop
  endfacet
  facet normal 0 0 1
    outer loop
      vertex 17.1397 1.61359 7
      vertex 18.9304 2.77097 7
      vertex 17.1397 3.61359 7
    endloop
  endfacet
  facet normal 0 0 1
    outer loop
      vertex 18.9304 2.77097 7
      vertex 17.1397 1.61359 7
      vertex 18.9304 0.770968 7
    endloop
  endfacet
  facet normal 0 0 1
    outer loop
      vertex 15.1957 1.98442 7
      vertex 17.1397 3.61359 7
      vertex 15.1957 3.98442 7
    endloop
  endfacet
  facet normal 0 0 1
    outer loop
      vertex 17.1397 3.61359 7
      vertex 15.1957 1.98442 7
      vertex 17.1397 1.61359 7
    endloop
  endfacet
  facet normal -0 0 1
    outer loop
      vertex 13.2206 3.86016 7
      vertex 15.1957 1.98442 7
      vertex 15.1957 3.98442 7
    endloop
  endfacet
  facet normal 0 0 1
    outer loop
      vertex 13.2206 3.86016 7
      vertex 13.2206 1.86016 7
      vertex 15.1957 1.98442 7
    endloop
  endfacet
  facet normal -0 0 1
    outer loop
      vertex 11.3385 3.24861 7
      vertex 13.2206 1.86016 7
      vertex 13.2206 3.86016 7
    endloop
  endfacet
  facet normal 0 0 1
    outer loop
      vertex 11.3385 3.24861 7
      vertex 11.3385 1.24861 7
      vertex 13.2206 1.86016 7
    endloop
  endfacet
  facet normal -0 0 1
    outer loop
      vertex 9.66754 2.1882 7
      vertex 11.3385 1.24861 7
      vertex 11.3385 3.24861 7
    endloop
  endfacet
  facet normal 0 0 1
    outer loop
      vertex 9.66754 2.1882 7
      vertex 9.66754 0.188202 7
      vertex 11.3385 1.24861 7
    endloop
  endfacet
  facet normal -0 0 1
    outer loop
      vertex 8.31281 0.745565 7
      vertex 9.66754 0.188202 7
      vertex 9.66754 2.1882 7
    endloop
  endfacet
  facet normal 0 0 1
    outer loop
      vertex 7.90293 0 7
      vertex 9.66754 0.188202 7
      vertex 8.31281 0.745565 7
    endloop
  endfacet
  facet normal 0 0 1
    outer loop
      vertex 9.66754 0.188202 7
      vertex 7.90293 0 7
      vertex 8.31281 -1.25443 7
    endloop
  endfacet
  facet normal 0 0 1
    outer loop
      vertex 7.90293 0 7
      vertex 7.90293 -2 7
      vertex 8.31281 -1.25443 7
    endloop
  endfacet
  facet normal 0 0 1
    outer loop
      vertex 7.90293 0 7
      vertex 2 -2 7
      vertex 7.90293 -2 7
    endloop
  endfacet
  facet normal 0 0 1
    outer loop
      vertex 2 -2 7
      vertex 0 0 7
      vertex 2 -65 7
    endloop
  endfacet
  facet normal -0 0 1
    outer loop
      vertex 0 0 7
      vertex 2 -2 7
      vertex 7.90293 0 7
    endloop
  endfacet
  facet normal -0 0 1
    outer loop
      vertex 113 -65 7
      vertex 115 -67 7
      vertex 113 -2 7
    endloop
  endfacet
  facet normal -0 0 1
    outer loop
      vertex 2 -65 7
      vertex 115 -67 7
      vertex 113 -65 7
    endloop
  endfacet
  facet normal 0 0 1
    outer loop
      vertex 2 -65 7
      vertex 0 -67 7
      vertex 115 -67 7
    endloop
  endfacet
  facet normal 0 0 1
    outer loop
      vertex 0 -67 7
      vertex 2 -65 7
      vertex 0 0 7
    endloop
  endfacet
  facet normal -0.637423 -0.770514 0
    outer loop
      vertex 18.9304 0.770968 2
      vertex 20.4552 -0.4905 7
      vertex 18.9304 0.770968 7
    endloop
  endfacet
  facet normal -0.637423 -0.770514 -0
    outer loop
      vertex 20.4552 -0.4905 7
      vertex 18.9304 0.770968 2
      vertex 20.4552 -0.4905 2
    endloop
  endfacet
  facet normal 0.309017 -0.951057 0
    outer loop
      vertex 11.3385 1.24861 2
      vertex 13.2206 1.86016 7
      vertex 11.3385 1.24861 7
    endloop
  endfacet
  facet normal 0.309017 -0.951057 0
    outer loop
      vertex 13.2206 1.86016 7
      vertex 11.3385 1.24861 2
      vertex 13.2206 1.86016 2
    endloop
  endfacet
  facet normal -0.187381 -0.982287 0
    outer loop
      vertex 15.1957 1.98442 2
      vertex 17.1397 1.61359 7
      vertex 15.1957 1.98442 7
    endloop
  endfacet
  facet normal -0.187381 -0.982287 -0
    outer loop
      vertex 17.1397 1.61359 7
      vertex 15.1957 1.98442 2
      vertex 17.1397 1.61359 2
    endloop
  endfacet
  facet normal 0 0 1
    outer loop
      vertex 115 5 2
      vertex 45.9519 0 2
      vertex 115 0 2
    endloop
  endfacet
  facet normal 0 0 1
    outer loop
      vertex 115 5 2
      vertex 44.8552 1.5095 2
      vertex 45.9519 0 2
    endloop
  endfacet
  facet normal 0 0 1
    outer loop
      vertex 115 5 2
      vertex 43.3304 2.77097 2
      vertex 44.8552 1.5095 2
    endloop
  endfacet
  facet normal 0 0 1
    outer loop
      vertex 115 5 2
      vertex 41.5397 3.61359 2
      vertex 43.3304 2.77097 2
    endloop
  endfacet
  facet normal 0 0 1
    outer loop
      vertex 115 5 2
      vertex 39.5957 3.98442 2
      vertex 41.5397 3.61359 2
    endloop
  endfacet
  facet normal 0 0 1
    outer loop
      vertex 32.7128 0.745565 2
      vertex 21.5519 0 2
      vertex 32.3029 0 2
    endloop
  endfacet
  facet normal -0 0 1
    outer loop
      vertex 20.4552 1.5095 2
      vertex 32.7128 0.745565 2
      vertex 34.0675 2.1882 2
    endloop
  endfacet
  facet normal -0 0 1
    outer loop
      vertex 18.9304 2.77097 2
      vertex 34.0675 2.1882 2
      vertex 35.7385 3.24861 2
    endloop
  endfacet
  facet normal -0 0 1
    outer loop
      vertex 17.1397 3.61359 2
      vertex 35.7385 3.24861 2
      vertex 37.6206 3.86016 2
    endloop
  endfacet
  facet normal 0 0 1
    outer loop
      vertex 32.7128 0.745565 2
      vertex 20.4552 1.5095 2
      vertex 21.5519 0 2
    endloop
  endfacet
  facet normal 0 0 1
    outer loop
      vertex 34.0675 2.1882 2
      vertex 18.9304 2.77097 2
      vertex 20.4552 1.5095 2
    endloop
  endfacet
  facet normal -0 0 1
    outer loop
      vertex 15.1957 3.98442 2
      vertex 37.6206 3.86016 2
      vertex 39.5957 3.98442 2
    endloop
  endfacet
  facet normal 0 0 1
    outer loop
      vertex 35.7385 3.24861 2
      vertex 17.1397 3.61359 2
      vertex 18.9304 2.77097 2
    endloop
  endfacet
  facet normal 0 0 1
    outer loop
      vertex 37.6206 3.86016 2
      vertex 15.1957 3.98442 2
      vertex 17.1397 3.61359 2
    endloop
  endfacet
  facet normal -0 0 1
    outer loop
      vertex 0 5 2
      vertex 39.5957 3.98442 2
      vertex 115 5 2
    endloop
  endfacet
  facet normal 0 0 1
    outer loop
      vertex 39.5957 3.98442 2
      vertex 0 5 2
      vertex 15.1957 3.98442 2
    endloop
  endfacet
  facet normal 0 0 1
    outer loop
      vertex 0 5 2
      vertex 13.2206 3.86016 2
      vertex 15.1957 3.98442 2
    endloop
  endfacet
  facet normal 0 0 1
    outer loop
      vertex 0 5 2
      vertex 11.3385 3.24861 2
      vertex 13.2206 3.86016 2
    endloop
  endfacet
  facet normal 0 0 1
    outer loop
      vertex 0 5 2
      vertex 9.66754 2.1882 2
      vertex 11.3385 3.24861 2
    endloop
  endfacet
  facet normal 0 0 1
    outer loop
      vertex 0 5 2
      vertex 8.31281 0.745565 2
      vertex 9.66754 2.1882 2
    endloop
  endfacet
  facet normal 0 0 1
    outer loop
      vertex 0 5 2
      vertex 7.90293 0 2
      vertex 8.31281 0.745565 2
    endloop
  endfacet
  facet normal 0 0 1
    outer loop
      vertex 7.90293 0 2
      vertex 0 5 2
      vertex 0 0 2
    endloop
  endfacet
  facet normal 0 0 1
    outer loop
      vertex 113 -2 2
      vertex 65.625 -33.5 2
      vertex 113 -65 2
    endloop
  endfacet
  facet normal 0 0 1
    outer loop
      vertex 113 -2 2
      vertex 65.3889 -31.5556 2
      vertex 65.625 -33.5 2
    endloop
  endfacet
  facet normal 0 0 1
    outer loop
      vertex 113 -2 2
      vertex 64.6943 -29.7241 2
      vertex 65.3889 -31.5556 2
    endloop
  endfacet
  facet normal 0 0 1
    outer loop
      vertex 113 -2 2
      vertex 63.5816 -28.1121 2
      vertex 64.6943 -29.7241 2
    endloop
  endfacet
  facet normal 0 0 1
    outer loop
      vertex 113 -2 2
      vertex 62.1155 -26.8133 2
      vertex 63.5816 -28.1121 2
    endloop
  endfacet
  facet normal -0 0 1
    outer loop
      vertex 45.9519 -2 2
      vertex 62.1155 -26.8133 2
      vertex 113 -2 2
    endloop
  endfacet
  facet normal 0 0 1
    outer loop
      vertex 62.1155 -26.8133 2
      vertex 45.9519 -2 2
      vertex 60.3812 -25.903 2
    endloop
  endfacet
  facet normal 0 0 1
    outer loop
      vertex 60.3812 -25.903 2
      vertex 45.9519 -2 2
      vertex 58.4794 -25.4342 2
    endloop
  endfacet
  facet normal 0 0 1
    outer loop
      vertex 58.4794 -25.4342 2
      vertex 45.9519 -2 2
      vertex 56.5206 -25.4342 2
    endloop
  endfacet
  facet normal 0 0 1
    outer loop
      vertex 50.3057 -29.7241 2
      vertex 32.3029 -2 2
      vertex 49.6111 -31.5556 2
    endloop
  endfacet
  facet normal 0 0 1
    outer loop
      vertex 51.4184 -28.1121 2
      vertex 32.3029 -2 2
      vertex 50.3057 -29.7241 2
    endloop
  endfacet
  facet normal -0 0 1
    outer loop
      vertex 32.3029 -2 2
      vertex 51.4184 -28.1121 2
      vertex 45.9519 -2 2
    endloop
  endfacet
  facet normal 0 0 1
    outer loop
      vertex 52.8845 -26.8133 2
      vertex 45.9519 -2 2
      vertex 51.4184 -28.1121 2
    endloop
  endfacet
  facet normal 0 0 1
    outer loop
      vertex 54.6188 -25.903 2
      vertex 45.9519 -2 2
      vertex 52.8845 -26.8133 2
    endloop
  endfacet
  facet normal 0 0 1
    outer loop
      vertex 56.5206 -25.4342 2
      vertex 45.9519 -2 2
      vertex 54.6188 -25.903 2
    endloop
  endfacet
  facet normal -0 0 1
    outer loop
      vertex 65.3889 -35.4444 2
      vertex 113 -65 2
      vertex 65.625 -33.5 2
    endloop
  endfacet
  facet normal -0 0 1
    outer loop
      vertex 64.6943 -37.2759 2
      vertex 113 -65 2
      vertex 65.3889 -35.4444 2
    endloop
  endfacet
  facet normal -0 0 1
    outer loop
      vertex 63.5816 -38.8879 2
      vertex 113 -65 2
      vertex 64.6943 -37.2759 2
    endloop
  endfacet
  facet normal -0 0 1
    outer loop
      vertex 62.1155 -40.1867 2
      vertex 113 -65 2
      vertex 63.5816 -38.8879 2
    endloop
  endfacet
  facet normal -0 0 1
    outer loop
      vertex 60.3812 -41.097 2
      vertex 113 -65 2
      vertex 62.1155 -40.1867 2
    endloop
  endfacet
  facet normal -0 0 1
    outer loop
      vertex 58.4794 -41.5658 2
      vertex 113 -65 2
      vertex 60.3812 -41.097 2
    endloop
  endfacet
  facet normal -0 0 1
    outer loop
      vertex 56.5206 -41.5658 2
      vertex 113 -65 2
      vertex 58.4794 -41.5658 2
    endloop
  endfacet
  facet normal 0 0 1
    outer loop
      vertex 2 -65 2
      vertex 56.5206 -41.5658 2
      vertex 54.6188 -41.097 2
    endloop
  endfacet
  facet normal 0 0 1
    outer loop
      vertex 32.3029 -2 2
      vertex 45.9519 -2 2
      vertex 44.8552 -0.4905 2
    endloop
  endfacet
  facet normal -0 0 1
    outer loop
      vertex 21.5519 -2 2
      vertex 49.6111 -31.5556 2
      vertex 32.3029 -2 2
    endloop
  endfacet
  facet normal 0 0 1
    outer loop
      vertex 32.3029 -2 2
      vertex 44.8552 -0.4905 2
      vertex 43.3304 0.770968 2
    endloop
  endfacet
  facet normal 0 0 1
    outer loop
      vertex 32.3029 -2 2
      vertex 43.3304 0.770968 2
      vertex 41.5397 1.61359 2
    endloop
  endfacet
  facet normal 0 0 1
    outer loop
      vertex 32.3029 -2 2
      vertex 41.5397 1.61359 2
      vertex 39.5957 1.98442 2
    endloop
  endfacet
  facet normal 0 0 1
    outer loop
      vertex 32.3029 -2 2
      vertex 39.5957 1.98442 2
      vertex 37.6206 1.86016 2
    endloop
  endfacet
  facet normal 0 0 1
    outer loop
      vertex 32.3029 -2 2
      vertex 37.6206 1.86016 2
      vertex 35.7385 1.24861 2
    endloop
  endfacet
  facet normal 0 0 1
    outer loop
      vertex 32.3029 -2 2
      vertex 35.7385 1.24861 2
      vertex 34.0675 0.188202 2
    endloop
  endfacet
  facet normal 0 0 1
    outer loop
      vertex 49.6111 -31.5556 2
      vertex 21.5519 -2 2
      vertex 49.375 -33.5 2
    endloop
  endfacet
  facet normal 0 0 1
    outer loop
      vertex 32.3029 -2 2
      vertex 34.0675 0.188202 2
      vertex 32.7128 -1.25443 2
    endloop
  endfacet
  facet normal 0 0 1
    outer loop
      vertex 2 -65 2
      vertex 49.375 -33.5 2
      vertex 21.5519 -2 2
    endloop
  endfacet
  facet normal 0 0 1
    outer loop
      vertex 49.375 -33.5 2
      vertex 2 -65 2
      vertex 49.6111 -35.4444 2
    endloop
  endfacet
  facet normal 0 0 1
    outer loop
      vertex 49.6111 -35.4444 2
      vertex 2 -65 2
      vertex 50.3057 -37.2759 2
    endloop
  endfacet
  facet normal 0 0 1
    outer loop
      vertex 18.9304 0.770968 2
      vertex 21.5519 -2 2
      vertex 20.4552 -0.4905 2
    endloop
  endfacet
  facet normal 0 0 1
    outer loop
      vertex 7.90293 -2 2
      vertex 21.5519 -2 2
      vertex 18.9304 0.770968 2
    endloop
  endfacet
  facet normal 0 0 1
    outer loop
      vertex 7.90293 -2 2
      vertex 18.9304 0.770968 2
      vertex 17.1397 1.61359 2
    endloop
  endfacet
  facet normal 0 0 1
    outer loop
      vertex 7.90293 -2 2
      vertex 17.1397 1.61359 2
      vertex 15.1957 1.98442 2
    endloop
  endfacet
  facet normal 0 0 1
    outer loop
      vertex 7.90293 -2 2
      vertex 15.1957 1.98442 2
      vertex 13.2206 1.86016 2
    endloop
  endfacet
  facet normal 0 0 1
    outer loop
      vertex 7.90293 -2 2
      vertex 13.2206 1.86016 2
      vertex 11.3385 1.24861 2
    endloop
  endfacet
  facet normal 0 0 1
    outer loop
      vertex 7.90293 -2 2
      vertex 11.3385 1.24861 2
      vertex 9.66754 0.188202 2
    endloop
  endfacet
  facet normal 0 0 1
    outer loop
      vertex 7.90293 -2 2
      vertex 9.66754 0.188202 2
      vertex 8.31281 -1.25443 2
    endloop
  endfacet
  facet normal 0 0 1
    outer loop
      vertex 2 -65 2
      vertex 21.5519 -2 2
      vertex 7.90293 -2 2
    endloop
  endfacet
  facet normal 0 0 1
    outer loop
      vertex 50.3057 -37.2759 2
      vertex 2 -65 2
      vertex 51.4184 -38.8879 2
    endloop
  endfacet
  facet normal 0 0 1
    outer loop
      vertex 2 -65 2
      vertex 7.90293 -2 2
      vertex 2 -2 2
    endloop
  endfacet
  facet normal 0 0 1
    outer loop
      vertex 56.5206 -41.5658 2
      vertex 2 -65 2
      vertex 113 -65 2
    endloop
  endfacet
  facet normal 0 0 1
    outer loop
      vertex 52.8845 -40.1867 2
      vertex 2 -65 2
      vertex 54.6188 -41.097 2
    endloop
  endfacet
  facet normal 0 0 1
    outer loop
      vertex 51.4184 -38.8879 2
      vertex 2 -65 2
      vertex 52.8845 -40.1867 2
    endloop
  endfacet
  facet normal -0 0 1
    outer loop
      vertex 0 -67 2
      vertex 115 -72 2
      vertex 115 -67 2
    endloop
  endfacet
  facet normal 0 0 1
    outer loop
      vertex 115 -72 2
      vertex 0 -67 2
      vertex 0 -72 2
    endloop
  endfacet
  facet normal 0.876307 -0.481753 0
    outer loop
      vertex 7.90293 -2 7
      vertex 8.31281 -1.25443 2
      vertex 8.31281 -1.25443 7
    endloop
  endfacet
  facet normal 0.876307 -0.481753 0
    outer loop
      vertex 8.31281 -1.25443 2
      vertex 7.90293 -2 7
      vertex 7.90293 -2 2
    endloop
  endfacet
  facet normal 0.0627908 -0.998027 0
    outer loop
      vertex 13.2206 1.86016 2
      vertex 15.1957 1.98442 7
      vertex 13.2206 1.86016 7
    endloop
  endfacet
  facet normal 0.0627908 -0.998027 0
    outer loop
      vertex 15.1957 1.98442 7
      vertex 13.2206 1.86016 2
      vertex 15.1957 1.98442 2
    endloop
  endfacet
  facet normal -0.187381 -0.982287 0
    outer loop
      vertex 39.5957 1.98442 2
      vertex 41.5397 1.61359 7
      vertex 39.5957 1.98442 7
    endloop
  endfacet
  facet normal -0.187381 -0.982287 -0
    outer loop
      vertex 41.5397 1.61359 7
      vertex 39.5957 1.98442 2
      vertex 41.5397 1.61359 2
    endloop
  endfacet
  facet normal 0.728969 -0.684547 0
    outer loop
      vertex 32.7128 -1.25443 7
      vertex 34.0675 0.188202 2
      vertex 34.0675 0.188202 7
    endloop
  endfacet
  facet normal 0.728969 -0.684547 0
    outer loop
      vertex 34.0675 0.188202 2
      vertex 32.7128 -1.25443 7
      vertex 32.7128 -1.25443 2
    endloop
  endfacet
  facet normal -0.809016 -0.587786 0
    outer loop
      vertex 45.9519 -2 2
      vertex 44.8552 -0.4905 7
      vertex 44.8552 -0.4905 2
    endloop
  endfacet
  facet normal -0.809016 -0.587786 0
    outer loop
      vertex 44.8552 -0.4905 7
      vertex 45.9519 -2 2
      vertex 45.9519 -2 7
    endloop
  endfacet
  facet normal 0.0627909 -0.998027 0
    outer loop
      vertex 37.6206 1.86016 2
      vertex 39.5957 1.98442 7
      vertex 37.6206 1.86016 7
    endloop
  endfacet
  facet normal 0.0627909 -0.998027 0
    outer loop
      vertex 39.5957 1.98442 7
      vertex 37.6206 1.86016 2
      vertex 39.5957 1.98442 2
    endloop
  endfacet
  facet normal 0.309017 -0.951057 0
    outer loop
      vertex 35.7385 1.24861 2
      vertex 37.6206 1.86016 7
      vertex 35.7385 1.24861 7
    endloop
  endfacet
  facet normal 0.309017 -0.951057 0
    outer loop
      vertex 37.6206 1.86016 7
      vertex 35.7385 1.24861 2
      vertex 37.6206 1.86016 2
    endloop
  endfacet
  facet normal -0.425779 -0.904827 0
    outer loop
      vertex 41.5397 1.61359 2
      vertex 43.3304 0.770968 7
      vertex 41.5397 1.61359 7
    endloop
  endfacet
  facet normal -0.425779 -0.904827 -0
    outer loop
      vertex 43.3304 0.770968 7
      vertex 41.5397 1.61359 2
      vertex 43.3304 0.770968 2
    endloop
  endfacet
  facet normal 0.535826 -0.844328 0
    outer loop
      vertex 34.0675 0.188202 2
      vertex 35.7385 1.24861 7
      vertex 34.0675 0.188202 7
    endloop
  endfacet
  facet normal 0.535826 -0.844328 0
    outer loop
      vertex 35.7385 1.24861 7
      vertex 34.0675 0.188202 2
      vertex 35.7385 1.24861 2
    endloop
  endfacet
  facet normal 0.876307 -0.481753 0
    outer loop
      vertex 32.3029 -2 7
      vertex 32.7128 -1.25443 2
      vertex 32.7128 -1.25443 7
    endloop
  endfacet
  facet normal 0.876307 -0.481753 0
    outer loop
      vertex 32.7128 -1.25443 2
      vertex 32.3029 -2 7
      vertex 32.3029 -2 2
    endloop
  endfacet
  facet normal -0.637424 -0.770513 0
    outer loop
      vertex 43.3304 0.770968 2
      vertex 44.8552 -0.4905 7
      vertex 43.3304 0.770968 7
    endloop
  endfacet
  facet normal -0.637424 -0.770513 -0
    outer loop
      vertex 44.8552 -0.4905 7
      vertex 43.3304 0.770968 2
      vertex 44.8552 -0.4905 2
    endloop
  endfacet
  facet normal -1 0 0
    outer loop
      vertex 0 5 0
      vertex 0 0 2
      vertex 0 5 2
    endloop
  endfacet
  facet normal -1 0 0
    outer loop
      vertex 0 0 2
      vertex 0 -67 2
      vertex 0 0 7
    endloop
  endfacet
  facet normal -1 0 0
    outer loop
      vertex 0 5 0
      vertex 0 -67 2
      vertex 0 0 2
    endloop
  endfacet
  facet normal -1 0 0
    outer loop
      vertex 0 -72 0
      vertex 0 -67 2
      vertex 0 5 0
    endloop
  endfacet
  facet normal -1 -0 0
    outer loop
      vertex 0 -67 2
      vertex 0 -72 0
      vertex 0 -72 2
    endloop
  endfacet
  facet normal -1 -0 0
    outer loop
      vertex 0 0 7
      vertex 0 -67 2
      vertex 0 -67 7
    endloop
  endfacet
  facet normal 1 0 0
    outer loop
      vertex 115 0 7
      vertex 115 -67 7
      vertex 115 0 2
    endloop
  endfacet
  facet normal 1 -0 0
    outer loop
      vertex 115 0 2
      vertex 115 5 0
      vertex 115 5 2
    endloop
  endfacet
  facet normal 1 0 0
    outer loop
      vertex 115 -67 2
      vertex 115 0 2
      vertex 115 -67 7
    endloop
  endfacet
  facet normal 1 0 0
    outer loop
      vertex 115 0 2
      vertex 115 -67 2
      vertex 115 5 0
    endloop
  endfacet
  facet normal 1 0 0
    outer loop
      vertex 115 -72 0
      vertex 115 -67 2
      vertex 115 -72 2
    endloop
  endfacet
  facet normal 1 0 0
    outer loop
      vertex 115 -67 2
      vertex 115 -72 0
      vertex 115 5 0
    endloop
  endfacet
  facet normal 0 1 -0
    outer loop
      vertex 7.90293 0 2
      vertex 0 0 7
      vertex 7.90293 0 7
    endloop
  endfacet
  facet normal 0 1 0
    outer loop
      vertex 0 0 7
      vertex 7.90293 0 2
      vertex 0 0 2
    endloop
  endfacet
  facet normal 0 1 -0
    outer loop
      vertex 32.3029 0 2
      vertex 21.5519 0 7
      vertex 32.3029 0 7
    endloop
  endfacet
  facet normal 0 1 0
    outer loop
      vertex 21.5519 0 7
      vertex 32.3029 0 2
      vertex 21.5519 0 2
    endloop
  endfacet
  facet normal 0 1 -0
    outer loop
      vertex 115 0 2
      vertex 45.9519 0 7
      vertex 115 0 7
    endloop
  endfacet
  facet normal 0 1 0
    outer loop
      vertex 45.9519 0 7
      vertex 115 0 2
      vertex 45.9519 0 2
    endloop
  endfacet
  facet normal 0 -1 0
    outer loop
      vertex 0 -67 2
      vertex 115 -67 7
      vertex 0 -67 7
    endloop
  endfacet
  facet normal 0 -1 -0
    outer loop
      vertex 115 -67 7
      vertex 0 -67 2
      vertex 115 -67 2
    endloop
  endfacet
  facet normal 1 -0 0
    outer loop
      vertex 2 -65 7
      vertex 2 -2 2
      vertex 2 -2 7
    endloop
  endfacet
  facet normal 1 0 0
    outer loop
      vertex 2 -2 2
      vertex 2 -65 7
      vertex 2 -65 2
    endloop
  endfacet
  facet normal -1 0 0
    outer loop
      vertex 113 -65 2
      vertex 113 -2 7
      vertex 113 -2 2
    endloop
  endfacet
  facet normal -1 -0 0
    outer loop
      vertex 113 -2 7
      vertex 113 -65 2
      vertex 113 -65 7
    endloop
  endfacet
  facet normal 0 -1 0
    outer loop
      vertex 2 -2 2
      vertex 7.90293 -2 7
      vertex 2 -2 7
    endloop
  endfacet
  facet normal 0 -1 -0
    outer loop
      vertex 7.90293 -2 7
      vertex 2 -2 2
      vertex 7.90293 -2 2
    endloop
  endfacet
  facet normal 0 -1 0
    outer loop
      vertex 45.9519 -2 2
      vertex 113 -2 7
      vertex 45.9519 -2 7
    endloop
  endfacet
  facet normal 0 -1 -0
    outer loop
      vertex 113 -2 7
      vertex 45.9519 -2 2
      vertex 113 -2 2
    endloop
  endfacet
  facet normal 0 -1 0
    outer loop
      vertex 21.5519 -2 2
      vertex 32.3029 -2 7
      vertex 21.5519 -2 7
    endloop
  endfacet
  facet normal 0 -1 -0
    outer loop
      vertex 32.3029 -2 7
      vertex 21.5519 -2 2
      vertex 32.3029 -2 2
    endloop
  endfacet
  facet normal 0 1 -0
    outer loop
      vertex 113 -65 2
      vertex 2 -65 7
      vertex 113 -65 7
    endloop
  endfacet
  facet normal 0 1 0
    outer loop
      vertex 2 -65 7
      vertex 113 -65 2
      vertex 2 -65 2
    endloop
  endfacet
  facet normal 0.42578 0.904827 -0
    outer loop
      vertex 18.9304 2.77097 2
      vertex 17.1397 3.61359 7
      vertex 18.9304 2.77097 7
    endloop
  endfacet
  facet normal 0.42578 0.904827 0
    outer loop
      vertex 17.1397 3.61359 7
      vertex 18.9304 2.77097 2
      vertex 17.1397 3.61359 2
    endloop
  endfacet
  facet normal -0.535827 0.844328 0
    outer loop
      vertex 11.3385 3.24861 2
      vertex 9.66754 2.1882 7
      vertex 11.3385 3.24861 7
    endloop
  endfacet
  facet normal -0.535827 0.844328 0
    outer loop
      vertex 9.66754 2.1882 7
      vertex 11.3385 3.24861 2
      vertex 9.66754 2.1882 2
    endloop
  endfacet
  facet normal -0.728968 0.684547 0
    outer loop
      vertex 8.31281 0.745565 2
      vertex 9.66754 2.1882 7
      vertex 9.66754 2.1882 2
    endloop
  endfacet
  facet normal -0.728968 0.684547 0
    outer loop
      vertex 9.66754 2.1882 7
      vertex 8.31281 0.745565 2
      vertex 8.31281 0.745565 7
    endloop
  endfacet
  facet normal 0.809017 0.587785 0
    outer loop
      vertex 21.5519 0 7
      vertex 20.4552 1.5095 2
      vertex 20.4552 1.5095 7
    endloop
  endfacet
  facet normal 0.809017 0.587785 0
    outer loop
      vertex 20.4552 1.5095 2
      vertex 21.5519 0 7
      vertex 21.5519 0 2
    endloop
  endfacet
  facet normal 0.637423 0.770514 -0
    outer loop
      vertex 20.4552 1.5095 2
      vertex 18.9304 2.77097 7
      vertex 20.4552 1.5095 7
    endloop
  endfacet
  facet normal 0.637423 0.770514 0
    outer loop
      vertex 18.9304 2.77097 7
      vertex 20.4552 1.5095 2
      vertex 18.9304 2.77097 2
    endloop
  endfacet
  facet normal -0.309017 0.951057 0
    outer loop
      vertex 13.2206 3.86016 2
      vertex 11.3385 3.24861 7
      vertex 13.2206 3.86016 7
    endloop
  endfacet
  facet normal -0.309017 0.951057 0
    outer loop
      vertex 11.3385 3.24861 7
      vertex 13.2206 3.86016 2
      vertex 11.3385 3.24861 2
    endloop
  endfacet
  facet normal 0.187381 0.982287 -0
    outer loop
      vertex 17.1397 3.61359 2
      vertex 15.1957 3.98442 7
      vertex 17.1397 3.61359 7
    endloop
  endfacet
  facet normal 0.187381 0.982287 0
    outer loop
      vertex 15.1957 3.98442 7
      vertex 17.1397 3.61359 2
      vertex 15.1957 3.98442 2
    endloop
  endfacet
  facet normal -0.876307 0.481753 0
    outer loop
      vertex 7.90293 0 2
      vertex 8.31281 0.745565 7
      vertex 8.31281 0.745565 2
    endloop
  endfacet
  facet normal -0.876307 0.481753 0
    outer loop
      vertex 8.31281 0.745565 7
      vertex 7.90293 0 2
      vertex 7.90293 0 7
    endloop
  endfacet
  facet normal -0.0627908 0.998027 0
    outer loop
      vertex 15.1957 3.98442 2
      vertex 13.2206 3.86016 7
      vertex 15.1957 3.98442 7
    endloop
  endfacet
  facet normal -0.0627908 0.998027 0
    outer loop
      vertex 13.2206 3.86016 7
      vertex 15.1957 3.98442 2
      vertex 13.2206 3.86016 2
    endloop
  endfacet
  facet normal 0.187381 0.982287 -0
    outer loop
      vertex 41.5397 3.61359 2
      vertex 39.5957 3.98442 7
      vertex 41.5397 3.61359 7
    endloop
  endfacet
  facet normal 0.187381 0.982287 0
    outer loop
      vertex 39.5957 3.98442 7
      vertex 41.5397 3.61359 2
      vertex 39.5957 3.98442 2
    endloop
  endfacet
  facet normal -0.728969 0.684547 0
    outer loop
      vertex 32.7128 0.745565 2
      vertex 34.0675 2.1882 7
      vertex 34.0675 2.1882 2
    endloop
  endfacet
  facet normal -0.728969 0.684547 0
    outer loop
      vertex 34.0675 2.1882 7
      vertex 32.7128 0.745565 2
      vertex 32.7128 0.745565 7
    endloop
  endfacet
  facet normal 0.809016 0.587786 0
    outer loop
      vertex 45.9519 0 7
      vertex 44.8552 1.5095 2
      vertex 44.8552 1.5095 7
    endloop
  endfacet
  facet normal 0.809016 0.587786 0
    outer loop
      vertex 44.8552 1.5095 2
      vertex 45.9519 0 7
      vertex 45.9519 0 2
    endloop
  endfacet
  facet normal -0.0627909 0.998027 0
    outer loop
      vertex 39.5957 3.98442 2
      vertex 37.6206 3.86016 7
      vertex 39.5957 3.98442 7
    endloop
  endfacet
  facet normal -0.0627909 0.998027 0
    outer loop
      vertex 37.6206 3.86016 7
      vertex 39.5957 3.98442 2
      vertex 37.6206 3.86016 2
    endloop
  endfacet
  facet normal -0.309017 0.951057 0
    outer loop
      vertex 37.6206 3.86016 2
      vertex 35.7385 3.24861 7
      vertex 37.6206 3.86016 7
    endloop
  endfacet
  facet normal -0.309017 0.951057 0
    outer loop
      vertex 35.7385 3.24861 7
      vertex 37.6206 3.86016 2
      vertex 35.7385 3.24861 2
    endloop
  endfacet
  facet normal 0.425779 0.904827 -0
    outer loop
      vertex 43.3304 2.77097 2
      vertex 41.5397 3.61359 7
      vertex 43.3304 2.77097 7
    endloop
  endfacet
  facet normal 0.425779 0.904827 0
    outer loop
      vertex 41.5397 3.61359 7
      vertex 43.3304 2.77097 2
      vertex 41.5397 3.61359 2
    endloop
  endfacet
  facet normal -0.535826 0.844328 0
    outer loop
      vertex 35.7385 3.24861 2
      vertex 34.0675 2.1882 7
      vertex 35.7385 3.24861 7
    endloop
  endfacet
  facet normal -0.535826 0.844328 0
    outer loop
      vertex 34.0675 2.1882 7
      vertex 35.7385 3.24861 2
      vertex 34.0675 2.1882 2
    endloop
  endfacet
  facet normal -0.876307 0.481753 0
    outer loop
      vertex 32.3029 0 2
      vertex 32.7128 0.745565 7
      vertex 32.7128 0.745565 2
    endloop
  endfacet
  facet normal -0.876307 0.481753 0
    outer loop
      vertex 32.7128 0.745565 7
      vertex 32.3029 0 2
      vertex 32.3029 0 7
    endloop
  endfacet
  facet normal 0.637424 0.770513 -0
    outer loop
      vertex 44.8552 1.5095 2
      vertex 43.3304 2.77097 7
      vertex 44.8552 1.5095 7
    endloop
  endfacet
  facet normal 0.637424 0.770513 0
    outer loop
      vertex 43.3304 2.77097 7
      vertex 44.8552 1.5095 2
      vertex 43.3304 2.77097 2
    endloop
  endfacet
  facet normal 0 0 -1
    outer loop
      vertex 0 -72 0
      vertex 115 5 0
      vertex 115 -72 0
    endloop
  endfacet
  facet normal -0 0 -1
    outer loop
      vertex 115 5 0
      vertex 0 -72 0
      vertex 0 5 0
    endloop
  endfacet
  facet normal 0 1 -0
    outer loop
      vertex 115 5 0
      vertex 0 5 2
      vertex 115 5 2
    endloop
  endfacet
  facet normal 0 1 0
    outer loop
      vertex 0 5 2
      vertex 115 5 0
      vertex 0 5 0
    endloop
  endfacet
  facet normal 0 -1 0
    outer loop
      vertex 0 -72 0
      vertex 115 -72 2
      vertex 0 -72 2
    endloop
  endfacet
  facet normal 0 -1 -0
    outer loop
      vertex 115 -72 2
      vertex 0 -72 0
      vertex 115 -72 0
    endloop
  endfacet
  facet normal -0.992709 0.120537 0
    outer loop
      vertex 65.3889 -35.4444 0.599999
      vertex 65.625 -33.5 2
      vertex 65.625 -33.5 0.599999
    endloop
  endfacet
  facet normal -0.992709 0.120537 0
    outer loop
      vertex 65.625 -33.5 2
      vertex 65.3889 -35.4444 0.599999
      vertex 65.3889 -35.4444 2
    endloop
  endfacet
  facet normal 0.239315 0.970942 -0
    outer loop
      vertex 56.5206 -41.5658 0.599999
      vertex 54.6188 -41.097 2
      vertex 56.5206 -41.5658 2
    endloop
  endfacet
  facet normal 0.239315 0.970942 0
    outer loop
      vertex 54.6188 -41.097 2
      vertex 56.5206 -41.5658 0.599999
      vertex 54.6188 -41.097 0.599999
    endloop
  endfacet
  facet normal -0.239315 -0.970942 0
    outer loop
      vertex 58.4794 -25.4342 0.599999
      vertex 60.3812 -25.903 2
      vertex 58.4794 -25.4342 2
    endloop
  endfacet
  facet normal -0.239315 -0.970942 -0
    outer loop
      vertex 60.3812 -25.903 2
      vertex 58.4794 -25.4342 0.599999
      vertex 60.3812 -25.903 0.599999
    endloop
  endfacet
  facet normal -0.464724 0.885456 0
    outer loop
      vertex 62.1155 -40.1867 0.599999
      vertex 60.3812 -41.097 2
      vertex 62.1155 -40.1867 2
    endloop
  endfacet
  facet normal -0.464724 0.885456 0
    outer loop
      vertex 60.3812 -41.097 2
      vertex 62.1155 -40.1867 0.599999
      vertex 60.3812 -41.097 0.599999
    endloop
  endfacet
  facet normal -0.239314 0.970942 0
    outer loop
      vertex 60.3812 -41.097 0.599999
      vertex 58.4794 -41.5658 2
      vertex 60.3812 -41.097 2
    endloop
  endfacet
  facet normal -0.239314 0.970942 0
    outer loop
      vertex 58.4794 -41.5658 2
      vertex 60.3812 -41.097 0.599999
      vertex 58.4794 -41.5658 0.599999
    endloop
  endfacet
  facet normal 0.822984 0.568064 0
    outer loop
      vertex 51.4184 -38.8879 2
      vertex 50.3057 -37.2759 0.599999
      vertex 50.3057 -37.2759 2
    endloop
  endfacet
  facet normal 0.822984 0.568064 0
    outer loop
      vertex 50.3057 -37.2759 0.599999
      vertex 51.4184 -38.8879 2
      vertex 51.4184 -38.8879 0.599999
    endloop
  endfacet
  facet normal 0.935016 0.354605 0
    outer loop
      vertex 50.3057 -37.2759 2
      vertex 49.6111 -35.4444 0.599999
      vertex 49.6111 -35.4444 2
    endloop
  endfacet
  facet normal 0.935016 0.354605 0
    outer loop
      vertex 49.6111 -35.4444 0.599999
      vertex 50.3057 -37.2759 2
      vertex 50.3057 -37.2759 0.599999
    endloop
  endfacet
  facet normal 0.663123 0.748511 -0
    outer loop
      vertex 52.8845 -40.1867 0.599999
      vertex 51.4184 -38.8879 2
      vertex 52.8845 -40.1867 2
    endloop
  endfacet
  facet normal 0.663123 0.748511 0
    outer loop
      vertex 51.4184 -38.8879 2
      vertex 52.8845 -40.1867 0.599999
      vertex 51.4184 -38.8879 0.599999
    endloop
  endfacet
  facet normal -0.935016 -0.354605 0
    outer loop
      vertex 65.3889 -31.5556 0.599999
      vertex 64.6943 -29.7241 2
      vertex 64.6943 -29.7241 0.599999
    endloop
  endfacet
  facet normal -0.935016 -0.354605 0
    outer loop
      vertex 64.6943 -29.7241 2
      vertex 65.3889 -31.5556 0.599999
      vertex 65.3889 -31.5556 2
    endloop
  endfacet
  facet normal -0.822984 0.568064 0
    outer loop
      vertex 63.5816 -38.8879 0.599999
      vertex 64.6943 -37.2759 2
      vertex 64.6943 -37.2759 0.599999
    endloop
  endfacet
  facet normal -0.822984 0.568064 0
    outer loop
      vertex 64.6943 -37.2759 2
      vertex 63.5816 -38.8879 0.599999
      vertex 63.5816 -38.8879 2
    endloop
  endfacet
  facet normal -0.935016 0.354605 0
    outer loop
      vertex 64.6943 -37.2759 0.599999
      vertex 65.3889 -35.4444 2
      vertex 65.3889 -35.4444 0.599999
    endloop
  endfacet
  facet normal -0.935016 0.354605 0
    outer loop
      vertex 65.3889 -35.4444 2
      vertex 64.6943 -37.2759 0.599999
      vertex 64.6943 -37.2759 2
    endloop
  endfacet
  facet normal -0.663123 0.748511 0
    outer loop
      vertex 63.5816 -38.8879 0.599999
      vertex 62.1155 -40.1867 2
      vertex 63.5816 -38.8879 2
    endloop
  endfacet
  facet normal -0.663123 0.748511 0
    outer loop
      vertex 62.1155 -40.1867 2
      vertex 63.5816 -38.8879 0.599999
      vertex 62.1155 -40.1867 0.599999
    endloop
  endfacet
  facet normal 0 1 -0
    outer loop
      vertex 58.4794 -41.5658 0.599999
      vertex 56.5206 -41.5658 2
      vertex 58.4794 -41.5658 2
    endloop
  endfacet
  facet normal 0 1 0
    outer loop
      vertex 56.5206 -41.5658 2
      vertex 58.4794 -41.5658 0.599999
      vertex 56.5206 -41.5658 0.599999
    endloop
  endfacet
  facet normal 0 0 1
    outer loop
      vertex 65.3889 -31.5556 0.599999
      vertex 65.3889 -35.4444 0.599999
      vertex 65.625 -33.5 0.599999
    endloop
  endfacet
  facet normal 0 0 1
    outer loop
      vertex 64.6943 -29.7241 0.599999
      vertex 65.3889 -35.4444 0.599999
      vertex 65.3889 -31.5556 0.599999
    endloop
  endfacet
  facet normal 0 0 1
    outer loop
      vertex 64.6943 -29.7241 0.599999
      vertex 64.6943 -37.2759 0.599999
      vertex 65.3889 -35.4444 0.599999
    endloop
  endfacet
  facet normal 0 0 1
    outer loop
      vertex 63.5816 -28.1121 0.599999
      vertex 64.6943 -37.2759 0.599999
      vertex 64.6943 -29.7241 0.599999
    endloop
  endfacet
  facet normal 0 0 1
    outer loop
      vertex 63.5816 -28.1121 0.599999
      vertex 63.5816 -38.8879 0.599999
      vertex 64.6943 -37.2759 0.599999
    endloop
  endfacet
  facet normal 0 0 1
    outer loop
      vertex 62.1155 -26.8133 0.599999
      vertex 63.5816 -38.8879 0.599999
      vertex 63.5816 -28.1121 0.599999
    endloop
  endfacet
  facet normal 0 0 1
    outer loop
      vertex 62.1155 -26.8133 0.599999
      vertex 62.1155 -40.1867 0.599999
      vertex 63.5816 -38.8879 0.599999
    endloop
  endfacet
  facet normal 0 0 1
    outer loop
      vertex 60.3812 -25.903 0.599999
      vertex 62.1155 -40.1867 0.599999
      vertex 62.1155 -26.8133 0.599999
    endloop
  endfacet
  facet normal 0 0 1
    outer loop
      vertex 60.3812 -25.903 0.599999
      vertex 60.3812 -41.097 0.599999
      vertex 62.1155 -40.1867 0.599999
    endloop
  endfacet
  facet normal 0 0 1
    outer loop
      vertex 58.4794 -25.4342 0.599999
      vertex 60.3812 -41.097 0.599999
      vertex 60.3812 -25.903 0.599999
    endloop
  endfacet
  facet normal 0 0 1
    outer loop
      vertex 58.4794 -25.4342 0.599999
      vertex 58.4794 -41.5658 0.599999
      vertex 60.3812 -41.097 0.599999
    endloop
  endfacet
  facet normal -0 0 1
    outer loop
      vertex 56.5206 -25.4342 0.599999
      vertex 58.4794 -41.5658 0.599999
      vertex 58.4794 -25.4342 0.599999
    endloop
  endfacet
  facet normal 0 0 1
    outer loop
      vertex 56.5206 -25.4342 0.599999
      vertex 56.5206 -41.5658 0.599999
      vertex 58.4794 -41.5658 0.599999
    endloop
  endfacet
  facet normal -0 0 1
    outer loop
      vertex 54.6188 -25.903 0.599999
      vertex 56.5206 -41.5658 0.599999
      vertex 56.5206 -25.4342 0.599999
    endloop
  endfacet
  facet normal 0 0 1
    outer loop
      vertex 54.6188 -25.903 0.599999
      vertex 54.6188 -41.097 0.599999
      vertex 56.5206 -41.5658 0.599999
    endloop
  endfacet
  facet normal -0 0 1
    outer loop
      vertex 52.8845 -26.8133 0.599999
      vertex 54.6188 -41.097 0.599999
      vertex 54.6188 -25.903 0.599999
    endloop
  endfacet
  facet normal 0 0 1
    outer loop
      vertex 52.8845 -26.8133 0.599999
      vertex 52.8845 -40.1867 0.599999
      vertex 54.6188 -41.097 0.599999
    endloop
  endfacet
  facet normal -0 0 1
    outer loop
      vertex 51.4184 -28.1121 0.599999
      vertex 52.8845 -40.1867 0.599999
      vertex 52.8845 -26.8133 0.599999
    endloop
  endfacet
  facet normal 0 0 1
    outer loop
      vertex 51.4184 -28.1121 0.599999
      vertex 51.4184 -38.8879 0.599999
      vertex 52.8845 -40.1867 0.599999
    endloop
  endfacet
  facet normal -0 0 1
    outer loop
      vertex 50.3057 -29.7241 0.599999
      vertex 51.4184 -38.8879 0.599999
      vertex 51.4184 -28.1121 0.599999
    endloop
  endfacet
  facet normal 0 0 1
    outer loop
      vertex 50.3057 -29.7241 0.599999
      vertex 50.3057 -37.2759 0.599999
      vertex 51.4184 -38.8879 0.599999
    endloop
  endfacet
  facet normal -0 0 1
    outer loop
      vertex 49.6111 -31.5556 0.599999
      vertex 50.3057 -37.2759 0.599999
      vertex 50.3057 -29.7241 0.599999
    endloop
  endfacet
  facet normal 0 0 1
    outer loop
      vertex 49.6111 -31.5556 0.599999
      vertex 49.6111 -35.4444 0.599999
      vertex 50.3057 -37.2759 0.599999
    endloop
  endfacet
  facet normal 0 -0 1
    outer loop
      vertex 49.6111 -35.4444 0.599999
      vertex 49.6111 -31.5556 0.599999
      vertex 49.375 -33.5 0.599999
    endloop
  endfacet
  facet normal 0.992709 0.120537 0
    outer loop
      vertex 49.6111 -35.4444 2
      vertex 49.375 -33.5 0.599999
      vertex 49.375 -33.5 2
    endloop
  endfacet
  facet normal 0.992709 0.120537 0
    outer loop
      vertex 49.375 -33.5 0.599999
      vertex 49.6111 -35.4444 2
      vertex 49.6111 -35.4444 0.599999
    endloop
  endfacet
  facet normal 0.464724 0.885456 -0
    outer loop
      vertex 54.6188 -41.097 0.599999
      vertex 52.8845 -40.1867 2
      vertex 54.6188 -41.097 2
    endloop
  endfacet
  facet normal 0.464724 0.885456 0
    outer loop
      vertex 52.8845 -40.1867 2
      vertex 54.6188 -41.097 0.599999
      vertex 52.8845 -40.1867 0.599999
    endloop
  endfacet
  facet normal -0.992709 -0.120537 0
    outer loop
      vertex 65.625 -33.5 0.599999
      vertex 65.3889 -31.5556 2
      vertex 65.3889 -31.5556 0.599999
    endloop
  endfacet
  facet normal -0.992709 -0.120537 0
    outer loop
      vertex 65.3889 -31.5556 2
      vertex 65.625 -33.5 0.599999
      vertex 65.625 -33.5 2
    endloop
  endfacet
  facet normal -0.822984 -0.568064 0
    outer loop
      vertex 64.6943 -29.7241 0.599999
      vertex 63.5816 -28.1121 2
      vertex 63.5816 -28.1121 0.599999
    endloop
  endfacet
  facet normal -0.822984 -0.568064 0
    outer loop
      vertex 63.5816 -28.1121 2
      vertex 64.6943 -29.7241 0.599999
      vertex 64.6943 -29.7241 2
    endloop
  endfacet
  facet normal 0.992709 -0.120537 0
    outer loop
      vertex 49.375 -33.5 2
      vertex 49.6111 -31.5556 0.599999
      vertex 49.6111 -31.5556 2
    endloop
  endfacet
  facet normal 0.992709 -0.120537 0
    outer loop
      vertex 49.6111 -31.5556 0.599999
      vertex 49.375 -33.5 2
      vertex 49.375 -33.5 0.599999
    endloop
  endfacet
  facet normal 0.239316 -0.970942 0
    outer loop
      vertex 54.6188 -25.903 0.599999
      vertex 56.5206 -25.4342 2
      vertex 54.6188 -25.903 2
    endloop
  endfacet
  facet normal 0.239316 -0.970942 0
    outer loop
      vertex 56.5206 -25.4342 2
      vertex 54.6188 -25.903 0.599999
      vertex 56.5206 -25.4342 0.599999
    endloop
  endfacet
  facet normal 0.663123 -0.748511 0
    outer loop
      vertex 51.4184 -28.1121 0.599999
      vertex 52.8845 -26.8133 2
      vertex 51.4184 -28.1121 2
    endloop
  endfacet
  facet normal 0.663123 -0.748511 0
    outer loop
      vertex 52.8845 -26.8133 2
      vertex 51.4184 -28.1121 0.599999
      vertex 52.8845 -26.8133 0.599999
    endloop
  endfacet
  facet normal -0.464724 -0.885456 0
    outer loop
      vertex 60.3812 -25.903 0.599999
      vertex 62.1155 -26.8133 2
      vertex 60.3812 -25.903 2
    endloop
  endfacet
  facet normal -0.464724 -0.885456 -0
    outer loop
      vertex 62.1155 -26.8133 2
      vertex 60.3812 -25.903 0.599999
      vertex 62.1155 -26.8133 0.599999
    endloop
  endfacet
  facet normal 0 -1 0
    outer loop
      vertex 56.5206 -25.4342 0.599999
      vertex 58.4794 -25.4342 2
      vertex 56.5206 -25.4342 2
    endloop
  endfacet
  facet normal 0 -1 -0
    outer loop
      vertex 58.4794 -25.4342 2
      vertex 56.5206 -25.4342 0.599999
      vertex 58.4794 -25.4342 0.599999
    endloop
  endfacet
  facet normal 0.464724 -0.885456 0
    outer loop
      vertex 52.8845 -26.8133 0.599999
      vertex 54.6188 -25.903 2
      vertex 52.8845 -26.8133 2
    endloop
  endfacet
  facet normal 0.464724 -0.885456 0
    outer loop
      vertex 54.6188 -25.903 2
      vertex 52.8845 -26.8133 0.599999
      vertex 54.6188 -25.903 0.599999
    endloop
  endfacet
  facet normal 0.822984 -0.568064 0
    outer loop
      vertex 50.3057 -29.7241 2
      vertex 51.4184 -28.1121 0.599999
      vertex 51.4184 -28.1121 2
    endloop
  endfacet
  facet normal 0.822984 -0.568064 0
    outer loop
      vertex 51.4184 -28.1121 0.599999
      vertex 50.3057 -29.7241 2
      vertex 50.3057 -29.7241 0.599999
    endloop
  endfacet
  facet normal 0.935016 -0.354605 0
    outer loop
      vertex 49.6111 -31.5556 2
      vertex 50.3057 -29.7241 0.599999
      vertex 50.3057 -29.7241 2
    endloop
  endfacet
  facet normal 0.935016 -0.354605 0
    outer loop
      vertex 50.3057 -29.7241 0.599999
      vertex 49.6111 -31.5556 2
      vertex 49.6111 -31.5556 0.599999
    endloop
  endfacet
  facet normal -0.663123 -0.748511 0
    outer loop
      vertex 62.1155 -26.8133 0.599999
      vertex 63.5816 -28.1121 2
      vertex 62.1155 -26.8133 2
    endloop
  endfacet
  facet normal -0.663123 -0.748511 -0
    outer loop
      vertex 63.5816 -28.1121 2
      vertex 62.1155 -26.8133 0.599999
      vertex 63.5816 -28.1121 0.599999
    endloop
  endfacet
endsolid OpenSCAD_Model
