solid OpenSCAD_Model
  facet normal -1 0 0
    outer loop
      vertex -7 -87 0
      vertex -7 7 2
      vertex -7 7 0
    endloop
  endfacet
  facet normal -1 -0 0
    outer loop
      vertex -7 7 2
      vertex -7 -87 0
      vertex -7 -87 2
    endloop
  endfacet
  facet normal 0 0 1
    outer loop
      vertex 78 -2 2
      vertex 47.8889 -38.0556 2
      vertex 48.125 -40 2
    endloop
  endfacet
  facet normal 0 0 1
    outer loop
      vertex 39.0558 -2 2
      vertex 49.1137 3.78438 2
      vertex 47.2 4 2
    endloop
  endfacet
  facet normal 0 0 1
    outer loop
      vertex 55.3442 -2 2
      vertex 47.1943 -36.2241 2
      vertex 47.8889 -38.0556 2
    endloop
  endfacet
  facet normal 0 0 1
    outer loop
      vertex 55.3442 -2 2
      vertex 46.0816 -34.6121 2
      vertex 47.1943 -36.2241 2
    endloop
  endfacet
  facet normal 0 0 1
    outer loop
      vertex 39.0558 -2 2
      vertex 47.2 4 2
      vertex 45.2863 3.78438 2
    endloop
  endfacet
  facet normal 0 0 1
    outer loop
      vertex 55.3442 -2 2
      vertex 44.6155 -33.3133 2
      vertex 46.0816 -34.6121 2
    endloop
  endfacet
  facet normal 0 0 1
    outer loop
      vertex 39.0558 -2 2
      vertex 45.2863 3.78438 2
      vertex 43.4686 3.14833 2
    endloop
  endfacet
  facet normal 0 -0 1
    outer loop
      vertex 42.8812 -32.403 2
      vertex 55.3442 -2 2
      vertex 39.0558 -2 2
    endloop
  endfacet
  facet normal 0 0 1
    outer loop
      vertex 39.0558 -2 2
      vertex 43.4686 3.14833 2
      vertex 41.838 2.12375 2
    endloop
  endfacet
  facet normal 0 0 1
    outer loop
      vertex 55.3442 -2 2
      vertex 42.8812 -32.403 2
      vertex 44.6155 -33.3133 2
    endloop
  endfacet
  facet normal 0 0 1
    outer loop
      vertex 39.0558 -2 2
      vertex 41.838 2.12375 2
      vertex 40.4762 0.762012 2
    endloop
  endfacet
  facet normal 0 0 1
    outer loop
      vertex 39.0558 -2 2
      vertex 40.4762 0.762012 2
      vertex 39.4517 -0.868599 2
    endloop
  endfacet
  facet normal 0 0 1
    outer loop
      vertex 42.8812 -32.403 2
      vertex 39.0558 -2 2
      vertex 40.9794 -31.9342 2
    endloop
  endfacet
  facet normal 0 0 1
    outer loop
      vertex 39.0558 -2 2
      vertex 39.0206 -31.9342 2
      vertex 40.9794 -31.9342 2
    endloop
  endfacet
  facet normal -0 0 1
    outer loop
      vertex 38.1276 -2 2
      vertex 39.0206 -31.9342 2
      vertex 39.0558 -2 2
    endloop
  endfacet
  facet normal 0 0 1
    outer loop
      vertex 37.3902 -0.0630503 2
      vertex 38.1276 -2 2
      vertex 38.1137 -1.89027 2
    endloop
  endfacet
  facet normal 0 0 1
    outer loop
      vertex 38.1276 -2 2
      vertex 37.3902 -0.0630503 2
      vertex 22.962 -2 2
    endloop
  endfacet
  facet normal 0 0 1
    outer loop
      vertex 38.1276 -2 2
      vertex 37.1188 -32.403 2
      vertex 39.0206 -31.9342 2
    endloop
  endfacet
  facet normal 0 0 1
    outer loop
      vertex 22.962 -2 2
      vertex 37.3902 -0.0630503 2
      vertex 36.2351 1.52685 2
    endloop
  endfacet
  facet normal 0 0 1
    outer loop
      vertex 38.1276 -2 2
      vertex 22.962 -2 2
      vertex 37.1188 -32.403 2
    endloop
  endfacet
  facet normal 0 0 1
    outer loop
      vertex 22.962 -2 2
      vertex 36.2351 1.52685 2
      vertex 34.7209 2.77953 2
    endloop
  endfacet
  facet normal 0 0 1
    outer loop
      vertex 37.1188 -32.403 2
      vertex 22.962 -2 2
      vertex 35.3845 -33.3133 2
    endloop
  endfacet
  facet normal 0 0 1
    outer loop
      vertex 22.962 -2 2
      vertex 34.7209 2.77953 2
      vertex 32.9427 3.61628 2
    endloop
  endfacet
  facet normal 0 0 1
    outer loop
      vertex 35.3845 -33.3133 2
      vertex 22.962 -2 2
      vertex 33.9184 -34.6121 2
    endloop
  endfacet
  facet normal -0 0 1
    outer loop
      vertex 20.4476 -2 2
      vertex 33.9184 -34.6121 2
      vertex 22.962 -2 2
    endloop
  endfacet
  facet normal 0 0 1
    outer loop
      vertex 33.9184 -34.6121 2
      vertex 20.4476 -2 2
      vertex 32.8057 -36.2241 2
    endloop
  endfacet
  facet normal 0 0 1
    outer loop
      vertex 22.962 -2 2
      vertex 32.9427 3.61628 2
      vertex 31.0123 3.98453 2
    endloop
  endfacet
  facet normal 0 0 1
    outer loop
      vertex 47.8889 -38.0556 2
      vertex 78 -2 2
      vertex 74.5442 -2 2
    endloop
  endfacet
  facet normal 0 0 1
    outer loop
      vertex 73.1237 0.762012 2
      vertex 74.5442 -2 2
      vertex 74.1483 -0.868599 2
    endloop
  endfacet
  facet normal 0 0 1
    outer loop
      vertex 71.762 2.12375 2
      vertex 74.5442 -2 2
      vertex 73.1237 0.762012 2
    endloop
  endfacet
  facet normal 0 0 1
    outer loop
      vertex 74.5442 -2 2
      vertex 71.762 2.12375 2
      vertex 58.2558 -2 2
    endloop
  endfacet
  facet normal 0 0 1
    outer loop
      vertex 58.2558 -2 2
      vertex 71.762 2.12375 2
      vertex 70.1314 3.14833 2
    endloop
  endfacet
  facet normal 0 0 1
    outer loop
      vertex 58.2558 -2 2
      vertex 70.1314 3.14833 2
      vertex 68.3137 3.78438 2
    endloop
  endfacet
  facet normal 0 0 1
    outer loop
      vertex 58.2558 -2 2
      vertex 68.3137 3.78438 2
      vertex 66.4 4 2
    endloop
  endfacet
  facet normal 0 0 1
    outer loop
      vertex 58.2558 -2 2
      vertex 66.4 4 2
      vertex 64.4863 3.78438 2
    endloop
  endfacet
  facet normal 0 0 1
    outer loop
      vertex 58.2558 -2 2
      vertex 64.4863 3.78438 2
      vertex 62.6686 3.14833 2
    endloop
  endfacet
  facet normal 0 0 1
    outer loop
      vertex 58.2558 -2 2
      vertex 62.6686 3.14833 2
      vertex 61.038 2.12375 2
    endloop
  endfacet
  facet normal 0 0 1
    outer loop
      vertex 58.2558 -2 2
      vertex 61.038 2.12375 2
      vertex 59.6762 0.762012 2
    endloop
  endfacet
  facet normal 0 0 1
    outer loop
      vertex 58.2558 -2 2
      vertex 59.6762 0.762012 2
      vertex 58.6517 -0.868599 2
    endloop
  endfacet
  facet normal 0 0 1
    outer loop
      vertex 47.8889 -38.0556 2
      vertex 74.5442 -2 2
      vertex 58.2558 -2 2
    endloop
  endfacet
  facet normal 0 0 1
    outer loop
      vertex 47.8889 -38.0556 2
      vertex 58.2558 -2 2
      vertex 55.3442 -2 2
    endloop
  endfacet
  facet normal 0 0 1
    outer loop
      vertex 53.9238 0.762012 2
      vertex 55.3442 -2 2
      vertex 54.9483 -0.868599 2
    endloop
  endfacet
  facet normal 0 0 1
    outer loop
      vertex 52.562 2.12375 2
      vertex 55.3442 -2 2
      vertex 53.9238 0.762012 2
    endloop
  endfacet
  facet normal 0 0 1
    outer loop
      vertex 55.3442 -2 2
      vertex 52.562 2.12375 2
      vertex 49.1137 3.78438 2
    endloop
  endfacet
  facet normal 0 0 1
    outer loop
      vertex 49.1137 3.78438 2
      vertex 52.562 2.12375 2
      vertex 50.9314 3.14833 2
    endloop
  endfacet
  facet normal 0 0 1
    outer loop
      vertex 39.0558 -2 2
      vertex 55.3442 -2 2
      vertex 49.1137 3.78438 2
    endloop
  endfacet
  facet normal 0 0 1
    outer loop
      vertex 78 -2 2
      vertex 48.125 -40 2
      vertex 78 -78 2
    endloop
  endfacet
  facet normal -0 0 1
    outer loop
      vertex 47.8889 -41.9444 2
      vertex 78 -78 2
      vertex 48.125 -40 2
    endloop
  endfacet
  facet normal -0 0 1
    outer loop
      vertex 47.1943 -43.7759 2
      vertex 78 -78 2
      vertex 47.8889 -41.9444 2
    endloop
  endfacet
  facet normal -0 0 1
    outer loop
      vertex 46.0816 -45.3879 2
      vertex 78 -78 2
      vertex 47.1943 -43.7759 2
    endloop
  endfacet
  facet normal -0 0 1
    outer loop
      vertex 44.6155 -46.6867 2
      vertex 78 -78 2
      vertex 46.0816 -45.3879 2
    endloop
  endfacet
  facet normal -0 0 1
    outer loop
      vertex 42.8812 -47.597 2
      vertex 78 -78 2
      vertex 44.6155 -46.6867 2
    endloop
  endfacet
  facet normal -0 0 1
    outer loop
      vertex 40.9794 -48.0658 2
      vertex 78 -78 2
      vertex 42.8812 -47.597 2
    endloop
  endfacet
  facet normal -0 0 1
    outer loop
      vertex 39.0206 -48.0658 2
      vertex 78 -78 2
      vertex 40.9794 -48.0658 2
    endloop
  endfacet
  facet normal 0 0 1
    outer loop
      vertex 2 -78 2
      vertex 39.0206 -48.0658 2
      vertex 37.1188 -47.597 2
    endloop
  endfacet
  facet normal 0 0 1
    outer loop
      vertex 2 -78 2
      vertex 37.1188 -47.597 2
      vertex 35.3845 -46.6867 2
    endloop
  endfacet
  facet normal 0 0 1
    outer loop
      vertex 22.962 -2 2
      vertex 31.0123 3.98453 2
      vertex 29.0509 3.86113 2
    endloop
  endfacet
  facet normal 0 0 1
    outer loop
      vertex 22.962 -2 2
      vertex 29.0509 3.86113 2
      vertex 27.1819 3.25384 2
    endloop
  endfacet
  facet normal 0 0 1
    outer loop
      vertex 22.962 -2 2
      vertex 27.1819 3.25384 2
      vertex 25.5226 2.20082 2
    endloop
  endfacet
  facet normal -0 0 1
    outer loop
      vertex 5.28196 -2 2
      vertex 32.8057 -36.2241 2
      vertex 20.4476 -2 2
    endloop
  endfacet
  facet normal 0 0 1
    outer loop
      vertex 22.962 -2 2
      vertex 25.5226 2.20082 2
      vertex 24.1773 0.768236 2
    endloop
  endfacet
  facet normal 0 0 1
    outer loop
      vertex 22.962 -2 2
      vertex 24.1773 0.768236 2
      vertex 23.2306 -0.953903 2
    endloop
  endfacet
  facet normal 0 0 1
    outer loop
      vertex 32.8057 -36.2241 2
      vertex 5.28196 -2 2
      vertex 32.1111 -38.0556 2
    endloop
  endfacet
  facet normal -0 0 1
    outer loop
      vertex 2 -2 2
      vertex 32.1111 -38.0556 2
      vertex 5.28196 -2 2
    endloop
  endfacet
  facet normal 0 0 1
    outer loop
      vertex 19.7102 -0.0630503 2
      vertex 20.4476 -2 2
      vertex 20.4337 -1.89027 2
    endloop
  endfacet
  facet normal 0 0 1
    outer loop
      vertex 5.28196 -2 2
      vertex 20.4476 -2 2
      vertex 19.7102 -0.0630503 2
    endloop
  endfacet
  facet normal 0 0 1
    outer loop
      vertex 5.28196 -2 2
      vertex 19.7102 -0.0630503 2
      vertex 18.5551 1.52685 2
    endloop
  endfacet
  facet normal 0 0 1
    outer loop
      vertex 5.28196 -2 2
      vertex 18.5551 1.52685 2
      vertex 17.0409 2.77953 2
    endloop
  endfacet
  facet normal 0 0 1
    outer loop
      vertex 5.28196 -2 2
      vertex 17.0409 2.77953 2
      vertex 15.2627 3.61628 2
    endloop
  endfacet
  facet normal 0 0 1
    outer loop
      vertex 5.28196 -2 2
      vertex 15.2627 3.61628 2
      vertex 13.3323 3.98453 2
    endloop
  endfacet
  facet normal 0 0 1
    outer loop
      vertex 32.1111 -38.0556 2
      vertex 2 -2 2
      vertex 31.875 -40 2
    endloop
  endfacet
  facet normal 0 0 1
    outer loop
      vertex 5.28196 -2 2
      vertex 13.3323 3.98453 2
      vertex 11.3709 3.86113 2
    endloop
  endfacet
  facet normal 0 0 1
    outer loop
      vertex 5.28196 -2 2
      vertex 11.3709 3.86113 2
      vertex 9.50189 3.25384 2
    endloop
  endfacet
  facet normal 0 0 1
    outer loop
      vertex 5.28196 -2 2
      vertex 9.50189 3.25384 2
      vertex 7.8426 2.20082 2
    endloop
  endfacet
  facet normal 0 0 1
    outer loop
      vertex 5.28196 -2 2
      vertex 7.8426 2.20082 2
      vertex 6.49731 0.768236 2
    endloop
  endfacet
  facet normal 0 0 1
    outer loop
      vertex 5.28196 -2 2
      vertex 6.49731 0.768236 2
      vertex 5.55055 -0.953903 2
    endloop
  endfacet
  facet normal 0 0 1
    outer loop
      vertex 2 -78 2
      vertex 31.875 -40 2
      vertex 2 -2 2
    endloop
  endfacet
  facet normal 0 0 1
    outer loop
      vertex 31.875 -40 2
      vertex 2 -78 2
      vertex 32.1111 -41.9444 2
    endloop
  endfacet
  facet normal 0 0 1
    outer loop
      vertex 32.1111 -41.9444 2
      vertex 2 -78 2
      vertex 32.8057 -43.7759 2
    endloop
  endfacet
  facet normal 0 0 1
    outer loop
      vertex 39.0206 -48.0658 2
      vertex 2 -78 2
      vertex 78 -78 2
    endloop
  endfacet
  facet normal 0 0 1
    outer loop
      vertex 33.9184 -45.3879 2
      vertex 2 -78 2
      vertex 35.3845 -46.6867 2
    endloop
  endfacet
  facet normal 0 0 1
    outer loop
      vertex 32.8057 -43.7759 2
      vertex 2 -78 2
      vertex 33.9184 -45.3879 2
    endloop
  endfacet
  facet normal 0 0 1
    outer loop
      vertex 87 7 2
      vertex 80 0 2
      vertex 87 -87 2
    endloop
  endfacet
  facet normal -0 0 1
    outer loop
      vertex 73.1237 2.76201 2
      vertex 80 0 2
      vertex 87 7 2
    endloop
  endfacet
  facet normal 0 0 1
    outer loop
      vertex 80 0 2
      vertex 74.1483 1.1314 2
      vertex 74.5442 0 2
    endloop
  endfacet
  facet normal 0 0 1
    outer loop
      vertex 80 0 2
      vertex 73.1237 2.76201 2
      vertex 74.1483 1.1314 2
    endloop
  endfacet
  facet normal 0 0 1
    outer loop
      vertex 87 7 2
      vertex 71.762 4.12375 2
      vertex 73.1237 2.76201 2
    endloop
  endfacet
  facet normal 0 0 1
    outer loop
      vertex 87 7 2
      vertex 70.1314 5.14833 2
      vertex 71.762 4.12375 2
    endloop
  endfacet
  facet normal 0 0 1
    outer loop
      vertex 87 7 2
      vertex 68.3137 5.78438 2
      vertex 70.1314 5.14833 2
    endloop
  endfacet
  facet normal 0 0 1
    outer loop
      vertex 87 7 2
      vertex 66.4 6 2
      vertex 68.3137 5.78438 2
    endloop
  endfacet
  facet normal 0 0 1
    outer loop
      vertex 58.6517 1.1314 2
      vertex 55.3442 0 2
      vertex 58.2558 0 2
    endloop
  endfacet
  facet normal 0 0 1
    outer loop
      vertex 54.9483 1.1314 2
      vertex 58.6517 1.1314 2
      vertex 59.6762 2.76201 2
    endloop
  endfacet
  facet normal 0 0 1
    outer loop
      vertex 53.9238 2.76201 2
      vertex 59.6762 2.76201 2
      vertex 61.038 4.12375 2
    endloop
  endfacet
  facet normal 0 0 1
    outer loop
      vertex 58.6517 1.1314 2
      vertex 54.9483 1.1314 2
      vertex 55.3442 0 2
    endloop
  endfacet
  facet normal 0 0 1
    outer loop
      vertex 52.562 4.12375 2
      vertex 61.038 4.12375 2
      vertex 62.6686 5.14833 2
    endloop
  endfacet
  facet normal 0 0 1
    outer loop
      vertex 59.6762 2.76201 2
      vertex 53.9238 2.76201 2
      vertex 54.9483 1.1314 2
    endloop
  endfacet
  facet normal 0 0 1
    outer loop
      vertex 50.9314 5.14833 2
      vertex 62.6686 5.14833 2
      vertex 64.4863 5.78438 2
    endloop
  endfacet
  facet normal 0 0 1
    outer loop
      vertex 61.038 4.12375 2
      vertex 52.562 4.12375 2
      vertex 53.9238 2.76201 2
    endloop
  endfacet
  facet normal 0 0 1
    outer loop
      vertex 62.6686 5.14833 2
      vertex 50.9314 5.14833 2
      vertex 52.562 4.12375 2
    endloop
  endfacet
  facet normal 0 0 1
    outer loop
      vertex 49.1137 5.78438 2
      vertex 64.4863 5.78438 2
      vertex 66.4 6 2
    endloop
  endfacet
  facet normal 0 0 1
    outer loop
      vertex 64.4863 5.78438 2
      vertex 49.1137 5.78438 2
      vertex 50.9314 5.14833 2
    endloop
  endfacet
  facet normal 0 0 1
    outer loop
      vertex 47.2 6 2
      vertex 66.4 6 2
      vertex 87 7 2
    endloop
  endfacet
  facet normal 0 0 1
    outer loop
      vertex 66.4 6 2
      vertex 47.2 6 2
      vertex 49.1137 5.78438 2
    endloop
  endfacet
  facet normal -0 0 1
    outer loop
      vertex 38.1137 0.109729 2
      vertex 39.0558 0 2
      vertex 39.4517 1.1314 2
    endloop
  endfacet
  facet normal -0 0 1
    outer loop
      vertex 37.3902 1.93695 2
      vertex 39.4517 1.1314 2
      vertex 40.4762 2.76201 2
    endloop
  endfacet
  facet normal 0 0 1
    outer loop
      vertex 39.0558 0 2
      vertex 38.1137 0.109729 2
      vertex 38.1276 0 2
    endloop
  endfacet
  facet normal 0 0 1
    outer loop
      vertex 39.4517 1.1314 2
      vertex 37.3902 1.93695 2
      vertex 38.1137 0.109729 2
    endloop
  endfacet
  facet normal -0 0 1
    outer loop
      vertex 36.2351 3.52685 2
      vertex 40.4762 2.76201 2
      vertex 41.838 4.12375 2
    endloop
  endfacet
  facet normal -0 0 1
    outer loop
      vertex 34.7209 4.77953 2
      vertex 41.838 4.12375 2
      vertex 43.4686 5.14833 2
    endloop
  endfacet
  facet normal 0 0 1
    outer loop
      vertex 40.4762 2.76201 2
      vertex 36.2351 3.52685 2
      vertex 37.3902 1.93695 2
    endloop
  endfacet
  facet normal -0 0 1
    outer loop
      vertex 32.9427 5.61628 2
      vertex 43.4686 5.14833 2
      vertex 45.2863 5.78438 2
    endloop
  endfacet
  facet normal 0 0 1
    outer loop
      vertex 41.838 4.12375 2
      vertex 34.7209 4.77953 2
      vertex 36.2351 3.52685 2
    endloop
  endfacet
  facet normal -0 0 1
    outer loop
      vertex 31.0123 5.98453 2
      vertex 45.2863 5.78438 2
      vertex 47.2 6 2
    endloop
  endfacet
  facet normal 0 0 1
    outer loop
      vertex 43.4686 5.14833 2
      vertex 32.9427 5.61628 2
      vertex 34.7209 4.77953 2
    endloop
  endfacet
  facet normal 0 0 1
    outer loop
      vertex 45.2863 5.78438 2
      vertex 31.0123 5.98453 2
      vertex 32.9427 5.61628 2
    endloop
  endfacet
  facet normal 0 0 1
    outer loop
      vertex 87 7 2
      vertex 31.0123 5.98453 2
      vertex 47.2 6 2
    endloop
  endfacet
  facet normal -0 0 1
    outer loop
      vertex 20.4337 0.109729 2
      vertex 22.962 0 2
      vertex 23.2306 1.0461 2
    endloop
  endfacet
  facet normal -0 0 1
    outer loop
      vertex 19.7102 1.93695 2
      vertex 23.2306 1.0461 2
      vertex 24.1773 2.76824 2
    endloop
  endfacet
  facet normal -0 0 1
    outer loop
      vertex 18.5551 3.52685 2
      vertex 24.1773 2.76824 2
      vertex 25.5226 4.20082 2
    endloop
  endfacet
  facet normal 0 0 1
    outer loop
      vertex 22.962 0 2
      vertex 20.4337 0.109729 2
      vertex 20.4476 0 2
    endloop
  endfacet
  facet normal 0 0 1
    outer loop
      vertex 23.2306 1.0461 2
      vertex 19.7102 1.93695 2
      vertex 20.4337 0.109729 2
    endloop
  endfacet
  facet normal -0 0 1
    outer loop
      vertex 17.0409 4.77953 2
      vertex 25.5226 4.20082 2
      vertex 27.1819 5.25384 2
    endloop
  endfacet
  facet normal 0 0 1
    outer loop
      vertex 24.1773 2.76824 2
      vertex 18.5551 3.52685 2
      vertex 19.7102 1.93695 2
    endloop
  endfacet
  facet normal -0 0 1
    outer loop
      vertex 15.2627 5.61628 2
      vertex 27.1819 5.25384 2
      vertex 29.0509 5.86113 2
    endloop
  endfacet
  facet normal 0 0 1
    outer loop
      vertex 25.5226 4.20082 2
      vertex 17.0409 4.77953 2
      vertex 18.5551 3.52685 2
    endloop
  endfacet
  facet normal 0 0 1
    outer loop
      vertex 27.1819 5.25384 2
      vertex 15.2627 5.61628 2
      vertex 17.0409 4.77953 2
    endloop
  endfacet
  facet normal -0 0 1
    outer loop
      vertex 13.3323 5.98453 2
      vertex 29.0509 5.86113 2
      vertex 31.0123 5.98453 2
    endloop
  endfacet
  facet normal 0 0 1
    outer loop
      vertex 29.0509 5.86113 2
      vertex 13.3323 5.98453 2
      vertex 15.2627 5.61628 2
    endloop
  endfacet
  facet normal -0 0 1
    outer loop
      vertex -7 7 2
      vertex 31.0123 5.98453 2
      vertex 87 7 2
    endloop
  endfacet
  facet normal 0 0 1
    outer loop
      vertex 5.55055 1.0461 2
      vertex 0 0 2
      vertex 5.28196 0 2
    endloop
  endfacet
  facet normal 0 0 1
    outer loop
      vertex 6.49731 2.76824 2
      vertex 0 0 2
      vertex 5.55055 1.0461 2
    endloop
  endfacet
  facet normal 0 0 1
    outer loop
      vertex -7 7 2
      vertex 6.49731 2.76824 2
      vertex 7.8426 4.20082 2
    endloop
  endfacet
  facet normal 0 0 1
    outer loop
      vertex -7 7 2
      vertex 7.8426 4.20082 2
      vertex 9.50189 5.25384 2
    endloop
  endfacet
  facet normal 0 0 1
    outer loop
      vertex 0 0 2
      vertex -7 7 2
      vertex 0 -80 2
    endloop
  endfacet
  facet normal 0 0 1
    outer loop
      vertex 6.49731 2.76824 2
      vertex -7 7 2
      vertex 0 0 2
    endloop
  endfacet
  facet normal 0 0 1
    outer loop
      vertex 11.3709 5.86113 2
      vertex -7 7 2
      vertex 9.50189 5.25384 2
    endloop
  endfacet
  facet normal 0 0 1
    outer loop
      vertex 13.3323 5.98453 2
      vertex -7 7 2
      vertex 11.3709 5.86113 2
    endloop
  endfacet
  facet normal 0 0 1
    outer loop
      vertex 31.0123 5.98453 2
      vertex -7 7 2
      vertex 13.3323 5.98453 2
    endloop
  endfacet
  facet normal -0 0 1
    outer loop
      vertex 80 -80 2
      vertex 87 -87 2
      vertex 80 0 2
    endloop
  endfacet
  facet normal -0 0 1
    outer loop
      vertex 0 -80 2
      vertex 87 -87 2
      vertex 80 -80 2
    endloop
  endfacet
  facet normal 0 0 1
    outer loop
      vertex 0 -80 2
      vertex -7 -87 2
      vertex 87 -87 2
    endloop
  endfacet
  facet normal 0 0 1
    outer loop
      vertex -7 -87 2
      vertex 0 -80 2
      vertex -7 7 2
    endloop
  endfacet
  facet normal 1 -0 0
    outer loop
      vertex 87 -87 2
      vertex 87 7 0
      vertex 87 7 2
    endloop
  endfacet
  facet normal 1 0 0
    outer loop
      vertex 87 7 0
      vertex 87 -87 2
      vertex 87 -87 0
    endloop
  endfacet
  facet normal 0 -1 0
    outer loop
      vertex -7 -87 0
      vertex 87 -87 2
      vertex -7 -87 2
    endloop
  endfacet
  facet normal 0 -1 -0
    outer loop
      vertex 87 -87 2
      vertex -7 -87 0
      vertex 87 -87 0
    endloop
  endfacet
  facet normal 0 0 -1
    outer loop
      vertex -7 -87 0
      vertex 87 7 0
      vertex 87 -87 0
    endloop
  endfacet
  facet normal -0 0 -1
    outer loop
      vertex 87 7 0
      vertex -7 -87 0
      vertex -7 7 0
    endloop
  endfacet
  facet normal 0 1 -0
    outer loop
      vertex 87 7 0
      vertex -7 7 2
      vertex 87 7 2
    endloop
  endfacet
  facet normal 0 1 0
    outer loop
      vertex -7 7 2
      vertex 87 7 0
      vertex -7 7 0
    endloop
  endfacet
  facet normal -0.992709 0.120537 0
    outer loop
      vertex 47.8889 -41.9444 0.599999
      vertex 48.125 -40 2
      vertex 48.125 -40 0.599999
    endloop
  endfacet
  facet normal -0.992709 0.120537 0
    outer loop
      vertex 48.125 -40 2
      vertex 47.8889 -41.9444 0.599999
      vertex 47.8889 -41.9444 2
    endloop
  endfacet
  facet normal 0.239315 0.970942 -0
    outer loop
      vertex 39.0206 -48.0658 0.599999
      vertex 37.1188 -47.597 2
      vertex 39.0206 -48.0658 2
    endloop
  endfacet
  facet normal 0.239315 0.970942 0
    outer loop
      vertex 37.1188 -47.597 2
      vertex 39.0206 -48.0658 0.599999
      vertex 37.1188 -47.597 0.599999
    endloop
  endfacet
  facet normal -0.239315 -0.970942 0
    outer loop
      vertex 40.9794 -31.9342 0.599999
      vertex 42.8812 -32.403 2
      vertex 40.9794 -31.9342 2
    endloop
  endfacet
  facet normal -0.239315 -0.970942 -0
    outer loop
      vertex 42.8812 -32.403 2
      vertex 40.9794 -31.9342 0.599999
      vertex 42.8812 -32.403 0.599999
    endloop
  endfacet
  facet normal -0.464724 0.885456 0
    outer loop
      vertex 44.6155 -46.6867 0.599999
      vertex 42.8812 -47.597 2
      vertex 44.6155 -46.6867 2
    endloop
  endfacet
  facet normal -0.464724 0.885456 0
    outer loop
      vertex 42.8812 -47.597 2
      vertex 44.6155 -46.6867 0.599999
      vertex 42.8812 -47.597 0.599999
    endloop
  endfacet
  facet normal -0.239314 0.970942 0
    outer loop
      vertex 42.8812 -47.597 0.599999
      vertex 40.9794 -48.0658 2
      vertex 42.8812 -47.597 2
    endloop
  endfacet
  facet normal -0.239314 0.970942 0
    outer loop
      vertex 40.9794 -48.0658 2
      vertex 42.8812 -47.597 0.599999
      vertex 40.9794 -48.0658 0.599999
    endloop
  endfacet
  facet normal 0.822984 0.568064 0
    outer loop
      vertex 33.9184 -45.3879 2
      vertex 32.8057 -43.7759 0.599999
      vertex 32.8057 -43.7759 2
    endloop
  endfacet
  facet normal 0.822984 0.568064 0
    outer loop
      vertex 32.8057 -43.7759 0.599999
      vertex 33.9184 -45.3879 2
      vertex 33.9184 -45.3879 0.599999
    endloop
  endfacet
  facet normal 0.935016 0.354605 0
    outer loop
      vertex 32.8057 -43.7759 2
      vertex 32.1111 -41.9444 0.599999
      vertex 32.1111 -41.9444 2
    endloop
  endfacet
  facet normal 0.935016 0.354605 0
    outer loop
      vertex 32.1111 -41.9444 0.599999
      vertex 32.8057 -43.7759 2
      vertex 32.8057 -43.7759 0.599999
    endloop
  endfacet
  facet normal 0.663123 0.748511 -0
    outer loop
      vertex 35.3845 -46.6867 0.599999
      vertex 33.9184 -45.3879 2
      vertex 35.3845 -46.6867 2
    endloop
  endfacet
  facet normal 0.663123 0.748511 0
    outer loop
      vertex 33.9184 -45.3879 2
      vertex 35.3845 -46.6867 0.599999
      vertex 33.9184 -45.3879 0.599999
    endloop
  endfacet
  facet normal -0.935016 -0.354605 0
    outer loop
      vertex 47.8889 -38.0556 0.599999
      vertex 47.1943 -36.2241 2
      vertex 47.1943 -36.2241 0.599999
    endloop
  endfacet
  facet normal -0.935016 -0.354605 0
    outer loop
      vertex 47.1943 -36.2241 2
      vertex 47.8889 -38.0556 0.599999
      vertex 47.8889 -38.0556 2
    endloop
  endfacet
  facet normal -0.822984 0.568064 0
    outer loop
      vertex 46.0816 -45.3879 0.599999
      vertex 47.1943 -43.7759 2
      vertex 47.1943 -43.7759 0.599999
    endloop
  endfacet
  facet normal -0.822984 0.568064 0
    outer loop
      vertex 47.1943 -43.7759 2
      vertex 46.0816 -45.3879 0.599999
      vertex 46.0816 -45.3879 2
    endloop
  endfacet
  facet normal -0.935016 0.354605 0
    outer loop
      vertex 47.1943 -43.7759 0.599999
      vertex 47.8889 -41.9444 2
      vertex 47.8889 -41.9444 0.599999
    endloop
  endfacet
  facet normal -0.935016 0.354605 0
    outer loop
      vertex 47.8889 -41.9444 2
      vertex 47.1943 -43.7759 0.599999
      vertex 47.1943 -43.7759 2
    endloop
  endfacet
  facet normal -0.663123 0.748511 0
    outer loop
      vertex 46.0816 -45.3879 0.599999
      vertex 44.6155 -46.6867 2
      vertex 46.0816 -45.3879 2
    endloop
  endfacet
  facet normal -0.663123 0.748511 0
    outer loop
      vertex 44.6155 -46.6867 2
      vertex 46.0816 -45.3879 0.599999
      vertex 44.6155 -46.6867 0.599999
    endloop
  endfacet
  facet normal 0 1 -0
    outer loop
      vertex 40.9794 -48.0658 0.599999
      vertex 39.0206 -48.0658 2
      vertex 40.9794 -48.0658 2
    endloop
  endfacet
  facet normal 0 1 0
    outer loop
      vertex 39.0206 -48.0658 2
      vertex 40.9794 -48.0658 0.599999
      vertex 39.0206 -48.0658 0.599999
    endloop
  endfacet
  facet normal 0 0 1
    outer loop
      vertex 47.8889 -38.0556 0.599999
      vertex 47.8889 -41.9444 0.599999
      vertex 48.125 -40 0.599999
    endloop
  endfacet
  facet normal 0 0 1
    outer loop
      vertex 47.1943 -36.2241 0.599999
      vertex 47.8889 -41.9444 0.599999
      vertex 47.8889 -38.0556 0.599999
    endloop
  endfacet
  facet normal 0 0 1
    outer loop
      vertex 47.1943 -36.2241 0.599999
      vertex 47.1943 -43.7759 0.599999
      vertex 47.8889 -41.9444 0.599999
    endloop
  endfacet
  facet normal 0 0 1
    outer loop
      vertex 46.0816 -34.6121 0.599999
      vertex 47.1943 -43.7759 0.599999
      vertex 47.1943 -36.2241 0.599999
    endloop
  endfacet
  facet normal 0 0 1
    outer loop
      vertex 46.0816 -34.6121 0.599999
      vertex 46.0816 -45.3879 0.599999
      vertex 47.1943 -43.7759 0.599999
    endloop
  endfacet
  facet normal 0 0 1
    outer loop
      vertex 44.6155 -33.3133 0.599999
      vertex 46.0816 -45.3879 0.599999
      vertex 46.0816 -34.6121 0.599999
    endloop
  endfacet
  facet normal 0 0 1
    outer loop
      vertex 44.6155 -33.3133 0.599999
      vertex 44.6155 -46.6867 0.599999
      vertex 46.0816 -45.3879 0.599999
    endloop
  endfacet
  facet normal 0 0 1
    outer loop
      vertex 42.8812 -32.403 0.599999
      vertex 44.6155 -46.6867 0.599999
      vertex 44.6155 -33.3133 0.599999
    endloop
  endfacet
  facet normal 0 0 1
    outer loop
      vertex 42.8812 -32.403 0.599999
      vertex 42.8812 -47.597 0.599999
      vertex 44.6155 -46.6867 0.599999
    endloop
  endfacet
  facet normal 0 0 1
    outer loop
      vertex 40.9794 -31.9342 0.599999
      vertex 42.8812 -47.597 0.599999
      vertex 42.8812 -32.403 0.599999
    endloop
  endfacet
  facet normal 0 0 1
    outer loop
      vertex 40.9794 -31.9342 0.599999
      vertex 40.9794 -48.0658 0.599999
      vertex 42.8812 -47.597 0.599999
    endloop
  endfacet
  facet normal -0 0 1
    outer loop
      vertex 39.0206 -31.9342 0.599999
      vertex 40.9794 -48.0658 0.599999
      vertex 40.9794 -31.9342 0.599999
    endloop
  endfacet
  facet normal 0 0 1
    outer loop
      vertex 39.0206 -31.9342 0.599999
      vertex 39.0206 -48.0658 0.599999
      vertex 40.9794 -48.0658 0.599999
    endloop
  endfacet
  facet normal -0 0 1
    outer loop
      vertex 37.1188 -32.403 0.599999
      vertex 39.0206 -48.0658 0.599999
      vertex 39.0206 -31.9342 0.599999
    endloop
  endfacet
  facet normal 0 0 1
    outer loop
      vertex 37.1188 -32.403 0.599999
      vertex 37.1188 -47.597 0.599999
      vertex 39.0206 -48.0658 0.599999
    endloop
  endfacet
  facet normal -0 0 1
    outer loop
      vertex 35.3845 -33.3133 0.599999
      vertex 37.1188 -47.597 0.599999
      vertex 37.1188 -32.403 0.599999
    endloop
  endfacet
  facet normal 0 0 1
    outer loop
      vertex 35.3845 -33.3133 0.599999
      vertex 35.3845 -46.6867 0.599999
      vertex 37.1188 -47.597 0.599999
    endloop
  endfacet
  facet normal -0 0 1
    outer loop
      vertex 33.9184 -34.6121 0.599999
      vertex 35.3845 -46.6867 0.599999
      vertex 35.3845 -33.3133 0.599999
    endloop
  endfacet
  facet normal 0 0 1
    outer loop
      vertex 33.9184 -34.6121 0.599999
      vertex 33.9184 -45.3879 0.599999
      vertex 35.3845 -46.6867 0.599999
    endloop
  endfacet
  facet normal -0 0 1
    outer loop
      vertex 32.8057 -36.2241 0.599999
      vertex 33.9184 -45.3879 0.599999
      vertex 33.9184 -34.6121 0.599999
    endloop
  endfacet
  facet normal 0 0 1
    outer loop
      vertex 32.8057 -36.2241 0.599999
      vertex 32.8057 -43.7759 0.599999
      vertex 33.9184 -45.3879 0.599999
    endloop
  endfacet
  facet normal -0 0 1
    outer loop
      vertex 32.1111 -38.0556 0.599999
      vertex 32.8057 -43.7759 0.599999
      vertex 32.8057 -36.2241 0.599999
    endloop
  endfacet
  facet normal 0 0 1
    outer loop
      vertex 32.1111 -38.0556 0.599999
      vertex 32.1111 -41.9444 0.599999
      vertex 32.8057 -43.7759 0.599999
    endloop
  endfacet
  facet normal 0 -0 1
    outer loop
      vertex 32.1111 -41.9444 0.599999
      vertex 32.1111 -38.0556 0.599999
      vertex 31.875 -40 0.599999
    endloop
  endfacet
  facet normal 0.992709 0.120537 0
    outer loop
      vertex 32.1111 -41.9444 2
      vertex 31.875 -40 0.599999
      vertex 31.875 -40 2
    endloop
  endfacet
  facet normal 0.992709 0.120537 0
    outer loop
      vertex 31.875 -40 0.599999
      vertex 32.1111 -41.9444 2
      vertex 32.1111 -41.9444 0.599999
    endloop
  endfacet
  facet normal 0.464724 0.885456 -0
    outer loop
      vertex 37.1188 -47.597 0.599999
      vertex 35.3845 -46.6867 2
      vertex 37.1188 -47.597 2
    endloop
  endfacet
  facet normal 0.464724 0.885456 0
    outer loop
      vertex 35.3845 -46.6867 2
      vertex 37.1188 -47.597 0.599999
      vertex 35.3845 -46.6867 0.599999
    endloop
  endfacet
  facet normal -0.992709 -0.120537 0
    outer loop
      vertex 48.125 -40 0.599999
      vertex 47.8889 -38.0556 2
      vertex 47.8889 -38.0556 0.599999
    endloop
  endfacet
  facet normal -0.992709 -0.120537 0
    outer loop
      vertex 47.8889 -38.0556 2
      vertex 48.125 -40 0.599999
      vertex 48.125 -40 2
    endloop
  endfacet
  facet normal -0.822984 -0.568064 0
    outer loop
      vertex 47.1943 -36.2241 0.599999
      vertex 46.0816 -34.6121 2
      vertex 46.0816 -34.6121 0.599999
    endloop
  endfacet
  facet normal -0.822984 -0.568064 0
    outer loop
      vertex 46.0816 -34.6121 2
      vertex 47.1943 -36.2241 0.599999
      vertex 47.1943 -36.2241 2
    endloop
  endfacet
  facet normal 0.992709 -0.120537 0
    outer loop
      vertex 31.875 -40 2
      vertex 32.1111 -38.0556 0.599999
      vertex 32.1111 -38.0556 2
    endloop
  endfacet
  facet normal 0.992709 -0.120537 0
    outer loop
      vertex 32.1111 -38.0556 0.599999
      vertex 31.875 -40 2
      vertex 31.875 -40 0.599999
    endloop
  endfacet
  facet normal 0.239316 -0.970942 0
    outer loop
      vertex 37.1188 -32.403 0.599999
      vertex 39.0206 -31.9342 2
      vertex 37.1188 -32.403 2
    endloop
  endfacet
  facet normal 0.239316 -0.970942 0
    outer loop
      vertex 39.0206 -31.9342 2
      vertex 37.1188 -32.403 0.599999
      vertex 39.0206 -31.9342 0.599999
    endloop
  endfacet
  facet normal 0.663123 -0.748511 0
    outer loop
      vertex 33.9184 -34.6121 0.599999
      vertex 35.3845 -33.3133 2
      vertex 33.9184 -34.6121 2
    endloop
  endfacet
  facet normal 0.663123 -0.748511 0
    outer loop
      vertex 35.3845 -33.3133 2
      vertex 33.9184 -34.6121 0.599999
      vertex 35.3845 -33.3133 0.599999
    endloop
  endfacet
  facet normal 0 -1 0
    outer loop
      vertex 39.0206 -31.9342 0.599999
      vertex 40.9794 -31.9342 2
      vertex 39.0206 -31.9342 2
    endloop
  endfacet
  facet normal 0 -1 -0
    outer loop
      vertex 40.9794 -31.9342 2
      vertex 39.0206 -31.9342 0.599999
      vertex 40.9794 -31.9342 0.599999
    endloop
  endfacet
  facet normal 0.464724 -0.885456 0
    outer loop
      vertex 35.3845 -33.3133 0.599999
      vertex 37.1188 -32.403 2
      vertex 35.3845 -33.3133 2
    endloop
  endfacet
  facet normal 0.464724 -0.885456 0
    outer loop
      vertex 37.1188 -32.403 2
      vertex 35.3845 -33.3133 0.599999
      vertex 37.1188 -32.403 0.599999
    endloop
  endfacet
  facet normal 0.822984 -0.568064 0
    outer loop
      vertex 32.8057 -36.2241 2
      vertex 33.9184 -34.6121 0.599999
      vertex 33.9184 -34.6121 2
    endloop
  endfacet
  facet normal 0.822984 -0.568064 0
    outer loop
      vertex 33.9184 -34.6121 0.599999
      vertex 32.8057 -36.2241 2
      vertex 32.8057 -36.2241 0.599999
    endloop
  endfacet
  facet normal 0.935016 -0.354605 0
    outer loop
      vertex 32.1111 -38.0556 2
      vertex 32.8057 -36.2241 0.599999
      vertex 32.8057 -36.2241 2
    endloop
  endfacet
  facet normal 0.935016 -0.354605 0
    outer loop
      vertex 32.8057 -36.2241 0.599999
      vertex 32.1111 -38.0556 2
      vertex 32.1111 -38.0556 0.599999
    endloop
  endfacet
  facet normal -0.663123 -0.748511 0
    outer loop
      vertex 44.6155 -33.3133 0.599999
      vertex 46.0816 -34.6121 2
      vertex 44.6155 -33.3133 2
    endloop
  endfacet
  facet normal -0.663123 -0.748511 -0
    outer loop
      vertex 46.0816 -34.6121 2
      vertex 44.6155 -33.3133 0.599999
      vertex 46.0816 -34.6121 0.599999
    endloop
  endfacet
  facet normal -0.464724 -0.885456 0
    outer loop
      vertex 42.8812 -32.403 0.599999
      vertex 44.6155 -33.3133 2
      vertex 42.8812 -32.403 2
    endloop
  endfacet
  facet normal -0.464724 -0.885456 -0
    outer loop
      vertex 44.6155 -33.3133 2
      vertex 42.8812 -32.403 0.599999
      vertex 44.6155 -33.3133 0.599999
    endloop
  endfacet
  facet normal -0.809017 -0.587785 0
    outer loop
      vertex 19.7102 -0.0630503 2
      vertex 18.5551 1.52685 3.5
      vertex 18.5551 1.52685 2
    endloop
  endfacet
  facet normal -0.809017 -0.587785 0
    outer loop
      vertex 18.5551 1.52685 3.5
      vertex 19.7102 -0.0630503 2
      vertex 19.7102 -0.0630503 3.5
    endloop
  endfacet
  facet normal -0.929776 -0.368125 0
    outer loop
      vertex 20.4337 -1.89027 2
      vertex 19.7102 -0.0630503 3.5
      vertex 19.7102 -0.0630503 2
    endloop
  endfacet
  facet normal -0.929776 -0.368125 0
    outer loop
      vertex 19.7102 -0.0630503 3.5
      vertex 20.4337 -1.89027 2
      vertex 20.4337 -1.89027 3.5
    endloop
  endfacet
  facet normal 0.968583 -0.24869 0
    outer loop
      vertex 5.28196 -2 3.5
      vertex 5.55055 -0.953903 2
      vertex 5.55055 -0.953903 3.5
    endloop
  endfacet
  facet normal 0.968583 -0.24869 0
    outer loop
      vertex 5.55055 -0.953903 2
      vertex 5.28196 -2 3.5
      vertex 5.28196 -2 2
    endloop
  endfacet
  facet normal 0 0 1
    outer loop
      vertex 80 0 3.5
      vertex 78 -2 3.5
      vertex 80 -80 3.5
    endloop
  endfacet
  facet normal -0 0 1
    outer loop
      vertex 74.5442 0 3.5
      vertex 78 -2 3.5
      vertex 80 0 3.5
    endloop
  endfacet
  facet normal 0 0 1
    outer loop
      vertex 74.5442 0 3.5
      vertex 74.5442 -2 3.5
      vertex 78 -2 3.5
    endloop
  endfacet
  facet normal -0 0 1
    outer loop
      vertex 73.1237 0.762012 3.5
      vertex 74.5442 0 3.5
      vertex 74.1483 1.1314 3.5
    endloop
  endfacet
  facet normal 0 0 1
    outer loop
      vertex 74.5442 0 3.5
      vertex 74.1483 -0.868599 3.5
      vertex 74.5442 -2 3.5
    endloop
  endfacet
  facet normal 0 0 1
    outer loop
      vertex 73.1237 0.762012 3.5
      vertex 74.1483 1.1314 3.5
      vertex 73.1237 2.76201 3.5
    endloop
  endfacet
  facet normal 0 0 1
    outer loop
      vertex 74.5442 0 3.5
      vertex 73.1237 0.762012 3.5
      vertex 74.1483 -0.868599 3.5
    endloop
  endfacet
  facet normal 0 0 1
    outer loop
      vertex 71.762 2.12375 3.5
      vertex 73.1237 2.76201 3.5
      vertex 71.762 4.12375 3.5
    endloop
  endfacet
  facet normal 0 0 1
    outer loop
      vertex 73.1237 2.76201 3.5
      vertex 71.762 2.12375 3.5
      vertex 73.1237 0.762012 3.5
    endloop
  endfacet
  facet normal 0 0 1
    outer loop
      vertex 70.1314 3.14833 3.5
      vertex 71.762 4.12375 3.5
      vertex 70.1314 5.14833 3.5
    endloop
  endfacet
  facet normal 0 0 1
    outer loop
      vertex 71.762 4.12375 3.5
      vertex 70.1314 3.14833 3.5
      vertex 71.762 2.12375 3.5
    endloop
  endfacet
  facet normal 0 0 1
    outer loop
      vertex 68.3137 3.78438 3.5
      vertex 70.1314 5.14833 3.5
      vertex 68.3137 5.78438 3.5
    endloop
  endfacet
  facet normal 0 0 1
    outer loop
      vertex 70.1314 5.14833 3.5
      vertex 68.3137 3.78438 3.5
      vertex 70.1314 3.14833 3.5
    endloop
  endfacet
  facet normal 0 0 1
    outer loop
      vertex 66.4 4 3.5
      vertex 68.3137 5.78438 3.5
      vertex 66.4 6 3.5
    endloop
  endfacet
  facet normal 0 0 1
    outer loop
      vertex 68.3137 5.78438 3.5
      vertex 66.4 4 3.5
      vertex 68.3137 3.78438 3.5
    endloop
  endfacet
  facet normal -0 0 1
    outer loop
      vertex 64.4863 5.78438 3.5
      vertex 66.4 4 3.5
      vertex 66.4 6 3.5
    endloop
  endfacet
  facet normal 0 0 1
    outer loop
      vertex 64.4863 5.78438 3.5
      vertex 64.4863 3.78438 3.5
      vertex 66.4 4 3.5
    endloop
  endfacet
  facet normal -0 0 1
    outer loop
      vertex 62.6686 5.14833 3.5
      vertex 64.4863 3.78438 3.5
      vertex 64.4863 5.78438 3.5
    endloop
  endfacet
  facet normal 0 0 1
    outer loop
      vertex 62.6686 5.14833 3.5
      vertex 62.6686 3.14833 3.5
      vertex 64.4863 3.78438 3.5
    endloop
  endfacet
  facet normal -0 0 1
    outer loop
      vertex 61.038 4.12375 3.5
      vertex 62.6686 3.14833 3.5
      vertex 62.6686 5.14833 3.5
    endloop
  endfacet
  facet normal 0 0 1
    outer loop
      vertex 61.038 4.12375 3.5
      vertex 61.038 2.12375 3.5
      vertex 62.6686 3.14833 3.5
    endloop
  endfacet
  facet normal -0 0 1
    outer loop
      vertex 59.6762 2.76201 3.5
      vertex 61.038 2.12375 3.5
      vertex 61.038 4.12375 3.5
    endloop
  endfacet
  facet normal 0 0 1
    outer loop
      vertex 59.6762 2.76201 3.5
      vertex 59.6762 0.762012 3.5
      vertex 61.038 2.12375 3.5
    endloop
  endfacet
  facet normal -0 0 1
    outer loop
      vertex 58.6517 1.1314 3.5
      vertex 59.6762 0.762012 3.5
      vertex 59.6762 2.76201 3.5
    endloop
  endfacet
  facet normal 0 0 1
    outer loop
      vertex 58.2558 0 3.5
      vertex 59.6762 0.762012 3.5
      vertex 58.6517 1.1314 3.5
    endloop
  endfacet
  facet normal 0 0 1
    outer loop
      vertex 59.6762 0.762012 3.5
      vertex 58.2558 0 3.5
      vertex 58.6517 -0.868599 3.5
    endloop
  endfacet
  facet normal 0 0 1
    outer loop
      vertex 58.2558 0 3.5
      vertex 58.2558 -2 3.5
      vertex 58.6517 -0.868599 3.5
    endloop
  endfacet
  facet normal -0 0 1
    outer loop
      vertex 55.3442 0 3.5
      vertex 58.2558 -2 3.5
      vertex 58.2558 0 3.5
    endloop
  endfacet
  facet normal 0 0 1
    outer loop
      vertex 55.3442 0 3.5
      vertex 55.3442 -2 3.5
      vertex 58.2558 -2 3.5
    endloop
  endfacet
  facet normal -0 0 1
    outer loop
      vertex 53.9238 0.762012 3.5
      vertex 55.3442 0 3.5
      vertex 54.9483 1.1314 3.5
    endloop
  endfacet
  facet normal 0 0 1
    outer loop
      vertex 55.3442 0 3.5
      vertex 54.9483 -0.868599 3.5
      vertex 55.3442 -2 3.5
    endloop
  endfacet
  facet normal 0 0 1
    outer loop
      vertex 53.9238 0.762012 3.5
      vertex 54.9483 1.1314 3.5
      vertex 53.9238 2.76201 3.5
    endloop
  endfacet
  facet normal 0 0 1
    outer loop
      vertex 55.3442 0 3.5
      vertex 53.9238 0.762012 3.5
      vertex 54.9483 -0.868599 3.5
    endloop
  endfacet
  facet normal 0 0 1
    outer loop
      vertex 52.562 2.12375 3.5
      vertex 53.9238 2.76201 3.5
      vertex 52.562 4.12375 3.5
    endloop
  endfacet
  facet normal 0 0 1
    outer loop
      vertex 53.9238 2.76201 3.5
      vertex 52.562 2.12375 3.5
      vertex 53.9238 0.762012 3.5
    endloop
  endfacet
  facet normal 0 0 1
    outer loop
      vertex 50.9314 3.14833 3.5
      vertex 52.562 4.12375 3.5
      vertex 50.9314 5.14833 3.5
    endloop
  endfacet
  facet normal 0 0 1
    outer loop
      vertex 52.562 4.12375 3.5
      vertex 50.9314 3.14833 3.5
      vertex 52.562 2.12375 3.5
    endloop
  endfacet
  facet normal 0 0 1
    outer loop
      vertex 49.1137 3.78438 3.5
      vertex 50.9314 5.14833 3.5
      vertex 49.1137 5.78438 3.5
    endloop
  endfacet
  facet normal 0 0 1
    outer loop
      vertex 50.9314 5.14833 3.5
      vertex 49.1137 3.78438 3.5
      vertex 50.9314 3.14833 3.5
    endloop
  endfacet
  facet normal 0 0 1
    outer loop
      vertex 47.2 4 3.5
      vertex 49.1137 5.78438 3.5
      vertex 47.2 6 3.5
    endloop
  endfacet
  facet normal 0 0 1
    outer loop
      vertex 49.1137 5.78438 3.5
      vertex 47.2 4 3.5
      vertex 49.1137 3.78438 3.5
    endloop
  endfacet
  facet normal -0 0 1
    outer loop
      vertex 45.2863 5.78438 3.5
      vertex 47.2 4 3.5
      vertex 47.2 6 3.5
    endloop
  endfacet
  facet normal 0 0 1
    outer loop
      vertex 45.2863 5.78438 3.5
      vertex 45.2863 3.78438 3.5
      vertex 47.2 4 3.5
    endloop
  endfacet
  facet normal -0 0 1
    outer loop
      vertex 43.4686 5.14833 3.5
      vertex 45.2863 3.78438 3.5
      vertex 45.2863 5.78438 3.5
    endloop
  endfacet
  facet normal 0 0 1
    outer loop
      vertex 43.4686 5.14833 3.5
      vertex 43.4686 3.14833 3.5
      vertex 45.2863 3.78438 3.5
    endloop
  endfacet
  facet normal -0 0 1
    outer loop
      vertex 41.838 4.12375 3.5
      vertex 43.4686 3.14833 3.5
      vertex 43.4686 5.14833 3.5
    endloop
  endfacet
  facet normal 0 0 1
    outer loop
      vertex 41.838 4.12375 3.5
      vertex 41.838 2.12375 3.5
      vertex 43.4686 3.14833 3.5
    endloop
  endfacet
  facet normal -0 0 1
    outer loop
      vertex 40.4762 2.76201 3.5
      vertex 41.838 2.12375 3.5
      vertex 41.838 4.12375 3.5
    endloop
  endfacet
  facet normal 0 0 1
    outer loop
      vertex 40.4762 2.76201 3.5
      vertex 40.4762 0.762012 3.5
      vertex 41.838 2.12375 3.5
    endloop
  endfacet
  facet normal -0 0 1
    outer loop
      vertex 39.4517 1.1314 3.5
      vertex 40.4762 0.762012 3.5
      vertex 40.4762 2.76201 3.5
    endloop
  endfacet
  facet normal 0 0 1
    outer loop
      vertex 39.0558 0 3.5
      vertex 40.4762 0.762012 3.5
      vertex 39.4517 1.1314 3.5
    endloop
  endfacet
  facet normal 0 0 1
    outer loop
      vertex 40.4762 0.762012 3.5
      vertex 39.0558 0 3.5
      vertex 39.4517 -0.868599 3.5
    endloop
  endfacet
  facet normal -0 0 1
    outer loop
      vertex 38.1276 0 3.5
      vertex 39.4517 -0.868599 3.5
      vertex 39.0558 0 3.5
    endloop
  endfacet
  facet normal 0 0 1
    outer loop
      vertex 39.4517 -0.868599 3.5
      vertex 38.1276 0 3.5
      vertex 38.1137 -1.89027 3.5
    endloop
  endfacet
  facet normal 0 0 1
    outer loop
      vertex 39.4517 -0.868599 3.5
      vertex 38.1137 -1.89027 3.5
      vertex 39.0558 -2 3.5
    endloop
  endfacet
  facet normal 0 0 1
    outer loop
      vertex 37.3902 -0.0630503 3.5
      vertex 38.1276 0 3.5
      vertex 38.1137 0.109729 3.5
    endloop
  endfacet
  facet normal 0 0 1
    outer loop
      vertex 39.0558 -2 3.5
      vertex 38.1137 -1.89027 3.5
      vertex 38.1276 -2 3.5
    endloop
  endfacet
  facet normal 0 0 1
    outer loop
      vertex 37.3902 -0.0630503 3.5
      vertex 38.1137 0.109729 3.5
      vertex 37.3902 1.93695 3.5
    endloop
  endfacet
  facet normal 0 0 1
    outer loop
      vertex 38.1276 0 3.5
      vertex 37.3902 -0.0630503 3.5
      vertex 38.1137 -1.89027 3.5
    endloop
  endfacet
  facet normal 0 0 1
    outer loop
      vertex 36.2351 1.52685 3.5
      vertex 37.3902 1.93695 3.5
      vertex 36.2351 3.52685 3.5
    endloop
  endfacet
  facet normal 0 0 1
    outer loop
      vertex 37.3902 1.93695 3.5
      vertex 36.2351 1.52685 3.5
      vertex 37.3902 -0.0630503 3.5
    endloop
  endfacet
  facet normal 0 0 1
    outer loop
      vertex 34.7209 2.77953 3.5
      vertex 36.2351 3.52685 3.5
      vertex 34.7209 4.77953 3.5
    endloop
  endfacet
  facet normal 0 0 1
    outer loop
      vertex 36.2351 3.52685 3.5
      vertex 34.7209 2.77953 3.5
      vertex 36.2351 1.52685 3.5
    endloop
  endfacet
  facet normal 0 0 1
    outer loop
      vertex 32.9427 3.61628 3.5
      vertex 34.7209 4.77953 3.5
      vertex 32.9427 5.61628 3.5
    endloop
  endfacet
  facet normal 0 0 1
    outer loop
      vertex 34.7209 4.77953 3.5
      vertex 32.9427 3.61628 3.5
      vertex 34.7209 2.77953 3.5
    endloop
  endfacet
  facet normal 0 0 1
    outer loop
      vertex 31.0123 3.98453 3.5
      vertex 32.9427 5.61628 3.5
      vertex 31.0123 5.98453 3.5
    endloop
  endfacet
  facet normal 0 0 1
    outer loop
      vertex 32.9427 5.61628 3.5
      vertex 31.0123 3.98453 3.5
      vertex 32.9427 3.61628 3.5
    endloop
  endfacet
  facet normal -0 0 1
    outer loop
      vertex 29.0509 5.86113 3.5
      vertex 31.0123 3.98453 3.5
      vertex 31.0123 5.98453 3.5
    endloop
  endfacet
  facet normal 0 0 1
    outer loop
      vertex 29.0509 5.86113 3.5
      vertex 29.0509 3.86113 3.5
      vertex 31.0123 3.98453 3.5
    endloop
  endfacet
  facet normal -0 0 1
    outer loop
      vertex 27.1819 5.25384 3.5
      vertex 29.0509 3.86113 3.5
      vertex 29.0509 5.86113 3.5
    endloop
  endfacet
  facet normal 0 0 1
    outer loop
      vertex 27.1819 5.25384 3.5
      vertex 27.1819 3.25384 3.5
      vertex 29.0509 3.86113 3.5
    endloop
  endfacet
  facet normal -0 0 1
    outer loop
      vertex 25.5226 4.20082 3.5
      vertex 27.1819 3.25384 3.5
      vertex 27.1819 5.25384 3.5
    endloop
  endfacet
  facet normal 0 0 1
    outer loop
      vertex 25.5226 4.20082 3.5
      vertex 25.5226 2.20082 3.5
      vertex 27.1819 3.25384 3.5
    endloop
  endfacet
  facet normal -0 0 1
    outer loop
      vertex 24.1773 2.76824 3.5
      vertex 25.5226 2.20082 3.5
      vertex 25.5226 4.20082 3.5
    endloop
  endfacet
  facet normal 0 0 1
    outer loop
      vertex 24.1773 2.76824 3.5
      vertex 24.1773 0.768236 3.5
      vertex 25.5226 2.20082 3.5
    endloop
  endfacet
  facet normal -0 0 1
    outer loop
      vertex 23.2306 1.0461 3.5
      vertex 24.1773 0.768236 3.5
      vertex 24.1773 2.76824 3.5
    endloop
  endfacet
  facet normal 0 0 1
    outer loop
      vertex 22.962 0 3.5
      vertex 24.1773 0.768236 3.5
      vertex 23.2306 1.0461 3.5
    endloop
  endfacet
  facet normal 0 0 1
    outer loop
      vertex 24.1773 0.768236 3.5
      vertex 22.962 0 3.5
      vertex 23.2306 -0.953903 3.5
    endloop
  endfacet
  facet normal -0 0 1
    outer loop
      vertex 20.4476 0 3.5
      vertex 23.2306 -0.953903 3.5
      vertex 22.962 0 3.5
    endloop
  endfacet
  facet normal 0 0 1
    outer loop
      vertex 23.2306 -0.953903 3.5
      vertex 20.4476 0 3.5
      vertex 20.4337 -1.89027 3.5
    endloop
  endfacet
  facet normal 0 0 1
    outer loop
      vertex 23.2306 -0.953903 3.5
      vertex 20.4337 -1.89027 3.5
      vertex 22.962 -2 3.5
    endloop
  endfacet
  facet normal 0 0 1
    outer loop
      vertex 19.7102 -0.0630503 3.5
      vertex 20.4476 0 3.5
      vertex 20.4337 0.109729 3.5
    endloop
  endfacet
  facet normal 0 0 1
    outer loop
      vertex 22.962 -2 3.5
      vertex 20.4337 -1.89027 3.5
      vertex 20.4476 -2 3.5
    endloop
  endfacet
  facet normal 0 0 1
    outer loop
      vertex 19.7102 -0.0630503 3.5
      vertex 20.4337 0.109729 3.5
      vertex 19.7102 1.93695 3.5
    endloop
  endfacet
  facet normal 0 0 1
    outer loop
      vertex 20.4476 0 3.5
      vertex 19.7102 -0.0630503 3.5
      vertex 20.4337 -1.89027 3.5
    endloop
  endfacet
  facet normal 0 0 1
    outer loop
      vertex 18.5551 1.52685 3.5
      vertex 19.7102 1.93695 3.5
      vertex 18.5551 3.52685 3.5
    endloop
  endfacet
  facet normal 0 0 1
    outer loop
      vertex 19.7102 1.93695 3.5
      vertex 18.5551 1.52685 3.5
      vertex 19.7102 -0.0630503 3.5
    endloop
  endfacet
  facet normal 0 0 1
    outer loop
      vertex 17.0409 2.77953 3.5
      vertex 18.5551 3.52685 3.5
      vertex 17.0409 4.77953 3.5
    endloop
  endfacet
  facet normal 0 0 1
    outer loop
      vertex 18.5551 3.52685 3.5
      vertex 17.0409 2.77953 3.5
      vertex 18.5551 1.52685 3.5
    endloop
  endfacet
  facet normal 0 0 1
    outer loop
      vertex 15.2627 3.61628 3.5
      vertex 17.0409 4.77953 3.5
      vertex 15.2627 5.61628 3.5
    endloop
  endfacet
  facet normal 0 0 1
    outer loop
      vertex 17.0409 4.77953 3.5
      vertex 15.2627 3.61628 3.5
      vertex 17.0409 2.77953 3.5
    endloop
  endfacet
  facet normal 0 0 1
    outer loop
      vertex 13.3323 3.98453 3.5
      vertex 15.2627 5.61628 3.5
      vertex 13.3323 5.98453 3.5
    endloop
  endfacet
  facet normal 0 0 1
    outer loop
      vertex 15.2627 5.61628 3.5
      vertex 13.3323 3.98453 3.5
      vertex 15.2627 3.61628 3.5
    endloop
  endfacet
  facet normal -0 0 1
    outer loop
      vertex 11.3709 5.86113 3.5
      vertex 13.3323 3.98453 3.5
      vertex 13.3323 5.98453 3.5
    endloop
  endfacet
  facet normal 0 0 1
    outer loop
      vertex 11.3709 5.86113 3.5
      vertex 11.3709 3.86113 3.5
      vertex 13.3323 3.98453 3.5
    endloop
  endfacet
  facet normal -0 0 1
    outer loop
      vertex 9.50189 5.25384 3.5
      vertex 11.3709 3.86113 3.5
      vertex 11.3709 5.86113 3.5
    endloop
  endfacet
  facet normal 0 0 1
    outer loop
      vertex 9.50189 5.25384 3.5
      vertex 9.50189 3.25384 3.5
      vertex 11.3709 3.86113 3.5
    endloop
  endfacet
  facet normal -0 0 1
    outer loop
      vertex 7.8426 4.20082 3.5
      vertex 9.50189 3.25384 3.5
      vertex 9.50189 5.25384 3.5
    endloop
  endfacet
  facet normal 0 0 1
    outer loop
      vertex 7.8426 4.20082 3.5
      vertex 7.8426 2.20082 3.5
      vertex 9.50189 3.25384 3.5
    endloop
  endfacet
  facet normal -0 0 1
    outer loop
      vertex 6.49731 2.76824 3.5
      vertex 7.8426 2.20082 3.5
      vertex 7.8426 4.20082 3.5
    endloop
  endfacet
  facet normal 0 0 1
    outer loop
      vertex 6.49731 2.76824 3.5
      vertex 6.49731 0.768236 3.5
      vertex 7.8426 2.20082 3.5
    endloop
  endfacet
  facet normal -0 0 1
    outer loop
      vertex 5.55055 1.0461 3.5
      vertex 6.49731 0.768236 3.5
      vertex 6.49731 2.76824 3.5
    endloop
  endfacet
  facet normal 0 0 1
    outer loop
      vertex 5.28196 0 3.5
      vertex 6.49731 0.768236 3.5
      vertex 5.55055 1.0461 3.5
    endloop
  endfacet
  facet normal 0 0 1
    outer loop
      vertex 6.49731 0.768236 3.5
      vertex 5.28196 0 3.5
      vertex 5.55055 -0.953903 3.5
    endloop
  endfacet
  facet normal 0 0 1
    outer loop
      vertex 2 -2 3.5
      vertex 5.55055 -0.953903 3.5
      vertex 5.28196 0 3.5
    endloop
  endfacet
  facet normal 0 0 1
    outer loop
      vertex 5.55055 -0.953903 3.5
      vertex 2 -2 3.5
      vertex 5.28196 -2 3.5
    endloop
  endfacet
  facet normal 0 0 1
    outer loop
      vertex 2 -2 3.5
      vertex 0 0 3.5
      vertex 2 -78 3.5
    endloop
  endfacet
  facet normal -0 0 1
    outer loop
      vertex 0 0 3.5
      vertex 2 -2 3.5
      vertex 5.28196 0 3.5
    endloop
  endfacet
  facet normal -0 0 1
    outer loop
      vertex 78 -78 3.5
      vertex 80 -80 3.5
      vertex 78 -2 3.5
    endloop
  endfacet
  facet normal -0 0 1
    outer loop
      vertex 2 -78 3.5
      vertex 80 -80 3.5
      vertex 78 -78 3.5
    endloop
  endfacet
  facet normal 0 0 1
    outer loop
      vertex 2 -78 3.5
      vertex 0 -80 3.5
      vertex 80 -80 3.5
    endloop
  endfacet
  facet normal 0 0 1
    outer loop
      vertex 0 -80 3.5
      vertex 2 -78 3.5
      vertex 0 0 3.5
    endloop
  endfacet
  facet normal -0.992116 -0.125322 0
    outer loop
      vertex 20.4476 -2 2
      vertex 20.4337 -1.89027 3.5
      vertex 20.4337 -1.89027 2
    endloop
  endfacet
  facet normal -0.992116 -0.125322 0
    outer loop
      vertex 20.4337 -1.89027 3.5
      vertex 20.4476 -2 2
      vertex 20.4476 -2 3.5
    endloop
  endfacet
  facet normal -0.187382 -0.982287 0
    outer loop
      vertex 13.3323 3.98453 2
      vertex 15.2627 3.61628 3.5
      vertex 13.3323 3.98453 3.5
    endloop
  endfacet
  facet normal -0.187382 -0.982287 -0
    outer loop
      vertex 15.2627 3.61628 3.5
      vertex 13.3323 3.98453 2
      vertex 15.2627 3.61628 2
    endloop
  endfacet
  facet normal -0.637424 -0.770513 0
    outer loop
      vertex 17.0409 2.77953 2
      vertex 18.5551 1.52685 3.5
      vertex 17.0409 2.77953 3.5
    endloop
  endfacet
  facet normal -0.637424 -0.770513 -0
    outer loop
      vertex 18.5551 1.52685 3.5
      vertex 17.0409 2.77953 2
      vertex 18.5551 1.52685 2
    endloop
  endfacet
  facet normal 0.535826 -0.844328 0
    outer loop
      vertex 7.8426 2.20082 2
      vertex 9.50189 3.25384 3.5
      vertex 7.8426 2.20082 3.5
    endloop
  endfacet
  facet normal 0.535826 -0.844328 0
    outer loop
      vertex 9.50189 3.25384 3.5
      vertex 7.8426 2.20082 2
      vertex 9.50189 3.25384 2
    endloop
  endfacet
  facet normal 0.0627907 -0.998027 0
    outer loop
      vertex 11.3709 3.86113 2
      vertex 13.3323 3.98453 3.5
      vertex 11.3709 3.86113 3.5
    endloop
  endfacet
  facet normal 0.0627907 -0.998027 0
    outer loop
      vertex 13.3323 3.98453 3.5
      vertex 11.3709 3.86113 2
      vertex 13.3323 3.98453 2
    endloop
  endfacet
  facet normal 0.876307 -0.481754 0
    outer loop
      vertex 5.55055 -0.953903 3.5
      vertex 6.49731 0.768236 2
      vertex 6.49731 0.768236 3.5
    endloop
  endfacet
  facet normal 0.876307 -0.481754 0
    outer loop
      vertex 6.49731 0.768236 2
      vertex 5.55055 -0.953903 3.5
      vertex 5.55055 -0.953903 2
    endloop
  endfacet
  facet normal -0.425779 -0.904827 0
    outer loop
      vertex 15.2627 3.61628 2
      vertex 17.0409 2.77953 3.5
      vertex 15.2627 3.61628 3.5
    endloop
  endfacet
  facet normal -0.425779 -0.904827 -0
    outer loop
      vertex 17.0409 2.77953 3.5
      vertex 15.2627 3.61628 2
      vertex 17.0409 2.77953 2
    endloop
  endfacet
  facet normal 0.309017 -0.951056 0
    outer loop
      vertex 9.50189 3.25384 2
      vertex 11.3709 3.86113 3.5
      vertex 9.50189 3.25384 3.5
    endloop
  endfacet
  facet normal 0.309017 -0.951056 0
    outer loop
      vertex 11.3709 3.86113 3.5
      vertex 9.50189 3.25384 2
      vertex 11.3709 3.86113 2
    endloop
  endfacet
  facet normal 0.728969 -0.684547 0
    outer loop
      vertex 6.49731 0.768236 3.5
      vertex 7.8426 2.20082 2
      vertex 7.8426 2.20082 3.5
    endloop
  endfacet
  facet normal 0.728969 -0.684547 0
    outer loop
      vertex 7.8426 2.20082 2
      vertex 6.49731 0.768236 3.5
      vertex 6.49731 0.768236 2
    endloop
  endfacet
  facet normal -0.809017 -0.587785 0
    outer loop
      vertex 37.3902 -0.0630503 2
      vertex 36.2351 1.52685 3.5
      vertex 36.2351 1.52685 2
    endloop
  endfacet
  facet normal -0.809017 -0.587785 0
    outer loop
      vertex 36.2351 1.52685 3.5
      vertex 37.3902 -0.0630503 2
      vertex 37.3902 -0.0630503 3.5
    endloop
  endfacet
  facet normal -0.929776 -0.368125 0
    outer loop
      vertex 38.1137 -1.89027 2
      vertex 37.3902 -0.0630503 3.5
      vertex 37.3902 -0.0630503 2
    endloop
  endfacet
  facet normal -0.929776 -0.368125 0
    outer loop
      vertex 37.3902 -0.0630503 3.5
      vertex 38.1137 -1.89027 2
      vertex 38.1137 -1.89027 3.5
    endloop
  endfacet
  facet normal 0.968583 -0.248691 0
    outer loop
      vertex 22.962 -2 3.5
      vertex 23.2306 -0.953903 2
      vertex 23.2306 -0.953903 3.5
    endloop
  endfacet
  facet normal 0.968583 -0.248691 0
    outer loop
      vertex 23.2306 -0.953903 2
      vertex 22.962 -2 3.5
      vertex 22.962 -2 2
    endloop
  endfacet
  facet normal -0.187382 -0.982287 0
    outer loop
      vertex 31.0123 3.98453 2
      vertex 32.9427 3.61628 3.5
      vertex 31.0123 3.98453 3.5
    endloop
  endfacet
  facet normal -0.187382 -0.982287 -0
    outer loop
      vertex 32.9427 3.61628 3.5
      vertex 31.0123 3.98453 2
      vertex 32.9427 3.61628 2
    endloop
  endfacet
  facet normal -0.637424 -0.770513 0
    outer loop
      vertex 34.7209 2.77953 2
      vertex 36.2351 1.52685 3.5
      vertex 34.7209 2.77953 3.5
    endloop
  endfacet
  facet normal -0.637424 -0.770513 -0
    outer loop
      vertex 36.2351 1.52685 3.5
      vertex 34.7209 2.77953 2
      vertex 36.2351 1.52685 2
    endloop
  endfacet
  facet normal 0.535827 -0.844328 0
    outer loop
      vertex 25.5226 2.20082 2
      vertex 27.1819 3.25384 3.5
      vertex 25.5226 2.20082 3.5
    endloop
  endfacet
  facet normal 0.535827 -0.844328 0
    outer loop
      vertex 27.1819 3.25384 3.5
      vertex 25.5226 2.20082 2
      vertex 27.1819 3.25384 2
    endloop
  endfacet
  facet normal 0.0627907 -0.998027 0
    outer loop
      vertex 29.0509 3.86113 2
      vertex 31.0123 3.98453 3.5
      vertex 29.0509 3.86113 3.5
    endloop
  endfacet
  facet normal 0.0627907 -0.998027 0
    outer loop
      vertex 31.0123 3.98453 3.5
      vertex 29.0509 3.86113 2
      vertex 31.0123 3.98453 2
    endloop
  endfacet
  facet normal 0.876307 -0.481754 0
    outer loop
      vertex 23.2306 -0.953903 3.5
      vertex 24.1773 0.768236 2
      vertex 24.1773 0.768236 3.5
    endloop
  endfacet
  facet normal 0.876307 -0.481754 0
    outer loop
      vertex 24.1773 0.768236 2
      vertex 23.2306 -0.953903 3.5
      vertex 23.2306 -0.953903 2
    endloop
  endfacet
  facet normal -0.992118 -0.125305 0
    outer loop
      vertex 38.1276 -2 2
      vertex 38.1137 -1.89027 3.5
      vertex 38.1137 -1.89027 2
    endloop
  endfacet
  facet normal -0.992118 -0.125305 0
    outer loop
      vertex 38.1137 -1.89027 3.5
      vertex 38.1276 -2 2
      vertex 38.1276 -2 3.5
    endloop
  endfacet
  facet normal -0.425779 -0.904827 0
    outer loop
      vertex 32.9427 3.61628 2
      vertex 34.7209 2.77953 3.5
      vertex 32.9427 3.61628 3.5
    endloop
  endfacet
  facet normal -0.425779 -0.904827 -0
    outer loop
      vertex 34.7209 2.77953 3.5
      vertex 32.9427 3.61628 2
      vertex 34.7209 2.77953 2
    endloop
  endfacet
  facet normal 0.309017 -0.951057 0
    outer loop
      vertex 27.1819 3.25384 2
      vertex 29.0509 3.86113 3.5
      vertex 27.1819 3.25384 3.5
    endloop
  endfacet
  facet normal 0.309017 -0.951057 0
    outer loop
      vertex 29.0509 3.86113 3.5
      vertex 27.1819 3.25384 2
      vertex 29.0509 3.86113 2
    endloop
  endfacet
  facet normal 0.728969 -0.684547 0
    outer loop
      vertex 24.1773 0.768236 3.5
      vertex 25.5226 2.20082 2
      vertex 25.5226 2.20082 3.5
    endloop
  endfacet
  facet normal 0.728969 -0.684547 0
    outer loop
      vertex 25.5226 2.20082 2
      vertex 24.1773 0.768236 3.5
      vertex 24.1773 0.768236 2
    endloop
  endfacet
  facet normal -0.846724 -0.532033 0
    outer loop
      vertex 54.9483 -0.868599 2
      vertex 53.9238 0.762012 3.5
      vertex 53.9238 0.762012 2
    endloop
  endfacet
  facet normal -0.846724 -0.532033 0
    outer loop
      vertex 53.9238 0.762012 3.5
      vertex 54.9483 -0.868599 2
      vertex 54.9483 -0.868599 3.5
    endloop
  endfacet
  facet normal -0.111965 -0.993712 0
    outer loop
      vertex 47.2 4 2
      vertex 49.1137 3.78438 3.5
      vertex 47.2 4 3.5
    endloop
  endfacet
  facet normal -0.111965 -0.993712 -0
    outer loop
      vertex 49.1137 3.78438 3.5
      vertex 47.2 4 2
      vertex 49.1137 3.78438 2
    endloop
  endfacet
  facet normal -0.532032 -0.846724 0
    outer loop
      vertex 50.9314 3.14833 2
      vertex 52.562 2.12375 3.5
      vertex 50.9314 3.14833 3.5
    endloop
  endfacet
  facet normal -0.532032 -0.846724 -0
    outer loop
      vertex 52.562 2.12375 3.5
      vertex 50.9314 3.14833 2
      vertex 52.562 2.12375 2
    endloop
  endfacet
  facet normal 0.532032 -0.846724 0
    outer loop
      vertex 41.838 2.12375 2
      vertex 43.4686 3.14833 3.5
      vertex 41.838 2.12375 3.5
    endloop
  endfacet
  facet normal 0.532032 -0.846724 0
    outer loop
      vertex 43.4686 3.14833 3.5
      vertex 41.838 2.12375 2
      vertex 43.4686 3.14833 2
    endloop
  endfacet
  facet normal 0.111964 -0.993712 0
    outer loop
      vertex 45.2863 3.78438 2
      vertex 47.2 4 3.5
      vertex 45.2863 3.78438 3.5
    endloop
  endfacet
  facet normal 0.111964 -0.993712 0
    outer loop
      vertex 47.2 4 3.5
      vertex 45.2863 3.78438 2
      vertex 47.2 4 2
    endloop
  endfacet
  facet normal 0.846724 -0.532033 0
    outer loop
      vertex 39.4517 -0.868599 3.5
      vertex 40.4762 0.762012 2
      vertex 40.4762 0.762012 3.5
    endloop
  endfacet
  facet normal 0.846724 -0.532033 0
    outer loop
      vertex 40.4762 0.762012 2
      vertex 39.4517 -0.868599 3.5
      vertex 39.4517 -0.868599 2
    endloop
  endfacet
  facet normal -0.330279 -0.943883 0
    outer loop
      vertex 49.1137 3.78438 2
      vertex 50.9314 3.14833 3.5
      vertex 49.1137 3.78438 3.5
    endloop
  endfacet
  facet normal -0.330279 -0.943883 -0
    outer loop
      vertex 50.9314 3.14833 3.5
      vertex 49.1137 3.78438 2
      vertex 50.9314 3.14833 2
    endloop
  endfacet
  facet normal -0.707107 -0.707107 0
    outer loop
      vertex 52.562 2.12375 2
      vertex 53.9238 0.762012 3.5
      vertex 52.562 2.12375 3.5
    endloop
  endfacet
  facet normal -0.707107 -0.707107 -0
    outer loop
      vertex 53.9238 0.762012 3.5
      vertex 52.562 2.12375 2
      vertex 53.9238 0.762012 2
    endloop
  endfacet
  facet normal -0.943884 -0.330278 0
    outer loop
      vertex 55.3442 -2 2
      vertex 54.9483 -0.868599 3.5
      vertex 54.9483 -0.868599 2
    endloop
  endfacet
  facet normal -0.943884 -0.330278 0
    outer loop
      vertex 54.9483 -0.868599 3.5
      vertex 55.3442 -2 2
      vertex 55.3442 -2 3.5
    endloop
  endfacet
  facet normal 0.330279 -0.943883 0
    outer loop
      vertex 43.4686 3.14833 2
      vertex 45.2863 3.78438 3.5
      vertex 43.4686 3.14833 3.5
    endloop
  endfacet
  facet normal 0.330279 -0.943883 0
    outer loop
      vertex 45.2863 3.78438 3.5
      vertex 43.4686 3.14833 2
      vertex 45.2863 3.78438 2
    endloop
  endfacet
  facet normal 0.707108 -0.707106 0
    outer loop
      vertex 40.4762 0.762012 3.5
      vertex 41.838 2.12375 2
      vertex 41.838 2.12375 3.5
    endloop
  endfacet
  facet normal 0.707108 -0.707106 0
    outer loop
      vertex 41.838 2.12375 2
      vertex 40.4762 0.762012 3.5
      vertex 40.4762 0.762012 2
    endloop
  endfacet
  facet normal 0.943884 -0.330278 0
    outer loop
      vertex 39.0558 -2 3.5
      vertex 39.4517 -0.868599 2
      vertex 39.4517 -0.868599 3.5
    endloop
  endfacet
  facet normal 0.943884 -0.330278 0
    outer loop
      vertex 39.4517 -0.868599 2
      vertex 39.0558 -2 3.5
      vertex 39.0558 -2 2
    endloop
  endfacet
  facet normal 0.707107 -0.707107 0
    outer loop
      vertex 59.6762 0.762012 2
      vertex 61.038 2.12375 3.5
      vertex 59.6762 0.762012 3.5
    endloop
  endfacet
  facet normal 0.707107 -0.707107 0
    outer loop
      vertex 61.038 2.12375 3.5
      vertex 59.6762 0.762012 2
      vertex 61.038 2.12375 2
    endloop
  endfacet
  facet normal -0.707107 -0.707107 0
    outer loop
      vertex 71.762 2.12375 2
      vertex 73.1237 0.762012 3.5
      vertex 71.762 2.12375 3.5
    endloop
  endfacet
  facet normal -0.707107 -0.707107 -0
    outer loop
      vertex 73.1237 0.762012 3.5
      vertex 71.762 2.12375 2
      vertex 73.1237 0.762012 2
    endloop
  endfacet
  facet normal -0.111964 -0.993712 0
    outer loop
      vertex 66.4 4 2
      vertex 68.3137 3.78438 3.5
      vertex 66.4 4 3.5
    endloop
  endfacet
  facet normal -0.111964 -0.993712 -0
    outer loop
      vertex 68.3137 3.78438 3.5
      vertex 66.4 4 2
      vertex 68.3137 3.78438 2
    endloop
  endfacet
  facet normal -0.532033 -0.846724 0
    outer loop
      vertex 70.1314 3.14833 2
      vertex 71.762 2.12375 3.5
      vertex 70.1314 3.14833 3.5
    endloop
  endfacet
  facet normal -0.532033 -0.846724 -0
    outer loop
      vertex 71.762 2.12375 3.5
      vertex 70.1314 3.14833 2
      vertex 71.762 2.12375 2
    endloop
  endfacet
  facet normal 0.532032 -0.846724 0
    outer loop
      vertex 61.038 2.12375 2
      vertex 62.6686 3.14833 3.5
      vertex 61.038 2.12375 3.5
    endloop
  endfacet
  facet normal 0.532032 -0.846724 0
    outer loop
      vertex 62.6686 3.14833 3.5
      vertex 61.038 2.12375 2
      vertex 62.6686 3.14833 2
    endloop
  endfacet
  facet normal 0.111964 -0.993712 0
    outer loop
      vertex 64.4863 3.78438 2
      vertex 66.4 4 3.5
      vertex 64.4863 3.78438 3.5
    endloop
  endfacet
  facet normal 0.111964 -0.993712 0
    outer loop
      vertex 66.4 4 3.5
      vertex 64.4863 3.78438 2
      vertex 66.4 4 2
    endloop
  endfacet
  facet normal 0.846725 -0.532031 0
    outer loop
      vertex 58.6517 -0.868599 3.5
      vertex 59.6762 0.762012 2
      vertex 59.6762 0.762012 3.5
    endloop
  endfacet
  facet normal 0.846725 -0.532031 0
    outer loop
      vertex 59.6762 0.762012 2
      vertex 58.6517 -0.868599 3.5
      vertex 58.6517 -0.868599 2
    endloop
  endfacet
  facet normal -0.33028 -0.943883 0
    outer loop
      vertex 68.3137 3.78438 2
      vertex 70.1314 3.14833 3.5
      vertex 68.3137 3.78438 3.5
    endloop
  endfacet
  facet normal -0.33028 -0.943883 -0
    outer loop
      vertex 70.1314 3.14833 3.5
      vertex 68.3137 3.78438 2
      vertex 70.1314 3.14833 2
    endloop
  endfacet
  facet normal -0.943883 -0.330281 0
    outer loop
      vertex 74.5442 -2 2
      vertex 74.1483 -0.868599 3.5
      vertex 74.1483 -0.868599 2
    endloop
  endfacet
  facet normal -0.943883 -0.330281 0
    outer loop
      vertex 74.1483 -0.868599 3.5
      vertex 74.5442 -2 2
      vertex 74.5442 -2 3.5
    endloop
  endfacet
  facet normal -0.846724 -0.532033 0
    outer loop
      vertex 74.1483 -0.868599 2
      vertex 73.1237 0.762012 3.5
      vertex 73.1237 0.762012 2
    endloop
  endfacet
  facet normal -0.846724 -0.532033 0
    outer loop
      vertex 73.1237 0.762012 3.5
      vertex 74.1483 -0.868599 2
      vertex 74.1483 -0.868599 3.5
    endloop
  endfacet
  facet normal 0.330279 -0.943883 0
    outer loop
      vertex 62.6686 3.14833 2
      vertex 64.4863 3.78438 3.5
      vertex 62.6686 3.14833 3.5
    endloop
  endfacet
  facet normal 0.330279 -0.943883 0
    outer loop
      vertex 64.4863 3.78438 3.5
      vertex 62.6686 3.14833 2
      vertex 64.4863 3.78438 2
    endloop
  endfacet
  facet normal 0.943883 -0.330281 0
    outer loop
      vertex 58.2558 -2 3.5
      vertex 58.6517 -0.868599 2
      vertex 58.6517 -0.868599 3.5
    endloop
  endfacet
  facet normal 0.943883 -0.330281 0
    outer loop
      vertex 58.6517 -0.868599 2
      vertex 58.2558 -2 3.5
      vertex 58.2558 -2 2
    endloop
  endfacet
  facet normal -1 0 0
    outer loop
      vertex 0 -80 2
      vertex 0 0 3.5
      vertex 0 0 2
    endloop
  endfacet
  facet normal -1 -0 0
    outer loop
      vertex 0 0 3.5
      vertex 0 -80 2
      vertex 0 -80 3.5
    endloop
  endfacet
  facet normal 1 -0 0
    outer loop
      vertex 80 -80 3.5
      vertex 80 0 2
      vertex 80 0 3.5
    endloop
  endfacet
  facet normal 1 0 0
    outer loop
      vertex 80 0 2
      vertex 80 -80 3.5
      vertex 80 -80 2
    endloop
  endfacet
  facet normal 0 -1 0
    outer loop
      vertex 0 -80 2
      vertex 80 -80 3.5
      vertex 0 -80 3.5
    endloop
  endfacet
  facet normal 0 -1 -0
    outer loop
      vertex 80 -80 3.5
      vertex 0 -80 2
      vertex 80 -80 2
    endloop
  endfacet
  facet normal 0 1 -0
    outer loop
      vertex 5.28196 0 2
      vertex 0 0 3.5
      vertex 5.28196 0 3.5
    endloop
  endfacet
  facet normal 0 1 0
    outer loop
      vertex 0 0 3.5
      vertex 5.28196 0 2
      vertex 0 0 2
    endloop
  endfacet
  facet normal 0 1 -0
    outer loop
      vertex 22.962 0 2
      vertex 20.4476 0 3.5
      vertex 22.962 0 3.5
    endloop
  endfacet
  facet normal 0 1 0
    outer loop
      vertex 20.4476 0 3.5
      vertex 22.962 0 2
      vertex 20.4476 0 2
    endloop
  endfacet
  facet normal 0 1 -0
    outer loop
      vertex 39.0558 0 2
      vertex 38.1276 0 3.5
      vertex 39.0558 0 3.5
    endloop
  endfacet
  facet normal 0 1 0
    outer loop
      vertex 38.1276 0 3.5
      vertex 39.0558 0 2
      vertex 38.1276 0 2
    endloop
  endfacet
  facet normal 0 1 -0
    outer loop
      vertex 58.2558 0 2
      vertex 55.3442 0 3.5
      vertex 58.2558 0 3.5
    endloop
  endfacet
  facet normal 0 1 0
    outer loop
      vertex 55.3442 0 3.5
      vertex 58.2558 0 2
      vertex 55.3442 0 2
    endloop
  endfacet
  facet normal 0 1 -0
    outer loop
      vertex 80 0 2
      vertex 74.5442 0 3.5
      vertex 80 0 3.5
    endloop
  endfacet
  facet normal 0 1 0
    outer loop
      vertex 74.5442 0 3.5
      vertex 80 0 2
      vertex 74.5442 0 2
    endloop
  endfacet
  facet normal 1 -0 0
    outer loop
      vertex 2 -78 3.5
      vertex 2 -2 2
      vertex 2 -2 3.5
    endloop
  endfacet
  facet normal 1 0 0
    outer loop
      vertex 2 -2 2
      vertex 2 -78 3.5
      vertex 2 -78 2
    endloop
  endfacet
  facet normal -1 0 0
    outer loop
      vertex 78 -78 2
      vertex 78 -2 3.5
      vertex 78 -2 2
    endloop
  endfacet
  facet normal -1 -0 0
    outer loop
      vertex 78 -2 3.5
      vertex 78 -78 2
      vertex 78 -78 3.5
    endloop
  endfacet
  facet normal 0 -1 0
    outer loop
      vertex 2 -2 2
      vertex 5.28196 -2 3.5
      vertex 2 -2 3.5
    endloop
  endfacet
  facet normal 0 -1 -0
    outer loop
      vertex 5.28196 -2 3.5
      vertex 2 -2 2
      vertex 5.28196 -2 2
    endloop
  endfacet
  facet normal 0 -1 0
    outer loop
      vertex 74.5442 -2 2
      vertex 78 -2 3.5
      vertex 74.5442 -2 3.5
    endloop
  endfacet
  facet normal 0 -1 -0
    outer loop
      vertex 78 -2 3.5
      vertex 74.5442 -2 2
      vertex 78 -2 2
    endloop
  endfacet
  facet normal 0 -1 0
    outer loop
      vertex 20.4476 -2 2
      vertex 22.962 -2 3.5
      vertex 20.4476 -2 3.5
    endloop
  endfacet
  facet normal 0 -1 -0
    outer loop
      vertex 22.962 -2 3.5
      vertex 20.4476 -2 2
      vertex 22.962 -2 2
    endloop
  endfacet
  facet normal 0 -1 0
    outer loop
      vertex 38.1276 -2 2
      vertex 39.0558 -2 3.5
      vertex 38.1276 -2 3.5
    endloop
  endfacet
  facet normal 0 -1 -0
    outer loop
      vertex 39.0558 -2 3.5
      vertex 38.1276 -2 2
      vertex 39.0558 -2 2
    endloop
  endfacet
  facet normal 0 -1 0
    outer loop
      vertex 55.3442 -2 2
      vertex 58.2558 -2 3.5
      vertex 55.3442 -2 3.5
    endloop
  endfacet
  facet normal 0 -1 -0
    outer loop
      vertex 58.2558 -2 3.5
      vertex 55.3442 -2 2
      vertex 58.2558 -2 2
    endloop
  endfacet
  facet normal 0 1 -0
    outer loop
      vertex 78 -78 2
      vertex 2 -78 3.5
      vertex 78 -78 3.5
    endloop
  endfacet
  facet normal 0 1 0
    outer loop
      vertex 2 -78 3.5
      vertex 78 -78 2
      vertex 2 -78 2
    endloop
  endfacet
  facet normal 0.809017 0.587785 0
    outer loop
      vertex 19.7102 1.93695 3.5
      vertex 18.5551 3.52685 2
      vertex 18.5551 3.52685 3.5
    endloop
  endfacet
  facet normal 0.809017 0.587785 0
    outer loop
      vertex 18.5551 3.52685 2
      vertex 19.7102 1.93695 3.5
      vertex 19.7102 1.93695 2
    endloop
  endfacet
  facet normal 0.929776 0.368125 0
    outer loop
      vertex 20.4337 0.109729 3.5
      vertex 19.7102 1.93695 2
      vertex 19.7102 1.93695 3.5
    endloop
  endfacet
  facet normal 0.929776 0.368125 0
    outer loop
      vertex 19.7102 1.93695 2
      vertex 20.4337 0.109729 3.5
      vertex 20.4337 0.109729 2
    endloop
  endfacet
  facet normal -0.968583 0.24869 0
    outer loop
      vertex 5.28196 0 2
      vertex 5.55055 1.0461 3.5
      vertex 5.55055 1.0461 2
    endloop
  endfacet
  facet normal -0.968583 0.24869 0
    outer loop
      vertex 5.55055 1.0461 3.5
      vertex 5.28196 0 2
      vertex 5.28196 0 3.5
    endloop
  endfacet
  facet normal 0.992116 0.125322 0
    outer loop
      vertex 20.4476 0 3.5
      vertex 20.4337 0.109729 2
      vertex 20.4337 0.109729 3.5
    endloop
  endfacet
  facet normal 0.992116 0.125322 0
    outer loop
      vertex 20.4337 0.109729 2
      vertex 20.4476 0 3.5
      vertex 20.4476 0 2
    endloop
  endfacet
  facet normal 0.187382 0.982287 -0
    outer loop
      vertex 15.2627 5.61628 2
      vertex 13.3323 5.98453 3.5
      vertex 15.2627 5.61628 3.5
    endloop
  endfacet
  facet normal 0.187382 0.982287 0
    outer loop
      vertex 13.3323 5.98453 3.5
      vertex 15.2627 5.61628 2
      vertex 13.3323 5.98453 2
    endloop
  endfacet
  facet normal 0.637424 0.770513 -0
    outer loop
      vertex 18.5551 3.52685 2
      vertex 17.0409 4.77953 3.5
      vertex 18.5551 3.52685 3.5
    endloop
  endfacet
  facet normal 0.637424 0.770513 0
    outer loop
      vertex 17.0409 4.77953 3.5
      vertex 18.5551 3.52685 2
      vertex 17.0409 4.77953 2
    endloop
  endfacet
  facet normal -0.535826 0.844328 0
    outer loop
      vertex 9.50189 5.25384 2
      vertex 7.8426 4.20082 3.5
      vertex 9.50189 5.25384 3.5
    endloop
  endfacet
  facet normal -0.535826 0.844328 0
    outer loop
      vertex 7.8426 4.20082 3.5
      vertex 9.50189 5.25384 2
      vertex 7.8426 4.20082 2
    endloop
  endfacet
  facet normal -0.0627907 0.998027 0
    outer loop
      vertex 13.3323 5.98453 2
      vertex 11.3709 5.86113 3.5
      vertex 13.3323 5.98453 3.5
    endloop
  endfacet
  facet normal -0.0627907 0.998027 0
    outer loop
      vertex 11.3709 5.86113 3.5
      vertex 13.3323 5.98453 2
      vertex 11.3709 5.86113 2
    endloop
  endfacet
  facet normal -0.876307 0.481754 0
    outer loop
      vertex 5.55055 1.0461 2
      vertex 6.49731 2.76824 3.5
      vertex 6.49731 2.76824 2
    endloop
  endfacet
  facet normal -0.876307 0.481754 0
    outer loop
      vertex 6.49731 2.76824 3.5
      vertex 5.55055 1.0461 2
      vertex 5.55055 1.0461 3.5
    endloop
  endfacet
  facet normal 0.425779 0.904827 -0
    outer loop
      vertex 17.0409 4.77953 2
      vertex 15.2627 5.61628 3.5
      vertex 17.0409 4.77953 3.5
    endloop
  endfacet
  facet normal 0.425779 0.904827 0
    outer loop
      vertex 15.2627 5.61628 3.5
      vertex 17.0409 4.77953 2
      vertex 15.2627 5.61628 2
    endloop
  endfacet
  facet normal -0.309017 0.951056 0
    outer loop
      vertex 11.3709 5.86113 2
      vertex 9.50189 5.25384 3.5
      vertex 11.3709 5.86113 3.5
    endloop
  endfacet
  facet normal -0.309017 0.951056 0
    outer loop
      vertex 9.50189 5.25384 3.5
      vertex 11.3709 5.86113 2
      vertex 9.50189 5.25384 2
    endloop
  endfacet
  facet normal -0.728969 0.684547 0
    outer loop
      vertex 6.49731 2.76824 2
      vertex 7.8426 4.20082 3.5
      vertex 7.8426 4.20082 2
    endloop
  endfacet
  facet normal -0.728969 0.684547 0
    outer loop
      vertex 7.8426 4.20082 3.5
      vertex 6.49731 2.76824 2
      vertex 6.49731 2.76824 3.5
    endloop
  endfacet
  facet normal 0.809017 0.587785 0
    outer loop
      vertex 37.3902 1.93695 3.5
      vertex 36.2351 3.52685 2
      vertex 36.2351 3.52685 3.5
    endloop
  endfacet
  facet normal 0.809017 0.587785 0
    outer loop
      vertex 36.2351 3.52685 2
      vertex 37.3902 1.93695 3.5
      vertex 37.3902 1.93695 2
    endloop
  endfacet
  facet normal 0.929776 0.368125 0
    outer loop
      vertex 38.1137 0.109729 3.5
      vertex 37.3902 1.93695 2
      vertex 37.3902 1.93695 3.5
    endloop
  endfacet
  facet normal 0.929776 0.368125 0
    outer loop
      vertex 37.3902 1.93695 2
      vertex 38.1137 0.109729 3.5
      vertex 38.1137 0.109729 2
    endloop
  endfacet
  facet normal -0.968583 0.248691 0
    outer loop
      vertex 22.962 0 2
      vertex 23.2306 1.0461 3.5
      vertex 23.2306 1.0461 2
    endloop
  endfacet
  facet normal -0.968583 0.248691 0
    outer loop
      vertex 23.2306 1.0461 3.5
      vertex 22.962 0 2
      vertex 22.962 0 3.5
    endloop
  endfacet
  facet normal 0.187382 0.982287 -0
    outer loop
      vertex 32.9427 5.61628 2
      vertex 31.0123 5.98453 3.5
      vertex 32.9427 5.61628 3.5
    endloop
  endfacet
  facet normal 0.187382 0.982287 0
    outer loop
      vertex 31.0123 5.98453 3.5
      vertex 32.9427 5.61628 2
      vertex 31.0123 5.98453 2
    endloop
  endfacet
  facet normal 0.637424 0.770513 -0
    outer loop
      vertex 36.2351 3.52685 2
      vertex 34.7209 4.77953 3.5
      vertex 36.2351 3.52685 3.5
    endloop
  endfacet
  facet normal 0.637424 0.770513 0
    outer loop
      vertex 34.7209 4.77953 3.5
      vertex 36.2351 3.52685 2
      vertex 34.7209 4.77953 2
    endloop
  endfacet
  facet normal -0.535827 0.844328 0
    outer loop
      vertex 27.1819 5.25384 2
      vertex 25.5226 4.20082 3.5
      vertex 27.1819 5.25384 3.5
    endloop
  endfacet
  facet normal -0.535827 0.844328 0
    outer loop
      vertex 25.5226 4.20082 3.5
      vertex 27.1819 5.25384 2
      vertex 25.5226 4.20082 2
    endloop
  endfacet
  facet normal -0.0627907 0.998027 0
    outer loop
      vertex 31.0123 5.98453 2
      vertex 29.0509 5.86113 3.5
      vertex 31.0123 5.98453 3.5
    endloop
  endfacet
  facet normal -0.0627907 0.998027 0
    outer loop
      vertex 29.0509 5.86113 3.5
      vertex 31.0123 5.98453 2
      vertex 29.0509 5.86113 2
    endloop
  endfacet
  facet normal -0.876307 0.481754 0
    outer loop
      vertex 23.2306 1.0461 2
      vertex 24.1773 2.76824 3.5
      vertex 24.1773 2.76824 2
    endloop
  endfacet
  facet normal -0.876307 0.481754 0
    outer loop
      vertex 24.1773 2.76824 3.5
      vertex 23.2306 1.0461 2
      vertex 23.2306 1.0461 3.5
    endloop
  endfacet
  facet normal 0.992118 0.125305 0
    outer loop
      vertex 38.1276 0 3.5
      vertex 38.1137 0.109729 2
      vertex 38.1137 0.109729 3.5
    endloop
  endfacet
  facet normal 0.992118 0.125305 0
    outer loop
      vertex 38.1137 0.109729 2
      vertex 38.1276 0 3.5
      vertex 38.1276 0 2
    endloop
  endfacet
  facet normal 0.425779 0.904827 -0
    outer loop
      vertex 34.7209 4.77953 2
      vertex 32.9427 5.61628 3.5
      vertex 34.7209 4.77953 3.5
    endloop
  endfacet
  facet normal 0.425779 0.904827 0
    outer loop
      vertex 32.9427 5.61628 3.5
      vertex 34.7209 4.77953 2
      vertex 32.9427 5.61628 2
    endloop
  endfacet
  facet normal -0.309017 0.951057 0
    outer loop
      vertex 29.0509 5.86113 2
      vertex 27.1819 5.25384 3.5
      vertex 29.0509 5.86113 3.5
    endloop
  endfacet
  facet normal -0.309017 0.951057 0
    outer loop
      vertex 27.1819 5.25384 3.5
      vertex 29.0509 5.86113 2
      vertex 27.1819 5.25384 2
    endloop
  endfacet
  facet normal -0.728969 0.684547 0
    outer loop
      vertex 24.1773 2.76824 2
      vertex 25.5226 4.20082 3.5
      vertex 25.5226 4.20082 2
    endloop
  endfacet
  facet normal -0.728969 0.684547 0
    outer loop
      vertex 25.5226 4.20082 3.5
      vertex 24.1773 2.76824 2
      vertex 24.1773 2.76824 3.5
    endloop
  endfacet
  facet normal 0.846724 0.532033 0
    outer loop
      vertex 54.9483 1.1314 3.5
      vertex 53.9238 2.76201 2
      vertex 53.9238 2.76201 3.5
    endloop
  endfacet
  facet normal 0.846724 0.532033 0
    outer loop
      vertex 53.9238 2.76201 2
      vertex 54.9483 1.1314 3.5
      vertex 54.9483 1.1314 2
    endloop
  endfacet
  facet normal 0.111965 0.993712 -0
    outer loop
      vertex 49.1137 5.78438 2
      vertex 47.2 6 3.5
      vertex 49.1137 5.78438 3.5
    endloop
  endfacet
  facet normal 0.111965 0.993712 0
    outer loop
      vertex 47.2 6 3.5
      vertex 49.1137 5.78438 2
      vertex 47.2 6 2
    endloop
  endfacet
  facet normal 0.532032 0.846724 -0
    outer loop
      vertex 52.562 4.12375 2
      vertex 50.9314 5.14833 3.5
      vertex 52.562 4.12375 3.5
    endloop
  endfacet
  facet normal 0.532032 0.846724 0
    outer loop
      vertex 50.9314 5.14833 3.5
      vertex 52.562 4.12375 2
      vertex 50.9314 5.14833 2
    endloop
  endfacet
  facet normal -0.532032 0.846724 0
    outer loop
      vertex 43.4686 5.14833 2
      vertex 41.838 4.12375 3.5
      vertex 43.4686 5.14833 3.5
    endloop
  endfacet
  facet normal -0.532032 0.846724 0
    outer loop
      vertex 41.838 4.12375 3.5
      vertex 43.4686 5.14833 2
      vertex 41.838 4.12375 2
    endloop
  endfacet
  facet normal -0.111964 0.993712 0
    outer loop
      vertex 47.2 6 2
      vertex 45.2863 5.78438 3.5
      vertex 47.2 6 3.5
    endloop
  endfacet
  facet normal -0.111964 0.993712 0
    outer loop
      vertex 45.2863 5.78438 3.5
      vertex 47.2 6 2
      vertex 45.2863 5.78438 2
    endloop
  endfacet
  facet normal -0.846724 0.532033 0
    outer loop
      vertex 39.4517 1.1314 2
      vertex 40.4762 2.76201 3.5
      vertex 40.4762 2.76201 2
    endloop
  endfacet
  facet normal -0.846724 0.532033 0
    outer loop
      vertex 40.4762 2.76201 3.5
      vertex 39.4517 1.1314 2
      vertex 39.4517 1.1314 3.5
    endloop
  endfacet
  facet normal 0.330279 0.943883 -0
    outer loop
      vertex 50.9314 5.14833 2
      vertex 49.1137 5.78438 3.5
      vertex 50.9314 5.14833 3.5
    endloop
  endfacet
  facet normal 0.330279 0.943883 0
    outer loop
      vertex 49.1137 5.78438 3.5
      vertex 50.9314 5.14833 2
      vertex 49.1137 5.78438 2
    endloop
  endfacet
  facet normal 0.707107 0.707107 -0
    outer loop
      vertex 53.9238 2.76201 2
      vertex 52.562 4.12375 3.5
      vertex 53.9238 2.76201 3.5
    endloop
  endfacet
  facet normal 0.707107 0.707107 0
    outer loop
      vertex 52.562 4.12375 3.5
      vertex 53.9238 2.76201 2
      vertex 52.562 4.12375 2
    endloop
  endfacet
  facet normal 0.943884 0.330278 0
    outer loop
      vertex 55.3442 0 3.5
      vertex 54.9483 1.1314 2
      vertex 54.9483 1.1314 3.5
    endloop
  endfacet
  facet normal 0.943884 0.330278 0
    outer loop
      vertex 54.9483 1.1314 2
      vertex 55.3442 0 3.5
      vertex 55.3442 0 2
    endloop
  endfacet
  facet normal -0.330279 0.943883 0
    outer loop
      vertex 45.2863 5.78438 2
      vertex 43.4686 5.14833 3.5
      vertex 45.2863 5.78438 3.5
    endloop
  endfacet
  facet normal -0.330279 0.943883 0
    outer loop
      vertex 43.4686 5.14833 3.5
      vertex 45.2863 5.78438 2
      vertex 43.4686 5.14833 2
    endloop
  endfacet
  facet normal -0.707108 0.707106 0
    outer loop
      vertex 40.4762 2.76201 2
      vertex 41.838 4.12375 3.5
      vertex 41.838 4.12375 2
    endloop
  endfacet
  facet normal -0.707108 0.707106 0
    outer loop
      vertex 41.838 4.12375 3.5
      vertex 40.4762 2.76201 2
      vertex 40.4762 2.76201 3.5
    endloop
  endfacet
  facet normal -0.943884 0.330278 0
    outer loop
      vertex 39.0558 0 2
      vertex 39.4517 1.1314 3.5
      vertex 39.4517 1.1314 2
    endloop
  endfacet
  facet normal -0.943884 0.330278 0
    outer loop
      vertex 39.4517 1.1314 3.5
      vertex 39.0558 0 2
      vertex 39.0558 0 3.5
    endloop
  endfacet
  facet normal -0.707107 0.707107 0
    outer loop
      vertex 61.038 4.12375 2
      vertex 59.6762 2.76201 3.5
      vertex 61.038 4.12375 3.5
    endloop
  endfacet
  facet normal -0.707107 0.707107 0
    outer loop
      vertex 59.6762 2.76201 3.5
      vertex 61.038 4.12375 2
      vertex 59.6762 2.76201 2
    endloop
  endfacet
  facet normal 0.707107 0.707107 -0
    outer loop
      vertex 73.1237 2.76201 2
      vertex 71.762 4.12375 3.5
      vertex 73.1237 2.76201 3.5
    endloop
  endfacet
  facet normal 0.707107 0.707107 0
    outer loop
      vertex 71.762 4.12375 3.5
      vertex 73.1237 2.76201 2
      vertex 71.762 4.12375 2
    endloop
  endfacet
  facet normal 0.111964 0.993712 -0
    outer loop
      vertex 68.3137 5.78438 2
      vertex 66.4 6 3.5
      vertex 68.3137 5.78438 3.5
    endloop
  endfacet
  facet normal 0.111964 0.993712 0
    outer loop
      vertex 66.4 6 3.5
      vertex 68.3137 5.78438 2
      vertex 66.4 6 2
    endloop
  endfacet
  facet normal 0.532033 0.846724 -0
    outer loop
      vertex 71.762 4.12375 2
      vertex 70.1314 5.14833 3.5
      vertex 71.762 4.12375 3.5
    endloop
  endfacet
  facet normal 0.532033 0.846724 0
    outer loop
      vertex 70.1314 5.14833 3.5
      vertex 71.762 4.12375 2
      vertex 70.1314 5.14833 2
    endloop
  endfacet
  facet normal -0.532032 0.846724 0
    outer loop
      vertex 62.6686 5.14833 2
      vertex 61.038 4.12375 3.5
      vertex 62.6686 5.14833 3.5
    endloop
  endfacet
  facet normal -0.532032 0.846724 0
    outer loop
      vertex 61.038 4.12375 3.5
      vertex 62.6686 5.14833 2
      vertex 61.038 4.12375 2
    endloop
  endfacet
  facet normal -0.111964 0.993712 0
    outer loop
      vertex 66.4 6 2
      vertex 64.4863 5.78438 3.5
      vertex 66.4 6 3.5
    endloop
  endfacet
  facet normal -0.111964 0.993712 0
    outer loop
      vertex 64.4863 5.78438 3.5
      vertex 66.4 6 2
      vertex 64.4863 5.78438 2
    endloop
  endfacet
  facet normal -0.846725 0.532031 0
    outer loop
      vertex 58.6517 1.1314 2
      vertex 59.6762 2.76201 3.5
      vertex 59.6762 2.76201 2
    endloop
  endfacet
  facet normal -0.846725 0.532031 0
    outer loop
      vertex 59.6762 2.76201 3.5
      vertex 58.6517 1.1314 2
      vertex 58.6517 1.1314 3.5
    endloop
  endfacet
  facet normal 0.33028 0.943883 -0
    outer loop
      vertex 70.1314 5.14833 2
      vertex 68.3137 5.78438 3.5
      vertex 70.1314 5.14833 3.5
    endloop
  endfacet
  facet normal 0.33028 0.943883 0
    outer loop
      vertex 68.3137 5.78438 3.5
      vertex 70.1314 5.14833 2
      vertex 68.3137 5.78438 2
    endloop
  endfacet
  facet normal 0.943883 0.330281 0
    outer loop
      vertex 74.5442 0 3.5
      vertex 74.1483 1.1314 2
      vertex 74.1483 1.1314 3.5
    endloop
  endfacet
  facet normal 0.943883 0.330281 0
    outer loop
      vertex 74.1483 1.1314 2
      vertex 74.5442 0 3.5
      vertex 74.5442 0 2
    endloop
  endfacet
  facet normal 0.846724 0.532033 0
    outer loop
      vertex 74.1483 1.1314 3.5
      vertex 73.1237 2.76201 2
      vertex 73.1237 2.76201 3.5
    endloop
  endfacet
  facet normal 0.846724 0.532033 0
    outer loop
      vertex 73.1237 2.76201 2
      vertex 74.1483 1.1314 3.5
      vertex 74.1483 1.1314 2
    endloop
  endfacet
  facet normal -0.330279 0.943883 0
    outer loop
      vertex 64.4863 5.78438 2
      vertex 62.6686 5.14833 3.5
      vertex 64.4863 5.78438 3.5
    endloop
  endfacet
  facet normal -0.330279 0.943883 0
    outer loop
      vertex 62.6686 5.14833 3.5
      vertex 64.4863 5.78438 2
      vertex 62.6686 5.14833 2
    endloop
  endfacet
  facet normal -0.943883 0.330281 0
    outer loop
      vertex 58.2558 0 2
      vertex 58.6517 1.1314 3.5
      vertex 58.6517 1.1314 2
    endloop
  endfacet
  facet normal -0.943883 0.330281 0
    outer loop
      vertex 58.6517 1.1314 3.5
      vertex 58.2558 0 2
      vertex 58.2558 0 3.5
    endloop
  endfacet
endsolid OpenSCAD_Model
