solid OpenSCAD_Model
  facet normal -1 0 0
    outer loop
      vertex 0 0 0
      vertex 0 100 25
      vertex 0 100 0
    endloop
  endfacet
  facet normal -1 -0 0
    outer loop
      vertex 0 100 25
      vertex 0 0 0
      vertex 0 0 25
    endloop
  endfacet
  facet normal -0 0 1
    outer loop
      vertex 2 51 25
      vertex 32.3333 49 25
      vertex 32.3333 51 25
    endloop
  endfacet
  facet normal 0 0 1
    outer loop
      vertex 32.3333 49 25
      vertex 2 51 25
      vertex 2 49 25
    endloop
  endfacet
  facet normal -0 0 1
    outer loop
      vertex 58.8912 51 25
      vertex 65.6667 49 25
      vertex 65.6667 51 25
    endloop
  endfacet
  facet normal 0 0 1
    outer loop
      vertex 58.8912 51 25
      vertex 58.8912 49 25
      vertex 65.6667 49 25
    endloop
  endfacet
  facet normal -0 0 1
    outer loop
      vertex 57.4581 51.9149 25
      vertex 58.8912 51 25
      vertex 58.7896 51.9347 25
    endloop
  endfacet
  facet normal 0 0 1
    outer loop
      vertex 58.8912 51 25
      vertex 57.7 50 25
      vertex 58.8912 49 25
    endloop
  endfacet
  facet normal 0 0 1
    outer loop
      vertex 57.4581 51.9149 25
      vertex 58.7896 51.9347 25
      vertex 58.1682 53.779 25
    endloop
  endfacet
  facet normal 0 0 1
    outer loop
      vertex 57.4581 48.0851 25
      vertex 58.8912 49 25
      vertex 57.7 50 25
    endloop
  endfacet
  facet normal 0 0 1
    outer loop
      vertex 58.8912 49 25
      vertex 57.4581 48.0851 25
      vertex 58.7896 48.0653 25
    endloop
  endfacet
  facet normal 0 0 1
    outer loop
      vertex 58.8912 51 25
      vertex 57.4581 51.9149 25
      vertex 57.7 50 25
    endloop
  endfacet
  facet normal 0 0 1
    outer loop
      vertex 56.7476 53.7095 25
      vertex 58.1682 53.779 25
      vertex 57.1648 55.4466 25
    endloop
  endfacet
  facet normal 0 0 1
    outer loop
      vertex 58.1682 53.779 25
      vertex 56.7476 53.7095 25
      vertex 57.4581 51.9149 25
    endloop
  endfacet
  facet normal 0 0 1
    outer loop
      vertex 55.6131 55.271 25
      vertex 57.1648 55.4466 25
      vertex 55.8265 56.8595 25
    endloop
  endfacet
  facet normal 0 0 1
    outer loop
      vertex 57.1648 55.4466 25
      vertex 55.6131 55.271 25
      vertex 56.7476 53.7095 25
    endloop
  endfacet
  facet normal 0 0 1
    outer loop
      vertex 54.1259 56.5013 25
      vertex 55.8265 56.8595 25
      vertex 54.2157 57.9516 25
    endloop
  endfacet
  facet normal 0 0 1
    outer loop
      vertex 55.8265 56.8595 25
      vertex 54.1259 56.5013 25
      vertex 55.6131 55.271 25
    endloop
  endfacet
  facet normal 0 0 1
    outer loop
      vertex 52.3794 57.3231 25
      vertex 54.2157 57.9516 25
      vertex 52.4078 58.672 25
    endloop
  endfacet
  facet normal 0 0 1
    outer loop
      vertex 54.2157 57.9516 25
      vertex 52.3794 57.3231 25
      vertex 54.1259 56.5013 25
    endloop
  endfacet
  facet normal 0 0 1
    outer loop
      vertex 50.4835 57.6848 25
      vertex 52.4078 58.672 25
      vertex 50.4873 58.9868 25
    endloop
  endfacet
  facet normal 0 0 1
    outer loop
      vertex 52.4078 58.672 25
      vertex 50.4835 57.6848 25
      vertex 52.3794 57.3231 25
    endloop
  endfacet
  facet normal -0 0 1
    outer loop
      vertex 48.544 58.8814 25
      vertex 50.4835 57.6848 25
      vertex 50.4873 58.9868 25
    endloop
  endfacet
  facet normal 0 0 1
    outer loop
      vertex 50.4835 57.6848 25
      vertex 48.544 58.8814 25
      vertex 48.5572 57.5636 25
    endloop
  endfacet
  facet normal -0 0 1
    outer loop
      vertex 46.6688 58.3608 25
      vertex 48.5572 57.5636 25
      vertex 48.544 58.8814 25
    endloop
  endfacet
  facet normal 0 0 1
    outer loop
      vertex 48.5572 57.5636 25
      vertex 46.6688 58.3608 25
      vertex 46.7215 56.9672 25
    endloop
  endfacet
  facet normal -0 0 1
    outer loop
      vertex 44.9493 57.4492 25
      vertex 46.7215 56.9672 25
      vertex 46.6688 58.3608 25
    endloop
  endfacet
  facet normal 0 0 1
    outer loop
      vertex 46.7215 56.9672 25
      vertex 44.9493 57.4492 25
      vertex 45.0918 55.933 25
    endloop
  endfacet
  facet normal -0 0 1
    outer loop
      vertex 43.466 56.1893 25
      vertex 45.0918 55.933 25
      vertex 44.9493 57.4492 25
    endloop
  endfacet
  facet normal 0 0 1
    outer loop
      vertex 45.0918 55.933 25
      vertex 43.466 56.1893 25
      vertex 43.7706 54.5259 25
    endloop
  endfacet
  facet normal -0 0 1
    outer loop
      vertex 42.2883 54.64 25
      vertex 43.7706 54.5259 25
      vertex 43.466 56.1893 25
    endloop
  endfacet
  facet normal 0 0 1
    outer loop
      vertex 43.7706 54.5259 25
      vertex 42.2883 54.64 25
      vertex 42.8407 52.8346 25
    endloop
  endfacet
  facet normal 0 0 1
    outer loop
      vertex 42.8407 52.8346 25
      vertex 41.4711 52.8737 25
      vertex 42.3607 50.9651 25
    endloop
  endfacet
  facet normal -0 0 1
    outer loop
      vertex 41.4711 52.8737 25
      vertex 42.8407 52.8346 25
      vertex 42.2883 54.64 25
    endloop
  endfacet
  facet normal -0 0 1
    outer loop
      vertex 67.6667 51 25
      vertex 98 49 25
      vertex 98 51 25
    endloop
  endfacet
  facet normal 0 0 1
    outer loop
      vertex 98 49 25
      vertex 67.6667 51 25
      vertex 67.6667 49 25
    endloop
  endfacet
  facet normal 0 0 1
    outer loop
      vertex 98 51 25
      vertex 100 100 25
      vertex 98 98 25
    endloop
  endfacet
  facet normal 0 0 1
    outer loop
      vertex 100 100 25
      vertex 67.6667 98 25
      vertex 98 98 25
    endloop
  endfacet
  facet normal 0 0 1
    outer loop
      vertex 65.6667 51 25
      vertex 67.6667 51 25
      vertex 67.6667 98 25
    endloop
  endfacet
  facet normal 0 0 1
    outer loop
      vertex 67.6667 51 25
      vertex 65.6667 51 25
      vertex 67.6667 49 25
    endloop
  endfacet
  facet normal 0 0 1
    outer loop
      vertex 65.6667 51 25
      vertex 67.6667 98 25
      vertex 65.6667 98 25
    endloop
  endfacet
  facet normal 0 0 1
    outer loop
      vertex 100 100 25
      vertex 65.6667 98 25
      vertex 67.6667 98 25
    endloop
  endfacet
  facet normal 0 0 1
    outer loop
      vertex 100 100 25
      vertex 34.3333 98 25
      vertex 65.6667 98 25
    endloop
  endfacet
  facet normal 0 0 1
    outer loop
      vertex 32.3333 51 25
      vertex 34.3333 51 25
      vertex 34.3333 98 25
    endloop
  endfacet
  facet normal 0 0 1
    outer loop
      vertex 34.3333 51 25
      vertex 32.3333 51 25
      vertex 34.3333 49 25
    endloop
  endfacet
  facet normal 0 0 1
    outer loop
      vertex 32.3333 51 25
      vertex 34.3333 98 25
      vertex 32.3333 98 25
    endloop
  endfacet
  facet normal -0 0 1
    outer loop
      vertex 0 100 25
      vertex 34.3333 98 25
      vertex 100 100 25
    endloop
  endfacet
  facet normal 0 0 1
    outer loop
      vertex 34.3333 98 25
      vertex 0 100 25
      vertex 32.3333 98 25
    endloop
  endfacet
  facet normal 0 0 1
    outer loop
      vertex 0 100 25
      vertex 2 51 25
      vertex 2 98 25
    endloop
  endfacet
  facet normal 0 0 1
    outer loop
      vertex 2 51 25
      vertex 0 100 25
      vertex 2 49 25
    endloop
  endfacet
  facet normal 0 0 1
    outer loop
      vertex 0 0 25
      vertex 2 49 25
      vertex 0 100 25
    endloop
  endfacet
  facet normal 0 0 1
    outer loop
      vertex 32.3333 98 25
      vertex 0 100 25
      vertex 2 98 25
    endloop
  endfacet
  facet normal 0 0 1
    outer loop
      vertex 100 100 25
      vertex 98 51 25
      vertex 100 0 25
    endloop
  endfacet
  facet normal -0 0 1
    outer loop
      vertex 98 49 25
      vertex 100 0 25
      vertex 98 51 25
    endloop
  endfacet
  facet normal -0 0 1
    outer loop
      vertex 98 2 25
      vertex 100 0 25
      vertex 98 49 25
    endloop
  endfacet
  facet normal -0 0 1
    outer loop
      vertex 67.6667 2 25
      vertex 100 0 25
      vertex 98 2 25
    endloop
  endfacet
  facet normal 0 0 1
    outer loop
      vertex 65.6667 49 25
      vertex 67.6667 49 25
      vertex 65.6667 51 25
    endloop
  endfacet
  facet normal 0 0 1
    outer loop
      vertex 67.6667 49 25
      vertex 65.6667 49 25
      vertex 67.6667 2 25
    endloop
  endfacet
  facet normal 0 0 1
    outer loop
      vertex 65.6667 2 25
      vertex 67.6667 2 25
      vertex 65.6667 49 25
    endloop
  endfacet
  facet normal -0 0 1
    outer loop
      vertex 65.6667 2 25
      vertex 100 0 25
      vertex 67.6667 2 25
    endloop
  endfacet
  facet normal -0 0 1
    outer loop
      vertex 34.3333 2 25
      vertex 100 0 25
      vertex 65.6667 2 25
    endloop
  endfacet
  facet normal 0 0 1
    outer loop
      vertex 32.3333 49 25
      vertex 34.3333 49 25
      vertex 32.3333 51 25
    endloop
  endfacet
  facet normal 0 0 1
    outer loop
      vertex 34.3333 49 25
      vertex 32.3333 49 25
      vertex 34.3333 2 25
    endloop
  endfacet
  facet normal 0 0 1
    outer loop
      vertex 32.3333 2 25
      vertex 34.3333 2 25
      vertex 32.3333 49 25
    endloop
  endfacet
  facet normal 0 0 1
    outer loop
      vertex 0 0 25
      vertex 34.3333 2 25
      vertex 32.3333 2 25
    endloop
  endfacet
  facet normal 0 0 1
    outer loop
      vertex 0 0 25
      vertex 32.3333 2 25
      vertex 2 2 25
    endloop
  endfacet
  facet normal 0 0 1
    outer loop
      vertex 34.3333 2 25
      vertex 0 0 25
      vertex 100 0 25
    endloop
  endfacet
  facet normal 0 0 1
    outer loop
      vertex 2 49 25
      vertex 0 0 25
      vertex 2 2 25
    endloop
  endfacet
  facet normal 0 0 1
    outer loop
      vertex 58.7896 48.0653 25
      vertex 57.4581 48.0851 25
      vertex 58.1682 46.221 25
    endloop
  endfacet
  facet normal -0 0 1
    outer loop
      vertex 56.7476 46.2905 25
      vertex 58.1682 46.221 25
      vertex 57.4581 48.0851 25
    endloop
  endfacet
  facet normal 0 0 1
    outer loop
      vertex 58.1682 46.221 25
      vertex 56.7476 46.2905 25
      vertex 57.1648 44.5534 25
    endloop
  endfacet
  facet normal -0 0 1
    outer loop
      vertex 55.6131 44.729 25
      vertex 57.1648 44.5534 25
      vertex 56.7476 46.2905 25
    endloop
  endfacet
  facet normal 0 0 1
    outer loop
      vertex 57.1648 44.5534 25
      vertex 55.6131 44.729 25
      vertex 55.8265 43.1405 25
    endloop
  endfacet
  facet normal -0 0 1
    outer loop
      vertex 54.1259 43.4987 25
      vertex 55.8265 43.1405 25
      vertex 55.6131 44.729 25
    endloop
  endfacet
  facet normal 0 0 1
    outer loop
      vertex 55.8265 43.1405 25
      vertex 54.1259 43.4987 25
      vertex 54.2157 42.0484 25
    endloop
  endfacet
  facet normal -0 0 1
    outer loop
      vertex 52.3794 42.6769 25
      vertex 54.2157 42.0484 25
      vertex 54.1259 43.4987 25
    endloop
  endfacet
  facet normal 0 0 1
    outer loop
      vertex 54.2157 42.0484 25
      vertex 52.3794 42.6769 25
      vertex 52.4078 41.328 25
    endloop
  endfacet
  facet normal -0 0 1
    outer loop
      vertex 50.4835 42.3152 25
      vertex 52.4078 41.328 25
      vertex 52.3794 42.6769 25
    endloop
  endfacet
  facet normal 0 0 1
    outer loop
      vertex 52.4078 41.328 25
      vertex 50.4835 42.3152 25
      vertex 50.4873 41.0132 25
    endloop
  endfacet
  facet normal 0 0 1
    outer loop
      vertex 48.544 41.1186 25
      vertex 50.4835 42.3152 25
      vertex 48.5572 42.4364 25
    endloop
  endfacet
  facet normal 0 0 1
    outer loop
      vertex 50.4835 42.3152 25
      vertex 48.544 41.1186 25
      vertex 50.4873 41.0132 25
    endloop
  endfacet
  facet normal 0 0 1
    outer loop
      vertex 46.6688 41.6392 25
      vertex 48.5572 42.4364 25
      vertex 46.7215 43.0328 25
    endloop
  endfacet
  facet normal 0 0 1
    outer loop
      vertex 48.5572 42.4364 25
      vertex 46.6688 41.6392 25
      vertex 48.544 41.1186 25
    endloop
  endfacet
  facet normal 0 0 1
    outer loop
      vertex 44.9493 42.5508 25
      vertex 46.7215 43.0328 25
      vertex 45.0918 44.067 25
    endloop
  endfacet
  facet normal 0 0 1
    outer loop
      vertex 46.7215 43.0328 25
      vertex 44.9493 42.5508 25
      vertex 46.6688 41.6392 25
    endloop
  endfacet
  facet normal 0 0 1
    outer loop
      vertex 43.466 43.8107 25
      vertex 45.0918 44.067 25
      vertex 43.7706 45.4741 25
    endloop
  endfacet
  facet normal 0 0 1
    outer loop
      vertex 45.0918 44.067 25
      vertex 43.466 43.8107 25
      vertex 44.9493 42.5508 25
    endloop
  endfacet
  facet normal 0 0 1
    outer loop
      vertex 42.2883 45.36 25
      vertex 43.7706 45.4741 25
      vertex 42.8407 47.1654 25
    endloop
  endfacet
  facet normal 0 0 1
    outer loop
      vertex 41.4711 47.1263 25
      vertex 42.8407 47.1654 25
      vertex 42.3607 49.0349 25
    endloop
  endfacet
  facet normal 0 0 1
    outer loop
      vertex 43.7706 45.4741 25
      vertex 42.2883 45.36 25
      vertex 43.466 43.8107 25
    endloop
  endfacet
  facet normal -0 0 1
    outer loop
      vertex 41.0587 51 25
      vertex 42.3607 50.9651 25
      vertex 41.4711 52.8737 25
    endloop
  endfacet
  facet normal 0 0 1
    outer loop
      vertex 42.3607 50.9651 25
      vertex 41.0587 51 25
      vertex 42.3607 49.0349 25
    endloop
  endfacet
  facet normal 0 0 1
    outer loop
      vertex 42.8407 47.1654 25
      vertex 41.4711 47.1263 25
      vertex 42.2883 45.36 25
    endloop
  endfacet
  facet normal 0 0 1
    outer loop
      vertex 41.0587 49 25
      vertex 42.3607 49.0349 25
      vertex 41.0587 51 25
    endloop
  endfacet
  facet normal 0 0 1
    outer loop
      vertex 42.3607 49.0349 25
      vertex 41.0587 49 25
      vertex 41.4711 47.1263 25
    endloop
  endfacet
  facet normal -0 0 1
    outer loop
      vertex 34.3333 51 25
      vertex 41.0587 49 25
      vertex 41.0587 51 25
    endloop
  endfacet
  facet normal 0 0 1
    outer loop
      vertex 41.0587 49 25
      vertex 34.3333 51 25
      vertex 34.3333 49 25
    endloop
  endfacet
  facet normal 1 -0 0
    outer loop
      vertex 100 0 25
      vertex 100 100 0
      vertex 100 100 25
    endloop
  endfacet
  facet normal 1 0 0
    outer loop
      vertex 100 100 0
      vertex 100 0 25
      vertex 100 0 0
    endloop
  endfacet
  facet normal 0 0 -1
    outer loop
      vertex 0 0 0
      vertex 100 100 0
      vertex 100 0 0
    endloop
  endfacet
  facet normal -0 0 -1
    outer loop
      vertex 100 100 0
      vertex 0 0 0
      vertex 0 100 0
    endloop
  endfacet
  facet normal 0 -1 0
    outer loop
      vertex 0 0 0
      vertex 100 0 25
      vertex 0 0 25
    endloop
  endfacet
  facet normal 0 -1 -0
    outer loop
      vertex 100 0 25
      vertex 0 0 0
      vertex 100 0 0
    endloop
  endfacet
  facet normal 0 1 -0
    outer loop
      vertex 100 100 0
      vertex 0 100 25
      vertex 100 100 25
    endloop
  endfacet
  facet normal 0 1 0
    outer loop
      vertex 0 100 25
      vertex 100 100 0
      vertex 0 100 0
    endloop
  endfacet
  facet normal 1 -0 0
    outer loop
      vertex 2 2 25
      vertex 2 49 3
      vertex 2 49 25
    endloop
  endfacet
  facet normal 1 0 0
    outer loop
      vertex 2 49 3
      vertex 2 2 25
      vertex 2 2 3
    endloop
  endfacet
  facet normal 1 -0 0
    outer loop
      vertex 2 51 25
      vertex 2 98 3
      vertex 2 98 25
    endloop
  endfacet
  facet normal 1 0 0
    outer loop
      vertex 2 98 3
      vertex 2 51 25
      vertex 2 51 3
    endloop
  endfacet
  facet normal -1 0 0
    outer loop
      vertex 98 2 3
      vertex 98 49 25
      vertex 98 49 3
    endloop
  endfacet
  facet normal -1 -0 0
    outer loop
      vertex 98 49 25
      vertex 98 2 3
      vertex 98 2 25
    endloop
  endfacet
  facet normal -1 0 0
    outer loop
      vertex 98 51 3
      vertex 98 98 25
      vertex 98 98 3
    endloop
  endfacet
  facet normal -1 -0 0
    outer loop
      vertex 98 98 25
      vertex 98 51 3
      vertex 98 51 25
    endloop
  endfacet
  facet normal 0 -1 0
    outer loop
      vertex 67.6667 98 3
      vertex 98 98 25
      vertex 67.6667 98 25
    endloop
  endfacet
  facet normal 0 -1 -0
    outer loop
      vertex 98 98 25
      vertex 67.6667 98 3
      vertex 98 98 3
    endloop
  endfacet
  facet normal 0 -1 0
    outer loop
      vertex 2 98 3
      vertex 32.3333 98 25
      vertex 2 98 25
    endloop
  endfacet
  facet normal 0 -1 -0
    outer loop
      vertex 32.3333 98 25
      vertex 2 98 3
      vertex 32.3333 98 3
    endloop
  endfacet
  facet normal 0 -1 0
    outer loop
      vertex 34.3333 98 3
      vertex 65.6667 98 25
      vertex 34.3333 98 25
    endloop
  endfacet
  facet normal 0 -1 -0
    outer loop
      vertex 65.6667 98 25
      vertex 34.3333 98 3
      vertex 65.6667 98 3
    endloop
  endfacet
  facet normal -0 0 1
    outer loop
      vertex 2 98 3
      vertex 32.3333 51 3
      vertex 32.3333 98 3
    endloop
  endfacet
  facet normal 0 0 1
    outer loop
      vertex 32.3333 51 3
      vertex 2 98 3
      vertex 2 51 3
    endloop
  endfacet
  facet normal -0 0 1
    outer loop
      vertex 2 49 3
      vertex 32.3333 2 3
      vertex 32.3333 49 3
    endloop
  endfacet
  facet normal 0 0 1
    outer loop
      vertex 32.3333 2 3
      vertex 2 49 3
      vertex 2 2 3
    endloop
  endfacet
  facet normal -0 0 1
    outer loop
      vertex 67.6667 49 3
      vertex 98 2 3
      vertex 98 49 3
    endloop
  endfacet
  facet normal 0 0 1
    outer loop
      vertex 98 2 3
      vertex 67.6667 49 3
      vertex 67.6667 2 3
    endloop
  endfacet
  facet normal -0 0 1
    outer loop
      vertex 67.6667 98 3
      vertex 98 51 3
      vertex 98 98 3
    endloop
  endfacet
  facet normal 0 0 1
    outer loop
      vertex 98 51 3
      vertex 67.6667 98 3
      vertex 67.6667 51 3
    endloop
  endfacet
  facet normal 0 0 1
    outer loop
      vertex 58.7896 48.0653 3
      vertex 65.6667 49 3
      vertex 58.8912 49 3
    endloop
  endfacet
  facet normal 0 0 1
    outer loop
      vertex 58.1682 46.221 3
      vertex 65.6667 49 3
      vertex 58.7896 48.0653 3
    endloop
  endfacet
  facet normal 0 0 1
    outer loop
      vertex 57.1648 44.5534 3
      vertex 65.6667 49 3
      vertex 58.1682 46.221 3
    endloop
  endfacet
  facet normal 0 0 1
    outer loop
      vertex 55.8265 43.1405 3
      vertex 65.6667 49 3
      vertex 57.1648 44.5534 3
    endloop
  endfacet
  facet normal 0 0 1
    outer loop
      vertex 65.6667 49 3
      vertex 55.8265 43.1405 3
      vertex 65.6667 2 3
    endloop
  endfacet
  facet normal -0 0 1
    outer loop
      vertex 54.2157 42.0484 3
      vertex 65.6667 2 3
      vertex 55.8265 43.1405 3
    endloop
  endfacet
  facet normal -0 0 1
    outer loop
      vertex 52.4078 41.328 3
      vertex 65.6667 2 3
      vertex 54.2157 42.0484 3
    endloop
  endfacet
  facet normal -0 0 1
    outer loop
      vertex 50.4873 41.0132 3
      vertex 65.6667 2 3
      vertex 52.4078 41.328 3
    endloop
  endfacet
  facet normal 0 0 1
    outer loop
      vertex 34.3333 2 3
      vertex 50.4873 41.0132 3
      vertex 48.544 41.1186 3
    endloop
  endfacet
  facet normal 0 0 1
    outer loop
      vertex 34.3333 2 3
      vertex 48.544 41.1186 3
      vertex 46.6688 41.6392 3
    endloop
  endfacet
  facet normal 0 0 1
    outer loop
      vertex 34.3333 2 3
      vertex 46.6688 41.6392 3
      vertex 44.9493 42.5508 3
    endloop
  endfacet
  facet normal 0 0 1
    outer loop
      vertex 34.3333 2 3
      vertex 44.9493 42.5508 3
      vertex 43.466 43.8107 3
    endloop
  endfacet
  facet normal 0 0 1
    outer loop
      vertex 34.3333 49 3
      vertex 43.466 43.8107 3
      vertex 42.2883 45.36 3
    endloop
  endfacet
  facet normal -0 0 1
    outer loop
      vertex 34.3333 49 3
      vertex 41.4711 47.1263 3
      vertex 41.0587 49 3
    endloop
  endfacet
  facet normal 0 0 1
    outer loop
      vertex 34.3333 49 3
      vertex 42.2883 45.36 3
      vertex 41.4711 47.1263 3
    endloop
  endfacet
  facet normal 0 0 1
    outer loop
      vertex 43.466 43.8107 3
      vertex 34.3333 49 3
      vertex 34.3333 2 3
    endloop
  endfacet
  facet normal 0 0 1
    outer loop
      vertex 50.4873 41.0132 3
      vertex 34.3333 2 3
      vertex 65.6667 2 3
    endloop
  endfacet
  facet normal -0 0 1
    outer loop
      vertex 55.8265 56.8595 3
      vertex 65.6667 51 3
      vertex 65.6667 98 3
    endloop
  endfacet
  facet normal 0 0 1
    outer loop
      vertex 65.6667 51 3
      vertex 58.7896 51.9347 3
      vertex 58.8912 51 3
    endloop
  endfacet
  facet normal 0 0 1
    outer loop
      vertex 65.6667 51 3
      vertex 58.1682 53.779 3
      vertex 58.7896 51.9347 3
    endloop
  endfacet
  facet normal 0 0 1
    outer loop
      vertex 65.6667 51 3
      vertex 57.1648 55.4466 3
      vertex 58.1682 53.779 3
    endloop
  endfacet
  facet normal 0 0 1
    outer loop
      vertex 65.6667 51 3
      vertex 55.8265 56.8595 3
      vertex 57.1648 55.4466 3
    endloop
  endfacet
  facet normal 0 0 1
    outer loop
      vertex 65.6667 98 3
      vertex 54.2157 57.9516 3
      vertex 55.8265 56.8595 3
    endloop
  endfacet
  facet normal 0 0 1
    outer loop
      vertex 65.6667 98 3
      vertex 52.4078 58.672 3
      vertex 54.2157 57.9516 3
    endloop
  endfacet
  facet normal 0 0 1
    outer loop
      vertex 65.6667 98 3
      vertex 50.4873 58.9868 3
      vertex 52.4078 58.672 3
    endloop
  endfacet
  facet normal -0 0 1
    outer loop
      vertex 34.3333 98 3
      vertex 50.4873 58.9868 3
      vertex 65.6667 98 3
    endloop
  endfacet
  facet normal 0 0 1
    outer loop
      vertex 50.4873 58.9868 3
      vertex 34.3333 98 3
      vertex 48.544 58.8814 3
    endloop
  endfacet
  facet normal 0 0 1
    outer loop
      vertex 48.544 58.8814 3
      vertex 34.3333 98 3
      vertex 46.6688 58.3608 3
    endloop
  endfacet
  facet normal 0 0 1
    outer loop
      vertex 46.6688 58.3608 3
      vertex 34.3333 98 3
      vertex 44.9493 57.4492 3
    endloop
  endfacet
  facet normal 0 0 1
    outer loop
      vertex 44.9493 57.4492 3
      vertex 34.3333 98 3
      vertex 43.466 56.1893 3
    endloop
  endfacet
  facet normal 0 0 1
    outer loop
      vertex 34.3333 51 3
      vertex 43.466 56.1893 3
      vertex 34.3333 98 3
    endloop
  endfacet
  facet normal 0 0 1
    outer loop
      vertex 43.466 56.1893 3
      vertex 34.3333 51 3
      vertex 42.2883 54.64 3
    endloop
  endfacet
  facet normal 0 0 1
    outer loop
      vertex 42.2883 54.64 3
      vertex 34.3333 51 3
      vertex 41.4711 52.8737 3
    endloop
  endfacet
  facet normal 0 0 1
    outer loop
      vertex 41.4711 52.8737 3
      vertex 34.3333 51 3
      vertex 41.0587 51 3
    endloop
  endfacet
  facet normal 0 1 -0
    outer loop
      vertex 32.3333 2 3
      vertex 2 2 25
      vertex 32.3333 2 25
    endloop
  endfacet
  facet normal 0 1 0
    outer loop
      vertex 2 2 25
      vertex 32.3333 2 3
      vertex 2 2 3
    endloop
  endfacet
  facet normal 0 1 -0
    outer loop
      vertex 98 2 3
      vertex 67.6667 2 25
      vertex 98 2 25
    endloop
  endfacet
  facet normal 0 1 0
    outer loop
      vertex 67.6667 2 25
      vertex 98 2 3
      vertex 67.6667 2 3
    endloop
  endfacet
  facet normal 0 1 -0
    outer loop
      vertex 65.6667 2 3
      vertex 34.3333 2 25
      vertex 65.6667 2 25
    endloop
  endfacet
  facet normal 0 1 0
    outer loop
      vertex 34.3333 2 25
      vertex 65.6667 2 3
      vertex 34.3333 2 3
    endloop
  endfacet
  facet normal -1 0 0
    outer loop
      vertex 32.3333 2 3
      vertex 32.3333 49 25
      vertex 32.3333 49 3
    endloop
  endfacet
  facet normal -1 -0 0
    outer loop
      vertex 32.3333 49 25
      vertex 32.3333 2 3
      vertex 32.3333 2 25
    endloop
  endfacet
  facet normal -1 0 0
    outer loop
      vertex 32.3333 51 3
      vertex 32.3333 98 25
      vertex 32.3333 98 3
    endloop
  endfacet
  facet normal -1 -0 0
    outer loop
      vertex 32.3333 98 25
      vertex 32.3333 51 3
      vertex 32.3333 51 25
    endloop
  endfacet
  facet normal 1 -0 0
    outer loop
      vertex 34.3333 2 25
      vertex 34.3333 49 3
      vertex 34.3333 49 25
    endloop
  endfacet
  facet normal 1 0 0
    outer loop
      vertex 34.3333 49 3
      vertex 34.3333 2 25
      vertex 34.3333 2 3
    endloop
  endfacet
  facet normal 1 -0 0
    outer loop
      vertex 34.3333 51 25
      vertex 34.3333 98 3
      vertex 34.3333 98 25
    endloop
  endfacet
  facet normal 1 0 0
    outer loop
      vertex 34.3333 98 3
      vertex 34.3333 51 25
      vertex 34.3333 51 3
    endloop
  endfacet
  facet normal -1 0 0
    outer loop
      vertex 65.6667 2 3
      vertex 65.6667 49 25
      vertex 65.6667 49 3
    endloop
  endfacet
  facet normal -1 -0 0
    outer loop
      vertex 65.6667 49 25
      vertex 65.6667 2 3
      vertex 65.6667 2 25
    endloop
  endfacet
  facet normal -1 0 0
    outer loop
      vertex 65.6667 51 3
      vertex 65.6667 98 25
      vertex 65.6667 98 3
    endloop
  endfacet
  facet normal -1 -0 0
    outer loop
      vertex 65.6667 98 25
      vertex 65.6667 51 3
      vertex 65.6667 51 25
    endloop
  endfacet
  facet normal 1 -0 0
    outer loop
      vertex 67.6667 2 25
      vertex 67.6667 49 3
      vertex 67.6667 49 25
    endloop
  endfacet
  facet normal 1 0 0
    outer loop
      vertex 67.6667 49 3
      vertex 67.6667 2 25
      vertex 67.6667 2 3
    endloop
  endfacet
  facet normal 1 -0 0
    outer loop
      vertex 67.6667 51 25
      vertex 67.6667 98 3
      vertex 67.6667 98 25
    endloop
  endfacet
  facet normal 1 0 0
    outer loop
      vertex 67.6667 98 3
      vertex 67.6667 51 25
      vertex 67.6667 51 3
    endloop
  endfacet
  facet normal 0 -1 0
    outer loop
      vertex 2 49 3
      vertex 32.3333 49 25
      vertex 2 49 25
    endloop
  endfacet
  facet normal 0 -1 -0
    outer loop
      vertex 32.3333 49 25
      vertex 2 49 3
      vertex 32.3333 49 3
    endloop
  endfacet
  facet normal 0 -1 0
    outer loop
      vertex 34.3333 49 3
      vertex 41.0587 49 25
      vertex 34.3333 49 25
    endloop
  endfacet
  facet normal 0 -1 -0
    outer loop
      vertex 41.0587 49 25
      vertex 34.3333 49 3
      vertex 41.0587 49 3
    endloop
  endfacet
  facet normal 0 -1 0
    outer loop
      vertex 58.8912 49 3
      vertex 65.6667 49 25
      vertex 58.8912 49 25
    endloop
  endfacet
  facet normal 0 -1 -0
    outer loop
      vertex 65.6667 49 25
      vertex 58.8912 49 3
      vertex 65.6667 49 3
    endloop
  endfacet
  facet normal 0 -1 0
    outer loop
      vertex 67.6667 49 3
      vertex 98 49 25
      vertex 67.6667 49 25
    endloop
  endfacet
  facet normal 0 -1 -0
    outer loop
      vertex 98 49 25
      vertex 67.6667 49 3
      vertex 98 49 3
    endloop
  endfacet
  facet normal 0 1 -0
    outer loop
      vertex 32.3333 51 3
      vertex 2 51 25
      vertex 32.3333 51 25
    endloop
  endfacet
  facet normal 0 1 0
    outer loop
      vertex 2 51 25
      vertex 32.3333 51 3
      vertex 2 51 3
    endloop
  endfacet
  facet normal 0 1 -0
    outer loop
      vertex 41.0587 51 3
      vertex 34.3333 51 25
      vertex 41.0587 51 25
    endloop
  endfacet
  facet normal 0 1 0
    outer loop
      vertex 34.3333 51 25
      vertex 41.0587 51 3
      vertex 34.3333 51 3
    endloop
  endfacet
  facet normal 0 1 -0
    outer loop
      vertex 65.6667 51 3
      vertex 58.8912 51 25
      vertex 65.6667 51 25
    endloop
  endfacet
  facet normal 0 1 0
    outer loop
      vertex 58.8912 51 25
      vertex 65.6667 51 3
      vertex 58.8912 51 3
    endloop
  endfacet
  facet normal 0 1 -0
    outer loop
      vertex 98 51 3
      vertex 67.6667 51 25
      vertex 98 51 25
    endloop
  endfacet
  facet normal 0 1 0
    outer loop
      vertex 67.6667 51 25
      vertex 98 51 3
      vertex 67.6667 51 3
    endloop
  endfacet
  facet normal 0.994138 0.108118 0
    outer loop
      vertex 58.8912 51 25
      vertex 58.7896 51.9347 3
      vertex 58.7896 51.9347 25
    endloop
  endfacet
  facet normal 0.994138 0.108118 0
    outer loop
      vertex 58.7896 51.9347 3
      vertex 58.8912 51 25
      vertex 58.8912 51 3
    endloop
  endfacet
  facet normal -0.0541388 0.998533 0
    outer loop
      vertex 50.4873 58.9868 3
      vertex 48.544 58.8814 25
      vertex 50.4873 58.9868 25
    endloop
  endfacet
  facet normal -0.0541388 0.998533 0
    outer loop
      vertex 48.544 58.8814 25
      vertex 50.4873 58.9868 3
      vertex 48.544 58.8814 3
    endloop
  endfacet
  facet normal 0.161782 -0.986827 0
    outer loop
      vertex 50.4873 41.0132 3
      vertex 52.4078 41.328 25
      vertex 50.4873 41.0132 25
    endloop
  endfacet
  facet normal 0.161782 -0.986827 0
    outer loop
      vertex 52.4078 41.328 25
      vertex 50.4873 41.0132 3
      vertex 52.4078 41.328 3
    endloop
  endfacet
  facet normal 0.725996 0.687699 0
    outer loop
      vertex 57.1648 55.4466 25
      vertex 55.8265 56.8595 3
      vertex 55.8265 56.8595 25
    endloop
  endfacet
  facet normal 0.725996 0.687699 0
    outer loop
      vertex 55.8265 56.8595 3
      vertex 57.1648 55.4466 25
      vertex 57.1648 55.4466 3
    endloop
  endfacet
  facet normal 0.947653 0.319302 0
    outer loop
      vertex 58.7896 51.9347 25
      vertex 58.1682 53.779 3
      vertex 58.1682 53.779 25
    endloop
  endfacet
  facet normal 0.947653 0.319302 0
    outer loop
      vertex 58.1682 53.779 3
      vertex 58.7896 51.9347 25
      vertex 58.7896 51.9347 3
    endloop
  endfacet
  facet normal -0.647386 0.762162 0
    outer loop
      vertex 44.9493 57.4492 3
      vertex 43.466 56.1893 25
      vertex 44.9493 57.4492 25
    endloop
  endfacet
  facet normal -0.647386 0.762162 0
    outer loop
      vertex 43.466 56.1893 25
      vertex 44.9493 57.4492 3
      vertex 43.466 56.1893 3
    endloop
  endfacet
  facet normal -0.267529 0.96355 0
    outer loop
      vertex 48.544 58.8814 3
      vertex 46.6688 58.3608 25
      vertex 48.544 58.8814 25
    endloop
  endfacet
  facet normal -0.267529 0.96355 0
    outer loop
      vertex 46.6688 58.3608 25
      vertex 48.544 58.8814 3
      vertex 46.6688 58.3608 3
    endloop
  endfacet
  facet normal 0.856857 0.515554 0
    outer loop
      vertex 58.1682 53.779 25
      vertex 57.1648 55.4466 3
      vertex 57.1648 55.4466 25
    endloop
  endfacet
  facet normal 0.856857 0.515554 0
    outer loop
      vertex 57.1648 55.4466 3
      vertex 58.1682 53.779 25
      vertex 58.1682 53.779 3
    endloop
  endfacet
  facet normal 0.370139 0.928976 -0
    outer loop
      vertex 54.2157 57.9516 3
      vertex 52.4078 58.672 25
      vertex 54.2157 57.9516 25
    endloop
  endfacet
  facet normal 0.370139 0.928976 0
    outer loop
      vertex 52.4078 58.672 25
      vertex 54.2157 57.9516 3
      vertex 52.4078 58.672 3
    endloop
  endfacet
  facet normal 0.161782 0.986827 -0
    outer loop
      vertex 52.4078 58.672 3
      vertex 50.4873 58.9868 25
      vertex 52.4078 58.672 25
    endloop
  endfacet
  facet normal 0.161782 0.986827 0
    outer loop
      vertex 50.4873 58.9868 25
      vertex 52.4078 58.672 3
      vertex 50.4873 58.9868 3
    endloop
  endfacet
  facet normal 0.561186 0.82769 -0
    outer loop
      vertex 55.8265 56.8595 3
      vertex 54.2157 57.9516 25
      vertex 55.8265 56.8595 25
    endloop
  endfacet
  facet normal 0.561186 0.82769 0
    outer loop
      vertex 54.2157 57.9516 25
      vertex 55.8265 56.8595 3
      vertex 54.2157 57.9516 3
    endloop
  endfacet
  facet normal -0.907576 0.419888 0
    outer loop
      vertex 41.4711 52.8737 3
      vertex 42.2883 54.64 25
      vertex 42.2883 54.64 3
    endloop
  endfacet
  facet normal -0.907576 0.419888 0
    outer loop
      vertex 42.2883 54.64 25
      vertex 41.4711 52.8737 3
      vertex 41.4711 52.8737 25
    endloop
  endfacet
  facet normal -0.796092 0.605175 0
    outer loop
      vertex 42.2883 54.64 3
      vertex 43.466 56.1893 25
      vertex 43.466 56.1893 3
    endloop
  endfacet
  facet normal -0.796092 0.605175 0
    outer loop
      vertex 43.466 56.1893 25
      vertex 42.2883 54.64 3
      vertex 42.2883 54.64 25
    endloop
  endfacet
  facet normal -0.97662 0.214971 0
    outer loop
      vertex 41.0587 51 3
      vertex 41.4711 52.8737 25
      vertex 41.4711 52.8737 3
    endloop
  endfacet
  facet normal -0.97662 0.214971 0
    outer loop
      vertex 41.4711 52.8737 25
      vertex 41.0587 51 3
      vertex 41.0587 51 25
    endloop
  endfacet
  facet normal -0.46841 0.883511 0
    outer loop
      vertex 46.6688 58.3608 3
      vertex 44.9493 57.4492 25
      vertex 46.6688 58.3608 25
    endloop
  endfacet
  facet normal -0.46841 0.883511 0
    outer loop
      vertex 44.9493 57.4492 25
      vertex 46.6688 58.3608 3
      vertex 44.9493 57.4492 3
    endloop
  endfacet
  facet normal -0.97662 -0.214971 0
    outer loop
      vertex 41.4711 47.1263 3
      vertex 41.0587 49 25
      vertex 41.0587 49 3
    endloop
  endfacet
  facet normal -0.97662 -0.214971 0
    outer loop
      vertex 41.0587 49 25
      vertex 41.4711 47.1263 3
      vertex 41.4711 47.1263 25
    endloop
  endfacet
  facet normal 0.947653 -0.319302 0
    outer loop
      vertex 58.1682 46.221 25
      vertex 58.7896 48.0653 3
      vertex 58.7896 48.0653 25
    endloop
  endfacet
  facet normal 0.947653 -0.319302 0
    outer loop
      vertex 58.7896 48.0653 3
      vertex 58.1682 46.221 25
      vertex 58.1682 46.221 3
    endloop
  endfacet
  facet normal 0.370139 -0.928976 0
    outer loop
      vertex 52.4078 41.328 3
      vertex 54.2157 42.0484 25
      vertex 52.4078 41.328 25
    endloop
  endfacet
  facet normal 0.370139 -0.928976 0
    outer loop
      vertex 54.2157 42.0484 25
      vertex 52.4078 41.328 3
      vertex 54.2157 42.0484 3
    endloop
  endfacet
  facet normal 0.725996 -0.687699 0
    outer loop
      vertex 55.8265 43.1405 25
      vertex 57.1648 44.5534 3
      vertex 57.1648 44.5534 25
    endloop
  endfacet
  facet normal 0.725996 -0.687699 0
    outer loop
      vertex 57.1648 44.5534 3
      vertex 55.8265 43.1405 25
      vertex 55.8265 43.1405 3
    endloop
  endfacet
  facet normal 0.994138 -0.108118 0
    outer loop
      vertex 58.7896 48.0653 25
      vertex 58.8912 49 3
      vertex 58.8912 49 25
    endloop
  endfacet
  facet normal 0.994138 -0.108118 0
    outer loop
      vertex 58.8912 49 3
      vertex 58.7896 48.0653 25
      vertex 58.7896 48.0653 3
    endloop
  endfacet
  facet normal -0.647386 -0.762162 0
    outer loop
      vertex 43.466 43.8107 3
      vertex 44.9493 42.5508 25
      vertex 43.466 43.8107 25
    endloop
  endfacet
  facet normal -0.647386 -0.762162 -0
    outer loop
      vertex 44.9493 42.5508 25
      vertex 43.466 43.8107 3
      vertex 44.9493 42.5508 3
    endloop
  endfacet
  facet normal -0.796093 -0.605174 0
    outer loop
      vertex 43.466 43.8107 3
      vertex 42.2883 45.36 25
      vertex 42.2883 45.36 3
    endloop
  endfacet
  facet normal -0.796093 -0.605174 0
    outer loop
      vertex 42.2883 45.36 25
      vertex 43.466 43.8107 3
      vertex 43.466 43.8107 25
    endloop
  endfacet
  facet normal -0.907576 -0.419888 0
    outer loop
      vertex 42.2883 45.36 3
      vertex 41.4711 47.1263 25
      vertex 41.4711 47.1263 3
    endloop
  endfacet
  facet normal -0.907576 -0.419888 0
    outer loop
      vertex 41.4711 47.1263 25
      vertex 42.2883 45.36 3
      vertex 42.2883 45.36 25
    endloop
  endfacet
  facet normal 0.561186 -0.82769 0
    outer loop
      vertex 54.2157 42.0484 3
      vertex 55.8265 43.1405 25
      vertex 54.2157 42.0484 25
    endloop
  endfacet
  facet normal 0.561186 -0.82769 0
    outer loop
      vertex 55.8265 43.1405 25
      vertex 54.2157 42.0484 3
      vertex 55.8265 43.1405 3
    endloop
  endfacet
  facet normal 0.856857 -0.515554 0
    outer loop
      vertex 57.1648 44.5534 25
      vertex 58.1682 46.221 3
      vertex 58.1682 46.221 25
    endloop
  endfacet
  facet normal 0.856857 -0.515554 0
    outer loop
      vertex 58.1682 46.221 3
      vertex 57.1648 44.5534 25
      vertex 57.1648 44.5534 3
    endloop
  endfacet
  facet normal -0.267529 -0.96355 0
    outer loop
      vertex 46.6688 41.6392 3
      vertex 48.544 41.1186 25
      vertex 46.6688 41.6392 25
    endloop
  endfacet
  facet normal -0.267529 -0.96355 -0
    outer loop
      vertex 48.544 41.1186 25
      vertex 46.6688 41.6392 3
      vertex 48.544 41.1186 3
    endloop
  endfacet
  facet normal -0.468408 -0.883512 0
    outer loop
      vertex 44.9493 42.5508 3
      vertex 46.6688 41.6392 25
      vertex 44.9493 42.5508 25
    endloop
  endfacet
  facet normal -0.468408 -0.883512 -0
    outer loop
      vertex 46.6688 41.6392 25
      vertex 44.9493 42.5508 3
      vertex 46.6688 41.6392 3
    endloop
  endfacet
  facet normal -0.0541388 -0.998533 0
    outer loop
      vertex 48.544 41.1186 3
      vertex 50.4873 41.0132 25
      vertex 48.544 41.1186 25
    endloop
  endfacet
  facet normal -0.0541388 -0.998533 -0
    outer loop
      vertex 50.4873 41.0132 25
      vertex 48.544 41.1186 3
      vertex 50.4873 41.0132 3
    endloop
  endfacet
  facet normal -0.992115 -0.125333 0
    outer loop
      vertex 57.7 50 21
      vertex 57.4581 51.9149 25
      vertex 57.4581 51.9149 21
    endloop
  endfacet
  facet normal -0.992115 -0.125333 0
    outer loop
      vertex 57.4581 51.9149 25
      vertex 57.7 50 21
      vertex 57.7 50 25
    endloop
  endfacet
  facet normal 1 -0 0
    outer loop
      vertex 42.3607 49.0349 25
      vertex 42.3607 50.9651 21
      vertex 42.3607 50.9651 25
    endloop
  endfacet
  facet normal 1 0 0
    outer loop
      vertex 42.3607 50.9651 21
      vertex 42.3607 49.0349 25
      vertex 42.3607 49.0349 21
    endloop
  endfacet
  facet normal 0.062792 -0.998027 0
    outer loop
      vertex 48.5572 57.5636 21
      vertex 50.4835 57.6848 25
      vertex 48.5572 57.5636 25
    endloop
  endfacet
  facet normal 0.062792 -0.998027 0
    outer loop
      vertex 50.4835 57.6848 25
      vertex 48.5572 57.5636 21
      vertex 50.4835 57.6848 21
    endloop
  endfacet
  facet normal -0.187381 0.982287 0
    outer loop
      vertex 52.3794 42.6769 21
      vertex 50.4835 42.3152 25
      vertex 52.3794 42.6769 25
    endloop
  endfacet
  facet normal -0.187381 0.982287 0
    outer loop
      vertex 50.4835 42.3152 25
      vertex 52.3794 42.6769 21
      vertex 50.4835 42.3152 21
    endloop
  endfacet
  facet normal -0.637424 -0.770514 0
    outer loop
      vertex 54.1259 56.5013 21
      vertex 55.6131 55.271 25
      vertex 54.1259 56.5013 25
    endloop
  endfacet
  facet normal -0.637424 -0.770514 -0
    outer loop
      vertex 55.6131 55.271 25
      vertex 54.1259 56.5013 21
      vertex 55.6131 55.271 21
    endloop
  endfacet
  facet normal -0.42578 -0.904827 0
    outer loop
      vertex 52.3794 57.3231 21
      vertex 54.1259 56.5013 25
      vertex 52.3794 57.3231 25
    endloop
  endfacet
  facet normal -0.42578 -0.904827 -0
    outer loop
      vertex 54.1259 56.5013 25
      vertex 52.3794 57.3231 21
      vertex 54.1259 56.5013 21
    endloop
  endfacet
  facet normal 0.728969 -0.684547 0
    outer loop
      vertex 43.7706 54.5259 25
      vertex 45.0918 55.933 21
      vertex 45.0918 55.933 25
    endloop
  endfacet
  facet normal 0.728969 -0.684547 0
    outer loop
      vertex 45.0918 55.933 21
      vertex 43.7706 54.5259 25
      vertex 43.7706 54.5259 21
    endloop
  endfacet
  facet normal 0.876307 -0.481753 0
    outer loop
      vertex 42.8407 52.8346 25
      vertex 43.7706 54.5259 21
      vertex 43.7706 54.5259 25
    endloop
  endfacet
  facet normal 0.876307 -0.481753 0
    outer loop
      vertex 43.7706 54.5259 21
      vertex 42.8407 52.8346 25
      vertex 42.8407 52.8346 21
    endloop
  endfacet
  facet normal 0.535826 -0.844329 0
    outer loop
      vertex 45.0918 55.933 21
      vertex 46.7215 56.9672 25
      vertex 45.0918 55.933 25
    endloop
  endfacet
  facet normal 0.535826 -0.844329 0
    outer loop
      vertex 46.7215 56.9672 25
      vertex 45.0918 55.933 21
      vertex 46.7215 56.9672 21
    endloop
  endfacet
  facet normal 0 0 1
    outer loop
      vertex 57.4581 51.9149 21
      vertex 57.4581 48.0851 21
      vertex 57.7 50 21
    endloop
  endfacet
  facet normal 0 0 1
    outer loop
      vertex 56.7476 53.7095 21
      vertex 57.4581 48.0851 21
      vertex 57.4581 51.9149 21
    endloop
  endfacet
  facet normal 0 0 1
    outer loop
      vertex 56.7476 53.7095 21
      vertex 56.7476 46.2905 21
      vertex 57.4581 48.0851 21
    endloop
  endfacet
  facet normal 0 0 1
    outer loop
      vertex 55.6131 55.271 21
      vertex 56.7476 46.2905 21
      vertex 56.7476 53.7095 21
    endloop
  endfacet
  facet normal 0 0 1
    outer loop
      vertex 55.6131 55.271 21
      vertex 55.6131 44.729 21
      vertex 56.7476 46.2905 21
    endloop
  endfacet
  facet normal 0 0 1
    outer loop
      vertex 54.1259 56.5013 21
      vertex 55.6131 44.729 21
      vertex 55.6131 55.271 21
    endloop
  endfacet
  facet normal 0 0 1
    outer loop
      vertex 54.1259 56.5013 21
      vertex 54.1259 43.4987 21
      vertex 55.6131 44.729 21
    endloop
  endfacet
  facet normal 0 0 1
    outer loop
      vertex 52.3794 57.3231 21
      vertex 54.1259 43.4987 21
      vertex 54.1259 56.5013 21
    endloop
  endfacet
  facet normal 0 0 1
    outer loop
      vertex 52.3794 57.3231 21
      vertex 52.3794 42.6769 21
      vertex 54.1259 43.4987 21
    endloop
  endfacet
  facet normal 0 0 1
    outer loop
      vertex 50.4835 57.6848 21
      vertex 52.3794 42.6769 21
      vertex 52.3794 57.3231 21
    endloop
  endfacet
  facet normal 0 0 1
    outer loop
      vertex 50.4835 57.6848 21
      vertex 50.4835 42.3152 21
      vertex 52.3794 42.6769 21
    endloop
  endfacet
  facet normal -0 0 1
    outer loop
      vertex 48.5572 57.5636 21
      vertex 50.4835 42.3152 21
      vertex 50.4835 57.6848 21
    endloop
  endfacet
  facet normal 0 0 1
    outer loop
      vertex 48.5572 57.5636 21
      vertex 48.5572 42.4364 21
      vertex 50.4835 42.3152 21
    endloop
  endfacet
  facet normal -0 0 1
    outer loop
      vertex 46.7215 56.9672 21
      vertex 48.5572 42.4364 21
      vertex 48.5572 57.5636 21
    endloop
  endfacet
  facet normal 0 0 1
    outer loop
      vertex 46.7215 56.9672 21
      vertex 46.7215 43.0328 21
      vertex 48.5572 42.4364 21
    endloop
  endfacet
  facet normal -0 0 1
    outer loop
      vertex 45.0918 55.933 21
      vertex 46.7215 43.0328 21
      vertex 46.7215 56.9672 21
    endloop
  endfacet
  facet normal 0 0 1
    outer loop
      vertex 45.0918 55.933 21
      vertex 45.0918 44.067 21
      vertex 46.7215 43.0328 21
    endloop
  endfacet
  facet normal -0 0 1
    outer loop
      vertex 43.7706 54.5259 21
      vertex 45.0918 44.067 21
      vertex 45.0918 55.933 21
    endloop
  endfacet
  facet normal 0 0 1
    outer loop
      vertex 43.7706 54.5259 21
      vertex 43.7706 45.4741 21
      vertex 45.0918 44.067 21
    endloop
  endfacet
  facet normal -0 0 1
    outer loop
      vertex 42.8407 52.8346 21
      vertex 43.7706 45.4741 21
      vertex 43.7706 54.5259 21
    endloop
  endfacet
  facet normal 0 0 1
    outer loop
      vertex 42.8407 52.8346 21
      vertex 42.8407 47.1654 21
      vertex 43.7706 45.4741 21
    endloop
  endfacet
  facet normal -0 0 1
    outer loop
      vertex 42.3607 50.9651 21
      vertex 42.8407 47.1654 21
      vertex 42.8407 52.8346 21
    endloop
  endfacet
  facet normal 0 0 1
    outer loop
      vertex 42.8407 47.1654 21
      vertex 42.3607 50.9651 21
      vertex 42.3607 49.0349 21
    endloop
  endfacet
  facet normal -0.929776 0.368127 0
    outer loop
      vertex 56.7476 46.2905 21
      vertex 57.4581 48.0851 25
      vertex 57.4581 48.0851 21
    endloop
  endfacet
  facet normal -0.929776 0.368127 0
    outer loop
      vertex 57.4581 48.0851 25
      vertex 56.7476 46.2905 21
      vertex 56.7476 46.2905 25
    endloop
  endfacet
  facet normal -0.809018 -0.587784 0
    outer loop
      vertex 56.7476 53.7095 21
      vertex 55.6131 55.271 25
      vertex 55.6131 55.271 21
    endloop
  endfacet
  facet normal -0.809018 -0.587784 0
    outer loop
      vertex 55.6131 55.271 25
      vertex 56.7476 53.7095 21
      vertex 56.7476 53.7095 25
    endloop
  endfacet
  facet normal -0.929776 -0.368126 0
    outer loop
      vertex 57.4581 51.9149 21
      vertex 56.7476 53.7095 25
      vertex 56.7476 53.7095 21
    endloop
  endfacet
  facet normal -0.929776 -0.368126 0
    outer loop
      vertex 56.7476 53.7095 25
      vertex 57.4581 51.9149 21
      vertex 57.4581 51.9149 25
    endloop
  endfacet
  facet normal -0.187381 -0.982287 0
    outer loop
      vertex 50.4835 57.6848 21
      vertex 52.3794 57.3231 25
      vertex 50.4835 57.6848 25
    endloop
  endfacet
  facet normal -0.187381 -0.982287 -0
    outer loop
      vertex 52.3794 57.3231 25
      vertex 50.4835 57.6848 21
      vertex 52.3794 57.3231 21
    endloop
  endfacet
  facet normal 0.968583 -0.24869 0
    outer loop
      vertex 42.3607 50.9651 25
      vertex 42.8407 52.8346 21
      vertex 42.8407 52.8346 25
    endloop
  endfacet
  facet normal 0.968583 -0.24869 0
    outer loop
      vertex 42.8407 52.8346 21
      vertex 42.3607 50.9651 25
      vertex 42.3607 50.9651 21
    endloop
  endfacet
  facet normal 0.309017 -0.951056 0
    outer loop
      vertex 46.7215 56.9672 21
      vertex 48.5572 57.5636 25
      vertex 46.7215 56.9672 25
    endloop
  endfacet
  facet normal 0.309017 -0.951056 0
    outer loop
      vertex 48.5572 57.5636 25
      vertex 46.7215 56.9672 21
      vertex 48.5572 57.5636 21
    endloop
  endfacet
  facet normal -0.992115 0.125333 0
    outer loop
      vertex 57.4581 48.0851 21
      vertex 57.7 50 25
      vertex 57.7 50 21
    endloop
  endfacet
  facet normal -0.992115 0.125333 0
    outer loop
      vertex 57.7 50 25
      vertex 57.4581 48.0851 21
      vertex 57.4581 48.0851 25
    endloop
  endfacet
  facet normal -0.809018 0.587784 0
    outer loop
      vertex 55.6131 44.729 21
      vertex 56.7476 46.2905 25
      vertex 56.7476 46.2905 21
    endloop
  endfacet
  facet normal -0.809018 0.587784 0
    outer loop
      vertex 56.7476 46.2905 25
      vertex 55.6131 44.729 21
      vertex 55.6131 44.729 25
    endloop
  endfacet
  facet normal 0.535827 0.844328 -0
    outer loop
      vertex 46.7215 43.0328 21
      vertex 45.0918 44.067 25
      vertex 46.7215 43.0328 25
    endloop
  endfacet
  facet normal 0.535827 0.844328 0
    outer loop
      vertex 45.0918 44.067 25
      vertex 46.7215 43.0328 21
      vertex 45.0918 44.067 21
    endloop
  endfacet
  facet normal 0.876307 0.481754 0
    outer loop
      vertex 43.7706 45.4741 25
      vertex 42.8407 47.1654 21
      vertex 42.8407 47.1654 25
    endloop
  endfacet
  facet normal 0.876307 0.481754 0
    outer loop
      vertex 42.8407 47.1654 21
      vertex 43.7706 45.4741 25
      vertex 43.7706 45.4741 21
    endloop
  endfacet
  facet normal 0.968583 0.248689 0
    outer loop
      vertex 42.8407 47.1654 25
      vertex 42.3607 49.0349 21
      vertex 42.3607 49.0349 25
    endloop
  endfacet
  facet normal 0.968583 0.248689 0
    outer loop
      vertex 42.3607 49.0349 21
      vertex 42.8407 47.1654 25
      vertex 42.8407 47.1654 21
    endloop
  endfacet
  facet normal 0.728969 0.684547 0
    outer loop
      vertex 45.0918 44.067 25
      vertex 43.7706 45.4741 21
      vertex 43.7706 45.4741 25
    endloop
  endfacet
  facet normal 0.728969 0.684547 0
    outer loop
      vertex 43.7706 45.4741 21
      vertex 45.0918 44.067 25
      vertex 45.0918 44.067 21
    endloop
  endfacet
  facet normal 0.06279 0.998027 -0
    outer loop
      vertex 50.4835 42.3152 21
      vertex 48.5572 42.4364 25
      vertex 50.4835 42.3152 25
    endloop
  endfacet
  facet normal 0.06279 0.998027 0
    outer loop
      vertex 48.5572 42.4364 25
      vertex 50.4835 42.3152 21
      vertex 48.5572 42.4364 21
    endloop
  endfacet
  facet normal -0.637425 0.770513 0
    outer loop
      vertex 55.6131 44.729 21
      vertex 54.1259 43.4987 25
      vertex 55.6131 44.729 25
    endloop
  endfacet
  facet normal -0.637425 0.770513 0
    outer loop
      vertex 54.1259 43.4987 25
      vertex 55.6131 44.729 21
      vertex 54.1259 43.4987 21
    endloop
  endfacet
  facet normal -0.425779 0.904827 0
    outer loop
      vertex 54.1259 43.4987 21
      vertex 52.3794 42.6769 25
      vertex 54.1259 43.4987 25
    endloop
  endfacet
  facet normal -0.425779 0.904827 0
    outer loop
      vertex 52.3794 42.6769 25
      vertex 54.1259 43.4987 21
      vertex 52.3794 42.6769 21
    endloop
  endfacet
  facet normal 0.309017 0.951056 -0
    outer loop
      vertex 48.5572 42.4364 21
      vertex 46.7215 43.0328 25
      vertex 48.5572 42.4364 25
    endloop
  endfacet
  facet normal 0.309017 0.951056 0
    outer loop
      vertex 46.7215 43.0328 25
      vertex 48.5572 42.4364 21
      vertex 46.7215 43.0328 21
    endloop
  endfacet
endsolid OpenSCAD_Model
