solid OpenSCAD_Model
  facet normal 0.866025 0.5 0
    outer loop
      vertex 32 0 5
      vertex 21.0303 19 0
      vertex 21.0303 19 5
    endloop
  endfacet
  facet normal 0.866025 0.5 0
    outer loop
      vertex 21.0303 19 0
      vertex 32 0 5
      vertex 32 0 0
    endloop
  endfacet
  facet normal -0.866025 0.5 0
    outer loop
      vertex -32 0 0
      vertex -21.0303 19 5
      vertex -21.0303 19 0
    endloop
  endfacet
  facet normal -0.866025 0.5 0
    outer loop
      vertex -21.0303 19 5
      vertex -32 0 0
      vertex -32 0 5
    endloop
  endfacet
  facet normal -0.866025 -0.5 0
    outer loop
      vertex -21.6077 -18 0
      vertex -32 0 5
      vertex -32 0 0
    endloop
  endfacet
  facet normal -0.866025 -0.5 0
    outer loop
      vertex -32 0 5
      vertex -21.6077 -18 0
      vertex -21.6077 -18 5
    endloop
  endfacet
  facet normal 0 0 1
    outer loop
      vertex 21.0303 19 5
      vertex 31 0 5
      vertex 32 0 5
    endloop
  endfacet
  facet normal 0 0 1
    outer loop
      vertex 31 0 5
      vertex 21.0303 19 5
      vertex 20.0303 19 5
    endloop
  endfacet
  facet normal -0 0 1
    outer loop
      vertex 31 0 5
      vertex 21.6077 -18 5
      vertex 32 0 5
    endloop
  endfacet
  facet normal 0 -0 1
    outer loop
      vertex 21.6077 -18 5
      vertex 31 0 5
      vertex 20.6077 -18 5
    endloop
  endfacet
  facet normal -0 0 1
    outer loop
      vertex -21.0303 19 5
      vertex -31 0 5
      vertex -20.0303 19 5
    endloop
  endfacet
  facet normal 0 -0 1
    outer loop
      vertex -31 0 5
      vertex -21.0303 19 5
      vertex -32 0 5
    endloop
  endfacet
  facet normal 0 0 1
    outer loop
      vertex -31 0 5
      vertex -21.6077 -18 5
      vertex -20.6077 -18 5
    endloop
  endfacet
  facet normal 0 0 1
    outer loop
      vertex -21.6077 -18 5
      vertex -31 0 5
      vertex -32 0 5
    endloop
  endfacet
  facet normal 0 0 -1
    outer loop
      vertex 21.6077 -18 0
      vertex 21.0303 19 0
      vertex 32 0 0
    endloop
  endfacet
  facet normal 0 0 -1
    outer loop
      vertex 21.6077 -18 0
      vertex -21.0303 19 0
      vertex 21.0303 19 0
    endloop
  endfacet
  facet normal 0 0 -1
    outer loop
      vertex -21.6077 -18 0
      vertex -21.0303 19 0
      vertex 21.6077 -18 0
    endloop
  endfacet
  facet normal 0 0 -1
    outer loop
      vertex -21.0303 19 0
      vertex -21.6077 -18 0
      vertex -32 0 0
    endloop
  endfacet
  facet normal 0.866025 -0.5 0
    outer loop
      vertex 21.6077 -18 5
      vertex 32 0 0
      vertex 32 0 5
    endloop
  endfacet
  facet normal 0.866025 -0.5 0
    outer loop
      vertex 32 0 0
      vertex 21.6077 -18 5
      vertex 21.6077 -18 0
    endloop
  endfacet
  facet normal -0.866025 -0.5 0
    outer loop
      vertex 31 0 2
      vertex 20.0303 19 5
      vertex 20.0303 19 2
    endloop
  endfacet
  facet normal -0.866025 -0.5 0
    outer loop
      vertex 20.0303 19 5
      vertex 31 0 2
      vertex 31 0 5
    endloop
  endfacet
  facet normal 0.866025 -0.5 0
    outer loop
      vertex -31 0 5
      vertex -20.0303 19 2
      vertex -20.0303 19 5
    endloop
  endfacet
  facet normal 0.866025 -0.5 0
    outer loop
      vertex -20.0303 19 2
      vertex -31 0 5
      vertex -31 0 2
    endloop
  endfacet
  facet normal 0 0 1
    outer loop
      vertex 31 0 2
      vertex 28.111 1.83031 2
      vertex 28.5 0 2
    endloop
  endfacet
  facet normal 0 0 1
    outer loop
      vertex 31 0 2
      vertex 27.0111 3.34415 2
      vertex 28.111 1.83031 2
    endloop
  endfacet
  facet normal 0 0 1
    outer loop
      vertex 20.0303 19 2
      vertex 27.0111 3.34415 2
      vertex 31 0 2
    endloop
  endfacet
  facet normal 0 0 1
    outer loop
      vertex 20.0303 19 2
      vertex 25.3906 4.27975 2
      vertex 27.0111 3.34415 2
    endloop
  endfacet
  facet normal 0 0 1
    outer loop
      vertex 20.0303 19 2
      vertex 23.5296 4.47535 2
      vertex 25.3906 4.27975 2
    endloop
  endfacet
  facet normal 0 0 1
    outer loop
      vertex 20.0303 19 2
      vertex 21.75 3.89711 2
      vertex 23.5296 4.47535 2
    endloop
  endfacet
  facet normal 0 0 1
    outer loop
      vertex 20.0303 19 2
      vertex 20.3594 2.64503 2
      vertex 21.75 3.89711 2
    endloop
  endfacet
  facet normal 0 0 1
    outer loop
      vertex 20.0303 19 2
      vertex 19.5983 0.935602 2
      vertex 20.3594 2.64503 2
    endloop
  endfacet
  facet normal 0 0 1
    outer loop
      vertex 19.5983 0.935602 2
      vertex -19.5 0 2
      vertex 19.5983 -0.935602 2
    endloop
  endfacet
  facet normal -0 0 1
    outer loop
      vertex -19.889 1.83031 2
      vertex 19.5983 0.935602 2
      vertex 20.0303 19 2
    endloop
  endfacet
  facet normal 0 0 1
    outer loop
      vertex 19.5983 0.935602 2
      vertex -19.889 1.83031 2
      vertex -19.5 0 2
    endloop
  endfacet
  facet normal -0 0 1
    outer loop
      vertex -20.0303 19 2
      vertex -19.889 1.83031 2
      vertex 20.0303 19 2
    endloop
  endfacet
  facet normal 0 0 1
    outer loop
      vertex -20.0303 19 2
      vertex -20.9889 3.34415 2
      vertex -19.889 1.83031 2
    endloop
  endfacet
  facet normal 0 0 1
    outer loop
      vertex -20.0303 19 2
      vertex -22.6094 4.27975 2
      vertex -20.9889 3.34415 2
    endloop
  endfacet
  facet normal 0 0 1
    outer loop
      vertex -20.0303 19 2
      vertex -24.4704 4.47535 2
      vertex -22.6094 4.27975 2
    endloop
  endfacet
  facet normal 0 0 1
    outer loop
      vertex -20.0303 19 2
      vertex -26.25 3.89711 2
      vertex -24.4704 4.47535 2
    endloop
  endfacet
  facet normal 0 0 1
    outer loop
      vertex -20.0303 19 2
      vertex -27.6406 2.64503 2
      vertex -26.25 3.89711 2
    endloop
  endfacet
  facet normal 0 0 1
    outer loop
      vertex -28.4017 0.935602 2
      vertex -31 0 2
      vertex -28.4017 -0.935602 2
    endloop
  endfacet
  facet normal 0 0 1
    outer loop
      vertex -27.6406 2.64503 2
      vertex -31 0 2
      vertex -28.4017 0.935602 2
    endloop
  endfacet
  facet normal 0 0 1
    outer loop
      vertex -31 0 2
      vertex -27.6406 2.64503 2
      vertex -20.0303 19 2
    endloop
  endfacet
  facet normal 0 0 1
    outer loop
      vertex 28.111 -1.83031 2
      vertex 31 0 2
      vertex 28.5 0 2
    endloop
  endfacet
  facet normal 0 0 1
    outer loop
      vertex 27.0111 -3.34415 2
      vertex 31 0 2
      vertex 28.111 -1.83031 2
    endloop
  endfacet
  facet normal -0 0 1
    outer loop
      vertex 27.0111 -3.34415 2
      vertex 20.6077 -18 2
      vertex 31 0 2
    endloop
  endfacet
  facet normal -0 0 1
    outer loop
      vertex 25.3906 -4.27975 2
      vertex 20.6077 -18 2
      vertex 27.0111 -3.34415 2
    endloop
  endfacet
  facet normal -0 0 1
    outer loop
      vertex 23.5296 -4.47535 2
      vertex 20.6077 -18 2
      vertex 25.3906 -4.27975 2
    endloop
  endfacet
  facet normal 0 0 1
    outer loop
      vertex 21.75 -3.89711 2
      vertex 20.6077 -18 2
      vertex 23.5296 -4.47535 2
    endloop
  endfacet
  facet normal 0 0 1
    outer loop
      vertex 20.3594 -2.64503 2
      vertex 20.6077 -18 2
      vertex 21.75 -3.89711 2
    endloop
  endfacet
  facet normal 0 0 1
    outer loop
      vertex 19.5983 -0.935602 2
      vertex 20.6077 -18 2
      vertex 20.3594 -2.64503 2
    endloop
  endfacet
  facet normal 0 0 1
    outer loop
      vertex -19.889 -1.83031 2
      vertex 19.5983 -0.935602 2
      vertex -19.5 0 2
    endloop
  endfacet
  facet normal 0 0 1
    outer loop
      vertex 19.5983 -0.935602 2
      vertex -19.889 -1.83031 2
      vertex 20.6077 -18 2
    endloop
  endfacet
  facet normal 0 0 1
    outer loop
      vertex -19.889 -1.83031 2
      vertex -20.6077 -18 2
      vertex 20.6077 -18 2
    endloop
  endfacet
  facet normal -0 0 1
    outer loop
      vertex -20.9889 -3.34415 2
      vertex -20.6077 -18 2
      vertex -19.889 -1.83031 2
    endloop
  endfacet
  facet normal -0 0 1
    outer loop
      vertex -22.6094 -4.27975 2
      vertex -20.6077 -18 2
      vertex -20.9889 -3.34415 2
    endloop
  endfacet
  facet normal -0 0 1
    outer loop
      vertex -24.4704 -4.47535 2
      vertex -20.6077 -18 2
      vertex -22.6094 -4.27975 2
    endloop
  endfacet
  facet normal 0 0 1
    outer loop
      vertex -26.25 -3.89711 2
      vertex -20.6077 -18 2
      vertex -24.4704 -4.47535 2
    endloop
  endfacet
  facet normal 0 0 1
    outer loop
      vertex -27.6406 -2.64503 2
      vertex -20.6077 -18 2
      vertex -26.25 -3.89711 2
    endloop
  endfacet
  facet normal 0 0 1
    outer loop
      vertex -27.6406 -2.64503 2
      vertex -31 0 2
      vertex -20.6077 -18 2
    endloop
  endfacet
  facet normal 0 0 1
    outer loop
      vertex -31 0 2
      vertex -27.6406 -2.64503 2
      vertex -28.4017 -0.935602 2
    endloop
  endfacet
  facet normal 0.866025 0.5 0
    outer loop
      vertex -20.6077 -18 5
      vertex -31 0 2
      vertex -31 0 5
    endloop
  endfacet
  facet normal 0.866025 0.5 0
    outer loop
      vertex -31 0 2
      vertex -20.6077 -18 5
      vertex -20.6077 -18 2
    endloop
  endfacet
  facet normal -0.866025 0.5 0
    outer loop
      vertex 20.6077 -18 2
      vertex 31 0 5
      vertex 31 0 2
    endloop
  endfacet
  facet normal -0.866025 0.5 0
    outer loop
      vertex 31 0 5
      vertex 20.6077 -18 2
      vertex 20.6077 -18 5
    endloop
  endfacet
  facet normal -0.978148 -0.207912 0
    outer loop
      vertex 28.5 0 1.1
      vertex 28.111 1.83031 2
      vertex 28.111 1.83031 1.1
    endloop
  endfacet
  facet normal -0.978148 -0.207912 0
    outer loop
      vertex 28.111 1.83031 2
      vertex 28.5 0 1.1
      vertex 28.5 0 2
    endloop
  endfacet
  facet normal 1 -0 0
    outer loop
      vertex 19.5983 -0.935602 2
      vertex 19.5983 0.935602 1.1
      vertex 19.5983 0.935602 2
    endloop
  endfacet
  facet normal 1 0 0
    outer loop
      vertex 19.5983 0.935602 1.1
      vertex 19.5983 -0.935602 2
      vertex 19.5983 -0.935602 1.1
    endloop
  endfacet
  facet normal -0.104529 0.994522 0
    outer loop
      vertex 25.3906 -4.27975 1.1
      vertex 23.5296 -4.47535 2
      vertex 25.3906 -4.27975 2
    endloop
  endfacet
  facet normal -0.104529 0.994522 0
    outer loop
      vertex 23.5296 -4.47535 2
      vertex 25.3906 -4.27975 1.1
      vertex 23.5296 -4.47535 1.1
    endloop
  endfacet
  facet normal -0.104529 -0.994522 0
    outer loop
      vertex 23.5296 4.47535 1.1
      vertex 25.3906 4.27975 2
      vertex 23.5296 4.47535 2
    endloop
  endfacet
  facet normal -0.104529 -0.994522 -0
    outer loop
      vertex 25.3906 4.27975 2
      vertex 23.5296 4.47535 1.1
      vertex 25.3906 4.27975 1.1
    endloop
  endfacet
  facet normal -0.809017 -0.587785 0
    outer loop
      vertex 28.111 1.83031 1.1
      vertex 27.0111 3.34415 2
      vertex 27.0111 3.34415 1.1
    endloop
  endfacet
  facet normal -0.809017 -0.587785 0
    outer loop
      vertex 27.0111 3.34415 2
      vertex 28.111 1.83031 1.1
      vertex 28.111 1.83031 2
    endloop
  endfacet
  facet normal -0.5 -0.866026 0
    outer loop
      vertex 25.3906 4.27975 1.1
      vertex 27.0111 3.34415 2
      vertex 25.3906 4.27975 2
    endloop
  endfacet
  facet normal -0.5 -0.866026 -0
    outer loop
      vertex 27.0111 3.34415 2
      vertex 25.3906 4.27975 1.1
      vertex 27.0111 3.34415 1.1
    endloop
  endfacet
  facet normal 0.66913 -0.743145 0
    outer loop
      vertex 20.3594 2.64503 1.1
      vertex 21.75 3.89711 2
      vertex 20.3594 2.64503 2
    endloop
  endfacet
  facet normal 0.66913 -0.743145 0
    outer loop
      vertex 21.75 3.89711 2
      vertex 20.3594 2.64503 1.1
      vertex 21.75 3.89711 1.1
    endloop
  endfacet
  facet normal 0.913545 -0.406737 0
    outer loop
      vertex 19.5983 0.935602 2
      vertex 20.3594 2.64503 1.1
      vertex 20.3594 2.64503 2
    endloop
  endfacet
  facet normal 0.913545 -0.406737 0
    outer loop
      vertex 20.3594 2.64503 1.1
      vertex 19.5983 0.935602 2
      vertex 19.5983 0.935602 1.1
    endloop
  endfacet
  facet normal 0.309017 -0.951056 0
    outer loop
      vertex 21.75 3.89711 1.1
      vertex 23.5296 4.47535 2
      vertex 21.75 3.89711 2
    endloop
  endfacet
  facet normal 0.309017 -0.951056 0
    outer loop
      vertex 23.5296 4.47535 2
      vertex 21.75 3.89711 1.1
      vertex 23.5296 4.47535 1.1
    endloop
  endfacet
  facet normal -0.978148 0.207912 0
    outer loop
      vertex 28.111 -1.83031 1.1
      vertex 28.5 0 2
      vertex 28.5 0 1.1
    endloop
  endfacet
  facet normal -0.978148 0.207912 0
    outer loop
      vertex 28.5 0 2
      vertex 28.111 -1.83031 1.1
      vertex 28.111 -1.83031 2
    endloop
  endfacet
  facet normal 0.913545 0.406737 0
    outer loop
      vertex 20.3594 -2.64503 2
      vertex 19.5983 -0.935602 1.1
      vertex 19.5983 -0.935602 2
    endloop
  endfacet
  facet normal 0.913545 0.406737 0
    outer loop
      vertex 19.5983 -0.935602 1.1
      vertex 20.3594 -2.64503 2
      vertex 20.3594 -2.64503 1.1
    endloop
  endfacet
  facet normal 0 0 1
    outer loop
      vertex 28.111 1.83031 1.1
      vertex 28.111 -1.83031 1.1
      vertex 28.5 0 1.1
    endloop
  endfacet
  facet normal 0 0 1
    outer loop
      vertex 27.0111 3.34415 1.1
      vertex 28.111 -1.83031 1.1
      vertex 28.111 1.83031 1.1
    endloop
  endfacet
  facet normal 0 0 1
    outer loop
      vertex 27.0111 3.34415 1.1
      vertex 27.0111 -3.34415 1.1
      vertex 28.111 -1.83031 1.1
    endloop
  endfacet
  facet normal 0 0 1
    outer loop
      vertex 25.3906 4.27975 1.1
      vertex 27.0111 -3.34415 1.1
      vertex 27.0111 3.34415 1.1
    endloop
  endfacet
  facet normal 0 0 1
    outer loop
      vertex 25.3906 4.27975 1.1
      vertex 25.3906 -4.27975 1.1
      vertex 27.0111 -3.34415 1.1
    endloop
  endfacet
  facet normal 0 0 1
    outer loop
      vertex 23.5296 4.47535 1.1
      vertex 25.3906 -4.27975 1.1
      vertex 25.3906 4.27975 1.1
    endloop
  endfacet
  facet normal 0 0 1
    outer loop
      vertex 23.5296 4.47535 1.1
      vertex 23.5296 -4.47535 1.1
      vertex 25.3906 -4.27975 1.1
    endloop
  endfacet
  facet normal -0 0 1
    outer loop
      vertex 21.75 3.89711 1.1
      vertex 23.5296 -4.47535 1.1
      vertex 23.5296 4.47535 1.1
    endloop
  endfacet
  facet normal 0 0 1
    outer loop
      vertex 21.75 3.89711 1.1
      vertex 21.75 -3.89711 1.1
      vertex 23.5296 -4.47535 1.1
    endloop
  endfacet
  facet normal -0 0 1
    outer loop
      vertex 20.3594 2.64503 1.1
      vertex 21.75 -3.89711 1.1
      vertex 21.75 3.89711 1.1
    endloop
  endfacet
  facet normal 0 0 1
    outer loop
      vertex 20.3594 2.64503 1.1
      vertex 20.3594 -2.64503 1.1
      vertex 21.75 -3.89711 1.1
    endloop
  endfacet
  facet normal -0 0 1
    outer loop
      vertex 19.5983 0.935602 1.1
      vertex 20.3594 -2.64503 1.1
      vertex 20.3594 2.64503 1.1
    endloop
  endfacet
  facet normal 0 0 1
    outer loop
      vertex 20.3594 -2.64503 1.1
      vertex 19.5983 0.935602 1.1
      vertex 19.5983 -0.935602 1.1
    endloop
  endfacet
  facet normal -0.5 0.866026 0
    outer loop
      vertex 27.0111 -3.34415 1.1
      vertex 25.3906 -4.27975 2
      vertex 27.0111 -3.34415 2
    endloop
  endfacet
  facet normal -0.5 0.866026 0
    outer loop
      vertex 25.3906 -4.27975 2
      vertex 27.0111 -3.34415 1.1
      vertex 25.3906 -4.27975 1.1
    endloop
  endfacet
  facet normal 0.309017 0.951056 -0
    outer loop
      vertex 23.5296 -4.47535 1.1
      vertex 21.75 -3.89711 2
      vertex 23.5296 -4.47535 2
    endloop
  endfacet
  facet normal 0.309017 0.951056 0
    outer loop
      vertex 21.75 -3.89711 2
      vertex 23.5296 -4.47535 1.1
      vertex 21.75 -3.89711 1.1
    endloop
  endfacet
  facet normal 0.66913 0.743145 -0
    outer loop
      vertex 21.75 -3.89711 1.1
      vertex 20.3594 -2.64503 2
      vertex 21.75 -3.89711 2
    endloop
  endfacet
  facet normal 0.66913 0.743145 0
    outer loop
      vertex 20.3594 -2.64503 2
      vertex 21.75 -3.89711 1.1
      vertex 20.3594 -2.64503 1.1
    endloop
  endfacet
  facet normal -0.809017 0.587785 0
    outer loop
      vertex 27.0111 -3.34415 1.1
      vertex 28.111 -1.83031 2
      vertex 28.111 -1.83031 1.1
    endloop
  endfacet
  facet normal -0.809017 0.587785 0
    outer loop
      vertex 28.111 -1.83031 2
      vertex 27.0111 -3.34415 1.1
      vertex 27.0111 -3.34415 2
    endloop
  endfacet
  facet normal -0.978148 -0.207912 0
    outer loop
      vertex -19.5 0 1.1
      vertex -19.889 1.83031 2
      vertex -19.889 1.83031 1.1
    endloop
  endfacet
  facet normal -0.978148 -0.207912 0
    outer loop
      vertex -19.889 1.83031 2
      vertex -19.5 0 1.1
      vertex -19.5 0 2
    endloop
  endfacet
  facet normal 1 -0 0
    outer loop
      vertex -28.4017 -0.935602 2
      vertex -28.4017 0.935602 1.1
      vertex -28.4017 0.935602 2
    endloop
  endfacet
  facet normal 1 0 0
    outer loop
      vertex -28.4017 0.935602 1.1
      vertex -28.4017 -0.935602 2
      vertex -28.4017 -0.935602 1.1
    endloop
  endfacet
  facet normal -0.104529 -0.994522 0
    outer loop
      vertex -24.4704 4.47535 1.1
      vertex -22.6094 4.27975 2
      vertex -24.4704 4.47535 2
    endloop
  endfacet
  facet normal -0.104529 -0.994522 -0
    outer loop
      vertex -22.6094 4.27975 2
      vertex -24.4704 4.47535 1.1
      vertex -22.6094 4.27975 1.1
    endloop
  endfacet
  facet normal -0.809017 -0.587785 0
    outer loop
      vertex -19.889 1.83031 1.1
      vertex -20.9889 3.34415 2
      vertex -20.9889 3.34415 1.1
    endloop
  endfacet
  facet normal -0.809017 -0.587785 0
    outer loop
      vertex -20.9889 3.34415 2
      vertex -19.889 1.83031 1.1
      vertex -19.889 1.83031 2
    endloop
  endfacet
  facet normal -0.104529 0.994522 0
    outer loop
      vertex -22.6094 -4.27975 1.1
      vertex -24.4704 -4.47535 2
      vertex -22.6094 -4.27975 2
    endloop
  endfacet
  facet normal -0.104529 0.994522 0
    outer loop
      vertex -24.4704 -4.47535 2
      vertex -22.6094 -4.27975 1.1
      vertex -24.4704 -4.47535 1.1
    endloop
  endfacet
  facet normal -0.5 0.866026 0
    outer loop
      vertex -20.9889 -3.34415 1.1
      vertex -22.6094 -4.27975 2
      vertex -20.9889 -3.34415 2
    endloop
  endfacet
  facet normal -0.5 0.866026 0
    outer loop
      vertex -22.6094 -4.27975 2
      vertex -20.9889 -3.34415 1.1
      vertex -22.6094 -4.27975 1.1
    endloop
  endfacet
  facet normal -0.5 -0.866026 0
    outer loop
      vertex -22.6094 4.27975 1.1
      vertex -20.9889 3.34415 2
      vertex -22.6094 4.27975 2
    endloop
  endfacet
  facet normal -0.5 -0.866026 -0
    outer loop
      vertex -20.9889 3.34415 2
      vertex -22.6094 4.27975 1.1
      vertex -20.9889 3.34415 1.1
    endloop
  endfacet
  facet normal 0.669131 -0.743145 0
    outer loop
      vertex -27.6406 2.64503 1.1
      vertex -26.25 3.89711 2
      vertex -27.6406 2.64503 2
    endloop
  endfacet
  facet normal 0.669131 -0.743145 0
    outer loop
      vertex -26.25 3.89711 2
      vertex -27.6406 2.64503 1.1
      vertex -26.25 3.89711 1.1
    endloop
  endfacet
  facet normal 0.913545 -0.406737 0
    outer loop
      vertex -28.4017 0.935602 2
      vertex -27.6406 2.64503 1.1
      vertex -27.6406 2.64503 2
    endloop
  endfacet
  facet normal 0.913545 -0.406737 0
    outer loop
      vertex -27.6406 2.64503 1.1
      vertex -28.4017 0.935602 2
      vertex -28.4017 0.935602 1.1
    endloop
  endfacet
  facet normal 0.309017 -0.951056 0
    outer loop
      vertex -26.25 3.89711 1.1
      vertex -24.4704 4.47535 2
      vertex -26.25 3.89711 2
    endloop
  endfacet
  facet normal 0.309017 -0.951056 0
    outer loop
      vertex -24.4704 4.47535 2
      vertex -26.25 3.89711 1.1
      vertex -24.4704 4.47535 1.1
    endloop
  endfacet
  facet normal -0.978148 0.207912 0
    outer loop
      vertex -19.889 -1.83031 1.1
      vertex -19.5 0 2
      vertex -19.5 0 1.1
    endloop
  endfacet
  facet normal -0.978148 0.207912 0
    outer loop
      vertex -19.5 0 2
      vertex -19.889 -1.83031 1.1
      vertex -19.889 -1.83031 2
    endloop
  endfacet
  facet normal 0 0 1
    outer loop
      vertex -19.889 1.83031 1.1
      vertex -19.889 -1.83031 1.1
      vertex -19.5 0 1.1
    endloop
  endfacet
  facet normal 0 0 1
    outer loop
      vertex -20.9889 3.34415 1.1
      vertex -19.889 -1.83031 1.1
      vertex -19.889 1.83031 1.1
    endloop
  endfacet
  facet normal 0 0 1
    outer loop
      vertex -20.9889 3.34415 1.1
      vertex -20.9889 -3.34415 1.1
      vertex -19.889 -1.83031 1.1
    endloop
  endfacet
  facet normal 0 0 1
    outer loop
      vertex -22.6094 4.27975 1.1
      vertex -20.9889 -3.34415 1.1
      vertex -20.9889 3.34415 1.1
    endloop
  endfacet
  facet normal 0 0 1
    outer loop
      vertex -22.6094 4.27975 1.1
      vertex -22.6094 -4.27975 1.1
      vertex -20.9889 -3.34415 1.1
    endloop
  endfacet
  facet normal 0 0 1
    outer loop
      vertex -24.4704 4.47535 1.1
      vertex -22.6094 -4.27975 1.1
      vertex -22.6094 4.27975 1.1
    endloop
  endfacet
  facet normal 0 0 1
    outer loop
      vertex -24.4704 4.47535 1.1
      vertex -24.4704 -4.47535 1.1
      vertex -22.6094 -4.27975 1.1
    endloop
  endfacet
  facet normal -0 0 1
    outer loop
      vertex -26.25 3.89711 1.1
      vertex -24.4704 -4.47535 1.1
      vertex -24.4704 4.47535 1.1
    endloop
  endfacet
  facet normal 0 0 1
    outer loop
      vertex -26.25 3.89711 1.1
      vertex -26.25 -3.89711 1.1
      vertex -24.4704 -4.47535 1.1
    endloop
  endfacet
  facet normal -0 0 1
    outer loop
      vertex -27.6406 2.64503 1.1
      vertex -26.25 -3.89711 1.1
      vertex -26.25 3.89711 1.1
    endloop
  endfacet
  facet normal 0 0 1
    outer loop
      vertex -27.6406 2.64503 1.1
      vertex -27.6406 -2.64503 1.1
      vertex -26.25 -3.89711 1.1
    endloop
  endfacet
  facet normal -0 0 1
    outer loop
      vertex -28.4017 0.935602 1.1
      vertex -27.6406 -2.64503 1.1
      vertex -27.6406 2.64503 1.1
    endloop
  endfacet
  facet normal 0 0 1
    outer loop
      vertex -27.6406 -2.64503 1.1
      vertex -28.4017 0.935602 1.1
      vertex -28.4017 -0.935602 1.1
    endloop
  endfacet
  facet normal 0.309017 0.951056 -0
    outer loop
      vertex -24.4704 -4.47535 1.1
      vertex -26.25 -3.89711 2
      vertex -24.4704 -4.47535 2
    endloop
  endfacet
  facet normal 0.309017 0.951056 0
    outer loop
      vertex -26.25 -3.89711 2
      vertex -24.4704 -4.47535 1.1
      vertex -26.25 -3.89711 1.1
    endloop
  endfacet
  facet normal -0.809017 0.587785 0
    outer loop
      vertex -20.9889 -3.34415 1.1
      vertex -19.889 -1.83031 2
      vertex -19.889 -1.83031 1.1
    endloop
  endfacet
  facet normal -0.809017 0.587785 0
    outer loop
      vertex -19.889 -1.83031 2
      vertex -20.9889 -3.34415 1.1
      vertex -20.9889 -3.34415 2
    endloop
  endfacet
  facet normal 0.669131 0.743145 -0
    outer loop
      vertex -26.25 -3.89711 1.1
      vertex -27.6406 -2.64503 2
      vertex -26.25 -3.89711 2
    endloop
  endfacet
  facet normal 0.669131 0.743145 0
    outer loop
      vertex -27.6406 -2.64503 2
      vertex -26.25 -3.89711 1.1
      vertex -27.6406 -2.64503 1.1
    endloop
  endfacet
  facet normal 0.913545 0.406737 0
    outer loop
      vertex -27.6406 -2.64503 2
      vertex -28.4017 -0.935602 1.1
      vertex -28.4017 -0.935602 2
    endloop
  endfacet
  facet normal 0.913545 0.406737 0
    outer loop
      vertex -28.4017 -0.935602 1.1
      vertex -27.6406 -2.64503 2
      vertex -27.6406 -2.64503 1.1
    endloop
  endfacet
  facet normal 0 -1 0
    outer loop
      vertex -21.6077 -18 5
      vertex -20.6077 -18 2
      vertex -20.6077 -18 5
    endloop
  endfacet
  facet normal 0 -1 -0
    outer loop
      vertex -20.6077 -18 2
      vertex -21.6077 -18 0
      vertex 20.6077 -18 2
    endloop
  endfacet
  facet normal 0 -1 0
    outer loop
      vertex -21.6077 -18 0
      vertex -20.6077 -18 2
      vertex -21.6077 -18 5
    endloop
  endfacet
  facet normal 0 -1 0
    outer loop
      vertex 20.6077 -18 2
      vertex 21.6077 -18 5
      vertex 20.6077 -18 5
    endloop
  endfacet
  facet normal 0 -1 0
    outer loop
      vertex 20.6077 -18 2
      vertex 21.6077 -18 0
      vertex 21.6077 -18 5
    endloop
  endfacet
  facet normal 0 -1 0
    outer loop
      vertex 21.6077 -18 0
      vertex 20.6077 -18 2
      vertex -21.6077 -18 0
    endloop
  endfacet
  facet normal 0 1 0
    outer loop
      vertex 21.0303 19 5
      vertex 20.0303 19 2
      vertex 20.0303 19 5
    endloop
  endfacet
  facet normal 0 1 0
    outer loop
      vertex 20.0303 19 2
      vertex 21.0303 19 0
      vertex -20.0303 19 2
    endloop
  endfacet
  facet normal 0 1 -0
    outer loop
      vertex 21.0303 19 0
      vertex 20.0303 19 2
      vertex 21.0303 19 5
    endloop
  endfacet
  facet normal 0 1 -0
    outer loop
      vertex -20.0303 19 2
      vertex -21.0303 19 5
      vertex -20.0303 19 5
    endloop
  endfacet
  facet normal 0 1 0
    outer loop
      vertex -20.0303 19 2
      vertex -21.0303 19 0
      vertex -21.0303 19 5
    endloop
  endfacet
  facet normal 0 1 0
    outer loop
      vertex -21.0303 19 0
      vertex -20.0303 19 2
      vertex 21.0303 19 0
    endloop
  endfacet
endsolid OpenSCAD_Model
