solid OpenSCAD_Model
  facet normal -1 0 0
    outer loop
      vertex 0 0 0
      vertex 0 56 25
      vertex 0 56 0
    endloop
  endfacet
  facet normal -1 -0 0
    outer loop
      vertex 0 56 25
      vertex 0 0 0
      vertex 0 0 25
    endloop
  endfacet
  facet normal 0 0 1
    outer loop
      vertex 1.73164 50.1039 25
      vertex 0 56 25
      vertex 1.5 47.9 25
    endloop
  endfacet
  facet normal 0 0 1
    outer loop
      vertex 2.41642 52.2114 25
      vertex 0 56 25
      vertex 1.73164 50.1039 25
    endloop
  endfacet
  facet normal 0 0 1
    outer loop
      vertex 3.52442 54.1305 25
      vertex 0 56 25
      vertex 2.41642 52.2114 25
    endloop
  endfacet
  facet normal 0 0 1
    outer loop
      vertex 5.00722 55.7773 25
      vertex 0 56 25
      vertex 3.52442 54.1305 25
    endloop
  endfacet
  facet normal -0 0 1
    outer loop
      vertex 0 56 25
      vertex 5.00722 55.7773 25
      vertex 5.31369 56 25
    endloop
  endfacet
  facet normal 0 0 1
    outer loop
      vertex 11.6239 15.7876 25
      vertex 5.00722 40.0227 25
      vertex 10.7841 13.2029 25
    endloop
  endfacet
  facet normal 0 0 1
    outer loop
      vertex 0 0 25
      vertex 10.7841 13.2029 25
      vertex 5.00722 40.0227 25
    endloop
  endfacet
  facet normal 0 0 1
    outer loop
      vertex 10.7841 13.2029 25
      vertex 0 0 25
      vertex 10.5 10.5 25
    endloop
  endfacet
  facet normal 0 0 1
    outer loop
      vertex 0 0 25
      vertex 5.00722 40.0227 25
      vertex 3.52442 41.6695 25
    endloop
  endfacet
  facet normal 0 0 1
    outer loop
      vertex 0 0 25
      vertex 3.52442 41.6695 25
      vertex 2.41642 43.5886 25
    endloop
  endfacet
  facet normal 0 0 1
    outer loop
      vertex 0 0 25
      vertex 2.41642 43.5886 25
      vertex 1.73164 45.6961 25
    endloop
  endfacet
  facet normal 0 0 1
    outer loop
      vertex 0 56 25
      vertex 1.73164 45.6961 25
      vertex 1.5 47.9 25
    endloop
  endfacet
  facet normal 0 0 1
    outer loop
      vertex 14.8013 0.839117 25
      vertex 0 0 25
      vertex 15.9562 0 25
    endloop
  endfacet
  facet normal 0 0 1
    outer loop
      vertex 12.9828 2.85879 25
      vertex 0 0 25
      vertex 14.8013 0.839117 25
    endloop
  endfacet
  facet normal 0 0 1
    outer loop
      vertex 11.6239 5.21242 25
      vertex 0 0 25
      vertex 12.9828 2.85879 25
    endloop
  endfacet
  facet normal 0 0 1
    outer loop
      vertex 10.7841 7.79715 25
      vertex 0 0 25
      vertex 11.6239 5.21242 25
    endloop
  endfacet
  facet normal 0 0 1
    outer loop
      vertex 10.5 10.5 25
      vertex 0 0 25
      vertex 10.7841 7.79715 25
    endloop
  endfacet
  facet normal 0 0 1
    outer loop
      vertex 0 0 25
      vertex 1.73164 45.6961 25
      vertex 0 56 25
    endloop
  endfacet
  facet normal 0 0 1
    outer loop
      vertex 22.4684 45.6961 25
      vertex 24.5316 45.6961 25
      vertex 22.7 47.9 25
    endloop
  endfacet
  facet normal 0 0 1
    outer loop
      vertex 24.5316 50.1039 25
      vertex 22.7 47.9 25
      vertex 24.3 47.9 25
    endloop
  endfacet
  facet normal 0 0 1
    outer loop
      vertex 22.4684 50.1039 25
      vertex 24.5316 50.1039 25
      vertex 25.2164 52.2114 25
    endloop
  endfacet
  facet normal 0 0 1
    outer loop
      vertex 21.7836 52.2114 25
      vertex 25.2164 52.2114 25
      vertex 26.3244 54.1305 25
    endloop
  endfacet
  facet normal 0 0 1
    outer loop
      vertex 24.5316 50.1039 25
      vertex 22.4684 50.1039 25
      vertex 22.7 47.9 25
    endloop
  endfacet
  facet normal 0 0 1
    outer loop
      vertex 20.6756 54.1305 25
      vertex 26.3244 54.1305 25
      vertex 27.8072 55.7773 25
    endloop
  endfacet
  facet normal 0 0 1
    outer loop
      vertex 25.2164 52.2114 25
      vertex 21.7836 52.2114 25
      vertex 22.4684 50.1039 25
    endloop
  endfacet
  facet normal 0 0 1
    outer loop
      vertex 19.1928 55.7773 25
      vertex 27.8072 55.7773 25
      vertex 28.1137 56 25
    endloop
  endfacet
  facet normal 0 0 1
    outer loop
      vertex 26.3244 54.1305 25
      vertex 20.6756 54.1305 25
      vertex 21.7836 52.2114 25
    endloop
  endfacet
  facet normal 0 0 1
    outer loop
      vertex 27.8072 55.7773 25
      vertex 19.1928 55.7773 25
      vertex 20.6756 54.1305 25
    endloop
  endfacet
  facet normal 0 -0 1
    outer loop
      vertex 19.1928 55.7773 25
      vertex 28.1137 56 25
      vertex 18.8863 56 25
    endloop
  endfacet
  facet normal 0 0 1
    outer loop
      vertex 36.008 37.3581 25
      vertex 30.9581 33.9149 25
      vertex 31.2 32 25
    endloop
  endfacet
  facet normal 0 0 1
    outer loop
      vertex 33.792 37.3581 25
      vertex 30.2476 35.7095 25
      vertex 30.9581 33.9149 25
    endloop
  endfacet
  facet normal 0 0 1
    outer loop
      vertex 29.1131 37.271 25
      vertex 31.6244 37.8188 25
      vertex 29.6 38.7201 25
    endloop
  endfacet
  facet normal 0 0 1
    outer loop
      vertex 31.6244 37.8188 25
      vertex 29.1131 37.271 25
      vertex 30.2476 35.7095 25
    endloop
  endfacet
  facet normal 0 0 1
    outer loop
      vertex 27.6259 38.5013 25
      vertex 29.6 38.7201 25
      vertex 27.8072 40.0227 25
    endloop
  endfacet
  facet normal 0 0 1
    outer loop
      vertex 29.6 38.7201 25
      vertex 27.6259 38.5013 25
      vertex 29.1131 37.271 25
    endloop
  endfacet
  facet normal 0 0 1
    outer loop
      vertex 25.8794 39.3231 25
      vertex 27.8072 40.0227 25
      vertex 26.3244 41.6695 25
    endloop
  endfacet
  facet normal 0 0 1
    outer loop
      vertex 27.8072 40.0227 25
      vertex 25.8794 39.3231 25
      vertex 27.6259 38.5013 25
    endloop
  endfacet
  facet normal 0 0 1
    outer loop
      vertex 23.9835 39.6848 25
      vertex 26.3244 41.6695 25
      vertex 25.2164 43.5886 25
    endloop
  endfacet
  facet normal 0 0 1
    outer loop
      vertex 23.9835 39.6848 25
      vertex 25.2164 43.5886 25
      vertex 24.5316 45.6961 25
    endloop
  endfacet
  facet normal 0 0 1
    outer loop
      vertex 26.3244 41.6695 25
      vertex 23.9835 39.6848 25
      vertex 25.8794 39.3231 25
    endloop
  endfacet
  facet normal -0 0 1
    outer loop
      vertex 22.7 47.9 25
      vertex 24.5316 45.6961 25
      vertex 24.3 47.9 25
    endloop
  endfacet
  facet normal 0 0 1
    outer loop
      vertex 47 0 25
      vertex 36.2159 13.2029 25
      vertex 36.5 10.5 25
    endloop
  endfacet
  facet normal 0 0 1
    outer loop
      vertex 30.9581 30.0851 25
      vertex 38.1756 37.8188 25
      vertex 36.008 37.3581 25
    endloop
  endfacet
  facet normal 0 0 1
    outer loop
      vertex 40.2 38.7201 25
      vertex 35.3761 15.7876 25
      vertex 36.2159 13.2029 25
    endloop
  endfacet
  facet normal 0 0 1
    outer loop
      vertex 40.2 38.7201 25
      vertex 34.0172 18.1412 25
      vertex 35.3761 15.7876 25
    endloop
  endfacet
  facet normal 0 0 1
    outer loop
      vertex 30.9581 33.9149 25
      vertex 36.008 37.3581 25
      vertex 33.792 37.3581 25
    endloop
  endfacet
  facet normal 0 0 1
    outer loop
      vertex 38.1756 37.8188 25
      vertex 30.9581 30.0851 25
      vertex 34.0172 18.1412 25
    endloop
  endfacet
  facet normal 0 0 1
    outer loop
      vertex 30.2476 35.7095 25
      vertex 33.792 37.3581 25
      vertex 31.6244 37.8188 25
    endloop
  endfacet
  facet normal 0 0 1
    outer loop
      vertex 36.008 37.3581 25
      vertex 31.2 32 25
      vertex 30.9581 30.0851 25
    endloop
  endfacet
  facet normal 0 0 1
    outer loop
      vertex 34.0172 18.1412 25
      vertex 30.9581 30.0851 25
      vertex 32.1987 20.1609 25
    endloop
  endfacet
  facet normal -0 0 1
    outer loop
      vertex 30.2476 28.2905 25
      vertex 32.1987 20.1609 25
      vertex 30.9581 30.0851 25
    endloop
  endfacet
  facet normal 0 0 1
    outer loop
      vertex 30.2476 28.2905 25
      vertex 30 21.7583 25
      vertex 32.1987 20.1609 25
    endloop
  endfacet
  facet normal -0 0 1
    outer loop
      vertex 29.1131 26.729 25
      vertex 30 21.7583 25
      vertex 30.2476 28.2905 25
    endloop
  endfacet
  facet normal -0 0 1
    outer loop
      vertex 27.6259 25.4987 25
      vertex 30 21.7583 25
      vertex 29.1131 26.729 25
    endloop
  endfacet
  facet normal 0 0 1
    outer loop
      vertex 27.6259 25.4987 25
      vertex 27.5172 22.8637 25
      vertex 30 21.7583 25
    endloop
  endfacet
  facet normal -0 0 1
    outer loop
      vertex 25.8794 24.6769 25
      vertex 27.5172 22.8637 25
      vertex 27.6259 25.4987 25
    endloop
  endfacet
  facet normal 0 0 1
    outer loop
      vertex 25.8794 24.6769 25
      vertex 24.8589 23.4288 25
      vertex 27.5172 22.8637 25
    endloop
  endfacet
  facet normal -0 0 1
    outer loop
      vertex 23.9835 24.3152 25
      vertex 24.8589 23.4288 25
      vertex 25.8794 24.6769 25
    endloop
  endfacet
  facet normal 0 0 1
    outer loop
      vertex 23.9835 24.3152 25
      vertex 22.1411 23.4288 25
      vertex 24.8589 23.4288 25
    endloop
  endfacet
  facet normal 0 0 1
    outer loop
      vertex 22.0572 24.4364 25
      vertex 22.1411 23.4288 25
      vertex 23.9835 24.3152 25
    endloop
  endfacet
  facet normal 0 0 1
    outer loop
      vertex 20.2215 25.0328 25
      vertex 22.1411 23.4288 25
      vertex 22.0572 24.4364 25
    endloop
  endfacet
  facet normal 0 0 1
    outer loop
      vertex 20.2215 25.0328 25
      vertex 19.4828 22.8637 25
      vertex 22.1411 23.4288 25
    endloop
  endfacet
  facet normal 0 0 1
    outer loop
      vertex 18.5918 26.067 25
      vertex 19.4828 22.8637 25
      vertex 20.2215 25.0328 25
    endloop
  endfacet
  facet normal 0 0 1
    outer loop
      vertex 17 21.7583 25
      vertex 18.5918 26.067 25
      vertex 17.2706 27.4741 25
    endloop
  endfacet
  facet normal 0 0 1
    outer loop
      vertex 18.5918 26.067 25
      vertex 17 21.7583 25
      vertex 19.4828 22.8637 25
    endloop
  endfacet
  facet normal 0 0 1
    outer loop
      vertex 14.8013 20.1609 25
      vertex 17.2706 27.4741 25
      vertex 16.3407 29.1654 25
    endloop
  endfacet
  facet normal 0 0 1
    outer loop
      vertex 8.82442 37.8188 25
      vertex 16.3407 29.1654 25
      vertex 15.8607 31.0349 25
    endloop
  endfacet
  facet normal 0 0 1
    outer loop
      vertex 17.2706 27.4741 25
      vertex 14.8013 20.1609 25
      vertex 17 21.7583 25
    endloop
  endfacet
  facet normal -0 0 1
    outer loop
      vertex 10.992 37.3581 25
      vertex 15.8607 32.9651 25
      vertex 13.208 37.3581 25
    endloop
  endfacet
  facet normal 0 0 1
    outer loop
      vertex 15.8607 32.9651 25
      vertex 10.992 37.3581 25
      vertex 15.8607 31.0349 25
    endloop
  endfacet
  facet normal 0 0 1
    outer loop
      vertex 8.82442 37.8188 25
      vertex 15.8607 31.0349 25
      vertex 10.992 37.3581 25
    endloop
  endfacet
  facet normal 0 0 1
    outer loop
      vertex 16.3407 29.1654 25
      vertex 8.82442 37.8188 25
      vertex 12.9828 18.1412 25
    endloop
  endfacet
  facet normal 0 0 1
    outer loop
      vertex 16.3407 29.1654 25
      vertex 12.9828 18.1412 25
      vertex 14.8013 20.1609 25
    endloop
  endfacet
  facet normal 0 0 1
    outer loop
      vertex 6.8 38.7201 25
      vertex 12.9828 18.1412 25
      vertex 8.82442 37.8188 25
    endloop
  endfacet
  facet normal 0 0 1
    outer loop
      vertex 12.9828 18.1412 25
      vertex 6.8 38.7201 25
      vertex 11.6239 15.7876 25
    endloop
  endfacet
  facet normal 0 0 1
    outer loop
      vertex 5.00722 40.0227 25
      vertex 11.6239 15.7876 25
      vertex 6.8 38.7201 25
    endloop
  endfacet
  facet normal 0 0 1
    outer loop
      vertex 45.2684 45.6961 25
      vertex 47 56 25
      vertex 45.5 47.9 25
    endloop
  endfacet
  facet normal 0 0 1
    outer loop
      vertex 47 56 25
      vertex 45.2684 50.1039 25
      vertex 45.5 47.9 25
    endloop
  endfacet
  facet normal 0 0 1
    outer loop
      vertex 47 56 25
      vertex 44.5836 52.2114 25
      vertex 45.2684 50.1039 25
    endloop
  endfacet
  facet normal 0 0 1
    outer loop
      vertex 47 56 25
      vertex 43.4756 54.1305 25
      vertex 44.5836 52.2114 25
    endloop
  endfacet
  facet normal 0 0 1
    outer loop
      vertex 47 56 25
      vertex 41.9928 55.7773 25
      vertex 43.4756 54.1305 25
    endloop
  endfacet
  facet normal 0 -0 1
    outer loop
      vertex 41.9928 55.7773 25
      vertex 47 56 25
      vertex 41.6863 56 25
    endloop
  endfacet
  facet normal 0 0 1
    outer loop
      vertex 47 56 25
      vertex 45.2684 45.6961 25
      vertex 47 0 25
    endloop
  endfacet
  facet normal -0 0 1
    outer loop
      vertex 44.5836 43.5886 25
      vertex 47 0 25
      vertex 45.2684 45.6961 25
    endloop
  endfacet
  facet normal -0 0 1
    outer loop
      vertex 43.4756 41.6695 25
      vertex 47 0 25
      vertex 44.5836 43.5886 25
    endloop
  endfacet
  facet normal -0 0 1
    outer loop
      vertex 41.9928 40.0227 25
      vertex 47 0 25
      vertex 43.4756 41.6695 25
    endloop
  endfacet
  facet normal 0 0 1
    outer loop
      vertex 36.2159 13.2029 25
      vertex 41.9928 40.0227 25
      vertex 40.2 38.7201 25
    endloop
  endfacet
  facet normal 0 0 1
    outer loop
      vertex 34.0172 18.1412 25
      vertex 40.2 38.7201 25
      vertex 38.1756 37.8188 25
    endloop
  endfacet
  facet normal -0 0 1
    outer loop
      vertex 36.2159 13.2029 25
      vertex 47 0 25
      vertex 41.9928 40.0227 25
    endloop
  endfacet
  facet normal -0 0 1
    outer loop
      vertex 36.2159 7.79715 25
      vertex 47 0 25
      vertex 36.5 10.5 25
    endloop
  endfacet
  facet normal -0 0 1
    outer loop
      vertex 35.3761 5.21242 25
      vertex 47 0 25
      vertex 36.2159 7.79715 25
    endloop
  endfacet
  facet normal -0 0 1
    outer loop
      vertex 34.0172 2.85879 25
      vertex 47 0 25
      vertex 35.3761 5.21242 25
    endloop
  endfacet
  facet normal -0 0 1
    outer loop
      vertex 32.1987 0.839117 25
      vertex 47 0 25
      vertex 34.0172 2.85879 25
    endloop
  endfacet
  facet normal 0 0 1
    outer loop
      vertex 47 0 25
      vertex 32.1987 0.839117 25
      vertex 31.0438 0 25
    endloop
  endfacet
  facet normal 0 0 1
    outer loop
      vertex 21.7836 43.5886 25
      vertex 24.5316 45.6961 25
      vertex 22.4684 45.6961 25
    endloop
  endfacet
  facet normal 0 0 1
    outer loop
      vertex 24.5316 45.6961 25
      vertex 21.7836 43.5886 25
      vertex 23.9835 39.6848 25
    endloop
  endfacet
  facet normal -0 0 1
    outer loop
      vertex 20.6756 41.6695 25
      vertex 23.9835 39.6848 25
      vertex 21.7836 43.5886 25
    endloop
  endfacet
  facet normal 0 0 1
    outer loop
      vertex 23.9835 39.6848 25
      vertex 20.6756 41.6695 25
      vertex 22.0572 39.5636 25
    endloop
  endfacet
  facet normal 0 0 1
    outer loop
      vertex 20.6756 41.6695 25
      vertex 20.2215 38.9672 25
      vertex 22.0572 39.5636 25
    endloop
  endfacet
  facet normal -0 0 1
    outer loop
      vertex 19.1928 40.0227 25
      vertex 20.2215 38.9672 25
      vertex 20.6756 41.6695 25
    endloop
  endfacet
  facet normal 0 0 1
    outer loop
      vertex 19.1928 40.0227 25
      vertex 18.5918 37.933 25
      vertex 20.2215 38.9672 25
    endloop
  endfacet
  facet normal -0 0 1
    outer loop
      vertex 17.4 38.7201 25
      vertex 18.5918 37.933 25
      vertex 19.1928 40.0227 25
    endloop
  endfacet
  facet normal 0 0 1
    outer loop
      vertex 17.4 38.7201 25
      vertex 17.2706 36.5259 25
      vertex 18.5918 37.933 25
    endloop
  endfacet
  facet normal -0 0 1
    outer loop
      vertex 15.3756 37.8188 25
      vertex 17.2706 36.5259 25
      vertex 17.4 38.7201 25
    endloop
  endfacet
  facet normal 0 0 1
    outer loop
      vertex 16.3407 34.8346 25
      vertex 13.208 37.3581 25
      vertex 15.8607 32.9651 25
    endloop
  endfacet
  facet normal -0 0 1
    outer loop
      vertex 13.208 37.3581 25
      vertex 16.3407 34.8346 25
      vertex 15.3756 37.8188 25
    endloop
  endfacet
  facet normal 0 0 1
    outer loop
      vertex 17.2706 36.5259 25
      vertex 15.3756 37.8188 25
      vertex 16.3407 34.8346 25
    endloop
  endfacet
  facet normal 1 -0 0
    outer loop
      vertex 47 0 25
      vertex 47 56 0
      vertex 47 56 25
    endloop
  endfacet
  facet normal 1 0 0
    outer loop
      vertex 47 56 0
      vertex 47 0 25
      vertex 47 0 0
    endloop
  endfacet
  facet normal 0 1 0
    outer loop
      vertex 47 56 25
      vertex 41.6863 56 3.1
      vertex 41.6863 56 25
    endloop
  endfacet
  facet normal 0 1 0
    outer loop
      vertex 47 56 0
      vertex 28.1137 56 3.1
      vertex 41.6863 56 3.1
    endloop
  endfacet
  facet normal 0 1 0
    outer loop
      vertex 28.1137 56 3.1
      vertex 47 56 0
      vertex 18.8863 56 3.1
    endloop
  endfacet
  facet normal 0 1 0
    outer loop
      vertex 0 56 0
      vertex 18.8863 56 3.1
      vertex 47 56 0
    endloop
  endfacet
  facet normal 0 1 -0
    outer loop
      vertex 47 56 0
      vertex 41.6863 56 3.1
      vertex 47 56 25
    endloop
  endfacet
  facet normal 0 1 -0
    outer loop
      vertex 28.1137 56 3.1
      vertex 18.8863 56 25
      vertex 28.1137 56 25
    endloop
  endfacet
  facet normal 0 1 0
    outer loop
      vertex 18.8863 56 25
      vertex 28.1137 56 3.1
      vertex 18.8863 56 3.1
    endloop
  endfacet
  facet normal 0 1 -0
    outer loop
      vertex 5.31369 56 3.1
      vertex 0 56 25
      vertex 5.31369 56 25
    endloop
  endfacet
  facet normal 0 1 0
    outer loop
      vertex 5.31369 56 3.1
      vertex 0 56 0
      vertex 0 56 25
    endloop
  endfacet
  facet normal 0 1 0
    outer loop
      vertex 18.8863 56 3.1
      vertex 0 56 0
      vertex 5.31369 56 3.1
    endloop
  endfacet
  facet normal 0 0 -1
    outer loop
      vertex 0 0 0
      vertex 47 56 0
      vertex 47 0 0
    endloop
  endfacet
  facet normal -0 0 -1
    outer loop
      vertex 47 56 0
      vertex 0 0 0
      vertex 0 56 0
    endloop
  endfacet
  facet normal 0 -1 0
    outer loop
      vertex 0 0 25
      vertex 15.9562 0 7.3
      vertex 15.9562 0 25
    endloop
  endfacet
  facet normal 0 -1 -0
    outer loop
      vertex 15.9562 0 7.3
      vertex 0 0 0
      vertex 31.0438 0 7.3
    endloop
  endfacet
  facet normal 0 -1 0
    outer loop
      vertex 0 0 0
      vertex 15.9562 0 7.3
      vertex 0 0 25
    endloop
  endfacet
  facet normal 0 -1 0
    outer loop
      vertex 31.0438 0 7.3
      vertex 47 0 25
      vertex 31.0438 0 25
    endloop
  endfacet
  facet normal 0 -1 0
    outer loop
      vertex 31.0438 0 7.3
      vertex 47 0 0
      vertex 47 0 25
    endloop
  endfacet
  facet normal 0 -1 0
    outer loop
      vertex 47 0 0
      vertex 31.0438 0 7.3
      vertex 0 0 0
    endloop
  endfacet
  facet normal -0.994522 -0.104528 0
    outer loop
      vertex 36.5 10.5 7.3
      vertex 36.2159 13.2029 25
      vertex 36.2159 13.2029 7.3
    endloop
  endfacet
  facet normal -0.994522 -0.104528 0
    outer loop
      vertex 36.2159 13.2029 25
      vertex 36.5 10.5 7.3
      vertex 36.5 10.5 25
    endloop
  endfacet
  facet normal 0 -1 0
    outer loop
      vertex 22.1411 23.4288 7.3
      vertex 24.8589 23.4288 25
      vertex 22.1411 23.4288 25
    endloop
  endfacet
  facet normal 0 -1 -0
    outer loop
      vertex 24.8589 23.4288 25
      vertex 22.1411 23.4288 7.3
      vertex 24.8589 23.4288 7.3
    endloop
  endfacet
  facet normal -0.587786 -0.809017 0
    outer loop
      vertex 30 21.7583 7.3
      vertex 32.1987 20.1609 25
      vertex 30 21.7583 25
    endloop
  endfacet
  facet normal -0.587786 -0.809017 -0
    outer loop
      vertex 32.1987 20.1609 25
      vertex 30 21.7583 7.3
      vertex 32.1987 20.1609 7.3
    endloop
  endfacet
  facet normal 0.743144 -0.669131 0
    outer loop
      vertex 12.9828 18.1412 25
      vertex 14.8013 20.1609 7.3
      vertex 14.8013 20.1609 25
    endloop
  endfacet
  facet normal 0.743144 -0.669131 0
    outer loop
      vertex 14.8013 20.1609 7.3
      vertex 12.9828 18.1412 25
      vertex 12.9828 18.1412 7.3
    endloop
  endfacet
  facet normal 0.406737 -0.913545 0
    outer loop
      vertex 17 21.7583 7.3
      vertex 19.4828 22.8637 25
      vertex 17 21.7583 25
    endloop
  endfacet
  facet normal 0.406737 -0.913545 0
    outer loop
      vertex 19.4828 22.8637 25
      vertex 17 21.7583 7.3
      vertex 19.4828 22.8637 7.3
    endloop
  endfacet
  facet normal -0.743145 0.669131 0
    outer loop
      vertex 32.1987 0.839117 7.3
      vertex 34.0172 2.85879 25
      vertex 34.0172 2.85879 7.3
    endloop
  endfacet
  facet normal -0.743145 0.669131 0
    outer loop
      vertex 34.0172 2.85879 25
      vertex 32.1987 0.839117 7.3
      vertex 32.1987 0.839117 25
    endloop
  endfacet
  facet normal -0.866025 -0.5 0
    outer loop
      vertex 35.3761 15.7876 7.3
      vertex 34.0172 18.1412 25
      vertex 34.0172 18.1412 7.3
    endloop
  endfacet
  facet normal -0.866025 -0.5 0
    outer loop
      vertex 34.0172 18.1412 25
      vertex 35.3761 15.7876 7.3
      vertex 35.3761 15.7876 25
    endloop
  endfacet
  facet normal -0.951056 -0.309017 0
    outer loop
      vertex 36.2159 13.2029 7.3
      vertex 35.3761 15.7876 25
      vertex 35.3761 15.7876 7.3
    endloop
  endfacet
  facet normal -0.951056 -0.309017 0
    outer loop
      vertex 35.3761 15.7876 25
      vertex 36.2159 13.2029 7.3
      vertex 36.2159 13.2029 25
    endloop
  endfacet
  facet normal -0.743144 -0.669131 0
    outer loop
      vertex 34.0172 18.1412 7.3
      vertex 32.1987 20.1609 25
      vertex 32.1987 20.1609 7.3
    endloop
  endfacet
  facet normal -0.743144 -0.669131 0
    outer loop
      vertex 32.1987 20.1609 25
      vertex 34.0172 18.1412 7.3
      vertex 34.0172 18.1412 25
    endloop
  endfacet
  facet normal -0.207911 -0.978148 0
    outer loop
      vertex 24.8589 23.4288 7.3
      vertex 27.5172 22.8637 25
      vertex 24.8589 23.4288 25
    endloop
  endfacet
  facet normal -0.207911 -0.978148 -0
    outer loop
      vertex 27.5172 22.8637 25
      vertex 24.8589 23.4288 7.3
      vertex 27.5172 22.8637 7.3
    endloop
  endfacet
  facet normal -0.406737 -0.913545 0
    outer loop
      vertex 27.5172 22.8637 7.3
      vertex 30 21.7583 25
      vertex 27.5172 22.8637 25
    endloop
  endfacet
  facet normal -0.406737 -0.913545 -0
    outer loop
      vertex 30 21.7583 25
      vertex 27.5172 22.8637 7.3
      vertex 30 21.7583 7.3
    endloop
  endfacet
  facet normal 0.951056 -0.309017 0
    outer loop
      vertex 10.7841 13.2029 25
      vertex 11.6239 15.7876 7.3
      vertex 11.6239 15.7876 25
    endloop
  endfacet
  facet normal 0.951056 -0.309017 0
    outer loop
      vertex 11.6239 15.7876 7.3
      vertex 10.7841 13.2029 25
      vertex 10.7841 13.2029 7.3
    endloop
  endfacet
  facet normal 0 0 1
    outer loop
      vertex 36.2159 13.2029 7.3
      vertex 36.2159 7.79715 7.3
      vertex 36.5 10.5 7.3
    endloop
  endfacet
  facet normal 0 0 1
    outer loop
      vertex 35.3761 15.7876 7.3
      vertex 36.2159 7.79715 7.3
      vertex 36.2159 13.2029 7.3
    endloop
  endfacet
  facet normal 0 0 1
    outer loop
      vertex 35.3761 15.7876 7.3
      vertex 35.3761 5.21242 7.3
      vertex 36.2159 7.79715 7.3
    endloop
  endfacet
  facet normal 0 0 1
    outer loop
      vertex 34.0172 18.1412 7.3
      vertex 35.3761 5.21242 7.3
      vertex 35.3761 15.7876 7.3
    endloop
  endfacet
  facet normal 0 0 1
    outer loop
      vertex 31.0438 0 7.3
      vertex 35.3761 5.21242 7.3
      vertex 34.0172 18.1412 7.3
    endloop
  endfacet
  facet normal 0 0 1
    outer loop
      vertex 31.0438 0 7.3
      vertex 34.0172 18.1412 7.3
      vertex 32.1987 20.1609 7.3
    endloop
  endfacet
  facet normal 0 0 1
    outer loop
      vertex 35.3761 5.21242 7.3
      vertex 31.0438 0 7.3
      vertex 34.0172 2.85879 7.3
    endloop
  endfacet
  facet normal 0 0 1
    outer loop
      vertex 34.0172 2.85879 7.3
      vertex 31.0438 0 7.3
      vertex 32.1987 0.839117 7.3
    endloop
  endfacet
  facet normal 0 0 1
    outer loop
      vertex 30 21.7583 7.3
      vertex 31.0438 0 7.3
      vertex 32.1987 20.1609 7.3
    endloop
  endfacet
  facet normal 0 0 1
    outer loop
      vertex 27.5172 22.8637 7.3
      vertex 31.0438 0 7.3
      vertex 30 21.7583 7.3
    endloop
  endfacet
  facet normal 0 0 1
    outer loop
      vertex 24.8589 23.4288 7.3
      vertex 31.0438 0 7.3
      vertex 27.5172 22.8637 7.3
    endloop
  endfacet
  facet normal -0 0 1
    outer loop
      vertex 22.1411 23.4288 7.3
      vertex 31.0438 0 7.3
      vertex 24.8589 23.4288 7.3
    endloop
  endfacet
  facet normal -0 0 1
    outer loop
      vertex 19.4828 22.8637 7.3
      vertex 31.0438 0 7.3
      vertex 22.1411 23.4288 7.3
    endloop
  endfacet
  facet normal -0 0 1
    outer loop
      vertex 17 21.7583 7.3
      vertex 31.0438 0 7.3
      vertex 19.4828 22.8637 7.3
    endloop
  endfacet
  facet normal 0 0 1
    outer loop
      vertex 17 21.7583 7.3
      vertex 15.9562 0 7.3
      vertex 31.0438 0 7.3
    endloop
  endfacet
  facet normal -0 0 1
    outer loop
      vertex 14.8013 20.1609 7.3
      vertex 15.9562 0 7.3
      vertex 17 21.7583 7.3
    endloop
  endfacet
  facet normal -0 0 1
    outer loop
      vertex 12.9828 18.1412 7.3
      vertex 15.9562 0 7.3
      vertex 14.8013 20.1609 7.3
    endloop
  endfacet
  facet normal -0 0 1
    outer loop
      vertex 11.6239 15.7876 7.3
      vertex 15.9562 0 7.3
      vertex 12.9828 18.1412 7.3
    endloop
  endfacet
  facet normal 0 0 1
    outer loop
      vertex 15.9562 0 7.3
      vertex 12.9828 2.85879 7.3
      vertex 14.8013 0.839117 7.3
    endloop
  endfacet
  facet normal -0 0 1
    outer loop
      vertex 11.6239 5.21242 7.3
      vertex 15.9562 0 7.3
      vertex 11.6239 15.7876 7.3
    endloop
  endfacet
  facet normal 0 0 1
    outer loop
      vertex 15.9562 0 7.3
      vertex 11.6239 5.21242 7.3
      vertex 12.9828 2.85879 7.3
    endloop
  endfacet
  facet normal -0 0 1
    outer loop
      vertex 10.7841 13.2029 7.3
      vertex 11.6239 5.21242 7.3
      vertex 11.6239 15.7876 7.3
    endloop
  endfacet
  facet normal 0 0 1
    outer loop
      vertex 10.7841 13.2029 7.3
      vertex 10.7841 7.79715 7.3
      vertex 11.6239 5.21242 7.3
    endloop
  endfacet
  facet normal 0 -0 1
    outer loop
      vertex 10.7841 7.79715 7.3
      vertex 10.7841 13.2029 7.3
      vertex 10.5 10.5 7.3
    endloop
  endfacet
  facet normal 0.866026 -0.5 0
    outer loop
      vertex 11.6239 15.7876 25
      vertex 12.9828 18.1412 7.3
      vertex 12.9828 18.1412 25
    endloop
  endfacet
  facet normal 0.866026 -0.5 0
    outer loop
      vertex 12.9828 18.1412 7.3
      vertex 11.6239 15.7876 25
      vertex 11.6239 15.7876 7.3
    endloop
  endfacet
  facet normal 0.994522 -0.104528 0
    outer loop
      vertex 10.5 10.5 25
      vertex 10.7841 13.2029 7.3
      vertex 10.7841 13.2029 25
    endloop
  endfacet
  facet normal 0.994522 -0.104528 0
    outer loop
      vertex 10.7841 13.2029 7.3
      vertex 10.5 10.5 25
      vertex 10.5 10.5 7.3
    endloop
  endfacet
  facet normal 0.587785 -0.809017 0
    outer loop
      vertex 14.8013 20.1609 7.3
      vertex 17 21.7583 25
      vertex 14.8013 20.1609 25
    endloop
  endfacet
  facet normal 0.587785 -0.809017 0
    outer loop
      vertex 17 21.7583 25
      vertex 14.8013 20.1609 7.3
      vertex 17 21.7583 7.3
    endloop
  endfacet
  facet normal 0.207911 -0.978148 0
    outer loop
      vertex 19.4828 22.8637 7.3
      vertex 22.1411 23.4288 25
      vertex 19.4828 22.8637 25
    endloop
  endfacet
  facet normal 0.207911 -0.978148 0
    outer loop
      vertex 22.1411 23.4288 25
      vertex 19.4828 22.8637 7.3
      vertex 22.1411 23.4288 7.3
    endloop
  endfacet
  facet normal -0.587785 0.809017 0
    outer loop
      vertex 32.1987 0.839117 7.3
      vertex 31.0438 0 25
      vertex 32.1987 0.839117 25
    endloop
  endfacet
  facet normal -0.587785 0.809017 0
    outer loop
      vertex 31.0438 0 25
      vertex 32.1987 0.839117 7.3
      vertex 31.0438 0 7.3
    endloop
  endfacet
  facet normal 0.587785 0.809017 -0
    outer loop
      vertex 15.9562 0 7.3
      vertex 14.8013 0.839117 25
      vertex 15.9562 0 25
    endloop
  endfacet
  facet normal 0.587785 0.809017 0
    outer loop
      vertex 14.8013 0.839117 25
      vertex 15.9562 0 7.3
      vertex 14.8013 0.839117 7.3
    endloop
  endfacet
  facet normal 0.743145 0.669131 0
    outer loop
      vertex 14.8013 0.839117 25
      vertex 12.9828 2.85879 7.3
      vertex 12.9828 2.85879 25
    endloop
  endfacet
  facet normal 0.743145 0.669131 0
    outer loop
      vertex 12.9828 2.85879 7.3
      vertex 14.8013 0.839117 25
      vertex 14.8013 0.839117 7.3
    endloop
  endfacet
  facet normal 0.951056 0.309017 0
    outer loop
      vertex 11.6239 5.21242 25
      vertex 10.7841 7.79715 7.3
      vertex 10.7841 7.79715 25
    endloop
  endfacet
  facet normal 0.951056 0.309017 0
    outer loop
      vertex 10.7841 7.79715 7.3
      vertex 11.6239 5.21242 25
      vertex 11.6239 5.21242 7.3
    endloop
  endfacet
  facet normal 0.994522 0.104528 0
    outer loop
      vertex 10.7841 7.79715 25
      vertex 10.5 10.5 7.3
      vertex 10.5 10.5 25
    endloop
  endfacet
  facet normal 0.994522 0.104528 0
    outer loop
      vertex 10.5 10.5 7.3
      vertex 10.7841 7.79715 25
      vertex 10.7841 7.79715 7.3
    endloop
  endfacet
  facet normal -0.951056 0.309017 0
    outer loop
      vertex 35.3761 5.21242 7.3
      vertex 36.2159 7.79715 25
      vertex 36.2159 7.79715 7.3
    endloop
  endfacet
  facet normal -0.951056 0.309017 0
    outer loop
      vertex 36.2159 7.79715 25
      vertex 35.3761 5.21242 7.3
      vertex 35.3761 5.21242 25
    endloop
  endfacet
  facet normal -0.866025 0.5 0
    outer loop
      vertex 34.0172 2.85879 7.3
      vertex 35.3761 5.21242 25
      vertex 35.3761 5.21242 7.3
    endloop
  endfacet
  facet normal -0.866025 0.5 0
    outer loop
      vertex 35.3761 5.21242 25
      vertex 34.0172 2.85879 7.3
      vertex 34.0172 2.85879 25
    endloop
  endfacet
  facet normal -0.994522 0.104528 0
    outer loop
      vertex 36.2159 7.79715 7.3
      vertex 36.5 10.5 25
      vertex 36.5 10.5 7.3
    endloop
  endfacet
  facet normal -0.994522 0.104528 0
    outer loop
      vertex 36.5 10.5 25
      vertex 36.2159 7.79715 7.3
      vertex 36.2159 7.79715 25
    endloop
  endfacet
  facet normal 0.866025 0.5 0
    outer loop
      vertex 12.9828 2.85879 25
      vertex 11.6239 5.21242 7.3
      vertex 11.6239 5.21242 25
    endloop
  endfacet
  facet normal 0.866025 0.5 0
    outer loop
      vertex 11.6239 5.21242 7.3
      vertex 12.9828 2.85879 25
      vertex 12.9828 2.85879 7.3
    endloop
  endfacet
  facet normal -0.994522 -0.104529 0
    outer loop
      vertex 22.7 47.9 3.1
      vertex 22.4684 50.1039 25
      vertex 22.4684 50.1039 3.1
    endloop
  endfacet
  facet normal -0.994522 -0.104529 0
    outer loop
      vertex 22.4684 50.1039 25
      vertex 22.7 47.9 3.1
      vertex 22.7 47.9 25
    endloop
  endfacet
  facet normal 0.587785 0.809017 -0
    outer loop
      vertex 6.8 38.7201 3.1
      vertex 5.00722 40.0227 25
      vertex 6.8 38.7201 25
    endloop
  endfacet
  facet normal 0.587785 0.809017 0
    outer loop
      vertex 5.00722 40.0227 25
      vertex 6.8 38.7201 3.1
      vertex 5.00722 40.0227 3.1
    endloop
  endfacet
  facet normal -0.587782 -0.809019 0
    outer loop
      vertex 18.8863 56 3.1
      vertex 19.1928 55.7773 25
      vertex 18.8863 56 25
    endloop
  endfacet
  facet normal -0.587782 -0.809019 -0
    outer loop
      vertex 19.1928 55.7773 25
      vertex 18.8863 56 3.1
      vertex 19.1928 55.7773 3.1
    endloop
  endfacet
  facet normal 0.743145 -0.66913 0
    outer loop
      vertex 3.52442 54.1305 25
      vertex 5.00722 55.7773 3.1
      vertex 5.00722 55.7773 25
    endloop
  endfacet
  facet normal 0.743145 -0.66913 0
    outer loop
      vertex 5.00722 55.7773 3.1
      vertex 3.52442 54.1305 25
      vertex 3.52442 54.1305 3.1
    endloop
  endfacet
  facet normal -0.743145 0.66913 0
    outer loop
      vertex 19.1928 40.0227 3.1
      vertex 20.6756 41.6695 25
      vertex 20.6756 41.6695 3.1
    endloop
  endfacet
  facet normal -0.743145 0.66913 0
    outer loop
      vertex 20.6756 41.6695 25
      vertex 19.1928 40.0227 3.1
      vertex 19.1928 40.0227 25
    endloop
  endfacet
  facet normal -0.866026 -0.5 0
    outer loop
      vertex 21.7836 52.2114 3.1
      vertex 20.6756 54.1305 25
      vertex 20.6756 54.1305 3.1
    endloop
  endfacet
  facet normal -0.866026 -0.5 0
    outer loop
      vertex 20.6756 54.1305 25
      vertex 21.7836 52.2114 3.1
      vertex 21.7836 52.2114 25
    endloop
  endfacet
  facet normal -0.951056 -0.309018 0
    outer loop
      vertex 22.4684 50.1039 3.1
      vertex 21.7836 52.2114 25
      vertex 21.7836 52.2114 3.1
    endloop
  endfacet
  facet normal -0.951056 -0.309018 0
    outer loop
      vertex 21.7836 52.2114 25
      vertex 22.4684 50.1039 3.1
      vertex 22.4684 50.1039 25
    endloop
  endfacet
  facet normal -0.743145 -0.66913 0
    outer loop
      vertex 20.6756 54.1305 3.1
      vertex 19.1928 55.7773 25
      vertex 19.1928 55.7773 3.1
    endloop
  endfacet
  facet normal -0.743145 -0.66913 0
    outer loop
      vertex 19.1928 55.7773 25
      vertex 20.6756 54.1305 3.1
      vertex 20.6756 54.1305 25
    endloop
  endfacet
  facet normal 0.951056 -0.309017 0
    outer loop
      vertex 1.73164 50.1039 25
      vertex 2.41642 52.2114 3.1
      vertex 2.41642 52.2114 25
    endloop
  endfacet
  facet normal 0.951056 -0.309017 0
    outer loop
      vertex 2.41642 52.2114 3.1
      vertex 1.73164 50.1039 25
      vertex 1.73164 50.1039 3.1
    endloop
  endfacet
  facet normal 0 0 1
    outer loop
      vertex 22.4684 50.1039 3.1
      vertex 22.4684 45.6961 3.1
      vertex 22.7 47.9 3.1
    endloop
  endfacet
  facet normal 0 0 1
    outer loop
      vertex 21.7836 52.2114 3.1
      vertex 22.4684 45.6961 3.1
      vertex 22.4684 50.1039 3.1
    endloop
  endfacet
  facet normal 0 0 1
    outer loop
      vertex 21.7836 52.2114 3.1
      vertex 21.7836 43.5886 3.1
      vertex 22.4684 45.6961 3.1
    endloop
  endfacet
  facet normal 0 0 1
    outer loop
      vertex 18.8863 56 3.1
      vertex 21.7836 52.2114 3.1
      vertex 20.6756 54.1305 3.1
    endloop
  endfacet
  facet normal 0 0 1
    outer loop
      vertex 21.7836 52.2114 3.1
      vertex 18.8863 56 3.1
      vertex 21.7836 43.5886 3.1
    endloop
  endfacet
  facet normal 0 0 1
    outer loop
      vertex 18.8863 56 3.1
      vertex 20.6756 54.1305 3.1
      vertex 19.1928 55.7773 3.1
    endloop
  endfacet
  facet normal 0 0 1
    outer loop
      vertex 21.7836 43.5886 3.1
      vertex 18.8863 56 3.1
      vertex 20.6756 41.6695 3.1
    endloop
  endfacet
  facet normal 0 0 1
    outer loop
      vertex 20.6756 41.6695 3.1
      vertex 18.8863 56 3.1
      vertex 19.1928 40.0227 3.1
    endloop
  endfacet
  facet normal 0 0 1
    outer loop
      vertex 18.8863 56 3.1
      vertex 17.4 38.7201 3.1
      vertex 19.1928 40.0227 3.1
    endloop
  endfacet
  facet normal 0 0 1
    outer loop
      vertex 18.8863 56 3.1
      vertex 15.3756 37.8188 3.1
      vertex 17.4 38.7201 3.1
    endloop
  endfacet
  facet normal 0 0 1
    outer loop
      vertex 18.8863 56 3.1
      vertex 13.208 37.3581 3.1
      vertex 15.3756 37.8188 3.1
    endloop
  endfacet
  facet normal 0 0 1
    outer loop
      vertex 18.8863 56 3.1
      vertex 10.992 37.3581 3.1
      vertex 13.208 37.3581 3.1
    endloop
  endfacet
  facet normal 0 0 1
    outer loop
      vertex 18.8863 56 3.1
      vertex 8.82442 37.8188 3.1
      vertex 10.992 37.3581 3.1
    endloop
  endfacet
  facet normal 0 0 1
    outer loop
      vertex 18.8863 56 3.1
      vertex 6.8 38.7201 3.1
      vertex 8.82442 37.8188 3.1
    endloop
  endfacet
  facet normal -0 0 1
    outer loop
      vertex 5.31369 56 3.1
      vertex 6.8 38.7201 3.1
      vertex 18.8863 56 3.1
    endloop
  endfacet
  facet normal 0 0 1
    outer loop
      vertex 3.52442 54.1305 3.1
      vertex 5.31369 56 3.1
      vertex 5.00722 55.7773 3.1
    endloop
  endfacet
  facet normal 0 0 1
    outer loop
      vertex 5.31369 56 3.1
      vertex 5.00722 40.0227 3.1
      vertex 6.8 38.7201 3.1
    endloop
  endfacet
  facet normal 0 0 1
    outer loop
      vertex 2.41642 52.2114 3.1
      vertex 5.31369 56 3.1
      vertex 3.52442 54.1305 3.1
    endloop
  endfacet
  facet normal 0 0 1
    outer loop
      vertex 5.31369 56 3.1
      vertex 3.52442 41.6695 3.1
      vertex 5.00722 40.0227 3.1
    endloop
  endfacet
  facet normal 0 0 1
    outer loop
      vertex 5.31369 56 3.1
      vertex 2.41642 52.2114 3.1
      vertex 3.52442 41.6695 3.1
    endloop
  endfacet
  facet normal 0 0 1
    outer loop
      vertex 2.41642 52.2114 3.1
      vertex 2.41642 43.5886 3.1
      vertex 3.52442 41.6695 3.1
    endloop
  endfacet
  facet normal -0 0 1
    outer loop
      vertex 1.73164 50.1039 3.1
      vertex 2.41642 43.5886 3.1
      vertex 2.41642 52.2114 3.1
    endloop
  endfacet
  facet normal 0 0 1
    outer loop
      vertex 1.73164 50.1039 3.1
      vertex 1.73164 45.6961 3.1
      vertex 2.41642 43.5886 3.1
    endloop
  endfacet
  facet normal 0 -0 1
    outer loop
      vertex 1.73164 45.6961 3.1
      vertex 1.73164 50.1039 3.1
      vertex 1.5 47.9 3.1
    endloop
  endfacet
  facet normal 0.866026 -0.5 0
    outer loop
      vertex 2.41642 52.2114 25
      vertex 3.52442 54.1305 3.1
      vertex 3.52442 54.1305 25
    endloop
  endfacet
  facet normal 0.866026 -0.5 0
    outer loop
      vertex 3.52442 54.1305 3.1
      vertex 2.41642 52.2114 25
      vertex 2.41642 52.2114 3.1
    endloop
  endfacet
  facet normal 0.994522 -0.104528 0
    outer loop
      vertex 1.5 47.9 25
      vertex 1.73164 50.1039 3.1
      vertex 1.73164 50.1039 25
    endloop
  endfacet
  facet normal 0.994522 -0.104528 0
    outer loop
      vertex 1.73164 50.1039 3.1
      vertex 1.5 47.9 25
      vertex 1.5 47.9 3.1
    endloop
  endfacet
  facet normal 0.587782 -0.809019 0
    outer loop
      vertex 5.00722 55.7773 3.1
      vertex 5.31369 56 25
      vertex 5.00722 55.7773 25
    endloop
  endfacet
  facet normal 0.587782 -0.809019 0
    outer loop
      vertex 5.31369 56 25
      vertex 5.00722 55.7773 3.1
      vertex 5.31369 56 3.1
    endloop
  endfacet
  facet normal -0.207913 0.978147 0
    outer loop
      vertex 15.3756 37.8188 3.1
      vertex 13.208 37.3581 25
      vertex 15.3756 37.8188 25
    endloop
  endfacet
  facet normal -0.207913 0.978147 0
    outer loop
      vertex 13.208 37.3581 25
      vertex 15.3756 37.8188 3.1
      vertex 13.208 37.3581 3.1
    endloop
  endfacet
  facet normal -0.587785 0.809017 0
    outer loop
      vertex 19.1928 40.0227 3.1
      vertex 17.4 38.7201 25
      vertex 19.1928 40.0227 25
    endloop
  endfacet
  facet normal -0.587785 0.809017 0
    outer loop
      vertex 17.4 38.7201 25
      vertex 19.1928 40.0227 3.1
      vertex 17.4 38.7201 3.1
    endloop
  endfacet
  facet normal 0.406736 0.913546 -0
    outer loop
      vertex 8.82442 37.8188 3.1
      vertex 6.8 38.7201 25
      vertex 8.82442 37.8188 25
    endloop
  endfacet
  facet normal 0.406736 0.913546 0
    outer loop
      vertex 6.8 38.7201 25
      vertex 8.82442 37.8188 3.1
      vertex 6.8 38.7201 3.1
    endloop
  endfacet
  facet normal 0 1 -0
    outer loop
      vertex 13.208 37.3581 3.1
      vertex 10.992 37.3581 25
      vertex 13.208 37.3581 25
    endloop
  endfacet
  facet normal 0 1 0
    outer loop
      vertex 10.992 37.3581 25
      vertex 13.208 37.3581 3.1
      vertex 10.992 37.3581 3.1
    endloop
  endfacet
  facet normal 0.743145 0.66913 0
    outer loop
      vertex 5.00722 40.0227 25
      vertex 3.52442 41.6695 3.1
      vertex 3.52442 41.6695 25
    endloop
  endfacet
  facet normal 0.743145 0.66913 0
    outer loop
      vertex 3.52442 41.6695 3.1
      vertex 5.00722 40.0227 25
      vertex 5.00722 40.0227 3.1
    endloop
  endfacet
  facet normal 0.951056 0.309017 0
    outer loop
      vertex 2.41642 43.5886 25
      vertex 1.73164 45.6961 3.1
      vertex 1.73164 45.6961 25
    endloop
  endfacet
  facet normal 0.951056 0.309017 0
    outer loop
      vertex 1.73164 45.6961 3.1
      vertex 2.41642 43.5886 25
      vertex 2.41642 43.5886 3.1
    endloop
  endfacet
  facet normal 0.994522 0.104528 0
    outer loop
      vertex 1.73164 45.6961 25
      vertex 1.5 47.9 3.1
      vertex 1.5 47.9 25
    endloop
  endfacet
  facet normal 0.994522 0.104528 0
    outer loop
      vertex 1.5 47.9 3.1
      vertex 1.73164 45.6961 25
      vertex 1.73164 45.6961 3.1
    endloop
  endfacet
  facet normal -0.406736 0.913546 0
    outer loop
      vertex 17.4 38.7201 3.1
      vertex 15.3756 37.8188 25
      vertex 17.4 38.7201 25
    endloop
  endfacet
  facet normal -0.406736 0.913546 0
    outer loop
      vertex 15.3756 37.8188 25
      vertex 17.4 38.7201 3.1
      vertex 15.3756 37.8188 3.1
    endloop
  endfacet
  facet normal -0.951056 0.309018 0
    outer loop
      vertex 21.7836 43.5886 3.1
      vertex 22.4684 45.6961 25
      vertex 22.4684 45.6961 3.1
    endloop
  endfacet
  facet normal -0.951056 0.309018 0
    outer loop
      vertex 22.4684 45.6961 25
      vertex 21.7836 43.5886 3.1
      vertex 21.7836 43.5886 25
    endloop
  endfacet
  facet normal -0.866026 0.5 0
    outer loop
      vertex 20.6756 41.6695 3.1
      vertex 21.7836 43.5886 25
      vertex 21.7836 43.5886 3.1
    endloop
  endfacet
  facet normal -0.866026 0.5 0
    outer loop
      vertex 21.7836 43.5886 25
      vertex 20.6756 41.6695 3.1
      vertex 20.6756 41.6695 25
    endloop
  endfacet
  facet normal -0.994522 0.104529 0
    outer loop
      vertex 22.4684 45.6961 3.1
      vertex 22.7 47.9 25
      vertex 22.7 47.9 3.1
    endloop
  endfacet
  facet normal -0.994522 0.104529 0
    outer loop
      vertex 22.7 47.9 25
      vertex 22.4684 45.6961 3.1
      vertex 22.4684 45.6961 25
    endloop
  endfacet
  facet normal 0.207913 0.978147 -0
    outer loop
      vertex 10.992 37.3581 3.1
      vertex 8.82442 37.8188 25
      vertex 10.992 37.3581 25
    endloop
  endfacet
  facet normal 0.207913 0.978147 0
    outer loop
      vertex 8.82442 37.8188 25
      vertex 10.992 37.3581 3.1
      vertex 8.82442 37.8188 3.1
    endloop
  endfacet
  facet normal 0.866026 0.5 0
    outer loop
      vertex 3.52442 41.6695 25
      vertex 2.41642 43.5886 3.1
      vertex 2.41642 43.5886 25
    endloop
  endfacet
  facet normal 0.866026 0.5 0
    outer loop
      vertex 2.41642 43.5886 3.1
      vertex 3.52442 41.6695 25
      vertex 3.52442 41.6695 3.1
    endloop
  endfacet
  facet normal -0.994522 -0.104529 0
    outer loop
      vertex 45.5 47.9 3.1
      vertex 45.2684 50.1039 25
      vertex 45.2684 50.1039 3.1
    endloop
  endfacet
  facet normal -0.994522 -0.104529 0
    outer loop
      vertex 45.2684 50.1039 25
      vertex 45.5 47.9 3.1
      vertex 45.5 47.9 25
    endloop
  endfacet
  facet normal 0.994522 -0.104529 0
    outer loop
      vertex 24.3 47.9 25
      vertex 24.5316 50.1039 3.1
      vertex 24.5316 50.1039 25
    endloop
  endfacet
  facet normal 0.994522 -0.104529 0
    outer loop
      vertex 24.5316 50.1039 3.1
      vertex 24.3 47.9 25
      vertex 24.3 47.9 3.1
    endloop
  endfacet
  facet normal 0 1 -0
    outer loop
      vertex 36.008 37.3581 3.1
      vertex 33.792 37.3581 25
      vertex 36.008 37.3581 25
    endloop
  endfacet
  facet normal 0 1 0
    outer loop
      vertex 33.792 37.3581 25
      vertex 36.008 37.3581 3.1
      vertex 33.792 37.3581 3.1
    endloop
  endfacet
  facet normal -0.587782 -0.809019 0
    outer loop
      vertex 41.6863 56 3.1
      vertex 41.9928 55.7773 25
      vertex 41.6863 56 25
    endloop
  endfacet
  facet normal -0.587782 -0.809019 -0
    outer loop
      vertex 41.9928 55.7773 25
      vertex 41.6863 56 3.1
      vertex 41.9928 55.7773 3.1
    endloop
  endfacet
  facet normal 0.587782 -0.809019 0
    outer loop
      vertex 27.8072 55.7773 3.1
      vertex 28.1137 56 25
      vertex 27.8072 55.7773 25
    endloop
  endfacet
  facet normal 0.587782 -0.809019 0
    outer loop
      vertex 28.1137 56 25
      vertex 27.8072 55.7773 3.1
      vertex 28.1137 56 3.1
    endloop
  endfacet
  facet normal -0.951056 0.309018 0
    outer loop
      vertex 44.5836 43.5886 3.1
      vertex 45.2684 45.6961 25
      vertex 45.2684 45.6961 3.1
    endloop
  endfacet
  facet normal -0.951056 0.309018 0
    outer loop
      vertex 45.2684 45.6961 25
      vertex 44.5836 43.5886 3.1
      vertex 44.5836 43.5886 25
    endloop
  endfacet
  facet normal -0.866026 -0.5 0
    outer loop
      vertex 44.5836 52.2114 3.1
      vertex 43.4756 54.1305 25
      vertex 43.4756 54.1305 3.1
    endloop
  endfacet
  facet normal -0.866026 -0.5 0
    outer loop
      vertex 43.4756 54.1305 25
      vertex 44.5836 52.2114 3.1
      vertex 44.5836 52.2114 25
    endloop
  endfacet
  facet normal -0.951056 -0.309018 0
    outer loop
      vertex 45.2684 50.1039 3.1
      vertex 44.5836 52.2114 25
      vertex 44.5836 52.2114 3.1
    endloop
  endfacet
  facet normal -0.951056 -0.309018 0
    outer loop
      vertex 44.5836 52.2114 25
      vertex 45.2684 50.1039 3.1
      vertex 45.2684 50.1039 25
    endloop
  endfacet
  facet normal -0.743145 -0.66913 0
    outer loop
      vertex 43.4756 54.1305 3.1
      vertex 41.9928 55.7773 25
      vertex 41.9928 55.7773 3.1
    endloop
  endfacet
  facet normal -0.743145 -0.66913 0
    outer loop
      vertex 41.9928 55.7773 25
      vertex 43.4756 54.1305 3.1
      vertex 43.4756 54.1305 25
    endloop
  endfacet
  facet normal 0.866026 -0.5 0
    outer loop
      vertex 25.2164 52.2114 25
      vertex 26.3244 54.1305 3.1
      vertex 26.3244 54.1305 25
    endloop
  endfacet
  facet normal 0.866026 -0.5 0
    outer loop
      vertex 26.3244 54.1305 3.1
      vertex 25.2164 52.2114 25
      vertex 25.2164 52.2114 3.1
    endloop
  endfacet
  facet normal 0.743145 -0.66913 0
    outer loop
      vertex 26.3244 54.1305 25
      vertex 27.8072 55.7773 3.1
      vertex 27.8072 55.7773 25
    endloop
  endfacet
  facet normal 0.743145 -0.66913 0
    outer loop
      vertex 27.8072 55.7773 3.1
      vertex 26.3244 54.1305 25
      vertex 26.3244 54.1305 3.1
    endloop
  endfacet
  facet normal 0.951057 -0.309017 0
    outer loop
      vertex 24.5316 50.1039 25
      vertex 25.2164 52.2114 3.1
      vertex 25.2164 52.2114 25
    endloop
  endfacet
  facet normal 0.951057 -0.309017 0
    outer loop
      vertex 25.2164 52.2114 3.1
      vertex 24.5316 50.1039 25
      vertex 24.5316 50.1039 3.1
    endloop
  endfacet
  facet normal -0.994522 0.104529 0
    outer loop
      vertex 45.2684 45.6961 3.1
      vertex 45.5 47.9 25
      vertex 45.5 47.9 3.1
    endloop
  endfacet
  facet normal -0.994522 0.104529 0
    outer loop
      vertex 45.5 47.9 25
      vertex 45.2684 45.6961 3.1
      vertex 45.2684 45.6961 25
    endloop
  endfacet
  facet normal 0 0 1
    outer loop
      vertex 45.2684 50.1039 3.1
      vertex 45.2684 45.6961 3.1
      vertex 45.5 47.9 3.1
    endloop
  endfacet
  facet normal 0 0 1
    outer loop
      vertex 44.5836 52.2114 3.1
      vertex 45.2684 45.6961 3.1
      vertex 45.2684 50.1039 3.1
    endloop
  endfacet
  facet normal 0 0 1
    outer loop
      vertex 44.5836 52.2114 3.1
      vertex 44.5836 43.5886 3.1
      vertex 45.2684 45.6961 3.1
    endloop
  endfacet
  facet normal 0 0 1
    outer loop
      vertex 41.6863 56 3.1
      vertex 44.5836 52.2114 3.1
      vertex 43.4756 54.1305 3.1
    endloop
  endfacet
  facet normal 0 0 1
    outer loop
      vertex 44.5836 52.2114 3.1
      vertex 41.6863 56 3.1
      vertex 44.5836 43.5886 3.1
    endloop
  endfacet
  facet normal 0 0 1
    outer loop
      vertex 41.6863 56 3.1
      vertex 43.4756 54.1305 3.1
      vertex 41.9928 55.7773 3.1
    endloop
  endfacet
  facet normal 0 0 1
    outer loop
      vertex 44.5836 43.5886 3.1
      vertex 41.6863 56 3.1
      vertex 43.4756 41.6695 3.1
    endloop
  endfacet
  facet normal 0 0 1
    outer loop
      vertex 43.4756 41.6695 3.1
      vertex 41.6863 56 3.1
      vertex 41.9928 40.0227 3.1
    endloop
  endfacet
  facet normal 0 0 1
    outer loop
      vertex 41.6863 56 3.1
      vertex 40.2 38.7201 3.1
      vertex 41.9928 40.0227 3.1
    endloop
  endfacet
  facet normal 0 0 1
    outer loop
      vertex 41.6863 56 3.1
      vertex 38.1756 37.8188 3.1
      vertex 40.2 38.7201 3.1
    endloop
  endfacet
  facet normal 0 0 1
    outer loop
      vertex 41.6863 56 3.1
      vertex 36.008 37.3581 3.1
      vertex 38.1756 37.8188 3.1
    endloop
  endfacet
  facet normal 0 0 1
    outer loop
      vertex 41.6863 56 3.1
      vertex 33.792 37.3581 3.1
      vertex 36.008 37.3581 3.1
    endloop
  endfacet
  facet normal 0 0 1
    outer loop
      vertex 41.6863 56 3.1
      vertex 31.6244 37.8188 3.1
      vertex 33.792 37.3581 3.1
    endloop
  endfacet
  facet normal 0 0 1
    outer loop
      vertex 41.6863 56 3.1
      vertex 29.6 38.7201 3.1
      vertex 31.6244 37.8188 3.1
    endloop
  endfacet
  facet normal -0 0 1
    outer loop
      vertex 28.1137 56 3.1
      vertex 29.6 38.7201 3.1
      vertex 41.6863 56 3.1
    endloop
  endfacet
  facet normal 0 0 1
    outer loop
      vertex 26.3244 54.1305 3.1
      vertex 28.1137 56 3.1
      vertex 27.8072 55.7773 3.1
    endloop
  endfacet
  facet normal 0 0 1
    outer loop
      vertex 28.1137 56 3.1
      vertex 27.8072 40.0227 3.1
      vertex 29.6 38.7201 3.1
    endloop
  endfacet
  facet normal 0 0 1
    outer loop
      vertex 25.2164 52.2114 3.1
      vertex 28.1137 56 3.1
      vertex 26.3244 54.1305 3.1
    endloop
  endfacet
  facet normal 0 0 1
    outer loop
      vertex 28.1137 56 3.1
      vertex 26.3244 41.6695 3.1
      vertex 27.8072 40.0227 3.1
    endloop
  endfacet
  facet normal 0 0 1
    outer loop
      vertex 28.1137 56 3.1
      vertex 25.2164 52.2114 3.1
      vertex 26.3244 41.6695 3.1
    endloop
  endfacet
  facet normal 0 0 1
    outer loop
      vertex 25.2164 52.2114 3.1
      vertex 25.2164 43.5886 3.1
      vertex 26.3244 41.6695 3.1
    endloop
  endfacet
  facet normal -0 0 1
    outer loop
      vertex 24.5316 50.1039 3.1
      vertex 25.2164 43.5886 3.1
      vertex 25.2164 52.2114 3.1
    endloop
  endfacet
  facet normal 0 0 1
    outer loop
      vertex 24.5316 50.1039 3.1
      vertex 24.5316 45.6961 3.1
      vertex 25.2164 43.5886 3.1
    endloop
  endfacet
  facet normal 0 -0 1
    outer loop
      vertex 24.5316 45.6961 3.1
      vertex 24.5316 50.1039 3.1
      vertex 24.3 47.9 3.1
    endloop
  endfacet
  facet normal -0.866026 0.5 0
    outer loop
      vertex 43.4756 41.6695 3.1
      vertex 44.5836 43.5886 25
      vertex 44.5836 43.5886 3.1
    endloop
  endfacet
  facet normal -0.866026 0.5 0
    outer loop
      vertex 44.5836 43.5886 25
      vertex 43.4756 41.6695 3.1
      vertex 43.4756 41.6695 25
    endloop
  endfacet
  facet normal 0.587785 0.809017 -0
    outer loop
      vertex 29.6 38.7201 3.1
      vertex 27.8072 40.0227 25
      vertex 29.6 38.7201 25
    endloop
  endfacet
  facet normal 0.587785 0.809017 0
    outer loop
      vertex 27.8072 40.0227 25
      vertex 29.6 38.7201 3.1
      vertex 27.8072 40.0227 3.1
    endloop
  endfacet
  facet normal 0.866026 0.5 0
    outer loop
      vertex 26.3244 41.6695 25
      vertex 25.2164 43.5886 3.1
      vertex 25.2164 43.5886 25
    endloop
  endfacet
  facet normal 0.866026 0.5 0
    outer loop
      vertex 25.2164 43.5886 3.1
      vertex 26.3244 41.6695 25
      vertex 26.3244 41.6695 3.1
    endloop
  endfacet
  facet normal 0.743145 0.66913 0
    outer loop
      vertex 27.8072 40.0227 25
      vertex 26.3244 41.6695 3.1
      vertex 26.3244 41.6695 25
    endloop
  endfacet
  facet normal 0.743145 0.66913 0
    outer loop
      vertex 26.3244 41.6695 3.1
      vertex 27.8072 40.0227 25
      vertex 27.8072 40.0227 3.1
    endloop
  endfacet
  facet normal 0.994522 0.104529 0
    outer loop
      vertex 24.5316 45.6961 25
      vertex 24.3 47.9 3.1
      vertex 24.3 47.9 25
    endloop
  endfacet
  facet normal 0.994522 0.104529 0
    outer loop
      vertex 24.3 47.9 3.1
      vertex 24.5316 45.6961 25
      vertex 24.5316 45.6961 3.1
    endloop
  endfacet
  facet normal -0.207913 0.978147 0
    outer loop
      vertex 38.1756 37.8188 3.1
      vertex 36.008 37.3581 25
      vertex 38.1756 37.8188 25
    endloop
  endfacet
  facet normal -0.207913 0.978147 0
    outer loop
      vertex 36.008 37.3581 25
      vertex 38.1756 37.8188 3.1
      vertex 36.008 37.3581 3.1
    endloop
  endfacet
  facet normal -0.587785 0.809017 0
    outer loop
      vertex 41.9928 40.0227 3.1
      vertex 40.2 38.7201 25
      vertex 41.9928 40.0227 25
    endloop
  endfacet
  facet normal -0.587785 0.809017 0
    outer loop
      vertex 40.2 38.7201 25
      vertex 41.9928 40.0227 3.1
      vertex 40.2 38.7201 3.1
    endloop
  endfacet
  facet normal 0.951057 0.309017 0
    outer loop
      vertex 25.2164 43.5886 25
      vertex 24.5316 45.6961 3.1
      vertex 24.5316 45.6961 25
    endloop
  endfacet
  facet normal 0.951057 0.309017 0
    outer loop
      vertex 24.5316 45.6961 3.1
      vertex 25.2164 43.5886 25
      vertex 25.2164 43.5886 3.1
    endloop
  endfacet
  facet normal -0.406736 0.913546 0
    outer loop
      vertex 40.2 38.7201 3.1
      vertex 38.1756 37.8188 25
      vertex 40.2 38.7201 25
    endloop
  endfacet
  facet normal -0.406736 0.913546 0
    outer loop
      vertex 38.1756 37.8188 25
      vertex 40.2 38.7201 3.1
      vertex 38.1756 37.8188 3.1
    endloop
  endfacet
  facet normal -0.743145 0.66913 0
    outer loop
      vertex 41.9928 40.0227 3.1
      vertex 43.4756 41.6695 25
      vertex 43.4756 41.6695 3.1
    endloop
  endfacet
  facet normal -0.743145 0.66913 0
    outer loop
      vertex 43.4756 41.6695 25
      vertex 41.9928 40.0227 3.1
      vertex 41.9928 40.0227 25
    endloop
  endfacet
  facet normal 0.406736 0.913546 -0
    outer loop
      vertex 31.6244 37.8188 3.1
      vertex 29.6 38.7201 25
      vertex 31.6244 37.8188 25
    endloop
  endfacet
  facet normal 0.406736 0.913546 0
    outer loop
      vertex 29.6 38.7201 25
      vertex 31.6244 37.8188 3.1
      vertex 29.6 38.7201 3.1
    endloop
  endfacet
  facet normal 0.207913 0.978147 -0
    outer loop
      vertex 33.792 37.3581 3.1
      vertex 31.6244 37.8188 25
      vertex 33.792 37.3581 25
    endloop
  endfacet
  facet normal 0.207913 0.978147 0
    outer loop
      vertex 31.6244 37.8188 25
      vertex 33.792 37.3581 3.1
      vertex 31.6244 37.8188 3.1
    endloop
  endfacet
  facet normal -0.992115 -0.125334 0
    outer loop
      vertex 31.2 32 20.8
      vertex 30.9581 33.9149 25
      vertex 30.9581 33.9149 20.8
    endloop
  endfacet
  facet normal -0.992115 -0.125334 0
    outer loop
      vertex 30.9581 33.9149 25
      vertex 31.2 32 20.8
      vertex 31.2 32 25
    endloop
  endfacet
  facet normal 1 -0 0
    outer loop
      vertex 15.8607 31.0349 25
      vertex 15.8607 32.9651 20.8
      vertex 15.8607 32.9651 25
    endloop
  endfacet
  facet normal 1 0 0
    outer loop
      vertex 15.8607 32.9651 20.8
      vertex 15.8607 31.0349 25
      vertex 15.8607 31.0349 20.8
    endloop
  endfacet
  facet normal 0.062792 -0.998027 0
    outer loop
      vertex 22.0572 39.5636 20.8
      vertex 23.9835 39.6848 25
      vertex 22.0572 39.5636 25
    endloop
  endfacet
  facet normal 0.062792 -0.998027 0
    outer loop
      vertex 23.9835 39.6848 25
      vertex 22.0572 39.5636 20.8
      vertex 23.9835 39.6848 20.8
    endloop
  endfacet
  facet normal -0.187382 0.982287 0
    outer loop
      vertex 25.8794 24.6769 20.8
      vertex 23.9835 24.3152 25
      vertex 25.8794 24.6769 25
    endloop
  endfacet
  facet normal -0.187382 0.982287 0
    outer loop
      vertex 23.9835 24.3152 25
      vertex 25.8794 24.6769 20.8
      vertex 23.9835 24.3152 20.8
    endloop
  endfacet
  facet normal -0.637424 -0.770513 0
    outer loop
      vertex 27.6259 38.5013 20.8
      vertex 29.1131 37.271 25
      vertex 27.6259 38.5013 25
    endloop
  endfacet
  facet normal -0.637424 -0.770513 -0
    outer loop
      vertex 29.1131 37.271 25
      vertex 27.6259 38.5013 20.8
      vertex 29.1131 37.271 20.8
    endloop
  endfacet
  facet normal -0.42578 -0.904827 0
    outer loop
      vertex 25.8794 39.3231 20.8
      vertex 27.6259 38.5013 25
      vertex 25.8794 39.3231 25
    endloop
  endfacet
  facet normal -0.42578 -0.904827 -0
    outer loop
      vertex 27.6259 38.5013 25
      vertex 25.8794 39.3231 20.8
      vertex 27.6259 38.5013 20.8
    endloop
  endfacet
  facet normal 0.728969 -0.684547 0
    outer loop
      vertex 17.2706 36.5259 25
      vertex 18.5918 37.933 20.8
      vertex 18.5918 37.933 25
    endloop
  endfacet
  facet normal 0.728969 -0.684547 0
    outer loop
      vertex 18.5918 37.933 20.8
      vertex 17.2706 36.5259 25
      vertex 17.2706 36.5259 20.8
    endloop
  endfacet
  facet normal 0.876307 -0.481753 0
    outer loop
      vertex 16.3407 34.8346 25
      vertex 17.2706 36.5259 20.8
      vertex 17.2706 36.5259 25
    endloop
  endfacet
  facet normal 0.876307 -0.481753 0
    outer loop
      vertex 17.2706 36.5259 20.8
      vertex 16.3407 34.8346 25
      vertex 16.3407 34.8346 20.8
    endloop
  endfacet
  facet normal 0.535826 -0.844329 0
    outer loop
      vertex 18.5918 37.933 20.8
      vertex 20.2215 38.9672 25
      vertex 18.5918 37.933 25
    endloop
  endfacet
  facet normal 0.535826 -0.844329 0
    outer loop
      vertex 20.2215 38.9672 25
      vertex 18.5918 37.933 20.8
      vertex 20.2215 38.9672 20.8
    endloop
  endfacet
  facet normal 0 0 1
    outer loop
      vertex 30.9581 33.9149 20.8
      vertex 30.9581 30.0851 20.8
      vertex 31.2 32 20.8
    endloop
  endfacet
  facet normal 0 0 1
    outer loop
      vertex 30.2476 35.7095 20.8
      vertex 30.9581 30.0851 20.8
      vertex 30.9581 33.9149 20.8
    endloop
  endfacet
  facet normal 0 0 1
    outer loop
      vertex 30.2476 35.7095 20.8
      vertex 30.2476 28.2905 20.8
      vertex 30.9581 30.0851 20.8
    endloop
  endfacet
  facet normal 0 0 1
    outer loop
      vertex 29.1131 37.271 20.8
      vertex 30.2476 28.2905 20.8
      vertex 30.2476 35.7095 20.8
    endloop
  endfacet
  facet normal 0 0 1
    outer loop
      vertex 29.1131 37.271 20.8
      vertex 29.1131 26.729 20.8
      vertex 30.2476 28.2905 20.8
    endloop
  endfacet
  facet normal 0 0 1
    outer loop
      vertex 27.6259 38.5013 20.8
      vertex 29.1131 26.729 20.8
      vertex 29.1131 37.271 20.8
    endloop
  endfacet
  facet normal 0 0 1
    outer loop
      vertex 27.6259 38.5013 20.8
      vertex 27.6259 25.4987 20.8
      vertex 29.1131 26.729 20.8
    endloop
  endfacet
  facet normal 0 0 1
    outer loop
      vertex 25.8794 39.3231 20.8
      vertex 27.6259 25.4987 20.8
      vertex 27.6259 38.5013 20.8
    endloop
  endfacet
  facet normal 0 0 1
    outer loop
      vertex 25.8794 39.3231 20.8
      vertex 25.8794 24.6769 20.8
      vertex 27.6259 25.4987 20.8
    endloop
  endfacet
  facet normal 0 0 1
    outer loop
      vertex 23.9835 39.6848 20.8
      vertex 25.8794 24.6769 20.8
      vertex 25.8794 39.3231 20.8
    endloop
  endfacet
  facet normal 0 0 1
    outer loop
      vertex 23.9835 39.6848 20.8
      vertex 23.9835 24.3152 20.8
      vertex 25.8794 24.6769 20.8
    endloop
  endfacet
  facet normal -0 0 1
    outer loop
      vertex 22.0572 39.5636 20.8
      vertex 23.9835 24.3152 20.8
      vertex 23.9835 39.6848 20.8
    endloop
  endfacet
  facet normal 0 0 1
    outer loop
      vertex 22.0572 39.5636 20.8
      vertex 22.0572 24.4364 20.8
      vertex 23.9835 24.3152 20.8
    endloop
  endfacet
  facet normal -0 0 1
    outer loop
      vertex 20.2215 38.9672 20.8
      vertex 22.0572 24.4364 20.8
      vertex 22.0572 39.5636 20.8
    endloop
  endfacet
  facet normal 0 0 1
    outer loop
      vertex 20.2215 38.9672 20.8
      vertex 20.2215 25.0328 20.8
      vertex 22.0572 24.4364 20.8
    endloop
  endfacet
  facet normal -0 0 1
    outer loop
      vertex 18.5918 37.933 20.8
      vertex 20.2215 25.0328 20.8
      vertex 20.2215 38.9672 20.8
    endloop
  endfacet
  facet normal 0 0 1
    outer loop
      vertex 18.5918 37.933 20.8
      vertex 18.5918 26.067 20.8
      vertex 20.2215 25.0328 20.8
    endloop
  endfacet
  facet normal -0 0 1
    outer loop
      vertex 17.2706 36.5259 20.8
      vertex 18.5918 26.067 20.8
      vertex 18.5918 37.933 20.8
    endloop
  endfacet
  facet normal 0 0 1
    outer loop
      vertex 17.2706 36.5259 20.8
      vertex 17.2706 27.4741 20.8
      vertex 18.5918 26.067 20.8
    endloop
  endfacet
  facet normal -0 0 1
    outer loop
      vertex 16.3407 34.8346 20.8
      vertex 17.2706 27.4741 20.8
      vertex 17.2706 36.5259 20.8
    endloop
  endfacet
  facet normal 0 0 1
    outer loop
      vertex 16.3407 34.8346 20.8
      vertex 16.3407 29.1654 20.8
      vertex 17.2706 27.4741 20.8
    endloop
  endfacet
  facet normal -0 0 1
    outer loop
      vertex 15.8607 32.9651 20.8
      vertex 16.3407 29.1654 20.8
      vertex 16.3407 34.8346 20.8
    endloop
  endfacet
  facet normal 0 0 1
    outer loop
      vertex 16.3407 29.1654 20.8
      vertex 15.8607 32.9651 20.8
      vertex 15.8607 31.0349 20.8
    endloop
  endfacet
  facet normal -0.929776 0.368125 0
    outer loop
      vertex 30.2476 28.2905 20.8
      vertex 30.9581 30.0851 25
      vertex 30.9581 30.0851 20.8
    endloop
  endfacet
  facet normal -0.929776 0.368125 0
    outer loop
      vertex 30.9581 30.0851 25
      vertex 30.2476 28.2905 20.8
      vertex 30.2476 28.2905 25
    endloop
  endfacet
  facet normal -0.809017 -0.587785 0
    outer loop
      vertex 30.2476 35.7095 20.8
      vertex 29.1131 37.271 25
      vertex 29.1131 37.271 20.8
    endloop
  endfacet
  facet normal -0.809017 -0.587785 0
    outer loop
      vertex 29.1131 37.271 25
      vertex 30.2476 35.7095 20.8
      vertex 30.2476 35.7095 25
    endloop
  endfacet
  facet normal -0.929777 -0.368124 0
    outer loop
      vertex 30.9581 33.9149 20.8
      vertex 30.2476 35.7095 25
      vertex 30.2476 35.7095 20.8
    endloop
  endfacet
  facet normal -0.929777 -0.368124 0
    outer loop
      vertex 30.2476 35.7095 25
      vertex 30.9581 33.9149 20.8
      vertex 30.9581 33.9149 25
    endloop
  endfacet
  facet normal -0.187382 -0.982287 0
    outer loop
      vertex 23.9835 39.6848 20.8
      vertex 25.8794 39.3231 25
      vertex 23.9835 39.6848 25
    endloop
  endfacet
  facet normal -0.187382 -0.982287 -0
    outer loop
      vertex 25.8794 39.3231 25
      vertex 23.9835 39.6848 20.8
      vertex 25.8794 39.3231 20.8
    endloop
  endfacet
  facet normal 0.968583 -0.248691 0
    outer loop
      vertex 15.8607 32.9651 25
      vertex 16.3407 34.8346 20.8
      vertex 16.3407 34.8346 25
    endloop
  endfacet
  facet normal 0.968583 -0.248691 0
    outer loop
      vertex 16.3407 34.8346 20.8
      vertex 15.8607 32.9651 25
      vertex 15.8607 32.9651 20.8
    endloop
  endfacet
  facet normal 0.309017 -0.951056 0
    outer loop
      vertex 20.2215 38.9672 20.8
      vertex 22.0572 39.5636 25
      vertex 20.2215 38.9672 25
    endloop
  endfacet
  facet normal 0.309017 -0.951056 0
    outer loop
      vertex 22.0572 39.5636 25
      vertex 20.2215 38.9672 20.8
      vertex 22.0572 39.5636 20.8
    endloop
  endfacet
  facet normal 0.968583 0.24869 0
    outer loop
      vertex 16.3407 29.1654 25
      vertex 15.8607 31.0349 20.8
      vertex 15.8607 31.0349 25
    endloop
  endfacet
  facet normal 0.968583 0.24869 0
    outer loop
      vertex 15.8607 31.0349 20.8
      vertex 16.3407 29.1654 25
      vertex 16.3407 29.1654 20.8
    endloop
  endfacet
  facet normal -0.809017 0.587785 0
    outer loop
      vertex 29.1131 26.729 20.8
      vertex 30.2476 28.2905 25
      vertex 30.2476 28.2905 20.8
    endloop
  endfacet
  facet normal -0.809017 0.587785 0
    outer loop
      vertex 30.2476 28.2905 25
      vertex 29.1131 26.729 20.8
      vertex 29.1131 26.729 25
    endloop
  endfacet
  facet normal -0.992115 0.125334 0
    outer loop
      vertex 30.9581 30.0851 20.8
      vertex 31.2 32 25
      vertex 31.2 32 20.8
    endloop
  endfacet
  facet normal -0.992115 0.125334 0
    outer loop
      vertex 31.2 32 25
      vertex 30.9581 30.0851 20.8
      vertex 30.9581 30.0851 25
    endloop
  endfacet
  facet normal 0.535826 0.844328 -0
    outer loop
      vertex 20.2215 25.0328 20.8
      vertex 18.5918 26.067 25
      vertex 20.2215 25.0328 25
    endloop
  endfacet
  facet normal 0.535826 0.844328 0
    outer loop
      vertex 18.5918 26.067 25
      vertex 20.2215 25.0328 20.8
      vertex 18.5918 26.067 20.8
    endloop
  endfacet
  facet normal 0.876307 0.481754 0
    outer loop
      vertex 17.2706 27.4741 25
      vertex 16.3407 29.1654 20.8
      vertex 16.3407 29.1654 25
    endloop
  endfacet
  facet normal 0.876307 0.481754 0
    outer loop
      vertex 16.3407 29.1654 20.8
      vertex 17.2706 27.4741 25
      vertex 17.2706 27.4741 20.8
    endloop
  endfacet
  facet normal 0.728969 0.684547 0
    outer loop
      vertex 18.5918 26.067 25
      vertex 17.2706 27.4741 20.8
      vertex 17.2706 27.4741 25
    endloop
  endfacet
  facet normal 0.728969 0.684547 0
    outer loop
      vertex 17.2706 27.4741 20.8
      vertex 18.5918 26.067 25
      vertex 18.5918 26.067 20.8
    endloop
  endfacet
  facet normal -0.425779 0.904827 0
    outer loop
      vertex 27.6259 25.4987 20.8
      vertex 25.8794 24.6769 25
      vertex 27.6259 25.4987 25
    endloop
  endfacet
  facet normal -0.425779 0.904827 0
    outer loop
      vertex 25.8794 24.6769 25
      vertex 27.6259 25.4987 20.8
      vertex 25.8794 24.6769 20.8
    endloop
  endfacet
  facet normal 0.062791 0.998027 -0
    outer loop
      vertex 23.9835 24.3152 20.8
      vertex 22.0572 24.4364 25
      vertex 23.9835 24.3152 25
    endloop
  endfacet
  facet normal 0.062791 0.998027 0
    outer loop
      vertex 22.0572 24.4364 25
      vertex 23.9835 24.3152 20.8
      vertex 22.0572 24.4364 20.8
    endloop
  endfacet
  facet normal -0.637424 0.770513 0
    outer loop
      vertex 29.1131 26.729 20.8
      vertex 27.6259 25.4987 25
      vertex 29.1131 26.729 25
    endloop
  endfacet
  facet normal -0.637424 0.770513 0
    outer loop
      vertex 27.6259 25.4987 25
      vertex 29.1131 26.729 20.8
      vertex 27.6259 25.4987 20.8
    endloop
  endfacet
  facet normal 0.309017 0.951056 -0
    outer loop
      vertex 22.0572 24.4364 20.8
      vertex 20.2215 25.0328 25
      vertex 22.0572 24.4364 25
    endloop
  endfacet
  facet normal 0.309017 0.951056 0
    outer loop
      vertex 20.2215 25.0328 25
      vertex 22.0572 24.4364 20.8
      vertex 20.2215 25.0328 20.8
    endloop
  endfacet
endsolid OpenSCAD_Model
