solid OpenSCAD_Model
  facet normal -0.866023 -0.500004 0
    outer loop
      vertex -31.2135 -0.0632928 0
      vertex -31.25 6.2029e-007 2
      vertex -31.25 6.2029e-007 0
    endloop
  endfacet
  facet normal -0.866023 -0.500004 0
    outer loop
      vertex -31.25 6.2029e-007 2
      vertex -31.2135 -0.0632928 0
      vertex -31.2135 -0.0632928 2
    endloop
  endfacet
  facet normal -0.866025 0.5 0
    outer loop
      vertex -31.25 6.2029e-007 0
      vertex -20.2008 19.1378 2
      vertex -20.2008 19.1378 0
    endloop
  endfacet
  facet normal -0.866025 0.5 0
    outer loop
      vertex -20.2008 19.1378 2
      vertex -31.25 6.2029e-007 0
      vertex -31.25 6.2029e-007 2
    endloop
  endfacet
  facet normal 0 0 1
    outer loop
      vertex -8.63582 56.8939 2
      vertex 15.4005 65.6011 2
      vertex -7.87473 58.6033 2
    endloop
  endfacet
  facet normal 0 0 1
    outer loop
      vertex 15.4005 65.6011 2
      vertex -8.63582 62.1839 2
      vertex -7.87473 60.4745 2
    endloop
  endfacet
  facet normal 0 0 1
    outer loop
      vertex 15.4005 65.6011 2
      vertex -10.0264 63.436 2
      vertex -8.63582 62.1839 2
    endloop
  endfacet
  facet normal 0 0 1
    outer loop
      vertex 15.4005 65.6011 2
      vertex -11.806 64.0142 2
      vertex -10.0264 63.436 2
    endloop
  endfacet
  facet normal -0 0 1
    outer loop
      vertex -15.7764 65.6011 2
      vertex -11.806 64.0142 2
      vertex 15.4005 65.6011 2
    endloop
  endfacet
  facet normal 0 0 1
    outer loop
      vertex -15.7764 65.6011 2
      vertex -13.667 63.8186 2
      vertex -11.806 64.0142 2
    endloop
  endfacet
  facet normal 0 0 1
    outer loop
      vertex -15.7764 65.6011 2
      vertex -15.2875 62.883 2
      vertex -13.667 63.8186 2
    endloop
  endfacet
  facet normal 0 0 1
    outer loop
      vertex -15.7764 65.6011 2
      vertex -16.3873 61.3692 2
      vertex -15.2875 62.883 2
    endloop
  endfacet
  facet normal 0 0 1
    outer loop
      vertex -31.3648 38.6011 2
      vertex -16.3873 61.3692 2
      vertex -15.7764 65.6011 2
    endloop
  endfacet
  facet normal 0 0 1
    outer loop
      vertex -16.3873 61.3692 2
      vertex -31.3648 38.6011 2
      vertex -16.7764 59.5389 2
    endloop
  endfacet
  facet normal 0 0 1
    outer loop
      vertex -11.806 55.0635 2
      vertex -31.3648 38.6011 2
      vertex -20.2008 19.1378 2
    endloop
  endfacet
  facet normal 0 0 1
    outer loop
      vertex -20.2008 19.1378 2
      vertex -31.3648 38.6011 2
      vertex -31.4014 38.5378 2
    endloop
  endfacet
  facet normal 0 0 1
    outer loop
      vertex 15.4005 65.6011 2
      vertex -8.63582 56.8939 2
      vertex 26.5228 46.4633 2
    endloop
  endfacet
  facet normal 0 0 1
    outer loop
      vertex 26.5228 46.4633 2
      vertex -8.48442 -18.3561 2
      vertex -7.72334 -20.0655 2
    endloop
  endfacet
  facet normal -0 0 1
    outer loop
      vertex -10.0264 55.6418 2
      vertex 26.5228 46.4633 2
      vertex -8.63582 56.8939 2
    endloop
  endfacet
  facet normal 0 0 1
    outer loop
      vertex 26.5228 46.4633 2
      vertex -20.2008 19.1378 2
      vertex -8.48442 -18.3561 2
    endloop
  endfacet
  facet normal 0 0 1
    outer loop
      vertex 26.5228 46.4633 2
      vertex -10.0264 55.6418 2
      vertex -20.2008 19.1378 2
    endloop
  endfacet
  facet normal 0 0 1
    outer loop
      vertex -8.48442 -18.3561 2
      vertex -20.2008 19.1378 2
      vertex -9.875 -17.104 2
    endloop
  endfacet
  facet normal 0 0 1
    outer loop
      vertex -20.2008 19.1378 2
      vertex -10.0264 55.6418 2
      vertex -11.806 55.0635 2
    endloop
  endfacet
  facet normal 0 0 1
    outer loop
      vertex -9.875 -17.104 2
      vertex -20.2008 19.1378 2
      vertex -11.6546 -16.5258 2
    endloop
  endfacet
  facet normal 0 0 1
    outer loop
      vertex -31.3648 38.6011 2
      vertex -11.806 55.0635 2
      vertex -13.667 55.2591 2
    endloop
  endfacet
  facet normal -0 0 1
    outer loop
      vertex -31.2135 -0.0632928 2
      vertex -11.6546 -16.5258 2
      vertex -20.2008 19.1378 2
    endloop
  endfacet
  facet normal 0 0 1
    outer loop
      vertex -31.3648 38.6011 2
      vertex -13.667 55.2591 2
      vertex -15.2875 56.1947 2
    endloop
  endfacet
  facet normal 0 0 1
    outer loop
      vertex -11.6546 -16.5258 2
      vertex -31.2135 -0.0632928 2
      vertex -13.5156 -16.7214 2
    endloop
  endfacet
  facet normal 0 0 1
    outer loop
      vertex -31.3648 38.6011 2
      vertex -15.2875 56.1947 2
      vertex -16.3873 57.7086 2
    endloop
  endfacet
  facet normal 0 0 1
    outer loop
      vertex -13.5156 -16.7214 2
      vertex -31.2135 -0.0632928 2
      vertex -15.1361 -17.657 2
    endloop
  endfacet
  facet normal 0 0 1
    outer loop
      vertex -31.3648 38.6011 2
      vertex -16.3873 57.7086 2
      vertex -16.7764 59.5389 2
    endloop
  endfacet
  facet normal 0 0 1
    outer loop
      vertex 64.549 19.4 2
      vertex 61.1896 22.045 2
      vertex 61.9507 20.3356 2
    endloop
  endfacet
  facet normal 0 0 1
    outer loop
      vertex 48.9605 46.4 2
      vertex 61.1896 22.045 2
      vertex 64.549 19.4 2
    endloop
  endfacet
  facet normal 0 0 1
    outer loop
      vertex 26.5228 46.4633 2
      vertex 53.438 21.2303 2
      vertex 48.9605 46.4 2
    endloop
  endfacet
  facet normal 0 0 1
    outer loop
      vertex 54.5379 22.7442 2
      vertex 48.9605 46.4 2
      vertex 53.438 21.2303 2
    endloop
  endfacet
  facet normal 0 0 1
    outer loop
      vertex 56.1584 23.6798 2
      vertex 48.9605 46.4 2
      vertex 54.5379 22.7442 2
    endloop
  endfacet
  facet normal 0 0 1
    outer loop
      vertex 58.0194 23.8753 2
      vertex 48.9605 46.4 2
      vertex 56.1584 23.6798 2
    endloop
  endfacet
  facet normal 0 0 1
    outer loop
      vertex 59.799 23.2971 2
      vertex 48.9605 46.4 2
      vertex 58.0194 23.8753 2
    endloop
  endfacet
  facet normal 0 0 1
    outer loop
      vertex 61.1896 22.045 2
      vertex 48.9605 46.4 2
      vertex 59.799 23.2971 2
    endloop
  endfacet
  facet normal 0 0 1
    outer loop
      vertex 61.9507 18.4644 2
      vertex 64.549 19.4 2
      vertex 61.9507 20.3356 2
    endloop
  endfacet
  facet normal 0 0 1
    outer loop
      vertex 61.1896 16.755 2
      vertex 64.549 19.4 2
      vertex 61.9507 18.4644 2
    endloop
  endfacet
  facet normal 0 0 1
    outer loop
      vertex 48.9605 -7.6 2
      vertex 61.1896 16.755 2
      vertex 59.799 15.5029 2
    endloop
  endfacet
  facet normal -0 0 1
    outer loop
      vertex 61.1896 16.755 2
      vertex 48.9605 -7.6 2
      vertex 64.549 19.4 2
    endloop
  endfacet
  facet normal -0 0 1
    outer loop
      vertex 58.0194 14.9247 2
      vertex 48.9605 -7.6 2
      vertex 59.799 15.5029 2
    endloop
  endfacet
  facet normal 0 0 1
    outer loop
      vertex 56.1584 15.1202 2
      vertex 48.9605 -7.6 2
      vertex 58.0194 14.9247 2
    endloop
  endfacet
  facet normal 0 0 1
    outer loop
      vertex 54.5379 16.0558 2
      vertex 48.9605 -7.6 2
      vertex 56.1584 15.1202 2
    endloop
  endfacet
  facet normal 0 0 1
    outer loop
      vertex 53.438 17.5697 2
      vertex 48.9605 -7.6 2
      vertex 54.5379 16.0558 2
    endloop
  endfacet
  facet normal 0 0 1
    outer loop
      vertex 26.8256 -7.66329 2
      vertex 53.438 17.5697 2
      vertex 53.049 19.4 2
    endloop
  endfacet
  facet normal 0 0 1
    outer loop
      vertex 53.438 21.2303 2
      vertex 26.5228 46.4633 2
      vertex 53.049 19.4 2
    endloop
  endfacet
  facet normal -0 0 1
    outer loop
      vertex 26.5228 46.4633 2
      vertex 48.9605 46.4 2
      vertex 48.924 46.4633 2
    endloop
  endfacet
  facet normal 0 0 1
    outer loop
      vertex 53.438 17.5697 2
      vertex 26.8256 -7.66329 2
      vertex 48.9605 -7.6 2
    endloop
  endfacet
  facet normal 0 0 1
    outer loop
      vertex 48.9605 -7.6 2
      vertex 26.8256 -7.66329 2
      vertex 48.924 -7.66329 2
    endloop
  endfacet
  facet normal 0 0 1
    outer loop
      vertex 53.049 19.4 2
      vertex 26.5228 46.4633 2
      vertex 26.8256 -7.66329 2
    endloop
  endfacet
  facet normal 0 0 1
    outer loop
      vertex -7.72334 -20.0655 2
      vertex 26.8256 -7.66329 2
      vertex 26.5228 46.4633 2
    endloop
  endfacet
  facet normal 0 0 1
    outer loop
      vertex 26.8256 -7.66329 2
      vertex 15.5519 -27.0633 2
      vertex 15.625 -27.0633 2
    endloop
  endfacet
  facet normal -0 0 1
    outer loop
      vertex 15.4005 65.6011 2
      vertex 26.5228 46.4633 2
      vertex 15.4736 65.6011 2
    endloop
  endfacet
  facet normal 0 0 1
    outer loop
      vertex -7.87473 58.6033 2
      vertex 15.4005 65.6011 2
      vertex -7.87473 60.4745 2
    endloop
  endfacet
  facet normal 0 0 1
    outer loop
      vertex 26.8256 -7.66329 2
      vertex -7.72334 -20.0655 2
      vertex 15.5519 -27.0633 2
    endloop
  endfacet
  facet normal -0 0 1
    outer loop
      vertex -7.72334 -21.9367 2
      vertex 15.5519 -27.0633 2
      vertex -7.72334 -20.0655 2
    endloop
  endfacet
  facet normal -0 0 1
    outer loop
      vertex -8.48442 -23.6461 2
      vertex 15.5519 -27.0633 2
      vertex -7.72334 -21.9367 2
    endloop
  endfacet
  facet normal -0 0 1
    outer loop
      vertex -9.875 -24.8982 2
      vertex 15.5519 -27.0633 2
      vertex -8.48442 -23.6461 2
    endloop
  endfacet
  facet normal -0 0 1
    outer loop
      vertex -11.6546 -25.4765 2
      vertex 15.5519 -27.0633 2
      vertex -9.875 -24.8982 2
    endloop
  endfacet
  facet normal 0 0 1
    outer loop
      vertex -11.6546 -25.4765 2
      vertex -15.625 -27.0633 2
      vertex 15.5519 -27.0633 2
    endloop
  endfacet
  facet normal 0 0 1
    outer loop
      vertex -13.5156 -25.2809 2
      vertex -15.625 -27.0633 2
      vertex -11.6546 -25.4765 2
    endloop
  endfacet
  facet normal 0 0 1
    outer loop
      vertex -15.1361 -24.3453 2
      vertex -15.625 -27.0633 2
      vertex -13.5156 -25.2809 2
    endloop
  endfacet
  facet normal 0 0 1
    outer loop
      vertex -16.236 -22.8314 2
      vertex -15.625 -27.0633 2
      vertex -15.1361 -24.3453 2
    endloop
  endfacet
  facet normal 0 0 1
    outer loop
      vertex -31.2135 -0.0632928 2
      vertex -16.236 -22.8314 2
      vertex -16.625 -21.0011 2
    endloop
  endfacet
  facet normal 0 0 1
    outer loop
      vertex -15.1361 -17.657 2
      vertex -31.2135 -0.0632928 2
      vertex -16.236 -19.1708 2
    endloop
  endfacet
  facet normal 0 0 1
    outer loop
      vertex -16.236 -22.8314 2
      vertex -31.2135 -0.0632928 2
      vertex -15.625 -27.0633 2
    endloop
  endfacet
  facet normal 0 0 1
    outer loop
      vertex -16.236 -19.1708 2
      vertex -31.2135 -0.0632928 2
      vertex -16.625 -21.0011 2
    endloop
  endfacet
  facet normal 0 -0 1
    outer loop
      vertex -31.2135 -0.0632928 2
      vertex -20.2008 19.1378 2
      vertex -31.25 6.2029e-007 2
    endloop
  endfacet
  facet normal 0 0 -1
    outer loop
      vertex -20.2008 19.1378 0
      vertex -31.4014 38.5378 0
      vertex -31.3648 38.6011 0
    endloop
  endfacet
  facet normal 0 0 -1
    outer loop
      vertex 48.9605 -7.6 0
      vertex 66.049 19.4 0
      vertex 50.4605 -7.6 0
    endloop
  endfacet
  facet normal 0 0 -1
    outer loop
      vertex 26.8256 -7.66329 0
      vertex 66.049 19.4 0
      vertex 48.9605 -7.6 0
    endloop
  endfacet
  facet normal 0 0 -1
    outer loop
      vertex 66.049 19.4 0
      vertex 48.9605 46.4 0
      vertex 50.4605 46.4 0
    endloop
  endfacet
  facet normal 0 0 -1
    outer loop
      vertex 26.8256 -7.66329 0
      vertex 48.9605 -7.6 0
      vertex 48.924 -7.66329 0
    endloop
  endfacet
  facet normal 0 0 -1
    outer loop
      vertex 26.5228 46.4633 0
      vertex 66.049 19.4 0
      vertex 26.8256 -7.66329 0
    endloop
  endfacet
  facet normal 0 0 -1
    outer loop
      vertex 66.049 19.4 0
      vertex 26.5228 46.4633 0
      vertex 48.9605 46.4 0
    endloop
  endfacet
  facet normal 0 0 -1
    outer loop
      vertex 48.9605 46.4 0
      vertex 26.5228 46.4633 0
      vertex 48.924 46.4633 0
    endloop
  endfacet
  facet normal 0 0 -1
    outer loop
      vertex 15.5519 -27.0633 0
      vertex 26.8256 -7.66329 0
      vertex 15.625 -27.0633 0
    endloop
  endfacet
  facet normal 0 0 -1
    outer loop
      vertex -16.375 -28.3623 0
      vertex 26.8256 -7.66329 0
      vertex 15.5519 -27.0633 0
    endloop
  endfacet
  facet normal 0 0 -1
    outer loop
      vertex 26.8256 -7.66329 0
      vertex -20.2008 19.1378 0
      vertex 26.5228 46.4633 0
    endloop
  endfacet
  facet normal 0 -0 -1
    outer loop
      vertex -16.5264 66.9001 0
      vertex 26.5228 46.4633 0
      vertex -20.2008 19.1378 0
    endloop
  endfacet
  facet normal 0 0 -1
    outer loop
      vertex -16.375 -28.3623 0
      vertex 15.5519 -27.0633 0
      vertex 14.8019 -28.3623 0
    endloop
  endfacet
  facet normal 0 0 -1
    outer loop
      vertex 26.5228 46.4633 0
      vertex 15.4005 65.6011 0
      vertex 15.4736 65.6011 0
    endloop
  endfacet
  facet normal -0 0 -1
    outer loop
      vertex 26.8256 -7.66329 0
      vertex -16.375 -28.3623 0
      vertex -20.2008 19.1378 0
    endloop
  endfacet
  facet normal 0 0 -1
    outer loop
      vertex 26.5228 46.4633 0
      vertex -16.5264 66.9001 0
      vertex 15.4005 65.6011 0
    endloop
  endfacet
  facet normal 0 0 -1
    outer loop
      vertex 15.4005 65.6011 0
      vertex -16.5264 66.9001 0
      vertex 14.6505 66.9001 0
    endloop
  endfacet
  facet normal 0 0 -1
    outer loop
      vertex -16.375 -28.3623 0
      vertex -31.2135 -0.0632928 0
      vertex -20.2008 19.1378 0
    endloop
  endfacet
  facet normal 0 -0 -1
    outer loop
      vertex -31.2135 -0.0632928 0
      vertex -16.375 -28.3623 0
      vertex -31.9635 -1.36233 0
    endloop
  endfacet
  facet normal 0 0 -1
    outer loop
      vertex -31.3648 38.6011 0
      vertex -16.5264 66.9001 0
      vertex -20.2008 19.1378 0
    endloop
  endfacet
  facet normal 0 0 -1
    outer loop
      vertex -16.5264 66.9001 0
      vertex -31.3648 38.6011 0
      vertex -32.1148 39.9001 0
    endloop
  endfacet
  facet normal 0 0 -1
    outer loop
      vertex -20.2008 19.1378 0
      vertex -31.2135 -0.0632928 0
      vertex -31.25 6.2029e-007 0
    endloop
  endfacet
  facet normal 0.866025 -0.5 0
    outer loop
      vertex 15.625 -27.0633 2
      vertex 26.8256 -7.66329 0
      vertex 26.8256 -7.66329 2
    endloop
  endfacet
  facet normal 0.866025 -0.5 0
    outer loop
      vertex 26.8256 -7.66329 0
      vertex 15.625 -27.0633 2
      vertex 15.625 -27.0633 0
    endloop
  endfacet
  facet normal 0 -1 0
    outer loop
      vertex 15.5519 -27.0633 0
      vertex 15.625 -27.0633 2
      vertex 15.5519 -27.0633 2
    endloop
  endfacet
  facet normal 0 -1 -0
    outer loop
      vertex 15.625 -27.0633 2
      vertex 15.5519 -27.0633 0
      vertex 15.625 -27.0633 0
    endloop
  endfacet
  facet normal -0.309018 -0.951056 0
    outer loop
      vertex -11.6546 -16.5258 1.1
      vertex -9.875 -17.104 2
      vertex -11.6546 -16.5258 2
    endloop
  endfacet
  facet normal -0.309018 -0.951056 -0
    outer loop
      vertex -9.875 -17.104 2
      vertex -11.6546 -16.5258 1.1
      vertex -9.875 -17.104 1.1
    endloop
  endfacet
  facet normal 0.5 0.866025 -0
    outer loop
      vertex -13.5156 -25.2809 1.1
      vertex -15.1361 -24.3453 2
      vertex -13.5156 -25.2809 2
    endloop
  endfacet
  facet normal 0.5 0.866025 0
    outer loop
      vertex -15.1361 -24.3453 2
      vertex -13.5156 -25.2809 1.1
      vertex -15.1361 -24.3453 1.1
    endloop
  endfacet
  facet normal 0.104528 0.994522 -0
    outer loop
      vertex -11.6546 -25.4765 1.1
      vertex -13.5156 -25.2809 2
      vertex -11.6546 -25.4765 2
    endloop
  endfacet
  facet normal 0.104528 0.994522 0
    outer loop
      vertex -13.5156 -25.2809 2
      vertex -11.6546 -25.4765 1.1
      vertex -13.5156 -25.2809 1.1
    endloop
  endfacet
  facet normal 0.809017 -0.587785 0
    outer loop
      vertex -16.236 -19.1708 2
      vertex -15.1361 -17.657 1.1
      vertex -15.1361 -17.657 2
    endloop
  endfacet
  facet normal 0.809017 -0.587785 0
    outer loop
      vertex -15.1361 -17.657 1.1
      vertex -16.236 -19.1708 2
      vertex -16.236 -19.1708 1.1
    endloop
  endfacet
  facet normal 0.104529 -0.994522 0
    outer loop
      vertex -13.5156 -16.7214 1.1
      vertex -11.6546 -16.5258 2
      vertex -13.5156 -16.7214 2
    endloop
  endfacet
  facet normal 0.104529 -0.994522 0
    outer loop
      vertex -11.6546 -16.5258 2
      vertex -13.5156 -16.7214 1.1
      vertex -11.6546 -16.5258 1.1
    endloop
  endfacet
  facet normal 0.5 -0.866025 0
    outer loop
      vertex -15.1361 -17.657 1.1
      vertex -13.5156 -16.7214 2
      vertex -15.1361 -17.657 2
    endloop
  endfacet
  facet normal 0.5 -0.866025 0
    outer loop
      vertex -13.5156 -16.7214 2
      vertex -15.1361 -17.657 1.1
      vertex -13.5156 -16.7214 1.1
    endloop
  endfacet
  facet normal 0.978148 -0.207912 0
    outer loop
      vertex -16.625 -21.0011 2
      vertex -16.236 -19.1708 1.1
      vertex -16.236 -19.1708 2
    endloop
  endfacet
  facet normal 0.978148 -0.207912 0
    outer loop
      vertex -16.236 -19.1708 1.1
      vertex -16.625 -21.0011 2
      vertex -16.625 -21.0011 1.1
    endloop
  endfacet
  facet normal 0.978148 0.207912 0
    outer loop
      vertex -16.236 -22.8314 2
      vertex -16.625 -21.0011 1.1
      vertex -16.625 -21.0011 2
    endloop
  endfacet
  facet normal 0.978148 0.207912 0
    outer loop
      vertex -16.625 -21.0011 1.1
      vertex -16.236 -22.8314 2
      vertex -16.236 -22.8314 1.1
    endloop
  endfacet
  facet normal 0.809017 0.587785 0
    outer loop
      vertex -15.1361 -24.3453 2
      vertex -16.236 -22.8314 1.1
      vertex -16.236 -22.8314 2
    endloop
  endfacet
  facet normal 0.809017 0.587785 0
    outer loop
      vertex -16.236 -22.8314 1.1
      vertex -15.1361 -24.3453 2
      vertex -15.1361 -24.3453 1.1
    endloop
  endfacet
  facet normal -0.669131 0.743145 0
    outer loop
      vertex -8.48442 -23.6461 1.1
      vertex -9.875 -24.8982 2
      vertex -8.48442 -23.6461 2
    endloop
  endfacet
  facet normal -0.669131 0.743145 0
    outer loop
      vertex -9.875 -24.8982 2
      vertex -8.48442 -23.6461 1.1
      vertex -9.875 -24.8982 1.1
    endloop
  endfacet
  facet normal -0.309017 0.951057 0
    outer loop
      vertex -9.875 -24.8982 1.1
      vertex -11.6546 -25.4765 2
      vertex -9.875 -24.8982 2
    endloop
  endfacet
  facet normal -0.309017 0.951057 0
    outer loop
      vertex -11.6546 -25.4765 2
      vertex -9.875 -24.8982 1.1
      vertex -11.6546 -25.4765 1.1
    endloop
  endfacet
  facet normal -1 0 0
    outer loop
      vertex -7.72334 -21.9367 1.1
      vertex -7.72334 -20.0655 2
      vertex -7.72334 -20.0655 1.1
    endloop
  endfacet
  facet normal -1 -0 0
    outer loop
      vertex -7.72334 -20.0655 2
      vertex -7.72334 -21.9367 1.1
      vertex -7.72334 -21.9367 2
    endloop
  endfacet
  facet normal -0.913546 -0.406736 0
    outer loop
      vertex -7.72334 -20.0655 1.1
      vertex -8.48442 -18.3561 2
      vertex -8.48442 -18.3561 1.1
    endloop
  endfacet
  facet normal -0.913546 -0.406736 0
    outer loop
      vertex -8.48442 -18.3561 2
      vertex -7.72334 -20.0655 1.1
      vertex -7.72334 -20.0655 2
    endloop
  endfacet
  facet normal -0.66913 -0.743145 0
    outer loop
      vertex -9.875 -17.104 1.1
      vertex -8.48442 -18.3561 2
      vertex -9.875 -17.104 2
    endloop
  endfacet
  facet normal -0.66913 -0.743145 -0
    outer loop
      vertex -8.48442 -18.3561 2
      vertex -9.875 -17.104 1.1
      vertex -8.48442 -18.3561 1.1
    endloop
  endfacet
  facet normal -0.913545 0.406737 0
    outer loop
      vertex -8.48442 -23.6461 1.1
      vertex -7.72334 -21.9367 2
      vertex -7.72334 -21.9367 1.1
    endloop
  endfacet
  facet normal -0.913545 0.406737 0
    outer loop
      vertex -7.72334 -21.9367 2
      vertex -8.48442 -23.6461 1.1
      vertex -8.48442 -23.6461 2
    endloop
  endfacet
  facet normal 0 0 1
    outer loop
      vertex -8.48442 -18.3561 1.1
      vertex -7.72334 -21.9367 1.1
      vertex -7.72334 -20.0655 1.1
    endloop
  endfacet
  facet normal 0 0 1
    outer loop
      vertex -8.48442 -18.3561 1.1
      vertex -8.48442 -23.6461 1.1
      vertex -7.72334 -21.9367 1.1
    endloop
  endfacet
  facet normal 0 0 1
    outer loop
      vertex -9.875 -17.104 1.1
      vertex -8.48442 -23.6461 1.1
      vertex -8.48442 -18.3561 1.1
    endloop
  endfacet
  facet normal 0 0 1
    outer loop
      vertex -9.875 -17.104 1.1
      vertex -9.875 -24.8982 1.1
      vertex -8.48442 -23.6461 1.1
    endloop
  endfacet
  facet normal 0 0 1
    outer loop
      vertex -11.6546 -16.5258 1.1
      vertex -9.875 -24.8982 1.1
      vertex -9.875 -17.104 1.1
    endloop
  endfacet
  facet normal 0 0 1
    outer loop
      vertex -11.6546 -16.5258 1.1
      vertex -11.6546 -25.4765 1.1
      vertex -9.875 -24.8982 1.1
    endloop
  endfacet
  facet normal -0 0 1
    outer loop
      vertex -13.5156 -16.7214 1.1
      vertex -11.6546 -25.4765 1.1
      vertex -11.6546 -16.5258 1.1
    endloop
  endfacet
  facet normal 0 0 1
    outer loop
      vertex -13.5156 -16.7214 1.1
      vertex -13.5156 -25.2809 1.1
      vertex -11.6546 -25.4765 1.1
    endloop
  endfacet
  facet normal -0 0 1
    outer loop
      vertex -15.1361 -17.657 1.1
      vertex -13.5156 -25.2809 1.1
      vertex -13.5156 -16.7214 1.1
    endloop
  endfacet
  facet normal 0 0 1
    outer loop
      vertex -15.1361 -17.657 1.1
      vertex -15.1361 -24.3453 1.1
      vertex -13.5156 -25.2809 1.1
    endloop
  endfacet
  facet normal -0 0 1
    outer loop
      vertex -16.236 -19.1708 1.1
      vertex -15.1361 -24.3453 1.1
      vertex -15.1361 -17.657 1.1
    endloop
  endfacet
  facet normal 0 0 1
    outer loop
      vertex -16.236 -19.1708 1.1
      vertex -16.236 -22.8314 1.1
      vertex -15.1361 -24.3453 1.1
    endloop
  endfacet
  facet normal 0 -0 1
    outer loop
      vertex -16.236 -22.8314 1.1
      vertex -16.236 -19.1708 1.1
      vertex -16.625 -21.0011 1.1
    endloop
  endfacet
  facet normal -0.866025 -0.5 0
    outer loop
      vertex -16.375 -28.3623 0
      vertex -31.9635 -1.36233 5
      vertex -31.9635 -1.36233 0
    endloop
  endfacet
  facet normal -0.866025 -0.5 0
    outer loop
      vertex -31.9635 -1.36233 5
      vertex -16.375 -28.3623 0
      vertex -16.375 -28.3623 5
    endloop
  endfacet
  facet normal 0 -1 0
    outer loop
      vertex -16.375 -28.3623 0
      vertex 14.8019 -28.3623 5
      vertex -16.375 -28.3623 5
    endloop
  endfacet
  facet normal 0 -1 -0
    outer loop
      vertex 14.8019 -28.3623 5
      vertex -16.375 -28.3623 0
      vertex 14.8019 -28.3623 0
    endloop
  endfacet
  facet normal -0 0 1
    outer loop
      vertex -15.625 -27.0633 5
      vertex 14.8019 -28.3623 5
      vertex 15.5519 -27.0633 5
    endloop
  endfacet
  facet normal 0 0 1
    outer loop
      vertex -15.625 -27.0633 5
      vertex -16.375 -28.3623 5
      vertex 14.8019 -28.3623 5
    endloop
  endfacet
  facet normal -0 0 1
    outer loop
      vertex -31.9635 -1.36233 5
      vertex -15.625 -27.0633 5
      vertex -31.2135 -0.0632928 5
    endloop
  endfacet
  facet normal 0 0 1
    outer loop
      vertex -15.625 -27.0633 5
      vertex -31.9635 -1.36233 5
      vertex -16.375 -28.3623 5
    endloop
  endfacet
  facet normal 0.866025 0.5 0
    outer loop
      vertex -15.625 -27.0633 5
      vertex -31.2135 -0.0632928 2
      vertex -31.2135 -0.0632928 5
    endloop
  endfacet
  facet normal 0.866025 0.5 0
    outer loop
      vertex -31.2135 -0.0632928 2
      vertex -15.625 -27.0633 5
      vertex -15.625 -27.0633 2
    endloop
  endfacet
  facet normal 0 1 -0
    outer loop
      vertex 15.5519 -27.0633 2
      vertex -15.625 -27.0633 5
      vertex 15.5519 -27.0633 5
    endloop
  endfacet
  facet normal 0 1 0
    outer loop
      vertex -15.625 -27.0633 5
      vertex 15.5519 -27.0633 2
      vertex -15.625 -27.0633 2
    endloop
  endfacet
  facet normal 0.866026 -0.5 0
    outer loop
      vertex 14.8019 -28.3623 5
      vertex 15.5519 -27.0633 2
      vertex 15.5519 -27.0633 5
    endloop
  endfacet
  facet normal 0.866026 -0.5 0
    outer loop
      vertex 14.8019 -28.3623 0
      vertex 15.5519 -27.0633 2
      vertex 14.8019 -28.3623 5
    endloop
  endfacet
  facet normal 0.866026 -0.5 0
    outer loop
      vertex 15.5519 -27.0633 2
      vertex 14.8019 -28.3623 0
      vertex 15.5519 -27.0633 0
    endloop
  endfacet
  facet normal -0.866025 0.5 0
    outer loop
      vertex -31.9635 -1.36233 0
      vertex -31.2135 -0.0632928 2
      vertex -31.2135 -0.0632928 0
    endloop
  endfacet
  facet normal -0.866025 0.5 0
    outer loop
      vertex -31.9635 -1.36233 5
      vertex -31.2135 -0.0632928 2
      vertex -31.9635 -1.36233 0
    endloop
  endfacet
  facet normal -0.866025 0.5 0
    outer loop
      vertex -31.2135 -0.0632928 2
      vertex -31.9635 -1.36233 5
      vertex -31.2135 -0.0632928 5
    endloop
  endfacet
  facet normal 0.866034 -0.499985 0
    outer loop
      vertex 48.924 -7.66329 2
      vertex 48.9605 -7.6 0
      vertex 48.9605 -7.6 2
    endloop
  endfacet
  facet normal 0.866034 -0.499985 0
    outer loop
      vertex 48.9605 -7.6 0
      vertex 48.924 -7.66329 2
      vertex 48.924 -7.66329 0
    endloop
  endfacet
  facet normal 0 -1 0
    outer loop
      vertex 26.8256 -7.66329 0
      vertex 48.924 -7.66329 2
      vertex 26.8256 -7.66329 2
    endloop
  endfacet
  facet normal 0 -1 -0
    outer loop
      vertex 48.924 -7.66329 2
      vertex 26.8256 -7.66329 0
      vertex 48.924 -7.66329 0
    endloop
  endfacet
  facet normal 0 1 -0
    outer loop
      vertex 48.924 46.4633 0
      vertex 26.5228 46.4633 2
      vertex 48.924 46.4633 2
    endloop
  endfacet
  facet normal 0 1 0
    outer loop
      vertex 26.5228 46.4633 2
      vertex 48.924 46.4633 0
      vertex 26.5228 46.4633 0
    endloop
  endfacet
  facet normal 0.866034 0.499985 0
    outer loop
      vertex 48.9605 46.4 2
      vertex 48.924 46.4633 0
      vertex 48.924 46.4633 2
    endloop
  endfacet
  facet normal 0.866034 0.499985 0
    outer loop
      vertex 48.924 46.4633 0
      vertex 48.9605 46.4 2
      vertex 48.9605 46.4 0
    endloop
  endfacet
  facet normal 0.978148 0.207912 0
    outer loop
      vertex 53.438 17.5697 2
      vertex 53.049 19.4 1.1
      vertex 53.049 19.4 2
    endloop
  endfacet
  facet normal 0.978148 0.207912 0
    outer loop
      vertex 53.049 19.4 1.1
      vertex 53.438 17.5697 2
      vertex 53.438 17.5697 1.1
    endloop
  endfacet
  facet normal -1 0 0
    outer loop
      vertex 61.9507 18.4644 1.1
      vertex 61.9507 20.3356 2
      vertex 61.9507 20.3356 1.1
    endloop
  endfacet
  facet normal -1 -0 0
    outer loop
      vertex 61.9507 20.3356 2
      vertex 61.9507 18.4644 1.1
      vertex 61.9507 18.4644 2
    endloop
  endfacet
  facet normal -0.913545 -0.406737 0
    outer loop
      vertex 61.9507 20.3356 1.1
      vertex 61.1896 22.045 2
      vertex 61.1896 22.045 1.1
    endloop
  endfacet
  facet normal -0.913545 -0.406737 0
    outer loop
      vertex 61.1896 22.045 2
      vertex 61.9507 20.3356 1.1
      vertex 61.9507 20.3356 2
    endloop
  endfacet
  facet normal 0.104529 0.994522 -0
    outer loop
      vertex 58.0194 14.9247 1.1
      vertex 56.1584 15.1202 2
      vertex 58.0194 14.9247 2
    endloop
  endfacet
  facet normal 0.104529 0.994522 0
    outer loop
      vertex 56.1584 15.1202 2
      vertex 58.0194 14.9247 1.1
      vertex 56.1584 15.1202 1.1
    endloop
  endfacet
  facet normal 0.809017 0.587785 0
    outer loop
      vertex 54.5379 16.0558 2
      vertex 53.438 17.5697 1.1
      vertex 53.438 17.5697 2
    endloop
  endfacet
  facet normal 0.809017 0.587785 0
    outer loop
      vertex 53.438 17.5697 1.1
      vertex 54.5379 16.0558 2
      vertex 54.5379 16.0558 1.1
    endloop
  endfacet
  facet normal 0.5 0.866026 -0
    outer loop
      vertex 56.1584 15.1202 1.1
      vertex 54.5379 16.0558 2
      vertex 56.1584 15.1202 2
    endloop
  endfacet
  facet normal 0.5 0.866026 0
    outer loop
      vertex 54.5379 16.0558 2
      vertex 56.1584 15.1202 1.1
      vertex 54.5379 16.0558 1.1
    endloop
  endfacet
  facet normal -0.309017 0.951056 0
    outer loop
      vertex 59.799 15.5029 1.1
      vertex 58.0194 14.9247 2
      vertex 59.799 15.5029 2
    endloop
  endfacet
  facet normal -0.309017 0.951056 0
    outer loop
      vertex 58.0194 14.9247 2
      vertex 59.799 15.5029 1.1
      vertex 58.0194 14.9247 1.1
    endloop
  endfacet
  facet normal -0.669131 0.743145 0
    outer loop
      vertex 61.1896 16.755 1.1
      vertex 59.799 15.5029 2
      vertex 61.1896 16.755 2
    endloop
  endfacet
  facet normal -0.669131 0.743145 0
    outer loop
      vertex 59.799 15.5029 2
      vertex 61.1896 16.755 1.1
      vertex 59.799 15.5029 1.1
    endloop
  endfacet
  facet normal -0.913545 0.406737 0
    outer loop
      vertex 61.1896 16.755 1.1
      vertex 61.9507 18.4644 2
      vertex 61.9507 18.4644 1.1
    endloop
  endfacet
  facet normal -0.913545 0.406737 0
    outer loop
      vertex 61.9507 18.4644 2
      vertex 61.1896 16.755 1.1
      vertex 61.1896 16.755 2
    endloop
  endfacet
  facet normal -0.309018 -0.951056 0
    outer loop
      vertex 58.0194 23.8753 1.1
      vertex 59.799 23.2971 2
      vertex 58.0194 23.8753 2
    endloop
  endfacet
  facet normal -0.309018 -0.951056 -0
    outer loop
      vertex 59.799 23.2971 2
      vertex 58.0194 23.8753 1.1
      vertex 59.799 23.2971 1.1
    endloop
  endfacet
  facet normal -0.669131 -0.743145 0
    outer loop
      vertex 59.799 23.2971 1.1
      vertex 61.1896 22.045 2
      vertex 59.799 23.2971 2
    endloop
  endfacet
  facet normal -0.669131 -0.743145 -0
    outer loop
      vertex 61.1896 22.045 2
      vertex 59.799 23.2971 1.1
      vertex 61.1896 22.045 1.1
    endloop
  endfacet
  facet normal 0.499999 -0.866026 0
    outer loop
      vertex 54.5379 22.7442 1.1
      vertex 56.1584 23.6798 2
      vertex 54.5379 22.7442 2
    endloop
  endfacet
  facet normal 0.499999 -0.866026 0
    outer loop
      vertex 56.1584 23.6798 2
      vertex 54.5379 22.7442 1.1
      vertex 56.1584 23.6798 1.1
    endloop
  endfacet
  facet normal 0.809018 -0.587784 0
    outer loop
      vertex 53.438 21.2303 2
      vertex 54.5379 22.7442 1.1
      vertex 54.5379 22.7442 2
    endloop
  endfacet
  facet normal 0.809018 -0.587784 0
    outer loop
      vertex 54.5379 22.7442 1.1
      vertex 53.438 21.2303 2
      vertex 53.438 21.2303 1.1
    endloop
  endfacet
  facet normal 0.978148 -0.207912 0
    outer loop
      vertex 53.049 19.4 2
      vertex 53.438 21.2303 1.1
      vertex 53.438 21.2303 2
    endloop
  endfacet
  facet normal 0.978148 -0.207912 0
    outer loop
      vertex 53.438 21.2303 1.1
      vertex 53.049 19.4 2
      vertex 53.049 19.4 1.1
    endloop
  endfacet
  facet normal 0.104529 -0.994522 0
    outer loop
      vertex 56.1584 23.6798 1.1
      vertex 58.0194 23.8753 2
      vertex 56.1584 23.6798 2
    endloop
  endfacet
  facet normal 0.104529 -0.994522 0
    outer loop
      vertex 58.0194 23.8753 2
      vertex 56.1584 23.6798 1.1
      vertex 58.0194 23.8753 1.1
    endloop
  endfacet
  facet normal 0 0 1
    outer loop
      vertex 61.1896 22.045 1.1
      vertex 61.9507 18.4644 1.1
      vertex 61.9507 20.3356 1.1
    endloop
  endfacet
  facet normal 0 0 1
    outer loop
      vertex 61.1896 22.045 1.1
      vertex 61.1896 16.755 1.1
      vertex 61.9507 18.4644 1.1
    endloop
  endfacet
  facet normal 0 0 1
    outer loop
      vertex 59.799 23.2971 1.1
      vertex 61.1896 16.755 1.1
      vertex 61.1896 22.045 1.1
    endloop
  endfacet
  facet normal 0 0 1
    outer loop
      vertex 59.799 23.2971 1.1
      vertex 59.799 15.5029 1.1
      vertex 61.1896 16.755 1.1
    endloop
  endfacet
  facet normal 0 0 1
    outer loop
      vertex 58.0194 23.8753 1.1
      vertex 59.799 15.5029 1.1
      vertex 59.799 23.2971 1.1
    endloop
  endfacet
  facet normal 0 0 1
    outer loop
      vertex 58.0194 23.8753 1.1
      vertex 58.0194 14.9247 1.1
      vertex 59.799 15.5029 1.1
    endloop
  endfacet
  facet normal -0 0 1
    outer loop
      vertex 56.1584 23.6798 1.1
      vertex 58.0194 14.9247 1.1
      vertex 58.0194 23.8753 1.1
    endloop
  endfacet
  facet normal 0 0 1
    outer loop
      vertex 56.1584 23.6798 1.1
      vertex 56.1584 15.1202 1.1
      vertex 58.0194 14.9247 1.1
    endloop
  endfacet
  facet normal -0 0 1
    outer loop
      vertex 54.5379 22.7442 1.1
      vertex 56.1584 15.1202 1.1
      vertex 56.1584 23.6798 1.1
    endloop
  endfacet
  facet normal 0 0 1
    outer loop
      vertex 54.5379 22.7442 1.1
      vertex 54.5379 16.0558 1.1
      vertex 56.1584 15.1202 1.1
    endloop
  endfacet
  facet normal -0 0 1
    outer loop
      vertex 53.438 21.2303 1.1
      vertex 54.5379 16.0558 1.1
      vertex 54.5379 22.7442 1.1
    endloop
  endfacet
  facet normal 0 0 1
    outer loop
      vertex 53.438 21.2303 1.1
      vertex 53.438 17.5697 1.1
      vertex 54.5379 16.0558 1.1
    endloop
  endfacet
  facet normal 0 -0 1
    outer loop
      vertex 53.438 17.5697 1.1
      vertex 53.438 21.2303 1.1
      vertex 53.049 19.4 1.1
    endloop
  endfacet
  facet normal 0.866025 -0.5 0
    outer loop
      vertex 50.4605 -7.6 5
      vertex 66.049 19.4 0
      vertex 66.049 19.4 5
    endloop
  endfacet
  facet normal 0.866025 -0.5 0
    outer loop
      vertex 66.049 19.4 0
      vertex 50.4605 -7.6 5
      vertex 50.4605 -7.6 0
    endloop
  endfacet
  facet normal 0.866025 0.5 0
    outer loop
      vertex 66.049 19.4 5
      vertex 50.4605 46.4 0
      vertex 50.4605 46.4 5
    endloop
  endfacet
  facet normal 0.866025 0.5 0
    outer loop
      vertex 50.4605 46.4 0
      vertex 66.049 19.4 5
      vertex 66.049 19.4 0
    endloop
  endfacet
  facet normal 0 0 1
    outer loop
      vertex 50.4605 46.4 5
      vertex 64.549 19.4 5
      vertex 66.049 19.4 5
    endloop
  endfacet
  facet normal 0 0 1
    outer loop
      vertex 64.549 19.4 5
      vertex 50.4605 46.4 5
      vertex 48.9605 46.4 5
    endloop
  endfacet
  facet normal -0 0 1
    outer loop
      vertex 64.549 19.4 5
      vertex 50.4605 -7.6 5
      vertex 66.049 19.4 5
    endloop
  endfacet
  facet normal 0 -0 1
    outer loop
      vertex 50.4605 -7.6 5
      vertex 64.549 19.4 5
      vertex 48.9605 -7.6 5
    endloop
  endfacet
  facet normal -0.866025 0.5 0
    outer loop
      vertex 48.9605 -7.6 2
      vertex 64.549 19.4 5
      vertex 64.549 19.4 2
    endloop
  endfacet
  facet normal -0.866025 0.5 0
    outer loop
      vertex 64.549 19.4 5
      vertex 48.9605 -7.6 2
      vertex 48.9605 -7.6 5
    endloop
  endfacet
  facet normal -0.866025 -0.5 0
    outer loop
      vertex 64.549 19.4 2
      vertex 48.9605 46.4 5
      vertex 48.9605 46.4 2
    endloop
  endfacet
  facet normal -0.866025 -0.5 0
    outer loop
      vertex 48.9605 46.4 5
      vertex 64.549 19.4 2
      vertex 64.549 19.4 5
    endloop
  endfacet
  facet normal 0 1 0
    outer loop
      vertex 50.4605 46.4 5
      vertex 48.9605 46.4 2
      vertex 48.9605 46.4 5
    endloop
  endfacet
  facet normal 0 1 -0
    outer loop
      vertex 50.4605 46.4 0
      vertex 48.9605 46.4 2
      vertex 50.4605 46.4 5
    endloop
  endfacet
  facet normal 0 1 0
    outer loop
      vertex 48.9605 46.4 2
      vertex 50.4605 46.4 0
      vertex 48.9605 46.4 0
    endloop
  endfacet
  facet normal 0 -1 0
    outer loop
      vertex 48.9605 -7.6 2
      vertex 50.4605 -7.6 5
      vertex 48.9605 -7.6 5
    endloop
  endfacet
  facet normal 0 -1 0
    outer loop
      vertex 50.4605 -7.6 0
      vertex 48.9605 -7.6 2
      vertex 48.9605 -7.6 0
    endloop
  endfacet
  facet normal 0 -1 0
    outer loop
      vertex 48.9605 -7.6 2
      vertex 50.4605 -7.6 0
      vertex 50.4605 -7.6 5
    endloop
  endfacet
  facet normal 0 1 -0
    outer loop
      vertex 15.4736 65.6011 0
      vertex 15.4005 65.6011 2
      vertex 15.4736 65.6011 2
    endloop
  endfacet
  facet normal 0 1 0
    outer loop
      vertex 15.4005 65.6011 2
      vertex 15.4736 65.6011 0
      vertex 15.4005 65.6011 0
    endloop
  endfacet
  facet normal 0.866025 0.5 0
    outer loop
      vertex 26.5228 46.4633 2
      vertex 15.4736 65.6011 0
      vertex 15.4736 65.6011 2
    endloop
  endfacet
  facet normal 0.866025 0.5 0
    outer loop
      vertex 15.4736 65.6011 0
      vertex 26.5228 46.4633 2
      vertex 26.5228 46.4633 0
    endloop
  endfacet
  facet normal -0.866025 -0.5 0
    outer loop
      vertex -20.2008 19.1378 0
      vertex -31.4014 38.5378 2
      vertex -31.4014 38.5378 0
    endloop
  endfacet
  facet normal -0.866025 -0.5 0
    outer loop
      vertex -31.4014 38.5378 2
      vertex -20.2008 19.1378 0
      vertex -20.2008 19.1378 2
    endloop
  endfacet
  facet normal -0.866023 0.500004 0
    outer loop
      vertex -31.4014 38.5378 0
      vertex -31.3648 38.6011 2
      vertex -31.3648 38.6011 0
    endloop
  endfacet
  facet normal -0.866023 0.500004 0
    outer loop
      vertex -31.3648 38.6011 2
      vertex -31.4014 38.5378 0
      vertex -31.4014 38.5378 2
    endloop
  endfacet
  facet normal -0.66913 0.743145 0
    outer loop
      vertex -8.63582 56.8939 1.1
      vertex -10.0264 55.6418 2
      vertex -8.63582 56.8939 2
    endloop
  endfacet
  facet normal -0.66913 0.743145 0
    outer loop
      vertex -10.0264 55.6418 2
      vertex -8.63582 56.8939 1.1
      vertex -10.0264 55.6418 1.1
    endloop
  endfacet
  facet normal 0.499999 -0.866026 0
    outer loop
      vertex -15.2875 62.883 1.1
      vertex -13.667 63.8186 2
      vertex -15.2875 62.883 2
    endloop
  endfacet
  facet normal 0.499999 -0.866026 0
    outer loop
      vertex -13.667 63.8186 2
      vertex -15.2875 62.883 1.1
      vertex -13.667 63.8186 1.1
    endloop
  endfacet
  facet normal 0.809018 -0.587784 0
    outer loop
      vertex -16.3873 61.3692 2
      vertex -15.2875 62.883 1.1
      vertex -15.2875 62.883 2
    endloop
  endfacet
  facet normal 0.809018 -0.587784 0
    outer loop
      vertex -15.2875 62.883 1.1
      vertex -16.3873 61.3692 2
      vertex -16.3873 61.3692 1.1
    endloop
  endfacet
  facet normal -0.913545 -0.406737 0
    outer loop
      vertex -7.87473 60.4745 1.1
      vertex -8.63582 62.1839 2
      vertex -8.63582 62.1839 1.1
    endloop
  endfacet
  facet normal -0.913545 -0.406737 0
    outer loop
      vertex -8.63582 62.1839 2
      vertex -7.87473 60.4745 1.1
      vertex -7.87473 60.4745 2
    endloop
  endfacet
  facet normal -0.913546 0.406736 0
    outer loop
      vertex -8.63582 56.8939 1.1
      vertex -7.87473 58.6033 2
      vertex -7.87473 58.6033 1.1
    endloop
  endfacet
  facet normal -0.913546 0.406736 0
    outer loop
      vertex -7.87473 58.6033 2
      vertex -8.63582 56.8939 1.1
      vertex -8.63582 56.8939 2
    endloop
  endfacet
  facet normal -1 0 0
    outer loop
      vertex -7.87473 58.6033 1.1
      vertex -7.87473 60.4745 2
      vertex -7.87473 60.4745 1.1
    endloop
  endfacet
  facet normal -1 -0 0
    outer loop
      vertex -7.87473 60.4745 2
      vertex -7.87473 58.6033 1.1
      vertex -7.87473 58.6033 2
    endloop
  endfacet
  facet normal -0.66913 -0.743145 0
    outer loop
      vertex -10.0264 63.436 1.1
      vertex -8.63582 62.1839 2
      vertex -10.0264 63.436 2
    endloop
  endfacet
  facet normal -0.66913 -0.743145 -0
    outer loop
      vertex -8.63582 62.1839 2
      vertex -10.0264 63.436 1.1
      vertex -8.63582 62.1839 1.1
    endloop
  endfacet
  facet normal -0.309018 -0.951056 0
    outer loop
      vertex -11.806 64.0142 1.1
      vertex -10.0264 63.436 2
      vertex -11.806 64.0142 2
    endloop
  endfacet
  facet normal -0.309018 -0.951056 -0
    outer loop
      vertex -10.0264 63.436 2
      vertex -11.806 64.0142 1.1
      vertex -10.0264 63.436 1.1
    endloop
  endfacet
  facet normal 0.104529 -0.994522 0
    outer loop
      vertex -13.667 63.8186 1.1
      vertex -11.806 64.0142 2
      vertex -13.667 63.8186 2
    endloop
  endfacet
  facet normal 0.104529 -0.994522 0
    outer loop
      vertex -11.806 64.0142 2
      vertex -13.667 63.8186 1.1
      vertex -11.806 64.0142 1.1
    endloop
  endfacet
  facet normal 0.978148 0.207911 0
    outer loop
      vertex -16.3873 57.7086 2
      vertex -16.7764 59.5389 1.1
      vertex -16.7764 59.5389 2
    endloop
  endfacet
  facet normal 0.978148 0.207911 0
    outer loop
      vertex -16.7764 59.5389 1.1
      vertex -16.3873 57.7086 2
      vertex -16.3873 57.7086 1.1
    endloop
  endfacet
  facet normal 0.978148 -0.207912 0
    outer loop
      vertex -16.7764 59.5389 2
      vertex -16.3873 61.3692 1.1
      vertex -16.3873 61.3692 2
    endloop
  endfacet
  facet normal 0.978148 -0.207912 0
    outer loop
      vertex -16.3873 61.3692 1.1
      vertex -16.7764 59.5389 2
      vertex -16.7764 59.5389 1.1
    endloop
  endfacet
  facet normal 0.500001 0.866025 -0
    outer loop
      vertex -13.667 55.2591 1.1
      vertex -15.2875 56.1947 2
      vertex -13.667 55.2591 2
    endloop
  endfacet
  facet normal 0.500001 0.866025 0
    outer loop
      vertex -15.2875 56.1947 2
      vertex -13.667 55.2591 1.1
      vertex -15.2875 56.1947 1.1
    endloop
  endfacet
  facet normal 0.104529 0.994522 -0
    outer loop
      vertex -11.806 55.0635 1.1
      vertex -13.667 55.2591 2
      vertex -11.806 55.0635 2
    endloop
  endfacet
  facet normal 0.104529 0.994522 0
    outer loop
      vertex -13.667 55.2591 2
      vertex -11.806 55.0635 1.1
      vertex -13.667 55.2591 1.1
    endloop
  endfacet
  facet normal -0.309018 0.951056 0
    outer loop
      vertex -10.0264 55.6418 1.1
      vertex -11.806 55.0635 2
      vertex -10.0264 55.6418 2
    endloop
  endfacet
  facet normal -0.309018 0.951056 0
    outer loop
      vertex -11.806 55.0635 2
      vertex -10.0264 55.6418 1.1
      vertex -11.806 55.0635 1.1
    endloop
  endfacet
  facet normal 0.809016 0.587786 0
    outer loop
      vertex -15.2875 56.1947 2
      vertex -16.3873 57.7086 1.1
      vertex -16.3873 57.7086 2
    endloop
  endfacet
  facet normal 0.809016 0.587786 0
    outer loop
      vertex -16.3873 57.7086 1.1
      vertex -15.2875 56.1947 2
      vertex -15.2875 56.1947 1.1
    endloop
  endfacet
  facet normal 0 0 1
    outer loop
      vertex -8.63582 62.1839 1.1
      vertex -7.87473 58.6033 1.1
      vertex -7.87473 60.4745 1.1
    endloop
  endfacet
  facet normal 0 0 1
    outer loop
      vertex -8.63582 62.1839 1.1
      vertex -8.63582 56.8939 1.1
      vertex -7.87473 58.6033 1.1
    endloop
  endfacet
  facet normal 0 0 1
    outer loop
      vertex -10.0264 63.436 1.1
      vertex -8.63582 56.8939 1.1
      vertex -8.63582 62.1839 1.1
    endloop
  endfacet
  facet normal 0 0 1
    outer loop
      vertex -10.0264 63.436 1.1
      vertex -10.0264 55.6418 1.1
      vertex -8.63582 56.8939 1.1
    endloop
  endfacet
  facet normal 0 0 1
    outer loop
      vertex -10.0264 63.436 1.1
      vertex -11.806 55.0635 1.1
      vertex -10.0264 55.6418 1.1
    endloop
  endfacet
  facet normal 0 0 1
    outer loop
      vertex -11.806 64.0142 1.1
      vertex -11.806 55.0635 1.1
      vertex -10.0264 63.436 1.1
    endloop
  endfacet
  facet normal 0 0 1
    outer loop
      vertex -11.806 64.0142 1.1
      vertex -13.667 55.2591 1.1
      vertex -11.806 55.0635 1.1
    endloop
  endfacet
  facet normal -0 0 1
    outer loop
      vertex -13.667 63.8186 1.1
      vertex -13.667 55.2591 1.1
      vertex -11.806 64.0142 1.1
    endloop
  endfacet
  facet normal 0 0 1
    outer loop
      vertex -13.667 63.8186 1.1
      vertex -15.2875 56.1947 1.1
      vertex -13.667 55.2591 1.1
    endloop
  endfacet
  facet normal -0 0 1
    outer loop
      vertex -15.2875 62.883 1.1
      vertex -15.2875 56.1947 1.1
      vertex -13.667 63.8186 1.1
    endloop
  endfacet
  facet normal -0 0 1
    outer loop
      vertex -16.3873 61.3692 1.1
      vertex -15.2875 56.1947 1.1
      vertex -15.2875 62.883 1.1
    endloop
  endfacet
  facet normal 0 0 1
    outer loop
      vertex -16.3873 61.3692 1.1
      vertex -16.3873 57.7086 1.1
      vertex -15.2875 56.1947 1.1
    endloop
  endfacet
  facet normal 0 -0 1
    outer loop
      vertex -16.3873 57.7086 1.1
      vertex -16.3873 61.3692 1.1
      vertex -16.7764 59.5389 1.1
    endloop
  endfacet
  facet normal 0 1 -0
    outer loop
      vertex 14.6505 66.9001 0
      vertex -16.5264 66.9001 5
      vertex 14.6505 66.9001 5
    endloop
  endfacet
  facet normal 0 1 0
    outer loop
      vertex -16.5264 66.9001 5
      vertex 14.6505 66.9001 0
      vertex -16.5264 66.9001 0
    endloop
  endfacet
  facet normal -0.866025 0.5 0
    outer loop
      vertex -32.1148 39.9001 0
      vertex -16.5264 66.9001 5
      vertex -16.5264 66.9001 0
    endloop
  endfacet
  facet normal -0.866025 0.5 0
    outer loop
      vertex -16.5264 66.9001 5
      vertex -32.1148 39.9001 0
      vertex -32.1148 39.9001 5
    endloop
  endfacet
  facet normal 0 0 1
    outer loop
      vertex 14.6505 66.9001 5
      vertex -15.7764 65.6011 5
      vertex 15.4005 65.6011 5
    endloop
  endfacet
  facet normal -0 0 1
    outer loop
      vertex -16.5264 66.9001 5
      vertex -15.7764 65.6011 5
      vertex 14.6505 66.9001 5
    endloop
  endfacet
  facet normal 0 0 1
    outer loop
      vertex -32.1148 39.9001 5
      vertex -15.7764 65.6011 5
      vertex -16.5264 66.9001 5
    endloop
  endfacet
  facet normal 0 0 1
    outer loop
      vertex -15.7764 65.6011 5
      vertex -32.1148 39.9001 5
      vertex -31.3648 38.6011 5
    endloop
  endfacet
  facet normal 0 -1 0
    outer loop
      vertex -15.7764 65.6011 2
      vertex 15.4005 65.6011 5
      vertex -15.7764 65.6011 5
    endloop
  endfacet
  facet normal 0 -1 -0
    outer loop
      vertex 15.4005 65.6011 5
      vertex -15.7764 65.6011 2
      vertex 15.4005 65.6011 2
    endloop
  endfacet
  facet normal 0.866025 -0.5 0
    outer loop
      vertex -31.3648 38.6011 5
      vertex -15.7764 65.6011 2
      vertex -15.7764 65.6011 5
    endloop
  endfacet
  facet normal 0.866025 -0.5 0
    outer loop
      vertex -15.7764 65.6011 2
      vertex -31.3648 38.6011 5
      vertex -31.3648 38.6011 2
    endloop
  endfacet
  facet normal -0.866025 -0.5 -0
    outer loop
      vertex -31.3648 38.6011 2
      vertex -32.1148 39.9001 0
      vertex -31.3648 38.6011 0
    endloop
  endfacet
  facet normal -0.866025 -0.5 0
    outer loop
      vertex -32.1148 39.9001 0
      vertex -31.3648 38.6011 2
      vertex -32.1148 39.9001 5
    endloop
  endfacet
  facet normal -0.866025 -0.5 0
    outer loop
      vertex -32.1148 39.9001 5
      vertex -31.3648 38.6011 2
      vertex -31.3648 38.6011 5
    endloop
  endfacet
  facet normal 0.866025 0.500001 -0
    outer loop
      vertex 15.4005 65.6011 2
      vertex 14.6505 66.9001 5
      vertex 15.4005 65.6011 5
    endloop
  endfacet
  facet normal 0.866025 0.500001 0
    outer loop
      vertex 14.6505 66.9001 5
      vertex 15.4005 65.6011 2
      vertex 14.6505 66.9001 0
    endloop
  endfacet
  facet normal 0.866025 0.500001 0
    outer loop
      vertex 14.6505 66.9001 0
      vertex 15.4005 65.6011 2
      vertex 15.4005 65.6011 0
    endloop
  endfacet
endsolid OpenSCAD_Model
