solid OpenSCAD_Model
  facet normal -1 0 0
    outer loop
      vertex 0 98 0
      vertex 0 88 3
      vertex 0 98 3
    endloop
  endfacet
  facet normal -1 0 0
    outer loop
      vertex 0 88 3
      vertex 0 10 3
      vertex 0 88 6
    endloop
  endfacet
  facet normal -1 0 0
    outer loop
      vertex 0 98 0
      vertex 0 10 3
      vertex 0 88 3
    endloop
  endfacet
  facet normal -1 0 0
    outer loop
      vertex 0 0 0
      vertex 0 10 3
      vertex 0 98 0
    endloop
  endfacet
  facet normal -1 -0 0
    outer loop
      vertex 0 10 3
      vertex 0 0 0
      vertex 0 0 3
    endloop
  endfacet
  facet normal -1 -0 0
    outer loop
      vertex 0 88 6
      vertex 0 10 3
      vertex 0 10 6
    endloop
  endfacet
  facet normal -0 0 1
    outer loop
      vertex 0 88 6
      vertex 65 10 6
      vertex 65 88 6
    endloop
  endfacet
  facet normal 0 0 1
    outer loop
      vertex 65 10 6
      vertex 0 88 6
      vertex 0 10 6
    endloop
  endfacet
  facet normal 1 0 0
    outer loop
      vertex 65 88 6
      vertex 65 10 6
      vertex 65 88 3
    endloop
  endfacet
  facet normal 1 -0 0
    outer loop
      vertex 65 88 3
      vertex 65 98 0
      vertex 65 98 3
    endloop
  endfacet
  facet normal 1 0 0
    outer loop
      vertex 65 10 3
      vertex 65 88 3
      vertex 65 10 6
    endloop
  endfacet
  facet normal 1 0 0
    outer loop
      vertex 65 88 3
      vertex 65 10 3
      vertex 65 98 0
    endloop
  endfacet
  facet normal 1 0 0
    outer loop
      vertex 65 0 0
      vertex 65 10 3
      vertex 65 0 3
    endloop
  endfacet
  facet normal 1 0 0
    outer loop
      vertex 65 10 3
      vertex 65 0 0
      vertex 65 98 0
    endloop
  endfacet
  facet normal 0 1 -0
    outer loop
      vertex 65 98 0
      vertex 0 98 3
      vertex 65 98 3
    endloop
  endfacet
  facet normal 0 1 0
    outer loop
      vertex 0 98 3
      vertex 65 98 0
      vertex 0 98 0
    endloop
  endfacet
  facet normal 0 0 -1
    outer loop
      vertex 0 0 0
      vertex 65 98 0
      vertex 65 0 0
    endloop
  endfacet
  facet normal -0 0 -1
    outer loop
      vertex 65 98 0
      vertex 0 0 0
      vertex 0 98 0
    endloop
  endfacet
  facet normal 0 -1 0
    outer loop
      vertex 0 0 0
      vertex 65 0 3
      vertex 0 0 3
    endloop
  endfacet
  facet normal 0 -1 -0
    outer loop
      vertex 65 0 3
      vertex 0 0 0
      vertex 65 0 0
    endloop
  endfacet
  facet normal 0 -1 0
    outer loop
      vertex 0 10 3
      vertex 65 10 6
      vertex 0 10 6
    endloop
  endfacet
  facet normal 0 -1 -0
    outer loop
      vertex 65 10 6
      vertex 0 10 3
      vertex 65 10 3
    endloop
  endfacet
  facet normal 0 0 1
    outer loop
      vertex 65 10 3
      vertex 47.3333 5 3
      vertex 65 0 3
    endloop
  endfacet
  facet normal 0 0 1
    outer loop
      vertex 65 10 3
      vertex 45.3333 8.4641 3
      vertex 47.3333 5 3
    endloop
  endfacet
  facet normal 0 0 1
    outer loop
      vertex 65 10 3
      vertex 41.3333 8.4641 3
      vertex 45.3333 8.4641 3
    endloop
  endfacet
  facet normal 0 0 1
    outer loop
      vertex 41.3333 8.4641 3
      vertex 25.6667 5 3
      vertex 39.3333 5 3
    endloop
  endfacet
  facet normal 0 0 1
    outer loop
      vertex 41.3333 8.4641 3
      vertex 23.6667 8.4641 3
      vertex 25.6667 5 3
    endloop
  endfacet
  facet normal 0 0 1
    outer loop
      vertex 65 10 3
      vertex 23.6667 8.4641 3
      vertex 41.3333 8.4641 3
    endloop
  endfacet
  facet normal -0 0 1
    outer loop
      vertex 0 10 3
      vertex 23.6667 8.4641 3
      vertex 65 10 3
    endloop
  endfacet
  facet normal 0 0 1
    outer loop
      vertex 19.6667 8.4641 3
      vertex 0 10 3
      vertex 17.6667 5 3
    endloop
  endfacet
  facet normal 0 0 1
    outer loop
      vertex 23.6667 8.4641 3
      vertex 0 10 3
      vertex 19.6667 8.4641 3
    endloop
  endfacet
  facet normal -0 0 1
    outer loop
      vertex 45.3333 1.5359 3
      vertex 65 0 3
      vertex 47.3333 5 3
    endloop
  endfacet
  facet normal -0 0 1
    outer loop
      vertex 41.3333 1.5359 3
      vertex 65 0 3
      vertex 45.3333 1.5359 3
    endloop
  endfacet
  facet normal -0 0 1
    outer loop
      vertex 25.6667 5 3
      vertex 41.3333 1.5359 3
      vertex 39.3333 5 3
    endloop
  endfacet
  facet normal 0 0 1
    outer loop
      vertex 23.6667 1.5359 3
      vertex 41.3333 1.5359 3
      vertex 25.6667 5 3
    endloop
  endfacet
  facet normal -0 0 1
    outer loop
      vertex 23.6667 1.5359 3
      vertex 65 0 3
      vertex 41.3333 1.5359 3
    endloop
  endfacet
  facet normal 0 0 1
    outer loop
      vertex 0 0 3
      vertex 23.6667 1.5359 3
      vertex 19.6667 1.5359 3
    endloop
  endfacet
  facet normal 0 0 1
    outer loop
      vertex 0 0 3
      vertex 17.6667 5 3
      vertex 0 10 3
    endloop
  endfacet
  facet normal 0 0 1
    outer loop
      vertex 23.6667 1.5359 3
      vertex 0 0 3
      vertex 65 0 3
    endloop
  endfacet
  facet normal 0 0 1
    outer loop
      vertex 17.6667 5 3
      vertex 0 0 3
      vertex 19.6667 1.5359 3
    endloop
  endfacet
  facet normal 0 0 1
    outer loop
      vertex 65 98 3
      vertex 47.3333 93 3
      vertex 65 88 3
    endloop
  endfacet
  facet normal 0 0 1
    outer loop
      vertex 65 98 3
      vertex 45.3333 96.4641 3
      vertex 47.3333 93 3
    endloop
  endfacet
  facet normal 0 0 1
    outer loop
      vertex 65 98 3
      vertex 41.3333 96.4641 3
      vertex 45.3333 96.4641 3
    endloop
  endfacet
  facet normal 0 0 1
    outer loop
      vertex 41.3333 96.4641 3
      vertex 25.6667 93 3
      vertex 39.3333 93 3
    endloop
  endfacet
  facet normal 0 0 1
    outer loop
      vertex 41.3333 96.4641 3
      vertex 23.6667 96.4641 3
      vertex 25.6667 93 3
    endloop
  endfacet
  facet normal 0 0 1
    outer loop
      vertex 65 98 3
      vertex 23.6667 96.4641 3
      vertex 41.3333 96.4641 3
    endloop
  endfacet
  facet normal -0 0 1
    outer loop
      vertex 0 98 3
      vertex 23.6667 96.4641 3
      vertex 65 98 3
    endloop
  endfacet
  facet normal 0 0 1
    outer loop
      vertex 19.6667 96.4641 3
      vertex 0 98 3
      vertex 17.6667 93 3
    endloop
  endfacet
  facet normal 0 0 1
    outer loop
      vertex 23.6667 96.4641 3
      vertex 0 98 3
      vertex 19.6667 96.4641 3
    endloop
  endfacet
  facet normal -0 0 1
    outer loop
      vertex 45.3333 89.5359 3
      vertex 65 88 3
      vertex 47.3333 93 3
    endloop
  endfacet
  facet normal -0 0 1
    outer loop
      vertex 41.3333 89.5359 3
      vertex 65 88 3
      vertex 45.3333 89.5359 3
    endloop
  endfacet
  facet normal -0 0 1
    outer loop
      vertex 25.6667 93 3
      vertex 41.3333 89.5359 3
      vertex 39.3333 93 3
    endloop
  endfacet
  facet normal 0 0 1
    outer loop
      vertex 23.6667 89.5359 3
      vertex 41.3333 89.5359 3
      vertex 25.6667 93 3
    endloop
  endfacet
  facet normal -0 0 1
    outer loop
      vertex 23.6667 89.5359 3
      vertex 65 88 3
      vertex 41.3333 89.5359 3
    endloop
  endfacet
  facet normal 0 0 1
    outer loop
      vertex 0 88 3
      vertex 23.6667 89.5359 3
      vertex 19.6667 89.5359 3
    endloop
  endfacet
  facet normal 0 0 1
    outer loop
      vertex 0 88 3
      vertex 17.6667 93 3
      vertex 0 98 3
    endloop
  endfacet
  facet normal 0 0 1
    outer loop
      vertex 23.6667 89.5359 3
      vertex 0 88 3
      vertex 65 88 3
    endloop
  endfacet
  facet normal 0 0 1
    outer loop
      vertex 17.6667 93 3
      vertex 0 88 3
      vertex 19.6667 89.5359 3
    endloop
  endfacet
  facet normal 0 1 -0
    outer loop
      vertex 65 88 3
      vertex 0 88 6
      vertex 65 88 6
    endloop
  endfacet
  facet normal 0 1 0
    outer loop
      vertex 0 88 6
      vertex 65 88 3
      vertex 0 88 3
    endloop
  endfacet
  facet normal 0 0 1
    outer loop
      vertex 23.6667 8.4641 1
      vertex 23.6667 1.5359 1
      vertex 25.6667 5 1
    endloop
  endfacet
  facet normal -0 0 1
    outer loop
      vertex 19.6667 8.4641 1
      vertex 23.6667 1.5359 1
      vertex 23.6667 8.4641 1
    endloop
  endfacet
  facet normal 0 0 1
    outer loop
      vertex 19.6667 8.4641 1
      vertex 19.6667 1.5359 1
      vertex 23.6667 1.5359 1
    endloop
  endfacet
  facet normal 0 -0 1
    outer loop
      vertex 19.6667 1.5359 1
      vertex 19.6667 8.4641 1
      vertex 17.6667 5 1
    endloop
  endfacet
  facet normal -0.866025 -0.5 0
    outer loop
      vertex 25.6667 5 1
      vertex 23.6667 8.4641 3
      vertex 23.6667 8.4641 1
    endloop
  endfacet
  facet normal -0.866025 -0.5 0
    outer loop
      vertex 23.6667 8.4641 3
      vertex 25.6667 5 1
      vertex 25.6667 5 3
    endloop
  endfacet
  facet normal 0 1 -0
    outer loop
      vertex 23.6667 1.5359 1
      vertex 19.6667 1.5359 3
      vertex 23.6667 1.5359 3
    endloop
  endfacet
  facet normal 0 1 0
    outer loop
      vertex 19.6667 1.5359 3
      vertex 23.6667 1.5359 1
      vertex 19.6667 1.5359 1
    endloop
  endfacet
  facet normal 0.866025 -0.5 0
    outer loop
      vertex 17.6667 5 3
      vertex 19.6667 8.4641 1
      vertex 19.6667 8.4641 3
    endloop
  endfacet
  facet normal 0.866025 -0.5 0
    outer loop
      vertex 19.6667 8.4641 1
      vertex 17.6667 5 3
      vertex 17.6667 5 1
    endloop
  endfacet
  facet normal 0 -1 0
    outer loop
      vertex 19.6667 8.4641 1
      vertex 23.6667 8.4641 3
      vertex 19.6667 8.4641 3
    endloop
  endfacet
  facet normal 0 -1 -0
    outer loop
      vertex 23.6667 8.4641 3
      vertex 19.6667 8.4641 1
      vertex 23.6667 8.4641 1
    endloop
  endfacet
  facet normal 0.866025 0.5 0
    outer loop
      vertex 19.6667 1.5359 3
      vertex 17.6667 5 1
      vertex 17.6667 5 3
    endloop
  endfacet
  facet normal 0.866025 0.5 0
    outer loop
      vertex 17.6667 5 1
      vertex 19.6667 1.5359 3
      vertex 19.6667 1.5359 1
    endloop
  endfacet
  facet normal -0.866025 0.5 0
    outer loop
      vertex 23.6667 1.5359 1
      vertex 25.6667 5 3
      vertex 25.6667 5 1
    endloop
  endfacet
  facet normal -0.866025 0.5 0
    outer loop
      vertex 25.6667 5 3
      vertex 23.6667 1.5359 1
      vertex 23.6667 1.5359 3
    endloop
  endfacet
  facet normal 0 0 1
    outer loop
      vertex 45.3333 8.4641 1
      vertex 45.3333 1.5359 1
      vertex 47.3333 5 1
    endloop
  endfacet
  facet normal -0 0 1
    outer loop
      vertex 41.3333 8.4641 1
      vertex 45.3333 1.5359 1
      vertex 45.3333 8.4641 1
    endloop
  endfacet
  facet normal 0 0 1
    outer loop
      vertex 41.3333 8.4641 1
      vertex 41.3333 1.5359 1
      vertex 45.3333 1.5359 1
    endloop
  endfacet
  facet normal 0 -0 1
    outer loop
      vertex 41.3333 1.5359 1
      vertex 41.3333 8.4641 1
      vertex 39.3333 5 1
    endloop
  endfacet
  facet normal -0.866025 -0.5 0
    outer loop
      vertex 47.3333 5 1
      vertex 45.3333 8.4641 3
      vertex 45.3333 8.4641 1
    endloop
  endfacet
  facet normal -0.866025 -0.5 0
    outer loop
      vertex 45.3333 8.4641 3
      vertex 47.3333 5 1
      vertex 47.3333 5 3
    endloop
  endfacet
  facet normal 0 1 -0
    outer loop
      vertex 45.3333 1.5359 1
      vertex 41.3333 1.5359 3
      vertex 45.3333 1.5359 3
    endloop
  endfacet
  facet normal 0 1 0
    outer loop
      vertex 41.3333 1.5359 3
      vertex 45.3333 1.5359 1
      vertex 41.3333 1.5359 1
    endloop
  endfacet
  facet normal 0.866025 -0.5 0
    outer loop
      vertex 39.3333 5 3
      vertex 41.3333 8.4641 1
      vertex 41.3333 8.4641 3
    endloop
  endfacet
  facet normal 0.866025 -0.5 0
    outer loop
      vertex 41.3333 8.4641 1
      vertex 39.3333 5 3
      vertex 39.3333 5 1
    endloop
  endfacet
  facet normal 0 -1 0
    outer loop
      vertex 41.3333 8.4641 1
      vertex 45.3333 8.4641 3
      vertex 41.3333 8.4641 3
    endloop
  endfacet
  facet normal 0 -1 -0
    outer loop
      vertex 45.3333 8.4641 3
      vertex 41.3333 8.4641 1
      vertex 45.3333 8.4641 1
    endloop
  endfacet
  facet normal 0.866025 0.5 0
    outer loop
      vertex 41.3333 1.5359 3
      vertex 39.3333 5 1
      vertex 39.3333 5 3
    endloop
  endfacet
  facet normal 0.866025 0.5 0
    outer loop
      vertex 39.3333 5 1
      vertex 41.3333 1.5359 3
      vertex 41.3333 1.5359 1
    endloop
  endfacet
  facet normal -0.866025 0.5 0
    outer loop
      vertex 45.3333 1.5359 1
      vertex 47.3333 5 3
      vertex 47.3333 5 1
    endloop
  endfacet
  facet normal -0.866025 0.5 0
    outer loop
      vertex 47.3333 5 3
      vertex 45.3333 1.5359 1
      vertex 45.3333 1.5359 3
    endloop
  endfacet
  facet normal 0 0 1
    outer loop
      vertex 23.6667 96.4641 1
      vertex 23.6667 89.5359 1
      vertex 25.6667 93 1
    endloop
  endfacet
  facet normal -0 0 1
    outer loop
      vertex 19.6667 96.4641 1
      vertex 23.6667 89.5359 1
      vertex 23.6667 96.4641 1
    endloop
  endfacet
  facet normal 0 0 1
    outer loop
      vertex 19.6667 96.4641 1
      vertex 19.6667 89.5359 1
      vertex 23.6667 89.5359 1
    endloop
  endfacet
  facet normal 0 -0 1
    outer loop
      vertex 19.6667 89.5359 1
      vertex 19.6667 96.4641 1
      vertex 17.6667 93 1
    endloop
  endfacet
  facet normal -0.866025 -0.5 0
    outer loop
      vertex 25.6667 93 1
      vertex 23.6667 96.4641 3
      vertex 23.6667 96.4641 1
    endloop
  endfacet
  facet normal -0.866025 -0.5 0
    outer loop
      vertex 23.6667 96.4641 3
      vertex 25.6667 93 1
      vertex 25.6667 93 3
    endloop
  endfacet
  facet normal 0 1 -0
    outer loop
      vertex 23.6667 89.5359 1
      vertex 19.6667 89.5359 3
      vertex 23.6667 89.5359 3
    endloop
  endfacet
  facet normal 0 1 0
    outer loop
      vertex 19.6667 89.5359 3
      vertex 23.6667 89.5359 1
      vertex 19.6667 89.5359 1
    endloop
  endfacet
  facet normal 0.866025 -0.5 0
    outer loop
      vertex 17.6667 93 3
      vertex 19.6667 96.4641 1
      vertex 19.6667 96.4641 3
    endloop
  endfacet
  facet normal 0.866025 -0.5 0
    outer loop
      vertex 19.6667 96.4641 1
      vertex 17.6667 93 3
      vertex 17.6667 93 1
    endloop
  endfacet
  facet normal 0 -1 0
    outer loop
      vertex 19.6667 96.4641 1
      vertex 23.6667 96.4641 3
      vertex 19.6667 96.4641 3
    endloop
  endfacet
  facet normal 0 -1 -0
    outer loop
      vertex 23.6667 96.4641 3
      vertex 19.6667 96.4641 1
      vertex 23.6667 96.4641 1
    endloop
  endfacet
  facet normal 0.866025 0.5 0
    outer loop
      vertex 19.6667 89.5359 3
      vertex 17.6667 93 1
      vertex 17.6667 93 3
    endloop
  endfacet
  facet normal 0.866025 0.5 0
    outer loop
      vertex 17.6667 93 1
      vertex 19.6667 89.5359 3
      vertex 19.6667 89.5359 1
    endloop
  endfacet
  facet normal -0.866025 0.5 0
    outer loop
      vertex 23.6667 89.5359 1
      vertex 25.6667 93 3
      vertex 25.6667 93 1
    endloop
  endfacet
  facet normal -0.866025 0.5 0
    outer loop
      vertex 25.6667 93 3
      vertex 23.6667 89.5359 1
      vertex 23.6667 89.5359 3
    endloop
  endfacet
  facet normal 0 0 1
    outer loop
      vertex 45.3333 96.4641 1
      vertex 45.3333 89.5359 1
      vertex 47.3333 93 1
    endloop
  endfacet
  facet normal -0 0 1
    outer loop
      vertex 41.3333 96.4641 1
      vertex 45.3333 89.5359 1
      vertex 45.3333 96.4641 1
    endloop
  endfacet
  facet normal 0 0 1
    outer loop
      vertex 41.3333 96.4641 1
      vertex 41.3333 89.5359 1
      vertex 45.3333 89.5359 1
    endloop
  endfacet
  facet normal 0 -0 1
    outer loop
      vertex 41.3333 89.5359 1
      vertex 41.3333 96.4641 1
      vertex 39.3333 93 1
    endloop
  endfacet
  facet normal -0.866025 -0.5 0
    outer loop
      vertex 47.3333 93 1
      vertex 45.3333 96.4641 3
      vertex 45.3333 96.4641 1
    endloop
  endfacet
  facet normal -0.866025 -0.5 0
    outer loop
      vertex 45.3333 96.4641 3
      vertex 47.3333 93 1
      vertex 47.3333 93 3
    endloop
  endfacet
  facet normal 0 1 -0
    outer loop
      vertex 45.3333 89.5359 1
      vertex 41.3333 89.5359 3
      vertex 45.3333 89.5359 3
    endloop
  endfacet
  facet normal 0 1 0
    outer loop
      vertex 41.3333 89.5359 3
      vertex 45.3333 89.5359 1
      vertex 41.3333 89.5359 1
    endloop
  endfacet
  facet normal 0.866025 -0.5 0
    outer loop
      vertex 39.3333 93 3
      vertex 41.3333 96.4641 1
      vertex 41.3333 96.4641 3
    endloop
  endfacet
  facet normal 0.866025 -0.5 0
    outer loop
      vertex 41.3333 96.4641 1
      vertex 39.3333 93 3
      vertex 39.3333 93 1
    endloop
  endfacet
  facet normal 0 -1 0
    outer loop
      vertex 41.3333 96.4641 1
      vertex 45.3333 96.4641 3
      vertex 41.3333 96.4641 3
    endloop
  endfacet
  facet normal 0 -1 -0
    outer loop
      vertex 45.3333 96.4641 3
      vertex 41.3333 96.4641 1
      vertex 45.3333 96.4641 1
    endloop
  endfacet
  facet normal 0.866025 0.5 0
    outer loop
      vertex 41.3333 89.5359 3
      vertex 39.3333 93 1
      vertex 39.3333 93 3
    endloop
  endfacet
  facet normal 0.866025 0.5 0
    outer loop
      vertex 39.3333 93 1
      vertex 41.3333 89.5359 3
      vertex 41.3333 89.5359 1
    endloop
  endfacet
  facet normal -0.866025 0.5 0
    outer loop
      vertex 45.3333 89.5359 1
      vertex 47.3333 93 3
      vertex 47.3333 93 1
    endloop
  endfacet
  facet normal -0.866025 0.5 0
    outer loop
      vertex 47.3333 93 3
      vertex 45.3333 89.5359 1
      vertex 45.3333 89.5359 3
    endloop
  endfacet
endsolid OpenSCAD_Model
