solid OpenSCAD_Model
  facet normal -1 0 0
    outer loop
      vertex 0 110 0
      vertex 0 100 3
      vertex 0 110 3
    endloop
  endfacet
  facet normal -1 0 0
    outer loop
      vertex 0 100 3
      vertex 0 10 3
      vertex 0 100 6
    endloop
  endfacet
  facet normal -1 0 0
    outer loop
      vertex 0 110 0
      vertex 0 10 3
      vertex 0 100 3
    endloop
  endfacet
  facet normal -1 0 0
    outer loop
      vertex 0 0 0
      vertex 0 10 3
      vertex 0 110 0
    endloop
  endfacet
  facet normal -1 -0 0
    outer loop
      vertex 0 10 3
      vertex 0 0 0
      vertex 0 0 3
    endloop
  endfacet
  facet normal -1 -0 0
    outer loop
      vertex 0 100 6
      vertex 0 10 3
      vertex 0 10 6
    endloop
  endfacet
  facet normal -0 0 1
    outer loop
      vertex 0 100 6
      vertex 65 10 6
      vertex 65 100 6
    endloop
  endfacet
  facet normal 0 0 1
    outer loop
      vertex 65 10 6
      vertex 0 100 6
      vertex 0 10 6
    endloop
  endfacet
  facet normal 1 0 0
    outer loop
      vertex 65 100 6
      vertex 65 10 6
      vertex 65 100 3
    endloop
  endfacet
  facet normal 1 -0 0
    outer loop
      vertex 65 100 3
      vertex 65 110 0
      vertex 65 110 3
    endloop
  endfacet
  facet normal 1 0 0
    outer loop
      vertex 65 10 3
      vertex 65 100 3
      vertex 65 10 6
    endloop
  endfacet
  facet normal 1 0 0
    outer loop
      vertex 65 100 3
      vertex 65 10 3
      vertex 65 110 0
    endloop
  endfacet
  facet normal 1 0 0
    outer loop
      vertex 65 0 0
      vertex 65 10 3
      vertex 65 0 3
    endloop
  endfacet
  facet normal 1 0 0
    outer loop
      vertex 65 10 3
      vertex 65 0 0
      vertex 65 110 0
    endloop
  endfacet
  facet normal 0 0 -1
    outer loop
      vertex 0 0 0
      vertex 65 110 0
      vertex 65 0 0
    endloop
  endfacet
  facet normal -0 0 -1
    outer loop
      vertex 65 110 0
      vertex 0 0 0
      vertex 0 110 0
    endloop
  endfacet
  facet normal 0 -1 0
    outer loop
      vertex 0 0 0
      vertex 65 0 3
      vertex 0 0 3
    endloop
  endfacet
  facet normal 0 -1 -0
    outer loop
      vertex 65 0 3
      vertex 0 0 0
      vertex 65 0 0
    endloop
  endfacet
  facet normal 0 1 -0
    outer loop
      vertex 65 110 0
      vertex 0 110 3
      vertex 65 110 3
    endloop
  endfacet
  facet normal 0 1 0
    outer loop
      vertex 0 110 3
      vertex 65 110 0
      vertex 0 110 0
    endloop
  endfacet
  facet normal 0 0 1
    outer loop
      vertex 65 10 3
      vertex 47.3333 5 3
      vertex 65 0 3
    endloop
  endfacet
  facet normal 0 0 1
    outer loop
      vertex 65 10 3
      vertex 45.3333 8.4641 3
      vertex 47.3333 5 3
    endloop
  endfacet
  facet normal 0 0 1
    outer loop
      vertex 65 10 3
      vertex 41.3333 8.4641 3
      vertex 45.3333 8.4641 3
    endloop
  endfacet
  facet normal 0 0 1
    outer loop
      vertex 41.3333 8.4641 3
      vertex 25.6667 5 3
      vertex 39.3333 5 3
    endloop
  endfacet
  facet normal 0 0 1
    outer loop
      vertex 41.3333 8.4641 3
      vertex 23.6667 8.4641 3
      vertex 25.6667 5 3
    endloop
  endfacet
  facet normal 0 0 1
    outer loop
      vertex 65 10 3
      vertex 23.6667 8.4641 3
      vertex 41.3333 8.4641 3
    endloop
  endfacet
  facet normal -0 0 1
    outer loop
      vertex 0 10 3
      vertex 23.6667 8.4641 3
      vertex 65 10 3
    endloop
  endfacet
  facet normal 0 0 1
    outer loop
      vertex 19.6667 8.4641 3
      vertex 0 10 3
      vertex 17.6667 5 3
    endloop
  endfacet
  facet normal 0 0 1
    outer loop
      vertex 23.6667 8.4641 3
      vertex 0 10 3
      vertex 19.6667 8.4641 3
    endloop
  endfacet
  facet normal -0 0 1
    outer loop
      vertex 45.3333 1.5359 3
      vertex 65 0 3
      vertex 47.3333 5 3
    endloop
  endfacet
  facet normal -0 0 1
    outer loop
      vertex 41.3333 1.5359 3
      vertex 65 0 3
      vertex 45.3333 1.5359 3
    endloop
  endfacet
  facet normal -0 0 1
    outer loop
      vertex 25.6667 5 3
      vertex 41.3333 1.5359 3
      vertex 39.3333 5 3
    endloop
  endfacet
  facet normal 0 0 1
    outer loop
      vertex 23.6667 1.5359 3
      vertex 41.3333 1.5359 3
      vertex 25.6667 5 3
    endloop
  endfacet
  facet normal -0 0 1
    outer loop
      vertex 23.6667 1.5359 3
      vertex 65 0 3
      vertex 41.3333 1.5359 3
    endloop
  endfacet
  facet normal 0 0 1
    outer loop
      vertex 0 0 3
      vertex 23.6667 1.5359 3
      vertex 19.6667 1.5359 3
    endloop
  endfacet
  facet normal 0 0 1
    outer loop
      vertex 0 0 3
      vertex 17.6667 5 3
      vertex 0 10 3
    endloop
  endfacet
  facet normal 0 0 1
    outer loop
      vertex 23.6667 1.5359 3
      vertex 0 0 3
      vertex 65 0 3
    endloop
  endfacet
  facet normal 0 0 1
    outer loop
      vertex 17.6667 5 3
      vertex 0 0 3
      vertex 19.6667 1.5359 3
    endloop
  endfacet
  facet normal 0 -1 0
    outer loop
      vertex 0 10 3
      vertex 65 10 6
      vertex 0 10 6
    endloop
  endfacet
  facet normal 0 -1 -0
    outer loop
      vertex 65 10 6
      vertex 0 10 3
      vertex 65 10 3
    endloop
  endfacet
  facet normal 0 0 1
    outer loop
      vertex 65 110 3
      vertex 47.3333 105 3
      vertex 65 100 3
    endloop
  endfacet
  facet normal 0 0 1
    outer loop
      vertex 65 110 3
      vertex 45.3333 108.464 3
      vertex 47.3333 105 3
    endloop
  endfacet
  facet normal 0 0 1
    outer loop
      vertex 65 110 3
      vertex 41.3333 108.464 3
      vertex 45.3333 108.464 3
    endloop
  endfacet
  facet normal 0 0 1
    outer loop
      vertex 41.3333 108.464 3
      vertex 25.6667 105 3
      vertex 39.3333 105 3
    endloop
  endfacet
  facet normal 0 0 1
    outer loop
      vertex 41.3333 108.464 3
      vertex 23.6667 108.464 3
      vertex 25.6667 105 3
    endloop
  endfacet
  facet normal 0 0 1
    outer loop
      vertex 65 110 3
      vertex 23.6667 108.464 3
      vertex 41.3333 108.464 3
    endloop
  endfacet
  facet normal -0 0 1
    outer loop
      vertex 0 110 3
      vertex 23.6667 108.464 3
      vertex 65 110 3
    endloop
  endfacet
  facet normal 0 0 1
    outer loop
      vertex 19.6667 108.464 3
      vertex 0 110 3
      vertex 17.6667 105 3
    endloop
  endfacet
  facet normal 0 0 1
    outer loop
      vertex 23.6667 108.464 3
      vertex 0 110 3
      vertex 19.6667 108.464 3
    endloop
  endfacet
  facet normal -0 0 1
    outer loop
      vertex 45.3333 101.536 3
      vertex 65 100 3
      vertex 47.3333 105 3
    endloop
  endfacet
  facet normal -0 0 1
    outer loop
      vertex 41.3333 101.536 3
      vertex 65 100 3
      vertex 45.3333 101.536 3
    endloop
  endfacet
  facet normal -0 0 1
    outer loop
      vertex 25.6667 105 3
      vertex 41.3333 101.536 3
      vertex 39.3333 105 3
    endloop
  endfacet
  facet normal 0 0 1
    outer loop
      vertex 23.6667 101.536 3
      vertex 41.3333 101.536 3
      vertex 25.6667 105 3
    endloop
  endfacet
  facet normal -0 0 1
    outer loop
      vertex 23.6667 101.536 3
      vertex 65 100 3
      vertex 41.3333 101.536 3
    endloop
  endfacet
  facet normal 0 0 1
    outer loop
      vertex 0 100 3
      vertex 23.6667 101.536 3
      vertex 19.6667 101.536 3
    endloop
  endfacet
  facet normal 0 0 1
    outer loop
      vertex 0 100 3
      vertex 17.6667 105 3
      vertex 0 110 3
    endloop
  endfacet
  facet normal 0 0 1
    outer loop
      vertex 23.6667 101.536 3
      vertex 0 100 3
      vertex 65 100 3
    endloop
  endfacet
  facet normal 0 0 1
    outer loop
      vertex 17.6667 105 3
      vertex 0 100 3
      vertex 19.6667 101.536 3
    endloop
  endfacet
  facet normal 0 1 -0
    outer loop
      vertex 65 100 3
      vertex 0 100 6
      vertex 65 100 6
    endloop
  endfacet
  facet normal 0 1 0
    outer loop
      vertex 0 100 6
      vertex 65 100 3
      vertex 0 100 3
    endloop
  endfacet
  facet normal 0.866025 0.5 0
    outer loop
      vertex 25.6667 5 5
      vertex 23.6667 8.4641 3
      vertex 23.6667 8.4641 5
    endloop
  endfacet
  facet normal 0.866025 0.5 0
    outer loop
      vertex 23.6667 8.4641 3
      vertex 25.6667 5 5
      vertex 25.6667 5 3
    endloop
  endfacet
  facet normal 0 -1 0
    outer loop
      vertex 19.6667 1.5359 3
      vertex 23.6667 1.5359 5
      vertex 19.6667 1.5359 5
    endloop
  endfacet
  facet normal 0 -1 -0
    outer loop
      vertex 23.6667 1.5359 5
      vertex 19.6667 1.5359 3
      vertex 23.6667 1.5359 3
    endloop
  endfacet
  facet normal -0.866025 0.5 0
    outer loop
      vertex 17.6667 5 3
      vertex 19.6667 8.4641 5
      vertex 19.6667 8.4641 3
    endloop
  endfacet
  facet normal -0.866025 0.5 0
    outer loop
      vertex 19.6667 8.4641 5
      vertex 17.6667 5 3
      vertex 17.6667 5 5
    endloop
  endfacet
  facet normal 0 1 -0
    outer loop
      vertex 23.6667 8.4641 3
      vertex 19.6667 8.4641 5
      vertex 23.6667 8.4641 5
    endloop
  endfacet
  facet normal 0 1 0
    outer loop
      vertex 19.6667 8.4641 5
      vertex 23.6667 8.4641 3
      vertex 19.6667 8.4641 3
    endloop
  endfacet
  facet normal -0.866025 -0.5 0
    outer loop
      vertex 19.6667 1.5359 3
      vertex 17.6667 5 5
      vertex 17.6667 5 3
    endloop
  endfacet
  facet normal -0.866025 -0.5 0
    outer loop
      vertex 17.6667 5 5
      vertex 19.6667 1.5359 3
      vertex 19.6667 1.5359 5
    endloop
  endfacet
  facet normal 0.866025 -0.5 0
    outer loop
      vertex 23.6667 1.5359 5
      vertex 25.6667 5 3
      vertex 25.6667 5 5
    endloop
  endfacet
  facet normal 0.866025 -0.5 0
    outer loop
      vertex 25.6667 5 3
      vertex 23.6667 1.5359 5
      vertex 23.6667 1.5359 3
    endloop
  endfacet
  facet normal 0 0 1
    outer loop
      vertex 23.6667 8.4641 5
      vertex 23.6667 1.5359 5
      vertex 25.6667 5 5
    endloop
  endfacet
  facet normal -0 0 1
    outer loop
      vertex 19.6667 8.4641 5
      vertex 23.6667 1.5359 5
      vertex 23.6667 8.4641 5
    endloop
  endfacet
  facet normal 0 0 1
    outer loop
      vertex 19.6667 8.4641 5
      vertex 19.6667 1.5359 5
      vertex 23.6667 1.5359 5
    endloop
  endfacet
  facet normal 0 -0 1
    outer loop
      vertex 19.6667 1.5359 5
      vertex 19.6667 8.4641 5
      vertex 17.6667 5 5
    endloop
  endfacet
  facet normal 0.866025 0.5 0
    outer loop
      vertex 47.3333 5 5
      vertex 45.3333 8.4641 3
      vertex 45.3333 8.4641 5
    endloop
  endfacet
  facet normal 0.866025 0.5 0
    outer loop
      vertex 45.3333 8.4641 3
      vertex 47.3333 5 5
      vertex 47.3333 5 3
    endloop
  endfacet
  facet normal 0 -1 0
    outer loop
      vertex 41.3333 1.5359 3
      vertex 45.3333 1.5359 5
      vertex 41.3333 1.5359 5
    endloop
  endfacet
  facet normal 0 -1 -0
    outer loop
      vertex 45.3333 1.5359 5
      vertex 41.3333 1.5359 3
      vertex 45.3333 1.5359 3
    endloop
  endfacet
  facet normal -0.866025 0.5 0
    outer loop
      vertex 39.3333 5 3
      vertex 41.3333 8.4641 5
      vertex 41.3333 8.4641 3
    endloop
  endfacet
  facet normal -0.866025 0.5 0
    outer loop
      vertex 41.3333 8.4641 5
      vertex 39.3333 5 3
      vertex 39.3333 5 5
    endloop
  endfacet
  facet normal 0 1 -0
    outer loop
      vertex 45.3333 8.4641 3
      vertex 41.3333 8.4641 5
      vertex 45.3333 8.4641 5
    endloop
  endfacet
  facet normal 0 1 0
    outer loop
      vertex 41.3333 8.4641 5
      vertex 45.3333 8.4641 3
      vertex 41.3333 8.4641 3
    endloop
  endfacet
  facet normal -0.866025 -0.5 0
    outer loop
      vertex 41.3333 1.5359 3
      vertex 39.3333 5 5
      vertex 39.3333 5 3
    endloop
  endfacet
  facet normal -0.866025 -0.5 0
    outer loop
      vertex 39.3333 5 5
      vertex 41.3333 1.5359 3
      vertex 41.3333 1.5359 5
    endloop
  endfacet
  facet normal 0 0 1
    outer loop
      vertex 45.3333 8.4641 5
      vertex 45.3333 1.5359 5
      vertex 47.3333 5 5
    endloop
  endfacet
  facet normal -0 0 1
    outer loop
      vertex 41.3333 8.4641 5
      vertex 45.3333 1.5359 5
      vertex 45.3333 8.4641 5
    endloop
  endfacet
  facet normal 0 0 1
    outer loop
      vertex 41.3333 8.4641 5
      vertex 41.3333 1.5359 5
      vertex 45.3333 1.5359 5
    endloop
  endfacet
  facet normal 0 -0 1
    outer loop
      vertex 41.3333 1.5359 5
      vertex 41.3333 8.4641 5
      vertex 39.3333 5 5
    endloop
  endfacet
  facet normal 0.866025 -0.5 0
    outer loop
      vertex 45.3333 1.5359 5
      vertex 47.3333 5 3
      vertex 47.3333 5 5
    endloop
  endfacet
  facet normal 0.866025 -0.5 0
    outer loop
      vertex 47.3333 5 3
      vertex 45.3333 1.5359 5
      vertex 45.3333 1.5359 3
    endloop
  endfacet
  facet normal 0.866019 0.500011 0
    outer loop
      vertex 25.6667 105 5
      vertex 23.6667 108.464 3
      vertex 23.6667 108.464 5
    endloop
  endfacet
  facet normal 0.866019 0.500011 0
    outer loop
      vertex 23.6667 108.464 3
      vertex 25.6667 105 5
      vertex 25.6667 105 3
    endloop
  endfacet
  facet normal 0 -1 0
    outer loop
      vertex 19.6667 101.536 3
      vertex 23.6667 101.536 5
      vertex 19.6667 101.536 5
    endloop
  endfacet
  facet normal 0 -1 -0
    outer loop
      vertex 23.6667 101.536 5
      vertex 19.6667 101.536 3
      vertex 23.6667 101.536 3
    endloop
  endfacet
  facet normal -0.866019 0.500011 0
    outer loop
      vertex 17.6667 105 3
      vertex 19.6667 108.464 5
      vertex 19.6667 108.464 3
    endloop
  endfacet
  facet normal -0.866019 0.500011 0
    outer loop
      vertex 19.6667 108.464 5
      vertex 17.6667 105 3
      vertex 17.6667 105 5
    endloop
  endfacet
  facet normal 0 1 -0
    outer loop
      vertex 23.6667 108.464 3
      vertex 19.6667 108.464 5
      vertex 23.6667 108.464 5
    endloop
  endfacet
  facet normal 0 1 0
    outer loop
      vertex 19.6667 108.464 5
      vertex 23.6667 108.464 3
      vertex 19.6667 108.464 3
    endloop
  endfacet
  facet normal -0.866019 -0.500011 0
    outer loop
      vertex 19.6667 101.536 3
      vertex 17.6667 105 5
      vertex 17.6667 105 3
    endloop
  endfacet
  facet normal -0.866019 -0.500011 0
    outer loop
      vertex 17.6667 105 5
      vertex 19.6667 101.536 3
      vertex 19.6667 101.536 5
    endloop
  endfacet
  facet normal 0.866019 -0.500011 0
    outer loop
      vertex 23.6667 101.536 5
      vertex 25.6667 105 3
      vertex 25.6667 105 5
    endloop
  endfacet
  facet normal 0.866019 -0.500011 0
    outer loop
      vertex 25.6667 105 3
      vertex 23.6667 101.536 5
      vertex 23.6667 101.536 3
    endloop
  endfacet
  facet normal 0 0 1
    outer loop
      vertex 23.6667 108.464 5
      vertex 23.6667 101.536 5
      vertex 25.6667 105 5
    endloop
  endfacet
  facet normal -0 0 1
    outer loop
      vertex 19.6667 108.464 5
      vertex 23.6667 101.536 5
      vertex 23.6667 108.464 5
    endloop
  endfacet
  facet normal 0 0 1
    outer loop
      vertex 19.6667 108.464 5
      vertex 19.6667 101.536 5
      vertex 23.6667 101.536 5
    endloop
  endfacet
  facet normal 0 -0 1
    outer loop
      vertex 19.6667 101.536 5
      vertex 19.6667 108.464 5
      vertex 17.6667 105 5
    endloop
  endfacet
  facet normal 0.866019 0.500011 0
    outer loop
      vertex 47.3333 105 5
      vertex 45.3333 108.464 3
      vertex 45.3333 108.464 5
    endloop
  endfacet
  facet normal 0.866019 0.500011 0
    outer loop
      vertex 45.3333 108.464 3
      vertex 47.3333 105 5
      vertex 47.3333 105 3
    endloop
  endfacet
  facet normal 0 -1 0
    outer loop
      vertex 41.3333 101.536 3
      vertex 45.3333 101.536 5
      vertex 41.3333 101.536 5
    endloop
  endfacet
  facet normal 0 -1 -0
    outer loop
      vertex 45.3333 101.536 5
      vertex 41.3333 101.536 3
      vertex 45.3333 101.536 3
    endloop
  endfacet
  facet normal -0.866019 0.500011 0
    outer loop
      vertex 39.3333 105 3
      vertex 41.3333 108.464 5
      vertex 41.3333 108.464 3
    endloop
  endfacet
  facet normal -0.866019 0.500011 0
    outer loop
      vertex 41.3333 108.464 5
      vertex 39.3333 105 3
      vertex 39.3333 105 5
    endloop
  endfacet
  facet normal 0 1 -0
    outer loop
      vertex 45.3333 108.464 3
      vertex 41.3333 108.464 5
      vertex 45.3333 108.464 5
    endloop
  endfacet
  facet normal 0 1 0
    outer loop
      vertex 41.3333 108.464 5
      vertex 45.3333 108.464 3
      vertex 41.3333 108.464 3
    endloop
  endfacet
  facet normal -0.866019 -0.500011 0
    outer loop
      vertex 41.3333 101.536 3
      vertex 39.3333 105 5
      vertex 39.3333 105 3
    endloop
  endfacet
  facet normal -0.866019 -0.500011 0
    outer loop
      vertex 39.3333 105 5
      vertex 41.3333 101.536 3
      vertex 41.3333 101.536 5
    endloop
  endfacet
  facet normal 0 0 1
    outer loop
      vertex 45.3333 108.464 5
      vertex 45.3333 101.536 5
      vertex 47.3333 105 5
    endloop
  endfacet
  facet normal -0 0 1
    outer loop
      vertex 41.3333 108.464 5
      vertex 45.3333 101.536 5
      vertex 45.3333 108.464 5
    endloop
  endfacet
  facet normal 0 0 1
    outer loop
      vertex 41.3333 108.464 5
      vertex 41.3333 101.536 5
      vertex 45.3333 101.536 5
    endloop
  endfacet
  facet normal 0 -0 1
    outer loop
      vertex 41.3333 101.536 5
      vertex 41.3333 108.464 5
      vertex 39.3333 105 5
    endloop
  endfacet
  facet normal 0.866019 -0.500011 0
    outer loop
      vertex 45.3333 101.536 5
      vertex 47.3333 105 3
      vertex 47.3333 105 5
    endloop
  endfacet
  facet normal 0.866019 -0.500011 0
    outer loop
      vertex 47.3333 105 3
      vertex 45.3333 101.536 5
      vertex 45.3333 101.536 3
    endloop
  endfacet
endsolid OpenSCAD_Model
