solid OpenSCAD_Model
  facet normal 1 0 0
    outer loop
      vertex 2 78.1 14
      vertex 2 67.1 8.65
      vertex 2 78.1 8.65
    endloop
  endfacet
  facet normal 1 0 0
    outer loop
      vertex 2 67.1 8.65
      vertex 2 56.4 8.65
      vertex 2 67.1 3.3
    endloop
  endfacet
  facet normal 1 0 0
    outer loop
      vertex 2 78.1 14
      vertex 2 56.4 8.65
      vertex 2 67.1 8.65
    endloop
  endfacet
  facet normal 1 0 0
    outer loop
      vertex 2 78.1 14
      vertex 2 45.4 8.65
      vertex 2 56.4 8.65
    endloop
  endfacet
  facet normal 1 0 0
    outer loop
      vertex 2 45.4 8.65
      vertex 2 34.7 8.65
      vertex 2 45.4 3.3
    endloop
  endfacet
  facet normal 1 0 0
    outer loop
      vertex 2 78.1 14
      vertex 2 34.7 8.65
      vertex 2 45.4 8.65
    endloop
  endfacet
  facet normal 1 -0 0
    outer loop
      vertex 2 2 14
      vertex 2 34.7 8.65
      vertex 2 78.1 14
    endloop
  endfacet
  facet normal 1 0 0
    outer loop
      vertex 2 23.7 8.65
      vertex 2 13 8.65
      vertex 2 23.7 3.3
    endloop
  endfacet
  facet normal 1 0 0
    outer loop
      vertex 2 34.7 8.65
      vertex 2 2 14
      vertex 2 23.7 8.65
    endloop
  endfacet
  facet normal 1 0 0
    outer loop
      vertex 2 23.7 8.65
      vertex 2 2 14
      vertex 2 13 8.65
    endloop
  endfacet
  facet normal 1 0 0
    outer loop
      vertex 2 13 8.65
      vertex 2 2 14
      vertex 2 2 8.65
    endloop
  endfacet
  facet normal 1 0 0
    outer loop
      vertex 2 67.1 3.3
      vertex 2 56.4 8.65
      vertex 2 56.4 3.3
    endloop
  endfacet
  facet normal 1 0 0
    outer loop
      vertex 2 45.4 3.3
      vertex 2 34.7 8.65
      vertex 2 34.7 3.3
    endloop
  endfacet
  facet normal 1 0 0
    outer loop
      vertex 2 23.7 3.3
      vertex 2 13 8.65
      vertex 2 13 3.3
    endloop
  endfacet
  facet normal 0 0 1
    outer loop
      vertex 110 80 14
      vertex 108 56.4 14
      vertex 110 0 14
    endloop
  endfacet
  facet normal 0 0 1
    outer loop
      vertex 110 80 14
      vertex 97.3 78.1 14
      vertex 108 56.4 14
    endloop
  endfacet
  facet normal 0 0 1
    outer loop
      vertex 110 80 14
      vertex 64.7 78.1 14
      vertex 97.3 78.1 14
    endloop
  endfacet
  facet normal 0 0 1
    outer loop
      vertex 64.7 78.1 14
      vertex 62.7 40 14
      vertex 64.7 2 14
    endloop
  endfacet
  facet normal 0 0 1
    outer loop
      vertex 64.7 78.1 14
      vertex 62.4581 41.9149 14
      vertex 62.7 40 14
    endloop
  endfacet
  facet normal 0 0 1
    outer loop
      vertex 64.7 78.1 14
      vertex 61.7476 43.7095 14
      vertex 62.4581 41.9149 14
    endloop
  endfacet
  facet normal 0 0 1
    outer loop
      vertex 64.7 78.1 14
      vertex 60.6131 45.271 14
      vertex 61.7476 43.7095 14
    endloop
  endfacet
  facet normal 0 0 1
    outer loop
      vertex 64.7 78.1 14
      vertex 59.1259 46.5013 14
      vertex 60.6131 45.271 14
    endloop
  endfacet
  facet normal 0 0 1
    outer loop
      vertex 64.7 78.1 14
      vertex 57.3794 47.3231 14
      vertex 59.1259 46.5013 14
    endloop
  endfacet
  facet normal -0 0 1
    outer loop
      vertex 45.3 56.4 14
      vertex 57.3794 47.3231 14
      vertex 64.7 78.1 14
    endloop
  endfacet
  facet normal 0 0 1
    outer loop
      vertex 57.3794 47.3231 14
      vertex 45.3 56.4 14
      vertex 55.4835 47.6848 14
    endloop
  endfacet
  facet normal 0 0 1
    outer loop
      vertex 55.4835 47.6848 14
      vertex 45.3 56.4 14
      vertex 53.5572 47.5636 14
    endloop
  endfacet
  facet normal 0 0 1
    outer loop
      vertex 53.5572 47.5636 14
      vertex 45.3 56.4 14
      vertex 51.7215 46.9672 14
    endloop
  endfacet
  facet normal 0 0 1
    outer loop
      vertex 51.7215 46.9672 14
      vertex 45.3 56.4 14
      vertex 50.0918 45.933 14
    endloop
  endfacet
  facet normal 0 0 1
    outer loop
      vertex 50.0918 45.933 14
      vertex 45.3 56.4 14
      vertex 48.7706 44.5259 14
    endloop
  endfacet
  facet normal 0 0 1
    outer loop
      vertex 47.3607 40.9651 14
      vertex 45.3 56.4 14
      vertex 47.3607 39.0349 14
    endloop
  endfacet
  facet normal 0 0 1
    outer loop
      vertex 47.8407 42.8346 14
      vertex 45.3 56.4 14
      vertex 47.3607 40.9651 14
    endloop
  endfacet
  facet normal 0 0 1
    outer loop
      vertex 48.7706 44.5259 14
      vertex 45.3 56.4 14
      vertex 47.8407 42.8346 14
    endloop
  endfacet
  facet normal 0 0 1
    outer loop
      vertex 64.7 78.1 14
      vertex 34.6 78.1 14
      vertex 45.3 56.4 14
    endloop
  endfacet
  facet normal -0 0 1
    outer loop
      vertex 0 80 14
      vertex 64.7 78.1 14
      vertex 110 80 14
    endloop
  endfacet
  facet normal 0 0 1
    outer loop
      vertex 64.7 78.1 14
      vertex 0 80 14
      vertex 34.6 78.1 14
    endloop
  endfacet
  facet normal 0 0 1
    outer loop
      vertex 2 78.1 14
      vertex 0 80 14
      vertex 2 2 14
    endloop
  endfacet
  facet normal 0 0 1
    outer loop
      vertex 34.6 78.1 14
      vertex 0 80 14
      vertex 2 78.1 14
    endloop
  endfacet
  facet normal -0 0 1
    outer loop
      vertex 108 2 14
      vertex 110 0 14
      vertex 108 56.4 14
    endloop
  endfacet
  facet normal -0 0 1
    outer loop
      vertex 64.7 2 14
      vertex 110 0 14
      vertex 108 2 14
    endloop
  endfacet
  facet normal -0 0 1
    outer loop
      vertex 62.4581 38.0851 14
      vertex 64.7 2 14
      vertex 62.7 40 14
    endloop
  endfacet
  facet normal -0 0 1
    outer loop
      vertex 61.7476 36.2905 14
      vertex 64.7 2 14
      vertex 62.4581 38.0851 14
    endloop
  endfacet
  facet normal -0 0 1
    outer loop
      vertex 60.6131 34.729 14
      vertex 64.7 2 14
      vertex 61.7476 36.2905 14
    endloop
  endfacet
  facet normal -0 0 1
    outer loop
      vertex 59.1259 33.4987 14
      vertex 64.7 2 14
      vertex 60.6131 34.729 14
    endloop
  endfacet
  facet normal -0 0 1
    outer loop
      vertex 57.3794 32.6769 14
      vertex 64.7 2 14
      vertex 59.1259 33.4987 14
    endloop
  endfacet
  facet normal -0 0 1
    outer loop
      vertex 55.4835 32.3152 14
      vertex 64.7 2 14
      vertex 57.3794 32.6769 14
    endloop
  endfacet
  facet normal 0 0 1
    outer loop
      vertex 45.3 2 14
      vertex 55.4835 32.3152 14
      vertex 53.5572 32.4364 14
    endloop
  endfacet
  facet normal 0 0 1
    outer loop
      vertex 45.3 2 14
      vertex 53.5572 32.4364 14
      vertex 51.7215 33.0328 14
    endloop
  endfacet
  facet normal 0 0 1
    outer loop
      vertex 45.3 2 14
      vertex 51.7215 33.0328 14
      vertex 50.0918 34.067 14
    endloop
  endfacet
  facet normal 0 0 1
    outer loop
      vertex 45.3 2 14
      vertex 50.0918 34.067 14
      vertex 48.7706 35.4741 14
    endloop
  endfacet
  facet normal 0 0 1
    outer loop
      vertex 45.3 2 14
      vertex 48.7706 35.4741 14
      vertex 47.8407 37.1654 14
    endloop
  endfacet
  facet normal 0 0 1
    outer loop
      vertex 45.3 2 14
      vertex 47.3607 39.0349 14
      vertex 45.3 56.4 14
    endloop
  endfacet
  facet normal 0 0 1
    outer loop
      vertex 45.3 2 14
      vertex 47.8407 37.1654 14
      vertex 47.3607 39.0349 14
    endloop
  endfacet
  facet normal 0 0 1
    outer loop
      vertex 55.4835 32.3152 14
      vertex 45.3 2 14
      vertex 64.7 2 14
    endloop
  endfacet
  facet normal -0 0 1
    outer loop
      vertex 45.3 2 14
      vertex 110 0 14
      vertex 64.7 2 14
    endloop
  endfacet
  facet normal 0 0 1
    outer loop
      vertex 0 0 14
      vertex 45.3 2 14
      vertex 2 2 14
    endloop
  endfacet
  facet normal 0 0 1
    outer loop
      vertex 45.3 2 14
      vertex 0 0 14
      vertex 110 0 14
    endloop
  endfacet
  facet normal 0 0 1
    outer loop
      vertex 0 0 14
      vertex 2 2 14
      vertex 0 80 14
    endloop
  endfacet
  facet normal 0 0 1
    outer loop
      vertex 108 56.4 14
      vertex 97.3 78.1 14
      vertex 97.3 56.4 14
    endloop
  endfacet
  facet normal 0 0 1
    outer loop
      vertex 45.3 56.4 14
      vertex 34.6 78.1 14
      vertex 34.6 56.4 14
    endloop
  endfacet
  facet normal -1 0 0
    outer loop
      vertex 45.3 23.7 3.3
      vertex 45.3 13 3.3
      vertex 45.3 23.7 8.65
    endloop
  endfacet
  facet normal -1 0 0
    outer loop
      vertex 45.3 45.4 3.3
      vertex 45.3 34.7 3.3
      vertex 45.3 45.4 8.65
    endloop
  endfacet
  facet normal -1 0 0
    outer loop
      vertex 45.3 45.4 8.65
      vertex 45.3 56.4 14
      vertex 45.3 56.4 8.65
    endloop
  endfacet
  facet normal -1 0 0
    outer loop
      vertex 45.3 34.7 8.65
      vertex 45.3 45.4 8.65
      vertex 45.3 34.7 3.3
    endloop
  endfacet
  facet normal -1 0 0
    outer loop
      vertex 45.3 34.7 8.65
      vertex 45.3 56.4 14
      vertex 45.3 45.4 8.65
    endloop
  endfacet
  facet normal -1 0 0
    outer loop
      vertex 45.3 23.7 8.65
      vertex 45.3 56.4 14
      vertex 45.3 34.7 8.65
    endloop
  endfacet
  facet normal -1 0 0
    outer loop
      vertex 45.3 13 8.65
      vertex 45.3 23.7 8.65
      vertex 45.3 13 3.3
    endloop
  endfacet
  facet normal -1 0 0
    outer loop
      vertex 45.3 2 14
      vertex 45.3 23.7 8.65
      vertex 45.3 13 8.65
    endloop
  endfacet
  facet normal -1 0 0
    outer loop
      vertex 45.3 2 14
      vertex 45.3 13 8.65
      vertex 45.3 2 8.65
    endloop
  endfacet
  facet normal -1 0 0
    outer loop
      vertex 45.3 23.7 8.65
      vertex 45.3 2 14
      vertex 45.3 56.4 14
    endloop
  endfacet
  facet normal 0 1 -0
    outer loop
      vertex 45.3 13 3.3
      vertex 2 13 8.65
      vertex 45.3 13 8.65
    endloop
  endfacet
  facet normal 0 1 0
    outer loop
      vertex 2 13 8.65
      vertex 45.3 13 3.3
      vertex 2 13 3.3
    endloop
  endfacet
  facet normal -0 0 1
    outer loop
      vertex 2 13 8.65
      vertex 45.3 2 8.65
      vertex 45.3 13 8.65
    endloop
  endfacet
  facet normal 0 0 1
    outer loop
      vertex 45.3 2 8.65
      vertex 2 13 8.65
      vertex 2 2 8.65
    endloop
  endfacet
  facet normal 0 1 -0
    outer loop
      vertex 45.3 2 8.65
      vertex 2 2 14
      vertex 45.3 2 14
    endloop
  endfacet
  facet normal 0 1 0
    outer loop
      vertex 2 2 14
      vertex 45.3 2 8.65
      vertex 2 2 8.65
    endloop
  endfacet
  facet normal 0 -1 0
    outer loop
      vertex 2 23.7 3.3
      vertex 45.3 23.7 8.65
      vertex 2 23.7 8.65
    endloop
  endfacet
  facet normal 0 -1 -0
    outer loop
      vertex 45.3 23.7 8.65
      vertex 2 23.7 3.3
      vertex 45.3 23.7 3.3
    endloop
  endfacet
  facet normal -0 0 1
    outer loop
      vertex 2 23.7 3.3
      vertex 45.3 13 3.3
      vertex 45.3 23.7 3.3
    endloop
  endfacet
  facet normal 0 0 1
    outer loop
      vertex 45.3 13 3.3
      vertex 2 23.7 3.3
      vertex 2 13 3.3
    endloop
  endfacet
  facet normal -0 0 1
    outer loop
      vertex 2 34.7 8.65
      vertex 45.3 23.7 8.65
      vertex 45.3 34.7 8.65
    endloop
  endfacet
  facet normal 0 0 1
    outer loop
      vertex 45.3 23.7 8.65
      vertex 2 34.7 8.65
      vertex 2 23.7 8.65
    endloop
  endfacet
  facet normal 0 1 -0
    outer loop
      vertex 45.3 34.7 3.3
      vertex 2 34.7 8.65
      vertex 45.3 34.7 8.65
    endloop
  endfacet
  facet normal 0 1 0
    outer loop
      vertex 2 34.7 8.65
      vertex 45.3 34.7 3.3
      vertex 2 34.7 3.3
    endloop
  endfacet
  facet normal 0 -1 0
    outer loop
      vertex 2 45.4 3.3
      vertex 45.3 45.4 8.65
      vertex 2 45.4 8.65
    endloop
  endfacet
  facet normal 0 -1 -0
    outer loop
      vertex 45.3 45.4 8.65
      vertex 2 45.4 3.3
      vertex 45.3 45.4 3.3
    endloop
  endfacet
  facet normal -0 0 1
    outer loop
      vertex 2 45.4 3.3
      vertex 45.3 34.7 3.3
      vertex 45.3 45.4 3.3
    endloop
  endfacet
  facet normal 0 0 1
    outer loop
      vertex 45.3 34.7 3.3
      vertex 2 45.4 3.3
      vertex 2 34.7 3.3
    endloop
  endfacet
  facet normal -0 0 1
    outer loop
      vertex 34.6 56.4 8.65
      vertex 45.3 45.4 8.65
      vertex 45.3 56.4 8.65
    endloop
  endfacet
  facet normal 0 0 1
    outer loop
      vertex 2 45.4 8.65
      vertex 34.6 56.4 8.65
      vertex 2 56.4 8.65
    endloop
  endfacet
  facet normal 0 0 1
    outer loop
      vertex 34.6 56.4 8.65
      vertex 2 45.4 8.65
      vertex 45.3 45.4 8.65
    endloop
  endfacet
  facet normal 0 -1 0
    outer loop
      vertex 34.6 56.4 8.65
      vertex 45.3 56.4 14
      vertex 34.6 56.4 14
    endloop
  endfacet
  facet normal 0 -1 -0
    outer loop
      vertex 45.3 56.4 14
      vertex 34.6 56.4 8.65
      vertex 45.3 56.4 8.65
    endloop
  endfacet
  facet normal -1 0 0
    outer loop
      vertex 34.6 67.1 3.3
      vertex 34.6 56.4 3.3
      vertex 34.6 67.1 8.65
    endloop
  endfacet
  facet normal -1 0 0
    outer loop
      vertex 34.6 67.1 8.65
      vertex 34.6 78.1 14
      vertex 34.6 78.1 8.65
    endloop
  endfacet
  facet normal -1 0 0
    outer loop
      vertex 34.6 56.4 8.65
      vertex 34.6 67.1 8.65
      vertex 34.6 56.4 3.3
    endloop
  endfacet
  facet normal -1 0 0
    outer loop
      vertex 34.6 56.4 14
      vertex 34.6 67.1 8.65
      vertex 34.6 56.4 8.65
    endloop
  endfacet
  facet normal -1 0 0
    outer loop
      vertex 34.6 67.1 8.65
      vertex 34.6 56.4 14
      vertex 34.6 78.1 14
    endloop
  endfacet
  facet normal 0 1 -0
    outer loop
      vertex 34.6 56.4 3.3
      vertex 2 56.4 8.65
      vertex 34.6 56.4 8.65
    endloop
  endfacet
  facet normal 0 1 0
    outer loop
      vertex 2 56.4 8.65
      vertex 34.6 56.4 3.3
      vertex 2 56.4 3.3
    endloop
  endfacet
  facet normal -0 0 1
    outer loop
      vertex 2 67.1 3.3
      vertex 34.6 56.4 3.3
      vertex 34.6 67.1 3.3
    endloop
  endfacet
  facet normal 0 0 1
    outer loop
      vertex 34.6 56.4 3.3
      vertex 2 67.1 3.3
      vertex 2 56.4 3.3
    endloop
  endfacet
  facet normal 0 -1 0
    outer loop
      vertex 2 67.1 3.3
      vertex 34.6 67.1 8.65
      vertex 2 67.1 8.65
    endloop
  endfacet
  facet normal 0 -1 -0
    outer loop
      vertex 34.6 67.1 8.65
      vertex 2 67.1 3.3
      vertex 34.6 67.1 3.3
    endloop
  endfacet
  facet normal -0 0 1
    outer loop
      vertex 2 78.1 8.65
      vertex 34.6 67.1 8.65
      vertex 34.6 78.1 8.65
    endloop
  endfacet
  facet normal 0 0 1
    outer loop
      vertex 34.6 67.1 8.65
      vertex 2 78.1 8.65
      vertex 2 67.1 8.65
    endloop
  endfacet
  facet normal 0 -1 0
    outer loop
      vertex 2 78.1 8.65
      vertex 34.6 78.1 14
      vertex 2 78.1 14
    endloop
  endfacet
  facet normal 0 -1 -0
    outer loop
      vertex 34.6 78.1 14
      vertex 2 78.1 8.65
      vertex 34.6 78.1 8.65
    endloop
  endfacet
  facet normal 1 0 0
    outer loop
      vertex 64.7 78.1 14
      vertex 64.7 67.1 8.65
      vertex 64.7 78.1 8.65
    endloop
  endfacet
  facet normal 1 0 0
    outer loop
      vertex 64.7 67.1 8.65
      vertex 64.7 56.4 8.65
      vertex 64.7 67.1 3.3
    endloop
  endfacet
  facet normal 1 0 0
    outer loop
      vertex 64.7 78.1 14
      vertex 64.7 56.4 8.65
      vertex 64.7 67.1 8.65
    endloop
  endfacet
  facet normal 1 0 0
    outer loop
      vertex 64.7 78.1 14
      vertex 64.7 45.4 8.65
      vertex 64.7 56.4 8.65
    endloop
  endfacet
  facet normal 1 0 0
    outer loop
      vertex 64.7 45.4 8.65
      vertex 64.7 34.7 8.65
      vertex 64.7 45.4 3.3
    endloop
  endfacet
  facet normal 1 0 0
    outer loop
      vertex 64.7 78.1 14
      vertex 64.7 34.7 8.65
      vertex 64.7 45.4 8.65
    endloop
  endfacet
  facet normal 1 -0 0
    outer loop
      vertex 64.7 2 14
      vertex 64.7 34.7 8.65
      vertex 64.7 78.1 14
    endloop
  endfacet
  facet normal 1 0 0
    outer loop
      vertex 64.7 23.7 8.65
      vertex 64.7 13 8.65
      vertex 64.7 23.7 3.3
    endloop
  endfacet
  facet normal 1 0 0
    outer loop
      vertex 64.7 34.7 8.65
      vertex 64.7 2 14
      vertex 64.7 23.7 8.65
    endloop
  endfacet
  facet normal 1 0 0
    outer loop
      vertex 64.7 23.7 8.65
      vertex 64.7 2 14
      vertex 64.7 13 8.65
    endloop
  endfacet
  facet normal 1 0 0
    outer loop
      vertex 64.7 13 8.65
      vertex 64.7 2 14
      vertex 64.7 2 8.65
    endloop
  endfacet
  facet normal 1 0 0
    outer loop
      vertex 64.7 67.1 3.3
      vertex 64.7 56.4 8.65
      vertex 64.7 56.4 3.3
    endloop
  endfacet
  facet normal 1 0 0
    outer loop
      vertex 64.7 45.4 3.3
      vertex 64.7 34.7 8.65
      vertex 64.7 34.7 3.3
    endloop
  endfacet
  facet normal 1 0 0
    outer loop
      vertex 64.7 23.7 3.3
      vertex 64.7 13 8.65
      vertex 64.7 13 3.3
    endloop
  endfacet
  facet normal -1 0 0
    outer loop
      vertex 108 23.7 3.3
      vertex 108 13 3.3
      vertex 108 23.7 8.65
    endloop
  endfacet
  facet normal -1 0 0
    outer loop
      vertex 108 45.4 3.3
      vertex 108 34.7 3.3
      vertex 108 45.4 8.65
    endloop
  endfacet
  facet normal -1 0 0
    outer loop
      vertex 108 45.4 8.65
      vertex 108 56.4 14
      vertex 108 56.4 8.65
    endloop
  endfacet
  facet normal -1 0 0
    outer loop
      vertex 108 34.7 8.65
      vertex 108 45.4 8.65
      vertex 108 34.7 3.3
    endloop
  endfacet
  facet normal -1 0 0
    outer loop
      vertex 108 34.7 8.65
      vertex 108 56.4 14
      vertex 108 45.4 8.65
    endloop
  endfacet
  facet normal -1 0 0
    outer loop
      vertex 108 23.7 8.65
      vertex 108 56.4 14
      vertex 108 34.7 8.65
    endloop
  endfacet
  facet normal -1 0 0
    outer loop
      vertex 108 13 8.65
      vertex 108 23.7 8.65
      vertex 108 13 3.3
    endloop
  endfacet
  facet normal -1 0 0
    outer loop
      vertex 108 2 14
      vertex 108 23.7 8.65
      vertex 108 13 8.65
    endloop
  endfacet
  facet normal -1 0 0
    outer loop
      vertex 108 2 14
      vertex 108 13 8.65
      vertex 108 2 8.65
    endloop
  endfacet
  facet normal -1 0 0
    outer loop
      vertex 108 23.7 8.65
      vertex 108 2 14
      vertex 108 56.4 14
    endloop
  endfacet
  facet normal 0 1 -0
    outer loop
      vertex 108 13 3.3
      vertex 64.7 13 8.65
      vertex 108 13 8.65
    endloop
  endfacet
  facet normal 0 1 0
    outer loop
      vertex 64.7 13 8.65
      vertex 108 13 3.3
      vertex 64.7 13 3.3
    endloop
  endfacet
  facet normal -0 0 1
    outer loop
      vertex 64.7 13 8.65
      vertex 108 2 8.65
      vertex 108 13 8.65
    endloop
  endfacet
  facet normal 0 0 1
    outer loop
      vertex 108 2 8.65
      vertex 64.7 13 8.65
      vertex 64.7 2 8.65
    endloop
  endfacet
  facet normal 0 1 -0
    outer loop
      vertex 108 2 8.65
      vertex 64.7 2 14
      vertex 108 2 14
    endloop
  endfacet
  facet normal 0 1 0
    outer loop
      vertex 64.7 2 14
      vertex 108 2 8.65
      vertex 64.7 2 8.65
    endloop
  endfacet
  facet normal 0 -1 0
    outer loop
      vertex 64.7 23.7 3.3
      vertex 108 23.7 8.65
      vertex 64.7 23.7 8.65
    endloop
  endfacet
  facet normal 0 -1 -0
    outer loop
      vertex 108 23.7 8.65
      vertex 64.7 23.7 3.3
      vertex 108 23.7 3.3
    endloop
  endfacet
  facet normal -0 0 1
    outer loop
      vertex 64.7 23.7 3.3
      vertex 108 13 3.3
      vertex 108 23.7 3.3
    endloop
  endfacet
  facet normal 0 0 1
    outer loop
      vertex 108 13 3.3
      vertex 64.7 23.7 3.3
      vertex 64.7 13 3.3
    endloop
  endfacet
  facet normal -0 0 1
    outer loop
      vertex 64.7 34.7 8.65
      vertex 108 23.7 8.65
      vertex 108 34.7 8.65
    endloop
  endfacet
  facet normal 0 0 1
    outer loop
      vertex 108 23.7 8.65
      vertex 64.7 34.7 8.65
      vertex 64.7 23.7 8.65
    endloop
  endfacet
  facet normal 0 1 -0
    outer loop
      vertex 108 34.7 3.3
      vertex 64.7 34.7 8.65
      vertex 108 34.7 8.65
    endloop
  endfacet
  facet normal 0 1 0
    outer loop
      vertex 64.7 34.7 8.65
      vertex 108 34.7 3.3
      vertex 64.7 34.7 3.3
    endloop
  endfacet
  facet normal 0 -1 0
    outer loop
      vertex 64.7 45.4 3.3
      vertex 108 45.4 8.65
      vertex 64.7 45.4 8.65
    endloop
  endfacet
  facet normal 0 -1 -0
    outer loop
      vertex 108 45.4 8.65
      vertex 64.7 45.4 3.3
      vertex 108 45.4 3.3
    endloop
  endfacet
  facet normal -0 0 1
    outer loop
      vertex 64.7 45.4 3.3
      vertex 108 34.7 3.3
      vertex 108 45.4 3.3
    endloop
  endfacet
  facet normal 0 0 1
    outer loop
      vertex 108 34.7 3.3
      vertex 64.7 45.4 3.3
      vertex 64.7 34.7 3.3
    endloop
  endfacet
  facet normal -0 0 1
    outer loop
      vertex 97.3 56.4 8.65
      vertex 108 45.4 8.65
      vertex 108 56.4 8.65
    endloop
  endfacet
  facet normal 0 0 1
    outer loop
      vertex 64.7 45.4 8.65
      vertex 97.3 56.4 8.65
      vertex 64.7 56.4 8.65
    endloop
  endfacet
  facet normal 0 0 1
    outer loop
      vertex 97.3 56.4 8.65
      vertex 64.7 45.4 8.65
      vertex 108 45.4 8.65
    endloop
  endfacet
  facet normal 0 -1 0
    outer loop
      vertex 97.3 56.4 8.65
      vertex 108 56.4 14
      vertex 97.3 56.4 14
    endloop
  endfacet
  facet normal 0 -1 -0
    outer loop
      vertex 108 56.4 14
      vertex 97.3 56.4 8.65
      vertex 108 56.4 8.65
    endloop
  endfacet
  facet normal -1 0 0
    outer loop
      vertex 97.3 67.1 3.3
      vertex 97.3 56.4 3.3
      vertex 97.3 67.1 8.65
    endloop
  endfacet
  facet normal -1 0 0
    outer loop
      vertex 97.3 67.1 8.65
      vertex 97.3 78.1 14
      vertex 97.3 78.1 8.65
    endloop
  endfacet
  facet normal -1 0 0
    outer loop
      vertex 97.3 56.4 8.65
      vertex 97.3 67.1 8.65
      vertex 97.3 56.4 3.3
    endloop
  endfacet
  facet normal -1 0 0
    outer loop
      vertex 97.3 56.4 14
      vertex 97.3 67.1 8.65
      vertex 97.3 56.4 8.65
    endloop
  endfacet
  facet normal -1 0 0
    outer loop
      vertex 97.3 67.1 8.65
      vertex 97.3 56.4 14
      vertex 97.3 78.1 14
    endloop
  endfacet
  facet normal 0 1 -0
    outer loop
      vertex 97.3 56.4 3.3
      vertex 64.7 56.4 8.65
      vertex 97.3 56.4 8.65
    endloop
  endfacet
  facet normal 0 1 0
    outer loop
      vertex 64.7 56.4 8.65
      vertex 97.3 56.4 3.3
      vertex 64.7 56.4 3.3
    endloop
  endfacet
  facet normal -0 0 1
    outer loop
      vertex 64.7 67.1 3.3
      vertex 97.3 56.4 3.3
      vertex 97.3 67.1 3.3
    endloop
  endfacet
  facet normal 0 0 1
    outer loop
      vertex 97.3 56.4 3.3
      vertex 64.7 67.1 3.3
      vertex 64.7 56.4 3.3
    endloop
  endfacet
  facet normal 0 -1 0
    outer loop
      vertex 64.7 67.1 3.3
      vertex 97.3 67.1 8.65
      vertex 64.7 67.1 8.65
    endloop
  endfacet
  facet normal 0 -1 -0
    outer loop
      vertex 97.3 67.1 8.65
      vertex 64.7 67.1 3.3
      vertex 97.3 67.1 3.3
    endloop
  endfacet
  facet normal -0 0 1
    outer loop
      vertex 64.7 78.1 8.65
      vertex 97.3 67.1 8.65
      vertex 97.3 78.1 8.65
    endloop
  endfacet
  facet normal 0 0 1
    outer loop
      vertex 97.3 67.1 8.65
      vertex 64.7 78.1 8.65
      vertex 64.7 67.1 8.65
    endloop
  endfacet
  facet normal 0 -1 0
    outer loop
      vertex 64.7 78.1 8.65
      vertex 97.3 78.1 14
      vertex 64.7 78.1 14
    endloop
  endfacet
  facet normal 0 -1 -0
    outer loop
      vertex 97.3 78.1 14
      vertex 64.7 78.1 8.65
      vertex 97.3 78.1 8.65
    endloop
  endfacet
  facet normal -1 0 0
    outer loop
      vertex 0 0 0
      vertex 0 80 14
      vertex 0 80 0
    endloop
  endfacet
  facet normal -1 -0 0
    outer loop
      vertex 0 80 14
      vertex 0 0 0
      vertex 0 0 14
    endloop
  endfacet
  facet normal 1 -0 0
    outer loop
      vertex 110 0 14
      vertex 110 80 0
      vertex 110 80 14
    endloop
  endfacet
  facet normal 1 0 0
    outer loop
      vertex 110 80 0
      vertex 110 0 14
      vertex 110 0 0
    endloop
  endfacet
  facet normal 0 1 -0
    outer loop
      vertex 110 80 0
      vertex 0 80 14
      vertex 110 80 14
    endloop
  endfacet
  facet normal 0 1 0
    outer loop
      vertex 0 80 14
      vertex 110 80 0
      vertex 0 80 0
    endloop
  endfacet
  facet normal 0 0 -1
    outer loop
      vertex 0 0 0
      vertex 110 80 0
      vertex 110 0 0
    endloop
  endfacet
  facet normal -0 0 -1
    outer loop
      vertex 110 80 0
      vertex 0 0 0
      vertex 0 80 0
    endloop
  endfacet
  facet normal 0 -1 0
    outer loop
      vertex 0 0 0
      vertex 110 0 14
      vertex 0 0 14
    endloop
  endfacet
  facet normal 0 -1 -0
    outer loop
      vertex 110 0 14
      vertex 0 0 0
      vertex 110 0 0
    endloop
  endfacet
  facet normal -0.992115 -0.125333 0
    outer loop
      vertex 62.7 40 10
      vertex 62.4581 41.9149 14
      vertex 62.4581 41.9149 10
    endloop
  endfacet
  facet normal -0.992115 -0.125333 0
    outer loop
      vertex 62.4581 41.9149 14
      vertex 62.7 40 10
      vertex 62.7 40 14
    endloop
  endfacet
  facet normal 1 -0 0
    outer loop
      vertex 47.3607 39.0349 14
      vertex 47.3607 40.9651 10
      vertex 47.3607 40.9651 14
    endloop
  endfacet
  facet normal 1 0 0
    outer loop
      vertex 47.3607 40.9651 10
      vertex 47.3607 39.0349 14
      vertex 47.3607 39.0349 10
    endloop
  endfacet
  facet normal 0.062792 -0.998027 0
    outer loop
      vertex 53.5572 47.5636 10
      vertex 55.4835 47.6848 14
      vertex 53.5572 47.5636 14
    endloop
  endfacet
  facet normal 0.062792 -0.998027 0
    outer loop
      vertex 55.4835 47.6848 14
      vertex 53.5572 47.5636 10
      vertex 55.4835 47.6848 10
    endloop
  endfacet
  facet normal -0.187381 0.982287 0
    outer loop
      vertex 57.3794 32.6769 10
      vertex 55.4835 32.3152 14
      vertex 57.3794 32.6769 14
    endloop
  endfacet
  facet normal -0.187381 0.982287 0
    outer loop
      vertex 55.4835 32.3152 14
      vertex 57.3794 32.6769 10
      vertex 55.4835 32.3152 10
    endloop
  endfacet
  facet normal -0.637424 -0.770514 0
    outer loop
      vertex 59.1259 46.5013 10
      vertex 60.6131 45.271 14
      vertex 59.1259 46.5013 14
    endloop
  endfacet
  facet normal -0.637424 -0.770514 -0
    outer loop
      vertex 60.6131 45.271 14
      vertex 59.1259 46.5013 10
      vertex 60.6131 45.271 10
    endloop
  endfacet
  facet normal -0.42578 -0.904827 0
    outer loop
      vertex 57.3794 47.3231 10
      vertex 59.1259 46.5013 14
      vertex 57.3794 47.3231 14
    endloop
  endfacet
  facet normal -0.42578 -0.904827 -0
    outer loop
      vertex 59.1259 46.5013 14
      vertex 57.3794 47.3231 10
      vertex 59.1259 46.5013 10
    endloop
  endfacet
  facet normal 0.728969 -0.684547 0
    outer loop
      vertex 48.7706 44.5259 14
      vertex 50.0918 45.933 10
      vertex 50.0918 45.933 14
    endloop
  endfacet
  facet normal 0.728969 -0.684547 0
    outer loop
      vertex 50.0918 45.933 10
      vertex 48.7706 44.5259 14
      vertex 48.7706 44.5259 10
    endloop
  endfacet
  facet normal 0.876307 -0.481753 0
    outer loop
      vertex 47.8407 42.8346 14
      vertex 48.7706 44.5259 10
      vertex 48.7706 44.5259 14
    endloop
  endfacet
  facet normal 0.876307 -0.481753 0
    outer loop
      vertex 48.7706 44.5259 10
      vertex 47.8407 42.8346 14
      vertex 47.8407 42.8346 10
    endloop
  endfacet
  facet normal 0.535826 -0.844329 0
    outer loop
      vertex 50.0918 45.933 10
      vertex 51.7215 46.9672 14
      vertex 50.0918 45.933 14
    endloop
  endfacet
  facet normal 0.535826 -0.844329 0
    outer loop
      vertex 51.7215 46.9672 14
      vertex 50.0918 45.933 10
      vertex 51.7215 46.9672 10
    endloop
  endfacet
  facet normal 0 0 1
    outer loop
      vertex 62.4581 41.9149 10
      vertex 62.4581 38.0851 10
      vertex 62.7 40 10
    endloop
  endfacet
  facet normal 0 0 1
    outer loop
      vertex 61.7476 43.7095 10
      vertex 62.4581 38.0851 10
      vertex 62.4581 41.9149 10
    endloop
  endfacet
  facet normal 0 0 1
    outer loop
      vertex 61.7476 43.7095 10
      vertex 61.7476 36.2905 10
      vertex 62.4581 38.0851 10
    endloop
  endfacet
  facet normal 0 0 1
    outer loop
      vertex 60.6131 45.271 10
      vertex 61.7476 36.2905 10
      vertex 61.7476 43.7095 10
    endloop
  endfacet
  facet normal 0 0 1
    outer loop
      vertex 60.6131 45.271 10
      vertex 60.6131 34.729 10
      vertex 61.7476 36.2905 10
    endloop
  endfacet
  facet normal 0 0 1
    outer loop
      vertex 59.1259 46.5013 10
      vertex 60.6131 34.729 10
      vertex 60.6131 45.271 10
    endloop
  endfacet
  facet normal 0 0 1
    outer loop
      vertex 59.1259 46.5013 10
      vertex 59.1259 33.4987 10
      vertex 60.6131 34.729 10
    endloop
  endfacet
  facet normal 0 0 1
    outer loop
      vertex 57.3794 47.3231 10
      vertex 59.1259 33.4987 10
      vertex 59.1259 46.5013 10
    endloop
  endfacet
  facet normal 0 0 1
    outer loop
      vertex 57.3794 47.3231 10
      vertex 57.3794 32.6769 10
      vertex 59.1259 33.4987 10
    endloop
  endfacet
  facet normal 0 0 1
    outer loop
      vertex 55.4835 47.6848 10
      vertex 57.3794 32.6769 10
      vertex 57.3794 47.3231 10
    endloop
  endfacet
  facet normal 0 0 1
    outer loop
      vertex 55.4835 47.6848 10
      vertex 55.4835 32.3152 10
      vertex 57.3794 32.6769 10
    endloop
  endfacet
  facet normal -0 0 1
    outer loop
      vertex 53.5572 47.5636 10
      vertex 55.4835 32.3152 10
      vertex 55.4835 47.6848 10
    endloop
  endfacet
  facet normal 0 0 1
    outer loop
      vertex 53.5572 47.5636 10
      vertex 53.5572 32.4364 10
      vertex 55.4835 32.3152 10
    endloop
  endfacet
  facet normal -0 0 1
    outer loop
      vertex 51.7215 46.9672 10
      vertex 53.5572 32.4364 10
      vertex 53.5572 47.5636 10
    endloop
  endfacet
  facet normal 0 0 1
    outer loop
      vertex 51.7215 46.9672 10
      vertex 51.7215 33.0328 10
      vertex 53.5572 32.4364 10
    endloop
  endfacet
  facet normal -0 0 1
    outer loop
      vertex 50.0918 45.933 10
      vertex 51.7215 33.0328 10
      vertex 51.7215 46.9672 10
    endloop
  endfacet
  facet normal 0 0 1
    outer loop
      vertex 50.0918 45.933 10
      vertex 50.0918 34.067 10
      vertex 51.7215 33.0328 10
    endloop
  endfacet
  facet normal -0 0 1
    outer loop
      vertex 48.7706 44.5259 10
      vertex 50.0918 34.067 10
      vertex 50.0918 45.933 10
    endloop
  endfacet
  facet normal 0 0 1
    outer loop
      vertex 48.7706 44.5259 10
      vertex 48.7706 35.4741 10
      vertex 50.0918 34.067 10
    endloop
  endfacet
  facet normal -0 0 1
    outer loop
      vertex 47.8407 42.8346 10
      vertex 48.7706 35.4741 10
      vertex 48.7706 44.5259 10
    endloop
  endfacet
  facet normal 0 0 1
    outer loop
      vertex 47.8407 42.8346 10
      vertex 47.8407 37.1654 10
      vertex 48.7706 35.4741 10
    endloop
  endfacet
  facet normal -0 0 1
    outer loop
      vertex 47.3607 40.9651 10
      vertex 47.8407 37.1654 10
      vertex 47.8407 42.8346 10
    endloop
  endfacet
  facet normal 0 0 1
    outer loop
      vertex 47.8407 37.1654 10
      vertex 47.3607 40.9651 10
      vertex 47.3607 39.0349 10
    endloop
  endfacet
  facet normal -0.929776 0.368127 0
    outer loop
      vertex 61.7476 36.2905 10
      vertex 62.4581 38.0851 14
      vertex 62.4581 38.0851 10
    endloop
  endfacet
  facet normal -0.929776 0.368127 0
    outer loop
      vertex 62.4581 38.0851 14
      vertex 61.7476 36.2905 10
      vertex 61.7476 36.2905 14
    endloop
  endfacet
  facet normal -0.809018 -0.587784 0
    outer loop
      vertex 61.7476 43.7095 10
      vertex 60.6131 45.271 14
      vertex 60.6131 45.271 10
    endloop
  endfacet
  facet normal -0.809018 -0.587784 0
    outer loop
      vertex 60.6131 45.271 14
      vertex 61.7476 43.7095 10
      vertex 61.7476 43.7095 14
    endloop
  endfacet
  facet normal -0.929776 -0.368126 0
    outer loop
      vertex 62.4581 41.9149 10
      vertex 61.7476 43.7095 14
      vertex 61.7476 43.7095 10
    endloop
  endfacet
  facet normal -0.929776 -0.368126 0
    outer loop
      vertex 61.7476 43.7095 14
      vertex 62.4581 41.9149 10
      vertex 62.4581 41.9149 14
    endloop
  endfacet
  facet normal -0.187381 -0.982287 0
    outer loop
      vertex 55.4835 47.6848 10
      vertex 57.3794 47.3231 14
      vertex 55.4835 47.6848 14
    endloop
  endfacet
  facet normal -0.187381 -0.982287 -0
    outer loop
      vertex 57.3794 47.3231 14
      vertex 55.4835 47.6848 10
      vertex 57.3794 47.3231 10
    endloop
  endfacet
  facet normal 0.968583 -0.24869 0
    outer loop
      vertex 47.3607 40.9651 14
      vertex 47.8407 42.8346 10
      vertex 47.8407 42.8346 14
    endloop
  endfacet
  facet normal 0.968583 -0.24869 0
    outer loop
      vertex 47.8407 42.8346 10
      vertex 47.3607 40.9651 14
      vertex 47.3607 40.9651 10
    endloop
  endfacet
  facet normal 0.309017 -0.951056 0
    outer loop
      vertex 51.7215 46.9672 10
      vertex 53.5572 47.5636 14
      vertex 51.7215 46.9672 14
    endloop
  endfacet
  facet normal 0.309017 -0.951056 0
    outer loop
      vertex 53.5572 47.5636 14
      vertex 51.7215 46.9672 10
      vertex 53.5572 47.5636 10
    endloop
  endfacet
  facet normal -0.992115 0.125333 0
    outer loop
      vertex 62.4581 38.0851 10
      vertex 62.7 40 14
      vertex 62.7 40 10
    endloop
  endfacet
  facet normal -0.992115 0.125333 0
    outer loop
      vertex 62.7 40 14
      vertex 62.4581 38.0851 10
      vertex 62.4581 38.0851 14
    endloop
  endfacet
  facet normal -0.809018 0.587784 0
    outer loop
      vertex 60.6131 34.729 10
      vertex 61.7476 36.2905 14
      vertex 61.7476 36.2905 10
    endloop
  endfacet
  facet normal -0.809018 0.587784 0
    outer loop
      vertex 61.7476 36.2905 14
      vertex 60.6131 34.729 10
      vertex 60.6131 34.729 14
    endloop
  endfacet
  facet normal 0.876307 0.481754 0
    outer loop
      vertex 48.7706 35.4741 14
      vertex 47.8407 37.1654 10
      vertex 47.8407 37.1654 14
    endloop
  endfacet
  facet normal 0.876307 0.481754 0
    outer loop
      vertex 47.8407 37.1654 10
      vertex 48.7706 35.4741 14
      vertex 48.7706 35.4741 10
    endloop
  endfacet
  facet normal 0.968583 0.248689 0
    outer loop
      vertex 47.8407 37.1654 14
      vertex 47.3607 39.0349 10
      vertex 47.3607 39.0349 14
    endloop
  endfacet
  facet normal 0.968583 0.248689 0
    outer loop
      vertex 47.3607 39.0349 10
      vertex 47.8407 37.1654 14
      vertex 47.8407 37.1654 10
    endloop
  endfacet
  facet normal 0.728969 0.684547 0
    outer loop
      vertex 50.0918 34.067 14
      vertex 48.7706 35.4741 10
      vertex 48.7706 35.4741 14
    endloop
  endfacet
  facet normal 0.728969 0.684547 0
    outer loop
      vertex 48.7706 35.4741 10
      vertex 50.0918 34.067 14
      vertex 50.0918 34.067 10
    endloop
  endfacet
  facet normal 0.06279 0.998027 -0
    outer loop
      vertex 55.4835 32.3152 10
      vertex 53.5572 32.4364 14
      vertex 55.4835 32.3152 14
    endloop
  endfacet
  facet normal 0.06279 0.998027 0
    outer loop
      vertex 53.5572 32.4364 14
      vertex 55.4835 32.3152 10
      vertex 53.5572 32.4364 10
    endloop
  endfacet
  facet normal 0.535827 0.844328 -0
    outer loop
      vertex 51.7215 33.0328 10
      vertex 50.0918 34.067 14
      vertex 51.7215 33.0328 14
    endloop
  endfacet
  facet normal 0.535827 0.844328 0
    outer loop
      vertex 50.0918 34.067 14
      vertex 51.7215 33.0328 10
      vertex 50.0918 34.067 10
    endloop
  endfacet
  facet normal 0.309017 0.951056 -0
    outer loop
      vertex 53.5572 32.4364 10
      vertex 51.7215 33.0328 14
      vertex 53.5572 32.4364 14
    endloop
  endfacet
  facet normal 0.309017 0.951056 0
    outer loop
      vertex 51.7215 33.0328 14
      vertex 53.5572 32.4364 10
      vertex 51.7215 33.0328 10
    endloop
  endfacet
  facet normal -0.637425 0.770513 0
    outer loop
      vertex 60.6131 34.729 10
      vertex 59.1259 33.4987 14
      vertex 60.6131 34.729 14
    endloop
  endfacet
  facet normal -0.637425 0.770513 0
    outer loop
      vertex 59.1259 33.4987 14
      vertex 60.6131 34.729 10
      vertex 59.1259 33.4987 10
    endloop
  endfacet
  facet normal -0.425779 0.904827 0
    outer loop
      vertex 59.1259 33.4987 10
      vertex 57.3794 32.6769 14
      vertex 59.1259 33.4987 14
    endloop
  endfacet
  facet normal -0.425779 0.904827 0
    outer loop
      vertex 57.3794 32.6769 14
      vertex 59.1259 33.4987 10
      vertex 57.3794 32.6769 10
    endloop
  endfacet
endsolid OpenSCAD_Model
